#N canvas 0 83 1680 967 10;
#N canvas 275 83 1335 966 cell 0;
#X obj 100 102 cnv 15 100 95 empty empty empty 20 12 0 14 -198741 -66577
0;
#X obj -170 -8 int;
#X obj -323 9 - 1;
#X obj -36 9 + 1;
#X obj -36 32 spigot 1;
#X obj -323 32 spigot 1;
#X floatatom -170 114 5 0 0 0 - - -;
#X obj -170 -36 bng 15 250 50 0 empty empty empty 17 7 0 10 -262144
-1 -1;
#X obj -665 505 outlet;
#X obj -251 537 outlet;
#X obj 109 533 outlet;
#X obj 370 536 outlet;
#X obj -352 -353 inlet;
#X obj -193 137 pack f f f f;
#X obj -56 -343 inlet;
#X obj 231 -331 inlet;
#X obj 599 -340 inlet;
#X obj 374 274 s out1;
#X obj 417 275 s out2;
#X obj 462 275 s out3;
#X obj 505 276 s out4;
#X obj 549 277 s out5;
#X floatatom 129 177 5 0 0 0 - - -;
#X obj -462 -225 r feed_amount;
#X floatatom 116 -268 5 0 0 0 - - -;
#X obj 215 -219 r max_amount;
#X floatatom 215 -195 5 0 0 0 - - -;
#X obj 480 -159 r max_amount;
#X floatatom 480 -135 5 0 0 0 - - -;
#X obj 165 -162 >=;
#X obj 445 -109 <;
#X floatatom 1 334 5 0 0 0 - - -;
#X obj 1 399 demux 1 2 3 4;
#X floatatom -452 -194 5 0 0 0 - - -;
#X obj 1 312 spigot 1;
#X obj 107 139 bng 15 250 50 0 empty empty pass_feed 17 7 0 10 -262144
-1 -1;
#X obj 107 105 bng 15 250 50 0 empty empty store_feed 17 7 0 10 -262144
-1 -1;
#X obj 107 122 bng 15 250 50 0 empty empty use_feed 17 7 0 10 -262144
-1 -1;
#X obj -229 -275 r synapse;
#X obj 76 377 random 4;
#X obj 76 357 bng 15 250 50 0 empty empty empty 17 7 0 10 -262144 -1
-1;
#X obj 445 -81 route 1;
#X obj 174 -135 route 1;
#X obj -229 -249 bng 15 250 50 0 empty empty empty 17 7 0 10 -262144
-1 -1;
#X obj -170 -62 delay;
#X obj -98 -99 r celldelay;
#X obj -229 -169 spigot;
#X obj -130 43 > 0;
#X obj -185 -229 random;
#X obj -152 -255 r synapse randomness;
#X obj -211 -199 delay;
#X connect 1 0 2 0;
#X connect 1 0 3 0;
#X connect 1 0 6 0;
#X connect 1 0 29 0;
#X connect 1 0 30 0;
#X connect 1 0 47 0;
#X connect 2 0 5 0;
#X connect 3 0 4 0;
#X connect 4 0 1 1;
#X connect 5 0 1 1;
#X connect 6 0 13 1;
#X connect 7 0 1 0;
#X connect 12 0 24 0;
#X connect 14 0 24 0;
#X connect 15 0 24 0;
#X connect 16 0 24 0;
#X connect 23 0 33 0;
#X connect 24 0 3 1;
#X connect 24 0 34 0;
#X connect 24 0 44 0;
#X connect 25 0 26 0;
#X connect 26 0 29 1;
#X connect 27 0 28 0;
#X connect 28 0 30 1;
#X connect 29 0 34 1;
#X connect 29 0 42 0;
#X connect 30 0 4 1;
#X connect 30 0 41 0;
#X connect 31 0 32 0;
#X connect 31 0 40 0;
#X connect 32 0 8 0;
#X connect 32 1 9 0;
#X connect 32 2 10 0;
#X connect 32 3 11 0;
#X connect 33 0 2 1;
#X connect 34 0 31 0;
#X connect 38 0 43 0;
#X connect 39 0 32 1;
#X connect 40 0 39 0;
#X connect 41 0 36 0;
#X connect 42 0 35 0;
#X connect 43 0 48 0;
#X connect 43 0 50 0;
#X connect 44 0 7 0;
#X connect 45 0 44 1;
#X connect 46 0 44 0;
#X connect 47 0 46 1;
#X connect 47 0 5 1;
#X connect 48 0 50 1;
#X connect 49 0 48 1;
#X connect 50 0 46 0;
#X coords 0 -1 1 1 100 100 1 100 100;
#X restore 278 95 pd cell;
#X obj 879 69 s max_amount;
#X obj 849 133 s synapse;
#X obj 936 133 s synapse randomness;
#X obj 740 86 s celldelay;
#X floatatom 879 48 5 0 0 0 - - -;
#X floatatom 936 113 5 0 0 0 - - -;
#X floatatom 740 63 5 0 0 0 - - -;
#X obj 762 183 s feed_amount;
#X floatatom 762 161 5 0 0 0 - - -;
#N canvas 0 108 1335 967 cell 0;
#X obj 100 102 cnv 15 100 95 empty empty empty 20 12 0 14 -198741 -66577
0;
#X obj -170 -8 int;
#X obj -323 9 - 1;
#X obj -36 9 + 1;
#X obj -36 32 spigot 1;
#X obj -323 32 spigot 1;
#X floatatom -170 114 5 0 0 0 - - -;
#X obj -170 -36 bng 15 250 50 0 empty empty empty 17 7 0 10 -262144
-1 -1;
#X obj -665 505 outlet;
#X obj -251 537 outlet;
#X obj 109 533 outlet;
#X obj 370 536 outlet;
#X obj -352 -353 inlet;
#X obj -193 137 pack f f f f;
#X obj -56 -343 inlet;
#X obj 231 -331 inlet;
#X obj 599 -340 inlet;
#X obj 374 274 s out1;
#X obj 417 275 s out2;
#X obj 462 275 s out3;
#X obj 505 276 s out4;
#X obj 549 277 s out5;
#X floatatom 129 177 5 0 0 0 - - -;
#X obj -462 -225 r feed_amount;
#X floatatom 116 -268 5 0 0 0 - - -;
#X obj 215 -219 r max_amount;
#X floatatom 215 -195 5 0 0 0 - - -;
#X obj 480 -159 r max_amount;
#X floatatom 480 -135 5 0 0 0 - - -;
#X obj 165 -162 >=;
#X obj 445 -109 <;
#X floatatom 1 334 5 0 0 0 - - -;
#X obj 1 399 demux 1 2 3 4;
#X floatatom -452 -194 5 0 0 0 - - -;
#X obj 1 312 spigot 1;
#X obj 107 139 bng 15 250 50 0 empty empty pass_feed 17 7 0 10 -262144
-1 -1;
#X obj 107 105 bng 15 250 50 0 empty empty store_feed 17 7 0 10 -262144
-1 -1;
#X obj 107 122 bng 15 250 50 0 empty empty use_feed 17 7 0 10 -262144
-1 -1;
#X obj -229 -275 r synapse;
#X obj 76 377 random 4;
#X obj 76 357 bng 15 250 50 0 empty empty empty 17 7 0 10 -262144 -1
-1;
#X obj 445 -81 route 1;
#X obj 174 -135 route 1;
#X obj -229 -249 bng 15 250 50 0 empty empty empty 17 7 0 10 -262144
-1 -1;
#X obj -170 -62 delay;
#X obj -98 -99 r celldelay;
#X obj -229 -169 spigot;
#X obj -130 43 > 0;
#X obj -185 -229 random;
#X obj -152 -255 r synapse randomness;
#X obj -211 -199 delay;
#X connect 1 0 2 0;
#X connect 1 0 3 0;
#X connect 1 0 6 0;
#X connect 1 0 29 0;
#X connect 1 0 30 0;
#X connect 1 0 47 0;
#X connect 2 0 5 0;
#X connect 3 0 4 0;
#X connect 4 0 1 1;
#X connect 5 0 1 1;
#X connect 6 0 13 1;
#X connect 7 0 1 0;
#X connect 12 0 24 0;
#X connect 14 0 24 0;
#X connect 15 0 24 0;
#X connect 16 0 24 0;
#X connect 23 0 33 0;
#X connect 24 0 3 1;
#X connect 24 0 34 0;
#X connect 24 0 44 0;
#X connect 25 0 26 0;
#X connect 26 0 29 1;
#X connect 27 0 28 0;
#X connect 28 0 30 1;
#X connect 29 0 34 1;
#X connect 29 0 42 0;
#X connect 30 0 4 1;
#X connect 30 0 41 0;
#X connect 31 0 32 0;
#X connect 31 0 40 0;
#X connect 32 0 8 0;
#X connect 32 1 9 0;
#X connect 32 2 10 0;
#X connect 32 3 11 0;
#X connect 33 0 2 1;
#X connect 34 0 31 0;
#X connect 38 0 43 0;
#X connect 39 0 32 1;
#X connect 40 0 39 0;
#X connect 41 0 36 0;
#X connect 42 0 35 0;
#X connect 43 0 48 0;
#X connect 43 0 50 0;
#X connect 44 0 7 0;
#X connect 45 0 44 1;
#X connect 46 0 44 0;
#X connect 47 0 46 1;
#X connect 47 0 5 1;
#X connect 48 0 50 1;
#X connect 49 0 48 1;
#X connect 50 0 46 0;
#X coords 0 -1 1 1 100 100 1 100 100;
#X restore 278 209 pd cell;
#X msg 234 -14;
#N canvas 0 108 1335 967 cell 0;
#X obj 100 102 cnv 15 100 95 empty empty empty 20 12 0 14 -198741 -66577
0;
#X obj -170 -8 int;
#X obj -323 9 - 1;
#X obj -36 9 + 1;
#X obj -36 32 spigot 1;
#X obj -323 32 spigot 1;
#X floatatom -170 114 5 0 0 0 - - -;
#X obj -170 -36 bng 15 250 50 0 empty empty empty 17 7 0 10 -262144
-1 -1;
#X obj -665 505 outlet;
#X obj -251 537 outlet;
#X obj 109 533 outlet;
#X obj 370 536 outlet;
#X obj -352 -353 inlet;
#X obj -193 137 pack f f f f;
#X obj -56 -343 inlet;
#X obj 231 -331 inlet;
#X obj 599 -340 inlet;
#X obj 374 274 s out1;
#X obj 417 275 s out2;
#X obj 462 275 s out3;
#X obj 505 276 s out4;
#X obj 549 277 s out5;
#X floatatom 129 177 5 0 0 0 - - -;
#X obj -462 -225 r feed_amount;
#X floatatom 116 -268 5 0 0 0 - - -;
#X obj 215 -219 r max_amount;
#X floatatom 215 -195 5 0 0 0 - - -;
#X obj 480 -159 r max_amount;
#X floatatom 480 -135 5 0 0 0 - - -;
#X obj 165 -162 >=;
#X obj 445 -109 <;
#X floatatom 1 334 5 0 0 0 - - -;
#X obj 1 399 demux 1 2 3 4;
#X floatatom -452 -194 5 0 0 0 - - -;
#X obj 1 312 spigot 1;
#X obj 107 139 bng 15 250 50 0 empty empty pass_feed 17 7 0 10 -262144
-1 -1;
#X obj 107 105 bng 15 250 50 0 empty empty store_feed 17 7 0 10 -262144
-1 -1;
#X obj 107 122 bng 15 250 50 0 empty empty use_feed 17 7 0 10 -262144
-1 -1;
#X obj -229 -275 r synapse;
#X obj 76 377 random 4;
#X obj 76 357 bng 15 250 50 0 empty empty empty 17 7 0 10 -262144 -1
-1;
#X obj 445 -81 route 1;
#X obj 174 -135 route 1;
#X obj -229 -249 bng 15 250 50 0 empty empty empty 17 7 0 10 -262144
-1 -1;
#X obj -170 -62 delay;
#X obj -98 -99 r celldelay;
#X obj -229 -169 spigot;
#X obj -130 43 > 0;
#X obj -185 -229 random;
#X obj -152 -255 r synapse randomness;
#X obj -211 -199 delay;
#X connect 1 0 2 0;
#X connect 1 0 3 0;
#X connect 1 0 6 0;
#X connect 1 0 29 0;
#X connect 1 0 30 0;
#X connect 1 0 47 0;
#X connect 2 0 5 0;
#X connect 3 0 4 0;
#X connect 4 0 1 1;
#X connect 5 0 1 1;
#X connect 6 0 13 1;
#X connect 7 0 1 0;
#X connect 12 0 24 0;
#X connect 14 0 24 0;
#X connect 15 0 24 0;
#X connect 16 0 24 0;
#X connect 23 0 33 0;
#X connect 24 0 3 1;
#X connect 24 0 34 0;
#X connect 24 0 44 0;
#X connect 25 0 26 0;
#X connect 26 0 29 1;
#X connect 27 0 28 0;
#X connect 28 0 30 1;
#X connect 29 0 34 1;
#X connect 29 0 42 0;
#X connect 30 0 4 1;
#X connect 30 0 41 0;
#X connect 31 0 32 0;
#X connect 31 0 40 0;
#X connect 32 0 8 0;
#X connect 32 1 9 0;
#X connect 32 2 10 0;
#X connect 32 3 11 0;
#X connect 33 0 2 1;
#X connect 34 0 31 0;
#X connect 38 0 43 0;
#X connect 39 0 32 1;
#X connect 40 0 39 0;
#X connect 41 0 36 0;
#X connect 42 0 35 0;
#X connect 43 0 48 0;
#X connect 43 0 50 0;
#X connect 44 0 7 0;
#X connect 45 0 44 1;
#X connect 46 0 44 0;
#X connect 47 0 46 1;
#X connect 47 0 5 1;
#X connect 48 0 50 1;
#X connect 49 0 48 1;
#X connect 50 0 46 0;
#X coords 0 -1 1 1 100 100 1 100 100;
#X restore 383 95 pd cell;
#N canvas 0 108 1335 967 cell 0;
#X obj 100 102 cnv 15 100 95 empty empty empty 20 12 0 14 -198741 -66577
0;
#X obj -170 -8 int;
#X obj -323 9 - 1;
#X obj -36 9 + 1;
#X obj -36 32 spigot 1;
#X obj -323 32 spigot 1;
#X floatatom -170 114 5 0 0 0 - - -;
#X obj -170 -36 bng 15 250 50 0 empty empty empty 17 7 0 10 -262144
-1 -1;
#X obj -665 505 outlet;
#X obj -251 537 outlet;
#X obj 109 533 outlet;
#X obj 370 536 outlet;
#X obj -352 -353 inlet;
#X obj -193 137 pack f f f f;
#X obj -56 -343 inlet;
#X obj 231 -331 inlet;
#X obj 599 -340 inlet;
#X obj 374 274 s out1;
#X obj 417 275 s out2;
#X obj 462 275 s out3;
#X obj 505 276 s out4;
#X obj 549 277 s out5;
#X floatatom 129 177 5 0 0 0 - - -;
#X obj -462 -225 r feed_amount;
#X floatatom 116 -268 5 0 0 0 - - -;
#X obj 215 -219 r max_amount;
#X floatatom 215 -195 5 0 0 0 - - -;
#X obj 480 -159 r max_amount;
#X floatatom 480 -135 5 0 0 0 - - -;
#X obj 165 -162 >=;
#X obj 445 -109 <;
#X floatatom 1 334 5 0 0 0 - - -;
#X obj 1 399 demux 1 2 3 4;
#X floatatom -452 -194 5 0 0 0 - - -;
#X obj 1 312 spigot 1;
#X obj 107 139 bng 15 250 50 0 empty empty pass_feed 17 7 0 10 -262144
-1 -1;
#X obj 107 105 bng 15 250 50 0 empty empty store_feed 17 7 0 10 -262144
-1 -1;
#X obj 107 122 bng 15 250 50 0 empty empty use_feed 17 7 0 10 -262144
-1 -1;
#X obj -229 -275 r synapse;
#X obj 76 377 random 4;
#X obj 76 357 bng 15 250 50 0 empty empty empty 17 7 0 10 -262144 -1
-1;
#X obj 445 -81 route 1;
#X obj 174 -135 route 1;
#X obj -229 -249 bng 15 250 50 0 empty empty empty 17 7 0 10 -262144
-1 -1;
#X obj -170 -62 delay;
#X obj -98 -99 r celldelay;
#X obj -229 -169 spigot;
#X obj -130 43 > 0;
#X obj -185 -229 random;
#X obj -152 -255 r synapse randomness;
#X obj -211 -199 delay;
#X connect 1 0 2 0;
#X connect 1 0 3 0;
#X connect 1 0 6 0;
#X connect 1 0 29 0;
#X connect 1 0 30 0;
#X connect 1 0 47 0;
#X connect 2 0 5 0;
#X connect 3 0 4 0;
#X connect 4 0 1 1;
#X connect 5 0 1 1;
#X connect 6 0 13 1;
#X connect 7 0 1 0;
#X connect 12 0 24 0;
#X connect 14 0 24 0;
#X connect 15 0 24 0;
#X connect 16 0 24 0;
#X connect 23 0 33 0;
#X connect 24 0 3 1;
#X connect 24 0 34 0;
#X connect 24 0 44 0;
#X connect 25 0 26 0;
#X connect 26 0 29 1;
#X connect 27 0 28 0;
#X connect 28 0 30 1;
#X connect 29 0 34 1;
#X connect 29 0 42 0;
#X connect 30 0 4 1;
#X connect 30 0 41 0;
#X connect 31 0 32 0;
#X connect 31 0 40 0;
#X connect 32 0 8 0;
#X connect 32 1 9 0;
#X connect 32 2 10 0;
#X connect 32 3 11 0;
#X connect 33 0 2 1;
#X connect 34 0 31 0;
#X connect 38 0 43 0;
#X connect 39 0 32 1;
#X connect 40 0 39 0;
#X connect 41 0 36 0;
#X connect 42 0 35 0;
#X connect 43 0 48 0;
#X connect 43 0 50 0;
#X connect 44 0 7 0;
#X connect 45 0 44 1;
#X connect 46 0 44 0;
#X connect 47 0 46 1;
#X connect 47 0 5 1;
#X connect 48 0 50 1;
#X connect 49 0 48 1;
#X connect 50 0 46 0;
#X coords 0 -1 1 1 100 100 1 100 100;
#X restore 383 209 pd cell;
#X floatatom 290 52 5 0 0 0 - - -;
#X obj 767 -65 metro;
#X floatatom 813 -95 5 0 0 0 - - -;
#X msg 708 -98 bang;
#X msg 742 -99 stop;
#X obj 768 -42 bng 15 250 50 0 empty empty empty 17 7 0 10 -262144
-1 -1;
#X connect 0 1 10 0;
#X connect 0 2 12 2;
#X connect 5 0 1 0;
#X connect 6 0 3 0;
#X connect 7 0 4 0;
#X connect 9 0 8 0;
#X connect 10 0 0 1;
#X connect 10 3 13 2;
#X connect 12 1 13 0;
#X connect 12 2 0 3;
#X connect 13 0 12 1;
#X connect 13 2 10 3;
#X connect 14 0 0 0;
#X connect 15 0 19 0;
#X connect 16 0 15 1;
#X connect 17 0 15 0;
#X connect 18 0 15 0;
#X connect 19 0 2 0;
