#N canvas 1 83 310 200 10;
#N canvas 0 83 1680 967 funkydrummer 0;
#X obj 101 100 cnv 15 300 180 empty empty empty 20 12 0 14 -210561
-66577 0;
#X obj 126 -73 inlet;
#X obj 139 578 outlet;
#X obj 344 579 outlet;
#X obj 572 577 outlet;
#X obj 113 127 hradio 17 1 0 16 empty empty empty 0 -8 0 10 -260097
-1 -1 0;
#X floatatom 373 -329 5 0 0 0 - - -;
#X obj 126 -10 int;
#X obj 153 -10 + 1;
#X obj 126 -29 bng 15 250 50 0 empty empty empty 17 7 0 10 -262144
-1 -1;
#X obj 126 14 mod 16;
#X text 316 -85 Kick 1;
#X text 577 -73 snare 1;
#X text 1257 -105 Kick 2;
#X text 1551 -60 snare 2;
#X floatatom 800 -147 5 0 0 0 - - -;
#X obj 293 -56 == 0;
#X obj 363 -54 == 2;
#X obj 363 -10 random 100;
#X obj 363 -33 route 1;
#X text 1657 -80 ghost 2;
#X text 784 -92 ghost 1;
#X obj 293 -35 route 1;
#X obj 113 146 bng 15 250 50 0 empty empty empty 17 7 0 10 -129281
-1 -1;
#X obj 363 16 <;
#X obj 363 38 route 1;
#X obj 148 147 bng 15 250 50 0 empty empty empty 17 7 0 10 -92417 -1
-1;
#X obj 54 439 bng 15 250 50 0 empty empty kick 17 7 0 10 -262144 -1
-1;
#X obj 578 -20 route 1;
#X obj 182 164 bng 15 250 50 0 empty empty empty 17 7 0 10 -256833
-1 -1;
#X obj 349 455 bng 15 250 50 0 empty empty snare 17 7 0 10 -262144
-1 -1;
#X obj 1421 -43 route 1;
#X obj 284 148 bng 15 250 50 0 empty empty empty 17 7 0 10 -129281
-1 -1;
#X obj 1551 -14 route 1;
#X obj 317 163 bng 15 250 50 0 empty empty empty 17 7 0 10 -256833
-1 -1;
#X obj 1551 -35 == 12;
#X obj 1270 -23 random 100;
#X obj 1270 -46 route 1;
#X obj 1270 3 <;
#X obj 1270 25 route 1;
#X obj 232 165 bng 15 250 50 0 empty empty empty 17 7 0 10 -92417 -1
-1;
#X floatatom 248 164 2 0 100 1 - - -;
#X obj 1154 -25 random 100;
#X obj 1154 -48 route 1;
#X obj 1154 1 <;
#X obj 1154 23 route 1;
#X obj 216 147 bng 15 250 50 0 empty empty empty 17 7 0 10 -92417 -1
-1;
#X floatatom 232 146 2 0 100 1 - - -;
#X floatatom 163 146 2 0 100 1 - - -;
#X obj 572 452 bng 15 250 50 0 empty empty ghost 17 7 0 10 -262144
-1 -1;
#X obj 779 -21 random 100;
#X obj 779 -44 route 1;
#X obj 779 5 <;
#X obj 779 27 route 1;
#X obj 231 183 bng 15 250 50 0 empty empty empty 17 7 0 10 -2432 -1
-1;
#X floatatom 247 182 2 0 100 1 - - -;
#X obj 1630 -10 random 100;
#X obj 1630 -33 route 1;
#X obj 1630 16 <;
#X obj 1630 38 route 1;
#X obj 369 180 bng 15 250 50 0 empty empty empty 17 7 0 10 -2432 -1
-1;
#X floatatom 384 179 2 0 100 1 - - -;
#X text 195 100 BreakBeat Generator;
#X obj 578 -41 == 4;
#X obj 1421 -64 == 10;
#X obj 1154 -68 == 6;
#X obj 1271 -66 == 7;
#X obj 263 183 bng 15 250 50 0 empty empty empty 17 7 0 10 -2432 -1
-1;
#X obj 136 485 random;
#X obj 107 215 cnv 15 60 60 empty empty empty 20 12 0 14 -13829 -66577
0;
#X floatatom 110 220 3 0 127 1 base - -;
#X floatatom 110 238 3 0 127 1 +max - -;
#X obj 171 215 cnv 15 60 60 empty empty empty 20 12 0 14 -256769 -66577
0;
#X floatatom 174 220 3 0 127 1 base - -;
#X floatatom 174 238 3 0 127 1 +max - -;
#X obj 235 215 cnv 15 60 60 empty empty empty 20 12 0 14 -2496 -66577
0;
#X floatatom 238 219 3 0 127 1 base - -;
#X floatatom 238 237 3 0 127 1 +max - -;
#X obj 139 512 +;
#X floatatom 141 537 5 0 0 0 - - -;
#X obj 344 484 random;
#X obj 347 511 +;
#X floatatom 349 536 5 0 0 0 - - -;
#X obj 572 494 random;
#X obj 575 521 +;
#X floatatom 577 546 5 0 0 0 - - -;
#X obj 761 227 delay;
#X obj 844 146 r tempo_amount;
#X floatatom 849 177 5 0 0 0 - - -;
#X obj 337 214 cnv 15 60 60 empty empty empty 20 12 0 14 -159360 -66577
0;
#X floatatom 340 218 3 0 127 1 base - -;
#X floatatom 340 236 3 0 127 1 +max - -;
#X obj 838 583 outlet;
#X obj 838 458 bng 15 250 50 0 empty empty hat 17 7 0 10 -262144 -1
-1;
#X obj 838 500 random;
#X obj 841 527 +;
#X floatatom 843 552 5 0 0 0 - - -;
#X obj 1630 -56 == 15;
#X obj 782 -64 == 7;
#X obj 850 208 * 2;
#X connect 1 0 9 0;
#X connect 5 0 6 0;
#X connect 6 0 15 0;
#X connect 6 0 35 0;
#X connect 6 0 97 0;
#X connect 7 0 8 0;
#X connect 7 0 10 0;
#X connect 8 0 7 1;
#X connect 9 0 7 0;
#X connect 10 0 5 0;
#X connect 15 0 16 0;
#X connect 15 0 17 0;
#X connect 15 0 63 0;
#X connect 15 0 64 0;
#X connect 15 0 65 0;
#X connect 15 0 66 0;
#X connect 15 0 93 0;
#X connect 15 0 98 0;
#X connect 16 0 22 0;
#X connect 17 0 19 0;
#X connect 18 0 24 0;
#X connect 19 0 18 0;
#X connect 22 0 23 0;
#X connect 23 0 27 0;
#X connect 24 0 25 0;
#X connect 25 0 26 0;
#X connect 26 0 27 0;
#X connect 27 0 68 0;
#X connect 28 0 29 0;
#X connect 29 0 30 0;
#X connect 30 0 80 0;
#X connect 31 0 32 0;
#X connect 32 0 27 0;
#X connect 33 0 34 0;
#X connect 34 0 30 0;
#X connect 35 0 33 0;
#X connect 36 0 38 0;
#X connect 37 0 36 0;
#X connect 38 0 39 0;
#X connect 39 0 40 0;
#X connect 40 0 27 0;
#X connect 41 0 38 1;
#X connect 42 0 44 0;
#X connect 43 0 42 0;
#X connect 44 0 45 0;
#X connect 45 0 46 0;
#X connect 46 0 27 0;
#X connect 47 0 44 1;
#X connect 48 0 24 1;
#X connect 49 0 83 0;
#X connect 50 0 52 0;
#X connect 51 0 50 0;
#X connect 52 0 53 0;
#X connect 53 0 54 0;
#X connect 53 0 86 0;
#X connect 54 0 49 0;
#X connect 55 0 52 1;
#X connect 56 0 58 0;
#X connect 57 0 56 0;
#X connect 58 0 59 0;
#X connect 59 0 60 0;
#X connect 60 0 49 0;
#X connect 61 0 58 1;
#X connect 63 0 28 0;
#X connect 64 0 31 0;
#X connect 65 0 43 0;
#X connect 66 0 37 0;
#X connect 67 0 49 0;
#X connect 68 0 78 0;
#X connect 70 0 78 1;
#X connect 71 0 68 1;
#X connect 73 0 81 1;
#X connect 74 0 80 1;
#X connect 76 0 84 1;
#X connect 77 0 83 1;
#X connect 78 0 79 0;
#X connect 79 0 2 0;
#X connect 80 0 81 0;
#X connect 81 0 82 0;
#X connect 82 0 3 0;
#X connect 83 0 84 0;
#X connect 84 0 85 0;
#X connect 85 0 4 0;
#X connect 86 0 67 0;
#X connect 87 0 88 0;
#X connect 88 0 99 0;
#X connect 90 0 95 1;
#X connect 91 0 94 1;
#X connect 93 0 94 0;
#X connect 94 0 95 0;
#X connect 95 0 96 0;
#X connect 96 0 92 0;
#X connect 97 0 57 0;
#X connect 98 0 51 0;
#X connect 99 0 86 1;
#X coords 0 -1 1 1 300 180 1 100 100;
#X restore -133 -278 pd funkydrummer;
