#N canvas 1 83 313 242 10;
#N canvas 27 113 1625 854 brush 0;
#X obj 101 101 cnv 15 300 220 empty empty empty 20 12 0 14 -182993
-66577 0;
#X obj 290 153 vsl 10 100 0 1 0 0 empty empty empty 0 -9 0 10 -261073
-1 -1 0 1;
#X obj 326 153 vsl 10 100 -5 5 0 0 empty empty empty 0 -9 0 10 -261073
-1 -1 0 1;
#X obj 307 153 vsl 10 100 0 200 0 0 empty empty empty 0 -9 0 10 -261073
-1 -1 0 1;
#X obj 366 153 vsl 10 100 20 20000 0 0 empty empty empty 0 -9 0 10
-261073 -1 -1 0 1;
#X text 106 101 TREE-BRUSH;
#N canvas 0 0 450 300 (subpatch) 0;
#X array waveform8 131 float 1;
#A 0 0.0488143 0 -0.0488143 -0.0953179 -0.137293 -0.172701 -0.19977
-0.217057 -0.223514 -0.218525 -0.201931 -0.174039 -0.135606 -0.087813
-0.0322115 0.0293345 0.0947259 0.161713 0.227989 0.291279 0.349441
0.400547 0.442966 0.475433 0.4971 0.507578 0.506952 0.49578 0.475079
0.44628 0.411176 0.371854 0.330605 0.289836 0.25197 0.219344 0.194112
0.178152 0.17298 0.179681 0.198853 0.230573 0.274375 0.329258 0.393708
0.46574 0.542968 0.622676 0.701916 0.77761 0.846661 0.906064 0.953016
0.985024 0.999999 0.996338 0.972987 0.929495 0.866032 0.783397 0.683
0.56682 0.43735 0.297512 0.150566 8.17172e-06 -0.15055 -0.297496 -0.437336
-0.566807 -0.682988 -0.783387 -0.866024 -0.929489 -0.972984 -0.996336
-1 -0.985027 -0.95302 -0.90607 -0.846668 -0.777618 -0.701925 -0.622685
-0.542977 -0.465749 -0.393715 -0.329265 -0.27438 -0.230577 -0.198856
-0.179682 -0.17298 -0.178151 -0.19411 -0.219341 -0.251966 -0.289832
-0.330601 -0.37185 -0.411172 -0.446276 -0.475076 -0.495779 -0.506951
-0.507579 -0.497102 -0.475435 -0.44297 -0.400552 -0.349447 -0.291286
-0.227996 -0.161721 -0.0947331 -0.0293414 0.0322051 0.0878074 0.135602
0.174035 0.201928 0.218523 0.223514 0.217058 0.199772 0.172705 0.137297
0.0953227 0.0488195 5.31963e-06 -0.0488091;
#X coords 0 1 130 -1 160 50 1 0 0;
#X restore 104 135 graph;
#X floatatom 666 109 5 0 0 0 - - -;
#X floatatom 871 496 5 0 0 0 - - -;
#X obj 172 13 ctlin 15;
#X text 176 -7 PITCH;
#X obj 587 431 int;
#X obj 587 467 tabread octaves;
#X obj 627 439 *;
#X floatatom 791 142 5 0 0 0 - - -;
#X obj 588 547 line~;
#X obj 587 521 pack 0 100;
#X obj 587 495 *;
#X obj 697 1049 *~;
#X obj 702 23 bng 15 250 50 0 empty empty empty 17 7 0 10 -262144 -1
-1;
#X obj 920 181 bng 15 250 50 0 empty empty empty 17 7 0 10 -262144
-1 -1;
#X text 101 -150 BRUSH SYNTH;
#X obj 662 650 +~;
#X obj 727 114 int;
#X floatatom 781 230 5 0 0 0 - - -;
#X floatatom 718 232 5 0 0 0 - - -;
#X obj 1117 520 line~;
#X obj 1117 493 pack 0 100;
#X obj 1118 465 *;
#X obj 1119 432 tabread octaves;
#X obj 1158 387 *;
#X obj 1110 392 int;
#X obj 1138 238 + 3;
#X floatatom 1280 379 5 0 0 0 - - -;
#X floatatom 1110 341 5 0 0 0 - - -;
#X obj 506 1497 outlet~;
#X obj 308 16 ctlin 31;
#X obj 308 43 / 127;
#X obj 308 67 * 200;
#X text 309 -2 PORTA;
#X floatatom 247 41 5 0 0 0 - - -;
#X obj 241 17 ctlin 14;
#X obj 247 69 / 127;
#X text 245 -2 VOLUME;
#X text 385 -1 INTERVAL;
#X obj 386 69 - 5;
#X obj 386 44 / 12.7;
#X text 210 -37 SET YOUR OWN MIDI CONTROL NUMBERS!;
#X obj 106 239 hsl 100 15 0 120 0 0 empty empty empty -2 -8 0 10 -261073
-1 -1 0 1;
#X text 208 239 pitch;
#X obj 88 -38 ctlin;
#X floatatom 101 -13 5 0 0 0 - - -;
#X text 71 -58 CONTROL TEST;
#N canvas 592 168 825 607 envelope 0;
#X obj 263 401 line;
#X msg 487 335 1 \$1;
#X msg 261 328 0 \$1;
#X obj 125 167 t b b;
#X obj 267 499 outlet;
#X obj 418 7 inlet attack;
#X obj 534 79 inlet decay;
#X obj 6 33 inlet trigger;
#X obj 273 133 t f f;
#X obj 63 295 f 50;
#X obj 343 265 f 50;
#X obj 155 228 del 50;
#X connect 0 0 4 0;
#X connect 1 0 0 0;
#X connect 2 0 0 0;
#X connect 3 0 11 0;
#X connect 3 1 10 0;
#X connect 5 0 8 0;
#X connect 6 0 9 1;
#X connect 7 0 3 0;
#X connect 8 0 11 1;
#X connect 8 1 10 1;
#X connect 9 0 2 0;
#X connect 10 0 1 0;
#X connect 11 0 9 0;
#X restore 7 591 pd envelope;
#X obj 21 540 bng 15 250 50 0 empty empty empty 17 7 0 10 -262144 -1
-1;
#X obj 909 985 *~;
#X obj 661 1004 lop~;
#X text 292 134 V;
#X text 307 134 P;
#X text 326 134 I;
#X text 364 134 D;
#X obj 346 153 vsl 10 100 150 20000 0 0 empty empty empty 0 -9 0 10
-261073 -1 -1 0 1;
#X text 345 135 L;
#X text 455 -2 FILTER;
#X obj 456 67 * 20000;
#X obj 456 18 ctlin 34;
#X obj 456 42 / 127;
#X obj 386 20 ctlin 33;
#X obj 569 -6 / 127;
#X text 570 -49 RINGMOD;
#X obj 1347 390 osc~;
#X obj 569 -30 ctlin 35;
#X floatatom 581 89 5 0 0 0 - - -;
#X obj 954 852 *~;
#X obj 858 792 spigot~;
#X obj 1281 425 == 0;
#X obj 384 152 vsl 10 100 0 9000 0 0 empty empty empty 0 -9 0 10 -261073
-1 -1 0 1;
#X text 383 131 R;
#X obj 569 19 * 9000;
#X obj 128 583 pack 0 200;
#X obj 1158 316 tabread scaler;
#X floatatom 1158 341 5 0 0 0 - - -;
#X obj 641 336 tabread scaler;
#X floatatom 584 376 5 0 0 0 - - -;
#X floatatom 560 233 5 0 0 0 - - -;
#X obj 514 272 bng 15 250 50 0 empty empty empty 17 7 0 10 -262144
-1 -1;
#X floatatom 1233 495 5 0 0 0 - - -;
#X floatatom 1139 413 5 0 0 0 - - -;
#X obj 604 285 int;
#X floatatom 633 373 5 0 0 0 - - -;
#X obj 641 315 mod 7;
#X obj 587 407 / 7;
#X obj 1110 369 / 7;
#X obj 1158 294 mod 7;
#X floatatom 474 343 5 0 0 0 - - -;
#X obj 104 256 cnv 15 160 60 empty empty empty 20 12 0 14 -189313 -66577
0;
#X text 106 260 DELAY LINE;
#X floatatom 103 1225 5 0 0 0 - - -;
#X obj 103 1249 / 100;
#X obj 103 1270 osc~ 0;
#X floatatom 153 1254 5 0 0 0 - - -;
#X obj 153 1275 pack 0 100;
#X obj 153 1296 line~;
#X obj 103 1291 +~ 1;
#X obj 104 1337 +~ 1.46;
#X obj 104 1314 *~;
#X obj 174 260 tgl 15 0 empty empty on/off 17 7 0 10 -262144 -1 -1
0 1;
#X floatatom 143 280 5 0 0 0 freq - -;
#X floatatom 143 298 5 0 0 0 depth - -;
#X floatatom 179 281 5 0 0 1 feedb - -;
#X obj 103 1384 spigot~ 1;
#X floatatom 154 1364 1 0 0 0 - - -;
#X floatatom 1075 1295 5 0 0 0 - - -;
#X obj 1075 1318 * 0.01;
#X obj 1075 1341 pack 0 100;
#X obj 1075 1364 line~;
#X obj 1053 1390 *~;
#X obj 1052 1413 clip~ -1 1;
#X obj 497 1458 +~;
#X obj 103 1359 vd~ G04-del;
#X obj 1052 1439 delwrite~ G04-del 1000;
#X obj 172 103 hradio 15 1 0 7 empty empty empty 0 -8 0 10 -256321
-1 -1 0;
#X obj 340 637 s brushnote;
#X obj 273 533 tgl 25 0 empty empty leading 27 12 0 10 -262144 -1 -1
0 1;
#X obj 209 697 r follow;
#X obj 519 1401 +~;
#X msg 156 54 0;
#X obj 219 188 tgl 15 0 empty empty fm 17 7 0 10 -231183 -1 -1 0 1
;
#X floatatom 219 205 5 0 0 1 fq - -;
#X floatatom 241 762 5 0 0 0 - - -;
#X obj 200 791 == 0;
#X obj 270 792 == 1;
#X obj 201 814 route 1;
#X obj 271 816 route 1;
#X obj 200 839 bng 15 250 50 0 empty empty empty 17 7 0 10 -262144
-1 -1;
#X obj 265 844 bng 15 250 50 0 empty empty empty 17 7 0 10 -262144
-1 -1;
#X obj 332 1106 * 0.01;
#X floatatom 332 1087 5 0 0 0 - - -;
#X obj 332 1126 pack 0 100;
#X obj 332 1147 line~;
#X obj 317 1168 *~;
#X obj 317 1189 cos~;
#X obj 318 1211 spigot~ 1;
#X floatatom 369 1191 1 0 0 0 - - -;
#X obj 490 1140 +~;
#X obj 757 445 int;
#X obj 757 481 tabread octaves;
#X obj 797 453 *;
#X obj 766 609 line~;
#X obj 765 583 pack 0 100;
#X obj 757 509 *;
#X obj 804 340 tabread scaler;
#X floatatom 754 390 5 0 0 0 - - -;
#X obj 775 300 int;
#X floatatom 803 387 5 0 0 0 - - -;
#X obj 804 319 mod 7;
#X obj 757 421 / 7;
#X obj 785 553 +;
#X obj 106 200 hsl 100 15 -30 30 0 0 empty empty detune -2 -8 0 10
-260817 -1 -1 4950 1;
#X msg 13 76 0;
#X obj 42 -118 loadbang;
#X obj 922 432 int;
#X obj 922 468 tabread octaves;
#X obj 962 440 *;
#X obj 931 596 line~;
#X obj 930 570 pack 0 100;
#X obj 922 496 *;
#X obj 969 327 tabread scaler;
#X floatatom 919 377 5 0 0 0 - - -;
#X obj 940 287 int;
#X floatatom 968 374 5 0 0 0 - - -;
#X obj 969 306 mod 7;
#X obj 922 408 / 7;
#X obj 950 540 +;
#X obj 106 218 hsl 100 15 -30 30 0 0 empty empty empty -2 -8 0 10 -260817
-1 -1 4950 1;
#X obj 842 700 +~;
#X msg 80 38 1;
#X msg 216 870 1;
#X msg 266 872 0;
#X obj 414 1284 *~;
#X obj 221 225 hsl 45 12 0 1 0 0 empty empty empty -2 -8 0 10 -262130
-1 -1 0 1;
#X msg 206 -98 0;
#X obj 1137 165 r scale_notes;
#X obj 1281 168 r tuning_notes;
#X obj 810 -53 r basetone;
#X obj 1158 364 tabread tuning;
#X obj 968 397 tabread tuning;
#X obj 803 410 tabread tuning;
#X obj 633 396 tabread tuning;
#X floatatom 1138 193 5 0 0 0 - - -;
#X floatatom 522 529 5 0 0 0 - - -;
#X floatatom 683 428 5 0 0 0 - - -;
#X obj 673 150 / 6.5;
#X obj 893 710 +~;
#X obj 1060 -62 r metro;
#X obj 1059 -34 bng 15 250 50 0 empty empty empty 17 7 0 10 -262144
-1 -1;
#X obj 963 -122 notein;
#X floatatom 953 -66 5 0 0 0 - - -;
#X floatatom 989 -65 5 0 0 0 - - -;
#X floatatom 1023 -64 5 0 0 0 - - -;
#X obj 954 -12 == 57;
#X obj 998 -14 == 127;
#X obj 973 14 &&;
#X obj 973 37 tgl 15 0 empty empty empty 17 7 0 10 -262144 -1 -1 0
1;
#X obj 1058 88 gauss;
#X floatatom 271 266 5 0 0 3 gauss - -;
#X floatatom 1058 133 5 0 0 0 - - -;
#X obj 1058 16 spigot;
#X obj 1058 110 int;
#X obj 717 207 +;
#X obj 1142 -75 r tempo_amount;
#X obj 1142 -53 / 2;
#X obj 1152 15 delay;
#X obj 911 -13 == 127;
#X obj 886 15 &&;
#X obj 886 38 tgl 15 0 empty empty empty 17 7 0 10 -262144 -1 -1 0
1;
#X obj 867 -11 == 56;
#X obj 1153 45 spigot;
#X obj 379 110 bng 15 250 50 0 empty empty empty 17 7 0 10 -262144
-1 -1;
#X text 382 107 n;
#X obj 294 105 hsl 80 9 -1 1 0 0 empty empty empty -2 -8 0 10 -121061
-1 -1 0 1;
#X obj 294 116 hsl 80 9 -1 1 0 0 empty empty empty -2 -8 0 10 -120869
-1 -1 0 1;
#X obj 294 127 hsl 80 9 -1 1 0 0 empty empty empty -2 -8 0 10 -120677
-1 -1 0 1;
#X obj -80 197 pack f f f;
#X obj -100 393 bng 15 250 50 0 empty empty empty 17 7 0 10 -262144
-1 -1;
#N canvas 641 83 771 961 machine 0;
#X obj 100 100 cnv 15 110 160 empty empty empty 20 12 0 14 -261682
-66577 0;
#X obj -169 -125 bng 15 250 50 0 empty empty empty 17 7 0 10 -262144
-1 -1;
#X obj -140 437 outlet;
#X obj -146 266 bng 15 250 50 0 empty empty empty 17 7 0 10 -262144
-1 -1;
#X obj -316 116 delay;
#X obj -201 113 delay;
#X obj -174 66 random;
#X obj -289 70 random;
#X floatatom -289 94 5 0 0 0 - - -;
#X floatatom -174 87 5 0 0 0 - - -;
#X floatatom 462 -333 5 0 0 0 - - -;
#X obj 437 -378 int;
#X obj -348 69 spigot 1;
#X obj -233 67 spigot 1;
#X obj -91 111 delay;
#X obj -64 64 random;
#X floatatom -64 85 5 0 0 0 - - -;
#X obj -123 65 spigot 1;
#X obj 14 111 delay;
#X obj 41 64 random;
#X floatatom 41 85 5 0 0 0 - - -;
#X obj -18 65 spigot 1;
#X floatatom 95 -203 5 0 0 0 - - -;
#X obj 423 -275 > 1;
#X floatatom -311 46 1 0 0 0 - - -;
#X floatatom -196 45 1 0 0 0 - - -;
#X floatatom -87 43 1 0 0 0 - - -;
#X floatatom 19 41 1 0 0 0 - - -;
#X obj 451 -276 > 2;
#X obj 484 -278 > 3;
#X obj 519 -280 > 4;
#X text 513 -27 MachineGun;
#X obj 135 242 tgl 15 0 empty empty through 17 7 0 10 -262144 -1 -1
1 1;
#X obj -153 173 spigot 1;
#X floatatom -104 151 1 0 0 0 - - -;
#X msg 673 39 1;
#X msg 697 70 0;
#X obj 744 2 loadbang;
#X floatatom 106 269 2 0 0 0 - - -;
#X obj -205 -493 inlet;
#X obj 105 103 vradio 15 1 0 3 empty empty empty 0 -8 0 10 -260097
-1 -1 0;
#X text 122 101 Single;
#X text 123 116 Burst;
#X text 122 131 Auto;
#X floatatom -255 -726 5 0 0 0 - - -;
#X obj 106 165 vsl 10 90 1 6 0 0 empty empty f 0 -9 0 10 -262144 -1
-1 0 1;
#X obj 121 165 vsl 10 90 0 300 0 0 empty empty a 0 -9 0 10 -262144
-1 -1 0 1;
#X obj -27 -283 metro;
#X floatatom 152 179 5 40 200 2 speed - -;
#X msg -36 -311 bang;
#X msg 5 -313 stop;
#X obj -27 -257 bng 15 250 50 0 empty empty empty 17 7 0 10 -262144
-1 -1;
#X obj -35 -389 spigot 1;
#X obj 164 -527 inlet;
#X obj 135 -362 delay;
#X floatatom 160 -409 5 0 0 0 - - -;
#X floatatom 10 -410 1 0 0 0 - - -;
#X obj -234 -327 spigot 1;
#X floatatom -189 -350 1 0 0 0 - - -;
#X text 150 227 Burst;
#X text 148 155 Auto;
#X obj -34 -355 bng 15 250 50 0 empty empty empty 17 7 0 10 -262144
-1 -1;
#X obj -381 -331 spigot 1;
#X floatatom -336 -354 1 0 0 0 - - -;
#X text -377 -380 Single;
#X text -234 -368 Burst;
#X text -31 -416 Auto;
#X obj -317 -680 == 0;
#X obj -317 -658 route 1;
#X obj -317 -637 bng 15 250 50 0 empty empty empty 17 7 0 10 -262144
-1 -1;
#X msg -331 -611 0;
#X msg -304 -610 1;
#X obj -256 -656 route 1;
#X obj -256 -635 bng 15 250 50 0 empty empty empty 17 7 0 10 -262144
-1 -1;
#X msg -270 -609 0;
#X msg -243 -608 1;
#X obj -256 -678 == 1;
#X obj -197 -652 route 1;
#X obj -197 -631 bng 15 250 50 0 empty empty empty 17 7 0 10 -262144
-1 -1;
#X msg -211 -605 0;
#X msg -184 -604 1;
#X obj -197 -674 == 2;
#X obj 152 197 tgl 15 0 empty empty decay 17 7 0 10 -262144 -1 -1 1
1;
#X msg 519 -4 1;
#X floatatom 202 -361 5 0 0 0 - - -;
#X obj 135 -330 spigot 1;
#X msg 377 -12 70;
#X msg 735 123 50;
#X obj 188 181 bng 11 250 50 0 empty empty empty 17 7 0 10 -262144
-1 -1;
#X obj 427 -130 r tempo_amount;
#X floatatom 435 -101 5 0 0 0 - - -;
#X obj 435 -46 / 2;
#X obj 165 -503 * 24;
#X connect 1 0 12 0;
#X connect 1 0 7 0;
#X connect 1 0 13 0;
#X connect 1 0 17 0;
#X connect 1 0 6 0;
#X connect 1 0 15 0;
#X connect 1 0 21 0;
#X connect 1 0 19 0;
#X connect 1 0 33 0;
#X connect 3 0 2 0;
#X connect 4 0 3 0;
#X connect 5 0 3 0;
#X connect 6 0 9 0;
#X connect 7 0 8 0;
#X connect 8 0 4 1;
#X connect 9 0 5 1;
#X connect 10 0 23 0;
#X connect 10 0 28 0;
#X connect 10 0 29 0;
#X connect 10 0 30 0;
#X connect 11 0 10 0;
#X connect 12 0 4 0;
#X connect 13 0 5 0;
#X connect 14 0 3 0;
#X connect 15 0 16 0;
#X connect 16 0 14 1;
#X connect 17 0 14 0;
#X connect 18 0 3 0;
#X connect 19 0 20 0;
#X connect 20 0 18 1;
#X connect 21 0 18 0;
#X connect 22 0 7 1;
#X connect 22 0 6 1;
#X connect 22 0 15 1;
#X connect 22 0 19 1;
#X connect 23 0 24 0;
#X connect 24 0 12 1;
#X connect 25 0 13 1;
#X connect 26 0 17 1;
#X connect 27 0 21 1;
#X connect 28 0 25 0;
#X connect 29 0 26 0;
#X connect 30 0 27 0;
#X connect 32 0 34 0;
#X connect 33 0 3 0;
#X connect 34 0 33 1;
#X connect 35 0 32 0;
#X connect 36 0 45 0;
#X connect 36 0 46 0;
#X connect 37 0 35 0;
#X connect 37 0 36 0;
#X connect 37 0 87 0;
#X connect 37 0 83 0;
#X connect 39 0 57 0;
#X connect 39 0 52 0;
#X connect 39 0 62 0;
#X connect 40 0 44 0;
#X connect 44 0 67 0;
#X connect 44 0 81 0;
#X connect 44 0 76 0;
#X connect 45 0 11 0;
#X connect 45 0 38 0;
#X connect 46 0 22 0;
#X connect 47 0 51 0;
#X connect 48 0 47 1;
#X connect 49 0 47 0;
#X connect 50 0 47 0;
#X connect 51 0 1 0;
#X connect 52 0 61 0;
#X connect 53 0 92 0;
#X connect 54 0 85 0;
#X connect 55 0 54 1;
#X connect 56 0 52 1;
#X connect 57 0 1 0;
#X connect 58 0 57 1;
#X connect 61 0 49 0;
#X connect 61 0 54 0;
#X connect 62 0 3 0;
#X connect 63 0 62 1;
#X connect 67 0 68 0;
#X connect 68 0 69 0;
#X connect 69 0 70 0;
#X connect 69 0 71 0;
#X connect 70 0 58 0;
#X connect 70 0 56 0;
#X connect 71 0 63 0;
#X connect 72 0 73 0;
#X connect 73 0 74 0;
#X connect 73 0 75 0;
#X connect 74 0 63 0;
#X connect 74 0 56 0;
#X connect 75 0 58 0;
#X connect 76 0 72 0;
#X connect 77 0 78 0;
#X connect 78 0 79 0;
#X connect 78 0 80 0;
#X connect 79 0 58 0;
#X connect 79 0 63 0;
#X connect 80 0 56 0;
#X connect 81 0 77 0;
#X connect 82 0 84 0;
#X connect 83 0 82 0;
#X connect 84 0 85 1;
#X connect 85 0 50 0;
#X connect 86 0 48 0;
#X connect 87 0 48 0;
#X connect 88 0 90 0;
#X connect 89 0 90 0;
#X connect 90 0 91 0;
#X connect 91 0 48 0;
#X connect 92 0 55 0;
#X coords 0 -1 1 1 110 160 1 100 100;
#X restore -156 -26 pd machine;
#X obj -165 165 bng 15 250 50 0 empty empty empty 17 7 0 10 -262144
-1 -1;
#X obj -158 -117 bng 15 250 50 0 empty empty empty 17 7 0 10 -262144
-1 -1;
#X floatatom -56 -98 5 0 0 0 - - -;
#X obj 513 64 * 20000;
#X obj 513 39 / 127;
#X text 512 -4 decay;
#X obj 514 16 ctlin 32;
#X obj 512 108 + 200;
#X obj 589 579 tabosc4~ waveform8;
#X obj 767 641 tabosc4~ waveform8;
#X obj 932 628 tabosc4~ waveform8;
#X obj 1116 550 tabosc4~ waveform8;
#X msg -113 290 \; waveform8 sinesum 131 1 \$1 \$2 \$3;
#X msg -100 336 \; waveform8 normalize 1;
#X obj 690 187 + 14;
#X connect 1 0 18 1;
#X connect 2 0 23 0;
#X connect 3 0 8 0;
#X connect 4 0 53 2;
#X connect 7 0 192 0;
#X connect 8 0 16 1;
#X connect 8 0 27 1;
#X connect 8 0 149 1;
#X connect 8 0 165 1;
#X connect 9 0 7 0;
#X connect 9 0 54 0;
#X connect 11 0 12 0;
#X connect 12 0 17 0;
#X connect 13 0 17 1;
#X connect 14 0 13 1;
#X connect 14 0 20 0;
#X connect 14 0 33 0;
#X connect 14 0 147 1;
#X connect 14 0 163 1;
#X connect 15 0 234 0;
#X connect 16 0 15 0;
#X connect 17 0 16 0;
#X connect 17 0 190 0;
#X connect 18 0 144 0;
#X connect 19 0 7 0;
#X connect 19 0 24 0;
#X connect 20 0 33 0;
#X connect 22 0 175 0;
#X connect 23 0 24 0;
#X connect 24 0 32 1;
#X connect 25 0 88 0;
#X connect 25 0 153 0;
#X connect 25 0 169 0;
#X connect 25 0 91 0;
#X connect 26 0 237 0;
#X connect 27 0 26 0;
#X connect 28 0 27 0;
#X connect 28 0 86 0;
#X connect 29 0 28 0;
#X connect 30 0 28 1;
#X connect 31 0 29 0;
#X connect 31 0 87 0;
#X connect 32 0 93 0;
#X connect 32 0 34 0;
#X connect 33 0 30 1;
#X connect 34 0 92 0;
#X connect 36 0 37 0;
#X connect 37 0 38 0;
#X connect 38 0 3 0;
#X connect 40 0 42 0;
#X connect 41 0 40 0;
#X connect 42 0 1 0;
#X connect 45 0 2 0;
#X connect 46 0 45 0;
#X connect 48 0 7 0;
#X connect 48 0 54 0;
#X connect 50 1 51 0;
#X connect 53 0 55 1;
#X connect 54 0 53 0;
#X connect 55 0 56 0;
#X connect 56 0 18 0;
#X connect 61 0 79 0;
#X connect 64 0 61 0;
#X connect 65 0 66 0;
#X connect 66 0 64 0;
#X connect 67 0 46 0;
#X connect 68 0 78 0;
#X connect 70 0 73 1;
#X connect 71 0 68 0;
#X connect 72 0 75 0;
#X connect 73 0 55 0;
#X connect 74 0 73 0;
#X connect 74 1 55 0;
#X connect 75 0 74 1;
#X connect 76 0 72 0;
#X connect 78 0 70 0;
#X connect 78 0 72 0;
#X connect 78 0 76 0;
#X connect 79 0 56 1;
#X connect 80 0 81 0;
#X connect 81 0 185 0;
#X connect 82 0 89 0;
#X connect 83 0 85 0;
#X connect 83 0 91 0;
#X connect 84 0 85 0;
#X connect 84 0 240 0;
#X connect 85 0 54 0;
#X connect 88 0 32 0;
#X connect 88 0 83 0;
#X connect 88 0 90 0;
#X connect 88 0 122 0;
#X connect 89 0 188 0;
#X connect 90 0 82 0;
#X connect 90 0 94 0;
#X connect 91 0 11 0;
#X connect 92 0 31 0;
#X connect 93 0 80 0;
#X connect 94 0 121 0;
#X connect 97 0 98 0;
#X connect 98 0 99 0;
#X connect 99 0 103 0;
#X connect 100 0 101 0;
#X connect 101 0 102 0;
#X connect 102 0 105 1;
#X connect 103 0 105 0;
#X connect 104 0 119 0;
#X connect 105 0 104 0;
#X connect 106 0 111 0;
#X connect 107 0 97 0;
#X connect 108 0 100 0;
#X connect 109 0 112 0;
#X connect 110 0 118 0;
#X connect 111 0 110 1;
#X connect 112 0 113 0;
#X connect 113 0 114 0;
#X connect 114 0 115 0;
#X connect 115 0 116 1;
#X connect 116 0 117 0;
#X connect 117 0 120 0;
#X connect 118 0 116 0;
#X connect 118 0 35 0;
#X connect 119 0 110 0;
#X connect 124 0 123 0;
#X connect 125 0 118 1;
#X connect 126 0 127 0;
#X connect 127 0 129 0;
#X connect 128 0 137 0;
#X connect 129 0 130 0;
#X connect 129 0 131 0;
#X connect 130 0 132 0;
#X connect 131 0 133 0;
#X connect 132 0 134 0;
#X connect 133 0 135 0;
#X connect 134 0 177 0;
#X connect 135 0 178 0;
#X connect 136 0 138 0;
#X connect 137 0 136 0;
#X connect 138 0 139 0;
#X connect 139 0 140 1;
#X connect 140 0 141 0;
#X connect 141 0 142 0;
#X connect 142 0 179 0;
#X connect 143 0 142 1;
#X connect 144 0 140 0;
#X connect 144 0 125 1;
#X connect 145 0 146 0;
#X connect 146 0 150 0;
#X connect 147 0 150 1;
#X connect 148 0 235 0;
#X connect 149 0 148 0;
#X connect 150 0 157 0;
#X connect 151 0 154 0;
#X connect 152 0 156 0;
#X connect 153 0 155 0;
#X connect 153 0 152 0;
#X connect 154 0 187 0;
#X connect 155 0 151 0;
#X connect 156 0 145 0;
#X connect 157 0 149 0;
#X connect 158 0 157 1;
#X connect 159 0 158 0;
#X connect 159 0 174 0;
#X connect 160 0 159 0;
#X connect 160 0 176 0;
#X connect 160 0 126 0;
#X connect 160 0 181 0;
#X connect 161 0 162 0;
#X connect 162 0 166 0;
#X connect 163 0 166 1;
#X connect 164 0 236 0;
#X connect 165 0 164 0;
#X connect 166 0 173 0;
#X connect 167 0 170 0;
#X connect 168 0 172 0;
#X connect 169 0 171 0;
#X connect 169 0 168 0;
#X connect 170 0 186 0;
#X connect 171 0 167 0;
#X connect 172 0 161 0;
#X connect 173 0 165 0;
#X connect 174 0 173 1;
#X connect 175 0 193 0;
#X connect 177 0 143 0;
#X connect 178 0 143 0;
#X connect 179 0 125 0;
#X connect 180 0 179 1;
#X connect 181 0 180 0;
#X connect 182 0 189 0;
#X connect 184 0 14 0;
#X connect 185 0 30 0;
#X connect 186 0 163 0;
#X connect 187 0 147 0;
#X connect 188 0 13 0;
#X connect 188 0 191 0;
#X connect 189 0 90 1;
#X connect 189 0 155 1;
#X connect 189 0 171 1;
#X connect 189 0 93 1;
#X connect 189 0 91 1;
#X connect 189 0 156 1;
#X connect 189 0 172 1;
#X connect 189 0 92 1;
#X connect 192 0 240 0;
#X connect 193 0 74 0;
#X connect 194 0 195 0;
#X connect 195 0 207 0;
#X connect 195 0 212 0;
#X connect 195 0 217 0;
#X connect 196 0 197 0;
#X connect 196 1 198 0;
#X connect 196 2 199 0;
#X connect 197 0 200 0;
#X connect 197 0 216 0;
#X connect 198 0 201 0;
#X connect 198 0 213 0;
#X connect 200 0 202 0;
#X connect 201 0 202 1;
#X connect 202 0 203 0;
#X connect 203 0 207 1;
#X connect 204 0 208 0;
#X connect 205 0 204 1;
#X connect 206 0 209 1;
#X connect 206 0 19 0;
#X connect 207 0 204 0;
#X connect 208 0 206 0;
#X connect 209 0 25 0;
#X connect 210 0 211 0;
#X connect 211 0 212 1;
#X connect 212 0 217 0;
#X connect 213 0 214 1;
#X connect 214 0 215 0;
#X connect 215 0 217 1;
#X connect 216 0 214 0;
#X connect 217 0 204 0;
#X connect 218 0 239 0;
#X connect 220 0 223 0;
#X connect 221 0 223 1;
#X connect 222 0 223 2;
#X connect 223 0 238 0;
#X connect 225 0 226 0;
#X connect 227 0 225 0;
#X connect 228 0 225 1;
#X connect 229 0 233 0;
#X connect 230 0 229 0;
#X connect 232 0 230 0;
#X connect 233 0 4 0;
#X connect 234 0 22 0;
#X connect 235 0 22 1;
#X connect 236 0 175 1;
#X connect 237 0 193 1;
#X connect 240 0 209 0;
#X coords 0 -1 1 1 300 220 1 100 100;
#X restore -283 -311 pd brush;
