#N canvas 85 170 582 246 10;
#N canvas 24 90 1251 892 key 0;
#X obj 100 100 cnv 15 300 230 empty empty empty 20 12 0 14 -260097
-66577 0;
#N canvas 0 0 450 300 (subpatch) 0;
#X array waveform6 131 float 1;
#A 0 0.267317 0.267317 0.300649 0.300649 0.300649 0.317315 0.333981
0.333981 0.333981 0.345091 0.356202 -0.299328 -0.365993 -0.382659 -0.399325
-0.432657 -0.449323 -0.465989 -0.465989 -0.465989 -0.472655 -0.479322
-0.485988 -0.492654 -0.499321 -0.499321 -0.499321 -0.499321 -0.499321
0.733978 0.600646 0.533981 0.467315 0.400649 0.167318 0.117319 0.0673193
-0.166011 -0.166011 -0.132678 -0.0993442 -0.077122 -0.0548997 -0.0326774
0.000655979 0.0228782 0.0451005 0.0673228 0.100656 0.13399 0.117323
0.0673232 0.000656411 -0.0160103 -0.032677 -0.0660104 -0.166011 -0.199344
-0.232677 -0.299344 -0.399344 -0.466011 -0.482678 -0.499345 -0.599345
-0.699345 -0.799345 -0.866012 -0.932679 -0.999346 0.767324 0.800658
0.800658 0.833991 0.867325 0.933991 0.950658 0.967325 1.00066 1.00066
1.00066 0.983991 0.967325 0.900658 0.883991 0.833991 0.800658 0.733991
0.700657 0.667324 0.633991 0.567324 0.53399 0.500657 0.467324 0.43399
0.367323 0.33399 0.267323 0.23399 0.13399 0.0673229 0.0339895 0.000656098
-0.0660107 -0.0993441 -0.166011 -0.232678 -0.299344 -0.399345 -0.416011
-0.466011 -0.466011 -0.166012 -0.14379 -0.121568 -0.0993464 -0.0771244
-0.0549025 -0.0326805 -0.0104585 0.0117634 0.0339854 0.0839848 0.133984
0.178428 0.222872 0.267316 0.300649 0.333982 0.800643;
#X coords 0 1 130 -1 160 60 1;
#X restore 105 117 graph;
#X obj 281 118 vsl 20 100 0 0.25 0 0 empty empty empty 0 -9 0 10 -260737
-1 -1 0 1;
#X obj 308 119 vsl 20 100 0 200 0 0 empty empty empty 0 -9 0 10 -260737
-1 -1 0 1;
#X text 306 100 porta;
#X text 279 100 vol;
#X obj 346 120 vsl 20 100 0 2000 0 0 empty empty empty 0 -9 0 10 -260737
-1 -1 0 1;
#X obj 373 120 vsl 20 100 0 3000 0 0 empty empty empty 0 -9 0 10 -260737
-1 -1 0 1;
#X text 184 100 TREE-KEY;
#X text 343 100 atck;
#X text 371 100 dcay;
#X obj -7 -56 tgl 15 0 empty empty envelope_on/off 17 7 0 10 -260097
-1 -1 0 1;
#X obj 1437 1738 *~;
#X floatatom 1277 4 5 0 0 0 - - -;
#X floatatom 1476 2 5 0 0 0 - - -;
#X floatatom 1545 -279 5 0 0 0 - - -;
#X obj 1436 -314 notein;
#X obj 1230 348 route 1;
#X obj 1228 368 bng 15 250 50 0 empty empty empty 17 7 0 10 -262144
-1 -1;
#X obj 1714 984 line~;
#X obj 1713 962 pack 0 100;
#X obj 1305 341 route 1;
#X obj 1305 365 bng 15 250 50 0 empty empty empty 17 7 0 10 -262144
-1 -1;
#X obj 1363 343 route 1;
#X obj 1363 367 bng 15 250 50 0 empty empty empty 17 7 0 10 -262144
-1 -1;
#X obj 1432 345 route 1;
#X obj 1433 367 bng 15 250 50 0 empty empty empty 17 7 0 10 -262144
-1 -1;
#X obj 1495 348 route 1;
#X obj 1495 373 bng 15 250 50 0 empty empty empty 17 7 0 10 -262144
-1 -1;
#X obj 1696 348 route 1;
#X obj 1696 372 bng 15 250 50 0 empty empty empty 17 7 0 10 -262144
-1 -1;
#X obj 1756 347 route 1;
#X obj 1756 372 bng 15 250 50 0 empty empty empty 17 7 0 10 -262144
-1 -1;
#X obj 1815 347 route 1;
#X obj 1813 371 bng 15 250 50 0 empty empty empty 17 7 0 10 -262144
-1 -1;
#X obj 1875 347 route 1;
#X obj 1875 371 bng 15 250 50 0 empty empty empty 17 7 0 10 -262144
-1 -1;
#X obj 1936 348 route 1;
#X obj 1930 372 bng 15 250 50 0 empty empty empty 17 7 0 10 -262144
-1 -1;
#X obj 1257 300 > 0;
#X obj 1227 322 &&;
#X obj 1725 298 > 0;
#X obj 1709 324 &&;
#X obj 1796 299 > 0;
#X obj 1767 325 &&;
#X obj 1865 299 > 0;
#X obj 1838 324 &&;
#X obj 1524 299 > 0;
#X obj 1497 326 &&;
#X obj 1458 300 > 0;
#X obj 1427 321 &&;
#X obj 1393 296 > 0;
#X obj 1363 320 &&;
#X obj 1327 296 > 0;
#X obj 1303 318 &&;
#X obj 1933 299 > 0;
#X obj 1904 325 &&;
#X obj 1997 295 > 0;
#X obj 1965 322 &&;
#X floatatom 1579 604 5 0 0 0 - - -;
#X floatatom 1127 668 5 0 0 0 - - -;
#X obj 1483 760 *;
#X obj 1134 -75 bng 15 250 50 0 empty empty empty 17 7 0 10 -262144
-1 -1;
#X obj 1468 796 *;
#X msg 1230 389 0;
#X msg 1304 383 1;
#X msg 1363 385 2;
#X msg 1433 386 3;
#X msg 1494 391 4;
#X msg 1695 391 0;
#X msg 1756 394 1;
#X msg 1813 391 2;
#X msg 1873 390 3;
#X msg 1929 391 4;
#X obj 1129 694 tabread octaves;
#X obj 1218 295 == 60;
#X obj 1289 297 == 62;
#X obj 1355 296 == 64;
#X obj 1421 299 == 65;
#X msg 450 576 3;
#X msg 450 604 4;
#X obj 1436 1767 outlet~;
#X obj 312 46 / 127;
#X obj 312 70 * 200;
#X text 316 -3 PORTA;
#X obj 310 20 ctlin 7;
#X floatatom 255 45 5 0 0 0 - - -;
#X obj 252 70 / 127;
#X text 256 -2 VOLUME;
#X obj 254 19 ctlin 1;
#X obj 1451 1638 *~;
#X floatatom 318 266 5 0 0 2 basetone - -;
#N canvas 592 168 825 607 envelope 0;
#X obj 263 401 line;
#X msg 487 335 1 \$1;
#X msg 261 328 0 \$1;
#X obj 125 167 t b b;
#X obj 267 499 outlet;
#X obj 418 7 inlet attack;
#X obj 534 79 inlet decay;
#X obj 6 33 inlet trigger;
#X obj 273 133 t f f;
#X obj 63 295 f 50;
#X obj 343 265 f 50;
#X obj 155 228 del 50;
#X connect 0 0 4 0;
#X connect 1 0 0 0;
#X connect 2 0 0 0;
#X connect 3 0 11 0;
#X connect 3 1 10 0;
#X connect 5 0 8 0;
#X connect 6 0 9 1;
#X connect 7 0 3 0;
#X connect 8 0 11 1;
#X connect 8 1 10 1;
#X connect 9 0 2 0;
#X connect 10 0 1 0;
#X connect 11 0 9 0;
#X restore 1314 600 pd envelope;
#X text 207 -20 SET YOUR OWN MIDI CONTROL NUMBERS !;
#X obj 1486 299 == 67;
#X obj 2176 344 route 1;
#X obj 2176 368 bng 15 250 50 0 empty empty empty 17 7 0 10 -262144
-1 -1;
#X obj 2236 343 route 1;
#X obj 2236 368 bng 15 250 50 0 empty empty empty 17 7 0 10 -262144
-1 -1;
#X obj 2295 343 route 1;
#X obj 2293 367 bng 15 250 50 0 empty empty empty 17 7 0 10 -262144
-1 -1;
#X obj 2355 343 route 1;
#X obj 2355 367 bng 15 250 50 0 empty empty empty 17 7 0 10 -262144
-1 -1;
#X obj 2416 344 route 1;
#X obj 2410 368 bng 15 250 50 0 empty empty empty 17 7 0 10 -262144
-1 -1;
#X obj 2205 294 > 0;
#X obj 2189 320 &&;
#X obj 2276 295 > 0;
#X obj 2247 321 &&;
#X obj 2345 295 > 0;
#X obj 2318 320 &&;
#X obj 2413 295 > 0;
#X obj 2384 321 &&;
#X obj 2484 292 > 0;
#X obj 2445 318 &&;
#X msg 2175 387 0;
#X msg 2236 390 1;
#X msg 2293 387 2;
#X msg 2353 386 3;
#X msg 2409 387 4;
#X msg 450 626 5;
#X obj 157 25 ctlin;
#X floatatom 189 57 5 0 0 0 - - -;
#X text 140 5 CONTROL TEST;
#X obj 52 29 bendin;
#X floatatom 42 376 5 0 0 0 - - -;
#X floatatom 99 61 5 0 0 0 - - -;
#X floatatom 152 57 5 0 0 0 - - -;
#X obj -107 45 ctlin 65;
#X obj -112 99 == 127;
#X obj -126 123 route 1;
#X obj -59 107 == 0;
#X obj -54 132 route 1;
#X obj -51 165 bng 15 250 50 0 empty empty empty 17 7 0 10 -262144
-1 -1;
#X obj -121 150 bng 15 250 50 0 empty empty empty 17 7 0 10 -262144
-1 -1;
#X msg -106 189 40;
#X msg -44 201 0;
#X obj 763 357 route 1;
#X obj 763 380 bng 15 250 50 0 empty empty empty 17 7 0 10 -262144
-1 -1;
#X obj 823 356 route 1;
#X obj 823 380 bng 15 250 50 0 empty empty empty 17 7 0 10 -262144
-1 -1;
#X obj 882 356 route 1;
#X obj 882 380 bng 15 250 50 0 empty empty empty 17 7 0 10 -262144
-1 -1;
#X obj 942 356 route 1;
#X obj 943 378 bng 15 250 50 0 empty empty empty 17 7 0 10 -262144
-1 -1;
#X obj 998 355 route 1;
#X obj 997 375 bng 15 250 50 0 empty empty empty 17 7 0 10 -262144
-1 -1;
#X obj 778 307 > 0;
#X obj 760 331 &&;
#X obj 1051 309 > 0;
#X obj 1004 332 &&;
#X obj 981 307 > 0;
#X obj 947 334 &&;
#X obj 919 310 > 0;
#X obj 891 334 &&;
#X obj 848 315 > 0;
#X obj 824 334 &&;
#X msg 763 398 0;
#X msg 823 398 1;
#X msg 882 398 2;
#X msg 943 397 3;
#X msg 997 398 4;
#X msg 448 549 2;
#X obj 1539 694 tabread scaler;
#X obj 278 357 route 1;
#X obj 289 344 bng 15 250 50 0 empty empty empty 17 7 0 10 -262144
-1 -1;
#X obj 325 362 route 1;
#X obj 325 387 bng 15 250 50 0 empty empty empty 17 7 0 10 -262144
-1 -1;
#X obj 384 362 route 1;
#X obj 382 386 bng 15 250 50 0 empty empty empty 17 7 0 10 -262144
-1 -1;
#X obj 444 362 route 1;
#X obj 444 386 bng 15 250 50 0 empty empty empty 17 7 0 10 -262144
-1 -1;
#X obj 505 363 route 1;
#X obj 499 387 bng 15 250 50 0 empty empty empty 17 7 0 10 -262144
-1 -1;
#X obj 300 333 > 0;
#X obj 298 344 &&;
#X obj 365 314 > 0;
#X obj 336 340 &&;
#X obj 434 314 > 0;
#X obj 407 339 &&;
#X obj 502 314 > 0;
#X obj 473 340 &&;
#X obj 573 311 > 0;
#X obj 534 337 &&;
#X msg 272 391 0;
#X msg 325 409 1;
#X msg 382 406 2;
#X msg 442 405 3;
#X msg 498 406 4;
#X msg 448 653 6;
#X obj 283 225 bng 15 250 50 0 empty empty empty 17 7 0 10 -262144
-1 -1;
#X obj 1831 993 line~;
#X obj 1831 968 pack 0 100;
#X obj 1831 1018 tabosc4~ waveform6;
#X obj 1831 941 +;
#X floatatom 226 480 5 0 0 0 - - -;
#X obj 119 179 hsl 128 10 0 2 0 0 empty empty empty -2 -8 0 10 -262144
-1 -1 0 1;
#X obj 1960 1002 line~;
#X obj 1960 977 pack 0 100;
#X obj 1960 1027 tabosc4~ waveform6;
#X obj 1960 950 +;
#X floatatom 215 518 5 0 0 0 - - -;
#X obj 119 191 hsl 128 10 0 2 0 0 empty empty empty -2 -8 0 10 -262144
-1 -1 0 1;
#X obj 47 501 - 8192;
#X floatatom 74 652 5 0 0 0 - - -;
#X obj 46 528 / 8192;
#X obj 109 708 * 150;
#X obj 738 308 == 48;
#X obj 812 315 == 50;
#X obj 883 310 == 52;
#X obj 945 308 == 53;
#X obj 1011 308 == 55;
#X obj 1072 356 route 1;
#X obj 1073 378 bng 15 250 50 0 empty empty empty 17 7 0 10 -262144
-1 -1;
#X obj 1128 355 route 1;
#X obj 1128 380 bng 15 250 50 0 empty empty empty 17 7 0 10 -262144
-1 -1;
#X obj 1181 309 > 0;
#X obj 1134 332 &&;
#X obj 1111 307 > 0;
#X obj 1077 334 &&;
#X msg 1073 397 5;
#X msg 1127 398 6;
#X obj 1075 308 == 57;
#X obj 1141 308 == 59;
#X obj 1560 344 route 1;
#X obj 1561 366 bng 15 250 50 0 empty empty empty 17 7 0 10 -262144
-1 -1;
#X obj 1623 347 route 1;
#X obj 1623 372 bng 15 250 50 0 empty empty empty 17 7 0 10 -262144
-1 -1;
#X obj 1652 298 > 0;
#X obj 1625 325 &&;
#X obj 1586 299 > 0;
#X obj 1555 320 &&;
#X msg 1561 385 5;
#X msg 1622 390 6;
#X obj 1549 298 == 69;
#X obj 1614 298 == 71;
#X obj 1685 300 == 72;
#X obj 1756 300 == 74;
#X obj 1825 298 == 76;
#X obj 1895 299 == 77;
#X obj 1959 296 == 79;
#X obj 2006 346 route 1;
#X obj 2067 347 route 1;
#X obj 2061 371 bng 15 250 50 0 empty empty empty 17 7 0 10 -262144
-1 -1;
#X obj 2064 298 > 0;
#X obj 2035 324 &&;
#X obj 2128 294 > 0;
#X obj 2096 321 &&;
#X obj 2007 369 bng 15 250 50 0 empty empty empty 17 7 0 10 -262144
-1 -1;
#X msg 2004 389 5;
#X msg 2060 389 6;
#X obj 2026 298 == 81;
#X obj 2090 295 == 83;
#X obj 2496 339 route 1;
#X obj 2557 340 route 1;
#X obj 2559 361 bng 15 250 50 0 empty empty empty 17 7 0 10 -262144
-1 -1;
#X obj 2554 291 > 0;
#X obj 2525 317 &&;
#X obj 2625 288 > 0;
#X obj 2586 314 &&;
#X obj 2497 363 bng 15 250 50 0 empty empty empty 17 7 0 10 -262144
-1 -1;
#X msg 2494 382 5;
#X msg 2557 386 6;
#X obj 2165 297 == 84;
#X obj 2236 296 == 86;
#X obj 2305 294 == 88;
#X obj 2375 295 == 89;
#X obj 2439 292 == 91;
#X obj 2516 291 == 93;
#X obj 2584 285 == 95;
#X obj 2660 338 route 1;
#X obj 2655 362 bng 15 250 50 0 empty empty empty 17 7 0 10 -262144
-1 -1;
#X obj 2728 286 > 0;
#X obj 2689 312 &&;
#X obj 2683 286 == 96;
#X msg 2653 381 0;
#X msg 450 513 1;
#X obj 582 360 route 1;
#X obj 582 384 bng 15 250 50 0 empty empty empty 17 7 0 10 -262144
-1 -1;
#X obj 643 361 route 1;
#X obj 637 385 bng 15 250 50 0 empty empty empty 17 7 0 10 -262144
-1 -1;
#X obj 640 312 > 0;
#X obj 611 338 &&;
#X obj 711 309 > 0;
#X obj 672 335 &&;
#X msg 580 403 5;
#X msg 636 404 6;
#X obj 666 309 == 47;
#X obj 602 312 == 45;
#X obj 528 311 == 43;
#X obj 464 314 == 41;
#X obj 394 313 == 40;
#X obj 334 320 == 38;
#X obj 260 376 == 36;
#X obj 1126 919 line~;
#X obj 1147 986 osc~;
#X floatatom 636 695 5 0 0 0 - - -;
#X obj 580 723 == 0;
#X obj 580 747 route 1;
#X obj 580 772 bng 15 250 50 0 empty empty empty 17 7 0 10 -262144
-1 -1;
#X obj 636 746 route 1;
#X obj 636 771 bng 15 250 50 0 empty empty empty 17 7 0 10 -262144
-1 -1;
#X obj 636 722 == 1;
#X floatatom 636 671 5 0 0 0 - - -;
#X obj 1382 953 osc~;
#X obj 1382 973 *~ 100;
#X obj 1381 995 clip~ -1 1;
#X obj 111 203 vradio 15 1 0 3 empty empty empty 0 -8 0 10 -261073
-1 -1 0;
#X text 130 202 Wavetable;
#X text 130 218 Sinewave;
#X text 129 233 Squarewave;
#X obj 1206 1162 spigot~ 1;
#X obj 1486 1154 spigot~ 1;
#X floatatom 1244 1128 5 0 0 0 - - -;
#X floatatom 1537 1130 5 0 0 0 - - -;
#X floatatom 1845 1086 1 0 0 0 - - -;
#X obj 691 745 route 1;
#X obj 691 770 bng 15 250 50 0 empty empty empty 17 7 0 10 -262144
-1 -1;
#X obj 691 721 == 2;
#X msg 584 807 0;
#X msg 552 804 1;
#X msg 653 804 0;
#X msg 621 801 1;
#X msg 725 804 0;
#X msg 693 801 1;
#X obj 202 207 tgl 15 0 empty empty fm 17 7 0 10 -231183 -1 -1 0 1
;
#X floatatom 202 226 5 0 0 1 fq - -;
#X floatatom 390 984 5 0 0 0 - - -;
#X obj 349 1013 == 0;
#X obj 419 1014 == 1;
#X obj 350 1036 route 1;
#X obj 420 1038 route 1;
#X obj 349 1061 bng 15 250 50 0 empty empty empty 17 7 0 10 -262144
-1 -1;
#X obj 414 1066 bng 15 250 50 0 empty empty empty 17 7 0 10 -262144
-1 -1;
#X msg 334 1091 1;
#X msg 365 1092 0;
#X msg 415 1094 1;
#X msg 447 1093 0;
#X obj 111 251 cnv 15 200 60 empty empty empty 20 12 0 14 -98369 -66577
0;
#X text 115 253 DELAY LINE;
#X obj 1163 1469 * 0.01;
#X floatatom 1163 1450 5 0 0 0 - - -;
#X obj 1163 1489 pack 0 100;
#X obj 1163 1510 line~;
#X obj 1148 1542 *~;
#X obj 1148 1563 cos~;
#X obj 1149 1585 spigot~ 1;
#X floatatom 1200 1565 1 0 0 0 - - -;
#X obj 1432 1564 spigot~ 1;
#X floatatom 1483 1544 1 0 0 0 - - -;
#X obj 1290 1196 +~;
#X obj 1431 1488 +~;
#X obj 1416 1598 +~;
#X floatatom 145 1218 5 0 0 0 - - -;
#X obj 145 1242 / 100;
#X obj 145 1263 osc~ 0;
#X floatatom 195 1247 5 0 0 0 - - -;
#X obj 195 1268 pack 0 100;
#X obj 195 1289 line~;
#X obj 145 1284 +~ 1;
#X obj 146 1330 +~ 1.46;
#X obj 146 1307 *~;
#X obj 180 252 tgl 15 0 empty empty on/off 17 7 0 10 -262144 -1 -1
0 1;
#X floatatom 148 270 5 0 0 0 freq - -;
#X floatatom 148 288 5 0 0 0 depth - -;
#X floatatom 248 273 5 0 0 0 feedback - -;
#X obj 145 1377 spigot~ 1;
#X floatatom 196 1357 1 0 0 0 - - -;
#X floatatom 1575 1550 5 0 0 0 - - -;
#X obj 1575 1573 * 0.01;
#X obj 1575 1596 pack 0 100;
#X obj 1575 1619 line~;
#X obj 1553 1645 *~;
#X obj 1552 1668 clip~ -1 1;
#X obj 1435 1684 +~;
#X obj 112 313 tgl 15 0 empty empty keyboard_on/off 17 7 0 10 -262144
-1 -1 0 1;
#X obj 1713 1008 tabosc4~ waveform6;
#X obj 1126 895 pack 0 100;
#X obj 1844 1041 +~;
#X obj 1794 1093 +~;
#X obj 1795 1124 spigot~ 1;
#X obj 1200 920 line~;
#X obj 1200 895 pack 0 100;
#X obj 1200 868 +;
#X obj 1271 920 line~;
#X obj 1271 895 pack 0 100;
#X obj 1271 868 +;
#X obj 1188 1022 +~;
#X obj 1211 1066 +~;
#X obj 1191 986 osc~;
#X obj 1236 989 osc~;
#X floatatom 1214 803 5 0 0 0 - - -;
#X floatatom 1286 801 5 0 0 0 - - -;
#X obj 1378 923 line~;
#X obj 1378 899 pack 0 100;
#X obj 1452 924 line~;
#X obj 1452 899 pack 0 100;
#X obj 1452 872 +;
#X obj 1523 924 line~;
#X obj 1523 899 pack 0 100;
#X obj 1523 872 +;
#X floatatom 1413 698 5 0 0 0 - - -;
#X obj 1459 964 osc~;
#X obj 1459 984 *~ 100;
#X obj 1458 1006 clip~ -1 1;
#X obj 1533 953 osc~;
#X obj 1533 973 *~ 100;
#X obj 1532 995 clip~ -1 1;
#X obj 1467 1068 +~;
#X obj 1485 1110 +~;
#X floatatom 522 -289 1 0 0 0 - - -;
#X obj 145 1352 vd~ G05-del;
#X obj 1551 1691 delwrite~ G05-del 1000;
#X obj 310 -324 key;
#X floatatom 312 -270 5 0 0 0 - - -;
#X obj 579 -289 bng 15 250 50 0 empty empty empty 17 7 0 10 -262144
-1 -1;
#X obj 579 -271 bng 15 250 50 0 empty empty empty 17 7 0 10 -262144
-1 -1;
#X obj 579 -253 bng 15 250 50 0 empty empty empty 17 7 0 10 -262144
-1 -1;
#X obj 579 -235 bng 15 250 50 0 empty empty empty 17 7 0 10 -262144
-1 -1;
#X obj 579 -216 bng 15 250 50 0 empty empty empty 17 7 0 10 -262144
-1 -1;
#X obj 579 -198 bng 15 250 50 0 empty empty empty 17 7 0 10 -262144
-1 -1;
#X obj 579 -180 bng 15 250 50 0 empty empty empty 17 7 0 10 -262144
-1 -1;
#X obj 552 -154 bng 15 250 50 0 empty empty empty 17 7 0 10 -262144
-1 -1;
#X obj 552 -136 bng 15 250 50 0 empty empty empty 17 7 0 10 -262144
-1 -1;
#X obj 552 -118 bng 15 250 50 0 empty empty empty 17 7 0 10 -262144
-1 -1;
#X obj 552 -100 bng 15 250 50 0 empty empty empty 17 7 0 10 -262144
-1 -1;
#X obj 552 -81 bng 15 250 50 0 empty empty empty 17 7 0 10 -262144
-1 -1;
#X obj 552 -63 bng 15 250 50 0 empty empty empty 17 7 0 10 -262144
-1 -1;
#X obj 552 -45 bng 15 250 50 0 empty empty empty 17 7 0 10 -262144
-1 -1;
#X obj 452 -139 bng 15 250 50 0 empty empty empty 17 7 0 10 -262144
-1 -1;
#X obj 452 -121 bng 15 250 50 0 empty empty empty 17 7 0 10 -262144
-1 -1;
#X obj 452 -103 bng 15 250 50 0 empty empty empty 17 7 0 10 -262144
-1 -1;
#X obj 451 -85 bng 15 250 50 0 empty empty empty 17 7 0 10 -262144
-1 -1;
#X obj 452 -66 bng 15 250 50 0 empty empty empty 17 7 0 10 -262144
-1 -1;
#X obj 452 -48 bng 15 250 50 0 empty empty empty 17 7 0 10 -262144
-1 -1;
#X obj 452 -30 bng 15 250 50 0 empty empty empty 17 7 0 10 -262144
-1 -1;
#X obj 312 -248 route 113 119 101 114 116 121 117;
#X obj 312 -220 route 97 115 100 102 103 104 106;
#X obj 311 -192 route 122 120 99 118 98 110 109;
#X text 475 -89 1 OCTAVE;
#X text 577 -108 2 OCTAVE;
#X text 604 -235 3 OCTAVE;
#X text 374 -269 PC KEYBOARD READER;
#X obj 310 -303 spigot;
#X obj 1454 -85 spigot 1;
#X obj 1375 -88 spigot 1;
#X floatatom 1434 -122 1 0 0 0 - - -;
#X obj 954 -245 tgl 15 0 empty empty on 17 7 0 10 -262144 -1 -1 0 1
;
#X obj 1251 -540 r keytype;
#X obj 1881 -280 r notes_per_octave;
#X floatatom 1881 -257 5 0 0 0 - - -;
#X floatatom 1251 -517 5 0 0 0 - - -;
#X obj 1508 723 tabread tuning;
#X obj 1221 -427 == 0;
#X obj 1221 -403 route 1;
#X obj 1221 -381 bng 15 250 50 0 empty empty empty 17 7 0 10 -262144
-1 -1;
#X obj 1300 -404 route 1;
#X obj 1300 -384 bng 15 250 50 0 empty empty empty 17 7 0 10 -262144
-1 -1;
#X obj 1300 -428 == 1;
#X msg 1210 -359 0;
#X msg 1241 -359 1;
#X msg 1294 -362 0;
#X msg 1325 -362 1;
#X obj 1556 -171 spigot 1;
#X floatatom 1687 -175 5 0 0 0 - - -;
#X floatatom 1568 -112 5 0 0 0 - - -;
#X floatatom 1616 -199 1 0 0 0 - - -;
#X text 1272 -95 Diatonic Path;
#X obj 1549 -59 / 12;
#X obj 1603 -68 mod 12;
#X floatatom 1603 -40 5 0 0 0 - - -;
#X text 1671 -229 Chromatic Path (12tone);
#X obj 1549 -38 int;
#X obj 1463 1245 touchin;
#X floatatom 1463 1268 5 0 0 0 - - -;
#X obj 1463 1291 / 127;
#X floatatom 1463 1361 5 0 0 0 - - -;
#X obj 1463 1335 line;
#X obj 1463 1313 pack 0 58;
#X obj 1549 -13 - 3;
#X floatatom 1550 11 5 0 0 0 - - -;
#X floatatom 1549 -84 5 0 0 0 - - -;
#X obj 1687 -19 bng 15 250 50 0 empty empty empty 17 7 0 10 -262144
-1 -1;
#X obj 1679 -151 > 0;
#X obj 1565 -134 spigot 1;
#X obj 506 83 r basetone;
#X connect 2 0 12 1;
#X connect 3 0 20 1;
#X connect 3 0 192 1;
#X connect 3 0 198 1;
#X connect 3 0 377 1;
#X connect 3 0 401 0;
#X connect 6 0 92 1;
#X connect 7 0 92 2;
#X connect 12 0 81 0;
#X connect 13 0 75 0;
#X connect 13 0 76 0;
#X connect 13 0 77 0;
#X connect 13 0 78 0;
#X connect 13 0 94 0;
#X connect 13 0 190 0;
#X connect 13 0 207 0;
#X connect 13 0 208 0;
#X connect 13 0 209 0;
#X connect 13 0 210 0;
#X connect 13 0 211 0;
#X connect 13 0 222 0;
#X connect 13 0 223 0;
#X connect 13 0 234 0;
#X connect 13 0 235 0;
#X connect 13 0 236 0;
#X connect 13 0 237 0;
#X connect 13 0 238 0;
#X connect 13 0 239 0;
#X connect 13 0 240 0;
#X connect 13 0 251 0;
#X connect 13 0 252 0;
#X connect 13 0 263 0;
#X connect 13 0 264 0;
#X connect 13 0 265 0;
#X connect 13 0 266 0;
#X connect 13 0 267 0;
#X connect 13 0 268 0;
#X connect 13 0 269 0;
#X connect 13 0 274 0;
#X connect 13 0 287 0;
#X connect 13 0 288 0;
#X connect 13 0 289 0;
#X connect 13 0 290 0;
#X connect 13 0 291 0;
#X connect 13 0 292 0;
#X connect 13 0 293 0;
#X connect 14 0 39 0;
#X connect 14 0 51 0;
#X connect 14 0 53 0;
#X connect 14 0 49 0;
#X connect 14 0 47 0;
#X connect 14 0 41 0;
#X connect 14 0 43 0;
#X connect 14 0 45 0;
#X connect 14 0 55 0;
#X connect 14 0 57 0;
#X connect 14 0 105 0;
#X connect 14 0 107 0;
#X connect 14 0 109 0;
#X connect 14 0 111 0;
#X connect 14 0 113 0;
#X connect 14 0 147 0;
#X connect 14 0 155 0;
#X connect 14 0 153 0;
#X connect 14 0 151 0;
#X connect 14 0 149 0;
#X connect 14 0 174 0;
#X connect 14 0 176 0;
#X connect 14 0 178 0;
#X connect 14 0 180 0;
#X connect 14 0 182 0;
#X connect 14 0 218 0;
#X connect 14 0 216 0;
#X connect 14 0 230 0;
#X connect 14 0 228 0;
#X connect 14 0 244 0;
#X connect 14 0 246 0;
#X connect 14 0 256 0;
#X connect 14 0 258 0;
#X connect 14 0 272 0;
#X connect 14 0 283 0;
#X connect 14 0 281 0;
#X connect 16 0 445 0;
#X connect 16 0 463 0;
#X connect 16 1 444 0;
#X connect 16 1 464 0;
#X connect 16 2 15 0;
#X connect 17 0 18 0;
#X connect 18 0 64 0;
#X connect 18 0 79 0;
#X connect 18 0 92 0;
#X connect 19 0 376 0;
#X connect 20 0 19 0;
#X connect 21 0 22 0;
#X connect 22 0 65 0;
#X connect 22 0 79 0;
#X connect 22 0 92 0;
#X connect 23 0 24 0;
#X connect 24 0 66 0;
#X connect 24 0 79 0;
#X connect 24 0 92 0;
#X connect 25 0 26 0;
#X connect 26 0 67 0;
#X connect 26 0 79 0;
#X connect 26 0 92 0;
#X connect 27 0 28 0;
#X connect 28 0 68 0;
#X connect 28 0 79 0;
#X connect 28 0 92 0;
#X connect 29 0 30 0;
#X connect 30 0 69 0;
#X connect 30 0 80 0;
#X connect 30 0 92 0;
#X connect 31 0 32 0;
#X connect 32 0 70 0;
#X connect 32 0 80 0;
#X connect 32 0 92 0;
#X connect 33 0 34 0;
#X connect 34 0 71 0;
#X connect 34 0 80 0;
#X connect 34 0 92 0;
#X connect 35 0 36 0;
#X connect 36 0 72 0;
#X connect 36 0 80 0;
#X connect 36 0 92 0;
#X connect 37 0 38 0;
#X connect 38 0 73 0;
#X connect 38 0 80 0;
#X connect 38 0 92 0;
#X connect 39 0 40 1;
#X connect 40 0 17 0;
#X connect 41 0 42 1;
#X connect 42 0 29 0;
#X connect 43 0 44 1;
#X connect 44 0 31 0;
#X connect 45 0 46 1;
#X connect 46 0 33 0;
#X connect 47 0 48 1;
#X connect 48 0 27 0;
#X connect 49 0 50 1;
#X connect 50 0 25 0;
#X connect 51 0 52 1;
#X connect 52 0 23 0;
#X connect 53 0 54 1;
#X connect 54 0 21 0;
#X connect 55 0 56 1;
#X connect 56 0 35 0;
#X connect 57 0 58 1;
#X connect 58 0 37 0;
#X connect 59 0 163 0;
#X connect 60 0 74 0;
#X connect 61 0 63 1;
#X connect 62 0 13 0;
#X connect 62 0 59 0;
#X connect 62 0 60 0;
#X connect 62 0 480 0;
#X connect 63 0 20 0;
#X connect 63 0 194 0;
#X connect 63 0 200 0;
#X connect 63 0 377 0;
#X connect 63 0 383 0;
#X connect 63 0 386 0;
#X connect 63 0 394 0;
#X connect 63 0 397 0;
#X connect 63 0 400 0;
#X connect 64 0 59 0;
#X connect 65 0 59 0;
#X connect 66 0 59 0;
#X connect 67 0 59 0;
#X connect 68 0 59 0;
#X connect 69 0 59 0;
#X connect 70 0 59 0;
#X connect 71 0 59 0;
#X connect 72 0 59 0;
#X connect 73 0 59 0;
#X connect 74 0 63 0;
#X connect 75 0 40 0;
#X connect 76 0 54 0;
#X connect 77 0 52 0;
#X connect 78 0 50 0;
#X connect 79 0 60 0;
#X connect 80 0 60 0;
#X connect 82 0 83 0;
#X connect 83 0 3 0;
#X connect 85 0 82 0;
#X connect 86 0 87 0;
#X connect 89 0 86 0;
#X connect 90 0 374 1;
#X connect 91 0 61 1;
#X connect 94 0 48 0;
#X connect 95 0 96 0;
#X connect 96 0 115 0;
#X connect 96 0 120 0;
#X connect 97 0 98 0;
#X connect 98 0 116 0;
#X connect 98 0 120 0;
#X connect 99 0 100 0;
#X connect 100 0 117 0;
#X connect 100 0 120 0;
#X connect 101 0 102 0;
#X connect 102 0 118 0;
#X connect 102 0 120 0;
#X connect 103 0 104 0;
#X connect 104 0 119 0;
#X connect 104 0 120 0;
#X connect 105 0 106 1;
#X connect 106 0 95 0;
#X connect 107 0 108 1;
#X connect 108 0 97 0;
#X connect 109 0 110 1;
#X connect 110 0 99 0;
#X connect 111 0 112 1;
#X connect 112 0 101 0;
#X connect 113 0 114 1;
#X connect 114 0 103 0;
#X connect 115 0 59 0;
#X connect 115 0 92 0;
#X connect 116 0 59 0;
#X connect 116 0 92 0;
#X connect 117 0 59 0;
#X connect 117 0 92 0;
#X connect 118 0 59 0;
#X connect 118 0 92 0;
#X connect 119 0 59 0;
#X connect 119 0 92 0;
#X connect 120 0 60 0;
#X connect 121 0 127 0;
#X connect 121 1 122 0;
#X connect 124 0 125 0;
#X connect 124 1 126 0;
#X connect 125 0 203 0;
#X connect 128 0 129 0;
#X connect 128 0 131 0;
#X connect 129 0 130 0;
#X connect 130 0 134 0;
#X connect 131 0 132 0;
#X connect 132 0 133 0;
#X connect 133 0 136 0;
#X connect 134 0 135 0;
#X connect 135 0 3 0;
#X connect 136 0 3 0;
#X connect 137 0 138 0;
#X connect 138 0 157 0;
#X connect 138 0 162 0;
#X connect 138 0 92 0;
#X connect 139 0 140 0;
#X connect 140 0 158 0;
#X connect 140 0 162 0;
#X connect 140 0 92 0;
#X connect 141 0 142 0;
#X connect 142 0 159 0;
#X connect 142 0 162 0;
#X connect 142 0 92 0;
#X connect 143 0 144 0;
#X connect 144 0 160 0;
#X connect 144 0 162 0;
#X connect 144 0 92 0;
#X connect 145 0 146 0;
#X connect 146 0 161 0;
#X connect 146 0 162 0;
#X connect 146 0 92 0;
#X connect 147 0 148 1;
#X connect 148 0 137 0;
#X connect 149 0 150 1;
#X connect 150 0 145 0;
#X connect 151 0 152 1;
#X connect 152 0 143 0;
#X connect 153 0 154 1;
#X connect 154 0 141 0;
#X connect 155 0 156 1;
#X connect 156 0 139 0;
#X connect 157 0 59 0;
#X connect 158 0 59 0;
#X connect 159 0 59 0;
#X connect 160 0 59 0;
#X connect 161 0 59 0;
#X connect 162 0 60 0;
#X connect 163 0 452 0;
#X connect 164 0 165 0;
#X connect 165 0 184 0;
#X connect 165 0 92 0;
#X connect 165 0 276 0;
#X connect 166 0 167 0;
#X connect 167 0 185 0;
#X connect 167 0 92 0;
#X connect 167 0 276 0;
#X connect 168 0 169 0;
#X connect 169 0 186 0;
#X connect 169 0 92 0;
#X connect 169 0 276 0;
#X connect 170 0 171 0;
#X connect 171 0 187 0;
#X connect 171 0 92 0;
#X connect 171 0 276 0;
#X connect 172 0 173 0;
#X connect 173 0 188 0;
#X connect 173 0 92 0;
#X connect 173 0 276 0;
#X connect 174 0 175 1;
#X connect 175 0 164 0;
#X connect 176 0 177 1;
#X connect 177 0 166 0;
#X connect 178 0 179 1;
#X connect 179 0 168 0;
#X connect 180 0 181 1;
#X connect 181 0 170 0;
#X connect 182 0 183 1;
#X connect 183 0 172 0;
#X connect 184 0 59 0;
#X connect 185 0 59 0;
#X connect 186 0 59 0;
#X connect 187 0 59 0;
#X connect 188 0 59 0;
#X connect 189 0 60 0;
#X connect 191 0 193 0;
#X connect 192 0 191 0;
#X connect 193 0 378 0;
#X connect 194 0 192 0;
#X connect 195 0 194 1;
#X connect 196 0 195 0;
#X connect 196 0 391 0;
#X connect 197 0 199 0;
#X connect 198 0 197 0;
#X connect 199 0 378 1;
#X connect 200 0 198 0;
#X connect 201 0 200 1;
#X connect 202 0 201 0;
#X connect 202 0 392 0;
#X connect 203 0 205 0;
#X connect 204 0 206 0;
#X connect 205 0 204 0;
#X connect 206 0 3 0;
#X connect 207 0 148 0;
#X connect 208 0 156 0;
#X connect 209 0 154 0;
#X connect 210 0 152 0;
#X connect 211 0 150 0;
#X connect 212 0 213 0;
#X connect 213 0 220 0;
#X connect 213 0 162 0;
#X connect 213 0 92 0;
#X connect 214 0 215 0;
#X connect 215 0 221 0;
#X connect 215 0 162 0;
#X connect 215 0 92 0;
#X connect 216 0 217 1;
#X connect 217 0 214 0;
#X connect 218 0 219 1;
#X connect 219 0 212 0;
#X connect 220 0 59 0;
#X connect 221 0 59 0;
#X connect 222 0 219 0;
#X connect 223 0 217 0;
#X connect 224 0 225 0;
#X connect 225 0 232 0;
#X connect 225 0 92 0;
#X connect 225 0 79 0;
#X connect 226 0 227 0;
#X connect 227 0 233 0;
#X connect 227 0 92 0;
#X connect 227 0 79 0;
#X connect 228 0 229 1;
#X connect 229 0 226 0;
#X connect 230 0 231 1;
#X connect 231 0 224 0;
#X connect 232 0 59 0;
#X connect 233 0 59 0;
#X connect 234 0 231 0;
#X connect 235 0 229 0;
#X connect 236 0 42 0;
#X connect 237 0 44 0;
#X connect 238 0 46 0;
#X connect 239 0 56 0;
#X connect 240 0 58 0;
#X connect 241 0 248 0;
#X connect 242 0 243 0;
#X connect 243 0 250 0;
#X connect 243 0 92 0;
#X connect 243 0 80 0;
#X connect 244 0 245 1;
#X connect 245 0 241 0;
#X connect 246 0 247 1;
#X connect 247 0 242 0;
#X connect 248 0 249 0;
#X connect 248 0 92 0;
#X connect 248 0 80 0;
#X connect 249 0 59 0;
#X connect 250 0 59 0;
#X connect 251 0 245 0;
#X connect 252 0 247 0;
#X connect 253 0 260 0;
#X connect 254 0 255 0;
#X connect 255 0 262 0;
#X connect 255 0 92 0;
#X connect 255 0 120 0;
#X connect 256 0 257 1;
#X connect 257 0 253 0;
#X connect 258 0 259 1;
#X connect 259 0 254 0;
#X connect 260 0 261 0;
#X connect 260 0 92 0;
#X connect 260 0 120 0;
#X connect 261 0 59 0;
#X connect 262 0 59 0;
#X connect 263 0 106 0;
#X connect 264 0 108 0;
#X connect 265 0 110 0;
#X connect 266 0 112 0;
#X connect 267 0 114 0;
#X connect 268 0 257 0;
#X connect 269 0 259 0;
#X connect 270 0 271 0;
#X connect 271 0 275 0;
#X connect 271 0 189 0;
#X connect 271 0 92 0;
#X connect 272 0 273 1;
#X connect 273 0 270 0;
#X connect 274 0 273 0;
#X connect 275 0 59 0;
#X connect 276 0 60 0;
#X connect 277 0 278 0;
#X connect 278 0 285 0;
#X connect 278 0 276 0;
#X connect 278 0 92 0;
#X connect 279 0 280 0;
#X connect 280 0 286 0;
#X connect 280 0 276 0;
#X connect 280 0 92 0;
#X connect 281 0 282 1;
#X connect 282 0 277 0;
#X connect 283 0 284 1;
#X connect 284 0 279 0;
#X connect 285 0 59 0;
#X connect 286 0 59 0;
#X connect 287 0 284 0;
#X connect 288 0 282 0;
#X connect 289 0 183 0;
#X connect 290 0 181 0;
#X connect 291 0 179 0;
#X connect 292 0 177 0;
#X connect 293 0 175 0;
#X connect 294 0 295 0;
#X connect 295 0 387 0;
#X connect 296 0 297 0;
#X connect 296 0 302 0;
#X connect 296 0 318 0;
#X connect 297 0 298 0;
#X connect 298 0 299 0;
#X connect 299 0 319 0;
#X connect 299 0 320 0;
#X connect 300 0 301 0;
#X connect 301 0 322 0;
#X connect 301 0 321 0;
#X connect 302 0 300 0;
#X connect 303 0 296 0;
#X connect 304 0 305 0;
#X connect 305 0 306 0;
#X connect 306 0 408 0;
#X connect 307 0 303 0;
#X connect 311 0 350 0;
#X connect 312 0 350 1;
#X connect 313 0 311 1;
#X connect 314 0 312 1;
#X connect 315 0 380 1;
#X connect 316 0 317 0;
#X connect 317 0 324 0;
#X connect 317 0 323 0;
#X connect 318 0 316 0;
#X connect 319 0 314 0;
#X connect 319 0 313 0;
#X connect 320 0 315 0;
#X connect 321 0 314 0;
#X connect 321 0 315 0;
#X connect 322 0 313 0;
#X connect 323 0 313 0;
#X connect 323 0 315 0;
#X connect 324 0 314 0;
#X connect 325 0 327 0;
#X connect 326 0 341 0;
#X connect 327 0 328 0;
#X connect 327 0 329 0;
#X connect 328 0 330 0;
#X connect 329 0 331 0;
#X connect 330 0 332 0;
#X connect 331 0 333 0;
#X connect 332 0 334 0;
#X connect 332 0 335 0;
#X connect 333 0 336 0;
#X connect 333 0 337 0;
#X connect 334 0 349 0;
#X connect 335 0 347 0;
#X connect 336 0 347 0;
#X connect 337 0 349 0;
#X connect 340 0 342 0;
#X connect 341 0 340 0;
#X connect 342 0 343 0;
#X connect 343 0 344 1;
#X connect 344 0 345 0;
#X connect 345 0 346 0;
#X connect 346 0 352 0;
#X connect 347 0 346 1;
#X connect 348 0 352 1;
#X connect 349 0 348 1;
#X connect 350 0 351 0;
#X connect 351 0 348 0;
#X connect 351 0 344 0;
#X connect 352 0 90 0;
#X connect 353 0 354 0;
#X connect 354 0 355 0;
#X connect 355 0 359 0;
#X connect 356 0 357 0;
#X connect 357 0 358 0;
#X connect 358 0 361 1;
#X connect 359 0 361 0;
#X connect 360 0 411 0;
#X connect 361 0 360 0;
#X connect 362 0 367 0;
#X connect 363 0 353 0;
#X connect 364 0 356 0;
#X connect 365 0 368 0;
#X connect 366 0 374 0;
#X connect 367 0 366 1;
#X connect 368 0 369 0;
#X connect 369 0 370 0;
#X connect 370 0 371 0;
#X connect 371 0 372 1;
#X connect 372 0 373 0;
#X connect 373 0 412 0;
#X connect 374 0 372 0;
#X connect 374 0 12 0;
#X connect 375 0 410 0;
#X connect 376 0 379 0;
#X connect 377 0 294 0;
#X connect 378 0 379 1;
#X connect 379 0 380 0;
#X connect 380 0 351 1;
#X connect 381 0 389 0;
#X connect 382 0 381 0;
#X connect 383 0 382 0;
#X connect 384 0 390 0;
#X connect 385 0 384 0;
#X connect 386 0 385 0;
#X connect 387 0 388 0;
#X connect 388 0 311 0;
#X connect 389 0 387 1;
#X connect 390 0 388 1;
#X connect 391 0 383 1;
#X connect 391 0 397 1;
#X connect 392 0 386 1;
#X connect 392 0 400 1;
#X connect 393 0 304 0;
#X connect 394 0 393 0;
#X connect 395 0 402 0;
#X connect 396 0 395 0;
#X connect 397 0 396 0;
#X connect 398 0 405 0;
#X connect 399 0 398 0;
#X connect 400 0 399 0;
#X connect 401 0 382 1;
#X connect 401 0 385 1;
#X connect 401 0 394 1;
#X connect 401 0 396 1;
#X connect 401 0 399 1;
#X connect 402 0 403 0;
#X connect 403 0 404 0;
#X connect 404 0 408 1;
#X connect 405 0 406 0;
#X connect 406 0 407 0;
#X connect 407 0 409 1;
#X connect 408 0 409 0;
#X connect 409 0 312 0;
#X connect 410 0 443 1;
#X connect 411 0 366 0;
#X connect 413 0 443 0;
#X connect 414 0 436 0;
#X connect 414 0 437 0;
#X connect 414 0 438 0;
#X connect 415 0 30 0;
#X connect 416 0 32 0;
#X connect 417 0 34 0;
#X connect 418 0 36 0;
#X connect 419 0 38 0;
#X connect 420 0 248 0;
#X connect 421 0 243 0;
#X connect 422 0 18 0;
#X connect 423 0 22 0;
#X connect 424 0 24 0;
#X connect 425 0 26 0;
#X connect 426 0 28 0;
#X connect 427 0 225 0;
#X connect 428 0 227 0;
#X connect 429 0 138 0;
#X connect 430 0 140 0;
#X connect 431 0 142 0;
#X connect 432 0 144 0;
#X connect 433 0 146 0;
#X connect 434 0 213 0;
#X connect 435 0 215 0;
#X connect 436 0 415 0;
#X connect 436 1 416 0;
#X connect 436 2 417 0;
#X connect 436 3 418 0;
#X connect 436 4 419 0;
#X connect 436 5 420 0;
#X connect 436 6 421 0;
#X connect 437 0 422 0;
#X connect 437 1 423 0;
#X connect 437 2 424 0;
#X connect 437 3 425 0;
#X connect 437 4 426 0;
#X connect 437 5 427 0;
#X connect 437 6 428 0;
#X connect 438 0 429 0;
#X connect 438 1 430 0;
#X connect 438 2 431 0;
#X connect 438 3 432 0;
#X connect 438 4 433 0;
#X connect 438 5 434 0;
#X connect 438 6 435 0;
#X connect 443 0 414 0;
#X connect 444 0 14 0;
#X connect 445 0 13 0;
#X connect 446 0 445 1;
#X connect 446 0 444 1;
#X connect 447 0 446 0;
#X connect 448 0 451 0;
#X connect 449 0 450 0;
#X connect 450 0 468 1;
#X connect 450 0 469 1;
#X connect 451 0 453 0;
#X connect 451 0 458 0;
#X connect 452 0 61 0;
#X connect 453 0 454 0;
#X connect 454 0 455 0;
#X connect 455 0 459 0;
#X connect 455 0 460 0;
#X connect 456 0 457 0;
#X connect 457 0 461 0;
#X connect 457 0 462 0;
#X connect 458 0 456 0;
#X connect 459 0 466 0;
#X connect 460 0 446 0;
#X connect 461 0 446 0;
#X connect 462 0 466 0;
#X connect 463 0 484 0;
#X connect 464 0 483 0;
#X connect 465 0 469 0;
#X connect 465 0 481 0;
#X connect 466 0 463 1;
#X connect 468 0 472 0;
#X connect 469 0 470 0;
#X connect 470 0 452 0;
#X connect 470 0 482 0;
#X connect 472 0 479 0;
#X connect 473 0 474 0;
#X connect 474 0 475 0;
#X connect 475 0 478 0;
#X connect 476 0 90 1;
#X connect 477 0 476 0;
#X connect 478 0 477 0;
#X connect 479 0 480 0;
#X connect 480 0 60 0;
#X connect 481 0 468 0;
#X connect 482 0 481 0;
#X connect 483 0 484 1;
#X connect 484 0 465 0;
#X connect 485 0 91 0;
#X coords 0 -1 1 1 300 230 1 100 100;
#X restore -630 -1419 pd key;
#N canvas 0 88 1280 936 dronesynth 0;
#X obj 101 101 cnv 15 270 180 empty empty empty 20 12 0 14 -260481
-66577 0;
#X text 206 99 Dronesynth;
#N canvas 0 0 450 300 (subpatch) 0;
#X array waveformD 131 float 1;
#A 0 0.267317 0.267317 0.300649 0.300649 0.300649 0.317315 0.333981
0.333981 0.333981 0.345091 0.356202 -0.299328 -0.365993 -0.382659 -0.399325
-0.432657 -0.449323 -0.465989 0.23399 0.23399 0.23399 0.13399 0.0839902
0.0339903 0.00899036 -0.0160096 -0.116009 -0.166009 -0.241009 -0.266009
-0.316009 -0.216009 -0.166009 -0.166009 -0.0660095 0.0339903 0.0673236
0.100657 0.13399 0.23399 0.28399 0.33399 0.38399 0.43399 0.483989 0.517323
0.550656 0.583989 0.733989 0.783989 0.833989 0.883989 0.908989 0.933989
0.958989 0.983989 0.983988 0.983988 0.958989 0.933989 0.933989 0.883989
0.867322 0.850655 0.833989 0.783989 0.733989 0.708989 0.683989 0.633989
0.583989 0.567323 0.550656 0.533989 0.48399 0.43399 0.417323 0.400656
0.38399 0.33399 0.30899 0.28399 0.28399 -0.816008 -0.791008 -0.766008
-0.616008 -0.566008 -0.516008 -0.466009 -0.416009 -0.316009 -0.216009
-0.141009 -0.0660094 0.0089905 0.0839904 0.15899 0.23399 0.28399 0.43399
0.48399 0.533989 0.633989 0.683989 0.783989 0.783989 0.783989 0.883989
0.983989 0.983989 1.03399 0.883989 0.733989 0.683989 0.633989 0.48399
0.38399 0.33399 0.30899 0.23399 0.0339905 0.0339854 0.0839848 0.133984
0.178428 0.222872 0.267316 0.300649 0.333982 0.800643;
#X coords 0 1 130 -1 100 40 1 0 0;
#X restore 103 119 graph;
#X floatatom 1137 678 5 0 0 0 - - -;
#X obj 1524 778 *;
#X obj 1139 704 tabread octaves;
#X msg 1044 283 3;
#X msg 1044 311 4;
#X obj 1446 1777 outlet~;
#X obj 1427 1750 *~;
#X floatatom 310 258 5 0 0 2 basetone - -;
#X msg 1044 333 5;
#X msg 1042 256 2;
#X msg 1042 360 6;
#X obj 1836 994 +;
#X obj 107 163 hsl 90 10 0 2 0 0 empty empty empty -2 -8 0 10 -262144
-1 -1 0 1;
#X obj 1971 997 +;
#X obj 107 175 hsl 90 10 0 2 0 0 empty empty empty -2 -8 0 10 -262144
-1 -1 0 1;
#X msg 1044 220 1;
#X obj 1157 996 osc~;
#X floatatom 840 684 5 0 0 0 - - -;
#X obj 784 712 == 0;
#X obj 784 736 route 1;
#X obj 784 761 bng 15 250 50 0 empty empty empty 17 7 0 10 -262144
-1 -1;
#X obj 840 735 route 1;
#X obj 840 760 bng 15 250 50 0 empty empty empty 17 7 0 10 -262144
-1 -1;
#X obj 840 711 == 1;
#X floatatom 840 660 5 0 0 0 - - -;
#X obj 1392 963 osc~;
#X obj 1392 983 *~ 100;
#X obj 1391 1005 clip~ -1 1;
#X obj 208 124 vradio 15 1 0 3 empty empty empty 0 -8 0 10 -261073
-1 -1 0;
#X text 227 123 Wavetable;
#X text 227 139 Sinewave;
#X text 226 154 Squarewave;
#X obj 1216 1172 spigot~ 1;
#X obj 1496 1164 spigot~ 1;
#X floatatom 1254 1138 5 0 0 0 - - -;
#X floatatom 1547 1140 5 0 0 0 - - -;
#X floatatom 1855 1096 1 0 0 0 - - -;
#X obj 895 734 route 1;
#X obj 895 759 bng 15 250 50 0 empty empty empty 17 7 0 10 -262144
-1 -1;
#X obj 895 710 == 2;
#X msg 788 796 0;
#X msg 756 793 1;
#X msg 857 793 0;
#X msg 825 790 1;
#X msg 929 793 0;
#X msg 897 790 1;
#X obj 310 203 tgl 15 0 empty empty fm 17 7 0 10 -231183 -1 -1 0 1
;
#X floatatom 310 222 5 0 0 1 fq - -;
#X floatatom 529 1113 5 0 0 0 - - -;
#X obj 488 1142 == 0;
#X obj 558 1143 == 1;
#X obj 489 1165 route 1;
#X obj 559 1167 route 1;
#X obj 488 1190 bng 15 250 50 0 empty empty empty 17 7 0 10 -262144
-1 -1;
#X obj 553 1195 bng 15 250 50 0 empty empty empty 17 7 0 10 -262144
-1 -1;
#X msg 473 1220 1;
#X msg 504 1221 0;
#X msg 554 1223 1;
#X msg 586 1222 0;
#X obj 104 195 cnv 15 200 60 empty empty empty 20 12 0 14 -98369 -66577
0;
#X text 108 197 DELAY LINE;
#X obj 1173 1479 * 0.01;
#X floatatom 1173 1460 5 0 0 0 - - -;
#X obj 1173 1499 pack 0 100;
#X obj 1173 1520 line~;
#X obj 1158 1552 *~;
#X obj 1158 1573 cos~;
#X obj 1159 1595 spigot~ 1;
#X floatatom 1210 1575 1 0 0 0 - - -;
#X obj 1442 1574 spigot~ 1;
#X floatatom 1493 1554 1 0 0 0 - - -;
#X obj 1300 1206 +~;
#X obj 1441 1498 +~;
#X obj 1324 1656 +~;
#X floatatom 298 1413 5 0 0 0 - - -;
#X obj 298 1437 / 100;
#X obj 298 1458 osc~ 0;
#X floatatom 348 1442 5 0 0 0 - - -;
#X obj 348 1463 pack 0 100;
#X obj 348 1484 line~;
#X obj 298 1479 +~ 1;
#X obj 299 1525 +~ 1.46;
#X obj 299 1502 *~;
#X obj 173 196 tgl 15 0 empty empty on/off 17 7 0 10 -262144 -1 -1
0 1;
#X floatatom 141 214 5 0 0 0 freq - -;
#X floatatom 141 232 5 0 0 0 depth - -;
#X floatatom 241 217 5 0 0 0 feedback - -;
#X obj 298 1575 spigot~ 1;
#X floatatom 349 1552 1 0 0 0 - - -;
#X floatatom 1786 1476 5 0 0 0 - - -;
#X obj 1786 1499 * 0.01;
#X obj 1786 1522 pack 0 100;
#X obj 1786 1545 line~;
#X obj 1764 1571 *~;
#X obj 1763 1594 clip~ -1 1;
#X obj 105 257 tgl 15 0 empty empty keyboard_on/off 17 7 0 10 -262144
-1 -1 0 1;
#X obj 1854 1051 +~;
#X obj 1804 1103 +~;
#X obj 1805 1134 spigot~ 1;
#X obj 1202 957 +;
#X obj 1273 957 +;
#X obj 1198 1032 +~;
#X obj 1221 1076 +~;
#X obj 1201 996 osc~;
#X obj 1246 999 osc~;
#X floatatom 1235 841 5 0 0 0 - - -;
#X floatatom 1278 841 5 0 0 0 - - -;
#X obj 1468 945 +;
#X obj 1539 945 +;
#X floatatom 1496 718 5 0 0 0 - - -;
#X obj 1469 974 osc~;
#X obj 1469 994 *~ 100;
#X obj 1468 1016 clip~ -1 1;
#X obj 1543 963 osc~;
#X obj 1543 983 *~ 100;
#X obj 1542 1005 clip~ -1 1;
#X obj 1477 1078 +~;
#X obj 1495 1120 +~;
#X obj 308 115 vsl 25 80 0 0.25 0 0 empty empty vol 0 -9 0 10 -260097
-1 -1 0 1;
#X obj 560 11 r basetone;
#X obj 341 106 bng 18 250 50 0 empty empty empty 17 7 0 10 -223233
-1 -1;
#X obj 341 126 bng 18 250 50 0 empty empty empty 17 7 0 10 -223233
-1 -1;
#X obj 341 146 bng 18 250 50 0 empty empty empty 17 7 0 10 -223233
-1 -1;
#X obj 341 166 bng 18 250 50 0 empty empty empty 17 7 0 10 -223233
-1 -1;
#X obj 1711 1022 tabosc4~ waveformD;
#X obj 1837 1021 tabosc4~ waveformD;
#X obj 1971 1028 tabosc4~ waveformD;
#X obj 1336 1716 +~;
#X obj 1762 1617 delwrite~ G06-del 1000;
#X obj 298 1547 vd~ G06-del;
#X obj 1442 645 bng 15 250 50 0 empty empty empty 17 7 0 10 -262144
-1 -1;
#X msg 1046 185 0;
#X obj 341 186 bng 18 250 50 0 empty empty empty 17 7 0 10 -223233
-1 -1;
#X connect 3 0 5 0;
#X connect 4 0 14 0;
#X connect 4 0 16 0;
#X connect 4 0 102 0;
#X connect 4 0 103 0;
#X connect 4 0 110 0;
#X connect 4 0 111 0;
#X connect 4 0 28 0;
#X connect 4 0 19 0;
#X connect 4 0 127 0;
#X connect 5 0 4 0;
#X connect 6 0 3 0;
#X connect 7 0 3 0;
#X connect 9 0 8 0;
#X connect 10 0 112 0;
#X connect 11 0 3 0;
#X connect 12 0 3 0;
#X connect 13 0 3 0;
#X connect 14 0 128 0;
#X connect 15 0 108 0;
#X connect 16 0 129 0;
#X connect 17 0 109 0;
#X connect 18 0 3 0;
#X connect 19 0 104 0;
#X connect 20 0 21 0;
#X connect 20 0 26 0;
#X connect 20 0 42 0;
#X connect 21 0 22 0;
#X connect 22 0 23 0;
#X connect 23 0 43 0;
#X connect 23 0 44 0;
#X connect 24 0 25 0;
#X connect 25 0 46 0;
#X connect 25 0 45 0;
#X connect 26 0 24 0;
#X connect 27 0 20 0;
#X connect 28 0 29 0;
#X connect 29 0 30 0;
#X connect 30 0 119 0;
#X connect 31 0 27 0;
#X connect 35 0 74 0;
#X connect 36 0 74 1;
#X connect 37 0 35 1;
#X connect 38 0 36 1;
#X connect 39 0 101 1;
#X connect 40 0 41 0;
#X connect 41 0 48 0;
#X connect 41 0 47 0;
#X connect 42 0 40 0;
#X connect 43 0 38 0;
#X connect 43 0 37 0;
#X connect 44 0 39 0;
#X connect 45 0 38 0;
#X connect 45 0 39 0;
#X connect 46 0 37 0;
#X connect 47 0 37 0;
#X connect 47 0 39 0;
#X connect 48 0 38 0;
#X connect 49 0 51 0;
#X connect 50 0 65 0;
#X connect 51 0 52 0;
#X connect 51 0 53 0;
#X connect 52 0 54 0;
#X connect 53 0 55 0;
#X connect 54 0 56 0;
#X connect 55 0 57 0;
#X connect 56 0 58 0;
#X connect 56 0 59 0;
#X connect 57 0 60 0;
#X connect 57 0 61 0;
#X connect 58 0 73 0;
#X connect 59 0 71 0;
#X connect 60 0 71 0;
#X connect 61 0 73 0;
#X connect 64 0 66 0;
#X connect 65 0 64 0;
#X connect 66 0 67 0;
#X connect 67 0 68 1;
#X connect 68 0 69 0;
#X connect 69 0 70 0;
#X connect 70 0 76 0;
#X connect 71 0 70 1;
#X connect 72 0 76 1;
#X connect 73 0 72 1;
#X connect 74 0 75 0;
#X connect 75 0 72 0;
#X connect 75 0 68 0;
#X connect 76 0 130 0;
#X connect 76 0 96 0;
#X connect 77 0 78 0;
#X connect 78 0 79 0;
#X connect 79 0 83 0;
#X connect 80 0 81 0;
#X connect 81 0 82 0;
#X connect 82 0 85 1;
#X connect 83 0 85 0;
#X connect 84 0 132 0;
#X connect 85 0 84 0;
#X connect 86 0 91 0;
#X connect 87 0 77 0;
#X connect 88 0 80 0;
#X connect 89 0 92 0;
#X connect 90 0 130 1;
#X connect 91 0 90 1;
#X connect 92 0 93 0;
#X connect 93 0 94 0;
#X connect 94 0 95 0;
#X connect 95 0 96 1;
#X connect 96 0 97 0;
#X connect 97 0 131 0;
#X connect 99 0 100 1;
#X connect 100 0 101 0;
#X connect 101 0 75 1;
#X connect 102 0 106 0;
#X connect 103 0 107 0;
#X connect 104 0 105 0;
#X connect 105 0 35 0;
#X connect 106 0 104 1;
#X connect 107 0 105 1;
#X connect 108 0 102 1;
#X connect 108 0 110 1;
#X connect 108 0 14 1;
#X connect 108 0 133 0;
#X connect 109 0 103 1;
#X connect 109 0 111 1;
#X connect 109 0 16 1;
#X connect 109 0 133 0;
#X connect 110 0 113 0;
#X connect 111 0 116 0;
#X connect 112 0 4 1;
#X connect 113 0 114 0;
#X connect 114 0 115 0;
#X connect 115 0 119 1;
#X connect 116 0 117 0;
#X connect 117 0 118 0;
#X connect 118 0 120 1;
#X connect 119 0 120 0;
#X connect 120 0 36 0;
#X connect 121 0 9 1;
#X connect 122 0 10 0;
#X connect 123 0 7 0;
#X connect 124 0 6 0;
#X connect 125 0 12 0;
#X connect 126 0 18 0;
#X connect 127 0 100 0;
#X connect 128 0 99 0;
#X connect 129 0 99 1;
#X connect 130 0 9 0;
#X connect 132 0 90 0;
#X connect 133 0 112 0;
#X connect 134 0 3 0;
#X connect 135 0 134 0;
#X coords 0 -1 1 1 270 180 1 100 100;
#X restore -328 -1419 pd dronesynth;
