#N canvas 626 163 967 361 10;
#N canvas 125 199 1278 715 abeat 0;
#X obj 351 855 outlet~;
#X obj 101 104 cnv 15 920 130 empty empty empty 20 12 0 14 -205765
-66577 0;
#X obj 578 859 outlet~;
#X obj 443 857 outlet~;
#X obj 675 850 outlet~;
#X obj 173 118 bng 25 250 50 0 empty empty empty 17 7 0 10 -261073
-1 -1;
#X obj 178 147 bng 15 250 50 0 empty empty empty 17 7 0 10 -261073
-1 -1;
#X obj 200 119 vsl 12 50 0 1 0 0 empty empty empty 0 -9 0 10 -261073
-1 -1 1176 1;
#X text 181 122 A;
#N canvas 4 70 450 300 (subpatch) 0;
#X array dmap2 24 float 3;
#A 0 0 0 0 0 0 0 0 0 0 0 0 0 0 0 0 0 0 0 0 0 0 0 0 0;
#X coords 0 0 23 1 100 40 1;
#X restore 546 -943 graph;
#N canvas 8 94 450 300 (subpatch) 0;
#X array dmap1 24 float 3;
#A 0 0 0 0 0 0 0 0 0 0 0 0 0 0 0 0 0 0 0 0 0 0 0 0 0;
#X coords 0 0 24 1 100 40 1;
#X restore 413 -940 graph;
#N canvas 0 0 450 300 (subpatch) 0;
#X array dmap3 24 float 3;
#A 0 0 0 0 0 0 0 0 0 0 0 0 0 0 0 0 0 0 0 0 0 0 0 0 0;
#X coords 0 0 23 1 100 40 1;
#X restore 675 -941 graph;
#N canvas 0 0 450 300 (subpatch) 0;
#X array dmap4 24 float 3;
#A 0 0 0 0 0 0 0 0 0 0 0 0 0 0 0 0 0 0 0 0 0 0 0 0 0;
#X coords 0 0 23 1 100 40 1;
#X restore 800 -950 graph;
#X obj 876 64 soundfiler;
#X obj 337 -376 openpanel;
#X obj 352 792 tabplay~ adrum1;
#X obj 459 797 tabplay~ adrum2;
#X obj 570 793 tabplay~ adrum3;
#N canvas 0 0 450 300 (subpatch) 0;
#X array adrum2 9808 float 2;
#X coords 0 1 9808 -1 60 40 1;
#X restore 220 116 graph;
#N canvas 0 0 450 300 (subpatch) 0;
#X array adrum1 17551 float 2;
#X coords 0 1 17551 -1 60 40 1;
#X restore 108 120 graph;
#N canvas 0 0 450 300 (subpatch) 0;
#X array adrum3 10250 float 2;
#X coords 0 1 10250 -1 60 40 1;
#X restore 333 115 graph;
#N canvas 0 0 450 300 (subpatch) 0;
#X array adrum4 1595 float 2;
#X coords 0 1 1595 -1 60 40 1;
#X restore 447 115 graph;
#X msg 337 -356 read -resize \$1 adrum1;
#X obj 571 -366 openpanel;
#X msg 571 -339 read -resize \$1 adrum2;
#X obj 825 -282 openpanel;
#X msg 822 -255 read -resize \$1 adrum3;
#X obj 1025 -299 openpanel;
#X msg 1022 -277 read -resize \$1 adrum4;
#X obj 683 793 tabplay~ adrum4;
#X obj 351 817 *~;
#X obj 452 825 *~;
#X obj 578 825 *~;
#X obj 675 825 *~;
#X obj 389 734 bng 15 250 50 0 empty empty empty 17 7 0 10 -262144
-1 -1;
#X obj 455 800 bng 15 250 50 0 empty empty empty 17 7 0 10 -262144
-1 -1;
#X obj 564 752 bng 15 250 50 0 empty empty empty 17 7 0 10 -262144
-1 -1;
#X obj 672 744 bng 15 250 50 0 empty empty empty 17 7 0 10 -262144
-1 -1;
#X text 1040 -877 drum change;
#N canvas 362 106 759 533 load_random_kick 0;
#X obj 116 153 folder_list;
#X obj 116 180 t a b;
#X obj 222 212 counter;
#X floatatom 222 239 5 0 0 0 - - -;
#X msg 222 183 set 1;
#X obj 130 383 msgfile;
#X obj 207 262 int;
#X msg 107 208 add \$1;
#X obj 116 125 t a b b;
#X msg 73 126 clear;
#X obj 165 286 random;
#X obj 99 -2 inlet;
#X msg 192 336 goto \$1;
#X msg 155 337 this;
#X obj 165 311 t b a;
#X msg 184 383 print;
#X obj 104 425 print;
#X obj 165 262 t b b;
#X obj 116 85 route symbol bang;
#X obj 104 27 bng 15 250 50 0 empty empty empty 17 7 0 10 -262144 -1
-1;
#X obj 170 424 outlet;
#X text 260 240 <-- number of files;
#X text 189 408 <-- outputs random filename;
#X text 227 85 <-- sorts bangs (output) from symbols (set);
#X text -14 0 force random -->;
#X text 226 383 <-- check what's loaded;
#X text 4 424 for testing -->;
#X msg 139 40 symbol /home/joel/Samples/Sorted2/kicks/*.wav;
#X connect 0 0 1 0;
#X connect 1 0 7 0;
#X connect 1 1 2 0;
#X connect 2 0 3 0;
#X connect 3 0 6 1;
#X connect 4 0 2 0;
#X connect 5 0 16 0;
#X connect 5 0 20 0;
#X connect 6 0 10 1;
#X connect 7 0 5 0;
#X connect 8 0 0 0;
#X connect 8 1 4 0;
#X connect 8 2 9 0;
#X connect 9 0 5 0;
#X connect 10 0 14 0;
#X connect 11 0 19 0;
#X connect 12 0 5 0;
#X connect 13 0 5 0;
#X connect 14 0 13 0;
#X connect 14 1 12 0;
#X connect 15 0 5 0;
#X connect 17 0 10 0;
#X connect 17 1 6 0;
#X connect 18 0 8 0;
#X connect 18 1 17 0;
#X connect 19 0 18 0;
#X connect 19 0 27 0;
#X connect 27 0 18 0;
#X restore 340 -536 pd load_random_kick;
#N canvas 483 393 759 533 load_random_snare 0;
#X obj 116 153 folder_list;
#X obj 116 180 t a b;
#X obj 222 212 counter;
#X floatatom 222 239 5 0 0 0 - - -;
#X msg 222 183 set 1;
#X obj 130 383 msgfile;
#X obj 207 262 int;
#X msg 107 208 add \$1;
#X obj 116 125 t a b b;
#X msg 73 126 clear;
#X obj 165 286 random;
#X obj 99 -2 inlet;
#X msg 192 336 goto \$1;
#X msg 155 337 this;
#X obj 165 311 t b a;
#X msg 184 383 print;
#X obj 104 425 print;
#X obj 165 262 t b b;
#X obj 116 85 route symbol bang;
#X obj 104 27 bng 15 250 50 0 empty empty empty 17 7 0 10 -262144 -1
-1;
#X obj 170 424 outlet;
#X text 260 240 <-- number of files;
#X text 189 408 <-- outputs random filename;
#X text 227 85 <-- sorts bangs (output) from symbols (set);
#X text -14 0 force random -->;
#X text 226 383 <-- check what's loaded;
#X text 4 424 for testing -->;
#X msg 146 33 symbol /home/joel/Samples/Sorted2/snares/*.wav;
#X connect 0 0 1 0;
#X connect 1 0 7 0;
#X connect 1 1 2 0;
#X connect 2 0 3 0;
#X connect 3 0 6 1;
#X connect 4 0 2 0;
#X connect 5 0 16 0;
#X connect 5 0 20 0;
#X connect 6 0 10 1;
#X connect 7 0 5 0;
#X connect 8 0 0 0;
#X connect 8 1 4 0;
#X connect 8 2 9 0;
#X connect 9 0 5 0;
#X connect 10 0 14 0;
#X connect 11 0 19 0;
#X connect 12 0 5 0;
#X connect 13 0 5 0;
#X connect 14 0 13 0;
#X connect 14 1 12 0;
#X connect 15 0 5 0;
#X connect 17 0 10 0;
#X connect 17 1 6 0;
#X connect 18 0 8 0;
#X connect 18 1 17 0;
#X connect 19 0 18 0;
#X connect 19 0 27 0;
#X connect 27 0 18 0;
#X restore 568 -499 pd load_random_snare;
#N canvas 433 94 759 533 load_random_hats 0;
#X obj 116 153 folder_list;
#X obj 116 180 t a b;
#X obj 222 212 counter;
#X floatatom 222 239 5 0 0 0 - - -;
#X msg 222 183 set 1;
#X obj 130 383 msgfile;
#X obj 207 262 int;
#X msg 107 208 add \$1;
#X obj 116 125 t a b b;
#X msg 73 126 clear;
#X obj 165 286 random;
#X obj 99 -2 inlet;
#X msg 192 336 goto \$1;
#X msg 155 337 this;
#X obj 165 311 t b a;
#X msg 184 383 print;
#X obj 104 425 print;
#X obj 165 262 t b b;
#X obj 116 85 route symbol bang;
#X obj 104 27 bng 15 250 50 0 empty empty empty 17 7 0 10 -262144 -1
-1;
#X obj 170 424 outlet;
#X text 260 240 <-- number of files;
#X text 189 408 <-- outputs random filename;
#X text 227 85 <-- sorts bangs (output) from symbols (set);
#X text -14 0 force random -->;
#X text 226 383 <-- check what's loaded;
#X text 4 424 for testing -->;
#X msg 135 34 symbol /home/joel/Samples/Sorted2/hats/*.wav;
#X connect 0 0 1 0;
#X connect 1 0 7 0;
#X connect 1 1 2 0;
#X connect 2 0 3 0;
#X connect 3 0 6 1;
#X connect 4 0 2 0;
#X connect 5 0 16 0;
#X connect 5 0 20 0;
#X connect 6 0 10 1;
#X connect 7 0 5 0;
#X connect 8 0 0 0;
#X connect 8 1 4 0;
#X connect 8 2 9 0;
#X connect 9 0 5 0;
#X connect 10 0 14 0;
#X connect 11 0 19 0;
#X connect 12 0 5 0;
#X connect 13 0 5 0;
#X connect 14 0 13 0;
#X connect 14 1 12 0;
#X connect 15 0 5 0;
#X connect 17 0 10 0;
#X connect 17 1 6 0;
#X connect 18 0 8 0;
#X connect 18 1 17 0;
#X connect 19 0 18 0;
#X connect 19 0 27 0;
#X connect 27 0 18 0;
#X restore 820 -386 pd load_random_hats;
#N canvas 313 84 759 533 load_random_perc 0;
#X obj 116 153 folder_list;
#X obj 116 180 t a b;
#X obj 222 212 counter;
#X floatatom 222 239 5 0 0 0 - - -;
#X msg 222 183 set 1;
#X obj 130 383 msgfile;
#X obj 207 262 int;
#X msg 107 208 add \$1;
#X obj 116 125 t a b b;
#X msg 73 126 clear;
#X obj 165 286 random;
#X obj 99 -2 inlet;
#X msg 192 336 goto \$1;
#X msg 155 337 this;
#X obj 165 311 t b a;
#X msg 184 383 print;
#X obj 104 425 print;
#X obj 165 262 t b b;
#X obj 116 85 route symbol bang;
#X obj 104 27 bng 15 250 50 0 empty empty empty 17 7 0 10 -262144 -1
-1;
#X obj 170 424 outlet;
#X text 260 240 <-- number of files;
#X text 189 408 <-- outputs random filename;
#X text 227 85 <-- sorts bangs (output) from symbols (set);
#X text -14 0 force random -->;
#X text 226 383 <-- check what's loaded;
#X text 4 424 for testing -->;
#X msg 142 39 symbol /home/joel/Samples/Sorted2/percs/*.wav;
#X connect 0 0 1 0;
#X connect 1 0 7 0;
#X connect 1 1 2 0;
#X connect 2 0 3 0;
#X connect 3 0 6 1;
#X connect 4 0 2 0;
#X connect 5 0 16 0;
#X connect 5 0 20 0;
#X connect 6 0 10 1;
#X connect 7 0 5 0;
#X connect 8 0 0 0;
#X connect 8 1 4 0;
#X connect 8 2 9 0;
#X connect 9 0 5 0;
#X connect 10 0 14 0;
#X connect 11 0 19 0;
#X connect 12 0 5 0;
#X connect 13 0 5 0;
#X connect 14 0 13 0;
#X connect 14 1 12 0;
#X connect 15 0 5 0;
#X connect 17 0 10 0;
#X connect 17 1 6 0;
#X connect 18 0 8 0;
#X connect 18 1 17 0;
#X connect 19 0 18 0;
#X connect 19 0 27 0;
#X connect 27 0 18 0;
#X restore 1032 -388 pd load_random_perc;
#X obj 109 165 bng 12 250 50 0 empty empty load_kick 17 7 0 10 -260097
-1 -1;
#X obj 109 175 bng 12 250 50 0 empty empty load_snare 17 7 0 10 -260097
-1 -1;
#X obj 109 186 bng 12 250 50 0 empty empty load_hat 17 7 0 10 -260097
-1 -1;
#X obj 109 197 bng 12 250 50 0 empty empty load_perc 17 7 0 10 -260097
-1 -1;
#N canvas 362 106 759 533 load_random_kick 0;
#X obj 116 153 folder_list;
#X obj 116 180 t a b;
#X obj 222 212 counter;
#X floatatom 222 239 5 0 0 0 - - -;
#X msg 222 183 set 1;
#X obj 130 383 msgfile;
#X obj 207 262 int;
#X msg 107 208 add \$1;
#X obj 116 125 t a b b;
#X msg 73 126 clear;
#X obj 165 286 random;
#X obj 99 -2 inlet;
#X msg 192 336 goto \$1;
#X msg 155 337 this;
#X obj 165 311 t b a;
#X msg 184 383 print;
#X obj 104 425 print;
#X obj 165 262 t b b;
#X obj 116 85 route symbol bang;
#X obj 104 27 bng 15 250 50 0 empty empty empty 17 7 0 10 -262144 -1
-1;
#X obj 170 424 outlet;
#X text 260 240 <-- number of files;
#X text 189 408 <-- outputs random filename;
#X text 227 85 <-- sorts bangs (output) from symbols (set);
#X text -14 0 force random -->;
#X text 226 383 <-- check what's loaded;
#X text 4 424 for testing -->;
#X msg 140 40 symbol /home/joel/Samples/Sorted2/kicks/*.wav;
#X connect 0 0 1 0;
#X connect 1 0 7 0;
#X connect 1 1 2 0;
#X connect 2 0 3 0;
#X connect 3 0 6 1;
#X connect 4 0 2 0;
#X connect 5 0 16 0;
#X connect 5 0 20 0;
#X connect 6 0 10 1;
#X connect 7 0 5 0;
#X connect 8 0 0 0;
#X connect 8 1 4 0;
#X connect 8 2 9 0;
#X connect 9 0 5 0;
#X connect 10 0 14 0;
#X connect 11 0 19 0;
#X connect 12 0 5 0;
#X connect 13 0 5 0;
#X connect 14 0 13 0;
#X connect 14 1 12 0;
#X connect 15 0 5 0;
#X connect 17 0 10 0;
#X connect 17 1 6 0;
#X connect 18 0 8 0;
#X connect 18 1 17 0;
#X connect 19 0 18 0;
#X connect 19 0 27 0;
#X connect 27 0 18 0;
#X restore 568 -520 pd load_random_kick;
#N canvas 485 392 759 533 load_random_snare 0;
#X obj 116 153 folder_list;
#X obj 116 180 t a b;
#X obj 222 212 counter;
#X floatatom 222 239 5 0 0 0 - - -;
#X msg 222 183 set 1;
#X obj 130 383 msgfile;
#X obj 207 262 int;
#X msg 107 208 add \$1;
#X obj 116 125 t a b b;
#X msg 73 126 clear;
#X obj 165 286 random;
#X obj 99 -2 inlet;
#X msg 192 336 goto \$1;
#X msg 155 337 this;
#X obj 165 311 t b a;
#X msg 184 383 print;
#X obj 104 425 print;
#X obj 165 262 t b b;
#X obj 116 85 route symbol bang;
#X obj 104 27 bng 15 250 50 0 empty empty empty 17 7 0 10 -262144 -1
-1;
#X obj 170 424 outlet;
#X text 260 240 <-- number of files;
#X text 189 408 <-- outputs random filename;
#X text 227 85 <-- sorts bangs (output) from symbols (set);
#X text -14 0 force random -->;
#X text 226 383 <-- check what's loaded;
#X text 4 424 for testing -->;
#X msg 147 33 symbol /home/joel/Samples/Sorted2/snares/*.wav;
#X connect 0 0 1 0;
#X connect 1 0 7 0;
#X connect 1 1 2 0;
#X connect 2 0 3 0;
#X connect 3 0 6 1;
#X connect 4 0 2 0;
#X connect 5 0 16 0;
#X connect 5 0 20 0;
#X connect 6 0 10 1;
#X connect 7 0 5 0;
#X connect 8 0 0 0;
#X connect 8 1 4 0;
#X connect 8 2 9 0;
#X connect 9 0 5 0;
#X connect 10 0 14 0;
#X connect 11 0 19 0;
#X connect 12 0 5 0;
#X connect 13 0 5 0;
#X connect 14 0 13 0;
#X connect 14 1 12 0;
#X connect 15 0 5 0;
#X connect 17 0 10 0;
#X connect 17 1 6 0;
#X connect 18 0 8 0;
#X connect 18 1 17 0;
#X connect 19 0 18 0;
#X connect 19 0 27 0;
#X connect 27 0 18 0;
#X restore 339 -512 pd load_random_snare;
#N canvas 433 94 759 533 load_random_hats 0;
#X obj 116 153 folder_list;
#X obj 116 180 t a b;
#X obj 222 212 counter;
#X floatatom 222 239 5 0 0 0 - - -;
#X msg 222 183 set 1;
#X obj 130 383 msgfile;
#X obj 207 262 int;
#X msg 107 208 add \$1;
#X obj 116 125 t a b b;
#X msg 73 126 clear;
#X obj 165 286 random;
#X obj 99 -2 inlet;
#X msg 192 336 goto \$1;
#X msg 155 337 this;
#X obj 165 311 t b a;
#X msg 184 383 print;
#X obj 104 425 print;
#X obj 165 262 t b b;
#X obj 116 85 route symbol bang;
#X obj 104 27 bng 15 250 50 0 empty empty empty 17 7 0 10 -262144 -1
-1;
#X obj 170 424 outlet;
#X text 260 240 <-- number of files;
#X text 189 408 <-- outputs random filename;
#X text 227 85 <-- sorts bangs (output) from symbols (set);
#X text -14 0 force random -->;
#X text 226 383 <-- check what's loaded;
#X text 4 424 for testing -->;
#X msg 134 34 symbol /home/joel/Samples/Sorted2/hats/*.wav;
#X connect 0 0 1 0;
#X connect 1 0 7 0;
#X connect 1 1 2 0;
#X connect 2 0 3 0;
#X connect 3 0 6 1;
#X connect 4 0 2 0;
#X connect 5 0 16 0;
#X connect 5 0 20 0;
#X connect 6 0 10 1;
#X connect 7 0 5 0;
#X connect 8 0 0 0;
#X connect 8 1 4 0;
#X connect 8 2 9 0;
#X connect 9 0 5 0;
#X connect 10 0 14 0;
#X connect 11 0 19 0;
#X connect 12 0 5 0;
#X connect 13 0 5 0;
#X connect 14 0 13 0;
#X connect 14 1 12 0;
#X connect 15 0 5 0;
#X connect 17 0 10 0;
#X connect 17 1 6 0;
#X connect 18 0 8 0;
#X connect 18 1 17 0;
#X connect 19 0 18 0;
#X connect 19 0 27 0;
#X connect 27 0 18 0;
#X restore 339 -491 pd load_random_hats;
#N canvas 431 95 759 533 load_random_hats 0;
#X obj 116 153 folder_list;
#X obj 116 180 t a b;
#X obj 222 212 counter;
#X floatatom 222 239 5 0 0 0 - - -;
#X msg 222 183 set 1;
#X obj 130 383 msgfile;
#X obj 207 262 int;
#X msg 107 208 add \$1;
#X obj 116 125 t a b b;
#X msg 73 126 clear;
#X obj 165 286 random;
#X obj 99 -2 inlet;
#X msg 192 336 goto \$1;
#X msg 155 337 this;
#X obj 165 311 t b a;
#X msg 184 383 print;
#X obj 104 425 print;
#X obj 165 262 t b b;
#X obj 116 85 route symbol bang;
#X obj 104 27 bng 15 250 50 0 empty empty empty 17 7 0 10 -262144 -1
-1;
#X obj 170 424 outlet;
#X text 260 240 <-- number of files;
#X text 189 408 <-- outputs random filename;
#X text 227 85 <-- sorts bangs (output) from symbols (set);
#X text -14 0 force random -->;
#X text 226 383 <-- check what's loaded;
#X text 4 424 for testing -->;
#X msg 134 34 symbol /home/joel/Samples/Sorted2/hats/*.wav;
#X connect 0 0 1 0;
#X connect 1 0 7 0;
#X connect 1 1 2 0;
#X connect 2 0 3 0;
#X connect 3 0 6 1;
#X connect 4 0 2 0;
#X connect 5 0 16 0;
#X connect 5 0 20 0;
#X connect 6 0 10 1;
#X connect 7 0 5 0;
#X connect 8 0 0 0;
#X connect 8 1 4 0;
#X connect 8 2 9 0;
#X connect 9 0 5 0;
#X connect 10 0 14 0;
#X connect 11 0 19 0;
#X connect 12 0 5 0;
#X connect 13 0 5 0;
#X connect 14 0 13 0;
#X connect 14 1 12 0;
#X connect 15 0 5 0;
#X connect 17 0 10 0;
#X connect 17 1 6 0;
#X connect 18 0 8 0;
#X connect 18 1 17 0;
#X connect 19 0 18 0;
#X connect 19 0 27 0;
#X connect 27 0 18 0;
#X restore 569 -477 pd load_random_hats;
#N canvas 315 83 759 533 load_random_perc 0;
#X obj 116 153 folder_list;
#X obj 116 180 t a b;
#X obj 222 212 counter;
#X floatatom 222 239 5 0 0 0 - - -;
#X msg 222 183 set 1;
#X obj 130 383 msgfile;
#X obj 207 262 int;
#X msg 107 208 add \$1;
#X obj 116 125 t a b b;
#X msg 73 126 clear;
#X obj 165 286 random;
#X obj 99 -2 inlet;
#X msg 192 336 goto \$1;
#X msg 155 337 this;
#X obj 165 311 t b a;
#X msg 184 383 print;
#X obj 104 425 print;
#X obj 165 262 t b b;
#X obj 116 85 route symbol bang;
#X obj 104 27 bng 15 250 50 0 empty empty empty 17 7 0 10 -262144 -1
-1;
#X obj 170 424 outlet;
#X text 260 240 <-- number of files;
#X text 189 408 <-- outputs random filename;
#X text 227 85 <-- sorts bangs (output) from symbols (set);
#X text -14 0 force random -->;
#X text 226 383 <-- check what's loaded;
#X text 4 424 for testing -->;
#X msg 142 39 symbol /home/joel/Samples/Sorted2/percs/*.wav;
#X connect 0 0 1 0;
#X connect 1 0 7 0;
#X connect 1 1 2 0;
#X connect 2 0 3 0;
#X connect 3 0 6 1;
#X connect 4 0 2 0;
#X connect 5 0 16 0;
#X connect 5 0 20 0;
#X connect 6 0 10 1;
#X connect 7 0 5 0;
#X connect 8 0 0 0;
#X connect 8 1 4 0;
#X connect 8 2 9 0;
#X connect 9 0 5 0;
#X connect 10 0 14 0;
#X connect 11 0 19 0;
#X connect 12 0 5 0;
#X connect 13 0 5 0;
#X connect 14 0 13 0;
#X connect 14 1 12 0;
#X connect 15 0 5 0;
#X connect 17 0 10 0;
#X connect 17 1 6 0;
#X connect 18 0 8 0;
#X connect 18 1 17 0;
#X connect 19 0 18 0;
#X connect 19 0 27 0;
#X connect 27 0 18 0;
#X restore 339 -468 pd load_random_perc;
#N canvas 313 84 759 533 load_random_perc 0;
#X obj 116 153 folder_list;
#X obj 116 180 t a b;
#X obj 222 212 counter;
#X floatatom 222 239 5 0 0 0 - - -;
#X msg 222 183 set 1;
#X obj 130 383 msgfile;
#X obj 207 262 int;
#X msg 107 208 add \$1;
#X obj 116 125 t a b b;
#X msg 73 126 clear;
#X obj 165 286 random;
#X obj 99 -2 inlet;
#X msg 192 336 goto \$1;
#X msg 155 337 this;
#X obj 165 311 t b a;
#X msg 184 383 print;
#X obj 104 425 print;
#X obj 165 262 t b b;
#X obj 116 85 route symbol bang;
#X obj 104 27 bng 15 250 50 0 empty empty empty 17 7 0 10 -262144 -1
-1;
#X obj 170 424 outlet;
#X text 260 240 <-- number of files;
#X text 189 408 <-- outputs random filename;
#X text 227 85 <-- sorts bangs (output) from symbols (set);
#X text -14 0 force random -->;
#X text 226 383 <-- check what's loaded;
#X text 4 424 for testing -->;
#X msg 142 39 symbol /home/joel/Samples/Sorted2/percs/*.wav;
#X connect 0 0 1 0;
#X connect 1 0 7 0;
#X connect 1 1 2 0;
#X connect 2 0 3 0;
#X connect 3 0 6 1;
#X connect 4 0 2 0;
#X connect 5 0 16 0;
#X connect 5 0 20 0;
#X connect 6 0 10 1;
#X connect 7 0 5 0;
#X connect 8 0 0 0;
#X connect 8 1 4 0;
#X connect 8 2 9 0;
#X connect 9 0 5 0;
#X connect 10 0 14 0;
#X connect 11 0 19 0;
#X connect 12 0 5 0;
#X connect 13 0 5 0;
#X connect 14 0 13 0;
#X connect 14 1 12 0;
#X connect 15 0 5 0;
#X connect 17 0 10 0;
#X connect 17 1 6 0;
#X connect 18 0 8 0;
#X connect 18 1 17 0;
#X connect 19 0 18 0;
#X connect 19 0 27 0;
#X connect 27 0 18 0;
#X restore 571 -456 pd load_random_perc;
#N canvas 485 392 759 533 load_random_snare 0;
#X obj 116 153 folder_list;
#X obj 116 180 t a b;
#X obj 222 212 counter;
#X floatatom 222 239 5 0 0 0 - - -;
#X msg 222 183 set 1;
#X obj 130 383 msgfile;
#X obj 207 262 int;
#X msg 107 208 add \$1;
#X obj 116 125 t a b b;
#X msg 73 126 clear;
#X obj 165 286 random;
#X obj 99 -2 inlet;
#X msg 192 336 goto \$1;
#X msg 155 337 this;
#X obj 165 311 t b a;
#X msg 184 383 print;
#X obj 104 425 print;
#X obj 165 262 t b b;
#X obj 116 85 route symbol bang;
#X obj 104 27 bng 15 250 50 0 empty empty empty 17 7 0 10 -262144 -1
-1;
#X obj 170 424 outlet;
#X text 260 240 <-- number of files;
#X text 189 408 <-- outputs random filename;
#X text 227 85 <-- sorts bangs (output) from symbols (set);
#X text -14 0 force random -->;
#X text 226 383 <-- check what's loaded;
#X text 4 424 for testing -->;
#X msg 152 33 symbol /home/joel/Samples/Sorted2/snares/*.wav;
#X connect 0 0 1 0;
#X connect 1 0 7 0;
#X connect 1 1 2 0;
#X connect 2 0 3 0;
#X connect 3 0 6 1;
#X connect 4 0 2 0;
#X connect 5 0 16 0;
#X connect 5 0 20 0;
#X connect 6 0 10 1;
#X connect 7 0 5 0;
#X connect 8 0 0 0;
#X connect 8 1 4 0;
#X connect 8 2 9 0;
#X connect 9 0 5 0;
#X connect 10 0 14 0;
#X connect 11 0 19 0;
#X connect 12 0 5 0;
#X connect 13 0 5 0;
#X connect 14 0 13 0;
#X connect 14 1 12 0;
#X connect 15 0 5 0;
#X connect 17 0 10 0;
#X connect 17 1 6 0;
#X connect 18 0 8 0;
#X connect 18 1 17 0;
#X connect 19 0 18 0;
#X connect 19 0 27 0;
#X connect 27 0 18 0;
#X restore 818 -411 pd load_random_snare;
#N canvas 364 105 759 533 load_random_kick 0;
#X obj 116 153 folder_list;
#X obj 116 180 t a b;
#X obj 222 212 counter;
#X floatatom 222 239 5 0 0 0 - - -;
#X msg 222 183 set 1;
#X obj 130 383 msgfile;
#X obj 207 262 int;
#X msg 107 208 add \$1;
#X obj 116 125 t a b b;
#X msg 73 126 clear;
#X obj 165 286 random;
#X obj 99 -2 inlet;
#X msg 192 336 goto \$1;
#X msg 155 337 this;
#X obj 165 311 t b a;
#X msg 184 383 print;
#X obj 104 425 print;
#X obj 165 262 t b b;
#X obj 116 85 route symbol bang;
#X obj 104 27 bng 15 250 50 0 empty empty empty 17 7 0 10 -262144 -1
-1;
#X obj 170 424 outlet;
#X text 260 240 <-- number of files;
#X text 189 408 <-- outputs random filename;
#X text 227 85 <-- sorts bangs (output) from symbols (set);
#X text -14 0 force random -->;
#X text 226 383 <-- check what's loaded;
#X text 4 424 for testing -->;
#X msg 142 40 symbol /home/joel/Samples/Sorted2/kicks/*.wav;
#X connect 0 0 1 0;
#X connect 1 0 7 0;
#X connect 1 1 2 0;
#X connect 2 0 3 0;
#X connect 3 0 6 1;
#X connect 4 0 2 0;
#X connect 5 0 16 0;
#X connect 5 0 20 0;
#X connect 6 0 10 1;
#X connect 7 0 5 0;
#X connect 8 0 0 0;
#X connect 8 1 4 0;
#X connect 8 2 9 0;
#X connect 9 0 5 0;
#X connect 10 0 14 0;
#X connect 11 0 19 0;
#X connect 12 0 5 0;
#X connect 13 0 5 0;
#X connect 14 0 13 0;
#X connect 14 1 12 0;
#X connect 15 0 5 0;
#X connect 17 0 10 0;
#X connect 17 1 6 0;
#X connect 18 0 8 0;
#X connect 18 1 17 0;
#X connect 19 0 18 0;
#X connect 19 0 27 0;
#X connect 27 0 18 0;
#X restore 818 -432 pd load_random_kick;
#N canvas 313 84 759 533 load_random_perc 0;
#X obj 116 153 folder_list;
#X obj 116 180 t a b;
#X obj 222 212 counter;
#X floatatom 222 239 5 0 0 0 - - -;
#X msg 222 183 set 1;
#X obj 130 383 msgfile;
#X obj 207 262 int;
#X msg 107 208 add \$1;
#X obj 116 125 t a b b;
#X msg 73 126 clear;
#X obj 165 286 random;
#X obj 99 -2 inlet;
#X msg 192 336 goto \$1;
#X msg 155 337 this;
#X obj 165 311 t b a;
#X msg 184 383 print;
#X obj 104 425 print;
#X obj 165 262 t b b;
#X obj 116 85 route symbol bang;
#X obj 104 27 bng 15 250 50 0 empty empty empty 17 7 0 10 -262144 -1
-1;
#X obj 170 424 outlet;
#X text 260 240 <-- number of files;
#X text 189 408 <-- outputs random filename;
#X text 227 85 <-- sorts bangs (output) from symbols (set);
#X text -14 0 force random -->;
#X text 226 383 <-- check what's loaded;
#X text 4 424 for testing -->;
#X msg 143 39 symbol /home/joel/Samples/Sorted2/percs/*.wav;
#X connect 0 0 1 0;
#X connect 1 0 7 0;
#X connect 1 1 2 0;
#X connect 2 0 3 0;
#X connect 3 0 6 1;
#X connect 4 0 2 0;
#X connect 5 0 16 0;
#X connect 5 0 20 0;
#X connect 6 0 10 1;
#X connect 7 0 5 0;
#X connect 8 0 0 0;
#X connect 8 1 4 0;
#X connect 8 2 9 0;
#X connect 9 0 5 0;
#X connect 10 0 14 0;
#X connect 11 0 19 0;
#X connect 12 0 5 0;
#X connect 13 0 5 0;
#X connect 14 0 13 0;
#X connect 14 1 12 0;
#X connect 15 0 5 0;
#X connect 17 0 10 0;
#X connect 17 1 6 0;
#X connect 18 0 8 0;
#X connect 18 1 17 0;
#X connect 19 0 18 0;
#X connect 19 0 27 0;
#X connect 27 0 18 0;
#X restore 822 -363 pd load_random_perc;
#N canvas 433 94 759 533 load_random_hats 0;
#X obj 116 153 folder_list;
#X obj 116 180 t a b;
#X obj 222 212 counter;
#X floatatom 222 239 5 0 0 0 - - -;
#X msg 222 183 set 1;
#X obj 130 383 msgfile;
#X obj 207 262 int;
#X msg 107 208 add \$1;
#X obj 116 125 t a b b;
#X msg 73 126 clear;
#X obj 165 286 random;
#X obj 99 -2 inlet;
#X msg 192 336 goto \$1;
#X msg 155 337 this;
#X obj 165 311 t b a;
#X msg 184 383 print;
#X obj 104 425 print;
#X obj 165 262 t b b;
#X obj 116 85 route symbol bang;
#X obj 104 27 bng 15 250 50 0 empty empty empty 17 7 0 10 -262144 -1
-1;
#X obj 170 424 outlet;
#X text 260 240 <-- number of files;
#X text 189 408 <-- outputs random filename;
#X text 227 85 <-- sorts bangs (output) from symbols (set);
#X text -14 0 force random -->;
#X text 226 383 <-- check what's loaded;
#X text 4 424 for testing -->;
#X msg 134 35 symbol /home/joel/Samples/Sorted2/hats/*.wav;
#X connect 0 0 1 0;
#X connect 1 0 7 0;
#X connect 1 1 2 0;
#X connect 2 0 3 0;
#X connect 3 0 6 1;
#X connect 4 0 2 0;
#X connect 5 0 16 0;
#X connect 5 0 20 0;
#X connect 6 0 10 1;
#X connect 7 0 5 0;
#X connect 8 0 0 0;
#X connect 8 1 4 0;
#X connect 8 2 9 0;
#X connect 9 0 5 0;
#X connect 10 0 14 0;
#X connect 11 0 19 0;
#X connect 12 0 5 0;
#X connect 13 0 5 0;
#X connect 14 0 13 0;
#X connect 14 1 12 0;
#X connect 15 0 5 0;
#X connect 17 0 10 0;
#X connect 17 1 6 0;
#X connect 18 0 8 0;
#X connect 18 1 17 0;
#X connect 19 0 18 0;
#X connect 19 0 27 0;
#X connect 27 0 18 0;
#X restore 1031 -411 pd load_random_hats;
#N canvas 485 392 759 533 load_random_snare 0;
#X obj 116 153 folder_list;
#X obj 116 180 t a b;
#X obj 222 212 counter;
#X floatatom 222 239 5 0 0 0 - - -;
#X msg 222 183 set 1;
#X obj 130 383 msgfile;
#X obj 207 262 int;
#X msg 107 208 add \$1;
#X obj 116 125 t a b b;
#X msg 73 126 clear;
#X obj 165 286 random;
#X obj 99 -2 inlet;
#X msg 192 336 goto \$1;
#X msg 155 337 this;
#X obj 165 311 t b a;
#X msg 184 383 print;
#X obj 104 425 print;
#X obj 165 262 t b b;
#X obj 116 85 route symbol bang;
#X obj 104 27 bng 15 250 50 0 empty empty empty 17 7 0 10 -262144 -1
-1;
#X obj 170 424 outlet;
#X text 260 240 <-- number of files;
#X text 189 408 <-- outputs random filename;
#X text 227 85 <-- sorts bangs (output) from symbols (set);
#X text -14 0 force random -->;
#X text 226 383 <-- check what's loaded;
#X text 4 424 for testing -->;
#X msg 147 33 symbol /home/joel/Samples/Sorted2/snares/*.wav;
#X connect 0 0 1 0;
#X connect 1 0 7 0;
#X connect 1 1 2 0;
#X connect 2 0 3 0;
#X connect 3 0 6 1;
#X connect 4 0 2 0;
#X connect 5 0 16 0;
#X connect 5 0 20 0;
#X connect 6 0 10 1;
#X connect 7 0 5 0;
#X connect 8 0 0 0;
#X connect 8 1 4 0;
#X connect 8 2 9 0;
#X connect 9 0 5 0;
#X connect 10 0 14 0;
#X connect 11 0 19 0;
#X connect 12 0 5 0;
#X connect 13 0 5 0;
#X connect 14 0 13 0;
#X connect 14 1 12 0;
#X connect 15 0 5 0;
#X connect 17 0 10 0;
#X connect 17 1 6 0;
#X connect 18 0 8 0;
#X connect 18 1 17 0;
#X connect 19 0 18 0;
#X connect 19 0 27 0;
#X connect 27 0 18 0;
#X restore 1030 -434 pd load_random_snare;
#N canvas 364 105 759 533 load_random_kick 0;
#X obj 116 153 folder_list;
#X obj 116 180 t a b;
#X obj 222 212 counter;
#X floatatom 222 239 5 0 0 0 - - -;
#X msg 222 183 set 1;
#X obj 130 383 msgfile;
#X obj 207 262 int;
#X msg 107 208 add \$1;
#X obj 116 125 t a b b;
#X msg 73 126 clear;
#X obj 165 286 random;
#X obj 99 -2 inlet;
#X msg 192 336 goto \$1;
#X msg 155 337 this;
#X obj 165 311 t b a;
#X msg 184 383 print;
#X obj 104 425 print;
#X obj 165 262 t b b;
#X obj 116 85 route symbol bang;
#X obj 104 27 bng 15 250 50 0 empty empty empty 17 7 0 10 -262144 -1
-1;
#X obj 170 424 outlet;
#X text 260 240 <-- number of files;
#X text 189 408 <-- outputs random filename;
#X text 227 85 <-- sorts bangs (output) from symbols (set);
#X text -14 0 force random -->;
#X text 226 383 <-- check what's loaded;
#X text 4 424 for testing -->;
#X msg 142 41 symbol /home/joel/Samples/Sorted2/kicks/*.wav;
#X connect 0 0 1 0;
#X connect 1 0 7 0;
#X connect 1 1 2 0;
#X connect 2 0 3 0;
#X connect 3 0 6 1;
#X connect 4 0 2 0;
#X connect 5 0 16 0;
#X connect 5 0 20 0;
#X connect 6 0 10 1;
#X connect 7 0 5 0;
#X connect 8 0 0 0;
#X connect 8 1 4 0;
#X connect 8 2 9 0;
#X connect 9 0 5 0;
#X connect 10 0 14 0;
#X connect 11 0 19 0;
#X connect 12 0 5 0;
#X connect 13 0 5 0;
#X connect 14 0 13 0;
#X connect 14 1 12 0;
#X connect 15 0 5 0;
#X connect 17 0 10 0;
#X connect 17 1 6 0;
#X connect 18 0 8 0;
#X connect 18 1 17 0;
#X connect 19 0 18 0;
#X connect 19 0 27 0;
#X connect 27 0 18 0;
#X restore 1028 -456 pd load_random_kick;
#X text 371 -570 A;
#X text 620 -543 B;
#X text 867 -462 C;
#X text 1074 -485 D;
#X obj -430 -114 inlet;
#X obj -374 -114 inlet;
#X obj -295 -117 inlet;
#X obj -237 -112 inlet;
#X obj -137 -167 inlet;
#X obj -83 -181 inlet;
#X obj -2 -179 inlet;
#X obj 285 115 bng 25 250 50 0 empty empty empty 17 7 0 10 -261073
-1 -1;
#X obj 290 144 bng 15 250 50 0 empty empty empty 17 7 0 10 -261073
-1 -1;
#X obj 314 115 vsl 12 50 0 1 0 0 empty empty empty 0 -9 0 10 -261073
-1 -1 2156 1;
#X obj 397 114 bng 25 250 50 0 empty empty empty 17 7 0 10 -261073
-1 -1;
#X obj 402 143 bng 15 250 50 0 empty empty empty 17 7 0 10 -261073
-1 -1;
#X obj 426 114 vsl 12 50 0 1 0 0 empty empty empty 0 -9 0 10 -261073
-1 -1 2989 1;
#X obj 511 113 bng 25 250 50 0 empty empty empty 17 7 0 10 -261073
-1 -1;
#X obj 516 142 bng 15 250 50 0 empty empty empty 17 7 0 10 -261073
-1 -1;
#X obj 540 113 vsl 12 50 0 1 0 0 empty empty empty 0 -9 0 10 -261073
-1 -1 3038 1;
#X obj 626 115 bng 25 250 50 0 empty empty empty 17 7 0 10 -261073
-1 -1;
#X obj 631 144 bng 15 250 50 0 empty empty empty 17 7 0 10 -261073
-1 -1;
#X obj 655 115 vsl 12 50 0 1 0 0 empty empty empty 0 -9 0 10 -261073
-1 -1 2793 1;
#X obj 740 116 bng 25 250 50 0 empty empty empty 17 7 0 10 -261073
-1 -1;
#X obj 745 145 bng 15 250 50 0 empty empty empty 17 7 0 10 -261073
-1 -1;
#X obj 769 116 vsl 12 50 0 1 0 0 empty empty empty 0 -9 0 10 -261073
-1 -1 3675 1;
#X obj 857 117 bng 25 250 50 0 empty empty empty 17 7 0 10 -261073
-1 -1;
#X obj 862 146 bng 15 250 50 0 empty empty empty 17 7 0 10 -261073
-1 -1;
#X obj 886 117 vsl 12 50 0 1 0 0 empty empty empty 0 -9 0 10 -261073
-1 -1 4900 1;
#X obj 972 114 bng 25 250 50 0 empty empty empty 17 7 0 10 -261073
-1 -1;
#X obj 977 143 bng 15 250 50 0 empty empty empty 17 7 0 10 -261073
-1 -1;
#X obj 1001 114 vsl 12 50 0 1 0 0 empty empty empty 0 -9 0 10 -261073
-1 -1 0 1;
#N canvas 0 0 450 300 (subpatch) 0;
#X array adrum6 38516 float 2;
#X coords 0 1 38516 -1 60 40 1;
#X restore 676 116 graph;
#N canvas 0 0 450 300 (subpatch) 0;
#X array adrum5 24353 float 2;
#X coords 0 1 24353 -1 60 40 1;
#X restore 561 116 graph;
#N canvas 0 0 450 300 (subpatch) 0;
#X array adrum7 14054 float 2;
#X coords 0 1 14054 -1 60 40 1;
#X restore 794 117 graph;
#N canvas 0 0 450 300 (subpatch) 0;
#X array adrum8 28366 float 2;
#X coords 0 1 28366 -1 60 40 1;
#X restore 909 114 graph;
#X obj 799 855 outlet~;
#X obj 1014 854 outlet~;
#X obj 903 852 outlet~;
#X obj 1118 846 outlet~;
#X obj 799 817 *~;
#X obj 903 820 *~;
#X obj 1014 820 *~;
#X obj 1118 822 *~;
#X obj 791 760 bng 15 250 50 0 empty empty empty 17 7 0 10 -262144
-1 -1;
#X obj 908 773 bng 15 250 50 0 empty empty empty 17 7 0 10 -262144
-1 -1;
#X obj 1020 773 bng 15 250 50 0 empty empty empty 17 7 0 10 -262144
-1 -1;
#X obj 1124 764 bng 15 250 50 0 empty empty empty 17 7 0 10 -262144
-1 -1;
#X obj 800 792 tabplay~ adrum5;
#X obj 907 793 tabplay~ adrum6;
#X obj 1013 792 tabplay~ adrum7;
#X obj 1121 795 tabplay~ adrum8;
#X text 293 119 B;
#X text 405 118 C;
#X text 519 117 D;
#X text 634 119 E;
#X text 748 120 F;
#X text 865 121 G;
#X text 980 118 H;
#X obj 366 18 openpanel;
#N canvas 485 392 759 533 load_random_snare 0;
#X obj 116 153 folder_list;
#X obj 116 180 t a b;
#X obj 222 212 counter;
#X floatatom 222 239 5 0 0 0 - - -;
#X msg 222 183 set 1;
#X obj 130 383 msgfile;
#X obj 207 262 int;
#X msg 107 208 add \$1;
#X obj 116 125 t a b b;
#X msg 73 126 clear;
#X obj 165 286 random;
#X obj 99 -2 inlet;
#X msg 192 336 goto \$1;
#X msg 155 337 this;
#X obj 165 311 t b a;
#X msg 184 383 print;
#X obj 104 425 print;
#X obj 165 262 t b b;
#X obj 116 85 route symbol bang;
#X obj 104 27 bng 15 250 50 0 empty empty empty 17 7 0 10 -262144 -1
-1;
#X obj 170 424 outlet;
#X text 260 240 <-- number of files;
#X text 189 408 <-- outputs random filename;
#X text 227 85 <-- sorts bangs (output) from symbols (set);
#X text -14 0 force random -->;
#X text 226 383 <-- check what's loaded;
#X text 4 424 for testing -->;
#X msg 147 33 symbol /home/joel/Samples/Sorted2/snares/*.wav;
#X connect 0 0 1 0;
#X connect 1 0 7 0;
#X connect 1 1 2 0;
#X connect 2 0 3 0;
#X connect 3 0 6 1;
#X connect 4 0 2 0;
#X connect 5 0 16 0;
#X connect 5 0 20 0;
#X connect 6 0 10 1;
#X connect 7 0 5 0;
#X connect 8 0 0 0;
#X connect 8 1 4 0;
#X connect 8 2 9 0;
#X connect 9 0 5 0;
#X connect 10 0 14 0;
#X connect 11 0 19 0;
#X connect 12 0 5 0;
#X connect 13 0 5 0;
#X connect 14 0 13 0;
#X connect 14 1 12 0;
#X connect 15 0 5 0;
#X connect 17 0 10 0;
#X connect 17 1 6 0;
#X connect 18 0 8 0;
#X connect 18 1 17 0;
#X connect 19 0 18 0;
#X connect 19 0 27 0;
#X connect 27 0 18 0;
#X restore 360 -100 pd load_random_snare;
#N canvas 364 105 759 533 load_random_kick 0;
#X obj 116 153 folder_list;
#X obj 116 180 t a b;
#X obj 222 212 counter;
#X floatatom 222 239 5 0 0 0 - - -;
#X msg 222 183 set 1;
#X obj 130 383 msgfile;
#X obj 207 262 int;
#X msg 107 208 add \$1;
#X obj 116 125 t a b b;
#X msg 73 126 clear;
#X obj 165 286 random;
#X obj 99 -2 inlet;
#X msg 192 336 goto \$1;
#X msg 155 337 this;
#X obj 165 311 t b a;
#X msg 184 383 print;
#X obj 104 425 print;
#X obj 165 262 t b b;
#X obj 116 85 route symbol bang;
#X obj 104 27 bng 15 250 50 0 empty empty empty 17 7 0 10 -262144 -1
-1;
#X obj 170 424 outlet;
#X text 260 240 <-- number of files;
#X text 189 408 <-- outputs random filename;
#X text 227 85 <-- sorts bangs (output) from symbols (set);
#X text -14 0 force random -->;
#X text 226 383 <-- check what's loaded;
#X text 4 424 for testing -->;
#X msg 142 40 symbol /home/joel/Samples/Sorted2/kicks/*.wav;
#X connect 0 0 1 0;
#X connect 1 0 7 0;
#X connect 1 1 2 0;
#X connect 2 0 3 0;
#X connect 3 0 6 1;
#X connect 4 0 2 0;
#X connect 5 0 16 0;
#X connect 5 0 20 0;
#X connect 6 0 10 1;
#X connect 7 0 5 0;
#X connect 8 0 0 0;
#X connect 8 1 4 0;
#X connect 8 2 9 0;
#X connect 9 0 5 0;
#X connect 10 0 14 0;
#X connect 11 0 19 0;
#X connect 12 0 5 0;
#X connect 13 0 5 0;
#X connect 14 0 13 0;
#X connect 14 1 12 0;
#X connect 15 0 5 0;
#X connect 17 0 10 0;
#X connect 17 1 6 0;
#X connect 18 0 8 0;
#X connect 18 1 17 0;
#X connect 19 0 18 0;
#X connect 19 0 27 0;
#X connect 27 0 18 0;
#X restore 360 -121 pd load_random_kick;
#N canvas 431 95 759 533 load_random_hats 0;
#X obj 116 153 folder_list;
#X obj 116 180 t a b;
#X obj 222 212 counter;
#X floatatom 222 239 5 0 0 0 - - -;
#X msg 222 183 set 1;
#X obj 130 383 msgfile;
#X obj 207 262 int;
#X msg 107 208 add \$1;
#X obj 116 125 t a b b;
#X msg 73 126 clear;
#X obj 165 286 random;
#X obj 99 -2 inlet;
#X msg 192 336 goto \$1;
#X msg 155 337 this;
#X obj 165 311 t b a;
#X msg 184 383 print;
#X obj 104 425 print;
#X obj 165 262 t b b;
#X obj 116 85 route symbol bang;
#X obj 104 27 bng 15 250 50 0 empty empty empty 17 7 0 10 -262144 -1
-1;
#X obj 170 424 outlet;
#X text 260 240 <-- number of files;
#X text 189 408 <-- outputs random filename;
#X text 227 85 <-- sorts bangs (output) from symbols (set);
#X text -14 0 force random -->;
#X text 226 383 <-- check what's loaded;
#X text 4 424 for testing -->;
#X msg 135 34 symbol /home/joel/Samples/Sorted2/hats/*.wav;
#X connect 0 0 1 0;
#X connect 1 0 7 0;
#X connect 1 1 2 0;
#X connect 2 0 3 0;
#X connect 3 0 6 1;
#X connect 4 0 2 0;
#X connect 5 0 16 0;
#X connect 5 0 20 0;
#X connect 6 0 10 1;
#X connect 7 0 5 0;
#X connect 8 0 0 0;
#X connect 8 1 4 0;
#X connect 8 2 9 0;
#X connect 9 0 5 0;
#X connect 10 0 14 0;
#X connect 11 0 19 0;
#X connect 12 0 5 0;
#X connect 13 0 5 0;
#X connect 14 0 13 0;
#X connect 14 1 12 0;
#X connect 15 0 5 0;
#X connect 17 0 10 0;
#X connect 17 1 6 0;
#X connect 18 0 8 0;
#X connect 18 1 17 0;
#X connect 19 0 18 0;
#X connect 19 0 27 0;
#X connect 27 0 18 0;
#X restore 361 -78 pd load_random_hats;
#N canvas 313 84 759 533 load_random_perc 0;
#X obj 116 153 folder_list;
#X obj 116 180 t a b;
#X obj 222 212 counter;
#X floatatom 222 239 5 0 0 0 - - -;
#X msg 222 183 set 1;
#X obj 130 383 msgfile;
#X obj 207 262 int;
#X msg 107 208 add \$1;
#X obj 116 125 t a b b;
#X msg 73 126 clear;
#X obj 165 286 random;
#X obj 99 -2 inlet;
#X msg 192 336 goto \$1;
#X msg 155 337 this;
#X obj 165 311 t b a;
#X msg 184 383 print;
#X obj 104 425 print;
#X obj 165 262 t b b;
#X obj 116 85 route symbol bang;
#X obj 104 27 bng 15 250 50 0 empty empty empty 17 7 0 10 -262144 -1
-1;
#X obj 170 424 outlet;
#X text 260 240 <-- number of files;
#X text 189 408 <-- outputs random filename;
#X text 227 85 <-- sorts bangs (output) from symbols (set);
#X text -14 0 force random -->;
#X text 226 383 <-- check what's loaded;
#X text 4 424 for testing -->;
#X msg 143 39 symbol /home/joel/Samples/Sorted2/percs/*.wav;
#X connect 0 0 1 0;
#X connect 1 0 7 0;
#X connect 1 1 2 0;
#X connect 2 0 3 0;
#X connect 3 0 6 1;
#X connect 4 0 2 0;
#X connect 5 0 16 0;
#X connect 5 0 20 0;
#X connect 6 0 10 1;
#X connect 7 0 5 0;
#X connect 8 0 0 0;
#X connect 8 1 4 0;
#X connect 8 2 9 0;
#X connect 9 0 5 0;
#X connect 10 0 14 0;
#X connect 11 0 19 0;
#X connect 12 0 5 0;
#X connect 13 0 5 0;
#X connect 14 0 13 0;
#X connect 14 1 12 0;
#X connect 15 0 5 0;
#X connect 17 0 10 0;
#X connect 17 1 6 0;
#X connect 18 0 8 0;
#X connect 18 1 17 0;
#X connect 19 0 18 0;
#X connect 19 0 27 0;
#X connect 27 0 18 0;
#X restore 363 -57 pd load_random_perc;
#X text 421 -115 E;
#X msg 363 48 read -resize \$1 adrum5;
#X obj 540 -12 openpanel;
#N canvas 485 392 759 533 load_random_snare 0;
#X obj 116 153 folder_list;
#X obj 116 180 t a b;
#X obj 222 212 counter;
#X floatatom 222 239 5 0 0 0 - - -;
#X msg 222 183 set 1;
#X obj 130 383 msgfile;
#X obj 207 262 int;
#X msg 107 208 add \$1;
#X obj 116 125 t a b b;
#X msg 73 126 clear;
#X obj 165 286 random;
#X obj 99 -2 inlet;
#X msg 192 336 goto \$1;
#X msg 155 337 this;
#X obj 165 311 t b a;
#X msg 184 383 print;
#X obj 104 425 print;
#X obj 165 262 t b b;
#X obj 116 85 route symbol bang;
#X obj 104 27 bng 15 250 50 0 empty empty empty 17 7 0 10 -262144 -1
-1;
#X obj 170 424 outlet;
#X text 260 240 <-- number of files;
#X text 189 408 <-- outputs random filename;
#X text 227 85 <-- sorts bangs (output) from symbols (set);
#X text -14 0 force random -->;
#X text 226 383 <-- check what's loaded;
#X text 4 424 for testing -->;
#X msg 147 33 symbol /home/joel/Samples/Sorted2/snares/*.wav;
#X connect 0 0 1 0;
#X connect 1 0 7 0;
#X connect 1 1 2 0;
#X connect 2 0 3 0;
#X connect 3 0 6 1;
#X connect 4 0 2 0;
#X connect 5 0 16 0;
#X connect 5 0 20 0;
#X connect 6 0 10 1;
#X connect 7 0 5 0;
#X connect 8 0 0 0;
#X connect 8 1 4 0;
#X connect 8 2 9 0;
#X connect 9 0 5 0;
#X connect 10 0 14 0;
#X connect 11 0 19 0;
#X connect 12 0 5 0;
#X connect 13 0 5 0;
#X connect 14 0 13 0;
#X connect 14 1 12 0;
#X connect 15 0 5 0;
#X connect 17 0 10 0;
#X connect 17 1 6 0;
#X connect 18 0 8 0;
#X connect 18 1 17 0;
#X connect 19 0 18 0;
#X connect 19 0 27 0;
#X connect 27 0 18 0;
#X restore 545 -130 pd load_random_snare;
#N canvas 364 105 759 533 load_random_kick 0;
#X obj 116 153 folder_list;
#X obj 116 180 t a b;
#X obj 222 212 counter;
#X floatatom 222 239 5 0 0 0 - - -;
#X msg 222 183 set 1;
#X obj 130 383 msgfile;
#X obj 207 262 int;
#X msg 107 208 add \$1;
#X obj 116 125 t a b b;
#X msg 73 126 clear;
#X obj 165 286 random;
#X obj 99 -2 inlet;
#X msg 192 336 goto \$1;
#X msg 155 337 this;
#X obj 165 311 t b a;
#X msg 184 383 print;
#X obj 104 425 print;
#X obj 165 262 t b b;
#X obj 116 85 route symbol bang;
#X obj 104 27 bng 15 250 50 0 empty empty empty 17 7 0 10 -262144 -1
-1;
#X obj 170 424 outlet;
#X text 260 240 <-- number of files;
#X text 189 408 <-- outputs random filename;
#X text 227 85 <-- sorts bangs (output) from symbols (set);
#X text -14 0 force random -->;
#X text 226 383 <-- check what's loaded;
#X text 4 424 for testing -->;
#X msg 141 40 symbol /home/joel/Samples/Sorted2/kicks/*.wav;
#X connect 0 0 1 0;
#X connect 1 0 7 0;
#X connect 1 1 2 0;
#X connect 2 0 3 0;
#X connect 3 0 6 1;
#X connect 4 0 2 0;
#X connect 5 0 16 0;
#X connect 5 0 20 0;
#X connect 6 0 10 1;
#X connect 7 0 5 0;
#X connect 8 0 0 0;
#X connect 8 1 4 0;
#X connect 8 2 9 0;
#X connect 9 0 5 0;
#X connect 10 0 14 0;
#X connect 11 0 19 0;
#X connect 12 0 5 0;
#X connect 13 0 5 0;
#X connect 14 0 13 0;
#X connect 14 1 12 0;
#X connect 15 0 5 0;
#X connect 17 0 10 0;
#X connect 17 1 6 0;
#X connect 18 0 8 0;
#X connect 18 1 17 0;
#X connect 19 0 18 0;
#X connect 19 0 27 0;
#X connect 27 0 18 0;
#X restore 545 -151 pd load_random_kick;
#N canvas 433 94 759 533 load_random_hats 0;
#X obj 116 153 folder_list;
#X obj 116 180 t a b;
#X obj 222 212 counter;
#X floatatom 222 239 5 0 0 0 - - -;
#X msg 222 183 set 1;
#X obj 130 383 msgfile;
#X obj 207 262 int;
#X msg 107 208 add \$1;
#X obj 116 125 t a b b;
#X msg 73 126 clear;
#X obj 165 286 random;
#X obj 99 -2 inlet;
#X msg 192 336 goto \$1;
#X msg 155 337 this;
#X obj 165 311 t b a;
#X msg 184 383 print;
#X obj 104 425 print;
#X obj 165 262 t b b;
#X obj 116 85 route symbol bang;
#X obj 104 27 bng 15 250 50 0 empty empty empty 17 7 0 10 -262144 -1
-1;
#X obj 170 424 outlet;
#X text 260 240 <-- number of files;
#X text 189 408 <-- outputs random filename;
#X text 227 85 <-- sorts bangs (output) from symbols (set);
#X text -14 0 force random -->;
#X text 226 383 <-- check what's loaded;
#X text 4 424 for testing -->;
#X msg 134 35 symbol /home/joel/Samples/Sorted2/hats/*.wav;
#X connect 0 0 1 0;
#X connect 1 0 7 0;
#X connect 1 1 2 0;
#X connect 2 0 3 0;
#X connect 3 0 6 1;
#X connect 4 0 2 0;
#X connect 5 0 16 0;
#X connect 5 0 20 0;
#X connect 6 0 10 1;
#X connect 7 0 5 0;
#X connect 8 0 0 0;
#X connect 8 1 4 0;
#X connect 8 2 9 0;
#X connect 9 0 5 0;
#X connect 10 0 14 0;
#X connect 11 0 19 0;
#X connect 12 0 5 0;
#X connect 13 0 5 0;
#X connect 14 0 13 0;
#X connect 14 1 12 0;
#X connect 15 0 5 0;
#X connect 17 0 10 0;
#X connect 17 1 6 0;
#X connect 18 0 8 0;
#X connect 18 1 17 0;
#X connect 19 0 18 0;
#X connect 19 0 27 0;
#X connect 27 0 18 0;
#X restore 546 -108 pd load_random_hats;
#N canvas 315 83 759 533 load_random_perc 0;
#X obj 116 153 folder_list;
#X obj 116 180 t a b;
#X obj 222 212 counter;
#X floatatom 222 239 5 0 0 0 - - -;
#X msg 222 183 set 1;
#X obj 130 383 msgfile;
#X obj 207 262 int;
#X msg 107 208 add \$1;
#X obj 116 125 t a b b;
#X msg 73 126 clear;
#X obj 165 286 random;
#X obj 99 -2 inlet;
#X msg 192 336 goto \$1;
#X msg 155 337 this;
#X obj 165 311 t b a;
#X msg 184 383 print;
#X obj 104 425 print;
#X obj 165 262 t b b;
#X obj 116 85 route symbol bang;
#X obj 104 27 bng 15 250 50 0 empty empty empty 17 7 0 10 -262144 -1
-1;
#X obj 170 424 outlet;
#X text 260 240 <-- number of files;
#X text 189 408 <-- outputs random filename;
#X text 227 85 <-- sorts bangs (output) from symbols (set);
#X text -14 0 force random -->;
#X text 226 383 <-- check what's loaded;
#X text 4 424 for testing -->;
#X msg 142 39 symbol /home/joel/Samples/Sorted2/percs/*.wav;
#X connect 0 0 1 0;
#X connect 1 0 7 0;
#X connect 1 1 2 0;
#X connect 2 0 3 0;
#X connect 3 0 6 1;
#X connect 4 0 2 0;
#X connect 5 0 16 0;
#X connect 5 0 20 0;
#X connect 6 0 10 1;
#X connect 7 0 5 0;
#X connect 8 0 0 0;
#X connect 8 1 4 0;
#X connect 8 2 9 0;
#X connect 9 0 5 0;
#X connect 10 0 14 0;
#X connect 11 0 19 0;
#X connect 12 0 5 0;
#X connect 13 0 5 0;
#X connect 14 0 13 0;
#X connect 14 1 12 0;
#X connect 15 0 5 0;
#X connect 17 0 10 0;
#X connect 17 1 6 0;
#X connect 18 0 8 0;
#X connect 18 1 17 0;
#X connect 19 0 18 0;
#X connect 19 0 27 0;
#X connect 27 0 18 0;
#X restore 548 -87 pd load_random_perc;
#X text 593 -144 F;
#X msg 540 17 read -resize \$1 adrum6;
#X obj 767 -8 openpanel;
#N canvas 483 393 759 533 load_random_snare 0;
#X obj 116 153 folder_list;
#X obj 116 180 t a b;
#X obj 222 212 counter;
#X floatatom 222 239 5 0 0 0 - - -;
#X msg 222 183 set 1;
#X obj 130 383 msgfile;
#X obj 207 262 int;
#X msg 107 208 add \$1;
#X obj 116 125 t a b b;
#X msg 73 126 clear;
#X obj 165 286 random;
#X obj 99 -2 inlet;
#X msg 192 336 goto \$1;
#X msg 155 337 this;
#X obj 165 311 t b a;
#X msg 184 383 print;
#X obj 104 425 print;
#X obj 165 262 t b b;
#X obj 116 85 route symbol bang;
#X obj 104 27 bng 15 250 50 0 empty empty empty 17 7 0 10 -262144 -1
-1;
#X obj 170 424 outlet;
#X text 260 240 <-- number of files;
#X text 189 408 <-- outputs random filename;
#X text 227 85 <-- sorts bangs (output) from symbols (set);
#X text -14 0 force random -->;
#X text 226 383 <-- check what's loaded;
#X text 4 424 for testing -->;
#X msg 147 33 symbol /home/joel/Samples/Sorted2/snares/*.wav;
#X connect 0 0 1 0;
#X connect 1 0 7 0;
#X connect 1 1 2 0;
#X connect 2 0 3 0;
#X connect 3 0 6 1;
#X connect 4 0 2 0;
#X connect 5 0 16 0;
#X connect 5 0 20 0;
#X connect 6 0 10 1;
#X connect 7 0 5 0;
#X connect 8 0 0 0;
#X connect 8 1 4 0;
#X connect 8 2 9 0;
#X connect 9 0 5 0;
#X connect 10 0 14 0;
#X connect 11 0 19 0;
#X connect 12 0 5 0;
#X connect 13 0 5 0;
#X connect 14 0 13 0;
#X connect 14 1 12 0;
#X connect 15 0 5 0;
#X connect 17 0 10 0;
#X connect 17 1 6 0;
#X connect 18 0 8 0;
#X connect 18 1 17 0;
#X connect 19 0 18 0;
#X connect 19 0 27 0;
#X connect 27 0 18 0;
#X restore 763 -117 pd load_random_snare;
#N canvas 364 105 759 533 load_random_kick 0;
#X obj 116 153 folder_list;
#X obj 116 180 t a b;
#X obj 222 212 counter;
#X floatatom 222 239 5 0 0 0 - - -;
#X msg 222 183 set 1;
#X obj 130 383 msgfile;
#X obj 207 262 int;
#X msg 107 208 add \$1;
#X obj 116 125 t a b b;
#X msg 73 126 clear;
#X obj 165 286 random;
#X obj 99 -2 inlet;
#X msg 192 336 goto \$1;
#X msg 155 337 this;
#X obj 165 311 t b a;
#X msg 184 383 print;
#X obj 104 425 print;
#X obj 165 262 t b b;
#X obj 116 85 route symbol bang;
#X obj 104 27 bng 15 250 50 0 empty empty empty 17 7 0 10 -262144 -1
-1;
#X obj 170 424 outlet;
#X text 260 240 <-- number of files;
#X text 189 408 <-- outputs random filename;
#X text 227 85 <-- sorts bangs (output) from symbols (set);
#X text -14 0 force random -->;
#X text 226 383 <-- check what's loaded;
#X text 4 424 for testing -->;
#X msg 141 40 symbol /home/joel/Samples/Sorted2/kicks/*.wav;
#X connect 0 0 1 0;
#X connect 1 0 7 0;
#X connect 1 1 2 0;
#X connect 2 0 3 0;
#X connect 3 0 6 1;
#X connect 4 0 2 0;
#X connect 5 0 16 0;
#X connect 5 0 20 0;
#X connect 6 0 10 1;
#X connect 7 0 5 0;
#X connect 8 0 0 0;
#X connect 8 1 4 0;
#X connect 8 2 9 0;
#X connect 9 0 5 0;
#X connect 10 0 14 0;
#X connect 11 0 19 0;
#X connect 12 0 5 0;
#X connect 13 0 5 0;
#X connect 14 0 13 0;
#X connect 14 1 12 0;
#X connect 15 0 5 0;
#X connect 17 0 10 0;
#X connect 17 1 6 0;
#X connect 18 0 8 0;
#X connect 18 1 17 0;
#X connect 19 0 18 0;
#X connect 19 0 27 0;
#X connect 27 0 18 0;
#X restore 763 -138 pd load_random_kick;
#N canvas 431 95 759 533 load_random_hats 0;
#X obj 116 153 folder_list;
#X obj 116 180 t a b;
#X obj 222 212 counter;
#X floatatom 222 239 5 0 0 0 - - -;
#X msg 222 183 set 1;
#X obj 130 383 msgfile;
#X obj 207 262 int;
#X msg 107 208 add \$1;
#X obj 116 125 t a b b;
#X msg 73 126 clear;
#X obj 165 286 random;
#X obj 99 -2 inlet;
#X msg 192 336 goto \$1;
#X msg 155 337 this;
#X obj 165 311 t b a;
#X msg 184 383 print;
#X obj 104 425 print;
#X obj 165 262 t b b;
#X obj 116 85 route symbol bang;
#X obj 104 27 bng 15 250 50 0 empty empty empty 17 7 0 10 -262144 -1
-1;
#X obj 170 424 outlet;
#X text 260 240 <-- number of files;
#X text 189 408 <-- outputs random filename;
#X text 227 85 <-- sorts bangs (output) from symbols (set);
#X text -14 0 force random -->;
#X text 226 383 <-- check what's loaded;
#X text 4 424 for testing -->;
#X msg 134 35 symbol /home/joel/Samples/Sorted2/hats/*.wav;
#X connect 0 0 1 0;
#X connect 1 0 7 0;
#X connect 1 1 2 0;
#X connect 2 0 3 0;
#X connect 3 0 6 1;
#X connect 4 0 2 0;
#X connect 5 0 16 0;
#X connect 5 0 20 0;
#X connect 6 0 10 1;
#X connect 7 0 5 0;
#X connect 8 0 0 0;
#X connect 8 1 4 0;
#X connect 8 2 9 0;
#X connect 9 0 5 0;
#X connect 10 0 14 0;
#X connect 11 0 19 0;
#X connect 12 0 5 0;
#X connect 13 0 5 0;
#X connect 14 0 13 0;
#X connect 14 1 12 0;
#X connect 15 0 5 0;
#X connect 17 0 10 0;
#X connect 17 1 6 0;
#X connect 18 0 8 0;
#X connect 18 1 17 0;
#X connect 19 0 18 0;
#X connect 19 0 27 0;
#X connect 27 0 18 0;
#X restore 764 -95 pd load_random_hats;
#N canvas 309 86 759 533 load_random_perc 0;
#X obj 116 153 folder_list;
#X obj 116 180 t a b;
#X obj 222 212 counter;
#X floatatom 222 239 5 0 0 0 - - -;
#X msg 222 183 set 1;
#X obj 130 383 msgfile;
#X obj 207 262 int;
#X msg 107 208 add \$1;
#X obj 116 125 t a b b;
#X msg 73 126 clear;
#X obj 165 286 random;
#X obj 99 -2 inlet;
#X msg 192 336 goto \$1;
#X msg 155 337 this;
#X obj 165 311 t b a;
#X msg 184 383 print;
#X obj 104 425 print;
#X obj 165 262 t b b;
#X obj 116 85 route symbol bang;
#X obj 104 27 bng 15 250 50 0 empty empty empty 17 7 0 10 -262144 -1
-1;
#X obj 170 424 outlet;
#X text 260 240 <-- number of files;
#X text 189 408 <-- outputs random filename;
#X text 227 85 <-- sorts bangs (output) from symbols (set);
#X text -14 0 force random -->;
#X text 226 383 <-- check what's loaded;
#X text 4 424 for testing -->;
#X msg 143 39 symbol /home/joel/Samples/Sorted2/percs/*.wav;
#X connect 0 0 1 0;
#X connect 1 0 7 0;
#X connect 1 1 2 0;
#X connect 2 0 3 0;
#X connect 3 0 6 1;
#X connect 4 0 2 0;
#X connect 5 0 16 0;
#X connect 5 0 20 0;
#X connect 6 0 10 1;
#X connect 7 0 5 0;
#X connect 8 0 0 0;
#X connect 8 1 4 0;
#X connect 8 2 9 0;
#X connect 9 0 5 0;
#X connect 10 0 14 0;
#X connect 11 0 19 0;
#X connect 12 0 5 0;
#X connect 13 0 5 0;
#X connect 14 0 13 0;
#X connect 14 1 12 0;
#X connect 15 0 5 0;
#X connect 17 0 10 0;
#X connect 17 1 6 0;
#X connect 18 0 8 0;
#X connect 18 1 17 0;
#X connect 19 0 18 0;
#X connect 19 0 27 0;
#X connect 27 0 18 0;
#X restore 766 -74 pd load_random_perc;
#X text 815 -162 G;
#X msg 767 21 read -resize \$1 adrum7;
#X obj 976 -16 openpanel;
#N canvas 485 392 759 533 load_random_snare 0;
#X obj 116 153 folder_list;
#X obj 116 180 t a b;
#X obj 222 212 counter;
#X floatatom 222 239 5 0 0 0 - - -;
#X msg 222 183 set 1;
#X obj 130 383 msgfile;
#X obj 207 262 int;
#X msg 107 208 add \$1;
#X obj 116 125 t a b b;
#X msg 73 126 clear;
#X obj 165 286 random;
#X obj 99 -2 inlet;
#X msg 192 336 goto \$1;
#X msg 155 337 this;
#X obj 165 311 t b a;
#X msg 184 383 print;
#X obj 104 425 print;
#X obj 165 262 t b b;
#X obj 116 85 route symbol bang;
#X obj 104 27 bng 15 250 50 0 empty empty empty 17 7 0 10 -262144 -1
-1;
#X obj 170 424 outlet;
#X text 260 240 <-- number of files;
#X text 189 408 <-- outputs random filename;
#X text 227 85 <-- sorts bangs (output) from symbols (set);
#X text -14 0 force random -->;
#X text 226 383 <-- check what's loaded;
#X text 4 424 for testing -->;
#X msg 147 33 symbol /home/joel/Samples/Sorted2/snares/*.wav;
#X connect 0 0 1 0;
#X connect 1 0 7 0;
#X connect 1 1 2 0;
#X connect 2 0 3 0;
#X connect 3 0 6 1;
#X connect 4 0 2 0;
#X connect 5 0 16 0;
#X connect 5 0 20 0;
#X connect 6 0 10 1;
#X connect 7 0 5 0;
#X connect 8 0 0 0;
#X connect 8 1 4 0;
#X connect 8 2 9 0;
#X connect 9 0 5 0;
#X connect 10 0 14 0;
#X connect 11 0 19 0;
#X connect 12 0 5 0;
#X connect 13 0 5 0;
#X connect 14 0 13 0;
#X connect 14 1 12 0;
#X connect 15 0 5 0;
#X connect 17 0 10 0;
#X connect 17 1 6 0;
#X connect 18 0 8 0;
#X connect 18 1 17 0;
#X connect 19 0 18 0;
#X connect 19 0 27 0;
#X connect 27 0 18 0;
#X restore 961 -137 pd load_random_snare;
#N canvas 364 105 759 533 load_random_kick 0;
#X obj 116 153 folder_list;
#X obj 116 180 t a b;
#X obj 222 212 counter;
#X floatatom 222 239 5 0 0 0 - - -;
#X msg 222 183 set 1;
#X obj 130 383 msgfile;
#X obj 207 262 int;
#X msg 107 208 add \$1;
#X obj 116 125 t a b b;
#X msg 73 126 clear;
#X obj 165 286 random;
#X obj 99 -2 inlet;
#X msg 192 336 goto \$1;
#X msg 155 337 this;
#X obj 165 311 t b a;
#X msg 184 383 print;
#X obj 104 425 print;
#X obj 165 262 t b b;
#X obj 116 85 route symbol bang;
#X obj 104 27 bng 15 250 50 0 empty empty empty 17 7 0 10 -262144 -1
-1;
#X obj 170 424 outlet;
#X text 260 240 <-- number of files;
#X text 189 408 <-- outputs random filename;
#X text 227 85 <-- sorts bangs (output) from symbols (set);
#X text -14 0 force random -->;
#X text 226 383 <-- check what's loaded;
#X text 4 424 for testing -->;
#X msg 141 40 symbol /home/joel/Samples/Sorted2/kicks/*.wav;
#X connect 0 0 1 0;
#X connect 1 0 7 0;
#X connect 1 1 2 0;
#X connect 2 0 3 0;
#X connect 3 0 6 1;
#X connect 4 0 2 0;
#X connect 5 0 16 0;
#X connect 5 0 20 0;
#X connect 6 0 10 1;
#X connect 7 0 5 0;
#X connect 8 0 0 0;
#X connect 8 1 4 0;
#X connect 8 2 9 0;
#X connect 9 0 5 0;
#X connect 10 0 14 0;
#X connect 11 0 19 0;
#X connect 12 0 5 0;
#X connect 13 0 5 0;
#X connect 14 0 13 0;
#X connect 14 1 12 0;
#X connect 15 0 5 0;
#X connect 17 0 10 0;
#X connect 17 1 6 0;
#X connect 18 0 8 0;
#X connect 18 1 17 0;
#X connect 19 0 18 0;
#X connect 19 0 27 0;
#X connect 27 0 18 0;
#X restore 960 -161 pd load_random_kick;
#N canvas 433 94 759 533 load_random_hats 0;
#X obj 116 153 folder_list;
#X obj 116 180 t a b;
#X obj 222 212 counter;
#X floatatom 222 239 5 0 0 0 - - -;
#X msg 222 183 set 1;
#X obj 130 383 msgfile;
#X obj 207 262 int;
#X msg 107 208 add \$1;
#X obj 116 125 t a b b;
#X msg 73 126 clear;
#X obj 165 286 random;
#X obj 99 -2 inlet;
#X msg 192 336 goto \$1;
#X msg 155 337 this;
#X obj 165 311 t b a;
#X msg 184 383 print;
#X obj 104 425 print;
#X obj 165 262 t b b;
#X obj 116 85 route symbol bang;
#X obj 104 27 bng 15 250 50 0 empty empty empty 17 7 0 10 -262144 -1
-1;
#X obj 170 424 outlet;
#X text 260 240 <-- number of files;
#X text 189 408 <-- outputs random filename;
#X text 227 85 <-- sorts bangs (output) from symbols (set);
#X text -14 0 force random -->;
#X text 226 383 <-- check what's loaded;
#X text 4 424 for testing -->;
#X msg 135 34 symbol /home/joel/Samples/Sorted2/hats/*.wav;
#X connect 0 0 1 0;
#X connect 1 0 7 0;
#X connect 1 1 2 0;
#X connect 2 0 3 0;
#X connect 3 0 6 1;
#X connect 4 0 2 0;
#X connect 5 0 16 0;
#X connect 5 0 20 0;
#X connect 6 0 10 1;
#X connect 7 0 5 0;
#X connect 8 0 0 0;
#X connect 8 1 4 0;
#X connect 8 2 9 0;
#X connect 9 0 5 0;
#X connect 10 0 14 0;
#X connect 11 0 19 0;
#X connect 12 0 5 0;
#X connect 13 0 5 0;
#X connect 14 0 13 0;
#X connect 14 1 12 0;
#X connect 15 0 5 0;
#X connect 17 0 10 0;
#X connect 17 1 6 0;
#X connect 18 0 8 0;
#X connect 18 1 17 0;
#X connect 19 0 18 0;
#X connect 19 0 27 0;
#X connect 27 0 18 0;
#X restore 962 -115 pd load_random_hats;
#N canvas 311 85 759 533 load_random_perc 0;
#X obj 116 153 folder_list;
#X obj 116 180 t a b;
#X obj 222 212 counter;
#X floatatom 222 239 5 0 0 0 - - -;
#X msg 222 183 set 1;
#X obj 130 383 msgfile;
#X obj 207 262 int;
#X msg 107 208 add \$1;
#X obj 116 125 t a b b;
#X msg 73 126 clear;
#X obj 165 286 random;
#X obj 99 -2 inlet;
#X msg 192 336 goto \$1;
#X msg 155 337 this;
#X obj 165 311 t b a;
#X msg 184 383 print;
#X obj 104 425 print;
#X obj 165 262 t b b;
#X obj 116 85 route symbol bang;
#X obj 104 27 bng 15 250 50 0 empty empty empty 17 7 0 10 -262144 -1
-1;
#X obj 170 424 outlet;
#X text 260 240 <-- number of files;
#X text 189 408 <-- outputs random filename;
#X text 227 85 <-- sorts bangs (output) from symbols (set);
#X text -14 0 force random -->;
#X text 226 383 <-- check what's loaded;
#X text 4 424 for testing -->;
#X msg 142 39 symbol /home/joel/Samples/Sorted2/percs/*.wav;
#X connect 0 0 1 0;
#X connect 1 0 7 0;
#X connect 1 1 2 0;
#X connect 2 0 3 0;
#X connect 3 0 6 1;
#X connect 4 0 2 0;
#X connect 5 0 16 0;
#X connect 5 0 20 0;
#X connect 6 0 10 1;
#X connect 7 0 5 0;
#X connect 8 0 0 0;
#X connect 8 1 4 0;
#X connect 8 2 9 0;
#X connect 9 0 5 0;
#X connect 10 0 14 0;
#X connect 11 0 19 0;
#X connect 12 0 5 0;
#X connect 13 0 5 0;
#X connect 14 0 13 0;
#X connect 14 1 12 0;
#X connect 15 0 5 0;
#X connect 17 0 10 0;
#X connect 17 1 6 0;
#X connect 18 0 8 0;
#X connect 18 1 17 0;
#X connect 19 0 18 0;
#X connect 19 0 27 0;
#X connect 27 0 18 0;
#X restore 964 -94 pd load_random_perc;
#X msg 974 13 read -resize \$1 adrum8;
#X obj 317 -324 bng 15 250 50 0 empty empty empty 17 7 0 10 -262144
-1 -1;
#X obj 551 -315 bng 15 250 50 0 empty empty empty 17 7 0 10 -262144
-1 -1;
#X obj 788 -295 bng 15 250 50 0 empty empty empty 17 7 0 10 -262144
-1 -1;
#X obj 993 -266 bng 15 250 50 0 empty empty empty 17 7 0 10 -262144
-1 -1;
#X obj 338 57 bng 15 250 50 0 empty empty empty 17 7 0 10 -262144 -1
-1;
#X obj 542 39 bng 15 250 50 0 empty empty empty 17 7 0 10 -262144 -1
-1;
#X obj 735 21 bng 15 250 50 0 empty empty empty 17 7 0 10 -262144 -1
-1;
#X obj 964 43 bng 15 250 50 0 empty empty empty 17 7 0 10 -262144 -1
-1;
#X obj 109 208 bng 12 250 50 0 empty empty load_cymb 17 7 0 10 -260097
-1 -1;
#N canvas 313 86 759 533 load_random_cymb 0;
#X obj 116 153 folder_list;
#X obj 116 180 t a b;
#X obj 222 212 counter;
#X floatatom 222 239 5 0 0 0 - - -;
#X msg 222 183 set 1;
#X obj 130 383 msgfile;
#X obj 207 262 int;
#X msg 107 208 add \$1;
#X obj 116 125 t a b b;
#X msg 73 126 clear;
#X obj 165 286 random;
#X obj 99 -2 inlet;
#X msg 192 336 goto \$1;
#X msg 155 337 this;
#X obj 165 311 t b a;
#X msg 184 383 print;
#X obj 104 425 print;
#X obj 165 262 t b b;
#X obj 116 85 route symbol bang;
#X obj 104 27 bng 15 250 50 0 empty empty empty 17 7 0 10 -262144 -1
-1;
#X obj 170 424 outlet;
#X text 260 240 <-- number of files;
#X text 189 408 <-- outputs random filename;
#X text 227 85 <-- sorts bangs (output) from symbols (set);
#X text -14 0 force random -->;
#X text 226 383 <-- check what's loaded;
#X text 4 424 for testing -->;
#X msg 142 38 symbol /home/joel/Samples/Sorted2/cymbs/*.wav;
#X connect 0 0 1 0;
#X connect 1 0 7 0;
#X connect 1 1 2 0;
#X connect 2 0 3 0;
#X connect 3 0 6 1;
#X connect 4 0 2 0;
#X connect 5 0 16 0;
#X connect 5 0 20 0;
#X connect 6 0 10 1;
#X connect 7 0 5 0;
#X connect 8 0 0 0;
#X connect 8 1 4 0;
#X connect 8 2 9 0;
#X connect 9 0 5 0;
#X connect 10 0 14 0;
#X connect 11 0 19 0;
#X connect 12 0 5 0;
#X connect 13 0 5 0;
#X connect 14 0 13 0;
#X connect 14 1 12 0;
#X connect 15 0 5 0;
#X connect 17 0 10 0;
#X connect 17 1 6 0;
#X connect 18 0 8 0;
#X connect 18 1 17 0;
#X connect 19 0 18 0;
#X connect 19 0 27 0;
#X connect 27 0 18 0;
#X restore 342 -445 pd load_random_cymb;
#X text 1012 -181 H;
#N canvas 311 87 759 533 load_random_cymb 0;
#X obj 116 153 folder_list;
#X obj 116 180 t a b;
#X obj 222 212 counter;
#X floatatom 222 239 5 0 0 0 - - -;
#X msg 222 183 set 1;
#X obj 130 383 msgfile;
#X obj 207 262 int;
#X msg 107 208 add \$1;
#X obj 116 125 t a b b;
#X msg 73 126 clear;
#X obj 165 286 random;
#X obj 99 -2 inlet;
#X msg 192 336 goto \$1;
#X msg 155 337 this;
#X obj 165 311 t b a;
#X msg 184 383 print;
#X obj 104 425 print;
#X obj 165 262 t b b;
#X obj 116 85 route symbol bang;
#X obj 104 27 bng 15 250 50 0 empty empty empty 17 7 0 10 -262144 -1
-1;
#X obj 170 424 outlet;
#X text 260 240 <-- number of files;
#X text 189 408 <-- outputs random filename;
#X text 227 85 <-- sorts bangs (output) from symbols (set);
#X text -14 0 force random -->;
#X text 226 383 <-- check what's loaded;
#X text 4 424 for testing -->;
#X msg 143 39 symbol /home/joel/Samples/Sorted2/cymbs/*.wav;
#X connect 0 0 1 0;
#X connect 1 0 7 0;
#X connect 1 1 2 0;
#X connect 2 0 3 0;
#X connect 3 0 6 1;
#X connect 4 0 2 0;
#X connect 5 0 16 0;
#X connect 5 0 20 0;
#X connect 6 0 10 1;
#X connect 7 0 5 0;
#X connect 8 0 0 0;
#X connect 8 1 4 0;
#X connect 8 2 9 0;
#X connect 9 0 5 0;
#X connect 10 0 14 0;
#X connect 11 0 19 0;
#X connect 12 0 5 0;
#X connect 13 0 5 0;
#X connect 14 0 13 0;
#X connect 14 1 12 0;
#X connect 15 0 5 0;
#X connect 17 0 10 0;
#X connect 17 1 6 0;
#X connect 18 0 8 0;
#X connect 18 1 17 0;
#X connect 19 0 18 0;
#X connect 19 0 27 0;
#X connect 27 0 18 0;
#X restore 575 -436 pd load_random_cymb;
#N canvas 311 87 759 533 load_random_cymb 0;
#X obj 116 153 folder_list;
#X obj 116 180 t a b;
#X obj 222 212 counter;
#X floatatom 222 239 5 0 0 0 - - -;
#X msg 222 183 set 1;
#X obj 130 383 msgfile;
#X obj 207 262 int;
#X msg 107 208 add \$1;
#X obj 116 125 t a b b;
#X msg 73 126 clear;
#X obj 165 286 random;
#X obj 99 -2 inlet;
#X msg 192 336 goto \$1;
#X msg 155 337 this;
#X obj 165 311 t b a;
#X msg 184 383 print;
#X obj 104 425 print;
#X obj 165 262 t b b;
#X obj 116 85 route symbol bang;
#X obj 104 27 bng 15 250 50 0 empty empty empty 17 7 0 10 -262144 -1
-1;
#X obj 170 424 outlet;
#X text 260 240 <-- number of files;
#X text 189 408 <-- outputs random filename;
#X text 227 85 <-- sorts bangs (output) from symbols (set);
#X text -14 0 force random -->;
#X text 226 383 <-- check what's loaded;
#X text 4 424 for testing -->;
#X msg 142 38 symbol /home/joel/Samples/Sorted2/cymbs/*.wav;
#X connect 0 0 1 0;
#X connect 1 0 7 0;
#X connect 1 1 2 0;
#X connect 2 0 3 0;
#X connect 3 0 6 1;
#X connect 4 0 2 0;
#X connect 5 0 16 0;
#X connect 5 0 20 0;
#X connect 6 0 10 1;
#X connect 7 0 5 0;
#X connect 8 0 0 0;
#X connect 8 1 4 0;
#X connect 8 2 9 0;
#X connect 9 0 5 0;
#X connect 10 0 14 0;
#X connect 11 0 19 0;
#X connect 12 0 5 0;
#X connect 13 0 5 0;
#X connect 14 0 13 0;
#X connect 14 1 12 0;
#X connect 15 0 5 0;
#X connect 17 0 10 0;
#X connect 17 1 6 0;
#X connect 18 0 8 0;
#X connect 18 1 17 0;
#X connect 19 0 18 0;
#X connect 19 0 27 0;
#X connect 27 0 18 0;
#X restore 824 -339 pd load_random_cymb;
#N canvas 313 86 759 533 load_random_cymb 0;
#X obj 116 153 folder_list;
#X obj 116 180 t a b;
#X obj 222 212 counter;
#X floatatom 222 239 5 0 0 0 - - -;
#X msg 222 183 set 1;
#X obj 130 383 msgfile;
#X obj 207 262 int;
#X msg 107 208 add \$1;
#X obj 116 125 t a b b;
#X msg 73 126 clear;
#X obj 165 286 random;
#X obj 99 -2 inlet;
#X msg 192 336 goto \$1;
#X msg 155 337 this;
#X obj 165 311 t b a;
#X msg 184 383 print;
#X obj 104 425 print;
#X obj 165 262 t b b;
#X obj 116 85 route symbol bang;
#X obj 104 27 bng 15 250 50 0 empty empty empty 17 7 0 10 -262144 -1
-1;
#X obj 170 424 outlet;
#X text 260 240 <-- number of files;
#X text 189 408 <-- outputs random filename;
#X text 227 85 <-- sorts bangs (output) from symbols (set);
#X text -14 0 force random -->;
#X text 226 383 <-- check what's loaded;
#X text 4 424 for testing -->;
#X msg 142 38 symbol /home/joel/Samples/Sorted2/cymbs/*.wav;
#X connect 0 0 1 0;
#X connect 1 0 7 0;
#X connect 1 1 2 0;
#X connect 2 0 3 0;
#X connect 3 0 6 1;
#X connect 4 0 2 0;
#X connect 5 0 16 0;
#X connect 5 0 20 0;
#X connect 6 0 10 1;
#X connect 7 0 5 0;
#X connect 8 0 0 0;
#X connect 8 1 4 0;
#X connect 8 2 9 0;
#X connect 9 0 5 0;
#X connect 10 0 14 0;
#X connect 11 0 19 0;
#X connect 12 0 5 0;
#X connect 13 0 5 0;
#X connect 14 0 13 0;
#X connect 14 1 12 0;
#X connect 15 0 5 0;
#X connect 17 0 10 0;
#X connect 17 1 6 0;
#X connect 18 0 8 0;
#X connect 18 1 17 0;
#X connect 19 0 18 0;
#X connect 19 0 27 0;
#X connect 27 0 18 0;
#X restore 1036 -362 pd load_random_cymb;
#N canvas 313 86 759 533 load_random_cymb 0;
#X obj 116 153 folder_list;
#X obj 116 180 t a b;
#X obj 222 212 counter;
#X floatatom 222 239 5 0 0 0 - - -;
#X msg 222 183 set 1;
#X obj 130 383 msgfile;
#X obj 207 262 int;
#X msg 107 208 add \$1;
#X obj 116 125 t a b b;
#X msg 73 126 clear;
#X obj 165 286 random;
#X obj 99 -2 inlet;
#X msg 192 336 goto \$1;
#X msg 155 337 this;
#X obj 165 311 t b a;
#X msg 184 383 print;
#X obj 104 425 print;
#X obj 165 262 t b b;
#X obj 116 85 route symbol bang;
#X obj 104 27 bng 15 250 50 0 empty empty empty 17 7 0 10 -262144 -1
-1;
#X obj 170 424 outlet;
#X text 260 240 <-- number of files;
#X text 189 408 <-- outputs random filename;
#X text 227 85 <-- sorts bangs (output) from symbols (set);
#X text -14 0 force random -->;
#X text 226 383 <-- check what's loaded;
#X text 4 424 for testing -->;
#X msg 142 39 symbol /home/joel/Samples/Sorted2/cymbs/*.wav;
#X connect 0 0 1 0;
#X connect 1 0 7 0;
#X connect 1 1 2 0;
#X connect 2 0 3 0;
#X connect 3 0 6 1;
#X connect 4 0 2 0;
#X connect 5 0 16 0;
#X connect 5 0 20 0;
#X connect 6 0 10 1;
#X connect 7 0 5 0;
#X connect 8 0 0 0;
#X connect 8 1 4 0;
#X connect 8 2 9 0;
#X connect 9 0 5 0;
#X connect 10 0 14 0;
#X connect 11 0 19 0;
#X connect 12 0 5 0;
#X connect 13 0 5 0;
#X connect 14 0 13 0;
#X connect 14 1 12 0;
#X connect 15 0 5 0;
#X connect 17 0 10 0;
#X connect 17 1 6 0;
#X connect 18 0 8 0;
#X connect 18 1 17 0;
#X connect 19 0 18 0;
#X connect 19 0 27 0;
#X connect 27 0 18 0;
#X restore 364 -36 pd load_random_cymb;
#X obj 220 164 bng 12 250 50 0 empty empty load_kick 17 7 0 10 -260097
-1 -1;
#X obj 220 174 bng 12 250 50 0 empty empty load_snare 17 7 0 10 -260097
-1 -1;
#X obj 220 185 bng 12 250 50 0 empty empty load_hat 17 7 0 10 -260097
-1 -1;
#X obj 220 196 bng 12 250 50 0 empty empty load_perc 17 7 0 10 -260097
-1 -1;
#X obj 220 207 bng 12 250 50 0 empty empty load_cymb 17 7 0 10 -260097
-1 -1;
#X obj 334 160 bng 12 250 50 0 empty empty load_kick 17 7 0 10 -260097
-1 -1;
#X obj 334 170 bng 12 250 50 0 empty empty load_snare 17 7 0 10 -260097
-1 -1;
#X obj 334 181 bng 12 250 50 0 empty empty load_hat 17 7 0 10 -260097
-1 -1;
#X obj 334 192 bng 12 250 50 0 empty empty load_perc 17 7 0 10 -260097
-1 -1;
#X obj 334 203 bng 12 250 50 0 empty empty load_cymb 17 7 0 10 -260097
-1 -1;
#X obj 448 159 bng 12 250 50 0 empty empty load_kick 17 7 0 10 -260097
-1 -1;
#X obj 448 169 bng 12 250 50 0 empty empty load_snare 17 7 0 10 -260097
-1 -1;
#X obj 448 180 bng 12 250 50 0 empty empty load_hat 17 7 0 10 -260097
-1 -1;
#X obj 448 191 bng 12 250 50 0 empty empty load_perc 17 7 0 10 -260097
-1 -1;
#X obj 448 202 bng 12 250 50 0 empty empty load_cymb 17 7 0 10 -260097
-1 -1;
#X obj 561 159 bng 12 250 50 0 empty empty load_kick 17 7 0 10 -260097
-1 -1;
#X obj 561 169 bng 12 250 50 0 empty empty load_snare 17 7 0 10 -260097
-1 -1;
#X obj 561 180 bng 12 250 50 0 empty empty load_hat 17 7 0 10 -260097
-1 -1;
#X obj 561 191 bng 12 250 50 0 empty empty load_perc 17 7 0 10 -260097
-1 -1;
#X obj 561 202 bng 12 250 50 0 empty empty load_cymb 17 7 0 10 -260097
-1 -1;
#X obj 676 157 bng 12 250 50 0 empty empty load_kick 17 7 0 10 -260097
-1 -1;
#X obj 676 167 bng 12 250 50 0 empty empty load_snare 17 7 0 10 -260097
-1 -1;
#X obj 676 178 bng 12 250 50 0 empty empty load_hat 17 7 0 10 -260097
-1 -1;
#X obj 676 189 bng 12 250 50 0 empty empty load_perc 17 7 0 10 -260097
-1 -1;
#X obj 676 200 bng 12 250 50 0 empty empty load_cymb 17 7 0 10 -260097
-1 -1;
#X obj 791 160 bng 12 250 50 0 empty empty load_kick 17 7 0 10 -260097
-1 -1;
#X obj 791 170 bng 12 250 50 0 empty empty load_snare 17 7 0 10 -260097
-1 -1;
#X obj 791 181 bng 12 250 50 0 empty empty load_hat 17 7 0 10 -260097
-1 -1;
#X obj 791 192 bng 12 250 50 0 empty empty load_perc 17 7 0 10 -260097
-1 -1;
#X obj 791 203 bng 12 250 50 0 empty empty load_cymb 17 7 0 10 -260097
-1 -1;
#X obj 912 162 bng 12 250 50 0 empty empty load_kick 17 7 0 10 -260097
-1 -1;
#X obj 912 172 bng 12 250 50 0 empty empty load_snare 17 7 0 10 -260097
-1 -1;
#X obj 912 183 bng 12 250 50 0 empty empty load_hat 17 7 0 10 -260097
-1 -1;
#X obj 912 194 bng 12 250 50 0 empty empty load_perc 17 7 0 10 -260097
-1 -1;
#X obj 912 205 bng 12 250 50 0 empty empty load_cymb 17 7 0 10 -260097
-1 -1;
#N canvas 311 87 759 533 load_random_cymb 0;
#X obj 116 153 folder_list;
#X obj 116 180 t a b;
#X obj 222 212 counter;
#X floatatom 222 239 5 0 0 0 - - -;
#X msg 222 183 set 1;
#X obj 130 383 msgfile;
#X obj 207 262 int;
#X msg 107 208 add \$1;
#X obj 116 125 t a b b;
#X msg 73 126 clear;
#X obj 165 286 random;
#X obj 99 -2 inlet;
#X msg 192 336 goto \$1;
#X msg 155 337 this;
#X obj 165 311 t b a;
#X msg 184 383 print;
#X obj 104 425 print;
#X obj 165 262 t b b;
#X obj 116 85 route symbol bang;
#X obj 104 27 bng 15 250 50 0 empty empty empty 17 7 0 10 -262144 -1
-1;
#X obj 170 424 outlet;
#X text 260 240 <-- number of files;
#X text 189 408 <-- outputs random filename;
#X text 227 85 <-- sorts bangs (output) from symbols (set);
#X text -14 0 force random -->;
#X text 226 383 <-- check what's loaded;
#X text 4 424 for testing -->;
#X msg 142 38 symbol /home/joel/Samples/Sorted2/cymbs/*.wav;
#X connect 0 0 1 0;
#X connect 1 0 7 0;
#X connect 1 1 2 0;
#X connect 2 0 3 0;
#X connect 3 0 6 1;
#X connect 4 0 2 0;
#X connect 5 0 16 0;
#X connect 5 0 20 0;
#X connect 6 0 10 1;
#X connect 7 0 5 0;
#X connect 8 0 0 0;
#X connect 8 1 4 0;
#X connect 8 2 9 0;
#X connect 9 0 5 0;
#X connect 10 0 14 0;
#X connect 11 0 19 0;
#X connect 12 0 5 0;
#X connect 13 0 5 0;
#X connect 14 0 13 0;
#X connect 14 1 12 0;
#X connect 15 0 5 0;
#X connect 17 0 10 0;
#X connect 17 1 6 0;
#X connect 18 0 8 0;
#X connect 18 1 17 0;
#X connect 19 0 18 0;
#X connect 19 0 27 0;
#X connect 27 0 18 0;
#X restore 549 -60 pd load_random_cymb;
#N canvas 311 87 759 533 load_random_cymb 0;
#X obj 116 153 folder_list;
#X obj 116 180 t a b;
#X obj 222 212 counter;
#X floatatom 222 239 5 0 0 0 - - -;
#X msg 222 183 set 1;
#X obj 130 383 msgfile;
#X obj 207 262 int;
#X msg 107 208 add \$1;
#X obj 116 125 t a b b;
#X msg 73 126 clear;
#X obj 165 286 random;
#X obj 99 -2 inlet;
#X msg 192 336 goto \$1;
#X msg 155 337 this;
#X obj 165 311 t b a;
#X msg 184 383 print;
#X obj 104 425 print;
#X obj 165 262 t b b;
#X obj 116 85 route symbol bang;
#X obj 104 27 bng 15 250 50 0 empty empty empty 17 7 0 10 -262144 -1
-1;
#X obj 170 424 outlet;
#X text 260 240 <-- number of files;
#X text 189 408 <-- outputs random filename;
#X text 227 85 <-- sorts bangs (output) from symbols (set);
#X text -14 0 force random -->;
#X text 226 383 <-- check what's loaded;
#X text 4 424 for testing -->;
#X msg 143 38 symbol /home/joel/Samples/Sorted2/cymbs/*.wav;
#X connect 0 0 1 0;
#X connect 1 0 7 0;
#X connect 1 1 2 0;
#X connect 2 0 3 0;
#X connect 3 0 6 1;
#X connect 4 0 2 0;
#X connect 5 0 16 0;
#X connect 5 0 20 0;
#X connect 6 0 10 1;
#X connect 7 0 5 0;
#X connect 8 0 0 0;
#X connect 8 1 4 0;
#X connect 8 2 9 0;
#X connect 9 0 5 0;
#X connect 10 0 14 0;
#X connect 11 0 19 0;
#X connect 12 0 5 0;
#X connect 13 0 5 0;
#X connect 14 0 13 0;
#X connect 14 1 12 0;
#X connect 15 0 5 0;
#X connect 17 0 10 0;
#X connect 17 1 6 0;
#X connect 18 0 8 0;
#X connect 18 1 17 0;
#X connect 19 0 18 0;
#X connect 19 0 27 0;
#X connect 27 0 18 0;
#X restore 766 -51 pd load_random_cymb;
#N canvas 313 86 759 533 load_random_cymb 0;
#X obj 116 153 folder_list;
#X obj 116 180 t a b;
#X obj 222 212 counter;
#X floatatom 222 239 5 0 0 0 - - -;
#X msg 222 183 set 1;
#X obj 130 383 msgfile;
#X obj 207 262 int;
#X msg 107 208 add \$1;
#X obj 116 125 t a b b;
#X msg 73 126 clear;
#X obj 165 286 random;
#X obj 99 -2 inlet;
#X msg 192 336 goto \$1;
#X msg 155 337 this;
#X obj 165 311 t b a;
#X msg 184 383 print;
#X obj 104 425 print;
#X obj 165 262 t b b;
#X obj 116 85 route symbol bang;
#X obj 104 27 bng 15 250 50 0 empty empty empty 17 7 0 10 -262144 -1
-1;
#X obj 170 424 outlet;
#X text 260 240 <-- number of files;
#X text 189 408 <-- outputs random filename;
#X text 227 85 <-- sorts bangs (output) from symbols (set);
#X text -14 0 force random -->;
#X text 226 383 <-- check what's loaded;
#X text 4 424 for testing -->;
#X msg 142 38 symbol /home/joel/Samples/Sorted2/cymbs/*.wav;
#X connect 0 0 1 0;
#X connect 1 0 7 0;
#X connect 1 1 2 0;
#X connect 2 0 3 0;
#X connect 3 0 6 1;
#X connect 4 0 2 0;
#X connect 5 0 16 0;
#X connect 5 0 20 0;
#X connect 6 0 10 1;
#X connect 7 0 5 0;
#X connect 8 0 0 0;
#X connect 8 1 4 0;
#X connect 8 2 9 0;
#X connect 9 0 5 0;
#X connect 10 0 14 0;
#X connect 11 0 19 0;
#X connect 12 0 5 0;
#X connect 13 0 5 0;
#X connect 14 0 13 0;
#X connect 14 1 12 0;
#X connect 15 0 5 0;
#X connect 17 0 10 0;
#X connect 17 1 6 0;
#X connect 18 0 8 0;
#X connect 18 1 17 0;
#X connect 19 0 18 0;
#X connect 19 0 27 0;
#X connect 27 0 18 0;
#X restore 966 -66 pd load_random_cymb;
#N canvas 313 88 759 533 load_random_tom 0;
#X obj 116 153 folder_list;
#X obj 116 180 t a b;
#X obj 222 212 counter;
#X floatatom 222 239 5 0 0 0 - - -;
#X msg 222 183 set 1;
#X obj 130 383 msgfile;
#X obj 207 262 int;
#X msg 107 208 add \$1;
#X obj 116 125 t a b b;
#X msg 73 126 clear;
#X obj 165 286 random;
#X obj 99 -2 inlet;
#X msg 192 336 goto \$1;
#X msg 155 337 this;
#X obj 165 311 t b a;
#X msg 184 383 print;
#X obj 104 425 print;
#X obj 165 262 t b b;
#X obj 116 85 route symbol bang;
#X obj 104 27 bng 15 250 50 0 empty empty empty 17 7 0 10 -262144 -1
-1;
#X obj 170 424 outlet;
#X text 260 240 <-- number of files;
#X text 189 408 <-- outputs random filename;
#X text 227 85 <-- sorts bangs (output) from symbols (set);
#X text -14 0 force random -->;
#X text 226 383 <-- check what's loaded;
#X text 4 424 for testing -->;
#X msg 142 38 symbol /home/joel/Samples/Sorted/toms/*.wav;
#X connect 0 0 1 0;
#X connect 1 0 7 0;
#X connect 1 1 2 0;
#X connect 2 0 3 0;
#X connect 3 0 6 1;
#X connect 4 0 2 0;
#X connect 5 0 16 0;
#X connect 5 0 20 0;
#X connect 6 0 10 1;
#X connect 7 0 5 0;
#X connect 8 0 0 0;
#X connect 8 1 4 0;
#X connect 8 2 9 0;
#X connect 9 0 5 0;
#X connect 10 0 14 0;
#X connect 11 0 19 0;
#X connect 12 0 5 0;
#X connect 13 0 5 0;
#X connect 14 0 13 0;
#X connect 14 1 12 0;
#X connect 15 0 5 0;
#X connect 17 0 10 0;
#X connect 17 1 6 0;
#X connect 18 0 8 0;
#X connect 18 1 17 0;
#X connect 19 0 18 0;
#X connect 19 0 27 0;
#X connect 27 0 18 0;
#X restore 347 -421 pd load_random_tom;
#X obj 109 220 bng 12 250 50 0 empty empty load_tom 17 7 0 10 -260097
-1 -1;
#X obj 220 219 bng 12 250 50 0 empty empty load_tom 17 7 0 10 -260097
-1 -1;
#N canvas 311 89 759 533 load_random_tom 0;
#X obj 116 153 folder_list;
#X obj 116 180 t a b;
#X obj 222 212 counter;
#X floatatom 222 239 5 0 0 0 - - -;
#X msg 222 183 set 1;
#X obj 130 383 msgfile;
#X obj 207 262 int;
#X msg 107 208 add \$1;
#X obj 116 125 t a b b;
#X msg 73 126 clear;
#X obj 165 286 random;
#X obj 99 -2 inlet;
#X msg 192 336 goto \$1;
#X msg 155 337 this;
#X obj 165 311 t b a;
#X msg 184 383 print;
#X obj 104 425 print;
#X obj 165 262 t b b;
#X obj 116 85 route symbol bang;
#X obj 104 27 bng 15 250 50 0 empty empty empty 17 7 0 10 -262144 -1
-1;
#X obj 170 424 outlet;
#X text 260 240 <-- number of files;
#X text 189 408 <-- outputs random filename;
#X text 227 85 <-- sorts bangs (output) from symbols (set);
#X text -14 0 force random -->;
#X text 226 383 <-- check what's loaded;
#X text 4 424 for testing -->;
#X msg 142 38 symbol /home/joel/Samples/Sorted/toms/*.wav;
#X connect 0 0 1 0;
#X connect 1 0 7 0;
#X connect 1 1 2 0;
#X connect 2 0 3 0;
#X connect 3 0 6 1;
#X connect 4 0 2 0;
#X connect 5 0 16 0;
#X connect 5 0 20 0;
#X connect 6 0 10 1;
#X connect 7 0 5 0;
#X connect 8 0 0 0;
#X connect 8 1 4 0;
#X connect 8 2 9 0;
#X connect 9 0 5 0;
#X connect 10 0 14 0;
#X connect 11 0 19 0;
#X connect 12 0 5 0;
#X connect 13 0 5 0;
#X connect 14 0 13 0;
#X connect 14 1 12 0;
#X connect 15 0 5 0;
#X connect 17 0 10 0;
#X connect 17 1 6 0;
#X connect 18 0 8 0;
#X connect 18 1 17 0;
#X connect 19 0 18 0;
#X connect 19 0 27 0;
#X connect 27 0 18 0;
#X restore 577 -416 pd load_random_tom;
#N canvas 313 88 759 533 load_random_tom 0;
#X obj 116 153 folder_list;
#X obj 116 180 t a b;
#X obj 222 212 counter;
#X floatatom 222 239 5 0 0 0 - - -;
#X msg 222 183 set 1;
#X obj 130 383 msgfile;
#X obj 207 262 int;
#X msg 107 208 add \$1;
#X obj 116 125 t a b b;
#X msg 73 126 clear;
#X obj 165 286 random;
#X obj 99 -2 inlet;
#X msg 192 336 goto \$1;
#X msg 155 337 this;
#X obj 165 311 t b a;
#X msg 184 383 print;
#X obj 104 425 print;
#X obj 165 262 t b b;
#X obj 116 85 route symbol bang;
#X obj 104 27 bng 15 250 50 0 empty empty empty 17 7 0 10 -262144 -1
-1;
#X obj 170 424 outlet;
#X text 260 240 <-- number of files;
#X text 189 408 <-- outputs random filename;
#X text 227 85 <-- sorts bangs (output) from symbols (set);
#X text -14 0 force random -->;
#X text 226 383 <-- check what's loaded;
#X text 4 424 for testing -->;
#X msg 142 38 symbol /home/joel/Samples/Sorted/toms/*.wav;
#X connect 0 0 1 0;
#X connect 1 0 7 0;
#X connect 1 1 2 0;
#X connect 2 0 3 0;
#X connect 3 0 6 1;
#X connect 4 0 2 0;
#X connect 5 0 16 0;
#X connect 5 0 20 0;
#X connect 6 0 10 1;
#X connect 7 0 5 0;
#X connect 8 0 0 0;
#X connect 8 1 4 0;
#X connect 8 2 9 0;
#X connect 9 0 5 0;
#X connect 10 0 14 0;
#X connect 11 0 19 0;
#X connect 12 0 5 0;
#X connect 13 0 5 0;
#X connect 14 0 13 0;
#X connect 14 1 12 0;
#X connect 15 0 5 0;
#X connect 17 0 10 0;
#X connect 17 1 6 0;
#X connect 18 0 8 0;
#X connect 18 1 17 0;
#X connect 19 0 18 0;
#X connect 19 0 27 0;
#X connect 27 0 18 0;
#X restore 830 -313 pd load_random_tom;
#N canvas 313 88 759 533 load_random_tom 0;
#X obj 116 153 folder_list;
#X obj 116 180 t a b;
#X obj 222 212 counter;
#X floatatom 222 239 5 0 0 0 - - -;
#X msg 222 183 set 1;
#X obj 130 383 msgfile;
#X obj 207 262 int;
#X msg 107 208 add \$1;
#X obj 116 125 t a b b;
#X msg 73 126 clear;
#X obj 165 286 random;
#X obj 99 -2 inlet;
#X msg 192 336 goto \$1;
#X msg 155 337 this;
#X obj 165 311 t b a;
#X msg 184 383 print;
#X obj 104 425 print;
#X obj 165 262 t b b;
#X obj 116 85 route symbol bang;
#X obj 104 27 bng 15 250 50 0 empty empty empty 17 7 0 10 -262144 -1
-1;
#X obj 170 424 outlet;
#X text 260 240 <-- number of files;
#X text 189 408 <-- outputs random filename;
#X text 227 85 <-- sorts bangs (output) from symbols (set);
#X text -14 0 force random -->;
#X text 226 383 <-- check what's loaded;
#X text 4 424 for testing -->;
#X msg 142 38 symbol /home/joel/Samples/Sorted/toms/*.wav;
#X connect 0 0 1 0;
#X connect 1 0 7 0;
#X connect 1 1 2 0;
#X connect 2 0 3 0;
#X connect 3 0 6 1;
#X connect 4 0 2 0;
#X connect 5 0 16 0;
#X connect 5 0 20 0;
#X connect 6 0 10 1;
#X connect 7 0 5 0;
#X connect 8 0 0 0;
#X connect 8 1 4 0;
#X connect 8 2 9 0;
#X connect 9 0 5 0;
#X connect 10 0 14 0;
#X connect 11 0 19 0;
#X connect 12 0 5 0;
#X connect 13 0 5 0;
#X connect 14 0 13 0;
#X connect 14 1 12 0;
#X connect 15 0 5 0;
#X connect 17 0 10 0;
#X connect 17 1 6 0;
#X connect 18 0 8 0;
#X connect 18 1 17 0;
#X connect 19 0 18 0;
#X connect 19 0 27 0;
#X connect 27 0 18 0;
#X restore 364 -15 pd load_random_tom;
#N canvas 313 88 759 533 load_random_tom 0;
#X obj 116 153 folder_list;
#X obj 116 180 t a b;
#X obj 222 212 counter;
#X floatatom 222 239 5 0 0 0 - - -;
#X msg 222 183 set 1;
#X obj 130 383 msgfile;
#X obj 207 262 int;
#X msg 107 208 add \$1;
#X obj 116 125 t a b b;
#X msg 73 126 clear;
#X obj 165 286 random;
#X obj 99 -2 inlet;
#X msg 192 336 goto \$1;
#X msg 155 337 this;
#X obj 165 311 t b a;
#X msg 184 383 print;
#X obj 104 425 print;
#X obj 165 262 t b b;
#X obj 116 85 route symbol bang;
#X obj 104 27 bng 15 250 50 0 empty empty empty 17 7 0 10 -262144 -1
-1;
#X obj 170 424 outlet;
#X text 260 240 <-- number of files;
#X text 189 408 <-- outputs random filename;
#X text 227 85 <-- sorts bangs (output) from symbols (set);
#X text -14 0 force random -->;
#X text 226 383 <-- check what's loaded;
#X text 4 424 for testing -->;
#X msg 142 38 symbol /home/joel/Samples/Sorted/toms/*.wav;
#X connect 0 0 1 0;
#X connect 1 0 7 0;
#X connect 1 1 2 0;
#X connect 2 0 3 0;
#X connect 3 0 6 1;
#X connect 4 0 2 0;
#X connect 5 0 16 0;
#X connect 5 0 20 0;
#X connect 6 0 10 1;
#X connect 7 0 5 0;
#X connect 8 0 0 0;
#X connect 8 1 4 0;
#X connect 8 2 9 0;
#X connect 9 0 5 0;
#X connect 10 0 14 0;
#X connect 11 0 19 0;
#X connect 12 0 5 0;
#X connect 13 0 5 0;
#X connect 14 0 13 0;
#X connect 14 1 12 0;
#X connect 15 0 5 0;
#X connect 17 0 10 0;
#X connect 17 1 6 0;
#X connect 18 0 8 0;
#X connect 18 1 17 0;
#X connect 19 0 18 0;
#X connect 19 0 27 0;
#X connect 27 0 18 0;
#X restore 550 -34 pd load_random_tom;
#N canvas 313 88 759 533 load_random_tom 0;
#X obj 116 153 folder_list;
#X obj 116 180 t a b;
#X obj 222 212 counter;
#X floatatom 222 239 5 0 0 0 - - -;
#X msg 222 183 set 1;
#X obj 130 383 msgfile;
#X obj 207 262 int;
#X msg 107 208 add \$1;
#X obj 116 125 t a b b;
#X msg 73 126 clear;
#X obj 165 286 random;
#X obj 99 -2 inlet;
#X msg 192 336 goto \$1;
#X msg 155 337 this;
#X obj 165 311 t b a;
#X msg 184 383 print;
#X obj 104 425 print;
#X obj 165 262 t b b;
#X obj 116 85 route symbol bang;
#X obj 104 27 bng 15 250 50 0 empty empty empty 17 7 0 10 -262144 -1
-1;
#X obj 170 424 outlet;
#X text 260 240 <-- number of files;
#X text 189 408 <-- outputs random filename;
#X text 227 85 <-- sorts bangs (output) from symbols (set);
#X text -14 0 force random -->;
#X text 226 383 <-- check what's loaded;
#X text 4 424 for testing -->;
#X msg 142 38 symbol /home/joel/Samples/Sorted/toms/*.wav;
#X connect 0 0 1 0;
#X connect 1 0 7 0;
#X connect 1 1 2 0;
#X connect 2 0 3 0;
#X connect 3 0 6 1;
#X connect 4 0 2 0;
#X connect 5 0 16 0;
#X connect 5 0 20 0;
#X connect 6 0 10 1;
#X connect 7 0 5 0;
#X connect 8 0 0 0;
#X connect 8 1 4 0;
#X connect 8 2 9 0;
#X connect 9 0 5 0;
#X connect 10 0 14 0;
#X connect 11 0 19 0;
#X connect 12 0 5 0;
#X connect 13 0 5 0;
#X connect 14 0 13 0;
#X connect 14 1 12 0;
#X connect 15 0 5 0;
#X connect 17 0 10 0;
#X connect 17 1 6 0;
#X connect 18 0 8 0;
#X connect 18 1 17 0;
#X connect 19 0 18 0;
#X connect 19 0 27 0;
#X connect 27 0 18 0;
#X restore 768 -28 pd load_random_tom;
#N canvas 313 88 759 533 load_random_tom 0;
#X obj 116 153 folder_list;
#X obj 116 180 t a b;
#X obj 222 212 counter;
#X floatatom 222 239 5 0 0 0 - - -;
#X msg 222 183 set 1;
#X obj 130 383 msgfile;
#X obj 207 262 int;
#X msg 107 208 add \$1;
#X obj 116 125 t a b b;
#X msg 73 126 clear;
#X obj 165 286 random;
#X obj 99 -2 inlet;
#X msg 192 336 goto \$1;
#X msg 155 337 this;
#X obj 165 311 t b a;
#X msg 184 383 print;
#X obj 104 425 print;
#X obj 165 262 t b b;
#X obj 116 85 route symbol bang;
#X obj 104 27 bng 15 250 50 0 empty empty empty 17 7 0 10 -262144 -1
-1;
#X obj 170 424 outlet;
#X text 260 240 <-- number of files;
#X text 189 408 <-- outputs random filename;
#X text 227 85 <-- sorts bangs (output) from symbols (set);
#X text -14 0 force random -->;
#X text 226 383 <-- check what's loaded;
#X text 4 424 for testing -->;
#X msg 142 38 symbol /home/joel/Samples/Sorted/toms/*.wav;
#X connect 0 0 1 0;
#X connect 1 0 7 0;
#X connect 1 1 2 0;
#X connect 2 0 3 0;
#X connect 3 0 6 1;
#X connect 4 0 2 0;
#X connect 5 0 16 0;
#X connect 5 0 20 0;
#X connect 6 0 10 1;
#X connect 7 0 5 0;
#X connect 8 0 0 0;
#X connect 8 1 4 0;
#X connect 8 2 9 0;
#X connect 9 0 5 0;
#X connect 10 0 14 0;
#X connect 11 0 19 0;
#X connect 12 0 5 0;
#X connect 13 0 5 0;
#X connect 14 0 13 0;
#X connect 14 1 12 0;
#X connect 15 0 5 0;
#X connect 17 0 10 0;
#X connect 17 1 6 0;
#X connect 18 0 8 0;
#X connect 18 1 17 0;
#X connect 19 0 18 0;
#X connect 19 0 27 0;
#X connect 27 0 18 0;
#X restore 974 -42 pd load_random_tom;
#X obj 334 214 bng 12 250 50 0 empty empty load_tom 17 7 0 10 -260097
-1 -1;
#X obj 448 213 bng 12 250 50 0 empty empty load_tom 17 7 0 10 -260097
-1 -1;
#X obj 561 214 bng 12 250 50 0 empty empty load_tom 17 7 0 10 -260097
-1 -1;
#X obj 676 212 bng 12 250 50 0 empty empty load_tom 17 7 0 10 -260097
-1 -1;
#X obj 792 216 bng 12 250 50 0 empty empty load_tom 17 7 0 10 -260097
-1 -1;
#X obj 913 216 bng 12 250 50 0 empty empty load_tom 17 7 0 10 -260097
-1 -1;
#N canvas 313 88 759 533 load_random_tom 0;
#X obj 116 153 folder_list;
#X obj 116 180 t a b;
#X obj 222 212 counter;
#X floatatom 222 239 5 0 0 0 - - -;
#X msg 222 183 set 1;
#X obj 130 383 msgfile;
#X obj 207 262 int;
#X msg 107 208 add \$1;
#X obj 116 125 t a b b;
#X msg 73 126 clear;
#X obj 165 286 random;
#X obj 99 -2 inlet;
#X msg 192 336 goto \$1;
#X msg 155 337 this;
#X obj 165 311 t b a;
#X msg 184 383 print;
#X obj 104 425 print;
#X obj 165 262 t b b;
#X obj 116 85 route symbol bang;
#X obj 104 27 bng 15 250 50 0 empty empty empty 17 7 0 10 -262144 -1
-1;
#X obj 170 424 outlet;
#X text 260 240 <-- number of files;
#X text 189 408 <-- outputs random filename;
#X text 227 85 <-- sorts bangs (output) from symbols (set);
#X text -14 0 force random -->;
#X text 226 383 <-- check what's loaded;
#X text 4 424 for testing -->;
#X msg 142 38 symbol /home/joel/Samples/Sorted/toms/*.wav;
#X connect 0 0 1 0;
#X connect 1 0 7 0;
#X connect 1 1 2 0;
#X connect 2 0 3 0;
#X connect 3 0 6 1;
#X connect 4 0 2 0;
#X connect 5 0 16 0;
#X connect 5 0 20 0;
#X connect 6 0 10 1;
#X connect 7 0 5 0;
#X connect 8 0 0 0;
#X connect 8 1 4 0;
#X connect 8 2 9 0;
#X connect 9 0 5 0;
#X connect 10 0 14 0;
#X connect 11 0 19 0;
#X connect 12 0 5 0;
#X connect 13 0 5 0;
#X connect 14 0 13 0;
#X connect 14 1 12 0;
#X connect 15 0 5 0;
#X connect 17 0 10 0;
#X connect 17 1 6 0;
#X connect 18 0 8 0;
#X connect 18 1 17 0;
#X connect 19 0 18 0;
#X connect 19 0 27 0;
#X connect 27 0 18 0;
#X restore 1036 -337 pd load_random_tom;
#X obj -427 -62 / 100;
#X obj -428 -36 clip 0 1;
#X floatatom -428 -12 5 0 0 0 - - -;
#X obj -365 -66 / 100;
#X obj -366 -40 clip 0 1;
#X floatatom -366 -16 5 0 0 0 - - -;
#X obj -424 20 bng 15 250 50 0 empty empty empty 17 7 0 10 -262144
-1 -1;
#X obj -369 25 bng 15 250 50 0 empty empty empty 17 7 0 10 -262144
-1 -1;
#X obj -291 -59 / 100;
#X obj -292 -33 clip 0 1;
#X floatatom -292 -9 5 0 0 0 - - -;
#X obj -295 32 bng 15 250 50 0 empty empty empty 17 7 0 10 -262144
-1 -1;
#X obj -226 -59 / 100;
#X obj -227 -33 clip 0 1;
#X floatatom -227 -9 5 0 0 0 - - -;
#X obj -230 32 bng 15 250 50 0 empty empty empty 17 7 0 10 -262144
-1 -1;
#X obj -134 -120 / 100;
#X obj -135 -94 clip 0 1;
#X floatatom -135 -70 5 0 0 0 - - -;
#X obj -138 -29 bng 15 250 50 0 empty empty empty 17 7 0 10 -262144
-1 -1;
#X obj -77 -115 / 100;
#X obj -78 -89 clip 0 1;
#X floatatom -78 -65 5 0 0 0 - - -;
#X obj -81 -24 bng 15 250 50 0 empty empty empty 17 7 0 10 -262144
-1 -1;
#X obj -12 -123 / 100;
#X obj -10 -85 clip 0 1;
#X floatatom -10 -57 5 0 0 0 - - -;
#X obj -7 -21 bng 15 250 50 0 empty empty empty 17 7 0 10 -262144 -1
-1;
#X obj 72 -177 inlet;
#X obj 62 -121 / 100;
#X obj 64 -83 clip 0 1;
#X floatatom 64 -55 5 0 0 0 - - -;
#X obj 67 -19 bng 15 250 50 0 empty empty empty 17 7 0 10 -262144 -1
-1;
#X connect 5 0 14 0;
#X connect 6 0 34 0;
#X connect 7 0 30 1;
#X connect 14 0 22 0;
#X connect 15 0 30 0;
#X connect 16 0 31 0;
#X connect 17 0 32 0;
#X connect 22 0 13 0;
#X connect 22 0 145 0;
#X connect 23 0 24 0;
#X connect 24 0 13 0;
#X connect 24 0 146 0;
#X connect 25 0 26 0;
#X connect 26 0 13 0;
#X connect 26 0 147 0;
#X connect 27 0 28 0;
#X connect 28 0 13 0;
#X connect 28 0 148 0;
#X connect 29 0 33 0;
#X connect 30 0 0 0;
#X connect 31 0 3 0;
#X connect 32 0 2 0;
#X connect 33 0 4 0;
#X connect 34 0 15 0;
#X connect 35 0 16 0;
#X connect 36 0 17 0;
#X connect 37 0 29 0;
#X connect 39 0 22 0;
#X connect 40 0 24 0;
#X connect 41 0 26 0;
#X connect 42 0 28 0;
#X connect 43 0 39 0;
#X connect 44 0 48 0;
#X connect 45 0 49 0;
#X connect 46 0 51 0;
#X connect 47 0 24 0;
#X connect 48 0 22 0;
#X connect 49 0 22 0;
#X connect 50 0 24 0;
#X connect 51 0 22 0;
#X connect 52 0 24 0;
#X connect 53 0 26 0;
#X connect 54 0 26 0;
#X connect 55 0 26 0;
#X connect 56 0 28 0;
#X connect 57 0 28 0;
#X connect 58 0 28 0;
#X connect 63 0 214 0;
#X connect 64 0 217 0;
#X connect 65 0 222 0;
#X connect 66 0 226 0;
#X connect 67 0 230 0;
#X connect 68 0 234 0;
#X connect 69 0 238 0;
#X connect 70 0 23 0;
#X connect 71 0 35 0;
#X connect 72 0 31 1;
#X connect 73 0 25 0;
#X connect 74 0 36 0;
#X connect 75 0 32 1;
#X connect 76 0 27 0;
#X connect 77 0 37 0;
#X connect 78 0 33 1;
#X connect 79 0 118 0;
#X connect 80 0 103 0;
#X connect 81 0 99 1;
#X connect 82 0 125 0;
#X connect 83 0 104 0;
#X connect 84 0 100 1;
#X connect 85 0 132 0;
#X connect 86 0 105 0;
#X connect 87 0 101 1;
#X connect 88 0 139 0;
#X connect 89 0 106 0;
#X connect 90 0 102 1;
#X connect 99 0 95 0;
#X connect 100 0 97 0;
#X connect 101 0 96 0;
#X connect 102 0 98 0;
#X connect 103 0 107 0;
#X connect 104 0 108 0;
#X connect 105 0 109 0;
#X connect 106 0 110 0;
#X connect 107 0 99 0;
#X connect 108 0 100 0;
#X connect 109 0 101 0;
#X connect 110 0 102 0;
#X connect 118 0 124 0;
#X connect 119 0 124 0;
#X connect 120 0 124 0;
#X connect 121 0 124 0;
#X connect 122 0 124 0;
#X connect 124 0 13 0;
#X connect 124 0 149 0;
#X connect 125 0 131 0;
#X connect 126 0 131 0;
#X connect 127 0 131 0;
#X connect 128 0 131 0;
#X connect 129 0 131 0;
#X connect 131 0 13 0;
#X connect 131 0 150 0;
#X connect 132 0 138 0;
#X connect 133 0 138 0;
#X connect 134 0 138 0;
#X connect 135 0 138 0;
#X connect 136 0 138 0;
#X connect 138 0 13 0;
#X connect 138 0 151 0;
#X connect 139 0 144 0;
#X connect 140 0 144 0;
#X connect 141 0 144 0;
#X connect 142 0 144 0;
#X connect 143 0 144 0;
#X connect 144 0 13 0;
#X connect 144 0 152 0;
#X connect 145 0 6 0;
#X connect 146 0 71 0;
#X connect 147 0 74 0;
#X connect 148 0 77 0;
#X connect 149 0 80 0;
#X connect 150 0 83 0;
#X connect 151 0 86 0;
#X connect 152 0 89 0;
#X connect 153 0 154 0;
#X connect 154 0 22 0;
#X connect 156 0 24 0;
#X connect 157 0 26 0;
#X connect 158 0 28 0;
#X connect 159 0 124 0;
#X connect 160 0 47 0;
#X connect 161 0 40 0;
#X connect 162 0 50 0;
#X connect 163 0 52 0;
#X connect 164 0 156 0;
#X connect 165 0 54 0;
#X connect 166 0 53 0;
#X connect 167 0 41 0;
#X connect 168 0 55 0;
#X connect 169 0 157 0;
#X connect 170 0 58 0;
#X connect 171 0 57 0;
#X connect 172 0 56 0;
#X connect 173 0 42 0;
#X connect 174 0 158 0;
#X connect 175 0 120 0;
#X connect 176 0 119 0;
#X connect 177 0 121 0;
#X connect 178 0 122 0;
#X connect 179 0 159 0;
#X connect 180 0 127 0;
#X connect 181 0 126 0;
#X connect 182 0 128 0;
#X connect 183 0 129 0;
#X connect 184 0 195 0;
#X connect 185 0 134 0;
#X connect 186 0 133 0;
#X connect 187 0 135 0;
#X connect 188 0 136 0;
#X connect 189 0 196 0;
#X connect 190 0 141 0;
#X connect 191 0 140 0;
#X connect 192 0 142 0;
#X connect 193 0 143 0;
#X connect 194 0 197 0;
#X connect 195 0 131 0;
#X connect 196 0 138 0;
#X connect 197 0 144 0;
#X connect 198 0 22 0;
#X connect 199 0 198 0;
#X connect 200 0 201 0;
#X connect 201 0 24 0;
#X connect 202 0 26 0;
#X connect 203 0 124 0;
#X connect 204 0 131 0;
#X connect 205 0 138 0;
#X connect 206 0 144 0;
#X connect 207 0 202 0;
#X connect 208 0 213 0;
#X connect 209 0 203 0;
#X connect 210 0 204 0;
#X connect 211 0 205 0;
#X connect 212 0 206 0;
#X connect 213 0 28 0;
#X connect 214 0 215 0;
#X connect 215 0 216 0;
#X connect 216 0 220 0;
#X connect 216 0 7 0;
#X connect 217 0 218 0;
#X connect 218 0 219 0;
#X connect 219 0 221 0;
#X connect 219 0 72 0;
#X connect 220 0 6 0;
#X connect 221 0 71 0;
#X connect 222 0 223 0;
#X connect 223 0 224 0;
#X connect 224 0 225 0;
#X connect 224 0 75 0;
#X connect 225 0 74 0;
#X connect 226 0 227 0;
#X connect 227 0 228 0;
#X connect 228 0 229 0;
#X connect 228 0 78 0;
#X connect 229 0 77 0;
#X connect 230 0 231 0;
#X connect 231 0 232 0;
#X connect 232 0 233 0;
#X connect 232 0 81 0;
#X connect 233 0 80 0;
#X connect 234 0 235 0;
#X connect 235 0 236 0;
#X connect 236 0 237 0;
#X connect 236 0 84 0;
#X connect 237 0 83 0;
#X connect 238 0 239 0;
#X connect 239 0 240 0;
#X connect 240 0 241 0;
#X connect 240 0 87 0;
#X connect 241 0 86 0;
#X connect 242 0 243 0;
#X connect 243 0 244 0;
#X connect 244 0 245 0;
#X connect 245 0 246 0;
#X connect 245 0 90 0;
#X connect 246 0 89 0;
#X coords 0 -1 1 1 920 140 1 100 100;
#X restore -731 127 pd abeat;
#X obj -273 307 dac~ 1 2 3 4 5 6 7 8 9 10 11 12 13 14 15 16;
#N canvas 146 305 1366 611 milleniumtrig 0;
#X obj 100 100 cnv 15 430 120 empty empty empty 20 12 0 14 -159809
-66577 0;
#X obj 802 103 notein;
#X floatatom 802 138 5 0 0 0 - - -;
#X floatatom 1006 120 5 0 0 0 - - -;
#X floatatom 1089 120 5 0 0 0 - - -;
#X obj 731 209 == 40;
#X obj 731 233 route 1;
#X obj 731 256 bng 15 250 50 0 empty empty empty 17 7 0 10 -262144
-1 -1;
#X obj 781 232 route 1;
#X obj 781 255 bng 15 250 50 0 empty empty empty 17 7 0 10 -262144
-1 -1;
#X obj 781 208 == 43;
#X obj 830 232 route 1;
#X obj 830 255 bng 15 250 50 0 empty empty empty 17 7 0 10 -262144
-1 -1;
#X obj 830 208 == 46;
#X obj 881 232 route 1;
#X obj 881 255 bng 15 250 50 0 empty empty empty 17 7 0 10 -262144
-1 -1;
#X obj 881 208 == 50;
#X obj 934 232 route 1;
#X obj 934 255 bng 15 250 50 0 empty empty empty 17 7 0 10 -262144
-1 -1;
#X obj 934 208 == 47;
#X obj 986 233 route 1;
#X obj 986 256 bng 15 250 50 0 empty empty empty 17 7 0 10 -262144
-1 -1;
#X obj 986 209 == 49;
#X obj 1036 234 route 1;
#X obj 1036 257 bng 15 250 50 0 empty empty empty 17 7 0 10 -262144
-1 -1;
#X obj 1036 210 == 51;
#X obj 734 524 outlet;
#X obj 779 524 outlet;
#X obj 825 524 outlet;
#X obj 870 524 outlet;
#X obj 915 524 outlet;
#X obj 960 524 outlet;
#X obj 1006 524 outlet;
#X obj 1051 524 outlet;
#X obj 734 410 random;
#X obj 734 435 +;
#X floatatom 734 459 5 0 0 0 - - -;
#X floatatom 105 179 3 0 128 1 +max - -;
#X floatatom 105 197 3 0 128 1 base - -;
#X text 108 160 A;
#X floatatom 157 179 3 0 128 1 +max - -;
#X floatatom 157 197 3 0 128 1 base - -;
#X text 160 160 B;
#X floatatom 210 179 3 0 128 1 +max - -;
#X floatatom 210 197 3 0 128 1 base - -;
#X floatatom 262 179 3 0 128 1 +max - -;
#X floatatom 262 197 3 0 128 1 base - -;
#X text 213 160 C;
#X text 265 160 D;
#X floatatom 315 179 3 0 128 1 +max - -;
#X floatatom 315 197 3 0 128 1 base - -;
#X text 318 160 A;
#X floatatom 367 179 3 0 128 1 +max - -;
#X floatatom 367 197 3 0 128 1 base - -;
#X text 370 160 B;
#X floatatom 420 179 3 0 128 1 +max - -;
#X floatatom 420 197 3 0 128 1 base - -;
#X floatatom 472 179 3 0 128 1 +max - -;
#X floatatom 472 197 3 0 128 1 base - -;
#X text 423 160 C;
#X text 475 160 D;
#X text 234 103 Millenium Drum Triggers;
#X obj 778 410 random;
#X obj 778 435 +;
#X floatatom 778 459 5 0 0 0 - - -;
#X obj 821 410 random;
#X obj 821 435 +;
#X floatatom 821 459 5 0 0 0 - - -;
#X obj 865 410 random;
#X obj 865 435 +;
#X floatatom 865 459 5 0 0 0 - - -;
#X obj 907 410 random;
#X obj 907 435 +;
#X floatatom 907 459 5 0 0 0 - - -;
#X obj 951 410 random;
#X obj 951 435 +;
#X floatatom 951 459 5 0 0 0 - - -;
#X obj 994 410 random;
#X obj 994 435 +;
#X floatatom 994 459 5 0 0 0 - - -;
#X obj 1038 410 random;
#X obj 1038 435 +;
#X floatatom 1038 459 5 0 0 0 - - -;
#X msg -1 180 70;
#X msg -1 162 40;
#X obj 6 28 loadbang;
#X obj 1094 235 route 1;
#X obj 1094 258 bng 15 250 50 0 empty empty empty 17 7 0 10 -262144
-1 -1;
#X obj 1094 211 == 51;
#X obj 676 234 route 1;
#X obj 676 257 bng 15 250 50 0 empty empty empty 17 7 0 10 -262144
-1 -1;
#X obj 677 210 == 35;
#X connect 1 0 2 0;
#X connect 1 1 3 0;
#X connect 1 2 4 0;
#X connect 2 0 5 0;
#X connect 2 0 10 0;
#X connect 2 0 13 0;
#X connect 2 0 16 0;
#X connect 2 0 19 0;
#X connect 2 0 22 0;
#X connect 2 0 25 0;
#X connect 2 0 91 0;
#X connect 5 0 6 0;
#X connect 6 0 7 0;
#X connect 7 0 62 0;
#X connect 8 0 9 0;
#X connect 9 0 68 0;
#X connect 10 0 8 0;
#X connect 11 0 12 0;
#X connect 12 0 65 0;
#X connect 13 0 11 0;
#X connect 14 0 15 0;
#X connect 15 0 71 0;
#X connect 16 0 14 0;
#X connect 17 0 18 0;
#X connect 18 0 74 0;
#X connect 19 0 17 0;
#X connect 20 0 21 0;
#X connect 21 0 77 0;
#X connect 22 0 20 0;
#X connect 23 0 24 0;
#X connect 24 0 80 0;
#X connect 25 0 23 0;
#X connect 34 0 35 0;
#X connect 35 0 36 0;
#X connect 36 0 26 0;
#X connect 37 0 34 1;
#X connect 38 0 35 1;
#X connect 40 0 62 1;
#X connect 41 0 63 1;
#X connect 43 0 65 1;
#X connect 44 0 66 1;
#X connect 45 0 68 1;
#X connect 46 0 69 1;
#X connect 49 0 71 1;
#X connect 50 0 72 1;
#X connect 52 0 74 1;
#X connect 53 0 75 1;
#X connect 55 0 77 1;
#X connect 56 0 78 1;
#X connect 57 0 80 1;
#X connect 58 0 81 1;
#X connect 62 0 63 0;
#X connect 63 0 64 0;
#X connect 64 0 27 0;
#X connect 65 0 66 0;
#X connect 66 0 67 0;
#X connect 67 0 28 0;
#X connect 68 0 69 0;
#X connect 69 0 70 0;
#X connect 70 0 29 0;
#X connect 71 0 72 0;
#X connect 72 0 73 0;
#X connect 73 0 30 0;
#X connect 74 0 75 0;
#X connect 75 0 76 0;
#X connect 76 0 31 0;
#X connect 77 0 78 0;
#X connect 78 0 79 0;
#X connect 79 0 32 0;
#X connect 80 0 81 0;
#X connect 81 0 82 0;
#X connect 82 0 33 0;
#X connect 83 0 38 0;
#X connect 83 0 41 0;
#X connect 83 0 44 0;
#X connect 83 0 46 0;
#X connect 83 0 50 0;
#X connect 83 0 53 0;
#X connect 83 0 56 0;
#X connect 83 0 58 0;
#X connect 84 0 37 0;
#X connect 84 0 40 0;
#X connect 84 0 43 0;
#X connect 84 0 45 0;
#X connect 84 0 49 0;
#X connect 84 0 52 0;
#X connect 84 0 55 0;
#X connect 84 0 57 0;
#X connect 85 0 84 0;
#X connect 85 0 83 0;
#X connect 86 0 87 0;
#X connect 88 0 86 0;
#X connect 89 0 90 0;
#X connect 90 0 34 0;
#X connect 91 0 89 0;
#X coords 0 -1 1 1 430 123 1 100 100;
#X restore -731 4 pd milleniumtrig;
#X connect 0 0 1 0;
#X connect 0 1 1 1;
#X connect 0 2 1 2;
#X connect 0 3 1 3;
#X connect 0 4 1 4;
#X connect 0 5 1 5;
#X connect 0 6 1 6;
#X connect 0 7 1 7;
#X connect 2 0 0 0;
#X connect 2 1 0 1;
#X connect 2 2 0 2;
#X connect 2 3 0 3;
#X connect 2 4 0 4;
#X connect 2 5 0 5;
#X connect 2 6 0 6;
#X connect 2 7 0 7;
