#N canvas 162 184 394 568 10;
#N canvas 0 83 1680 967 arabmain 0;
#X obj 101 100 cnv 15 380 540 empty empty empty 20 12 0 14 -185355
-66577 0;
#X obj 105 104 vradio 15 1 0 2 empty empty empty 0 -8 0 10 -156364
-1 -1 1;
#X obj -565 -102 route 0 1 2;
#X obj -651 108 arraycopy tuning;
#N canvas 0 0 450 300 (subpatch) 0;
#X array scaler 9 float 3;
#A 0 0 2 4 7 11 13 15 17 20;
#X coords 0 0 9 24 100 20 1 0 0;
#X restore 250 231 graph;
#N canvas 1 89 450 300 (subpatch) 0;
#X array tuning 24 float 3;
#A 0 1 1.0535 1.06667 1.11111 1.125 1.18519 1.2 1.25 1.26562 1.33333
1.35 1.40625 1.44444 1.5 1.58025 1.6 1.66667 1.6875 1.77778 1.8 1.875
1.89844 1.88889 1.94118;
#X coords 0 2 24 1 100 20 1 0 0;
#X restore 356 231 graph;
#X obj -456 138 s tuning_notes;
#X obj -230 -70 loadbang;
#X obj 105 137 vradio 15 1 0 5 empty empty empty 0 -8 0 10 -156364
-1 -1 1;
#X text 122 149 DIATONIC;
#X floatatom -41 -259 5 0 0 0 - - -;
#X obj 33 -95 s scale_notes;
#X obj 50 -179 bng 15 250 50 0 empty empty empty 17 7 0 10 -262144
-1 -1;
#X obj 77 -180 bng 15 250 50 0 empty empty empty 17 7 0 10 -262144
-1 -1;
#X msg 49 -149 7;
#X msg 81 -148 12;
#X floatatom 33 -115 5 0 0 0 - - -;
#X text 122 134 PENTATONIC;
#X obj 20 -177 bng 15 250 50 0 empty empty empty 17 7 0 10 -262144
-1 -1;
#X msg 19 -147 5;
#X msg 172 -157 22;
#X msg 218 -160 24;
#X text 121 164 CHROMATIC (12);
#X text 122 179 Enneatonic (9);
#X obj 109 -177 bng 15 250 50 0 empty empty empty 17 7 0 10 -262144
-1 -1;
#X msg 268 -161 9;
#X msg 126 -154 17;
#X msg -202 -34 1;
#X floatatom -456 113 5 0 0 0 - - -;
#X obj 777 -45 unpack f f f f f f f f f;
#X msg 1031 55 0;
#X msg 1031 74 1;
#X msg 1031 93 2;
#X msg 1031 112 3;
#X msg 1031 131 4;
#X msg 1030 150 5;
#X msg 1031 169 6;
#X obj 927 57 tabwrite scaler;
#X obj 927 76 tabwrite scaler;
#X obj 929 95 tabwrite scaler;
#X obj 929 114 tabwrite scaler;
#X obj 927 133 tabwrite scaler;
#X obj 929 152 tabwrite scaler;
#X obj 931 171 tabwrite scaler;
#X obj 932 191 tabwrite scaler;
#X obj 934 210 tabwrite scaler;
#X msg 1033 189 7;
#X msg 1034 208 8;
#X obj 357 278 vradio 11 1 0 22 empty empty empty 0 -8 0 10 -180940
-1 -1 0;
#X obj 368 278 vradio 11 1 0 22 empty empty empty 0 -8 0 10 -160466
-1 -1 0;
#X obj 379 278 vradio 11 1 0 22 empty empty empty 0 -8 0 10 -180940
-1 -1 0;
#X obj 390 278 vradio 11 1 0 22 empty empty empty 0 -8 0 10 -160466
-1 -1 0;
#X obj 401 278 vradio 11 1 0 22 empty empty empty 0 -8 0 10 -180940
-1 -1 0;
#X obj 417 278 vradio 11 1 0 22 empty empty empty 0 -8 0 10 -160466
-1 -1 0;
#X obj 428 278 vradio 11 1 0 22 empty empty empty 0 -8 0 10 -180940
-1 -1 0;
#X obj 444 278 vradio 11 1 0 22 empty empty empty 0 -8 0 10 -160466
-1 -1 0;
#X obj 455 278 vradio 11 1 0 22 empty empty empty 0 -8 0 10 -180940
-1 -1 0;
#X obj 105 266 hradio 17 1 0 8 empty empty empty 0 -8 0 10 -160460
-1 -1 7;
#X floatatom 106 223 3 0 0 1 basetone - -;
#X msg -230 -34 440;
#X msg 499 -25 12;
#X obj 117 247 bng 15 250 50 0 empty empty empty 17 7 0 10 -156364
-1 -1;
#X obj 257 757 s basetone;
#X obj -206 499 tabread tuning;
#X obj -20 178 bng 15 250 50 0 empty empty empty 17 7 0 10 -262144
-1 -1;
#X floatatom 244 609 5 0 0 0 - - -;
#N canvas 0 0 450 300 (subpatch) 0;
#X array octaves 9 float 1;
#A 0 0.0625 0.125 0.25 0.5 1 2 4 8 17;
#X coords 0 32 8 -1 100 32 1;
#X restore 772 -572 graph;
#N canvas 0 0 450 300 (subpatch) 0;
#X array dbtorms 123 float 1;
#A 0 0 0 1.25893e-05 1.41254e-05 1.58489e-05 1.77828e-05 1.99526e-05
2.23872e-05 2.51189e-05 2.81838e-05 3.16228e-05 3.54813e-05 3.98107e-05
4.46684e-05 5.01187e-05 5.62341e-05 6.30957e-05 7.07946e-05 7.94328e-05
8.91251e-05 0.0001 0.000112202 0.000125893 0.000141254 0.000158489
0.000177828 0.000199526 0.000223872 0.000251189 0.000281838 0.000316228
0.000354813 0.000398107 0.000446684 0.000501187 0.000562341 0.000630957
0.000707946 0.000794328 0.000891251 0.001 0.00112202 0.00125893 0.00141254
0.00158489 0.00177828 0.00199526 0.00223872 0.00251189 0.00281838 0.00316228
0.00354813 0.00398107 0.00446684 0.00501187 0.00562341 0.00630957 0.00707946
0.00794328 0.00891251 0.01 0.0112202 0.0125893 0.0141254 0.0158489
0.0177828 0.0199526 0.0223872 0.0251189 0.0281838 0.0316228 0.0354813
0.0398107 0.0446684 0.0501187 0.0562341 0.0630957 0.0707946 0.0794328
0.0891251 0.1 0.112202 0.125893 0.141254 0.158489 0.177828 0.199526
0.223872 0.251189 0.281838 0.316228 0.354813 0.398107 0.446684 0.501187
0.562341 0.630957 0.707946 0.794328 0.891251 1 1.12202 1.25893 1.41254
1.58489 1.77828 1.99526 2.23872 2.51189 2.81838 3.16228 3.54813 3.98107
4.46684 5.01187 5.62341 6.30957 7.07946 7.94328 8.91251 10 11.2202
12.5893;
#X coords 0 10 123 0 200 100 1;
#X restore 788 -505 graph;
#N canvas 0 0 450 300 (subpatch) 0;
#X array vibrato 131 float 1;
#A 0 0.970031 1 0.970031 0.881921 0.740952 0.555571 0.336891 0.0980184
-0.146729 -0.382682 -0.595698 -0.773009 -0.88 -0.9 -0.92 -0.92 -0.85773
-0.707109 -0.514106 -0.290288 -0.0490716 0.195086 0.427551 0.63439
0.803205 0.86 0.88 0.88 0.88 0.84 0.82 0.471402 0.242986 6.63397e-06
-0.242974 -0.471391 -0.671554 -0.831465 -0.941541 -0.995184 -0.989178
-0.923883 -0.803213 -0.68 -0.42 -0.24 0.1 0.4 0.6 0.7071 0.857723 0.956937
0.998795 0.980787 0.903994 0.773018 0.595708 0.382694 0.146742 -0.0980052
-0.336878 -0.55556 -0.7 -0.8 -0.88 -0.88 -0.88 -0.84 -0.82 -0.555582
-0.336903 -0.0980316 0.146716 0.38267 0.595687 0.773001 0.903983 0.980782
0.998796 0.956945 0.857737 0.707119 0.514117 0.290301 0.0490849 -0.195073
-0.427539 -0.63438 -0.803197 -0.923873 -0.989174 -0.995187 -0.94155
-0.83148 -0.671573 -0.471414 -0.242999 -1.99019e-05 0.242961 0.471379
0.671544 0.831458 0.88 0.9 0.9 0.88 0.803221 0.63441 0.08 -0.14 -0.28
-0.48 -0.64 -0.72 -0.857717 -0.956933 -0.998794 -0.98079 -0.904 -0.773026
-0.595719 -0.382706 -0.146755 0.097992 0.336866 0.555549 0.740934 0.881909
0.970025 1 0.970038;
#X coords 0 1 130 -1 200 100 1 0 0;
#X restore 572 -510 graph;
#X obj 224 284 vradio 17 1 0 15 empty empty empty 0 -8 0 10 -160466
-1 -1 0;
#X obj 207 284 vradio 17 1 0 15 empty empty empty 0 -8 0 10 -180940
-1 -1 0;
#X obj 190 284 vradio 17 1 0 15 empty empty empty 0 -8 0 10 -160466
-1 -1 0;
#X obj 173 284 vradio 17 1 0 15 empty empty empty 0 -8 0 10 -180940
-1 -1 0;
#X obj 156 284 vradio 17 1 0 15 empty empty empty 0 -8 0 10 -160466
-1 -1 0;
#X obj 139 284 vradio 17 1 0 15 empty empty empty 0 -8 0 10 -180940
-1 -1 0;
#X obj 122 284 vradio 17 1 0 15 empty empty empty 0 -8 0 10 -160466
-1 -1 0;
#X obj 105 284 vradio 17 1 0 15 empty empty empty 0 -8 0 10 -180940
-1 -1 0;
#X obj -206 86 r metro;
#X obj -206 109 bng 15 250 50 0 empty empty empty 17 7 0 10 -262144
-1 -1;
#X obj 122 542 vradio 17 1 0 5 empty empty empty 0 -8 0 10 -180940
-1 -1 0;
#X obj 105 542 vradio 17 1 0 5 empty empty empty 0 -8 0 10 -160466
-1 -1 0;
#X obj 156 542 vradio 17 1 0 5 empty empty empty 0 -8 0 10 -180940
-1 -1 0;
#X obj 139 542 vradio 17 1 0 5 empty empty empty 0 -8 0 10 -160466
-1 -1 0;
#X obj 190 542 vradio 17 1 0 5 empty empty empty 0 -8 0 10 -180940
-1 -1 0;
#X obj 173 542 vradio 17 1 0 5 empty empty empty 0 -8 0 10 -160466
-1 -1 0;
#X obj 224 542 vradio 17 1 0 5 empty empty empty 0 -8 0 10 -180940
-1 -1 0;
#X obj 207 542 vradio 17 1 0 5 empty empty empty 0 -8 0 10 -160466
-1 -1 0;
#X obj -497 648 bng 15 250 50 0 empty empty empty 17 7 0 10 -262144
-1 -1;
#X obj -465 639 bng 15 250 50 0 empty empty empty 17 7 0 10 -262144
-1 -1;
#X obj -449 639 bng 15 250 50 0 empty empty empty 17 7 0 10 -262144
-1 -1;
#X obj -434 639 bng 15 250 50 0 empty empty empty 17 7 0 10 -262144
-1 -1;
#X obj -417 639 bng 15 250 50 0 empty empty empty 17 7 0 10 -262144
-1 -1;
#X obj -399 642 bng 15 250 50 0 empty empty empty 17 7 0 10 -262144
-1 -1;
#X obj -366 629 bng 15 250 50 0 empty empty empty 17 7 0 10 -262144
-1 -1;
#X obj -387 637 bng 15 250 50 0 empty empty empty 17 7 0 10 -262144
-1 -1;
#X obj -360 657 bng 15 250 50 0 empty empty empty 17 7 0 10 -262144
-1 -1;
#X obj -341 654 bng 15 250 50 0 empty empty empty 17 7 0 10 -262144
-1 -1;
#X obj -324 673 bng 15 250 50 0 empty empty empty 17 7 0 10 -262144
-1 -1;
#X obj -297 670 bng 15 250 50 0 empty empty empty 17 7 0 10 -262144
-1 -1;
#X obj -285 642 bng 15 250 50 0 empty empty empty 17 7 0 10 -262144
-1 -1;
#X obj -265 659 bng 15 250 50 0 empty empty empty 17 7 0 10 -262144
-1 -1;
#X obj -244 648 bng 15 250 50 0 empty empty empty 17 7 0 10 -262144
-1 -1;
#X floatatom -463 588 5 0 0 0 - - -;
#X floatatom -206 308 5 0 0 0 - - -;
#X obj -206 152 int;
#X obj -180 152 + 1;
#X obj -206 286 mod 8;
#X obj -213 647 bng 15 250 50 0 empty empty empty 17 7 0 10 -262144
-1 -1;
#X obj -463 611 route 0 1 2 3 4 5 6 7 8 9 10 11 12 13 14 15;
#N canvas 0 0 450 300 (subpatch) 0;
#X array modmatrix 8 float 3;
#A 0 2 2 2 2 2 2 2 2;
#X coords 0 15 8 0 200 140 1 0 0;
#X restore 436 954 graph;
#N canvas 0 0 450 300 (subpatch) 0;
#X array keymatrix 8 float 3;
#A 0 7 7 7 7 7 7 7 7;
#X coords 0 15 8 0 200 140 1 0 0;
#X restore -64 752 graph;
#X obj -586 971 tabwrite keymatrix;
#X floatatom -586 955 5 0 0 0 - - -;
#X msg -471 971 0;
#X obj -584 1007 tabwrite keymatrix;
#X floatatom -584 991 5 0 0 0 - - -;
#X msg -469 1007 1;
#X obj -583 1045 tabwrite keymatrix;
#X floatatom -583 1029 5 0 0 0 - - -;
#X msg -468 1045 2;
#X obj -583 1080 tabwrite keymatrix;
#X floatatom -583 1064 5 0 0 0 - - -;
#X msg -468 1080 3;
#X obj -442 972 tabwrite keymatrix;
#X floatatom -442 956 5 0 0 0 - - -;
#X obj -440 1008 tabwrite keymatrix;
#X floatatom -440 992 5 0 0 0 - - -;
#X obj -439 1046 tabwrite keymatrix;
#X floatatom -439 1030 5 0 0 0 - - -;
#X obj -439 1081 tabwrite keymatrix;
#X floatatom -439 1065 5 0 0 0 - - -;
#X msg -327 972 4;
#X msg -325 1008 5;
#X msg -324 1046 6;
#X msg -324 1081 7;
#X floatatom -294 954 5 0 0 0 - - -;
#X msg -179 970 0;
#X floatatom -292 990 5 0 0 0 - - -;
#X msg -177 1006 1;
#X floatatom -291 1028 5 0 0 0 - - -;
#X msg -176 1044 2;
#X floatatom -291 1063 5 0 0 0 - - -;
#X msg -176 1079 3;
#X floatatom -150 955 5 0 0 0 - - -;
#X floatatom -148 991 5 0 0 0 - - -;
#X floatatom -147 1029 5 0 0 0 - - -;
#X floatatom -147 1064 5 0 0 0 - - -;
#X msg -35 971 4;
#X msg -33 1007 5;
#X msg -32 1045 6;
#X msg -32 1080 7;
#X obj -294 970 tabwrite modmatrix;
#X obj -292 1006 tabwrite modmatrix;
#X obj -291 1044 tabwrite modmatrix;
#X obj -291 1079 tabwrite modmatrix;
#X obj -150 971 tabwrite modmatrix;
#X obj -148 1007 tabwrite modmatrix;
#X obj -147 1045 tabwrite modmatrix;
#X obj -147 1080 tabwrite modmatrix;
#X obj -206 374 tabread modmatrix;
#X obj -462 565 tabread keymatrix;
#X floatatom -206 416 5 0 0 0 - - -;
#X obj -206 395 - 2;
#X floatatom -158 423 5 0 0 0 - - -;
#X floatatom 244 574 5 0 7 0 - - -;
#X obj -206 439 +;
#X floatatom -206 460 5 0 0 0 - - -;
#X obj -206 523 *;
#X obj -206 177 mod;
#X floatatom 135 246 5 8 64 1 step_length - -;
#X obj -206 199 == 0;
#X obj -206 261 int;
#X obj -180 261 + 1;
#X obj -206 220 route 1;
#X obj -206 242 bng 15 250 50 0 empty empty empty 17 7 0 10 -262144
-1 -1;
#X obj 245 554 tgl 15 0 empty empty on 17 7 0 10 -180940 -1 -1 0 1
;
#X msg -172 -37 16;
#X obj 281 611 bng 15 250 50 0 empty empty 440 17 7 0 10 -262144 -1
-1;
#X text 245 589 Result;
#X msg 264 664 440;
#X floatatom 870 681 5 0 0 0 - - -;
#X floatatom 904 681 5 0 0 0 - - -;
#X floatatom 938 681 5 0 0 0 - - -;
#X floatatom 972 681 5 0 0 0 - - -;
#X floatatom 1006 681 5 0 0 0 - - -;
#X floatatom 1040 681 5 0 0 0 - - -;
#X floatatom 1074 682 5 0 0 0 - - -;
#X msg 578 -75 list 0 4 7 8 11 13 15;
#X obj 247 265 tgl 15 0 empty empty on 17 7 0 10 -156364 -1 -1 0 1
;
#X obj -206 352 spigot;
#X obj -462 536 spigot;
#X msg -135 -38 0;
#X msg 578 -52 list 0 2 6 9 11 14 16;
#X msg 578 -30 list 0 1 4 9 12 14 16;
#X msg 577 -7 list 0 4 5 7 11 14 15;
#X obj 416 845 bng 15 250 50 0 empty empty empty 17 7 0 10 -262144
-1 -1;
#X obj 417 760 mod;
#X floatatom 453 751 5 0 0 0 - - -;
#X obj 415 801 == 0;
#X obj 415 825 route 1;
#X floatatom 386 549 5 0 0 1 cube_mod - -;
#X obj 213 869 vradio 17 1 0 15 empty empty empty 0 -8 0 10 -31308
-1 -1 0;
#X obj 592 921 s beatstyle;
#X obj 580 715 mod;
#X obj 582 790 bng 15 250 50 0 empty empty empty 17 7 0 10 -262144
-1 -1;
#X obj 581 746 == 0;
#X obj 581 770 route 1;
#X obj 583 816 random 2;
#X floatatom 592 848 5 0 0 0 - - -;
#X floatatom 387 529 2 4 64 1 beatstylemod - -;
#X floatatom 387 569 5 0 0 1 mode_mod - -;
#X obj 719 716 mod;
#X obj 721 791 bng 15 250 50 0 empty empty empty 17 7 0 10 -262144
-1 -1;
#X obj 720 747 == 0;
#X obj 720 771 route 1;
#X obj 722 817 random 4;
#X obj 723 844 route 0 1 2 3 4;
#X msg 841 406 list 0 4 6 9 13 15 19;
#X msg 840 387 list 0 4 7 9 13 16 20;
#X msg 838 324 list 0 2 7 9 13 15 20;
#X msg 840 366 list 0 2 6 9 13 15 19;
#X msg 841 446 list 0 4 6 9 13 16 19;
#X msg 842 489 list 0 4 7 11 13 16 20;
#X msg 843 510 list 0 4 7 9 13 16 19;
#X msg 842 468 list 0 2 7 11 13 15 20;
#X msg 839 344 list 0 2 6 11 13 15 19;
#X obj 245 353 bng 15 250 50 0 empty empty Asawari 17 7 0 10 -215873
-1 -1;
#X obj 245 336 bng 15 250 50 0 empty empty Bilawal 17 7 0 10 -214721
-1 -1;
#X obj 244 285 bng 15 250 50 0 empty empty Bhairav 17 7 0 10 -213249
-1 -1;
#X obj 245 319 bng 15 250 50 0 empty empty Bhairavi 17 7 0 10 -214145
-1 -1;
#X obj 245 387 bng 15 250 50 0 empty empty Kafi 17 7 0 10 -34679 -1
-1;
#X obj 245 421 bng 15 250 50 0 empty empty Kalyan 17 7 0 10 -132124
-1 -1;
#X obj 245 438 bng 15 250 50 0 empty empty Khamaj 17 7 0 10 -86043
-1 -1;
#X obj 245 404 bng 15 250 50 0 empty empty Purvi 17 7 0 10 -62640 -1
-1;
#X obj 244 302 bng 15 250 50 0 empty empty Todi 17 7 0 10 -213633 -1
-1;
#X obj 245 370 bng 15 250 50 0 empty empty Marwa 17 7 0 10 -35127 -1
-1;
#X msg 841 426 list 0 2 7 11 13 16 20;
#X obj 1073 444 bng 15 250 50 0 empty empty empty 17 7 0 10 -262144
-1 -1;
#X obj 245 455 bng 15 250 50 0 empty empty siisti_k-aasia 17 7 0 10
-161344 -1 -1;
#X obj 245 472 bng 15 250 50 0 empty empty siisti_k-aasia2 17 7 0 10
-159808 -1 -1;
#X obj 1230 487 bng 15 250 50 0 empty empty empty 17 7 0 10 -262144
-1 -1;
#X obj 1235 446 bng 15 250 50 0 empty empty empty 17 7 0 10 -262144
-1 -1;
#X obj 245 489 bng 15 250 50 0 empty empty siisti_intia3 17 7 0 10
-260097 -1 -1;
#X obj 1232 529 bng 15 250 50 0 empty empty empty 17 7 0 10 -262144
-1 -1;
#X obj 245 506 bng 15 250 50 0 empty empty thai4 17 7 0 10 -4032 -1
-1;
#X obj 305 895 bng 15 250 50 0 empty empty jotain-- 17 7 0 10 -262144
-1 -1;
#X obj 1082 521 bng 15 250 50 0 empty empty empty 17 7 0 10 -262144
-1 -1;
#X obj 1073 402 bng 15 250 50 0 empty empty empty 17 7 0 10 -262144
-1 -1;
#X obj 305 912 bng 15 250 50 0 empty empty jotain--2 17 7 0 10 -262144
-1 -1;
#X obj 1231 403 bng 15 250 50 0 empty empty empty 17 7 0 10 -262144
-1 -1;
#X obj 305 929 bng 15 250 50 0 empty empty jannaaa 17 7 0 10 -86853
-1 -1;
#X obj 1075 483 bng 15 250 50 0 empty empty empty 17 7 0 10 -262144
-1 -1;
#X obj 244 523 bng 15 250 50 0 empty empty jatsahvaindo 17 7 0 10 -86853
-1 -1;
#X obj 1074 423 list 0 4 7 11 14 16 19;
#X obj 1073 464 list 0 3 7 11 14 17 20;
#X msg 1075 501 list 0 3 6 9 13 15 19;
#X obj 1083 540 list 0 4 6 11 13 16 19;
#X obj 1231 423 list 0 3 6 9 12 17 20;
#X obj 1232 549 list 0 3 7 9 13 16 19;
#X obj 1229 505 list 0 5 8 10 13 15 18;
#X obj 1234 464 list 0 4 6 10 14 16 20;
#X msg 1086 565 list 0 2 5 10 14 17 19;
#X obj 223 924 bng 15 250 50 0 empty empty empty 17 7 0 10 -262144
-1 -1;
#X obj -206 479 mod 22;
#N canvas 0 0 450 300 (subpatch) 0;
#X array Shruti 22 float 3;
#A 0 1 1.0535 1.06667 1.11111 1.125 1.18519 1.2 1.25 1.26562 1.33333
1.35 1.40625 1.44444 1.5 1.58025 1.6 1.66667 1.6875 1.77778 1.8 1.875
1.89844;
#X coords 0 2 22 1 200 40 1;
#X restore 95 -536 graph;
#X msg -467 20 22;
#X msg -551 -15 copy Shruti;
#X text 123 195 Chromatic (22);
#X obj 33 -226 route 0 1 2 3 4;
#X obj 143 -186 bng 15 250 50 0 empty empty empty 17 7 0 10 -262144
-1 -1;
#X text 121 103 22 Shruti JI;
#X obj 316 -185 r change_distrocube;
#X obj 416 865 s change_distrocube;
#X obj -466 382 random 5;
#X obj 344 599 tgl 15 0 empty empty tempochangerand 17 7 0 10 -260097
-1 -1 0 1;
#X obj -485 340 spigot;
#X obj -535 257 r tempo_change;
#X floatatom 371 614 2 0 22 0 +max - -;
#X obj 345 157 image om.gif;
#X connect 1 0 2 0;
#X connect 2 0 266 0;
#X connect 7 0 27 0;
#X connect 7 0 59 0;
#X connect 7 0 60 0;
#X connect 7 0 176 0;
#X connect 7 0 191 0;
#X connect 8 0 10 0;
#X connect 10 0 268 0;
#X connect 12 0 14 0;
#X connect 13 0 15 0;
#X connect 14 0 16 0;
#X connect 15 0 16 0;
#X connect 16 0 11 0;
#X connect 18 0 19 0;
#X connect 19 0 16 0;
#X connect 20 0 16 0;
#X connect 21 0 16 0;
#X connect 24 0 25 0;
#X connect 25 0 16 0;
#X connect 26 0 16 0;
#X connect 27 0 1 0;
#X connect 27 0 8 0;
#X connect 28 0 6 0;
#X connect 29 0 48 0;
#X connect 29 1 49 0;
#X connect 29 2 50 0;
#X connect 29 3 51 0;
#X connect 29 4 52 0;
#X connect 29 5 53 0;
#X connect 29 6 54 0;
#X connect 29 7 55 0;
#X connect 29 8 56 0;
#X connect 30 0 37 1;
#X connect 31 0 38 1;
#X connect 32 0 39 1;
#X connect 33 0 40 1;
#X connect 34 0 41 1;
#X connect 35 0 42 1;
#X connect 36 0 43 1;
#X connect 46 0 44 1;
#X connect 47 0 45 1;
#X connect 48 0 37 0;
#X connect 48 0 30 0;
#X connect 48 0 180 0;
#X connect 49 0 38 0;
#X connect 49 0 31 0;
#X connect 49 0 181 0;
#X connect 50 0 39 0;
#X connect 50 0 32 0;
#X connect 50 0 182 0;
#X connect 51 0 40 0;
#X connect 51 0 33 0;
#X connect 51 0 183 0;
#X connect 52 0 41 0;
#X connect 52 0 34 0;
#X connect 52 0 184 0;
#X connect 53 0 42 0;
#X connect 53 0 35 0;
#X connect 53 0 185 0;
#X connect 54 0 43 0;
#X connect 54 0 36 0;
#X connect 54 0 186 0;
#X connect 55 0 44 0;
#X connect 55 0 46 0;
#X connect 56 0 45 0;
#X connect 56 0 47 0;
#X connect 57 0 64 0;
#X connect 58 0 167 1;
#X connect 59 0 58 0;
#X connect 60 0 57 0;
#X connect 61 0 60 0;
#X connect 63 0 167 0;
#X connect 64 0 58 0;
#X connect 65 0 62 0;
#X connect 69 0 130 0;
#X connect 70 0 128 0;
#X connect 71 0 126 0;
#X connect 72 0 124 0;
#X connect 73 0 121 0;
#X connect 74 0 118 0;
#X connect 75 0 115 0;
#X connect 76 0 112 0;
#X connect 77 0 78 0;
#X connect 78 0 104 0;
#X connect 79 0 137 0;
#X connect 80 0 135 0;
#X connect 81 0 141 0;
#X connect 82 0 139 0;
#X connect 83 0 144 0;
#X connect 84 0 143 0;
#X connect 85 0 146 0;
#X connect 86 0 145 0;
#X connect 87 0 228 0;
#X connect 88 0 234 0;
#X connect 89 0 229 0;
#X connect 91 0 227 0;
#X connect 92 0 226 0;
#X connect 93 0 235 0;
#X connect 94 0 230 0;
#X connect 95 0 233 0;
#X connect 96 0 231 0;
#X connect 97 0 232 0;
#X connect 98 0 238 0;
#X connect 99 0 239 0;
#X connect 100 0 242 0;
#X connect 101 0 244 0;
#X connect 102 0 108 0;
#X connect 103 0 57 0;
#X connect 103 0 190 0;
#X connect 103 0 189 0;
#X connect 104 0 105 0;
#X connect 104 0 168 0;
#X connect 104 0 196 0;
#X connect 104 0 203 0;
#X connect 104 0 211 0;
#X connect 105 0 104 1;
#X connect 106 0 103 0;
#X connect 107 0 252 0;
#X connect 108 0 87 0;
#X connect 108 1 88 0;
#X connect 108 2 89 0;
#X connect 108 3 90 0;
#X connect 108 4 91 0;
#X connect 108 5 92 0;
#X connect 108 6 93 0;
#X connect 108 7 94 0;
#X connect 108 8 95 0;
#X connect 108 9 96 0;
#X connect 108 10 97 0;
#X connect 108 11 98 0;
#X connect 108 12 99 0;
#X connect 108 13 100 0;
#X connect 108 14 101 0;
#X connect 108 15 107 0;
#X connect 112 0 111 0;
#X connect 112 0 113 0;
#X connect 113 0 111 1;
#X connect 115 0 114 0;
#X connect 115 0 116 0;
#X connect 116 0 114 1;
#X connect 118 0 117 0;
#X connect 118 0 119 0;
#X connect 119 0 117 1;
#X connect 121 0 120 0;
#X connect 121 0 122 0;
#X connect 122 0 120 1;
#X connect 124 0 123 0;
#X connect 124 0 131 0;
#X connect 126 0 125 0;
#X connect 126 0 132 0;
#X connect 128 0 127 0;
#X connect 128 0 133 0;
#X connect 130 0 129 0;
#X connect 130 0 134 0;
#X connect 131 0 123 1;
#X connect 132 0 125 1;
#X connect 133 0 127 1;
#X connect 134 0 129 1;
#X connect 135 0 136 0;
#X connect 135 0 151 0;
#X connect 136 0 151 1;
#X connect 137 0 138 0;
#X connect 137 0 152 0;
#X connect 138 0 152 1;
#X connect 139 0 140 0;
#X connect 139 0 153 0;
#X connect 140 0 153 1;
#X connect 141 0 142 0;
#X connect 141 0 154 0;
#X connect 142 0 154 1;
#X connect 143 0 147 0;
#X connect 143 0 155 0;
#X connect 144 0 148 0;
#X connect 144 0 156 0;
#X connect 145 0 149 0;
#X connect 145 0 157 0;
#X connect 146 0 150 0;
#X connect 146 0 158 0;
#X connect 147 0 155 1;
#X connect 148 0 156 1;
#X connect 149 0 157 1;
#X connect 150 0 158 1;
#X connect 159 0 162 0;
#X connect 160 0 102 0;
#X connect 161 0 165 0;
#X connect 162 0 161 0;
#X connect 163 0 165 1;
#X connect 164 0 163 0;
#X connect 165 0 166 0;
#X connect 166 0 263 0;
#X connect 167 0 65 0;
#X connect 168 0 170 0;
#X connect 169 0 168 1;
#X connect 170 0 173 0;
#X connect 171 0 172 0;
#X connect 171 0 106 0;
#X connect 172 0 171 1;
#X connect 173 0 174 0;
#X connect 174 0 171 0;
#X connect 175 0 189 1;
#X connect 176 0 169 0;
#X connect 177 0 179 0;
#X connect 179 0 65 0;
#X connect 187 0 29 0;
#X connect 188 0 190 1;
#X connect 189 0 159 0;
#X connect 190 0 160 0;
#X connect 191 0 188 0;
#X connect 191 0 175 0;
#X connect 192 0 29 0;
#X connect 193 0 29 0;
#X connect 194 0 29 0;
#X connect 195 0 272 0;
#X connect 196 0 198 0;
#X connect 197 0 196 1;
#X connect 198 0 199 0;
#X connect 199 0 195 0;
#X connect 200 0 197 0;
#X connect 203 0 205 0;
#X connect 204 0 207 0;
#X connect 205 0 206 0;
#X connect 206 0 204 0;
#X connect 207 0 208 0;
#X connect 208 0 202 0;
#X connect 209 0 203 1;
#X connect 210 0 211 1;
#X connect 211 0 213 0;
#X connect 212 0 215 0;
#X connect 213 0 214 0;
#X connect 214 0 212 0;
#X connect 215 0 216 0;
#X connect 217 0 29 0;
#X connect 218 0 29 0;
#X connect 219 0 29 0;
#X connect 220 0 29 0;
#X connect 221 0 29 0;
#X connect 222 0 29 0;
#X connect 223 0 29 0;
#X connect 224 0 29 0;
#X connect 225 0 29 0;
#X connect 226 0 217 0;
#X connect 227 0 218 0;
#X connect 228 0 219 0;
#X connect 229 0 220 0;
#X connect 230 0 221 0;
#X connect 231 0 222 0;
#X connect 232 0 223 0;
#X connect 233 0 224 0;
#X connect 234 0 225 0;
#X connect 235 0 236 0;
#X connect 236 0 29 0;
#X connect 237 0 254 0;
#X connect 238 0 237 0;
#X connect 239 0 240 0;
#X connect 240 0 259 0;
#X connect 241 0 260 0;
#X connect 242 0 241 0;
#X connect 243 0 258 0;
#X connect 244 0 243 0;
#X connect 245 0 246 0;
#X connect 246 0 256 0;
#X connect 247 0 253 0;
#X connect 248 0 247 0;
#X connect 249 0 257 0;
#X connect 250 0 249 0;
#X connect 251 0 255 0;
#X connect 252 0 251 0;
#X connect 253 0 29 0;
#X connect 254 0 29 0;
#X connect 255 0 29 0;
#X connect 256 0 29 0;
#X connect 257 0 29 0;
#X connect 258 0 29 0;
#X connect 259 0 29 0;
#X connect 260 0 29 0;
#X connect 261 0 29 0;
#X connect 262 0 261 0;
#X connect 263 0 63 0;
#X connect 265 0 28 0;
#X connect 266 0 3 0;
#X connect 266 0 265 0;
#X connect 268 0 18 0;
#X connect 268 1 12 0;
#X connect 268 2 13 0;
#X connect 268 3 24 0;
#X connect 268 4 269 0;
#X connect 269 0 20 0;
#X connect 273 0 63 0;
#X connect 274 0 275 1;
#X connect 275 0 273 0;
#X connect 276 0 275 0;
#X connect 277 0 273 1;
#X coords 0 -1 1 1 380 540 1 100 100;
#X restore -410 -671 pd arabmain;
