#N canvas 211 386 394 403 10;
#N canvas 0 83 1680 967 arabmain 0;
#X obj 101 100 cnv 15 380 380 empty empty empty 20 12 0 14 -241665
-66577 0;
#X obj 108 107 vradio 15 1 0 5 empty empty empty 0 -8 0 10 -219856
-1 -1 1;
#X obj -620 212 arraycopy tuning;
#N canvas 0 0 450 300 (subpatch) 0;
#X array scaler 5 float 3;
#A 0 0 2 3 4 5;
#X coords 0 0 5 24 100 20 1 0 0;
#X restore 359 178 graph;
#N canvas 1 89 450 300 (subpatch) 0;
#X array tuning 8 float 3;
#A 0 1 1.11021 1.22335 1.3566 1.49917 1.66248 1.83083 1.80876;
#X coords 0 2 8 1 100 20 1 0 0;
#X restore 361 221 graph;
#X obj -400 193 s tuning_notes;
#X obj -113 -70 loadbang;
#X obj 33 -95 s scale_notes;
#X msg 33 -117 5;
#X msg -85 -34 1;
#X floatatom -400 168 5 0 0 0 - - -;
#X msg 1164 581 0;
#X msg 1164 601 1;
#X msg 1164 619 2;
#X msg 1164 638 3;
#X msg 1164 657 4;
#X obj 1060 583 tabwrite scaler;
#X obj 1060 602 tabwrite scaler;
#X obj 1062 621 tabwrite scaler;
#X obj 1062 640 tabwrite scaler;
#X obj 1060 659 tabwrite scaler;
#X obj 370 252 vradio 15 1 0 8 empty empty empty 0 -8 0 10 -232012
-1 -1 0;
#X obj 107 364 hradio 17 1 0 8 empty empty empty 0 -8 0 10 -1807 -1
-1 7;
#X floatatom 106 213 3 0 0 1 basetone - -;
#X msg -113 -34 440;
#X msg -25 -17 12;
#X obj 119 345 bng 15 250 50 0 empty empty empty 17 7 0 10 -2632 -1
-1;
#X obj 175 926 s basetone;
#X obj -206 499 tabread tuning;
#X obj -20 178 bng 15 250 50 0 empty empty empty 17 7 0 10 -262144
-1 -1;
#X floatatom 248 448 5 0 0 0 - - -;
#N canvas 0 0 450 300 (subpatch) 0;
#X array octaves 9 float 1;
#A 0 0.0625 0.125 0.25 0.5 1 2 4 8 17;
#X coords 0 32 8 -1 100 32 1;
#X restore 426 -497 graph;
#N canvas 0 0 450 300 (subpatch) 0;
#X array dbtorms 123 float 1;
#A 0 0 0 1.25893e-05 1.41254e-05 1.58489e-05 1.77828e-05 1.99526e-05
2.23872e-05 2.51189e-05 2.81838e-05 3.16228e-05 3.54813e-05 3.98107e-05
4.46684e-05 5.01187e-05 5.62341e-05 6.30957e-05 7.07946e-05 7.94328e-05
8.91251e-05 0.0001 0.000112202 0.000125893 0.000141254 0.000158489
0.000177828 0.000199526 0.000223872 0.000251189 0.000281838 0.000316228
0.000354813 0.000398107 0.000446684 0.000501187 0.000562341 0.000630957
0.000707946 0.000794328 0.000891251 0.001 0.00112202 0.00125893 0.00141254
0.00158489 0.00177828 0.00199526 0.00223872 0.00251189 0.00281838 0.00316228
0.00354813 0.00398107 0.00446684 0.00501187 0.00562341 0.00630957 0.00707946
0.00794328 0.00891251 0.01 0.0112202 0.0125893 0.0141254 0.0158489
0.0177828 0.0199526 0.0223872 0.0251189 0.0281838 0.0316228 0.0354813
0.0398107 0.0446684 0.0501187 0.0562341 0.0630957 0.0707946 0.0794328
0.0891251 0.1 0.112202 0.125893 0.141254 0.158489 0.177828 0.199526
0.223872 0.251189 0.281838 0.316228 0.354813 0.398107 0.446684 0.501187
0.562341 0.630957 0.707946 0.794328 0.891251 1 1.12202 1.25893 1.41254
1.58489 1.77828 1.99526 2.23872 2.51189 2.81838 3.16228 3.54813 3.98107
4.46684 5.01187 5.62341 6.30957 7.07946 7.94328 8.91251 10 11.2202
12.5893;
#X coords 0 10 123 0 200 100 1;
#X restore 788 -505 graph;
#N canvas 0 0 450 300 (subpatch) 0;
#X array vibrato 131 float 1;
#A 0 0.970031 1 0.970031 0.881921 0.740952 0.555571 0.336891 0.0980184
-0.146729 -0.382682 -0.595698 -0.773009 -0.88 -0.9 -0.92 -0.92 -0.85773
-0.707109 -0.514106 -0.290288 -0.0490716 0.195086 0.427551 0.63439
0.803205 0.86 0.88 0.88 0.88 0.84 0.82 0.471402 0.242986 6.63397e-06
-0.242974 -0.471391 -0.671554 -0.831465 -0.941541 -0.995184 -0.989178
-0.923883 -0.803213 -0.68 -0.42 -0.24 0.1 0.4 0.6 0.7071 0.857723 0.956937
0.998795 0.980787 0.903994 0.773018 0.595708 0.382694 0.146742 -0.0980052
-0.336878 -0.55556 -0.7 -0.8 -0.88 -0.88 -0.88 -0.84 -0.82 -0.555582
-0.336903 -0.0980316 0.146716 0.38267 0.595687 0.773001 0.903983 0.980782
0.998796 0.956945 0.857737 0.707119 0.514117 0.290301 0.0490849 -0.195073
-0.427539 -0.63438 -0.803197 -0.923873 -0.989174 -0.995187 -0.94155
-0.83148 -0.671573 -0.471414 -0.242999 -1.99019e-05 0.242961 0.471379
0.671544 0.831458 0.88 0.9 0.9 0.88 0.803221 0.63441 0.08 -0.14 -0.28
-0.48 -0.64 -0.72 -0.857717 -0.956933 -0.998794 -0.98079 -0.904 -0.773026
-0.595719 -0.382706 -0.146755 0.097992 0.336866 0.555549 0.740934 0.881909
0.970025 1 0.970038;
#X coords 0 1 130 -1 200 100 1 0 0;
#X restore 572 -510 graph;
#X obj -206 86 r metro;
#X obj -206 109 bng 15 250 50 0 empty empty empty 17 7 0 10 -262144
-1 -1;
#X obj 124 383 vradio 17 1 0 5 empty empty empty 0 -8 0 10 -30988 -1
-1 0;
#X obj 107 383 vradio 17 1 0 5 empty empty empty 0 -8 0 10 -31244 -1
-1 0;
#X obj 158 383 vradio 17 1 0 5 empty empty empty 0 -8 0 10 -30988 -1
-1 0;
#X obj 141 383 vradio 17 1 0 5 empty empty empty 0 -8 0 10 -31244 -1
-1 0;
#X obj 192 383 vradio 17 1 0 5 empty empty empty 0 -8 0 10 -30988 -1
-1 0;
#X obj 175 383 vradio 17 1 0 5 empty empty empty 0 -8 0 10 -31244 -1
-1 0;
#X obj 226 383 vradio 17 1 0 5 empty empty empty 0 -8 0 10 -30988 -1
-1 0;
#X obj 209 383 vradio 17 1 0 5 empty empty empty 0 -8 0 10 -31244 -1
-1 0;
#X floatatom -206 308 5 0 0 0 - - -;
#X obj -206 152 int;
#X obj -180 152 + 1;
#X obj -206 286 mod 8;
#N canvas 0 0 450 300 (subpatch) 0;
#X array modmatrix 8 float 3;
#A 0 2 2 2 2 2 2 2 2;
#X coords 0 15 8 0 200 140 1 0 0;
#X restore 845 894 graph;
#N canvas 0 0 450 300 (subpatch) 0;
#X array keymatrix 8 float 3;
#A 0 10 10 10 10 10 10 10 10;
#X coords 0 15 8 0 200 140 1 0 0;
#X restore 1048 893 graph;
#X obj -586 971 tabwrite keymatrix;
#X floatatom -586 955 5 0 0 0 - - -;
#X msg -471 971 0;
#X obj -584 1007 tabwrite keymatrix;
#X floatatom -584 991 5 0 0 0 - - -;
#X msg -469 1007 1;
#X obj -583 1045 tabwrite keymatrix;
#X floatatom -583 1029 5 0 0 0 - - -;
#X msg -468 1045 2;
#X obj -583 1080 tabwrite keymatrix;
#X floatatom -583 1064 5 0 0 0 - - -;
#X msg -468 1080 3;
#X obj -442 972 tabwrite keymatrix;
#X floatatom -442 956 5 0 0 0 - - -;
#X obj -440 1008 tabwrite keymatrix;
#X floatatom -440 992 5 0 0 0 - - -;
#X obj -439 1046 tabwrite keymatrix;
#X floatatom -439 1030 5 0 0 0 - - -;
#X obj -439 1081 tabwrite keymatrix;
#X floatatom -439 1065 5 0 0 0 - - -;
#X msg -327 972 4;
#X msg -325 1008 5;
#X msg -324 1046 6;
#X msg -324 1081 7;
#X floatatom -294 954 5 0 0 0 - - -;
#X msg -179 970 0;
#X floatatom -292 990 5 0 0 0 - - -;
#X msg -177 1006 1;
#X floatatom -291 1028 5 0 0 0 - - -;
#X msg -176 1044 2;
#X floatatom -291 1063 5 0 0 0 - - -;
#X msg -176 1079 3;
#X floatatom -150 955 5 0 0 0 - - -;
#X floatatom -148 991 5 0 0 0 - - -;
#X floatatom -147 1029 5 0 0 0 - - -;
#X floatatom -147 1064 5 0 0 0 - - -;
#X msg -35 971 4;
#X msg -33 1007 5;
#X msg -32 1045 6;
#X msg -32 1080 7;
#X obj -294 970 tabwrite modmatrix;
#X obj -292 1006 tabwrite modmatrix;
#X obj -291 1044 tabwrite modmatrix;
#X obj -291 1079 tabwrite modmatrix;
#X obj -150 971 tabwrite modmatrix;
#X obj -148 1007 tabwrite modmatrix;
#X obj -147 1045 tabwrite modmatrix;
#X obj -147 1080 tabwrite modmatrix;
#X obj -206 374 tabread modmatrix;
#X floatatom -206 416 5 0 0 0 - - -;
#X obj -206 395 - 2;
#X floatatom -158 423 5 0 0 0 - - -;
#X floatatom 246 415 5 0 7 0 - - -;
#X obj -206 439 +;
#X floatatom -206 460 5 0 0 0 - - -;
#X obj -206 523 *;
#X obj -206 177 mod;
#X floatatom 137 344 5 8 64 1 step_length - -;
#X obj -206 199 == 0;
#X obj -206 261 int;
#X obj -180 261 + 1;
#X obj -206 220 route 1;
#X obj -206 242 bng 15 250 50 0 empty empty empty 17 7 0 10 -262144
-1 -1;
#X obj -206 479 mod 24;
#X obj 247 392 tgl 15 0 empty empty on 17 7 0 10 -109256 -1 -1 0 1
;
#X msg -55 -37 16;
#X obj 282 448 bng 15 250 50 0 empty empty empty 17 7 0 10 -262144
-1 -1;
#X text 247 428 Result;
#X msg 238 825 440;
#X floatatom 593 737 5 0 0 0 - - -;
#X floatatom 627 737 5 0 0 0 - - -;
#X floatatom 661 737 5 0 0 0 - - -;
#X floatatom 695 737 5 0 0 0 - - -;
#X obj -206 352 spigot;
#X msg -18 -38 0;
#X obj 570 933 bng 15 250 50 0 empty empty empty 17 7 0 10 -262144
-1 -1;
#X obj 569 866 mod;
#X floatatom 607 839 5 0 0 0 - - -;
#X obj 569 889 == 0;
#X obj 569 913 route 1;
#X floatatom 137 323 5 0 0 1 cube_mod - -;
#N canvas 0 0 450 300 (subpatch) 0;
#X array Tet7 7 float 3;
#A 0 1 1.10409 1.21901 1.3459 1.48599 1.64067 1.81145;
#X coords 0 2 7 1 100 40 1;
#X restore -4 -586 graph;
#N canvas 0 0 450 300 (subpatch) 0;
#X array Patala 7 float 3;
#A 0 1 1.11021 1.22335 1.3566 1.49917 1.66248 1.83083;
#X coords 0 2 7 1 100 40 1;
#X restore 107 -585 graph;
#N canvas 0 0 450 300 (subpatch) 0;
#X array Kyiwaing1 7 float 3;
#A 0 1 1.10509 1.2283 1.34257 1.48538 1.63675 1.78798;
#X coords 0 2 7 1 100 40 1;
#X restore 104 -525 graph;
#N canvas 0 0 450 300 (subpatch) 0;
#X array Kyiwaing2 7 float 3;
#A 0 1 1.11406 1.22405 1.33407 1.48281 1.65195 1.81085;
#X coords 0 2 7 1 100 40 1;
#X restore 104 -465 graph;
#N canvas 106 187 450 300 (subpatch) 0;
#X array Vietnam 8 float 3;
#A 0 1 1.10765 1.2156 1.34102 1.49744 1.64528 1.67307 1.80876;
#X coords 0 2 8 1 100 40 1 0 0;
#X restore -120 -586 graph;
#X text 124 105 7TET;
#X text 124 119 Patala;
#X text 124 133 Kyiwaing 1;
#N canvas 0 0 450 300 (subpatch) 0;
#X array vietnamese 17 float 3;
#A 0 1 1.14286 1.16667 1.2 1.25 1.33333 1.37143 1.44 1.5 1.5625 1.66667
1.71429 1.75 1.8 1.83333 1.85714 1.875;
#X coords 0 2 17 1 200 40 1 0 0;
#X restore -115 -523 graph;
#X floatatom 729 737 5 0 0 0 - - -;
#X text 124 149 Kyiwaing 2;
#X text 124 165 Viet8;
#X obj -525 -174 route 0 1 2 3 4;
#X obj 385 252 vradio 15 1 0 8 empty empty empty 0 -8 0 10 -195148
-1 -1 0;
#X obj 400 252 vradio 15 1 0 8 empty empty empty 0 -8 0 10 -232012
-1 -1 0;
#X obj 415 252 vradio 15 1 0 8 empty empty empty 0 -8 0 10 -195148
-1 -1 0;
#X obj 430 252 vradio 15 1 0 8 empty empty empty 0 -8 0 10 -232012
-1 -1 0;
#X msg 713 189 list 0 2 4 5 6;
#X msg 713 211 list 0 1 3 5 6;
#X msg 713 232 list 0 1 3 4 6;
#X msg 712 253 list 0 1 2 4 5;
#X obj 396 402 bng 15 250 50 0 empty empty 1 17 7 0 10 -109357 -1 -1
;
#X obj 396 419 bng 15 250 50 0 empty empty 2 17 7 0 10 -117293 -1 -1
;
#X obj 396 436 bng 15 250 50 0 empty empty 3 17 7 0 10 -88685 -1 -1
;
#X obj 396 453 bng 15 250 50 0 empty empty 4 17 7 0 10 -92525 -1 -1
;
#X text 391 383 7-Tet Thai;
#X obj 313 400 bng 15 250 50 0 empty empty Bac 17 7 0 10 -196165 -1
-1;
#X obj 313 417 bng 15 250 50 0 empty empty Ho_Mai_Nhi 17 7 0 10 -195589
-1 -1;
#X obj 313 434 bng 15 250 50 0 empty empty Oan 17 7 0 10 -196165 -1
-1;
#X obj 313 451 bng 15 250 50 0 empty empty Vong_Co 17 7 0 10 -195589
-1 -1;
#X text 313 384 Vietnam;
#X msg 662 67 list 0 1 3 4 6;
#X msg 662 90 list 0 1 3 4 5;
#X msg 665 110 list 0 2 3 4 7;
#X msg 665 132 list 0 2 3 4 5;
#X text 424 413 Burma;
#X obj 426 430 bng 15 250 50 0 empty empty 1 17 7 0 10 -223552 -1 -1
;
#X obj 426 447 bng 15 250 50 0 empty empty 2 17 7 0 10 -223552 -1 -1
;
#X msg 713 274 list 0 2 3 5 6;
#X obj 549 -52 unpack f f f f f;
#X msg -401 117 7;
#X msg -362 115 8;
#X msg -605 -27 copy Tet7;
#X msg -530 -36 copy Patala;
#X msg -448 -31 copy Kyiwaing1;
#X msg -346 -29 copy Kyiwaing2;
#X msg -229 -31 copy Vietnam;
#X obj -58 -276 bng 15 250 50 0 empty empty empty 17 7 0 10 -262144
-1 -1;
#X obj 570 954 s change_distrocube;
#X obj 708 953 s change_cube;
#X obj 474 949 s change_1cube;
#X obj 292 239 image biker.gif;
#X connect 1 0 143 0;
#X connect 6 0 9 0;
#X connect 6 0 24 0;
#X connect 6 0 25 0;
#X connect 6 0 115 0;
#X connect 6 0 124 0;
#X connect 6 0 8 0;
#X connect 8 0 7 0;
#X connect 9 0 1 0;
#X connect 10 0 5 0;
#X connect 10 0 178 0;
#X connect 11 0 16 1;
#X connect 12 0 17 1;
#X connect 13 0 18 1;
#X connect 14 0 19 1;
#X connect 15 0 20 1;
#X connect 21 0 16 0;
#X connect 21 0 11 0;
#X connect 21 0 119 0;
#X connect 22 0 29 0;
#X connect 23 0 105 1;
#X connect 24 0 23 0;
#X connect 25 0 22 0;
#X connect 26 0 25 0;
#X connect 28 0 105 0;
#X connect 29 0 23 0;
#X connect 30 0 27 0;
#X connect 34 0 35 0;
#X connect 35 0 45 0;
#X connect 36 0 76 0;
#X connect 37 0 74 0;
#X connect 38 0 80 0;
#X connect 39 0 78 0;
#X connect 40 0 83 0;
#X connect 41 0 82 0;
#X connect 42 0 85 0;
#X connect 43 0 84 0;
#X connect 44 0 22 0;
#X connect 44 0 123 0;
#X connect 45 0 46 0;
#X connect 45 0 106 0;
#X connect 45 0 126 0;
#X connect 46 0 45 1;
#X connect 47 0 44 0;
#X connect 51 0 50 0;
#X connect 51 0 52 0;
#X connect 52 0 50 1;
#X connect 54 0 53 0;
#X connect 54 0 55 0;
#X connect 55 0 53 1;
#X connect 57 0 56 0;
#X connect 57 0 58 0;
#X connect 58 0 56 1;
#X connect 60 0 59 0;
#X connect 60 0 61 0;
#X connect 61 0 59 1;
#X connect 63 0 62 0;
#X connect 63 0 70 0;
#X connect 65 0 64 0;
#X connect 65 0 71 0;
#X connect 67 0 66 0;
#X connect 67 0 72 0;
#X connect 69 0 68 0;
#X connect 69 0 73 0;
#X connect 70 0 62 1;
#X connect 71 0 64 1;
#X connect 72 0 66 1;
#X connect 73 0 68 1;
#X connect 74 0 75 0;
#X connect 74 0 90 0;
#X connect 75 0 90 1;
#X connect 76 0 77 0;
#X connect 76 0 91 0;
#X connect 77 0 91 1;
#X connect 78 0 79 0;
#X connect 78 0 92 0;
#X connect 79 0 92 1;
#X connect 80 0 81 0;
#X connect 80 0 93 0;
#X connect 81 0 93 1;
#X connect 82 0 86 0;
#X connect 82 0 94 0;
#X connect 83 0 87 0;
#X connect 83 0 95 0;
#X connect 84 0 88 0;
#X connect 84 0 96 0;
#X connect 85 0 89 0;
#X connect 85 0 97 0;
#X connect 86 0 94 1;
#X connect 87 0 95 1;
#X connect 88 0 96 1;
#X connect 89 0 97 1;
#X connect 98 0 100 0;
#X connect 99 0 103 0;
#X connect 100 0 99 0;
#X connect 101 0 103 1;
#X connect 102 0 101 0;
#X connect 103 0 104 0;
#X connect 104 0 113 0;
#X connect 105 0 30 0;
#X connect 106 0 108 0;
#X connect 107 0 106 1;
#X connect 108 0 111 0;
#X connect 109 0 110 0;
#X connect 109 0 47 0;
#X connect 110 0 109 1;
#X connect 111 0 112 0;
#X connect 112 0 109 0;
#X connect 113 0 28 0;
#X connect 114 0 123 1;
#X connect 115 0 107 0;
#X connect 116 0 118 0;
#X connect 118 0 30 0;
#X connect 123 0 98 0;
#X connect 124 0 114 0;
#X connect 125 0 179 0;
#X connect 125 0 180 0;
#X connect 125 0 181 0;
#X connect 126 0 128 0;
#X connect 127 0 126 1;
#X connect 128 0 129 0;
#X connect 129 0 125 0;
#X connect 130 0 127 0;
#X connect 143 0 173 0;
#X connect 143 1 174 0;
#X connect 143 2 175 0;
#X connect 143 3 176 0;
#X connect 143 4 177 0;
#X connect 144 0 17 0;
#X connect 144 0 12 0;
#X connect 145 0 18 0;
#X connect 145 0 13 0;
#X connect 146 0 19 0;
#X connect 146 0 14 0;
#X connect 147 0 20 0;
#X connect 147 0 15 0;
#X connect 148 0 170 0;
#X connect 149 0 170 0;
#X connect 150 0 170 0;
#X connect 151 0 170 0;
#X connect 152 0 148 0;
#X connect 153 0 149 0;
#X connect 154 0 150 0;
#X connect 155 0 151 0;
#X connect 157 0 162 0;
#X connect 158 0 163 0;
#X connect 159 0 164 0;
#X connect 160 0 165 0;
#X connect 162 0 170 0;
#X connect 163 0 170 0;
#X connect 164 0 170 0;
#X connect 165 0 170 0;
#X connect 167 0 169 0;
#X connect 169 0 170 0;
#X connect 170 0 21 0;
#X connect 170 1 144 0;
#X connect 170 2 145 0;
#X connect 170 3 146 0;
#X connect 170 4 147 0;
#X connect 171 0 10 0;
#X connect 172 0 10 0;
#X connect 173 0 2 0;
#X connect 173 0 171 0;
#X connect 174 0 2 0;
#X connect 174 0 171 0;
#X connect 175 0 2 0;
#X connect 175 0 171 0;
#X connect 176 0 2 0;
#X connect 176 0 171 0;
#X connect 177 0 2 0;
#X connect 177 0 172 0;
#X connect 178 0 8 0;
#X coords 0 -1 1 1 380 380 1 100 100;
#X restore -410 -671 pd arabmain;
