#N canvas 110 128 394 568 10;
#N canvas 0 83 1680 967 arabmain 0;
#X obj 101 100 cnv 15 380 540 empty empty empty 20 12 0 14 -50772 -66577
0;
#X obj 105 104 vradio 15 1 0 3 empty empty empty 0 -8 0 10 -2768 -1
-1 1;
#X obj -651 108 arraycopy tuning;
#N canvas 0 0 450 300 (subpatch) 0;
#X array scaler 9 float 3;
#A 0 0 2 4 7 12 14 16 21 16;
#X coords 0 0 9 24 100 20 1 0 0;
#X restore 259 229 graph;
#N canvas 1 89 450 300 (subpatch) 0;
#X array tuning 24 float 3;
#A 0 1 1.03125 1.0625 1.09091 1.125 1.15789 1.1875 1.22222 1.26316
1.29412 1.33333 1.375 1.41667 1.45455 1.5 1.54545 1.58333 1.63636 1.68421
1.72727 1.77778 1.83333 1.88889 1.94118;
#X coords 0 2 24 1 100 20 1 0 0;
#X restore 365 229 graph;
#X msg -574 32 copy Gadwalji;
#X msg -569 61 copy Adwar;
#X msg -537 -43 copy Gadwal;
#X obj -456 138 s tuning_notes;
#X msg -474 56 17;
#X msg -467 20 24;
#X obj -230 -70 loadbang;
#X obj 105 156 vradio 15 1 0 5 empty empty empty 0 -8 0 10 -2768 -1
-1 1;
#X text 122 168 DIATONIC;
#X floatatom -41 -259 5 0 0 0 - - -;
#X obj 33 -95 s scale_notes;
#X obj 50 -179 bng 15 250 50 0 empty empty empty 17 7 0 10 -262144
-1 -1;
#X obj 159 -191 bng 15 250 50 0 empty empty empty 17 7 0 10 -262144
-1 -1;
#X msg 49 -149 7;
#X floatatom 33 -115 5 0 0 0 - - -;
#X text 122 153 PENTATONIC;
#X obj 20 -177 bng 15 250 50 0 empty empty empty 17 7 0 10 -262144
-1 -1;
#X msg 19 -147 5;
#X text 121 183 Enneatonic (9);
#X obj 86 -202 bng 15 250 50 0 empty empty empty 17 7 0 10 -262144
-1 -1;
#X msg 84 -154 9;
#X msg 126 -154 17;
#N canvas 0 0 450 300 (subpatch) 0;
#X array Gadwal 24 float 3;
#A 0 1 1.0293 1.05946 1.09051 1.12246 1.15535 1.18921 1.22405 1.25992
1.29684 1.33484 1.37395 1.41421 1.45565 1.49831 1.54221 1.5874 1.63392
1.68179 1.73107 1.7818 1.83401 1.88775 1.94306;
#X coords 0 2 24 1 200 40 1;
#X restore 772 -642 graph;
#N canvas 0 0 450 300 (subpatch) 0;
#X array Gadwalji 24 float 3;
#A 0 1 1.03125 1.0625 1.09091 1.125 1.15789 1.1875 1.22222 1.26316
1.29412 1.33333 1.375 1.41667 1.45455 1.5 1.54545 1.58333 1.63636 1.68421
1.72727 1.77778 1.83333 1.88889 1.94118;
#X coords 0 2 24 1 200 40 1 0 0;
#X restore 563 -642 graph;
#N canvas 0 0 450 300 (subpatch) 0;
#X array Adwar 17 float 3;
#A 0 1 1.0535 1.10986 1.125 1.18519 1.24859 1.26562 1.33333 1.40466
1.47981 1.5 1.58025 1.66479 1.6875 1.77778 1.87289 1.97308;
#X coords 0 2 17 1 200 40 1 0 0;
#X restore 564 -576 graph;
#X msg -202 -34 1;
#X floatatom -456 113 5 0 0 0 - - -;
#X obj 265 283 bng 15 250 50 0 empty empty Rast 17 7 0 10 -2824 -1
-1;
#X obj 264 385 bng 15 250 50 0 empty empty Hijaz 17 7 0 10 -2824 -1
-1;
#X obj 264 470 bng 15 250 50 0 empty empty Bayati 17 7 0 10 -2824 -1
-1;
#X obj 264 505 bng 15 250 50 0 empty empty Kurd 17 7 0 10 -2824 -1
-1;
#X obj 264 453 bng 15 250 50 0 empty empty Nahawand 17 7 0 10 -2824
-1 -1;
#X obj 264 317 bng 15 250 50 0 empty empty Huzam(sikah) 17 7 0 10 -2824
-1 -1;
#X obj 264 402 bng 15 250 50 0 empty empty Jiharkah 17 7 0 10 -2824
-1 -1;
#X obj 265 300 bng 15 250 50 0 empty empty Nawa_Athar 17 7 0 10 -2824
-1 -1;
#X obj 264 419 bng 15 250 50 0 empty empty Nakriz 17 7 0 10 -2824 -1
-1;
#X obj 264 368 bng 15 250 50 0 empty empty Ajam 17 7 0 10 -2824 -1
-1;
#X obj 264 351 bng 15 250 50 0 empty empty Mahur 17 7 0 10 -2824 -1
-1;
#X obj 264 436 bng 15 250 50 0 empty empty Hoseni 17 7 0 10 -2824 -1
-1;
#X obj 264 523 bng 15 250 50 0 empty empty Iraqi 17 7 0 10 -2824 -1
-1;
#X obj 264 487 bng 15 250 50 0 empty empty Nairuz 17 7 0 10 -2824 -1
-1;
#X obj 264 334 bng 15 250 50 0 empty empty Sabah 17 7 0 10 -2824 -1
-1;
#X msg 924 450 list 0 4 6 10 14 16 22;
#X msg 927 354 list 0 3 6 8 14 16 20;
#X msg 918 582 list 0 2 6 10 14 16 20;
#X msg 919 606 list 0 3 7 10 13 17 21;
#X msg 924 471 list 0 3 6 10 14 16 20;
#X msg 928 309 list 0 4 6 12 14 16 22;
#X msg 925 403 list 0 4 8 10 14 18 22;
#X msg 928 334 list 0 3 7 9 15 17 21;
#X msg 923 493 list 0 2 8 10 14 17 20;
#X msg 922 517 list 0 4 8 10 14 18 21;
#X msg 926 379 list 0 4 7 10 14 18 22;
#X msg 920 541 list 0 4 6 12 14 18 22;
#X msg 919 560 list 0 4 7 10 14 17 20;
#X msg 924 426 list 0 3 6 10 14 17 20;
#X msg 929 289 list 0 4 7 10 14 18 21;
#X obj 777 -45 unpack f f f f f f f f f;
#X msg 1031 55 0;
#X msg 1031 74 1;
#X msg 1031 93 2;
#X msg 1031 112 3;
#X msg 1031 131 4;
#X msg 1030 150 5;
#X msg 1031 169 6;
#X obj 927 57 tabwrite scaler;
#X obj 927 76 tabwrite scaler;
#X obj 929 95 tabwrite scaler;
#X obj 929 114 tabwrite scaler;
#X obj 927 133 tabwrite scaler;
#X obj 929 152 tabwrite scaler;
#X obj 931 171 tabwrite scaler;
#X obj 932 191 tabwrite scaler;
#X obj 934 210 tabwrite scaler;
#X msg 1033 189 7;
#X msg 1034 208 8;
#X obj 341 279 vradio 11 1 0 24 empty empty empty 0 -8 0 10 -2448 -1
-1 0;
#X obj 352 279 vradio 11 1 0 24 empty empty empty 0 -8 0 10 -2128 -1
-1 0;
#X obj 363 279 vradio 11 1 0 24 empty empty empty 0 -8 0 10 -2448 -1
-1 0;
#X obj 374 279 vradio 11 1 0 24 empty empty empty 0 -8 0 10 -2128 -1
-1 0;
#X obj 385 279 vradio 11 1 0 24 empty empty empty 0 -8 0 10 -2448 -1
-1 0;
#X obj 398 279 vradio 11 1 0 24 empty empty empty 0 -8 0 10 -2128 -1
-1 0;
#X obj 409 279 vradio 11 1 0 24 empty empty empty 0 -8 0 10 -2448 -1
-1 0;
#X obj 425 279 vradio 11 1 0 24 empty empty empty 0 -8 0 10 -2128 -1
-1 0;
#X obj 436 279 vradio 11 1 0 24 empty empty empty 0 -8 0 10 -2448 -1
-1 0;
#X obj 105 266 hradio 17 1 0 8 empty empty empty 0 -8 0 10 -1807 -1
-1 7;
#X floatatom 346 252 3 0 0 1 basetone - -;
#X msg -230 -34 440;
#X msg 499 -25 12;
#X obj 117 247 bng 15 250 50 0 empty empty empty 17 7 0 10 -2632 -1
-1;
#X text 336 545 17JI;
#X obj 325 588 bng 15 250 50 0 empty empty 2 17 7 0 10 -2562 -1 -1
;
#X obj 325 605 bng 15 250 50 0 empty empty 3 17 7 0 10 -1666 -1 -1
;
#X obj 325 571 bng 15 250 50 0 empty empty 1 17 7 0 10 -2946 -1 -1
;
#X obj 325 622 bng 15 250 50 0 empty empty 4 17 7 0 10 -1410 -1 -1
;
#X obj 257 757 s basetone;
#X obj -206 499 tabread tuning;
#X obj -20 178 bng 15 250 50 0 empty empty empty 17 7 0 10 -262144
-1 -1;
#X floatatom 244 600 5 0 0 0 - - -;
#N canvas 0 0 450 300 (subpatch) 0;
#X array octaves 9 float 1;
#A 0 0.0625 0.125 0.25 0.5 1 2 4 8 17;
#X coords 0 32 8 -1 100 32 1;
#X restore 772 -572 graph;
#N canvas 0 0 450 300 (subpatch) 0;
#X array dbtorms 123 float 1;
#A 0 0 0 1.25893e-05 1.41254e-05 1.58489e-05 1.77828e-05 1.99526e-05
2.23872e-05 2.51189e-05 2.81838e-05 3.16228e-05 3.54813e-05 3.98107e-05
4.46684e-05 5.01187e-05 5.62341e-05 6.30957e-05 7.07946e-05 7.94328e-05
8.91251e-05 0.0001 0.000112202 0.000125893 0.000141254 0.000158489
0.000177828 0.000199526 0.000223872 0.000251189 0.000281838 0.000316228
0.000354813 0.000398107 0.000446684 0.000501187 0.000562341 0.000630957
0.000707946 0.000794328 0.000891251 0.001 0.00112202 0.00125893 0.00141254
0.00158489 0.00177828 0.00199526 0.00223872 0.00251189 0.00281838 0.00316228
0.00354813 0.00398107 0.00446684 0.00501187 0.00562341 0.00630957 0.00707946
0.00794328 0.00891251 0.01 0.0112202 0.0125893 0.0141254 0.0158489
0.0177828 0.0199526 0.0223872 0.0251189 0.0281838 0.0316228 0.0354813
0.0398107 0.0446684 0.0501187 0.0562341 0.0630957 0.0707946 0.0794328
0.0891251 0.1 0.112202 0.125893 0.141254 0.158489 0.177828 0.199526
0.223872 0.251189 0.281838 0.316228 0.354813 0.398107 0.446684 0.501187
0.562341 0.630957 0.707946 0.794328 0.891251 1 1.12202 1.25893 1.41254
1.58489 1.77828 1.99526 2.23872 2.51189 2.81838 3.16228 3.54813 3.98107
4.46684 5.01187 5.62341 6.30957 7.07946 7.94328 8.91251 10 11.2202
12.5893;
#X coords 0 10 123 0 200 100 1;
#X restore 788 -505 graph;
#N canvas 0 0 450 300 (subpatch) 0;
#X array vibrato 131 float 1;
#A 0 0.970031 1 0.970031 0.881921 0.740952 0.555571 0.336891 0.0980184
-0.146729 -0.382682 -0.595698 -0.773009 -0.88 -0.9 -0.92 -0.92 -0.85773
-0.707109 -0.514106 -0.290288 -0.0490716 0.195086 0.427551 0.63439
0.803205 0.86 0.88 0.88 0.88 0.84 0.82 0.471402 0.242986 6.63397e-06
-0.242974 -0.471391 -0.671554 -0.831465 -0.941541 -0.995184 -0.989178
-0.923883 -0.803213 -0.68 -0.42 -0.24 0.1 0.4 0.6 0.7071 0.857723 0.956937
0.998795 0.980787 0.903994 0.773018 0.595708 0.382694 0.146742 -0.0980052
-0.336878 -0.55556 -0.7 -0.8 -0.88 -0.88 -0.88 -0.84 -0.82 -0.555582
-0.336903 -0.0980316 0.146716 0.38267 0.595687 0.773001 0.903983 0.980782
0.998796 0.956945 0.857737 0.707119 0.514117 0.290301 0.0490849 -0.195073
-0.427539 -0.63438 -0.803197 -0.923873 -0.989174 -0.995187 -0.94155
-0.83148 -0.671573 -0.471414 -0.242999 -1.99019e-05 0.242961 0.471379
0.671544 0.831458 0.88 0.9 0.9 0.88 0.803221 0.63441 0.08 -0.14 -0.28
-0.48 -0.64 -0.72 -0.857717 -0.956933 -0.998794 -0.98079 -0.904 -0.773026
-0.595719 -0.382706 -0.146755 0.097992 0.336866 0.555549 0.740934 0.881909
0.970025 1 0.970038;
#X coords 0 1 130 -1 200 100 1 0 0;
#X restore 572 -510 graph;
#X obj 224 284 vradio 17 1 0 15 empty empty empty 0 -8 0 10 -31308
-1 -1 0;
#X obj 207 284 vradio 17 1 0 15 empty empty empty 0 -8 0 10 -30988
-1 -1 0;
#X obj 190 284 vradio 17 1 0 15 empty empty empty 0 -8 0 10 -31308
-1 -1 0;
#X obj 173 284 vradio 17 1 0 15 empty empty empty 0 -8 0 10 -30988
-1 -1 0;
#X obj 156 284 vradio 17 1 0 15 empty empty empty 0 -8 0 10 -31308
-1 -1 0;
#X obj 139 284 vradio 17 1 0 15 empty empty empty 0 -8 0 10 -30988
-1 -1 0;
#X obj 122 284 vradio 17 1 0 15 empty empty empty 0 -8 0 10 -31308
-1 -1 0;
#X obj 105 284 vradio 17 1 0 15 empty empty empty 0 -8 0 10 -30988
-1 -1 0;
#X obj -206 86 r metro;
#X obj -206 109 bng 15 250 50 0 empty empty empty 17 7 0 10 -262144
-1 -1;
#X obj 122 542 vradio 17 1 0 5 empty empty empty 0 -8 0 10 -30988 -1
-1 0;
#X obj 105 542 vradio 17 1 0 5 empty empty empty 0 -8 0 10 -31244 -1
-1 0;
#X obj 156 542 vradio 17 1 0 5 empty empty empty 0 -8 0 10 -30988 -1
-1 0;
#X obj 139 542 vradio 17 1 0 5 empty empty empty 0 -8 0 10 -31244 -1
-1 0;
#X obj 190 542 vradio 17 1 0 5 empty empty empty 0 -8 0 10 -30988 -1
-1 0;
#X obj 173 542 vradio 17 1 0 5 empty empty empty 0 -8 0 10 -31244 -1
-1 0;
#X obj 224 542 vradio 17 1 0 5 empty empty empty 0 -8 0 10 -30988 -1
-1 0;
#X obj 207 542 vradio 17 1 0 5 empty empty empty 0 -8 0 10 -31244 -1
-1 0;
#X obj -481 638 bng 15 250 50 0 empty empty empty 17 7 0 10 -262144
-1 -1;
#X obj -465 639 bng 15 250 50 0 empty empty empty 17 7 0 10 -262144
-1 -1;
#X obj -449 639 bng 15 250 50 0 empty empty empty 17 7 0 10 -262144
-1 -1;
#X obj -434 639 bng 15 250 50 0 empty empty empty 17 7 0 10 -262144
-1 -1;
#X obj -417 639 bng 15 250 50 0 empty empty empty 17 7 0 10 -262144
-1 -1;
#X obj -401 640 bng 15 250 50 0 empty empty empty 17 7 0 10 -262144
-1 -1;
#X obj -384 638 bng 15 250 50 0 empty empty empty 17 7 0 10 -262144
-1 -1;
#X obj -371 639 bng 15 250 50 0 empty empty empty 17 7 0 10 -262144
-1 -1;
#X obj -354 639 bng 15 250 50 0 empty empty empty 17 7 0 10 -262144
-1 -1;
#X obj -339 639 bng 15 250 50 0 empty empty empty 17 7 0 10 -262144
-1 -1;
#X obj -323 639 bng 15 250 50 0 empty empty empty 17 7 0 10 -262144
-1 -1;
#X obj -308 639 bng 15 250 50 0 empty empty empty 17 7 0 10 -262144
-1 -1;
#X obj -291 639 bng 15 250 50 0 empty empty empty 17 7 0 10 -262144
-1 -1;
#X obj -276 639 bng 15 250 50 0 empty empty empty 17 7 0 10 -262144
-1 -1;
#X obj -260 639 bng 15 250 50 0 empty empty empty 17 7 0 10 -262144
-1 -1;
#X floatatom -463 588 5 0 0 0 - - -;
#X floatatom -206 308 5 0 0 0 - - -;
#X obj -206 152 int;
#X obj -180 152 + 1;
#X obj -206 286 mod 8;
#X obj -242 642 bng 15 250 50 0 empty empty empty 17 7 0 10 -262144
-1 -1;
#X obj -463 611 route 0 1 2 3 4 5 6 7 8 9 10 11 12 13 14 15;
#N canvas 0 0 450 300 (subpatch) 0;
#X array modmatrix 8 float 3;
#A 0 2 2 2 2 2 2 2 2;
#X coords 0 15 8 0 200 140 1 0 0;
#X restore 845 894 graph;
#N canvas 0 0 450 300 (subpatch) 0;
#X array keymatrix 8 float 3;
#A 0 5 10 0 0 0 10 10 10;
#X coords 0 15 8 0 200 140 1 0 0;
#X restore 1048 893 graph;
#X obj -586 971 tabwrite keymatrix;
#X floatatom -586 955 5 0 0 0 - - -;
#X msg -471 971 0;
#X obj -584 1007 tabwrite keymatrix;
#X floatatom -584 991 5 0 0 0 - - -;
#X msg -469 1007 1;
#X obj -583 1045 tabwrite keymatrix;
#X floatatom -583 1029 5 0 0 0 - - -;
#X msg -468 1045 2;
#X obj -583 1080 tabwrite keymatrix;
#X floatatom -583 1064 5 0 0 0 - - -;
#X msg -468 1080 3;
#X obj -442 972 tabwrite keymatrix;
#X floatatom -442 956 5 0 0 0 - - -;
#X obj -440 1008 tabwrite keymatrix;
#X floatatom -440 992 5 0 0 0 - - -;
#X obj -439 1046 tabwrite keymatrix;
#X floatatom -439 1030 5 0 0 0 - - -;
#X obj -439 1081 tabwrite keymatrix;
#X floatatom -439 1065 5 0 0 0 - - -;
#X msg -327 972 4;
#X msg -325 1008 5;
#X msg -324 1046 6;
#X msg -324 1081 7;
#X floatatom -294 954 5 0 0 0 - - -;
#X msg -179 970 0;
#X floatatom -292 990 5 0 0 0 - - -;
#X msg -177 1006 1;
#X floatatom -291 1028 5 0 0 0 - - -;
#X msg -176 1044 2;
#X floatatom -291 1063 5 0 0 0 - - -;
#X msg -176 1079 3;
#X floatatom -150 955 5 0 0 0 - - -;
#X floatatom -148 991 5 0 0 0 - - -;
#X floatatom -147 1029 5 0 0 0 - - -;
#X floatatom -147 1064 5 0 0 0 - - -;
#X msg -35 971 4;
#X msg -33 1007 5;
#X msg -32 1045 6;
#X msg -32 1080 7;
#X obj -294 970 tabwrite modmatrix;
#X obj -292 1006 tabwrite modmatrix;
#X obj -291 1044 tabwrite modmatrix;
#X obj -291 1079 tabwrite modmatrix;
#X obj -150 971 tabwrite modmatrix;
#X obj -148 1007 tabwrite modmatrix;
#X obj -147 1045 tabwrite modmatrix;
#X obj -147 1080 tabwrite modmatrix;
#X obj -206 374 tabread modmatrix;
#X obj -462 565 tabread keymatrix;
#X floatatom -206 416 5 0 0 0 - - -;
#X obj -206 395 - 2;
#X floatatom -158 423 5 0 0 0 - - -;
#X floatatom 244 565 5 0 7 0 - - -;
#X obj -206 439 +;
#X floatatom -206 460 5 0 0 0 - - -;
#X obj -206 523 *;
#X obj -206 177 mod;
#X floatatom 135 246 5 8 64 1 step_length - -;
#X obj -206 199 == 0;
#X obj -206 261 int;
#X obj -180 261 + 1;
#X obj -206 220 route 1;
#X obj -206 242 bng 15 250 50 0 empty empty empty 17 7 0 10 -262144
-1 -1;
#X obj -206 479 mod 24;
#X obj 264 542 tgl 15 0 empty empty on 17 7 0 10 -109256 -1 -1 0 1
;
#X msg -172 -37 16;
#X text 451 452 17;
#X obj 281 602 bng 15 250 50 0 empty empty 440 17 7 0 10 -262144 -1
-1;
#X text 245 580 Result;
#X msg 264 664 440;
#X floatatom 870 681 5 0 0 0 - - -;
#X floatatom 904 681 5 0 0 0 - - -;
#X floatatom 938 681 5 0 0 0 - - -;
#X floatatom 972 681 5 0 0 0 - - -;
#X floatatom 1006 681 5 0 0 0 - - -;
#X floatatom 1040 681 5 0 0 0 - - -;
#X floatatom 1074 682 5 0 0 0 - - -;
#X msg 578 -75 list 0 4 7 8 11 13 15;
#X text 453 527 24;
#X obj 265 266 tgl 15 0 empty empty on 17 7 0 10 -109256 -1 -1 0 1
;
#X obj -206 352 spigot;
#X obj -462 536 spigot;
#X msg -135 -38 0;
#X msg 578 -52 list 0 2 6 9 11 14 16;
#X obj 353 605 bng 15 250 50 0 empty empty 7 17 7 0 10 -2562 -1 -1
;
#X obj 353 588 bng 15 250 50 0 empty empty 6 17 7 0 10 -1666 -1 -1
;
#X obj 353 622 bng 15 250 50 0 empty empty 8 17 7 0 10 -2946 -1 -1
;
#X obj 353 571 bng 15 250 50 0 empty empty 5 17 7 0 10 -1410 -1 -1
;
#X msg 578 -30 list 0 1 4 9 12 14 16;
#X msg 577 -7 list 0 4 5 7 11 14 15;
#X obj 418 826 bng 15 250 50 0 empty empty empty 17 7 0 10 -262144
-1 -1;
#X obj 417 760 mod;
#X floatatom 453 751 5 0 0 0 - - -;
#X obj 417 782 == 0;
#X obj 417 806 route 1;
#X obj 418 846 s change_1cube;
#X floatatom 380 577 5 0 0 1 cube_mod - -;
#X obj 213 869 vradio 17 1 0 15 empty empty empty 0 -8 0 10 -31308
-1 -1 0;
#X obj 246 284 vradio 17 1 0 15 empty empty empty 0 -8 0 10 -150092
-1 -1 0;
#X obj 581 849 s beatstyle;
#X obj 580 715 mod;
#X obj 581 782 bng 15 250 50 0 empty empty empty 17 7 0 10 -262144
-1 -1;
#X obj 580 738 == 0;
#X obj 580 762 route 1;
#X obj 581 801 random 2;
#X floatatom 581 826 5 0 0 0 - - -;
#X floatatom 381 557 2 4 64 1 beatstylemod - -;
#X floatatom 381 597 5 0 0 1 mode_mod - -;
#X obj 719 716 mod;
#X obj 720 783 bng 15 250 50 0 empty empty empty 17 7 0 10 -262144
-1 -1;
#X obj 719 739 == 0;
#X obj 719 763 route 1;
#X obj 726 840 route 0 1 2 3 4;
#X msg 458 678 128;
#X obj 431 618 bng 15 250 50 0 empty empty empty 17 7 0 10 -262144
-1 -1;
#X floatatom 240 31 5 0 0 0 - - -;
#X obj 194 -73 bng 15 250 50 0 empty empty empty 17 7 0 10 -262144
-1 -1;
#X obj 451 619 bng 15 250 50 0 empty empty empty 17 7 0 10 -262144
-1 -1;
#X msg 491 679 256;
#X obj 720 803 random 3;
#X obj 391 620 bng 15 250 50 0 empty empty empty 17 7 0 10 -257985
-1 -1;
#X obj 228 -31 random 30;
#X obj 235 3 + 420;
#X text 121 213 CHROMATIC (24);
#X obj -565 -102 route 0 1 2;
#X msg 165 -156 24;
#X text 121 198 CHROMATIC (17);
#X obj 126 -198 bng 15 250 50 0 empty empty empty 17 7 0 10 -262144
-1 -1;
#X text 121 103 Adwar (17JI);
#X text 121 116 Gadwal (24JI);
#X text 121 130 Gadwal (24TET);
#X obj 24 -288 route 0 1 2 3 4;
#X obj 288 856 s change_distrocube;
#X obj 350 159 image allah.gif;
#X connect 1 0 274 0;
#X connect 5 0 2 0;
#X connect 5 0 10 0;
#X connect 6 0 2 0;
#X connect 6 0 9 0;
#X connect 7 0 2 0;
#X connect 7 0 10 0;
#X connect 9 0 31 0;
#X connect 10 0 31 0;
#X connect 11 0 30 0;
#X connect 11 0 92 0;
#X connect 11 0 93 0;
#X connect 11 0 215 0;
#X connect 11 0 232 0;
#X connect 12 0 14 0;
#X connect 14 0 281 0;
#X connect 16 0 18 0;
#X connect 17 0 275 0;
#X connect 18 0 19 0;
#X connect 19 0 15 0;
#X connect 21 0 22 0;
#X connect 22 0 19 0;
#X connect 24 0 25 0;
#X connect 25 0 19 0;
#X connect 26 0 19 0;
#X connect 30 0 1 0;
#X connect 30 0 12 0;
#X connect 31 0 8 0;
#X connect 32 0 61 0;
#X connect 33 0 55 0;
#X connect 34 0 51 0;
#X connect 35 0 49 0;
#X connect 36 0 47 0;
#X connect 37 0 54 0;
#X connect 38 0 56 0;
#X connect 39 0 52 0;
#X connect 40 0 58 0;
#X connect 41 0 53 0;
#X connect 42 0 57 0;
#X connect 43 0 60 0;
#X connect 44 0 50 0;
#X connect 45 0 59 0;
#X connect 46 0 48 0;
#X connect 47 0 62 0;
#X connect 48 0 62 0;
#X connect 49 0 62 0;
#X connect 50 0 62 0;
#X connect 51 0 62 0;
#X connect 52 0 62 0;
#X connect 53 0 62 0;
#X connect 54 0 62 0;
#X connect 55 0 62 0;
#X connect 56 0 62 0;
#X connect 57 0 62 0;
#X connect 58 0 62 0;
#X connect 59 0 62 0;
#X connect 60 0 62 0;
#X connect 61 0 62 0;
#X connect 62 0 81 0;
#X connect 62 1 82 0;
#X connect 62 2 83 0;
#X connect 62 3 84 0;
#X connect 62 4 85 0;
#X connect 62 5 86 0;
#X connect 62 6 87 0;
#X connect 62 7 88 0;
#X connect 62 8 89 0;
#X connect 63 0 70 1;
#X connect 64 0 71 1;
#X connect 65 0 72 1;
#X connect 66 0 73 1;
#X connect 67 0 74 1;
#X connect 68 0 75 1;
#X connect 69 0 76 1;
#X connect 79 0 77 1;
#X connect 80 0 78 1;
#X connect 81 0 70 0;
#X connect 81 0 63 0;
#X connect 81 0 220 0;
#X connect 82 0 71 0;
#X connect 82 0 64 0;
#X connect 82 0 221 0;
#X connect 83 0 72 0;
#X connect 83 0 65 0;
#X connect 83 0 222 0;
#X connect 84 0 73 0;
#X connect 84 0 66 0;
#X connect 84 0 223 0;
#X connect 85 0 74 0;
#X connect 85 0 67 0;
#X connect 85 0 224 0;
#X connect 86 0 75 0;
#X connect 86 0 68 0;
#X connect 86 0 225 0;
#X connect 87 0 76 0;
#X connect 87 0 69 0;
#X connect 87 0 226 0;
#X connect 88 0 77 0;
#X connect 88 0 79 0;
#X connect 89 0 78 0;
#X connect 89 0 80 0;
#X connect 90 0 102 0;
#X connect 91 0 205 1;
#X connect 92 0 91 0;
#X connect 93 0 90 0;
#X connect 94 0 93 0;
#X connect 96 0 233 0;
#X connect 97 0 238 0;
#X connect 98 0 227 0;
#X connect 99 0 239 0;
#X connect 101 0 205 0;
#X connect 102 0 91 0;
#X connect 103 0 100 0;
#X connect 107 0 168 0;
#X connect 108 0 166 0;
#X connect 109 0 164 0;
#X connect 110 0 162 0;
#X connect 111 0 159 0;
#X connect 112 0 156 0;
#X connect 113 0 153 0;
#X connect 114 0 150 0;
#X connect 115 0 116 0;
#X connect 116 0 142 0;
#X connect 117 0 175 0;
#X connect 118 0 173 0;
#X connect 119 0 179 0;
#X connect 120 0 177 0;
#X connect 121 0 182 0;
#X connect 122 0 181 0;
#X connect 123 0 184 0;
#X connect 124 0 183 0;
#X connect 125 0 32 0;
#X connect 126 0 39 0;
#X connect 127 0 37 0;
#X connect 128 0 46 0;
#X connect 129 0 42 0;
#X connect 130 0 41 0;
#X connect 131 0 33 0;
#X connect 132 0 38 0;
#X connect 133 0 40 0;
#X connect 134 0 43 0;
#X connect 135 0 36 0;
#X connect 136 0 34 0;
#X connect 137 0 45 0;
#X connect 138 0 35 0;
#X connect 139 0 44 0;
#X connect 140 0 146 0;
#X connect 141 0 90 0;
#X connect 141 0 231 0;
#X connect 141 0 230 0;
#X connect 142 0 143 0;
#X connect 142 0 206 0;
#X connect 142 0 241 0;
#X connect 142 0 250 0;
#X connect 142 0 258 0;
#X connect 143 0 142 1;
#X connect 144 0 141 0;
#X connect 146 0 125 0;
#X connect 146 1 126 0;
#X connect 146 2 127 0;
#X connect 146 3 128 0;
#X connect 146 4 129 0;
#X connect 146 5 130 0;
#X connect 146 6 131 0;
#X connect 146 7 132 0;
#X connect 146 8 133 0;
#X connect 146 9 134 0;
#X connect 146 10 135 0;
#X connect 146 11 136 0;
#X connect 146 12 137 0;
#X connect 146 13 138 0;
#X connect 146 14 139 0;
#X connect 146 15 145 0;
#X connect 150 0 149 0;
#X connect 150 0 151 0;
#X connect 151 0 149 1;
#X connect 153 0 152 0;
#X connect 153 0 154 0;
#X connect 154 0 152 1;
#X connect 156 0 155 0;
#X connect 156 0 157 0;
#X connect 157 0 155 1;
#X connect 159 0 158 0;
#X connect 159 0 160 0;
#X connect 160 0 158 1;
#X connect 162 0 161 0;
#X connect 162 0 169 0;
#X connect 164 0 163 0;
#X connect 164 0 170 0;
#X connect 166 0 165 0;
#X connect 166 0 171 0;
#X connect 168 0 167 0;
#X connect 168 0 172 0;
#X connect 169 0 161 1;
#X connect 170 0 163 1;
#X connect 171 0 165 1;
#X connect 172 0 167 1;
#X connect 173 0 174 0;
#X connect 173 0 189 0;
#X connect 174 0 189 1;
#X connect 175 0 176 0;
#X connect 175 0 190 0;
#X connect 176 0 190 1;
#X connect 177 0 178 0;
#X connect 177 0 191 0;
#X connect 178 0 191 1;
#X connect 179 0 180 0;
#X connect 179 0 192 0;
#X connect 180 0 192 1;
#X connect 181 0 185 0;
#X connect 181 0 193 0;
#X connect 182 0 186 0;
#X connect 182 0 194 0;
#X connect 183 0 187 0;
#X connect 183 0 195 0;
#X connect 184 0 188 0;
#X connect 184 0 196 0;
#X connect 185 0 193 1;
#X connect 186 0 194 1;
#X connect 187 0 195 1;
#X connect 188 0 196 1;
#X connect 197 0 200 0;
#X connect 198 0 140 0;
#X connect 199 0 203 0;
#X connect 200 0 199 0;
#X connect 201 0 203 1;
#X connect 202 0 201 0;
#X connect 203 0 204 0;
#X connect 204 0 213 0;
#X connect 205 0 103 0;
#X connect 206 0 208 0;
#X connect 207 0 206 1;
#X connect 208 0 211 0;
#X connect 209 0 210 0;
#X connect 209 0 144 0;
#X connect 210 0 209 1;
#X connect 211 0 212 0;
#X connect 212 0 209 0;
#X connect 213 0 101 0;
#X connect 214 0 230 1;
#X connect 215 0 207 0;
#X connect 217 0 219 0;
#X connect 219 0 103 0;
#X connect 227 0 62 0;
#X connect 229 0 231 1;
#X connect 230 0 197 0;
#X connect 231 0 198 0;
#X connect 232 0 229 0;
#X connect 232 0 214 0;
#X connect 233 0 62 0;
#X connect 238 0 62 0;
#X connect 239 0 62 0;
#X connect 240 0 245 0;
#X connect 240 0 282 0;
#X connect 241 0 243 0;
#X connect 242 0 241 1;
#X connect 243 0 244 0;
#X connect 244 0 240 0;
#X connect 246 0 242 0;
#X connect 250 0 252 0;
#X connect 251 0 254 0;
#X connect 252 0 253 0;
#X connect 253 0 251 0;
#X connect 254 0 255 0;
#X connect 255 0 249 0;
#X connect 256 0 250 1;
#X connect 257 0 258 1;
#X connect 258 0 260 0;
#X connect 259 0 266 0;
#X connect 259 0 269 0;
#X connect 259 0 270 0;
#X connect 260 0 261 0;
#X connect 261 0 259 0;
#X connect 263 0 257 0;
#X connect 264 0 263 0;
#X connect 266 0 271 0;
#X connect 267 0 268 0;
#X connect 268 0 257 0;
#X connect 269 0 262 0;
#X connect 271 0 272 0;
#X connect 272 0 265 0;
#X connect 274 0 6 0;
#X connect 274 1 5 0;
#X connect 274 2 7 0;
#X connect 275 0 19 0;
#X connect 277 0 26 0;
#X connect 281 0 21 0;
#X connect 281 1 16 0;
#X connect 281 2 24 0;
#X connect 281 3 277 0;
#X connect 281 4 17 0;
#X coords 0 -1 1 1 380 540 1 100 100;
#X restore -410 -671 pd arabmain;
