#N canvas 1 111 250 387 10;
#N canvas 1 85 1600 846 arabmain 0;
#X obj 101 100 cnv 15 240 380 empty empty empty 20 12 0 14 -144001
-66577 0;
#X obj -565 -102 route 0 1 2;
#X obj -651 108 arraycopy tuning;
#N canvas 0 0 450 300 (subpatch) 0;
#X array scaler 9 float 3;
#A 0 0 1 2 3 4 5 6 21 16;
#X coords 0 0 9 24 100 20 1 0 0;
#X restore 113 117 graph;
#N canvas 1 89 450 300 (subpatch) 0;
#X array tuning 24 float 3;
#A 0 1 1.10765 1.23685 1.3449 1.50786 1.73508 1.88993 1.22222 1.26316
1.29412 1.33333 1.375 1.41667 1.45455 1.5 1.54545 1.58333 1.63636 1.68421
1.72727 1.77778 1.83333 1.88889 1.94118;
#X coords 0 2 24 1 100 20 1 0 0;
#X restore 219 117 graph;
#X msg -574 32 copy Gadwalji;
#X msg -569 61 copy Adwar;
#X msg -579 0 copy Gadwal;
#X obj -456 138 s tuning_notes;
#X msg -474 56 17;
#X msg -467 20 24;
#X obj -230 -70 loadbang;
#X floatatom -41 -259 5 0 0 0 - - -;
#X obj 33 -95 s scale_notes;
#X obj 50 -179 bng 15 250 50 0 empty empty empty 17 7 0 10 -262144
-1 -1;
#X obj 77 -180 bng 15 250 50 0 empty empty empty 17 7 0 10 -262144
-1 -1;
#X msg 49 -149 7;
#X msg 81 -148 12;
#X floatatom 33 -115 5 0 0 0 - - -;
#X obj 20 -177 bng 15 250 50 0 empty empty empty 17 7 0 10 -262144
-1 -1;
#X msg 19 -147 5;
#X msg 172 -157 22;
#X msg 218 -160 24;
#X obj 20 -206 route 0 1 2 3;
#X obj 258 -199 bng 15 250 50 0 empty empty empty 17 7 0 10 -262144
-1 -1;
#X msg 268 -161 9;
#X msg 126 -154 17;
#N canvas 0 0 450 300 (subpatch) 0;
#X array Gadwal 24 float 3;
#A 0 1 1.0293 1.05946 1.09051 1.12246 1.15535 1.18921 1.22405 1.25992
1.29684 1.33484 1.37395 1.41421 1.45565 1.49831 1.54221 1.5874 1.63392
1.68179 1.73107 1.7818 1.83401 1.88775 1.94306;
#X coords 0 2 24 1 200 40 1;
#X restore 772 -642 graph;
#N canvas 0 0 450 300 (subpatch) 0;
#X array Gadwalji 24 float 3;
#A 0 1 1.03125 1.0625 1.09091 1.125 1.15789 1.1875 1.22222 1.26316
1.29412 1.33333 1.375 1.41667 1.45455 1.5 1.54545 1.58333 1.63636 1.68421
1.72727 1.77778 1.83333 1.88889 1.94118;
#X coords 0 2 24 1 200 40 1 0 0;
#X restore 563 -642 graph;
#N canvas 0 0 450 300 (subpatch) 0;
#X array Adwar 17 float 3;
#A 0 1 1.0535 1.10986 1.125 1.18519 1.24859 1.26562 1.33333 1.40466
1.47981 1.5 1.58025 1.66479 1.6875 1.77778 1.87289 1.97308;
#X coords 0 2 17 1 200 40 1 0 0;
#X restore 564 -576 graph;
#X msg -202 -34 1;
#X floatatom -456 113 5 0 0 0 - - -;
#X obj 116 182 hradio 17 1 0 8 empty empty empty 0 -8 0 10 -201729
-1 -1 1;
#X floatatom 106 142 3 0 0 1 basetone - -;
#X msg -230 -34 440;
#X msg 499 -25 12;
#X obj 128 165 bng 15 250 50 0 empty empty empty 17 7 0 10 -201921
-1 -1;
#X obj 257 757 s basetone;
#X obj -206 499 tabread tuning;
#X obj 24 196 bng 15 250 50 0 empty empty empty 17 7 0 10 -262144 -1
-1;
#X floatatom 253 444 5 0 0 0 - - -;
#N canvas 0 0 450 300 (subpatch) 0;
#X array octaves 9 float 1;
#A 0 0.0625 0.125 0.25 0.5 1 2 4 8 17;
#X coords 0 32 8 -1 100 32 1;
#X restore 772 -572 graph;
#N canvas 0 0 450 300 (subpatch) 0;
#X array dbtorms 123 float 1;
#A 0 0 0 1.25893e-05 1.41254e-05 1.58489e-05 1.77828e-05 1.99526e-05
2.23872e-05 2.51189e-05 2.81838e-05 3.16228e-05 3.54813e-05 3.98107e-05
4.46684e-05 5.01187e-05 5.62341e-05 6.30957e-05 7.07946e-05 7.94328e-05
8.91251e-05 0.0001 0.000112202 0.000125893 0.000141254 0.000158489
0.000177828 0.000199526 0.000223872 0.000251189 0.000281838 0.000316228
0.000354813 0.000398107 0.000446684 0.000501187 0.000562341 0.000630957
0.000707946 0.000794328 0.000891251 0.001 0.00112202 0.00125893 0.00141254
0.00158489 0.00177828 0.00199526 0.00223872 0.00251189 0.00281838 0.00316228
0.00354813 0.00398107 0.00446684 0.00501187 0.00562341 0.00630957 0.00707946
0.00794328 0.00891251 0.01 0.0112202 0.0125893 0.0141254 0.0158489
0.0177828 0.0199526 0.0223872 0.0251189 0.0281838 0.0316228 0.0354813
0.0398107 0.0446684 0.0501187 0.0562341 0.0630957 0.0707946 0.0794328
0.0891251 0.1 0.112202 0.125893 0.141254 0.158489 0.177828 0.199526
0.223872 0.251189 0.281838 0.316228 0.354813 0.398107 0.446684 0.501187
0.562341 0.630957 0.707946 0.794328 0.891251 1 1.12202 1.25893 1.41254
1.58489 1.77828 1.99526 2.23872 2.51189 2.81838 3.16228 3.54813 3.98107
4.46684 5.01187 5.62341 6.30957 7.07946 7.94328 8.91251 10 11.2202
12.5893;
#X coords 0 10 123 0 200 100 1;
#X restore 788 -505 graph;
#N canvas 0 0 450 300 (subpatch) 0;
#X array vibrato 131 float 1;
#A 0 0.970031 1 0.970031 0.881921 0.740952 0.555571 0.336891 0.0980184
-0.146729 -0.382682 -0.595698 -0.773009 -0.88 -0.9 -0.92 -0.92 -0.85773
-0.707109 -0.514106 -0.290288 -0.0490716 0.195086 0.427551 0.63439
0.803205 0.86 0.88 0.88 0.88 0.84 0.82 0.471402 0.242986 6.63397e-06
-0.242974 -0.471391 -0.671554 -0.831465 -0.941541 -0.995184 -0.989178
-0.923883 -0.803213 -0.68 -0.42 -0.24 0.1 0.4 0.6 0.7071 0.857723 0.956937
0.998795 0.980787 0.903994 0.773018 0.595708 0.382694 0.146742 -0.0980052
-0.336878 -0.55556 -0.7 -0.8 -0.88 -0.88 -0.88 -0.84 -0.82 -0.555582
-0.336903 -0.0980316 0.146716 0.38267 0.595687 0.773001 0.903983 0.980782
0.998796 0.956945 0.857737 0.707119 0.514117 0.290301 0.0490849 -0.195073
-0.427539 -0.63438 -0.803197 -0.923873 -0.989174 -0.995187 -0.94155
-0.83148 -0.671573 -0.471414 -0.242999 -1.99019e-05 0.242961 0.471379
0.671544 0.831458 0.88 0.9 0.9 0.88 0.803221 0.63441 0.08 -0.14 -0.28
-0.48 -0.64 -0.72 -0.857717 -0.956933 -0.998794 -0.98079 -0.904 -0.773026
-0.595719 -0.382706 -0.146755 0.097992 0.336866 0.555549 0.740934 0.881909
0.970025 1 0.970038;
#X coords 0 1 130 -1 200 100 1 0 0;
#X restore 572 -510 graph;
#X obj 235 200 vradio 17 1 0 10 empty empty empty 0 -8 0 10 -214145
-1 -1 0;
#X obj 218 200 vradio 17 1 0 10 empty empty empty 0 -8 0 10 -201281
-1 -1 0;
#X obj 201 200 vradio 17 1 0 10 empty empty empty 0 -8 0 10 -214145
-1 -1 0;
#X obj 184 200 vradio 17 1 0 10 empty empty empty 0 -8 0 10 -201281
-1 -1 0;
#X obj 167 200 vradio 17 1 0 10 empty empty empty 0 -8 0 10 -214145
-1 -1 0;
#X obj 150 200 vradio 17 1 0 10 empty empty empty 0 -8 0 10 -201281
-1 -1 0;
#X obj 133 200 vradio 17 1 0 10 empty empty empty 0 -8 0 10 -214145
-1 -1 0;
#X obj 116 200 vradio 17 1 0 10 empty empty empty 0 -8 0 10 -201281
-1 -1 0;
#X obj -206 86 r metro;
#X obj -206 109 bng 15 250 50 0 empty empty empty 17 7 0 10 -262144
-1 -1;
#X obj 133 376 vradio 17 1 0 5 empty empty empty 0 -8 0 10 -201281
-1 -1 2;
#X obj 116 376 vradio 17 1 0 5 empty empty empty 0 -8 0 10 -214145
-1 -1 2;
#X obj 167 376 vradio 17 1 0 5 empty empty empty 0 -8 0 10 -201281
-1 -1 2;
#X obj 150 376 vradio 17 1 0 5 empty empty empty 0 -8 0 10 -214145
-1 -1 2;
#X obj 201 376 vradio 17 1 0 5 empty empty empty 0 -8 0 10 -201281
-1 -1 3;
#X obj 184 376 vradio 17 1 0 5 empty empty empty 0 -8 0 10 -214145
-1 -1 3;
#X obj 235 376 vradio 17 1 0 5 empty empty empty 0 -8 0 10 -201281
-1 -1 3;
#X obj 218 376 vradio 17 1 0 5 empty empty empty 0 -8 0 10 -214145
-1 -1 3;
#X obj -550 656 bng 15 250 50 0 empty empty empty 17 7 0 10 -262144
-1 -1;
#X obj -534 657 bng 15 250 50 0 empty empty empty 17 7 0 10 -262144
-1 -1;
#X obj -518 657 bng 15 250 50 0 empty empty empty 17 7 0 10 -262144
-1 -1;
#X obj -503 657 bng 15 250 50 0 empty empty empty 17 7 0 10 -262144
-1 -1;
#X obj -486 657 bng 15 250 50 0 empty empty empty 17 7 0 10 -262144
-1 -1;
#X obj -470 658 bng 15 250 50 0 empty empty empty 17 7 0 10 -262144
-1 -1;
#X obj -453 656 bng 15 250 50 0 empty empty empty 17 7 0 10 -262144
-1 -1;
#X obj -440 657 bng 15 250 50 0 empty empty empty 17 7 0 10 -262144
-1 -1;
#X obj -423 657 bng 15 250 50 0 empty empty empty 17 7 0 10 -262144
-1 -1;
#X obj -408 657 bng 15 250 50 0 empty empty empty 17 7 0 10 -262144
-1 -1;
#X obj -390 655 bng 15 250 50 0 empty empty empty 17 7 0 10 -262144
-1 -1;
#X obj -375 658 bng 15 250 50 0 empty empty empty 17 7 0 10 -262144
-1 -1;
#X obj -362 659 bng 15 250 50 0 empty empty empty 17 7 0 10 -262144
-1 -1;
#X obj -345 657 bng 15 250 50 0 empty empty empty 17 7 0 10 -262144
-1 -1;
#X obj -329 657 bng 15 250 50 0 empty empty empty 17 7 0 10 -262144
-1 -1;
#X floatatom -532 606 5 0 0 0 - - -;
#X floatatom -206 308 5 0 0 0 - - -;
#X obj -206 152 int;
#X obj -180 152 + 1;
#X obj -206 286 mod 8;
#X obj -311 660 bng 15 250 50 0 empty empty empty 17 7 0 10 -262144
-1 -1;
#X obj -532 629 route 0 1 2 3 4 5 6 7 8 9 10 11 12 13 14 15;
#N canvas 0 0 450 300 (subpatch) 0;
#X array modmatrix 8 float 3;
#A 0 2 2 2 2 3 3 3 3;
#X coords 0 15 8 0 200 140 1 0 0;
#X restore 845 894 graph;
#N canvas 0 0 450 300 (subpatch) 0;
#X array keymatrix 8 float 3;
#A 0 3 0 0 0 1 0 1 0;
#X coords 0 15 8 0 200 140 1 0 0;
#X restore 1048 893 graph;
#X obj -386 1225 tabwrite keymatrix;
#X floatatom -386 1209 5 0 0 0 - - -;
#X msg -271 1225 0;
#X obj -384 1261 tabwrite keymatrix;
#X floatatom -384 1245 5 0 0 0 - - -;
#X msg -269 1261 1;
#X obj -383 1299 tabwrite keymatrix;
#X floatatom -383 1283 5 0 0 0 - - -;
#X msg -268 1299 2;
#X obj -383 1334 tabwrite keymatrix;
#X floatatom -383 1318 5 0 0 0 - - -;
#X msg -268 1334 3;
#X obj -242 1226 tabwrite keymatrix;
#X floatatom -242 1210 5 0 0 0 - - -;
#X obj -240 1262 tabwrite keymatrix;
#X floatatom -240 1246 5 0 0 0 - - -;
#X obj -239 1300 tabwrite keymatrix;
#X floatatom -239 1284 5 0 0 0 - - -;
#X obj -239 1335 tabwrite keymatrix;
#X floatatom -239 1319 5 0 0 0 - - -;
#X msg -127 1226 4;
#X msg -125 1262 5;
#X msg -124 1300 6;
#X msg -124 1335 7;
#X floatatom -94 1208 5 0 0 0 - - -;
#X msg 21 1224 0;
#X floatatom -92 1244 5 0 0 0 - - -;
#X msg 23 1260 1;
#X floatatom -91 1282 5 0 0 0 - - -;
#X msg 24 1298 2;
#X floatatom -91 1317 5 0 0 0 - - -;
#X msg 24 1333 3;
#X floatatom 50 1209 5 0 0 0 - - -;
#X floatatom 52 1245 5 0 0 0 - - -;
#X floatatom 53 1283 5 0 0 0 - - -;
#X floatatom 53 1318 5 0 0 0 - - -;
#X msg 165 1225 4;
#X msg 167 1261 5;
#X msg 168 1299 6;
#X msg 168 1334 7;
#X obj -94 1224 tabwrite modmatrix;
#X obj -92 1260 tabwrite modmatrix;
#X obj -91 1298 tabwrite modmatrix;
#X obj -91 1333 tabwrite modmatrix;
#X obj 50 1225 tabwrite modmatrix;
#X obj 52 1261 tabwrite modmatrix;
#X obj 53 1299 tabwrite modmatrix;
#X obj 53 1334 tabwrite modmatrix;
#X obj -206 374 tabread modmatrix;
#X obj -531 583 tabread keymatrix;
#X floatatom -206 416 5 0 0 0 - - -;
#X obj -206 395 - 2;
#X floatatom -158 423 5 0 0 0 - - -;
#X floatatom 253 409 5 0 7 0 - - -;
#X obj -206 439 +;
#X floatatom -206 460 5 0 0 0 - - -;
#X obj -206 523 *;
#X obj -206 177 mod;
#X floatatom 146 164 5 8 64 1 step_length - -;
#X obj -206 199 == 0;
#X obj -206 261 int;
#X obj -180 261 + 1;
#X obj -206 220 route 1;
#X obj -206 242 bng 15 250 50 0 empty empty empty 17 7 0 10 -262144
-1 -1;
#X obj 256 375 tgl 15 0 empty empty on 17 7 0 10 -201921 -1 -1 0 1
;
#X msg -172 -37 16;
#X obj 288 445 bng 15 250 50 0 empty empty 440 17 7 0 10 -262144 -1
-1;
#X text 254 424 Result;
#X msg 301 676 440;
#X text 456 534 24;
#X obj 257 181 tgl 15 0 empty empty on 17 7 0 10 -201921 -1 -1 0 1
;
#X obj -206 352 spigot;
#X obj -531 554 spigot;
#X msg -135 -38 0;
#X obj 255 202 bng 15 250 50 0 empty empty Tabanan 17 7 0 10 -229953
-1 -1;
#X obj 255 219 bng 15 250 50 0 empty empty Pliatan 17 7 0 10 -229953
-1 -1;
#X obj 255 236 bng 15 250 50 0 empty empty Batuan 17 7 0 10 -229953
-1 -1;
#X obj 255 253 bng 15 250 50 0 empty empty Klungkung 17 7 0 10 -229953
-1 -1;
#X msg 808 301 copy Tabanan;
#X msg 808 321 copy Pliatan;
#X msg 808 341 copy Batuan;
#X msg 808 362 copy Klungkung;
#X obj 963 574 arraycopy scaler;
#X msg 963 474 copy Same;
#X obj 255 270 bng 15 250 50 0 empty empty Banjar 17 7 0 10 -230657
-1 -1;
#X obj 255 287 bng 15 250 50 0 empty empty Krobokan 17 7 0 10 -230657
-1 -1;
#X obj 255 304 bng 15 250 50 0 empty empty Klungkung 17 7 0 10 -230657
-1 -1;
#X obj 255 321 bng 15 250 50 0 empty empty Tampak 17 7 0 10 -230657
-1 -1;
#X obj 255 338 bng 15 250 50 0 empty empty Tabanan 17 7 0 10 -230657
-1 -1;
#X obj 255 355 bng 15 250 50 0 empty empty Batuan 17 7 0 10 -230657
-1 -1;
#X msg 808 423 copy Banjar7;
#X msg 808 485 copy Klungkung7;
#X msg 808 465 copy Tampak7;
#X msg 808 527 copy Tabanan7;
#X msg 808 506 copy Batuan7;
#X msg 963 500 copy Same7;
#X obj 808 576 arraycopy tuning;
#X obj 1047 547 s tuning_notes;
#X obj 963 547 s scale_notes;
#X msg 963 523 5;
#X msg 1047 523 7;
#X msg 808 444 copy Krobokan7;
#N canvas 0 0 450 300 (subpatch) 0;
#X array Tabanan 5 float 3;
#A 0 1 1.08235 1.1607 1.50699 1.65768;
#X coords 0 2 5 1 100 40 1 0 0;
#X restore -274 -666 graph;
#N canvas 0 0 450 300 (subpatch) 0;
#X array Pliatan 5 float 3;
#A 0 1 1.08925 1.1681 1.44643 1.55384;
#X coords 0 2 5 1 100 40 1 0 0;
#X restore -169 -666 graph;
#N canvas 0 0 450 300 (subpatch) 0;
#X array Batuan 5 float 3;
#A 0 1 1.09177 1.18441 1.51922 1.65481;
#X coords 0 2 5 1 100 40 1 0 0;
#X restore -59 -666 graph;
#N canvas 0 0 450 300 (subpatch) 0;
#X array Klungkung 5 float 3;
#A 0 1 1.10222 1.21982 1.50394 1.64386;
#X coords 0 2 5 1 100 40 1 0 0;
#X restore 48 -667 graph;
#N canvas 0 0 450 300 (subpatch) 0;
#X array Same 5 float 3;
#A 0 0 1 2 3 4;
#X coords 0 5 5 0 100 40 1 0 0;
#X restore 391 -660 graph;
#N canvas 0 0 450 300 (subpatch) 0;
#X array Banjar7 7 float 3;
#A 0 1 1.10509 1.25122 1.34801 1.48796 1.68958 1.82978;
#X coords 0 2 7 1 100 40 1 0 0;
#X restore -276 -606 graph;
#N canvas 0 0 450 300 (subpatch) 0;
#X array Krobokan7 7 float 3;
#A 0 1 1.10893 1.18509 1.30888 1.47257 1.60029 1.69154;
#X coords 0 2 7 1 100 40 1 0 0;
#X restore -169 -605 graph;
#N canvas 0 0 450 300 (subpatch) 0;
#X array Klungkung7 7 float 3;
#A 0 1 1.10765 1.23685 1.3449 1.50786 1.73508 1.88993;
#X coords 0 2 7 1 100 40 1 0 0;
#X restore -65 -606 graph;
#N canvas 0 0 450 300 (subpatch) 0;
#X array Tampak7 7 float 3;
#A 0 1 1.08673 1.17691 1.37078 1.47427 1.56374 1.80563;
#X coords 0 2 7 1 100 40 1 0 0;
#X restore 40 -606 graph;
#N canvas 0 0 450 300 (subpatch) 0;
#X array Tabanan7 7 float 3;
#A 0 1 1.1 1.18509 1.32715 1.43644 1.54043 1.63675;
#X coords 0 2 7 1 100 40 1 0 0;
#X restore 145 -606 graph;
#N canvas 0 0 450 300 (subpatch) 0;
#X array Batuan7 7 float 3;
#A 0 1 1.08925 1.17555 1.31646 1.43727 1.55923 1.63392;
#X coords 0 2 7 1 100 40 1 0 0;
#X restore 253 -607 graph;
#N canvas 0 0 450 300 (subpatch) 0;
#X array Same7 7 float 3;
#A 0 0 1 2 3 4 5 6;
#X coords 0 7 7 0 100 40 1 0 0;
#X restore 391 -605 graph;
#X obj -206 479 mod 7;
#X obj -412 309 random 5;
#X obj 213 144 tgl 15 0 empty empty tempochangerand 17 7 0 10 -260097
-1 -1 1 1;
#X obj -506 215 spigot;
#X obj -515 173 r tempo_change;
#X msg -71 -29 0;
#X floatatom 295 157 2 0 7 0 +max - -;
#X connect 1 0 6 0;
#X connect 1 1 5 0;
#X connect 1 2 7 0;
#X connect 5 0 2 0;
#X connect 5 0 10 0;
#X connect 6 0 2 0;
#X connect 6 0 9 0;
#X connect 7 0 2 0;
#X connect 7 0 10 0;
#X connect 9 0 31 0;
#X connect 10 0 31 0;
#X connect 11 0 30 0;
#X connect 11 0 34 0;
#X connect 11 0 35 0;
#X connect 11 0 151 0;
#X connect 11 0 159 0;
#X connect 11 0 205 0;
#X connect 12 0 23 0;
#X connect 14 0 16 0;
#X connect 15 0 17 0;
#X connect 16 0 18 0;
#X connect 17 0 18 0;
#X connect 18 0 13 0;
#X connect 19 0 20 0;
#X connect 20 0 18 0;
#X connect 21 0 18 0;
#X connect 22 0 18 0;
#X connect 23 0 19 0;
#X connect 23 1 14 0;
#X connect 23 2 15 0;
#X connect 23 3 24 0;
#X connect 24 0 25 0;
#X connect 25 0 18 0;
#X connect 26 0 18 0;
#X connect 31 0 8 0;
#X connect 32 0 39 0;
#X connect 33 0 142 1;
#X connect 34 0 33 0;
#X connect 35 0 32 0;
#X connect 36 0 35 0;
#X connect 38 0 142 0;
#X connect 39 0 33 0;
#X connect 40 0 37 0;
#X connect 44 0 105 0;
#X connect 45 0 103 0;
#X connect 46 0 101 0;
#X connect 47 0 99 0;
#X connect 48 0 96 0;
#X connect 49 0 93 0;
#X connect 50 0 90 0;
#X connect 51 0 87 0;
#X connect 52 0 53 0;
#X connect 53 0 79 0;
#X connect 54 0 112 0;
#X connect 55 0 110 0;
#X connect 56 0 116 0;
#X connect 57 0 114 0;
#X connect 58 0 119 0;
#X connect 59 0 118 0;
#X connect 60 0 121 0;
#X connect 61 0 120 0;
#X connect 62 0 160 0;
#X connect 63 0 161 0;
#X connect 65 0 162 0;
#X connect 66 0 163 0;
#X connect 68 0 170 0;
#X connect 70 0 171 0;
#X connect 71 0 172 0;
#X connect 72 0 173 0;
#X connect 73 0 174 0;
#X connect 74 0 175 0;
#X connect 77 0 83 0;
#X connect 78 0 32 0;
#X connect 78 0 158 0;
#X connect 78 0 157 0;
#X connect 79 0 80 0;
#X connect 79 0 143 0;
#X connect 80 0 79 1;
#X connect 81 0 78 0;
#X connect 83 0 62 0;
#X connect 83 1 63 0;
#X connect 83 2 64 0;
#X connect 83 3 65 0;
#X connect 83 4 66 0;
#X connect 83 5 67 0;
#X connect 83 6 68 0;
#X connect 83 7 69 0;
#X connect 83 8 70 0;
#X connect 83 9 71 0;
#X connect 83 10 72 0;
#X connect 83 11 73 0;
#X connect 83 12 74 0;
#X connect 83 13 75 0;
#X connect 83 14 76 0;
#X connect 83 15 82 0;
#X connect 87 0 86 0;
#X connect 87 0 88 0;
#X connect 88 0 86 1;
#X connect 90 0 89 0;
#X connect 90 0 91 0;
#X connect 91 0 89 1;
#X connect 93 0 92 0;
#X connect 93 0 94 0;
#X connect 94 0 92 1;
#X connect 96 0 95 0;
#X connect 96 0 97 0;
#X connect 97 0 95 1;
#X connect 99 0 98 0;
#X connect 99 0 106 0;
#X connect 101 0 100 0;
#X connect 101 0 107 0;
#X connect 103 0 102 0;
#X connect 103 0 108 0;
#X connect 105 0 104 0;
#X connect 105 0 109 0;
#X connect 106 0 98 1;
#X connect 107 0 100 1;
#X connect 108 0 102 1;
#X connect 109 0 104 1;
#X connect 110 0 111 0;
#X connect 110 0 126 0;
#X connect 111 0 126 1;
#X connect 112 0 113 0;
#X connect 112 0 127 0;
#X connect 113 0 127 1;
#X connect 114 0 115 0;
#X connect 114 0 128 0;
#X connect 115 0 128 1;
#X connect 116 0 117 0;
#X connect 116 0 129 0;
#X connect 117 0 129 1;
#X connect 118 0 122 0;
#X connect 118 0 130 0;
#X connect 119 0 123 0;
#X connect 119 0 131 0;
#X connect 120 0 124 0;
#X connect 120 0 132 0;
#X connect 121 0 125 0;
#X connect 121 0 133 0;
#X connect 122 0 130 1;
#X connect 123 0 131 1;
#X connect 124 0 132 1;
#X connect 125 0 133 1;
#X connect 134 0 137 0;
#X connect 135 0 77 0;
#X connect 136 0 140 0;
#X connect 137 0 136 0;
#X connect 138 0 140 1;
#X connect 139 0 138 0;
#X connect 140 0 141 0;
#X connect 141 0 200 0;
#X connect 142 0 40 0;
#X connect 143 0 145 0;
#X connect 144 0 143 1;
#X connect 145 0 148 0;
#X connect 146 0 147 0;
#X connect 146 0 81 0;
#X connect 147 0 146 1;
#X connect 148 0 149 0;
#X connect 149 0 146 0;
#X connect 150 0 157 1;
#X connect 151 0 144 0;
#X connect 152 0 154 0;
#X connect 154 0 40 0;
#X connect 156 0 158 1;
#X connect 157 0 134 0;
#X connect 158 0 135 0;
#X connect 159 0 156 0;
#X connect 159 0 150 0;
#X connect 160 0 164 0;
#X connect 161 0 165 0;
#X connect 162 0 166 0;
#X connect 163 0 167 0;
#X connect 164 0 169 0;
#X connect 164 0 182 0;
#X connect 165 0 169 0;
#X connect 165 0 182 0;
#X connect 166 0 169 0;
#X connect 166 0 182 0;
#X connect 167 0 169 0;
#X connect 167 0 182 0;
#X connect 169 0 168 0;
#X connect 169 0 185 0;
#X connect 170 0 176 0;
#X connect 171 0 187 0;
#X connect 172 0 177 0;
#X connect 173 0 178 0;
#X connect 174 0 179 0;
#X connect 175 0 180 0;
#X connect 176 0 181 0;
#X connect 176 0 182 0;
#X connect 177 0 181 0;
#X connect 177 0 182 0;
#X connect 178 0 181 0;
#X connect 178 0 182 0;
#X connect 179 0 181 0;
#X connect 179 0 182 0;
#X connect 180 0 181 0;
#X connect 180 0 182 0;
#X connect 181 0 168 0;
#X connect 181 0 186 0;
#X connect 185 0 184 0;
#X connect 185 0 183 0;
#X connect 186 0 184 0;
#X connect 186 0 183 0;
#X connect 187 0 181 0;
#X connect 187 0 182 0;
#X connect 200 0 38 0;
#X connect 201 0 136 0;
#X connect 202 0 203 1;
#X connect 203 0 201 0;
#X connect 204 0 203 0;
#X connect 205 0 202 0;
#X connect 206 0 201 1;
#X coords 0 -1 1 1 240 380 1 100 100;
#X restore -410 -671 pd arabmain;
