#N canvas 928 202 401 389 10;
#N canvas 55 207 934 579 bonkerwrapper 0;
#X obj 233 512 bonk~;
#N canvas 5 227 1255 608 interface 0;
#X msg 97 136 thresh 6 50;
#X obj 23 47 r \$0-threshlow;
#X obj 133 47 r \$0-threshhigh;
#X obj 253 47 r \$0-velocitymin;
#X obj 378 46 r \$0-maskbands;
#X obj 483 46 r \$0-maskdecay;
#X obj 593 45 r \$0-debounce;
#X obj 23 145 pack f f;
#X obj 36 119 t b f;
#X obj 23 168 list prepend thresh;
#X obj 253 93 + 5;
#X obj 253 72 * 30;
#X obj 253 164 list prepend minvel;
#X obj 378 94 int;
#X obj 378 72 * 8;
#X obj 417 134 pack f f;
#X obj 430 108 t b f;
#X obj 417 164 list prepend mask;
#X obj 22 190 list trim;
#X obj 23 77 * 25;
#X obj 133 72 * 25;
#X obj 133 93 + 25;
#X obj 253 190 list trim;
#X obj 417 190 list trim;
#X obj 593 190 list trim;
#X obj 753 43 r \$0-learn;
#X obj 883 44 r \$0-forget;
#X obj 1023 43 r \$0-write;
#X obj 1163 42 r \$0-read;
#X obj 753 190 list trim;
#X obj 753 164 list prepend learn;
#X obj 883 190 list trim;
#X obj 883 164 list prepend forget;
#X obj 1023 190 list trim;
#X obj 1163 190 list trim;
#X obj 1023 164 list prepend write;
#X obj 1163 164 list prepend read;
#X obj 593 164 list prepend debounce;
#X obj 550 345 outlet;
#X msg 913 119 1;
#X obj 883 69 t b b;
#X msg 883 118 0;
#X obj 883 93 del 5;
#X obj 483 72 * 10;
#X obj 1023 92 openpanel;
#X obj 1163 94 openpanel;
#X connect 1 0 19 0;
#X connect 2 0 20 0;
#X connect 3 0 11 0;
#X connect 4 0 14 0;
#X connect 5 0 43 0;
#X connect 6 0 37 0;
#X connect 7 0 9 0;
#X connect 8 0 7 0;
#X connect 8 1 7 1;
#X connect 9 0 18 0;
#X connect 10 0 12 0;
#X connect 11 0 10 0;
#X connect 12 0 22 0;
#X connect 13 0 15 0;
#X connect 14 0 13 0;
#X connect 15 0 17 0;
#X connect 16 0 15 0;
#X connect 16 1 15 1;
#X connect 17 0 23 0;
#X connect 18 0 38 0;
#X connect 19 0 7 0;
#X connect 20 0 21 0;
#X connect 21 0 8 0;
#X connect 22 0 38 0;
#X connect 23 0 38 0;
#X connect 24 0 38 0;
#X connect 25 0 30 0;
#X connect 26 0 40 0;
#X connect 27 0 44 0;
#X connect 28 0 45 0;
#X connect 29 0 38 0;
#X connect 30 0 29 0;
#X connect 31 0 38 0;
#X connect 32 0 31 0;
#X connect 33 0 38 0;
#X connect 34 0 38 0;
#X connect 35 0 33 0;
#X connect 36 0 34 0;
#X connect 37 0 24 0;
#X connect 39 0 32 0;
#X connect 40 0 42 0;
#X connect 40 1 39 0;
#X connect 41 0 32 0;
#X connect 42 0 41 0;
#X connect 43 0 16 0;
#X connect 44 0 35 0;
#X connect 45 0 36 0;
#X restore 293 466 pd interface adaptor;
#X obj 293 538 line~;
#X msg 293 512 \$1 100;
#X obj 293 490 r \$0-outonoff;
#X obj 283 428 line~;
#X msg 283 407 \$1 100;
#X obj 283 336 r \$0-inonoff;
#X obj 246 452 *~;
#X obj 268 452 *~;
#X obj 233 489 +~;
#X obj 58 493 env~;
#X obj 58 535 s \$0-monitor;
#X obj 283 384 *;
#X obj 283 359 t b f;
#X obj 264 315 r \$0-volume;
#X obj 58 513 - 80;
#X obj 100 102 cnv 15 170 115 empty empty bonker 20 12 1 14 -86597
-62784 0;
#X obj 129 129 hsl 100 10 0 1 0 1 \$0-threshlow empty low-threshold
0 0 1 12 -195568 -62784 -1 1100 1;
#X obj 129 145 hsl 100 10 0 1 0 1 \$0-threshhigh empty hi-threshold
0 0 1 12 -195568 -62784 -1 8500 1;
#X obj 129 160 hsl 100 10 0 1 0 1 \$0-velocitymin empty velocity 0
0 1 12 -195568 -241291 -1 9900 1;
#X obj 129 175 hsl 100 10 0 1 0 1 \$0-maskbands empty mask-bands 0
0 1 12 -195568 -258699 -1 5800 1;
#X obj 129 190 hsl 100 10 0 1 0 1 \$0-maskdecay empty mask-decay 0
0 1 12 -195568 -258699 -1 2400 1;
#X obj 129 206 hsl 100 10 0 1 0 1 \$0-debounce empty debounce 0 0 1
12 -195568 -260227 -1 4500 1;
#X obj 236 133 tgl 10 0 \$0-learn empty learn 0 0 1 12 -13330 -24198
-1 0 1;
#X obj 236 149 bng 10 250 50 0 \$0-forget empty forget 0 0 1 12 -13330
-258699 -1;
#X obj 105 110 tgl 10 0 \$0-inonoff empty IN 0 0 1 12 -195568 -258699
-1 0 1;
#X obj 106 133 vu 10 80 \$0-monitor lev -1 -8 1 8 -233017 -1 0 0;
#X obj 236 163 bng 10 250 50 0 \$0-write empty write 0 0 1 12 -13330
-258699 -1;
#X obj 236 177 bng 10 250 50 0 \$0-read empty read 0 0 1 12 -13330
-258699 -1;
#X obj 294 603 bng 15 250 50 0 empty empty empty 17 7 0 10 -262144
-1 -1;
#X obj 294 635 outlet;
#X obj 101 270 inlet~;
#X obj 151 269 inlet~;
#X obj 243 202 bng 15 250 50 0 empty empty empty 17 7 0 10 -13381 -1
-1;
#X connect 0 1 30 0;
#X connect 1 0 0 0;
#X connect 3 0 2 0;
#X connect 4 0 3 0;
#X connect 5 0 9 1;
#X connect 5 0 8 1;
#X connect 6 0 5 0;
#X connect 7 0 14 0;
#X connect 8 0 10 0;
#X connect 9 0 10 1;
#X connect 10 0 0 0;
#X connect 10 0 11 0;
#X connect 11 0 16 0;
#X connect 13 0 6 0;
#X connect 14 0 13 0;
#X connect 14 1 13 1;
#X connect 15 0 13 0;
#X connect 16 0 12 0;
#X connect 30 0 31 0;
#X connect 30 0 34 0;
#X connect 32 0 8 0;
#X connect 33 0 9 0;
#X coords 0 -1 1 1 170 120 1 100 100;
#X restore 2 6 pd bonkerwrapper;
