#N canvas 1 83 450 300 10;
#N canvas 0 83 1680 967 tonalwrap 0;
#X obj 100 100 cnv 15 200 80 empty empty empty 20 12 0 14 -196673 -66577
0;
#X floatatom 120 119 3 0 0 1 offset - -;
#X floatatom 120 138 2 0 8 1 oct - -;
#X obj 4 50 *;
#X floatatom 18 24 5 0 0 0 - - -;
#X floatatom 193 103 3 0 127 1 vol - -;
#X floatatom 193 121 4 0 2500 1 length - -;
#X floatatom 193 140 3 0 0 1 s-offset - -;
#X obj -142 549 outlet;
#X obj -142 495 makenote;
#X obj -142 517 pack 0 0;
#X floatatom -142 462 5 0 0 0 - - -;
#N canvas 1 83 1600 846 tonalwrapper 0;
#X obj 845 474 tabread scaler;
#X obj 826 431 mod;
#X floatatom 789 337 5 0 0 0 - - -;
#X obj 937 122 r scale_notes;
#X obj 788 570 +;
#X obj 773 428 /;
#X obj 773 451 int;
#X obj 777 477 *;
#X obj 873 432 r tuning_notes;
#X floatatom 786 598 5 0 0 0 - - -;
#X floatatom 770 395 5 0 0 0 - - -;
#X floatatom 816 395 5 0 0 0 - - -;
#X obj 854 525 bng 15 250 50 0 empty empty empty 17 7 0 10 -262144
-1 -1;
#X obj 779 85 inlet;
#X obj 929 782 outlet;
#X obj 1022 293 spigot 1;
#X obj 927 292 spigot 1;
#X obj 972 271 != 1;
#X obj 984 211 > 9;
#X connect 0 0 4 0;
#X connect 0 0 12 0;
#X connect 1 0 0 0;
#X connect 2 0 10 0;
#X connect 2 0 11 0;
#X connect 3 0 1 1;
#X connect 3 0 5 1;
#X connect 3 0 18 0;
#X connect 4 0 9 0;
#X connect 5 0 6 0;
#X connect 6 0 7 0;
#X connect 7 0 4 1;
#X connect 8 0 7 1;
#X connect 9 0 14 0;
#X connect 10 0 5 0;
#X connect 11 0 1 0;
#X connect 12 0 10 0;
#X connect 13 0 16 0;
#X connect 13 0 15 0;
#X connect 15 0 14 0;
#X connect 16 0 2 0;
#X connect 17 0 16 1;
#X connect 18 0 17 0;
#X connect 18 0 15 1;
#X restore -142 441 pd tonalwrapper;
#X floatatom -142 404 5 0 0 0 - - -;
#X obj -142 422 int;
#X obj -142 328 int;
#X obj -142 380 +;
#X obj -19 -1 r scale_notes;
#X obj -142 356 +;
#X text -91 350 Wrapper;
#X text 104 100 Note;
#X obj 129 33 bng 15 250 50 0 empty empty empty 17 7 0 10 -262144 -1
-1;
#X obj -173 -392 inlet;
#X floatatom -7 338 5 0 48 1 sampleoffset - -;
#X obj -22 531 outlet;
#X obj -22 477 makenote;
#X obj -22 499 pack 0 0;
#X floatatom -22 447 5 0 0 0 - - -;
#N canvas 1681 54 1600 846 tonalwrapper 0;
#X obj 845 474 tabread scaler;
#X obj 826 431 mod;
#X floatatom 789 337 5 0 0 0 - - -;
#X obj 937 122 r scale_notes;
#X obj 788 570 +;
#X obj 773 428 /;
#X obj 773 451 int;
#X obj 777 477 *;
#X obj 873 432 r tuning_notes;
#X floatatom 786 598 5 0 0 0 - - -;
#X floatatom 770 395 5 0 0 0 - - -;
#X floatatom 816 395 5 0 0 0 - - -;
#X obj 854 525 bng 15 250 50 0 empty empty empty 17 7 0 10 -262144
-1 -1;
#X obj 779 85 inlet;
#X obj 929 782 outlet;
#X obj 1022 293 spigot 1;
#X obj 927 292 spigot 1;
#X obj 972 271 != 1;
#X obj 984 211 > 9;
#X connect 0 0 4 0;
#X connect 0 0 12 0;
#X connect 1 0 0 0;
#X connect 2 0 10 0;
#X connect 2 0 11 0;
#X connect 3 0 1 1;
#X connect 3 0 5 1;
#X connect 3 0 18 0;
#X connect 4 0 9 0;
#X connect 5 0 6 0;
#X connect 6 0 7 0;
#X connect 7 0 4 1;
#X connect 8 0 7 1;
#X connect 9 0 14 0;
#X connect 10 0 5 0;
#X connect 11 0 1 0;
#X connect 12 0 10 0;
#X connect 13 0 16 0;
#X connect 13 0 15 0;
#X connect 15 0 14 0;
#X connect 16 0 2 0;
#X connect 17 0 16 1;
#X connect 18 0 17 0;
#X connect 18 0 15 1;
#X restore -22 426 pd tonalwrapper;
#X floatatom -22 384 5 0 0 0 - - -;
#X obj -22 405 int;
#X obj -22 359 +;
#X floatatom 57 391 5 0 0 0 - - -;
#X floatatom 22 392 5 0 0 0 - - -;
#X obj 269 135 bng 15 250 50 0 empty empty empty 17 7 0 10 -262144
-1 -1;
#X obj 153 -130 loadbang;
#X msg 145 -80 127;
#X msg 182 -81 200;
#X floatatom 574 57 2 0 8 1 oct - -;
#X obj 458 -31 *;
#X floatatom 472 -57 5 0 0 0 - - -;
#X obj 435 -82 r scale_notes;
#X obj 583 -48 bng 15 250 50 0 empty empty empty 17 7 0 10 -262144
-1 -1;
#X obj 21 108 * 1;
#X msg 228 -69 1;
#X floatatom 242 0 5 0 0 0 - - -;
#X msg 285 -46 2;
#X obj 269 118 bng 15 250 50 0 empty empty empty 17 7 0 10 -262144
-1 -1;
#X obj 280 8 bng 15 250 50 0 empty empty empty 17 7 0 10 -262144 -1
-1;
#X connect 1 0 16 1;
#X connect 2 0 3 0;
#X connect 3 0 1 0;
#X connect 4 0 3 1;
#X connect 4 0 21 0;
#X connect 4 0 43 0;
#X connect 5 0 33 0;
#X connect 6 0 32 0;
#X connect 7 0 23 0;
#X connect 9 0 10 0;
#X connect 9 1 10 1;
#X connect 10 0 8 0;
#X connect 11 0 9 0;
#X connect 12 0 11 0;
#X connect 13 0 14 0;
#X connect 14 0 12 0;
#X connect 15 0 18 0;
#X connect 15 0 31 0;
#X connect 16 0 13 0;
#X connect 17 0 4 0;
#X connect 18 0 16 0;
#X connect 21 0 2 0;
#X connect 22 0 15 0;
#X connect 23 0 31 1;
#X connect 25 0 26 0;
#X connect 25 1 26 1;
#X connect 26 0 24 0;
#X connect 27 0 25 0;
#X connect 28 0 27 0;
#X connect 29 0 30 0;
#X connect 30 0 28 0;
#X connect 31 0 29 0;
#X connect 32 0 25 2;
#X connect 32 0 9 2;
#X connect 33 0 25 1;
#X connect 33 0 9 1;
#X connect 34 0 46 0;
#X connect 34 0 4 0;
#X connect 35 0 36 0;
#X connect 35 0 37 0;
#X connect 35 0 44 0;
#X connect 36 0 5 0;
#X connect 37 0 6 0;
#X connect 38 0 39 0;
#X connect 40 0 39 1;
#X connect 40 0 42 0;
#X connect 41 0 40 0;
#X connect 42 0 38 0;
#X connect 43 0 7 0;
#X connect 44 0 45 0;
#X connect 45 0 43 1;
#X connect 45 0 48 0;
#X connect 46 0 45 0;
#X connect 47 0 44 0;
#X connect 48 0 4 0;
#X coords 0 -1 1 1 200 80 1 100 100;
#X restore 3 -1 pd tonalwrap;
