#N canvas 1 83 372 178 10;
#N canvas 0 0 1054 699 wahwahi 0;
#X obj 100 100 cnv 15 80 170 empty empty empty 20 12 0 14 -204786 -66577
0;
#X obj 109 127 hsl 60 8 0 3000 0 0 empty empty empty 20 8 0 8 -262144
-1 -1 0 0;
#X obj 110 150 hsl 60 8 0 3000 0 0 empty empty empty 20 8 0 8 -262144
-1 -1 0 0;
#X obj 110 171 hsl 60 8 0 1000 0 0 empty empty empty 20 8 0 8 -262144
-1 -1 0 0;
#X obj 112 193 hsl 60 8 0 100 0 0 empty empty empty 20 8 0 8 -262144
-1 -1 0 0;
#X obj 112 214 hsl 60 8 -15 15 0 0 empty empty empty 20 8 0 8 -262144
-1 -1 0 0;
#X obj 113 237 hsl 60 8 0 10 0 0 empty empty empty 20 8 0 8 -262144
-1 -1 0 0;
#X text 109 113 Min Freq;
#X text 108 134 Maxi Freq;
#X text 106 158 Sensibility;
#X text 107 179 Maxstep;
#X text 107 200 Gain [;
#X text 108 223 Bandwidth;
#X text 115 101 wahwah;
#X obj 248 510 wahwah~ -------------------------------;
#X obj 112 260 hsl 60 8 0 100 0 0 empty empty empty 20 8 0 8 -262144
-1 -1 0 0;
#X text 108 244 Pedal;
#X obj 163 101 tgl 15 0 empty empty empty 17 7 0 10 -262144 -1 -1 0
1;
#X obj 271 975 +~;
#X obj 199 875 spigot~;
#X obj 305 805 spigot~;
#X floatatom 103 427 5 0 0 0 - - -;
#X obj 62 456 == 0;
#X obj 132 457 == 1;
#X obj 63 479 route 1;
#X obj 133 481 route 1;
#X obj 62 504 bng 15 250 50 0 empty empty empty 17 7 0 10 -262144 -1
-1;
#X obj 127 509 bng 15 250 50 0 empty empty empty 17 7 0 10 -262144
-1 -1;
#X msg 40 534 1;
#X msg 78 535 0;
#X msg 128 537 1;
#X msg 160 536 0;
#X floatatom 238 854 1 0 0 0 - - -;
#X floatatom 344 785 1 0 0 0 - - -;
#X obj 332 286 inlet~;
#X obj 272 1062 outlet~;
#X connect 1 0 14 1;
#X connect 2 0 14 2;
#X connect 3 0 14 3;
#X connect 4 0 14 4;
#X connect 5 0 14 5;
#X connect 6 0 14 6;
#X connect 14 0 19 0;
#X connect 15 0 14 7;
#X connect 17 0 21 0;
#X connect 18 0 35 0;
#X connect 19 0 18 0;
#X connect 20 0 18 1;
#X connect 21 0 22 0;
#X connect 21 0 23 0;
#X connect 22 0 24 0;
#X connect 23 0 25 0;
#X connect 24 0 26 0;
#X connect 25 0 27 0;
#X connect 26 0 28 0;
#X connect 26 0 29 0;
#X connect 27 0 30 0;
#X connect 27 0 31 0;
#X connect 28 0 33 0;
#X connect 29 0 32 0;
#X connect 30 0 32 0;
#X connect 31 0 33 0;
#X connect 32 0 19 1;
#X connect 33 0 20 1;
#X connect 34 0 14 0;
#X connect 34 0 20 0;
#X coords 0 -1 1 1 80 175 1 100 100;
#X restore -86 -371 pd wahwahi;
