#N canvas 1 111 148 78 10;
#N canvas 460 145 787 851 machinegun 0;
#X obj 100 100 cnv 15 140 60 empty empty empty 20 12 0 14 -261682 -66577
0;
#X obj -153 -218 inlet;
#X obj -151 -150 bng 15 250 50 0 empty empty empty 17 7 0 10 -262144
-1 -1;
#X obj -140 437 outlet;
#X obj -146 266 bng 15 250 50 0 empty empty empty 17 7 0 10 -262144
-1 -1;
#X obj -316 116 delay;
#X obj -201 113 delay;
#X obj -174 66 random;
#X obj -289 70 random;
#X floatatom -289 94 5 0 0 0 - - -;
#X floatatom -174 87 5 0 0 0 - - -;
#X obj 108 124 hsl 90 10 1 6 0 0 empty empty force -2 -5 0 10 -262144
-1 -1 0 1;
#X floatatom 191 -110 5 0 0 0 - - -;
#X obj 127 -146 int;
#X obj -348 69 spigot 1;
#X obj -233 67 spigot 1;
#X obj -91 111 delay;
#X obj -64 64 random;
#X floatatom -64 85 5 0 0 0 - - -;
#X obj -123 65 spigot 1;
#X obj 14 111 delay;
#X obj 41 64 random;
#X floatatom 41 85 5 0 0 0 - - -;
#X obj -18 65 spigot 1;
#X obj 108 143 hsl 90 10 0 300 0 0 empty empty accurancy -2 -5 0 10
-262144 -1 -1 0 1;
#X floatatom -8 -143 5 0 0 0 - - -;
#X obj 152 -52 > 1;
#X floatatom -311 46 1 0 0 0 - - -;
#X floatatom -196 45 1 0 0 0 - - -;
#X floatatom -87 43 1 0 0 0 - - -;
#X floatatom 19 41 1 0 0 0 - - -;
#X obj 180 -53 > 2;
#X obj 213 -55 > 3;
#X obj 248 -57 > 4;
#X text 106 99 MachineGun;
#X obj 177 102 tgl 15 0 empty empty through 17 7 0 10 -262144 -1 -1
1 1;
#X obj -158 173 spigot 1;
#X floatatom -109 151 1 0 0 0 - - -;
#X msg 241 23 1;
#X msg 265 54 0;
#X obj 312 -14 loadbang;
#X floatatom 204 121 2 0 0 0 - - -;
#X floatatom 204 139 5 0 0 0 - - -;
#X connect 1 0 2 0;
#X connect 2 0 14 0;
#X connect 2 0 8 0;
#X connect 2 0 15 0;
#X connect 2 0 19 0;
#X connect 2 0 7 0;
#X connect 2 0 17 0;
#X connect 2 0 23 0;
#X connect 2 0 21 0;
#X connect 2 0 36 0;
#X connect 4 0 3 0;
#X connect 5 0 4 0;
#X connect 6 0 4 0;
#X connect 7 0 10 0;
#X connect 8 0 9 0;
#X connect 9 0 5 1;
#X connect 10 0 6 1;
#X connect 11 0 13 0;
#X connect 11 0 41 0;
#X connect 12 0 26 0;
#X connect 12 0 31 0;
#X connect 12 0 32 0;
#X connect 12 0 33 0;
#X connect 13 0 12 0;
#X connect 14 0 5 0;
#X connect 15 0 6 0;
#X connect 16 0 4 0;
#X connect 17 0 18 0;
#X connect 18 0 16 1;
#X connect 19 0 16 0;
#X connect 20 0 4 0;
#X connect 21 0 22 0;
#X connect 22 0 20 1;
#X connect 23 0 20 0;
#X connect 24 0 25 0;
#X connect 24 0 42 0;
#X connect 25 0 8 1;
#X connect 25 0 7 1;
#X connect 25 0 17 1;
#X connect 25 0 21 1;
#X connect 26 0 27 0;
#X connect 27 0 14 1;
#X connect 28 0 15 1;
#X connect 29 0 19 1;
#X connect 30 0 23 1;
#X connect 31 0 28 0;
#X connect 32 0 29 0;
#X connect 33 0 30 0;
#X connect 35 0 37 0;
#X connect 36 0 4 0;
#X connect 37 0 36 1;
#X connect 38 0 35 0;
#X connect 39 0 11 0;
#X connect 39 0 24 0;
#X connect 40 0 38 0;
#X connect 40 0 39 0;
#X coords 0 -1 1 1 140 60 1 100 100;
#X restore -304 -361 pd machinegun;
