#N canvas 126 177 968 761 10;
#N canvas 0 83 1680 967 djmixer 0;
#X obj 101 101 cnv 15 950 750 empty empty empty 20 12 0 14 -86277 -66577
0;
#X obj 478 713 hsl 200 40 -100 100 0 0 empty empty empty -2 -8 0 10
-260097 -1 -1 19900 1;
#X obj 570 695 bng 18 250 50 0 empty empty empty 17 7 0 10 -260097
-1 -1;
#X obj 662 695 bng 18 250 50 0 empty empty empty 17 7 0 10 -259521
-1 -1;
#X obj 475 695 bng 18 250 50 0 empty empty empty 17 7 0 10 -259457
-1 -1;
#X obj 1279 803 line;
#N canvas 0 83 1680 967 stereocrossfade~ 0;
#X obj 167 29 inlet~;
#X obj 334 31 inlet~;
#X obj 298 693 outlet~;
#X obj 559 32 inlet;
#X floatatom 560 58 5 0 0 0 - - -;
#X obj 755 107 hsl 128 20 -100 100 0 0 empty empty empty -2 -8 0 10
-260097 -1 -1 12700 1;
#X floatatom 752 136 5 0 0 0 - - -;
#X obj 214 471 *~;
#X obj 404 481 *~;
#X floatatom 419 461 5 0 0 0 - - -;
#X floatatom 229 451 5 0 0 0 - - -;
#X obj 780 333 clip 0 100;
#X msg 731 183 100;
#X obj 749 211 -;
#X floatatom 749 235 5 0 0 0 - - -;
#X obj 780 264 - 200;
#X floatatom 780 289 5 0 0 0 - - -;
#X floatatom 780 358 5 0 0 0 - - -;
#X obj 780 311 abs;
#X obj 419 439 / 100;
#X obj 229 430 / 100;
#X obj 700 263 clip 0 100;
#X floatatom 699 286 5 0 0 0 - - -;
#X obj 215 30 inlet~;
#X obj 385 35 inlet~;
#X obj 280 476 *~;
#X floatatom 295 456 5 0 0 0 - - -;
#X obj 295 435 / 100;
#X obj 373 702 outlet~;
#X obj 487 478 *~;
#X floatatom 502 458 5 0 0 0 - - -;
#X obj 502 436 / 100;
#X connect 0 0 7 0;
#X connect 1 0 8 0;
#X connect 3 0 4 0;
#X connect 4 0 5 0;
#X connect 5 0 6 0;
#X connect 6 0 13 1;
#X connect 6 0 12 0;
#X connect 7 0 2 0;
#X connect 8 0 2 0;
#X connect 9 0 8 1;
#X connect 10 0 7 1;
#X connect 11 0 17 0;
#X connect 12 0 13 0;
#X connect 13 0 14 0;
#X connect 14 0 15 0;
#X connect 14 0 21 0;
#X connect 15 0 16 0;
#X connect 16 0 18 0;
#X connect 17 0 19 0;
#X connect 17 0 31 0;
#X connect 18 0 11 0;
#X connect 19 0 9 0;
#X connect 20 0 10 0;
#X connect 21 0 22 0;
#X connect 22 0 20 0;
#X connect 22 0 27 0;
#X connect 23 0 25 0;
#X connect 24 0 29 0;
#X connect 25 0 28 0;
#X connect 26 0 25 1;
#X connect 27 0 26 0;
#X connect 29 0 28 0;
#X connect 30 0 29 1;
#X connect 31 0 30 0;
#X restore 431 1115 pd stereocrossfade~;
#N canvas 0 83 1680 967 deck1 0;
#X obj 101 100 cnv 15 300 650 empty empty empty 20 12 0 14 -1 -66577
0;
#X symbolatom 106 107 48 0 0 0 - - -;
#X obj -779 275 bng 15 250 50 0 empty empty empty 17 7 0 10 -262144
-1 -1;
#N canvas 358 108 759 533 load_random_track 0;
#X obj 116 153 folder_list;
#X obj 116 180 t a b;
#X obj 222 212 counter;
#X floatatom 222 239 5 0 0 0 - - -;
#X msg 222 183 set 1;
#X obj 130 383 msgfile;
#X obj 207 262 int;
#X msg 107 208 add \$1;
#X obj 116 125 t a b b;
#X msg 73 126 clear;
#X obj 165 286 random;
#X obj 99 -2 inlet;
#X msg 192 336 goto \$1;
#X msg 155 337 this;
#X obj 165 311 t b a;
#X msg 184 383 print;
#X obj 104 425 print;
#X obj 165 262 t b b;
#X obj 116 85 route symbol bang;
#X obj 104 27 bng 15 250 50 0 empty empty empty 17 7 0 10 -262144 -1
-1;
#X obj 170 424 outlet;
#X text 260 240 <-- number of files;
#X text 189 408 <-- outputs random filename;
#X text 227 85 <-- sorts bangs (output) from symbols (set);
#X text -14 0 force random -->;
#X text 226 383 <-- check what's loaded;
#X text 4 424 for testing -->;
#X msg 139 40 symbol /home/joel/Master/mixdown/*.wav;
#X connect 0 0 1 0;
#X connect 1 0 7 0;
#X connect 1 1 2 0;
#X connect 2 0 3 0;
#X connect 3 0 6 1;
#X connect 4 0 2 0;
#X connect 5 0 16 0;
#X connect 5 0 20 0;
#X connect 6 0 10 1;
#X connect 7 0 5 0;
#X connect 8 0 0 0;
#X connect 8 1 4 0;
#X connect 8 2 9 0;
#X connect 9 0 5 0;
#X connect 10 0 14 0;
#X connect 11 0 19 0;
#X connect 12 0 5 0;
#X connect 13 0 5 0;
#X connect 14 0 13 0;
#X connect 14 1 12 0;
#X connect 15 0 5 0;
#X connect 17 0 10 0;
#X connect 17 1 6 0;
#X connect 18 0 8 0;
#X connect 18 1 17 0;
#X connect 19 0 18 0;
#X connect 19 0 27 0;
#X connect 27 0 18 0;
#X restore -779 297 pd load_random_track;
#X msg -779 339 open \$1 l;
#X msg -713 355 start;
#X msg -713 378 close;
#X obj -779 424 sfplay 2;
#X msg -712 402 goto \$1;
#X obj 358 154 bng 25 250 50 0 empty empty empty 17 7 0 10 -258753
-1 -1;
#X obj -711 129 bng 15 250 50 0 empty empty empty 17 7 0 10 -262144
-1 -1;
#X obj -711 170 bng 15 250 50 0 empty empty empty 17 7 0 10 -262144
-1 -1;
#X obj -711 213 bng 15 250 50 0 empty empty empty 17 7 0 10 -262144
-1 -1;
#X text 358 156 Next;
#X obj -711 233 delay 25;
#X obj -711 191 delay 25;
#X obj -711 149 delay 25;
#X obj 107 195 vsl 25 90 0 1 0 0 empty empty Input 0 -9 0 10 -259137
-1 -1 7900 1;
#X obj -782 625 *~;
#X obj -757 625 *~;
#N canvas 0 83 1680 967 djdelay1 0;
#X floatatom 440 170 0 0 0 0 - - -;
#X obj 440 218 line~;
#X obj 440 194 pack 0 100;
#X floatatom 365 140 0 0 0 0 - - -;
#X floatatom 521 246 0 0 0 0 - - -;
#X obj 521 318 line~;
#X obj 521 294 pack 0 100;
#X obj 521 270 * 0.01;
#X obj 308 301 +~;
#X obj 500 344 *~;
#X obj 365 236 *~;
#X obj 365 164 / 100;
#X obj 308 325 hip~ 5;
#X obj 365 212 +~ 1;
#X obj 365 188 osc~ 0;
#X obj 365 260 +~ 1.46;
#X text 418 140 <-- cycle frequency (hundredths);
#X text 493 171 <-- cycle depth (msec);
#X text 570 247 <-- feedback (hundredths);
#X obj 365 284 vd~ G03-del;
#X obj 500 392 delwrite~ G03-del 1000;
#X obj 500 368 clip~ -1 1;
#X obj 433 -143 inlet;
#X obj 359 -143 inlet~;
#X obj 491 -142 inlet;
#X obj 560 -142 inlet;
#X obj 317 556 outlet~;
#X connect 0 0 2 0;
#X connect 1 0 10 1;
#X connect 2 0 1 0;
#X connect 3 0 11 0;
#X connect 4 0 7 0;
#X connect 5 0 9 1;
#X connect 6 0 5 0;
#X connect 7 0 6 0;
#X connect 8 0 12 0;
#X connect 9 0 21 0;
#X connect 10 0 15 0;
#X connect 11 0 14 0;
#X connect 12 0 9 0;
#X connect 12 0 26 0;
#X connect 13 0 10 0;
#X connect 14 0 13 0;
#X connect 15 0 19 0;
#X connect 19 0 8 1;
#X connect 21 0 20 0;
#X connect 22 0 3 0;
#X connect 23 0 8 0;
#X connect 24 0 0 0;
#X connect 25 0 4 0;
#X restore -161 671 pd djdelay1;
#X floatatom -118 642 0 0 0 0 - - -;
#X floatatom -137 640 0 0 0 0 - - -;
#X floatatom -85 641 0 0 0 0 - - -;
#N canvas 0 83 1680 967 djoctaver1 0;
#X obj 762 -99 fiddle~ 2048;
#X obj 830 -76 unpack;
#X obj 830 -52 moses 1;
#X obj 904 -82 mtof;
#X obj 976 84 samplerate~;
#X obj 923 83 t f b;
#X obj 763 -124 delwrite~ G06-del 100;
#X obj 803 161 delread~ G06-del;
#X obj 825 209 vd~ G06-del;
#X obj 802 233 +~;
#X obj 954 137 +;
#X obj 954 189 line~;
#X obj 954 166 pack 0 20;
#X text 1077 -74 fundamental frequency;
#X text 1145 -51 1/2 period \, in msec;
#X text 1010 128 estimate fiddle~ delay;
#X obj 976 110 expr 2048000/$f1;
#X text 1012 143 as one window (in msec);
#X obj 735 -152 inlet~;
#X obj 803 296 outlet~;
#X floatatom 988 -133 5 0 0 0 - - -;
#X obj 972 -84 pack f f;
#X obj 934 17 expr $f1/$f2;
#X obj 977 -155 inlet;
#X connect 0 2 1 0;
#X connect 1 0 2 0;
#X connect 2 1 3 0;
#X connect 3 0 21 1;
#X connect 4 0 16 0;
#X connect 5 0 10 0;
#X connect 5 1 4 0;
#X connect 7 0 9 0;
#X connect 8 0 9 1;
#X connect 9 0 19 0;
#X connect 10 0 12 0;
#X connect 11 0 8 0;
#X connect 12 0 11 0;
#X connect 16 0 10 1;
#X connect 16 0 7 0;
#X connect 18 0 0 0;
#X connect 18 0 6 0;
#X connect 20 0 21 0;
#X connect 21 0 22 0;
#X connect 22 0 5 0;
#X connect 23 0 20 0;
#X restore -125 262 pd djoctaver1;
#X obj -125 283 *~;
#X obj -495 991 *~;
#X obj 116 390 cnv 15 150 150 empty empty empty 20 12 0 14 -112641
-66577 0;
#X obj 194 424 vsl 25 100 0 150 0 0 empty empty fback 0 -9 0 10 -259969
-1 -1 6800 1;
#X obj 158 424 vsl 25 100 0 100 0 0 empty empty depth 0 -9 0 10 -259201
-1 -1 1200 1;
#X obj 124 424 vsl 25 100 0 50 0 0 empty empty freq 0 -9 0 10 -258945
-1 -1 800 1;
#X text 154 388 Delay 1;
#N canvas 0 83 1680 967 djpitch1 0;
#X floatatom 424 224 0 0 0 0 - - -;
#X obj 487 495 *~;
#X obj 610 432 line~;
#X floatatom 642 249 0 0 0 0 - - -;
#X obj 610 406 pack 0 200;
#X obj 424 280 exp;
#X floatatom 424 306 6 0 0 0 - - -;
#X obj 424 396 /;
#X obj 551 326 * 0.001;
#X obj 719 502 line~;
#X obj 719 477 pack 0 200;
#X floatatom 719 426 0 0 0 0 - - -;
#X obj 487 521 +~;
#X obj 424 547 cos~;
#X obj 424 574 *~;
#X obj 424 603 +~;
#X obj 511 454 wrap~;
#X obj 656 497 *~;
#X obj 656 530 +~;
#X obj 593 557 cos~;
#X obj 593 584 *~;
#X obj 551 353 t b f;
#X floatatom 424 422 6 0 0 0 - - -;
#X obj 511 427 +~ 0.5;
#X obj 424 495 -~ 0.5;
#X obj 424 521 *~ 0.5;
#X obj 593 496 -~ 0.5;
#X obj 593 529 *~ 0.5;
#X obj 424 333 - 1;
#X obj 424 254 * 0.05776;
#X obj 424 359 * -1;
#X text 458 223 <-- transposition;
#X text 501 236 (halftones);
#X text 487 300 speed;
#X text 486 314 change;
#X text 686 248 <--window (msec);
#X text 459 389 tape head;
#X obj 424 453 phasor~;
#X obj 719 453 max 1.5;
#X obj 642 276 max 1;
#X text 460 402 rotation freq;
#X obj 487 547 vd~ G09-del;
#X obj 656 559 vd~ G09-del;
#X obj 259 171 delwrite~ G09-del 5000;
#X obj 260 101 inlet~;
#X obj 442 49 inlet;
#X obj 609 65 inlet;
#X obj 423 753 outlet~;
#X obj 832 106 inlet;
#X connect 0 0 29 0;
#X connect 1 0 12 0;
#X connect 2 0 1 1;
#X connect 2 0 17 1;
#X connect 3 0 39 0;
#X connect 4 0 2 0;
#X connect 5 0 6 0;
#X connect 6 0 28 0;
#X connect 7 0 22 0;
#X connect 8 0 21 0;
#X connect 9 0 12 1;
#X connect 9 0 18 1;
#X connect 10 0 9 0;
#X connect 11 0 38 0;
#X connect 12 0 41 0;
#X connect 13 0 14 0;
#X connect 14 0 15 0;
#X connect 15 0 47 0;
#X connect 16 0 17 0;
#X connect 16 0 26 0;
#X connect 17 0 18 0;
#X connect 18 0 42 0;
#X connect 19 0 20 0;
#X connect 20 0 15 1;
#X connect 21 0 7 0;
#X connect 21 1 7 1;
#X connect 22 0 37 0;
#X connect 23 0 16 0;
#X connect 24 0 25 0;
#X connect 25 0 13 0;
#X connect 26 0 27 0;
#X connect 27 0 19 0;
#X connect 28 0 30 0;
#X connect 29 0 5 0;
#X connect 30 0 7 0;
#X connect 37 0 1 0;
#X connect 37 0 24 0;
#X connect 37 0 23 0;
#X connect 38 0 10 0;
#X connect 39 0 8 0;
#X connect 39 0 4 0;
#X connect 41 0 14 1;
#X connect 42 0 20 1;
#X connect 44 0 43 0;
#X connect 45 0 0 0;
#X connect 46 0 3 0;
#X connect 48 0 11 0;
#X restore -125 569 pd djpitch1;
#X floatatom -98 440 5 0 0 0 - - -;
#X floatatom -64 441 5 0 0 0 - - -;
#X obj -126 442 - 4;
#X floatatom -102 505 5 0 0 0 - - -;
#X obj -156 444 bng 15 250 50 0 empty empty empty 17 7 0 10 -262144
-1 -1;
#X msg -156 466 1;
#X obj -102 483 -;
#X obj 250 184 cnv 15 140 200 empty empty empty 20 12 0 14 -112641
-66577 0;
#X obj 280 217 vradio 16 1 0 9 empty empty S 0 -8 0 10 -197889 -1 -1
1;
#X text 268 278 0;
#X text 256 262 + 1;
#X text 256 248 + 2;
#X text 256 233 + 3;
#X text 256 216 + 4;
#X text 264 183 Pitch Shifter 1;
#X text 256 294 - 1;
#X text 256 311 - 2;
#X text 256 328 - 3;
#X text 256 344 - 4;
#X obj 300 219 vsl 20 140 0 100 0 0 empty empty msec 0 -9 0 10 -198145
-1 -1 1400 1;
#X obj 324 219 vsl 20 140 0 100 0 0 empty empty delay 0 -9 0 10 -198145
-1 -1 11900 1;
#X obj 135 184 cnv 15 110 150 empty empty empty 20 12 0 14 -112641
-66577 0;
#X obj 180 223 vsl 25 90 0 4 0 0 empty empty vol 0 -9 0 10 -256641
-1 -1 5100 1;
#X obj 146 223 vsl 25 90 0 1000 0 0 empty empty ratio 0 -9 0 10 -256001
-1 -1 5800 1;
#X text 151 183 Octaver;
#X obj 356 234 vsl 15 120 -100 100 0 0 empty empty mix 0 -9 0 10 -13381
-1 -1 4400 1;
#X obj 236 412 vsl 15 120 -100 100 0 0 empty empty mix 0 -9 0 10 -13381
-1 -1 900 1;
#X obj 216 206 vsl 15 120 -100 100 0 0 empty empty mix 0 -9 0 10 -13381
-1 -1 2300 1;
#X obj -450 1004 *~;
#X msg -736 449 done;
#X obj -735 44 bng 15 250 50 0 empty empty empty 17 7 0 10 -262144
-1 -1;
#X obj -638 753 *~;
#X obj -609 753 *~;
#X obj -43 906 *~;
#X obj -13 906 *~;
#X floatatom -536 563 5 0 0 0 - - -;
#X msg -539 459 0;
#X obj -252 113 int;
#X obj -226 113 + 1;
#X obj -252 91 metro;
#X floatatom -242 49 5 0 0 0 - - -;
#X obj -252 134 mod 2;
#X obj -252 155 route 0 1;
#X obj -247 189 bng 15 250 50 0 empty empty empty 17 7 0 10 -262144
-1 -1;
#X obj -222 191 bng 15 250 50 0 empty empty empty 17 7 0 10 -262144
-1 -1;
#X obj -249 212 spigot 1;
#X obj -189 216 spigot 1;
#X obj -113 133 == 0;
#X obj -113 156 route 1;
#X obj -535 538 line;
#X floatatom -536 492 5 0 0 0 - - -;
#X obj -816 704 hip~ 5;
#X obj -754 663 hip~ 5;
#X obj -535 516 pack 0 25;
#X obj -780 139 openpanel;
#X obj 358 127 bng 25 250 50 0 empty empty empty 17 7 0 10 -259457
-1 -1;
#X text 356 130 File;
#X obj 107 127 cnv 15 200 50 empty empty empty 20 12 0 14 -112641 -66577
0;
#X obj 274 143 tgl 25 0 empty empty empty 17 7 0 10 -260097 -1 -1 0
1;
#X obj 249 143 bng 25 250 50 0 empty empty empty 17 7 0 10 -259777
-1 -1;
#X obj 119 143 hsl 128 25 30 500 0 0 empty empty empty -2 -8 0 10 -259713
-1 -1 300 1;
#X text 124 126 Gridder;
#X floatatom 254 366 4 0 0 0 - - -;
#X obj -128 418 line;
#X obj -128 396 pack 0 25;
#X obj 287 366 hsl 100 15 -40 40 0 0 empty empty empty -2 -8 0 10 -260097
-1 -1 6379 1;
#X msg -649 410 stop;
#X msg -349 67 bang;
#X msg -379 8 loadbang;
#X obj 319 127 bng 25 250 50 0 empty empty empty 17 7 0 10 -3010 -1
-1;
#X text 326 129 >;
#X obj 319 154 bng 25 250 50 0 empty empty empty 17 7 0 10 -259073
-1 -1;
#X text 323 157 ||;
#N canvas 0 83 1680 967 crossfade~ 0;
#X obj 167 29 inlet~;
#X obj 334 31 inlet~;
#X obj 297 530 outlet~;
#X obj 559 32 inlet;
#X floatatom 560 58 5 0 0 0 - - -;
#X obj 755 107 hsl 128 20 -100 100 0 0 empty empty empty -2 -8 0 10
-260097 -1 -1 2455 1;
#X floatatom 752 136 5 0 0 0 - - -;
#X obj 214 471 *~;
#X obj 361 471 *~;
#X floatatom 376 451 5 0 0 0 - - -;
#X floatatom 229 451 5 0 0 0 - - -;
#X obj 780 333 clip 0 100;
#X msg 731 183 100;
#X obj 749 211 -;
#X floatatom 749 235 5 0 0 0 - - -;
#X obj 780 264 - 200;
#X floatatom 780 289 5 0 0 0 - - -;
#X floatatom 780 358 5 0 0 0 - - -;
#X obj 780 311 abs;
#X obj 376 429 / 100;
#X obj 229 430 / 100;
#X obj 700 263 clip 0 100;
#X floatatom 699 286 5 0 0 0 - - -;
#X connect 0 0 7 0;
#X connect 1 0 8 0;
#X connect 3 0 4 0;
#X connect 4 0 5 0;
#X connect 5 0 6 0;
#X connect 6 0 13 1;
#X connect 6 0 12 0;
#X connect 7 0 2 0;
#X connect 8 0 2 0;
#X connect 9 0 8 1;
#X connect 10 0 7 1;
#X connect 11 0 17 0;
#X connect 12 0 13 0;
#X connect 13 0 14 0;
#X connect 14 0 15 0;
#X connect 14 0 21 0;
#X connect 15 0 16 0;
#X connect 16 0 18 0;
#X connect 17 0 19 0;
#X connect 18 0 11 0;
#X connect 19 0 9 0;
#X connect 20 0 10 0;
#X connect 21 0 22 0;
#X connect 22 0 20 0;
#X restore -163 335 pd crossfade~;
#N canvas 0 83 1680 967 crossfade~ 0;
#X obj 167 29 inlet~;
#X obj 334 31 inlet~;
#X obj 297 530 outlet~;
#X obj 559 32 inlet;
#X floatatom 560 58 5 0 0 0 - - -;
#X obj 755 107 hsl 128 20 -100 100 0 0 empty empty empty -2 -8 0 10
-260097 -1 -1 4696 1;
#X floatatom 752 136 5 0 0 0 - - -;
#X obj 214 471 *~;
#X obj 361 471 *~;
#X floatatom 376 451 5 0 0 0 - - -;
#X floatatom 229 451 5 0 0 0 - - -;
#X obj 780 333 clip 0 100;
#X msg 731 183 100;
#X obj 749 211 -;
#X floatatom 749 235 5 0 0 0 - - -;
#X obj 780 264 - 200;
#X floatatom 780 289 5 0 0 0 - - -;
#X floatatom 780 358 5 0 0 0 - - -;
#X obj 780 311 abs;
#X obj 376 429 / 100;
#X obj 229 430 / 100;
#X obj 700 263 clip 0 100;
#X floatatom 699 286 5 0 0 0 - - -;
#X connect 0 0 7 0;
#X connect 1 0 8 0;
#X connect 3 0 4 0;
#X connect 4 0 5 0;
#X connect 5 0 6 0;
#X connect 6 0 13 1;
#X connect 6 0 12 0;
#X connect 7 0 2 0;
#X connect 8 0 2 0;
#X connect 9 0 8 1;
#X connect 10 0 7 1;
#X connect 11 0 17 0;
#X connect 12 0 13 0;
#X connect 13 0 14 0;
#X connect 14 0 15 0;
#X connect 14 0 21 0;
#X connect 15 0 16 0;
#X connect 16 0 18 0;
#X connect 17 0 19 0;
#X connect 18 0 11 0;
#X connect 19 0 9 0;
#X connect 20 0 10 0;
#X connect 21 0 22 0;
#X connect 22 0 20 0;
#X restore -161 607 pd crossfade~;
#N canvas 0 83 1680 967 crossfade~ 0;
#X obj 167 29 inlet~;
#X obj 334 31 inlet~;
#X obj 297 530 outlet~;
#X obj 559 32 inlet;
#X floatatom 560 58 5 0 0 0 - - -;
#X obj 755 107 hsl 128 20 -100 100 0 0 empty empty empty -2 -8 0 10
-260097 -1 -1 961 1;
#X floatatom 752 136 5 0 0 0 - - -;
#X obj 214 471 *~;
#X obj 361 471 *~;
#X floatatom 376 451 5 0 0 0 - - -;
#X floatatom 229 451 5 0 0 0 - - -;
#X obj 780 333 clip 0 100;
#X msg 731 183 100;
#X obj 749 211 -;
#X floatatom 749 235 5 0 0 0 - - -;
#X obj 780 264 - 200;
#X floatatom 780 289 5 0 0 0 - - -;
#X floatatom 780 358 5 0 0 0 - - -;
#X obj 780 311 abs;
#X obj 376 429 / 100;
#X obj 229 430 / 100;
#X obj 700 263 clip 0 100;
#X floatatom 699 286 5 0 0 0 - - -;
#X connect 0 0 7 0;
#X connect 1 0 8 0;
#X connect 3 0 4 0;
#X connect 4 0 5 0;
#X connect 5 0 6 0;
#X connect 6 0 13 1;
#X connect 6 0 12 0;
#X connect 7 0 2 0;
#X connect 8 0 2 0;
#X connect 9 0 8 1;
#X connect 10 0 7 1;
#X connect 11 0 17 0;
#X connect 12 0 13 0;
#X connect 13 0 14 0;
#X connect 14 0 15 0;
#X connect 14 0 21 0;
#X connect 15 0 16 0;
#X connect 16 0 18 0;
#X connect 17 0 19 0;
#X connect 18 0 11 0;
#X connect 19 0 9 0;
#X connect 20 0 10 0;
#X connect 21 0 22 0;
#X connect 22 0 20 0;
#X restore -199 710 pd crossfade~;
#X obj 180 565 cnv 15 160 160 empty empty empty 20 12 0 14 -13381 -66577
0;
#X obj 274 612 vsl 25 90 0 1 0 0 empty empty Mix1 0 -9 0 10 -259137
-1 -1 6200 1;
#X obj 219 612 vsl 25 90 0 1 0 0 empty empty Orig 0 -9 0 10 -259585
-1 -1 7200 1;
#X obj 246 612 vsl 25 90 0 1 0 0 empty empty Fx 0 -9 0 10 -260417 -1
-1 0 1;
#X obj -509 1035 outlet~;
#X obj -445 1039 outlet~;
#X msg -293 18 20;
#X obj -781 28 r starttt;
#X connect 1 0 4 0;
#X connect 2 0 3 0;
#X connect 3 0 1 0;
#X connect 4 0 7 0;
#X connect 5 0 7 0;
#X connect 6 0 7 0;
#X connect 7 0 18 0;
#X connect 7 1 19 0;
#X connect 7 2 62 0;
#X connect 8 0 7 0;
#X connect 9 0 10 0;
#X connect 10 0 16 0;
#X connect 10 0 6 0;
#X connect 11 0 15 0;
#X connect 11 0 2 0;
#X connect 12 0 14 0;
#X connect 12 0 5 0;
#X connect 15 0 12 0;
#X connect 16 0 11 0;
#X connect 17 0 83 0;
#X connect 18 0 24 0;
#X connect 18 0 84 0;
#X connect 18 0 106 0;
#X connect 19 0 24 0;
#X connect 19 0 85 0;
#X connect 19 0 106 0;
#X connect 20 0 108 1;
#X connect 21 0 20 2;
#X connect 22 0 20 1;
#X connect 23 0 20 3;
#X connect 24 0 25 0;
#X connect 25 0 106 1;
#X connect 26 0 113 0;
#X connect 28 0 23 0;
#X connect 29 0 21 0;
#X connect 30 0 22 0;
#X connect 32 0 107 1;
#X connect 33 0 32 2;
#X connect 34 0 32 3;
#X connect 35 0 37 0;
#X connect 35 0 39 1;
#X connect 36 0 98 0;
#X connect 37 0 38 0;
#X connect 38 0 39 0;
#X connect 39 0 36 0;
#X connect 41 0 35 0;
#X connect 52 0 33 0;
#X connect 53 0 34 0;
#X connect 55 0 25 1;
#X connect 56 0 24 1;
#X connect 58 0 107 2;
#X connect 59 0 108 2;
#X connect 60 0 106 2;
#X connect 61 0 114 0;
#X connect 62 0 63 0;
#X connect 63 0 9 0;
#X connect 64 0 26 0;
#X connect 65 0 61 0;
#X connect 66 0 26 0;
#X connect 67 0 61 0;
#X connect 68 0 18 1;
#X connect 68 0 19 1;
#X connect 69 0 83 0;
#X connect 70 0 71 0;
#X connect 70 0 74 0;
#X connect 71 0 70 1;
#X connect 72 0 70 0;
#X connect 72 0 92 0;
#X connect 73 0 72 1;
#X connect 74 0 75 0;
#X connect 75 0 76 0;
#X connect 75 1 77 0;
#X connect 76 0 78 0;
#X connect 77 0 79 0;
#X connect 78 0 17 0;
#X connect 79 0 69 0;
#X connect 80 0 81 0;
#X connect 81 0 17 0;
#X connect 82 0 68 0;
#X connect 83 0 86 0;
#X connect 84 0 64 0;
#X connect 85 0 65 0;
#X connect 86 0 82 0;
#X connect 87 0 4 0;
#X connect 88 0 87 0;
#X connect 91 0 80 0;
#X connect 91 0 79 1;
#X connect 91 0 78 1;
#X connect 93 0 73 0;
#X connect 95 0 32 1;
#X connect 96 0 95 0;
#X connect 97 0 96 0;
#X connect 98 0 97 0;
#X connect 99 0 7 0;
#X connect 100 0 72 0;
#X connect 101 0 100 0;
#X connect 101 0 115 0;
#X connect 102 0 5 0;
#X connect 104 0 99 0;
#X connect 106 0 32 0;
#X connect 106 0 107 0;
#X connect 107 0 20 0;
#X connect 107 0 108 0;
#X connect 108 0 66 0;
#X connect 108 0 67 0;
#X connect 110 0 61 1;
#X connect 110 0 26 1;
#X connect 111 0 64 1;
#X connect 111 0 65 1;
#X connect 112 0 66 1;
#X connect 112 0 67 1;
#X connect 115 0 73 0;
#X connect 116 0 2 0;
#X coords 0 -1 1 1 300 650 1 100 100;
#X restore 736 105 pd deck1;
#N canvas 0 83 1680 967 deck1 0;
#X obj 101 100 cnv 15 300 650 empty empty empty 20 12 0 14 -1 -66577
0;
#X symbolatom 105 109 48 0 0 0 - - -;
#X obj -762 265 bng 15 250 50 0 empty empty empty 17 7 0 10 -262144
-1 -1;
#N canvas 358 108 759 533 load_random_track 0;
#X obj 116 153 folder_list;
#X obj 116 180 t a b;
#X obj 222 212 counter;
#X floatatom 222 239 5 0 0 0 - - -;
#X msg 222 183 set 1;
#X obj 130 383 msgfile;
#X obj 207 262 int;
#X msg 107 208 add \$1;
#X obj 116 125 t a b b;
#X msg 73 126 clear;
#X obj 165 286 random;
#X obj 99 -2 inlet;
#X msg 192 336 goto \$1;
#X msg 155 337 this;
#X obj 165 311 t b a;
#X msg 184 383 print;
#X obj 104 425 print;
#X obj 165 262 t b b;
#X obj 116 85 route symbol bang;
#X obj 104 27 bng 15 250 50 0 empty empty empty 17 7 0 10 -262144 -1
-1;
#X obj 170 424 outlet;
#X text 260 240 <-- number of files;
#X text 189 408 <-- outputs random filename;
#X text 227 85 <-- sorts bangs (output) from symbols (set);
#X text -14 0 force random -->;
#X text 226 383 <-- check what's loaded;
#X text 4 424 for testing -->;
#X msg 139 40 symbol /home/joel/Master/mixdown/*.wav;
#X connect 0 0 1 0;
#X connect 1 0 7 0;
#X connect 1 1 2 0;
#X connect 2 0 3 0;
#X connect 3 0 6 1;
#X connect 4 0 2 0;
#X connect 5 0 16 0;
#X connect 5 0 20 0;
#X connect 6 0 10 1;
#X connect 7 0 5 0;
#X connect 8 0 0 0;
#X connect 8 1 4 0;
#X connect 8 2 9 0;
#X connect 9 0 5 0;
#X connect 10 0 14 0;
#X connect 11 0 19 0;
#X connect 12 0 5 0;
#X connect 13 0 5 0;
#X connect 14 0 13 0;
#X connect 14 1 12 0;
#X connect 15 0 5 0;
#X connect 17 0 10 0;
#X connect 17 1 6 0;
#X connect 18 0 8 0;
#X connect 18 1 17 0;
#X connect 19 0 18 0;
#X connect 19 0 27 0;
#X connect 27 0 18 0;
#X restore -779 297 pd load_random_track;
#X msg -779 339 open \$1 l;
#X msg -713 355 start;
#X msg -713 378 close;
#X obj -779 424 sfplay 2;
#X msg -712 402 goto \$1;
#X obj 358 160 bng 25 250 50 0 empty empty empty 17 7 0 10 -258753
-1 -1;
#X obj -711 129 bng 15 250 50 0 empty empty empty 17 7 0 10 -262144
-1 -1;
#X obj -711 170 bng 15 250 50 0 empty empty empty 17 7 0 10 -262144
-1 -1;
#X obj -711 213 bng 15 250 50 0 empty empty empty 17 7 0 10 -262144
-1 -1;
#X text 358 162 Next;
#X obj -711 233 delay 25;
#X obj -711 191 delay 25;
#X obj -711 149 delay 25;
#X obj 107 201 vsl 25 90 0 1 0 0 empty empty Input 0 -9 0 10 -259137
-1 -1 5000 1;
#X obj -782 625 *~;
#X obj -757 625 *~;
#X floatatom -118 642 0 0 0 0 - - -;
#X floatatom -137 640 0 0 0 0 - - -;
#X floatatom -85 641 0 0 0 0 - - -;
#X obj -125 283 *~;
#X obj -495 991 *~;
#X obj 116 396 cnv 15 150 150 empty empty empty 20 12 0 14 -112641
-66577 0;
#X obj 194 430 vsl 25 100 0 150 0 0 empty empty fback 0 -9 0 10 -259969
-1 -1 4900 1;
#X obj 158 430 vsl 25 100 0 100 0 0 empty empty depth 0 -9 0 10 -259201
-1 -1 1400 1;
#X obj 124 430 vsl 25 100 0 50 0 0 empty empty freq 0 -9 0 10 -258945
-1 -1 200 1;
#X text 154 394 Delay 1;
#X floatatom -98 440 5 0 0 0 - - -;
#X floatatom -64 441 5 0 0 0 - - -;
#X obj -126 442 - 4;
#X floatatom -102 505 5 0 0 0 - - -;
#X obj -156 444 bng 15 250 50 0 empty empty empty 17 7 0 10 -262144
-1 -1;
#X msg -156 466 1;
#X obj -102 483 -;
#X obj 250 190 cnv 15 140 200 empty empty empty 20 12 0 14 -112641
-66577 0;
#X obj 280 223 vradio 16 1 0 9 empty empty S 0 -8 0 10 -197889 -1 -1
0;
#X text 268 284 0;
#X text 256 268 + 1;
#X text 256 254 + 2;
#X text 256 239 + 3;
#X text 256 222 + 4;
#X text 264 189 Pitch Shifter 1;
#X text 256 300 - 1;
#X text 256 317 - 2;
#X text 256 334 - 3;
#X text 256 350 - 4;
#X obj 300 225 vsl 20 140 0 100 0 0 empty empty msec 0 -9 0 10 -198145
-1 -1 3300 1;
#X obj 324 225 vsl 20 140 0 100 0 0 empty empty delay 0 -9 0 10 -198145
-1 -1 5500 1;
#X obj 135 190 cnv 15 110 150 empty empty empty 20 12 0 14 -112641
-66577 0;
#X obj 180 229 vsl 25 90 0 4 0 0 empty empty vol 0 -9 0 10 -256641
-1 -1 5700 1;
#X obj 146 229 vsl 25 90 0 1000 0 0 empty empty ratio 0 -9 0 10 -256001
-1 -1 900 1;
#X text 151 189 Octaver;
#X obj 356 240 vsl 15 120 -100 100 0 0 empty empty mix 0 -9 0 10 -13381
-1 -1 6400 1;
#X obj 236 418 vsl 15 120 -100 100 0 0 empty empty mix 0 -9 0 10 -13381
-1 -1 6900 1;
#X obj 216 212 vsl 15 120 -100 100 0 0 empty empty mix 0 -9 0 10 -13381
-1 -1 0 1;
#X obj -450 1004 *~;
#X msg -736 449 done;
#X obj -735 44 bng 15 250 50 0 empty empty empty 17 7 0 10 -262144
-1 -1;
#X obj -638 753 *~;
#X obj -609 753 *~;
#X obj -43 906 *~;
#X obj -13 906 *~;
#X floatatom -536 563 5 0 0 0 - - -;
#X msg -539 459 0;
#X obj -252 113 int;
#X obj -226 113 + 1;
#X obj -252 91 metro;
#X floatatom -242 49 5 0 0 0 - - -;
#X obj -252 134 mod 2;
#X obj -252 155 route 0 1;
#X obj -247 189 bng 15 250 50 0 empty empty empty 17 7 0 10 -262144
-1 -1;
#X obj -222 191 bng 15 250 50 0 empty empty empty 17 7 0 10 -262144
-1 -1;
#X obj -249 212 spigot 1;
#X obj -189 216 spigot 1;
#X obj -113 133 == 0;
#X obj -113 156 route 1;
#X obj -535 538 line;
#X floatatom -536 492 5 0 0 0 - - -;
#X obj -816 704 hip~ 5;
#X obj -754 663 hip~ 5;
#X obj -535 516 pack 0 25;
#X obj -780 139 openpanel;
#X obj 358 133 bng 25 250 50 0 empty empty empty 17 7 0 10 -259457
-1 -1;
#X text 356 136 File;
#X obj 107 133 cnv 15 200 50 empty empty empty 20 12 0 14 -112641 -66577
0;
#X obj 274 149 tgl 25 0 empty empty empty 17 7 0 10 -260097 -1 -1 0
1;
#X obj 249 149 bng 25 250 50 0 empty empty empty 17 7 0 10 -259777
-1 -1;
#X obj 119 149 hsl 128 25 30 500 0 0 empty empty empty -2 -8 0 10 -259713
-1 -1 3600 1;
#X text 124 132 Gridder;
#X floatatom 254 372 4 0 0 0 - - -;
#X obj -128 418 line;
#X obj -128 396 pack 0 25;
#X obj 287 372 hsl 100 15 -40 40 0 0 empty empty empty -2 -8 0 10 -260097
-1 -1 5874 1;
#X msg -649 410 stop;
#X msg -349 67 bang;
#X msg -379 8 loadbang;
#X obj 319 133 bng 25 250 50 0 empty empty empty 17 7 0 10 -3010 -1
-1;
#X text 326 135 >;
#X obj 319 160 bng 25 250 50 0 empty empty empty 17 7 0 10 -259073
-1 -1;
#X text 323 163 ||;
#N canvas 0 83 1680 967 crossfade~ 0;
#X obj 167 29 inlet~;
#X obj 334 31 inlet~;
#X obj 297 530 outlet~;
#X obj 559 32 inlet;
#X floatatom 560 58 5 0 0 0 - - -;
#X obj 755 107 hsl 128 20 -100 100 0 0 empty empty empty -2 -8 0 10
-260097 -1 -1 0 1;
#X floatatom 752 136 5 0 0 0 - - -;
#X obj 214 471 *~;
#X obj 361 471 *~;
#X floatatom 376 451 5 0 0 0 - - -;
#X floatatom 229 451 5 0 0 0 - - -;
#X obj 780 333 clip 0 100;
#X msg 731 183 100;
#X obj 749 211 -;
#X floatatom 749 235 5 0 0 0 - - -;
#X obj 780 264 - 200;
#X floatatom 780 289 5 0 0 0 - - -;
#X floatatom 780 358 5 0 0 0 - - -;
#X obj 780 311 abs;
#X obj 376 429 / 100;
#X obj 229 430 / 100;
#X obj 700 263 clip 0 100;
#X floatatom 699 286 5 0 0 0 - - -;
#X connect 0 0 7 0;
#X connect 1 0 8 0;
#X connect 3 0 4 0;
#X connect 4 0 5 0;
#X connect 5 0 6 0;
#X connect 6 0 13 1;
#X connect 6 0 12 0;
#X connect 7 0 2 0;
#X connect 8 0 2 0;
#X connect 9 0 8 1;
#X connect 10 0 7 1;
#X connect 11 0 17 0;
#X connect 12 0 13 0;
#X connect 13 0 14 0;
#X connect 14 0 15 0;
#X connect 14 0 21 0;
#X connect 15 0 16 0;
#X connect 16 0 18 0;
#X connect 17 0 19 0;
#X connect 18 0 11 0;
#X connect 19 0 9 0;
#X connect 20 0 10 0;
#X connect 21 0 22 0;
#X connect 22 0 20 0;
#X restore -163 335 pd crossfade~;
#N canvas 0 83 1680 967 crossfade~ 0;
#X obj 167 29 inlet~;
#X obj 334 31 inlet~;
#X obj 297 530 outlet~;
#X obj 559 32 inlet;
#X floatatom 560 58 5 0 0 0 - - -;
#X obj 755 107 hsl 128 20 -100 100 0 0 empty empty empty -2 -8 0 10
-260097 -1 -1 6830 1;
#X floatatom 752 136 5 0 0 0 - - -;
#X obj 214 471 *~;
#X obj 361 471 *~;
#X floatatom 376 451 5 0 0 0 - - -;
#X floatatom 229 451 5 0 0 0 - - -;
#X obj 780 333 clip 0 100;
#X msg 731 183 100;
#X obj 749 211 -;
#X floatatom 749 235 5 0 0 0 - - -;
#X obj 780 264 - 200;
#X floatatom 780 289 5 0 0 0 - - -;
#X floatatom 780 358 5 0 0 0 - - -;
#X obj 780 311 abs;
#X obj 376 429 / 100;
#X obj 229 430 / 100;
#X obj 700 263 clip 0 100;
#X floatatom 699 286 5 0 0 0 - - -;
#X connect 0 0 7 0;
#X connect 1 0 8 0;
#X connect 3 0 4 0;
#X connect 4 0 5 0;
#X connect 5 0 6 0;
#X connect 6 0 13 1;
#X connect 6 0 12 0;
#X connect 7 0 2 0;
#X connect 8 0 2 0;
#X connect 9 0 8 1;
#X connect 10 0 7 1;
#X connect 11 0 17 0;
#X connect 12 0 13 0;
#X connect 13 0 14 0;
#X connect 14 0 15 0;
#X connect 14 0 21 0;
#X connect 15 0 16 0;
#X connect 16 0 18 0;
#X connect 17 0 19 0;
#X connect 18 0 11 0;
#X connect 19 0 9 0;
#X connect 20 0 10 0;
#X connect 21 0 22 0;
#X connect 22 0 20 0;
#X restore -161 607 pd crossfade~;
#N canvas 0 83 1680 967 crossfade~ 0;
#X obj 167 29 inlet~;
#X obj 334 31 inlet~;
#X obj 297 530 outlet~;
#X obj 559 32 inlet;
#X floatatom 560 58 5 0 0 0 - - -;
#X obj 755 107 hsl 128 20 -100 100 0 0 empty empty empty -2 -8 0 10
-260097 -1 -1 7364 1;
#X floatatom 752 136 5 0 0 0 - - -;
#X obj 214 471 *~;
#X obj 361 471 *~;
#X floatatom 376 451 5 0 0 0 - - -;
#X floatatom 229 451 5 0 0 0 - - -;
#X obj 780 333 clip 0 100;
#X msg 731 183 100;
#X obj 749 211 -;
#X floatatom 749 235 5 0 0 0 - - -;
#X obj 780 264 - 200;
#X floatatom 780 289 5 0 0 0 - - -;
#X floatatom 780 358 5 0 0 0 - - -;
#X obj 780 311 abs;
#X obj 376 429 / 100;
#X obj 229 430 / 100;
#X obj 700 263 clip 0 100;
#X floatatom 699 286 5 0 0 0 - - -;
#X connect 0 0 7 0;
#X connect 1 0 8 0;
#X connect 3 0 4 0;
#X connect 4 0 5 0;
#X connect 5 0 6 0;
#X connect 6 0 13 1;
#X connect 6 0 12 0;
#X connect 7 0 2 0;
#X connect 8 0 2 0;
#X connect 9 0 8 1;
#X connect 10 0 7 1;
#X connect 11 0 17 0;
#X connect 12 0 13 0;
#X connect 13 0 14 0;
#X connect 14 0 15 0;
#X connect 14 0 21 0;
#X connect 15 0 16 0;
#X connect 16 0 18 0;
#X connect 17 0 19 0;
#X connect 18 0 11 0;
#X connect 19 0 9 0;
#X connect 20 0 10 0;
#X connect 21 0 22 0;
#X connect 22 0 20 0;
#X restore -199 710 pd crossfade~;
#X obj 172 563 cnv 15 160 160 empty empty empty 20 12 0 14 -13381 -66577
0;
#X obj 266 610 vsl 25 90 0 1 0 0 empty empty Mix1 0 -9 0 10 -259137
-1 -1 4200 1;
#X obj 211 610 vsl 25 90 0 1 0 0 empty empty Orig 0 -9 0 10 -259585
-1 -1 5900 1;
#X obj 238 610 vsl 25 90 0 1 0 0 empty empty Fx 0 -9 0 10 -260417 -1
-1 4100 1;
#X obj -509 1035 outlet~;
#X obj -445 1039 outlet~;
#X msg -293 18 20;
#N canvas 0 83 1680 967 djoctaver2 0;
#X obj 762 -99 fiddle~ 2048;
#X obj 830 -76 unpack;
#X obj 830 -52 moses 1;
#X obj 904 -82 mtof;
#X obj 976 84 samplerate~;
#X obj 923 83 t f b;
#X obj 802 233 +~;
#X obj 954 137 +;
#X obj 954 189 line~;
#X obj 954 166 pack 0 20;
#X text 1077 -74 fundamental frequency;
#X text 1145 -51 1/2 period \, in msec;
#X text 1010 128 estimate fiddle~ delay;
#X obj 976 110 expr 2048000/$f1;
#X text 1012 143 as one window (in msec);
#X obj 735 -152 inlet~;
#X obj 803 296 outlet~;
#X floatatom 988 -133 5 0 0 0 - - -;
#X obj 972 -84 pack f f;
#X obj 934 17 expr $f1/$f2;
#X obj 977 -155 inlet;
#X obj 763 -124 delwrite~ G07-del 100;
#X obj 825 209 vd~ G07-del;
#X obj 803 161 delread~ G07-del;
#X connect 0 2 1 0;
#X connect 1 0 2 0;
#X connect 2 1 3 0;
#X connect 3 0 18 1;
#X connect 4 0 13 0;
#X connect 5 0 7 0;
#X connect 5 1 4 0;
#X connect 6 0 16 0;
#X connect 7 0 9 0;
#X connect 8 0 22 0;
#X connect 9 0 8 0;
#X connect 13 0 7 1;
#X connect 13 0 23 0;
#X connect 15 0 0 0;
#X connect 15 0 21 0;
#X connect 17 0 18 0;
#X connect 18 0 19 0;
#X connect 19 0 5 0;
#X connect 20 0 17 0;
#X connect 22 0 6 1;
#X connect 23 0 6 0;
#X restore -125 262 pd djoctaver2;
#N canvas 0 83 1680 967 djpitch2 0;
#X floatatom 424 224 0 0 0 0 - - -;
#X obj 487 495 *~;
#X obj 610 432 line~;
#X floatatom 642 249 0 0 0 0 - - -;
#X obj 610 406 pack 0 200;
#X obj 424 280 exp;
#X floatatom 424 306 6 0 0 0 - - -;
#X obj 424 396 /;
#X obj 551 326 * 0.001;
#X obj 719 502 line~;
#X obj 719 477 pack 0 200;
#X floatatom 719 426 0 0 0 0 - - -;
#X obj 487 521 +~;
#X obj 424 547 cos~;
#X obj 424 574 *~;
#X obj 424 603 +~;
#X obj 511 454 wrap~;
#X obj 656 497 *~;
#X obj 656 530 +~;
#X obj 593 557 cos~;
#X obj 593 584 *~;
#X obj 551 353 t b f;
#X floatatom 424 422 6 0 0 0 - - -;
#X obj 511 427 +~ 0.5;
#X obj 424 495 -~ 0.5;
#X obj 424 521 *~ 0.5;
#X obj 593 496 -~ 0.5;
#X obj 593 529 *~ 0.5;
#X obj 424 333 - 1;
#X obj 424 254 * 0.05776;
#X obj 424 359 * -1;
#X text 458 223 <-- transposition;
#X text 501 236 (halftones);
#X text 487 300 speed;
#X text 486 314 change;
#X text 686 248 <--window (msec);
#X text 459 389 tape head;
#X obj 424 453 phasor~;
#X obj 719 453 max 1.5;
#X obj 642 276 max 1;
#X text 460 402 rotation freq;
#X obj 260 101 inlet~;
#X obj 442 49 inlet;
#X obj 609 65 inlet;
#X obj 423 753 outlet~;
#X obj 832 106 inlet;
#X obj 259 171 delwrite~ G10-del 5000;
#X obj 486 548 vd~ G10-del;
#X obj 656 559 vd~ G10-del;
#X connect 0 0 29 0;
#X connect 1 0 12 0;
#X connect 2 0 1 1;
#X connect 2 0 17 1;
#X connect 3 0 39 0;
#X connect 4 0 2 0;
#X connect 5 0 6 0;
#X connect 6 0 28 0;
#X connect 7 0 22 0;
#X connect 8 0 21 0;
#X connect 9 0 12 1;
#X connect 9 0 18 1;
#X connect 10 0 9 0;
#X connect 11 0 38 0;
#X connect 12 0 47 0;
#X connect 13 0 14 0;
#X connect 14 0 15 0;
#X connect 15 0 44 0;
#X connect 16 0 17 0;
#X connect 16 0 26 0;
#X connect 17 0 18 0;
#X connect 18 0 48 0;
#X connect 19 0 20 0;
#X connect 20 0 15 1;
#X connect 21 0 7 0;
#X connect 21 1 7 1;
#X connect 22 0 37 0;
#X connect 23 0 16 0;
#X connect 24 0 25 0;
#X connect 25 0 13 0;
#X connect 26 0 27 0;
#X connect 27 0 19 0;
#X connect 28 0 30 0;
#X connect 29 0 5 0;
#X connect 30 0 7 0;
#X connect 37 0 1 0;
#X connect 37 0 24 0;
#X connect 37 0 23 0;
#X connect 38 0 10 0;
#X connect 39 0 8 0;
#X connect 39 0 4 0;
#X connect 41 0 46 0;
#X connect 42 0 0 0;
#X connect 43 0 3 0;
#X connect 45 0 11 0;
#X connect 47 0 14 1;
#X connect 48 0 20 1;
#X restore -125 569 pd djpitch2;
#N canvas 0 83 1680 967 djdelay2 0;
#X floatatom 440 170 0 0 0 0 - - -;
#X obj 440 218 line~;
#X obj 440 194 pack 0 100;
#X floatatom 365 140 0 0 0 0 - - -;
#X floatatom 521 246 0 0 0 0 - - -;
#X obj 521 318 line~;
#X obj 521 294 pack 0 100;
#X obj 521 270 * 0.01;
#X obj 308 301 +~;
#X obj 500 344 *~;
#X obj 365 236 *~;
#X obj 365 164 / 100;
#X obj 308 325 hip~ 5;
#X obj 365 212 +~ 1;
#X obj 365 188 osc~ 0;
#X obj 365 260 +~ 1.46;
#X text 418 140 <-- cycle frequency (hundredths);
#X text 493 171 <-- cycle depth (msec);
#X text 570 247 <-- feedback (hundredths);
#X obj 500 368 clip~ -1 1;
#X obj 433 -143 inlet;
#X obj 359 -143 inlet~;
#X obj 491 -142 inlet;
#X obj 560 -142 inlet;
#X obj 317 556 outlet~;
#X obj 365 284 vd~ G04-del;
#X obj 500 392 delwrite~ G04-del 1000;
#X connect 0 0 2 0;
#X connect 1 0 10 1;
#X connect 2 0 1 0;
#X connect 3 0 11 0;
#X connect 4 0 7 0;
#X connect 5 0 9 1;
#X connect 6 0 5 0;
#X connect 7 0 6 0;
#X connect 8 0 12 0;
#X connect 9 0 19 0;
#X connect 10 0 15 0;
#X connect 11 0 14 0;
#X connect 12 0 9 0;
#X connect 12 0 24 0;
#X connect 13 0 10 0;
#X connect 14 0 13 0;
#X connect 15 0 25 0;
#X connect 19 0 26 0;
#X connect 20 0 3 0;
#X connect 21 0 8 0;
#X connect 22 0 0 0;
#X connect 23 0 4 0;
#X connect 25 0 8 1;
#X restore -161 671 pd djdelay2;
#X obj -791 18 r starttt;
#X connect 1 0 4 0;
#X connect 2 0 3 0;
#X connect 3 0 1 0;
#X connect 4 0 7 0;
#X connect 5 0 7 0;
#X connect 6 0 7 0;
#X connect 7 0 18 0;
#X connect 7 1 19 0;
#X connect 7 2 59 0;
#X connect 8 0 7 0;
#X connect 9 0 10 0;
#X connect 10 0 16 0;
#X connect 10 0 6 0;
#X connect 11 0 15 0;
#X connect 11 0 2 0;
#X connect 12 0 14 0;
#X connect 12 0 5 0;
#X connect 15 0 12 0;
#X connect 16 0 11 0;
#X connect 17 0 80 0;
#X connect 18 0 113 0;
#X connect 18 0 81 0;
#X connect 18 0 103 0;
#X connect 19 0 113 0;
#X connect 19 0 82 0;
#X connect 19 0 103 0;
#X connect 20 0 115 2;
#X connect 21 0 115 1;
#X connect 22 0 115 3;
#X connect 23 0 103 1;
#X connect 24 0 110 0;
#X connect 26 0 22 0;
#X connect 27 0 20 0;
#X connect 28 0 21 0;
#X connect 30 0 114 2;
#X connect 31 0 114 3;
#X connect 32 0 34 0;
#X connect 32 0 36 1;
#X connect 33 0 95 0;
#X connect 34 0 35 0;
#X connect 35 0 36 0;
#X connect 36 0 33 0;
#X connect 38 0 32 0;
#X connect 49 0 30 0;
#X connect 50 0 31 0;
#X connect 52 0 23 1;
#X connect 53 0 113 1;
#X connect 55 0 104 2;
#X connect 56 0 105 2;
#X connect 57 0 103 2;
#X connect 58 0 111 0;
#X connect 59 0 60 0;
#X connect 60 0 9 0;
#X connect 61 0 24 0;
#X connect 62 0 58 0;
#X connect 63 0 24 0;
#X connect 64 0 58 0;
#X connect 65 0 18 1;
#X connect 65 0 19 1;
#X connect 66 0 80 0;
#X connect 67 0 68 0;
#X connect 67 0 71 0;
#X connect 68 0 67 1;
#X connect 69 0 67 0;
#X connect 69 0 89 0;
#X connect 70 0 69 1;
#X connect 71 0 72 0;
#X connect 72 0 73 0;
#X connect 72 1 74 0;
#X connect 73 0 75 0;
#X connect 74 0 76 0;
#X connect 75 0 17 0;
#X connect 76 0 66 0;
#X connect 77 0 78 0;
#X connect 78 0 17 0;
#X connect 79 0 65 0;
#X connect 80 0 83 0;
#X connect 81 0 61 0;
#X connect 82 0 62 0;
#X connect 83 0 79 0;
#X connect 84 0 4 0;
#X connect 85 0 84 0;
#X connect 88 0 77 0;
#X connect 88 0 76 1;
#X connect 88 0 75 1;
#X connect 90 0 70 0;
#X connect 92 0 114 1;
#X connect 93 0 92 0;
#X connect 94 0 93 0;
#X connect 95 0 94 0;
#X connect 96 0 7 0;
#X connect 97 0 69 0;
#X connect 98 0 97 0;
#X connect 98 0 112 0;
#X connect 99 0 5 0;
#X connect 101 0 96 0;
#X connect 103 0 114 0;
#X connect 103 0 104 0;
#X connect 104 0 115 0;
#X connect 104 0 105 0;
#X connect 105 0 63 0;
#X connect 105 0 64 0;
#X connect 107 0 24 1;
#X connect 107 0 58 1;
#X connect 108 0 61 1;
#X connect 108 0 62 1;
#X connect 109 0 63 1;
#X connect 109 0 64 1;
#X connect 112 0 70 0;
#X connect 113 0 23 0;
#X connect 114 0 104 1;
#X connect 115 0 105 1;
#X connect 116 0 2 0;
#X coords 0 -1 1 1 300 650 1 100 100;
#X restore 105 107 pd deck1;
#X obj 408 109 vu 25 400 empty empty -1 -8 0 10 -90629 -1 0 0;
#X obj 512 1189 dac~;
#X obj 112 771 bng 15 250 50 0 empty empty start 17 7 0 10 -262144
-1 -1;
#X obj 27 1075 s starttt;
#X msg 1283 721 100 1000;
#X msg 1218 734 -100 1000;
#X msg 1305 770 0 1000;
#X obj 266 -21 env~;
#X obj 266 3 - 80;
#X obj 301 -22 env~;
#X obj 301 2 - 80;
#X obj 807 25 env~;
#X obj 807 49 - 80;
#X obj 842 24 env~;
#X obj 842 48 - 80;
#X obj 436 109 vu 25 400 empty empty -1 -8 0 10 -90629 -1 0 0;
#X obj 682 107 vu 25 400 empty empty -1 -8 0 10 -90629 -1 0 0;
#X obj 710 107 vu 25 400 empty empty -1 -8 0 10 -90629 -1 0 0;
#X obj 576 599 image ige2.gif;
#X obj 572 304 image city.gif;
#X connect 1 0 6 4;
#X connect 2 0 15 0;
#X connect 3 0 13 0;
#X connect 4 0 14 0;
#X connect 5 0 1 0;
#X connect 6 0 10 0;
#X connect 6 1 10 1;
#X connect 7 0 6 2;
#X connect 7 0 20 0;
#X connect 7 1 6 3;
#X connect 7 1 22 0;
#X connect 8 0 6 0;
#X connect 8 0 16 0;
#X connect 8 1 6 1;
#X connect 8 1 18 0;
#X connect 11 0 12 0;
#X connect 13 0 5 0;
#X connect 14 0 5 0;
#X connect 15 0 5 0;
#X connect 16 0 17 0;
#X connect 17 0 9 0;
#X connect 18 0 19 0;
#X connect 19 0 24 0;
#X connect 20 0 21 0;
#X connect 21 0 25 0;
#X connect 22 0 23 0;
#X connect 23 0 26 0;
#X coords 0 -1 1 1 950 750 1 100 100;
#X restore 5 -954 pd djmixer;
