#N canvas 1 83 480 466 10;
#N canvas 74 168 1542 865 sefirot 0;
#X obj 101 100 cnv 15 450 450 empty empty empty 20 12 0 14 -176141
-66577 0;
#X obj 104 102 cube_sphere 10 222 50 143490 0 262143 222 36 166440
293 79 0 156 88 62783 297 182 258698 150 186 241290 224 226 24197 300
303 260817 153 307 250684 222 350 90880 222 421;
#X obj -115 642 unpack;
#X floatatom -115 663 5 0 0 0 - - -;
#X floatatom -82 663 5 0 0 0 - - -;
#X obj -4 4 r toGUI;
#X msg -76 87 \; toGUI sphere_col 23;
#X msg -76 159 \; toGUI src_col 1 0;
#X msg -76 190 \; toGUI src_col 2 1;
#X msg -77 231 \; toGUI src_col 3 22;
#X msg -78 271 \; toGUI src_col 4 18;
#X msg -78 306 \; toGUI src_col 5 13;
#X msg -77 344 \; toGUI src_col 6 15;
#X msg -77 125 \; toGUI nr_src 10;
#X msg -73 394 \; toGUI src_col 7 16;
#X msg -72 441 \; toGUI src_col 8 14;
#X msg -74 486 \; toGUI src_col 9 19;
#X msg -77 526 \; toGUI src_col 10 24;
#X obj 171 582 route 1 2 3 4 5 6 7 8 9 10;
#X obj -154 26 bng 15 250 50 0 empty empty empty 17 7 0 10 -262144
-1 -1;
#X obj -183 -25 loadbang;
#X obj -115 688 / 90;
#X floatatom -115 714 5 0 0 0 - - -;
#X floatatom -82 758 5 0 0 0 - - -;
#X obj -115 782 pack;
#X obj -128 826 outlet;
#X obj -81 682 *;
#X obj -81 707 sqrt;
#X obj -82 737 / 180;
#X obj -12 656 unpack;
#X floatatom -12 677 5 0 0 0 - - -;
#X floatatom 21 677 5 0 0 0 - - -;
#X obj -12 702 / 90;
#X floatatom -12 728 5 0 0 0 - - -;
#X floatatom 21 772 5 0 0 0 - - -;
#X obj -12 796 pack;
#X obj -25 840 outlet;
#X obj 22 696 *;
#X obj 22 721 sqrt;
#X obj 21 751 / 180;
#X obj 76 649 unpack;
#X floatatom 76 670 5 0 0 0 - - -;
#X floatatom 109 670 5 0 0 0 - - -;
#X obj 76 695 / 90;
#X floatatom 76 721 5 0 0 0 - - -;
#X floatatom 109 765 5 0 0 0 - - -;
#X obj 76 789 pack;
#X obj 63 833 outlet;
#X obj 110 689 *;
#X obj 110 714 sqrt;
#X obj 109 744 / 180;
#X obj 165 650 unpack;
#X floatatom 165 671 5 0 0 0 - - -;
#X floatatom 198 671 5 0 0 0 - - -;
#X obj 165 696 / 90;
#X floatatom 165 722 5 0 0 0 - - -;
#X floatatom 198 766 5 0 0 0 - - -;
#X obj 165 790 pack;
#X obj 152 834 outlet;
#X obj 199 690 *;
#X obj 199 715 sqrt;
#X obj 198 745 / 180;
#X obj 250 653 unpack;
#X floatatom 250 674 5 0 0 0 - - -;
#X floatatom 283 674 5 0 0 0 - - -;
#X obj 250 699 / 90;
#X floatatom 250 725 5 0 0 0 - - -;
#X floatatom 283 769 5 0 0 0 - - -;
#X obj 250 793 pack;
#X obj 237 837 outlet;
#X obj 284 693 *;
#X obj 284 718 sqrt;
#X obj 283 748 / 180;
#X obj 353 652 unpack;
#X floatatom 353 673 5 0 0 0 - - -;
#X floatatom 386 673 5 0 0 0 - - -;
#X obj 353 698 / 90;
#X floatatom 353 724 5 0 0 0 - - -;
#X floatatom 386 768 5 0 0 0 - - -;
#X obj 353 792 pack;
#X obj 340 836 outlet;
#X obj 387 692 *;
#X obj 387 717 sqrt;
#X obj 386 747 / 180;
#X obj 456 666 unpack;
#X floatatom 456 687 5 0 0 0 - - -;
#X floatatom 489 687 5 0 0 0 - - -;
#X obj 456 712 / 90;
#X floatatom 456 738 5 0 0 0 - - -;
#X floatatom 489 782 5 0 0 0 - - -;
#X obj 456 806 pack;
#X obj 443 850 outlet;
#X obj 490 706 *;
#X obj 490 731 sqrt;
#X obj 489 761 / 180;
#X obj 544 659 unpack;
#X floatatom 544 680 5 0 0 0 - - -;
#X floatatom 577 680 5 0 0 0 - - -;
#X obj 544 705 / 90;
#X floatatom 544 731 5 0 0 0 - - -;
#X floatatom 577 775 5 0 0 0 - - -;
#X obj 544 799 pack;
#X obj 531 843 outlet;
#X obj 578 699 *;
#X obj 578 724 sqrt;
#X obj 577 754 / 180;
#X obj 633 660 unpack;
#X floatatom 633 681 5 0 0 0 - - -;
#X floatatom 666 681 5 0 0 0 - - -;
#X obj 633 706 / 90;
#X floatatom 633 732 5 0 0 0 - - -;
#X floatatom 666 776 5 0 0 0 - - -;
#X obj 633 800 pack;
#X obj 620 844 outlet;
#X obj 667 700 *;
#X obj 667 725 sqrt;
#X obj 666 755 / 180;
#X obj 718 663 unpack;
#X floatatom 718 684 5 0 0 0 - - -;
#X floatatom 751 684 5 0 0 0 - - -;
#X obj 718 709 / 90;
#X floatatom 718 735 5 0 0 0 - - -;
#X floatatom 751 779 5 0 0 0 - - -;
#X obj 718 803 pack;
#X obj 705 847 outlet;
#X obj 752 703 *;
#X obj 752 728 sqrt;
#X obj 751 758 / 180;
#X connect 1 0 18 0;
#X connect 2 0 3 0;
#X connect 2 1 4 0;
#X connect 3 0 21 0;
#X connect 4 0 26 0;
#X connect 4 0 26 1;
#X connect 5 0 1 0;
#X connect 18 0 2 0;
#X connect 18 1 29 0;
#X connect 18 2 40 0;
#X connect 18 3 51 0;
#X connect 18 4 62 0;
#X connect 18 5 73 0;
#X connect 18 6 84 0;
#X connect 18 7 95 0;
#X connect 18 8 106 0;
#X connect 18 9 117 0;
#X connect 19 0 6 0;
#X connect 19 0 13 0;
#X connect 19 0 7 0;
#X connect 19 0 8 0;
#X connect 19 0 9 0;
#X connect 19 0 10 0;
#X connect 19 0 11 0;
#X connect 19 0 12 0;
#X connect 19 0 14 0;
#X connect 19 0 15 0;
#X connect 19 0 16 0;
#X connect 19 0 17 0;
#X connect 20 0 19 0;
#X connect 21 0 22 0;
#X connect 22 0 24 0;
#X connect 23 0 24 1;
#X connect 24 0 25 0;
#X connect 26 0 27 0;
#X connect 27 0 28 0;
#X connect 28 0 23 0;
#X connect 29 0 30 0;
#X connect 29 1 31 0;
#X connect 30 0 32 0;
#X connect 31 0 37 0;
#X connect 31 0 37 1;
#X connect 32 0 33 0;
#X connect 33 0 35 0;
#X connect 34 0 35 1;
#X connect 35 0 36 0;
#X connect 37 0 38 0;
#X connect 38 0 39 0;
#X connect 39 0 34 0;
#X connect 40 0 41 0;
#X connect 40 1 42 0;
#X connect 41 0 43 0;
#X connect 42 0 48 0;
#X connect 42 0 48 1;
#X connect 43 0 44 0;
#X connect 44 0 46 0;
#X connect 45 0 46 1;
#X connect 46 0 47 0;
#X connect 48 0 49 0;
#X connect 49 0 50 0;
#X connect 50 0 45 0;
#X connect 51 0 52 0;
#X connect 51 1 53 0;
#X connect 52 0 54 0;
#X connect 53 0 59 0;
#X connect 53 0 59 1;
#X connect 54 0 55 0;
#X connect 55 0 57 0;
#X connect 56 0 57 1;
#X connect 57 0 58 0;
#X connect 59 0 60 0;
#X connect 60 0 61 0;
#X connect 61 0 56 0;
#X connect 62 0 63 0;
#X connect 62 1 64 0;
#X connect 63 0 65 0;
#X connect 64 0 70 0;
#X connect 64 0 70 1;
#X connect 65 0 66 0;
#X connect 66 0 68 0;
#X connect 67 0 68 1;
#X connect 68 0 69 0;
#X connect 70 0 71 0;
#X connect 71 0 72 0;
#X connect 72 0 67 0;
#X connect 73 0 74 0;
#X connect 73 1 75 0;
#X connect 74 0 76 0;
#X connect 75 0 81 0;
#X connect 75 0 81 1;
#X connect 76 0 77 0;
#X connect 77 0 79 0;
#X connect 78 0 79 1;
#X connect 79 0 80 0;
#X connect 81 0 82 0;
#X connect 82 0 83 0;
#X connect 83 0 78 0;
#X connect 84 0 85 0;
#X connect 84 1 86 0;
#X connect 85 0 87 0;
#X connect 86 0 92 0;
#X connect 86 0 92 1;
#X connect 87 0 88 0;
#X connect 88 0 90 0;
#X connect 89 0 90 1;
#X connect 90 0 91 0;
#X connect 92 0 93 0;
#X connect 93 0 94 0;
#X connect 94 0 89 0;
#X connect 95 0 96 0;
#X connect 95 1 97 0;
#X connect 96 0 98 0;
#X connect 97 0 103 0;
#X connect 97 0 103 1;
#X connect 98 0 99 0;
#X connect 99 0 101 0;
#X connect 100 0 101 1;
#X connect 101 0 102 0;
#X connect 103 0 104 0;
#X connect 104 0 105 0;
#X connect 105 0 100 0;
#X connect 106 0 107 0;
#X connect 106 1 108 0;
#X connect 107 0 109 0;
#X connect 108 0 114 0;
#X connect 108 0 114 1;
#X connect 109 0 110 0;
#X connect 110 0 112 0;
#X connect 111 0 112 1;
#X connect 112 0 113 0;
#X connect 114 0 115 0;
#X connect 115 0 116 0;
#X connect 116 0 111 0;
#X connect 117 0 118 0;
#X connect 117 1 119 0;
#X connect 118 0 120 0;
#X connect 119 0 125 0;
#X connect 119 0 125 1;
#X connect 120 0 121 0;
#X connect 121 0 123 0;
#X connect 122 0 123 1;
#X connect 123 0 124 0;
#X connect 125 0 126 0;
#X connect 126 0 127 0;
#X connect 127 0 122 0;
#X coords 0 -1 1 1 450 450 1 100 100;
#X restore -176 -255 pd sefirot;
