#N canvas 596 83 862 360 10;
#N canvas 1 89 1272 890 melathaats 0;
#X obj 101 100 cnv 15 850 320 empty empty empty 20 12 0 14 -244575
-66577 0;
#X text 469 99 Melakarta Generator;
#X text 106 129 1 Indu Chakra (Moon);
#X obj 105 148 bng 15 250 50 0 empty empty Kanakangi 17 7 0 10 -258113
-1 -1;
#X obj 105 165 bng 15 250 50 0 empty empty Ratnangi 17 7 0 10 -258113
-1 -1;
#X obj 105 182 bng 15 250 50 0 empty empty Ganamurti 17 7 0 10 -258113
-1 -1;
#X obj 105 199 bng 15 250 50 0 empty empty Vanaspati 17 7 0 10 -258113
-1 -1;
#X obj 105 216 bng 15 250 50 0 empty empty Manavati 17 7 0 10 -258113
-1 -1;
#X obj 105 233 bng 15 250 50 0 empty empty Tanarupi 17 7 0 10 -258113
-1 -1;
#X obj 244 147 bng 15 250 50 0 empty empty Senavati 17 7 0 10 -258113
-1 -1;
#X obj 244 164 bng 15 250 50 0 empty empty Hanumatodi 17 7 0 10 -258113
-1 -1;
#X obj 244 181 bng 15 250 50 0 empty empty Dhenuka 17 7 0 10 -258113
-1 -1;
#X obj 244 198 bng 15 250 50 0 empty empty Natakapriya 17 7 0 10 -258113
-1 -1;
#X obj 244 215 bng 15 250 50 0 empty empty Kokilapriya 17 7 0 10 -258113
-1 -1;
#X obj 244 232 bng 15 250 50 0 empty empty Rupavati 17 7 0 10 -258113
-1 -1;
#X obj 391 149 bng 15 250 50 0 empty empty Gayakapriya 17 7 0 10 -258113
-1 -1;
#X obj 391 166 bng 15 250 50 0 empty empty Vakulabharanam 17 7 0 10
-258113 -1 -1;
#X obj 391 183 bng 15 250 50 0 empty empty Mayamalavagowla 17 7 0 10
-261057 -1 -1;
#X obj 391 200 bng 15 250 50 0 empty empty Chakravakam 17 7 0 10 -258113
-1 -1;
#X obj 391 217 bng 15 250 50 0 empty empty Suryakantam 17 7 0 10 -258113
-1 -1;
#X obj 391 234 bng 15 250 50 0 empty empty Hatakambari 17 7 0 10 -258113
-1 -1;
#X obj 530 149 bng 15 250 50 0 empty empty Jhankaradhwani 17 7 0 10
-258113 -1 -1;
#X obj 530 166 bng 15 250 50 0 empty empty Natabhairavi 17 7 0 10 -258113
-1 -1;
#X obj 530 183 bng 15 250 50 0 empty empty Keeravani 17 7 0 10 -261249
-1 -1;
#X obj 530 200 bng 15 250 50 0 empty empty Kharaharapriya 17 7 0 10
-258113 -1 -1;
#X obj 530 217 bng 15 250 50 0 empty empty Gourimanohari 17 7 0 10
-258113 -1 -1;
#X obj 530 234 bng 15 250 50 0 empty empty Varunapriya 17 7 0 10 -258113
-1 -1;
#X obj 667 148 bng 15 250 50 0 empty empty Mararanjani 17 7 0 10 -258113
-1 -1;
#X obj 667 165 bng 15 250 50 0 empty empty Charukesi 17 7 0 10 -258113
-1 -1;
#X obj 667 182 bng 15 250 50 0 empty empty Sarasangi 17 7 0 10 -258113
-1 -1;
#X obj 667 199 bng 15 250 50 0 empty empty Harikambhoji 17 7 0 10 -258113
-1 -1;
#X obj 667 216 bng 15 250 50 0 empty empty Dheerasankarabharanam 17
7 0 10 -258113 -1 -1;
#X obj 667 233 bng 15 250 50 0 empty empty Naganandini 17 7 0 10 -258113
-1 -1;
#X obj 814 149 bng 15 250 50 0 empty empty Yagapriya 17 7 0 10 -258113
-1 -1;
#X obj 814 166 bng 15 250 50 0 empty empty Ragavardhini 17 7 0 10 -258113
-1 -1;
#X obj 814 183 bng 15 250 50 0 empty empty Gangeyabhushani 17 7 0 10
-258113 -1 -1;
#X obj 814 200 bng 15 250 50 0 empty empty Vagadheeswari 17 7 0 10
-258113 -1 -1;
#X obj 814 217 bng 15 250 50 0 empty empty Shulini 17 7 0 10 -258113
-1 -1;
#X obj 814 234 bng 15 250 50 0 empty empty Chalanata 17 7 0 10 -261505
-1 -1;
#X obj 106 274 bng 15 250 50 0 empty empty Salagam 17 7 0 10 -258113
-1 -1;
#X obj 106 291 bng 15 250 50 0 empty empty Jalarnavam 17 7 0 10 -258113
-1 -1;
#X obj 106 308 bng 15 250 50 0 empty empty Jhalavarali 17 7 0 10 -258113
-1 -1;
#X obj 106 325 bng 15 250 50 0 empty empty Navaneetam 17 7 0 10 -258113
-1 -1;
#X obj 106 342 bng 15 250 50 0 empty empty Pavani 17 7 0 10 -258113
-1 -1;
#X obj 106 359 bng 15 250 50 0 empty empty Raghupriya 17 7 0 10 -258113
-1 -1;
#X obj 245 273 bng 15 250 50 0 empty empty Gavambhodi 17 7 0 10 -261249
-1 -1;
#X obj 245 290 bng 15 250 50 0 empty empty Bhavapriya 17 7 0 10 -258113
-1 -1;
#X obj 245 307 bng 15 250 50 0 empty empty Shubhapantuvarali 17 7 0
10 -260481 -1 -1;
#X obj 245 324 bng 15 250 50 0 empty empty Shadvidamargini 17 7 0 10
-261185 -1 -1;
#X obj 245 341 bng 15 250 50 0 empty empty Suvarnangi 17 7 0 10 -258113
-1 -1;
#X obj 245 358 bng 15 250 50 0 empty empty Divyamani 17 7 0 10 -258113
-1 -1;
#X obj 392 275 bng 15 250 50 0 empty empty Dhavalambari 17 7 0 10 -258113
-1 -1;
#X obj 392 292 bng 15 250 50 0 empty empty Namanarayani 17 7 0 10 -258113
-1 -1;
#X obj 392 309 bng 15 250 50 0 empty empty Kamavardani 17 7 0 10 -261185
-1 -1;
#X obj 392 326 bng 15 250 50 0 empty empty Ramapriya 17 7 0 10 -258113
-1 -1;
#X obj 392 343 bng 15 250 50 0 empty empty Gamanashrama 17 7 0 10 -258113
-1 -1;
#X obj 392 360 bng 15 250 50 0 empty empty Vishwambari 17 7 0 10 -261505
-1 -1;
#X obj 531 275 bng 15 250 50 0 empty empty Shamalangi 17 7 0 10 -258113
-1 -1;
#X obj 531 292 bng 15 250 50 0 empty empty Shanmukhapriya 17 7 0 10
-258113 -1 -1;
#X obj 531 309 bng 15 250 50 0 empty empty Simhendramadhyamam 17 7
0 10 -261121 -1 -1;
#X obj 531 326 bng 15 250 50 0 empty empty Hemavati 17 7 0 10 -261249
-1 -1;
#X obj 531 343 bng 15 250 50 0 empty empty Dharmavati 17 7 0 10 -258113
-1 -1;
#X obj 531 360 bng 15 250 50 0 empty empty Neetimati 17 7 0 10 -261825
-1 -1;
#X obj 668 274 bng 15 250 50 0 empty empty Kantamani 17 7 0 10 -258113
-1 -1;
#X obj 668 291 bng 15 250 50 0 empty empty Rishabhapriya 17 7 0 10
-258113 -1 -1;
#X obj 668 308 bng 15 250 50 0 empty empty Latangi 17 7 0 10 -258113
-1 -1;
#X obj 668 325 bng 15 250 50 0 empty empty Vachaspati 17 7 0 10 -258113
-1 -1;
#X obj 668 342 bng 15 250 50 0 empty empty Mechakalyani 17 7 0 10 -258113
-1 -1;
#X obj 668 359 bng 15 250 50 0 empty empty Citrambari 17 7 0 10 -258113
-1 -1;
#X obj 815 275 bng 15 250 50 0 empty empty Sucharitra 17 7 0 10 -258113
-1 -1;
#X obj 815 292 bng 15 250 50 0 empty empty Jyoti_Swarupini 17 7 0 10
-258113 -1 -1;
#X obj 815 309 bng 15 250 50 0 empty empty Dhatuvardani 17 7 0 10 -261441
-1 -1;
#X obj 815 326 bng 15 250 50 0 empty empty Nasikabhushani 17 7 0 10
-258113 -1 -1;
#X obj 815 343 bng 15 250 50 0 empty empty Kosalam 17 7 0 10 -258113
-1 -1;
#X obj 815 360 bng 15 250 50 0 empty empty Rasikapriya 17 7 0 10 -258113
-1 -1;
#X obj 1073 686 outlet;
#X obj 1028 687 outlet;
#X obj 1166 686 outlet;
#X obj 1121 687 outlet;
#X obj 1260 687 outlet;
#X obj 1215 688 outlet;
#X obj 1310 690 outlet;
#X floatatom 1028 659 5 0 0 0 - - -;
#X floatatom 1071 659 5 0 0 0 - - -;
#X floatatom 1123 662 5 0 0 0 - - -;
#X floatatom 1166 665 5 0 0 0 - - -;
#X floatatom 1217 669 5 0 0 0 - - -;
#X floatatom 1261 665 5 0 0 0 - - -;
#X floatatom 1309 669 5 0 0 0 - - -;
#X text 245 128 2 Netra Chakra (Eyes);
#X text 392 130 3 Agni Chakra (Fire);
#X text 530 130 4 Veda Chakra (Vedas);
#X text 795 132 6 Rutu Chakra (Seasons);
#X text 671 129 5 Bana Chakra ();
#X text 104 255 7 Rishi Chakra (Sages);
#X text 246 254 8 Vasu Chakra ();
#X text 393 256 9 Brahma Chakra ();
#X text 532 256 10 Disi Chakra ();
#X text 669 255 11 Rudra Chakra ();
#X text 816 256 12 Aditya Chakra;
#X msg 1026 37 1;
#X msg 1026 60 2;
#X msg 1026 81 3;
#X msg 1026 104 4;
#X msg 1026 127 5;
#X msg 1026 148 6;
#X msg 1028 189 7;
#X msg 1028 213 8;
#X msg 1028 233 9;
#X msg 1028 256 10;
#X msg 1028 279 11;
#X msg 1028 300 12;
#X msg 1028 336 13;
#X msg 1028 360 14;
#X msg 1027 380 15;
#X msg 1028 403 16;
#X msg 1029 426 17;
#X msg 1029 446 18;
#X msg 1089 37 19;
#X msg 1089 61 20;
#X msg 1089 81 21;
#X msg 1089 105 22;
#X msg 1089 127 23;
#X msg 1089 149 24;
#X msg 1091 189 25;
#X msg 1091 212 26;
#X msg 1207 449 72;
#X msg 1091 233 27;
#X msg 1092 256 28;
#X msg 1091 280 29;
#X msg 1091 300 30;
#X msg 1091 337 31;
#X msg 1091 360 32;
#X msg 1091 380 33;
#X msg 1091 403 34;
#X msg 1091 427 35;
#X msg 1091 448 36;
#X msg 1148 39 37;
#X msg 1148 62 38;
#X msg 1148 84 39;
#X msg 1148 106 40;
#X msg 1148 129 41;
#X msg 1148 151 42;
#X msg 1150 192 43;
#X msg 1150 214 44;
#X msg 1150 236 45;
#X msg 1150 260 46;
#X msg 1150 282 47;
#X msg 1150 303 48;
#X msg 1150 339 49;
#X msg 1150 361 50;
#X msg 1150 383 51;
#X msg 1150 405 52;
#X msg 1150 429 53;
#X msg 1150 450 54;
#X msg 1205 39 55;
#X msg 1205 63 56;
#X msg 1205 84 57;
#X msg 1205 107 58;
#X msg 1205 129 59;
#X msg 1205 150 60;
#X msg 1207 192 61;
#X msg 1207 215 62;
#X msg 1207 236 63;
#X msg 1207 260 64;
#X msg 1207 282 65;
#X msg 1207 303 66;
#X msg 1207 338 67;
#X msg 1207 361 68;
#X msg 1208 384 69;
#X msg 1207 406 70;
#X msg 1207 429 71;
#X floatatom 1440 301 5 0 0 0 - - -;
#N canvas 1 88 1251 908 melakarta 0;
#X obj 673 -43 inlet;
#X floatatom 656 -13 5 0 0 0 - - -;
#X text 698 -14 raga nro;
#X obj -1 65 bng 15 250 50 0 empty empty empty 17 7 0 10 -262144 -1
-1;
#X obj 15 65 bng 15 250 50 0 empty empty empty 17 7 0 10 -262144 -1
-1;
#X obj 30 65 bng 15 250 50 0 empty empty empty 17 7 0 10 -262144 -1
-1;
#X obj 46 65 bng 15 250 50 0 empty empty empty 17 7 0 10 -262144 -1
-1;
#X obj 61 65 bng 15 250 50 0 empty empty empty 17 7 0 10 -262144 -1
-1;
#X obj 77 65 bng 15 250 50 0 empty empty empty 17 7 0 10 -262144 -1
-1;
#X obj 92 65 bng 15 250 50 0 empty empty empty 17 7 0 10 -262144 -1
-1;
#X obj 108 65 bng 15 250 50 0 empty empty empty 17 7 0 10 -262144 -1
-1;
#X obj 123 65 bng 15 250 50 0 empty empty empty 17 7 0 10 -262144 -1
-1;
#X obj 139 65 bng 15 250 50 0 empty empty empty 17 7 0 10 -262144 -1
-1;
#X obj 154 65 bng 15 250 50 0 empty empty empty 17 7 0 10 -262144 -1
-1;
#X obj 170 65 bng 15 250 50 0 empty empty empty 17 7 0 10 -262144 -1
-1;
#X obj 185 65 bng 15 250 50 0 empty empty empty 17 7 0 10 -262144 -1
-1;
#X obj 201 65 bng 15 250 50 0 empty empty empty 17 7 0 10 -262144 -1
-1;
#X obj 216 65 bng 15 250 50 0 empty empty empty 17 7 0 10 -262144 -1
-1;
#X obj 232 65 bng 15 250 50 0 empty empty empty 17 7 0 10 -262144 -1
-1;
#X obj 247 65 bng 15 250 50 0 empty empty empty 17 7 0 10 -262144 -1
-1;
#X obj 262 65 bng 15 250 50 0 empty empty empty 17 7 0 10 -262144 -1
-1;
#X obj 278 65 bng 15 250 50 0 empty empty empty 17 7 0 10 -262144 -1
-1;
#X obj 293 65 bng 15 250 50 0 empty empty empty 17 7 0 10 -262144 -1
-1;
#X obj 309 65 bng 15 250 50 0 empty empty empty 17 7 0 10 -262144 -1
-1;
#X obj 324 65 bng 15 250 50 0 empty empty empty 17 7 0 10 -262144 -1
-1;
#X obj 355 66 bng 15 250 50 0 empty empty empty 17 7 0 10 -262144 -1
-1;
#X obj 376 65 bng 15 250 50 0 empty empty empty 17 7 0 10 -262144 -1
-1;
#X obj 391 63 bng 15 250 50 0 empty empty empty 17 7 0 10 -262144 -1
-1;
#X obj 407 64 bng 15 250 50 0 empty empty empty 17 7 0 10 -262144 -1
-1;
#X obj 425 64 bng 15 250 50 0 empty empty empty 17 7 0 10 -262144 -1
-1;
#X obj 443 64 bng 15 250 50 0 empty empty empty 17 7 0 10 -262144 -1
-1;
#X obj 461 64 bng 15 250 50 0 empty empty empty 17 7 0 10 -262144 -1
-1;
#X obj 478 65 bng 15 250 50 0 empty empty empty 17 7 0 10 -262144 -1
-1;
#X obj 496 66 bng 15 250 50 0 empty empty empty 17 7 0 10 -262144 -1
-1;
#X obj 517 65 bng 15 250 50 0 empty empty empty 17 7 0 10 -262144 -1
-1;
#X obj 530 66 bng 15 250 50 0 empty empty empty 17 7 0 10 -262144 -1
-1;
#X obj 552 65 bng 15 250 50 0 empty empty empty 17 7 0 10 -262144 -1
-1;
#X obj 570 67 bng 15 250 50 0 empty empty empty 17 7 0 10 -262144 -1
-1;
#X obj 587 65 bng 15 250 50 0 empty empty empty 17 7 0 10 -262144 -1
-1;
#X obj 609 68 bng 15 250 50 0 empty empty empty 17 7 0 10 -262144 -1
-1;
#X obj 631 66 bng 15 250 50 0 empty empty empty 17 7 0 10 -262144 -1
-1;
#X obj 648 65 bng 15 250 50 0 empty empty empty 17 7 0 10 -262144 -1
-1;
#X obj 677 65 bng 15 250 50 0 empty empty empty 17 7 0 10 -262144 -1
-1;
#X obj 698 66 bng 15 250 50 0 empty empty empty 17 7 0 10 -262144 -1
-1;
#X obj 740 67 bng 15 250 50 0 empty empty empty 17 7 0 10 -262144 -1
-1;
#X obj 755 67 bng 15 250 50 0 empty empty empty 17 7 0 10 -262144 -1
-1;
#X obj 771 67 bng 15 250 50 0 empty empty empty 17 7 0 10 -262144 -1
-1;
#X obj 786 67 bng 15 250 50 0 empty empty empty 17 7 0 10 -262144 -1
-1;
#X obj 802 67 bng 15 250 50 0 empty empty empty 17 7 0 10 -262144 -1
-1;
#X obj 817 67 bng 15 250 50 0 empty empty empty 17 7 0 10 -262144 -1
-1;
#X obj 833 67 bng 15 250 50 0 empty empty empty 17 7 0 10 -262144 -1
-1;
#X obj 848 67 bng 15 250 50 0 empty empty empty 17 7 0 10 -262144 -1
-1;
#X obj 864 67 bng 15 250 50 0 empty empty empty 17 7 0 10 -262144 -1
-1;
#X obj 879 67 bng 15 250 50 0 empty empty empty 17 7 0 10 -262144 -1
-1;
#X obj 895 67 bng 15 250 50 0 empty empty empty 17 7 0 10 -262144 -1
-1;
#X obj 910 67 bng 15 250 50 0 empty empty empty 17 7 0 10 -262144 -1
-1;
#X obj 926 67 bng 15 250 50 0 empty empty empty 17 7 0 10 -262144 -1
-1;
#X obj 943 67 bng 15 250 50 0 empty empty empty 17 7 0 10 -262144 -1
-1;
#X obj 967 68 bng 15 250 50 0 empty empty empty 17 7 0 10 -262144 -1
-1;
#X obj 986 68 bng 15 250 50 0 empty empty empty 17 7 0 10 -262144 -1
-1;
#X obj 1008 67 bng 15 250 50 0 empty empty empty 17 7 0 10 -262144
-1 -1;
#X obj 1029 67 bng 15 250 50 0 empty empty empty 17 7 0 10 -262144
-1 -1;
#X obj 1052 67 bng 15 250 50 0 empty empty empty 17 7 0 10 -262144
-1 -1;
#X obj 1091 68 bng 15 250 50 0 empty empty empty 17 7 0 10 -262144
-1 -1;
#X obj 1112 71 bng 15 250 50 0 empty empty empty 17 7 0 10 -262144
-1 -1;
#X obj 1130 68 bng 15 250 50 0 empty empty empty 17 7 0 10 -262144
-1 -1;
#X obj 1149 67 bng 15 250 50 0 empty empty empty 17 7 0 10 -262144
-1 -1;
#X obj 1169 68 bng 15 250 50 0 empty empty empty 17 7 0 10 -262144
-1 -1;
#X obj 1188 68 bng 15 250 50 0 empty empty empty 17 7 0 10 -262144
-1 -1;
#X obj 1208 68 bng 15 250 50 0 empty empty empty 17 7 0 10 -262144
-1 -1;
#X obj 1228 66 bng 15 250 50 0 empty empty empty 17 7 0 10 -262144
-1 -1;
#X obj 1247 68 bng 15 250 50 0 empty empty empty 17 7 0 10 -262144
-1 -1;
#X obj 1267 67 bng 15 250 50 0 empty empty empty 17 7 0 10 -262144
-1 -1;
#X obj 1286 68 bng 15 250 50 0 empty empty empty 17 7 0 10 -262144
-1 -1;
#X obj 1306 66 bng 15 250 50 0 empty empty empty 17 7 0 10 -262144
-1 -1;
#X obj 1326 65 bng 15 250 50 0 empty empty empty 17 7 0 10 -262144
-1 -1;
#X obj 1345 69 bng 15 250 50 0 empty empty empty 17 7 0 10 -262144
-1 -1;
#X obj 1365 69 bng 15 250 50 0 empty empty empty 17 7 0 10 -262144
-1 -1;
#X obj 1384 67 bng 15 250 50 0 empty empty empty 17 7 0 10 -262144
-1 -1;
#X obj 1404 67 bng 15 250 50 0 empty empty empty 17 7 0 10 -262144
-1 -1;
#X obj 1471 61 bng 15 250 50 0 empty empty empty 17 7 0 10 -262144
-1 -1;
#X obj -895 731 outlet;
#X obj -843 731 outlet;
#X obj -784 733 outlet;
#X obj -728 733 outlet;
#X obj -675 736 outlet;
#X obj -623 736 outlet;
#X msg -246 263 0;
#X obj -157 248 bng 15 250 50 0 empty empty empty 17 7 0 10 -262144
-1 -1;
#X obj -575 735 outlet;
#X text -133 244 Kanakangi;
#X msg -216 263 1;
#X msg -186 262 2;
#X msg -156 263 5;
#X msg -126 263 7;
#X msg -97 263 8;
#X msg -67 263 9;
#X msg -244 343 0;
#X obj -155 328 bng 15 250 50 0 empty empty empty 17 7 0 10 -262144
-1 -1;
#X msg -214 343 1;
#X msg -184 342 2;
#X msg -154 343 5;
#X msg -124 343 7;
#X msg -95 343 8;
#X text -135 325 Ratnangi;
#X msg -65 343 10;
#X msg -248 420 0;
#X obj -159 405 bng 15 250 50 0 empty empty empty 17 7 0 10 -262144
-1 -1;
#X msg -218 420 1;
#X msg -188 419 2;
#X msg -158 420 5;
#X msg -128 420 7;
#X msg -99 420 8;
#X text -135 401 Ganamurti;
#X msg -69 420 11;
#X msg -247 481 0;
#X obj -158 466 bng 15 250 50 0 empty empty empty 17 7 0 10 -262144
-1 -1;
#X msg -217 481 1;
#X msg -187 480 2;
#X msg -157 481 5;
#X msg -127 481 7;
#X text -134 462 Vanaspati;
#X msg -98 481 9;
#X msg -68 481 10;
#X msg -247 562 0;
#X obj -158 547 bng 15 250 50 0 empty empty empty 17 7 0 10 -262144
-1 -1;
#X msg -217 562 1;
#X msg -187 561 2;
#X msg -157 562 5;
#X msg -127 562 7;
#X msg -98 562 9;
#X text -142 545 Manavati;
#X msg -68 562 11;
#X msg -247 641 0;
#X obj -158 626 bng 15 250 50 0 empty empty empty 17 7 0 10 -262144
-1 -1;
#X msg -217 641 1;
#X msg -187 640 2;
#X msg -157 641 5;
#X msg -127 642 7;
#X msg -68 641 11;
#X text -139 623 Tanarupi;
#X msg -98 641 10;
#X text -248 220 1 Indu Chakra (moon);
#X msg 160 257 0;
#X obj 249 242 bng 15 250 50 0 empty empty empty 17 7 0 10 -262144
-1 -1;
#X text 273 238 Senavati;
#X msg 159 340 0;
#X obj 248 325 bng 15 250 50 0 empty empty empty 17 7 0 10 -262144
-1 -1;
#X msg 164 413 0;
#X obj 253 398 bng 15 250 50 0 empty empty empty 17 7 0 10 -262144
-1 -1;
#X msg 163 481 0;
#X obj 252 466 bng 15 250 50 0 empty empty empty 17 7 0 10 -262144
-1 -1;
#X msg 161 561 0;
#X obj 250 546 bng 15 250 50 0 empty empty empty 17 7 0 10 -262144
-1 -1;
#X msg 158 640 0;
#X obj 247 625 bng 15 250 50 0 empty empty empty 17 7 0 10 -262144
-1 -1;
#X text 272 321 Hanumatodi;
#X text 277 394 Dhenuka;
#X text 276 462 Natakapriya;
#X text 274 542 Kokilapriya;
#X text 271 621 Rupavati;
#X text 158 214 2 Netra Chakra (eyes);
#X msg 465 254 0;
#X obj 554 239 bng 15 250 50 0 empty empty empty 17 7 0 10 -262144
-1 -1;
#X msg 465 341 0;
#X obj 554 326 bng 15 250 50 0 empty empty empty 17 7 0 10 -262144
-1 -1;
#X msg 470 411 0;
#X obj 559 396 bng 15 250 50 0 empty empty empty 17 7 0 10 -262144
-1 -1;
#X msg 469 485 0;
#X obj 558 470 bng 15 250 50 0 empty empty empty 17 7 0 10 -262144
-1 -1;
#X msg 467 571 0;
#X obj 556 556 bng 15 250 50 0 empty empty empty 17 7 0 10 -262144
-1 -1;
#X msg 464 646 0;
#X obj 553 631 bng 15 250 50 0 empty empty empty 17 7 0 10 -262144
-1 -1;
#X text 576 234 Gayakapriya;
#X text 578 322 Vakulabharanam;
#X text 583 392 Mayamalavagowla;
#X text 582 466 Chakravakam;
#X text 580 552 Suryakantam;
#X text 577 627 Hatakambari;
#X msg 790 260 0;
#X obj 879 245 bng 15 250 50 0 empty empty empty 17 7 0 10 -262144
-1 -1;
#X msg 790 340 0;
#X obj 879 325 bng 15 250 50 0 empty empty empty 17 7 0 10 -262144
-1 -1;
#X msg 795 410 0;
#X obj 884 395 bng 15 250 50 0 empty empty empty 17 7 0 10 -262144
-1 -1;
#X msg 794 489 0;
#X obj 883 474 bng 15 250 50 0 empty empty empty 17 7 0 10 -262144
-1 -1;
#X msg 792 570 0;
#X obj 881 555 bng 15 250 50 0 empty empty empty 17 7 0 10 -262144
-1 -1;
#X msg 789 650 0;
#X obj 878 635 bng 15 250 50 0 empty empty empty 17 7 0 10 -262144
-1 -1;
#X text 463 211 3 Agni Chakra (;
#X text 788 217 4 Veda Chakra (;
#X text 901 240 Jhankaradhwani;
#X text 903 321 Natabhairavi;
#X text 908 391 Keeravani;
#X text 907 470 Kharaharapriya;
#X text 905 551 Gourimanohari;
#X text 902 631 Varunapriya;
#X msg 1148 252 0;
#X obj 1237 237 bng 15 250 50 0 empty empty empty 17 7 0 10 -262144
-1 -1;
#X msg 1148 332 0;
#X obj 1237 317 bng 15 250 50 0 empty empty empty 17 7 0 10 -262144
-1 -1;
#X msg 1153 402 0;
#X obj 1242 387 bng 15 250 50 0 empty empty empty 17 7 0 10 -262144
-1 -1;
#X msg 1152 481 0;
#X obj 1241 466 bng 15 250 50 0 empty empty empty 17 7 0 10 -262144
-1 -1;
#X msg 1150 562 0;
#X obj 1239 547 bng 15 250 50 0 empty empty empty 17 7 0 10 -262144
-1 -1;
#X msg 1147 642 0;
#X obj 1236 627 bng 15 250 50 0 empty empty empty 17 7 0 10 -262144
-1 -1;
#X msg 1480 250 0;
#X obj 1569 235 bng 15 250 50 0 empty empty empty 17 7 0 10 -262144
-1 -1;
#X msg 1480 330 0;
#X obj 1569 315 bng 15 250 50 0 empty empty empty 17 7 0 10 -262144
-1 -1;
#X msg 1485 400 0;
#X obj 1574 385 bng 15 250 50 0 empty empty empty 17 7 0 10 -262144
-1 -1;
#X msg 1484 479 0;
#X obj 1573 464 bng 15 250 50 0 empty empty empty 17 7 0 10 -262144
-1 -1;
#X msg 1482 560 0;
#X obj 1571 545 bng 15 250 50 0 empty empty empty 17 7 0 10 -262144
-1 -1;
#X msg 1479 640 0;
#X obj 1568 625 bng 15 250 50 0 empty empty empty 17 7 0 10 -262144
-1 -1;
#X text 1146 209 5 Bana Chakra (;
#X text 1478 207 6 Rutu Chakra (;
#X msg 185 341 1;
#X msg 221 340 3;
#X msg 249 340 5;
#X msg 279 340 7;
#X msg 308 339 8;
#X msg 338 340 10;
#X msg 190 257 1;
#X msg 221 256 3;
#X msg 250 257 5;
#X msg 280 257 7;
#X msg 309 256 8;
#X msg 339 257 9;
#X msg 194 413 1;
#X msg 226 412 3;
#X msg 251 414 5;
#X msg 283 412 7;
#X msg 313 412 8;
#X msg 343 413 11;
#X msg 193 481 1;
#X msg 224 480 3;
#X msg 252 481 5;
#X msg 283 481 7;
#X msg 312 482 9;
#X msg 342 481 10;
#X msg 191 561 1;
#X msg 222 560 3;
#X msg 251 561 5;
#X msg 277 561 7;
#X msg 310 560 9;
#X msg 340 561 11;
#X msg 188 640 1;
#X msg 219 639 3;
#X msg 248 640 5;
#X msg 278 640 7;
#X msg 307 639 10;
#X msg 337 640 11;
#X msg 495 254 1;
#X msg 526 253 4;
#X msg 555 254 5;
#X msg 585 254 7;
#X msg 614 253 8;
#X msg 644 254 9;
#X msg 495 341 1;
#X msg 526 340 4;
#X msg 500 411 1;
#X msg 531 410 4;
#X msg 499 485 1;
#X msg 529 484 4;
#X msg 497 571 1;
#X msg 528 570 4;
#X msg 494 646 1;
#X msg 525 645 4;
#X msg 555 341 5;
#X msg 560 411 5;
#X msg 559 485 5;
#X msg 557 571 5;
#X msg 554 646 5;
#X msg 585 341 7;
#X msg 614 340 8;
#X msg 644 341 10;
#X msg 590 411 7;
#X msg 589 485 7;
#X msg 587 571 7;
#X msg 584 646 7;
#X msg 619 410 8;
#X msg 649 410 11;
#X msg 618 484 9;
#X msg 648 485 10;
#X msg 616 570 9;
#X msg 646 571 11;
#X msg 613 646 10;
#X msg 643 646 11;
#X msg 820 260 2;
#X msg 851 259 3;
#X msg 820 340 2;
#X msg 851 339 3;
#X msg 825 410 2;
#X msg 856 409 3;
#X msg 824 489 2;
#X msg 856 490 3;
#X msg 822 570 2;
#X msg 855 569 3;
#X msg 819 650 2;
#X msg 850 649 3;
#X msg 880 260 5;
#X msg 880 340 5;
#X msg 885 410 5;
#X msg 884 489 5;
#X msg 882 570 5;
#X msg 879 650 5;
#X msg 909 261 7;
#X msg 938 261 8;
#X msg 969 263 9;
#X msg 910 340 7;
#X msg 939 339 8;
#X msg 969 340 10;
#X msg 915 410 7;
#X msg 944 409 8;
#X msg 998 408 11;
#X msg 914 489 5;
#X msg 945 488 9;
#X msg 980 488 10;
#X msg 912 570 7;
#X msg 942 569 9;
#X msg 971 570 11;
#X msg 909 650 7;
#X msg 938 649 10;
#X msg 967 649 11;
#X text 1259 232 Maranjani;
#X msg 1178 252 2;
#X msg 1210 251 4;
#X msg 1238 252 5;
#X msg 1266 252 7;
#X msg 1298 251 8;
#X msg 1327 252 9;
#X msg 1178 332 2;
#X msg 1234 334 5;
#X msg 1183 402 2;
#X msg 1214 401 4;
#X msg 1182 481 2;
#X msg 1213 480 4;
#X msg 1180 562 2;
#X msg 1211 560 4;
#X msg 1177 642 2;
#X msg 1208 641 4;
#X msg 1243 402 5;
#X msg 1242 481 5;
#X msg 1240 562 5;
#X msg 1237 642 5;
#X msg 1265 332 7;
#X msg 1273 401 7;
#X msg 1272 481 7;
#X msg 1270 562 7;
#X msg 1267 642 7;
#X msg 1296 330 8;
#X msg 1326 332 10;
#X msg 1301 401 8;
#X msg 1331 402 11;
#X text 1266 383 Sarasangi;
#X text 1261 313 Charukesi;
#X text 1265 462 Harikambhoji;
#X text 1263 543 Dheerasankarabharanam;
#X text 1260 623 Naganandini;
#X msg 1301 480 9;
#X msg 1331 481 10;
#X msg 1299 561 9;
#X msg 1329 562 11;
#X msg 1296 640 10;
#X msg 1326 642 11;
#X text 1590 230 Yagapriya;
#X text 1593 311 Ragavardhini;
#X text 1598 381 Gangeyabhushani;
#X text 1597 460 Vagadheeswari;
#X text 1595 541 Shulini;
#X text 1592 621 Chalanata;
#X msg 1508 250 3;
#X msg 1541 249 4;
#X msg 1570 250 5;
#X msg 1510 330 3;
#X msg 1541 328 4;
#X msg 1515 400 3;
#X msg 1547 399 4;
#X msg 1514 479 3;
#X msg 1545 478 4;
#X msg 1574 479 5;
#X msg 1571 330 5;
#X msg 1575 400 5;
#X msg 1512 560 3;
#X msg 1544 559 4;
#X msg 1572 560 5;
#X msg 1508 640 3;
#X msg 1540 639 4;
#X msg 1569 640 5;
#X msg 1600 250 7;
#X msg 1628 249 8;
#X msg 1659 250 9;
#X msg 1600 330 7;
#X msg 1629 329 8;
#X msg 1660 329 10;
#X msg 1605 400 7;
#X msg 1634 399 8;
#X msg 1664 400 11;
#X msg 1604 479 7;
#X msg 1633 478 9;
#X msg 1663 479 10;
#X msg 1602 560 7;
#X msg 1631 559 9;
#X msg 1661 560 11;
#X msg 1599 640 7;
#X msg 1628 639 10;
#X msg 1658 640 11;
#X obj -320 763 s note1;
#X obj -266 761 s note2;
#X obj -215 761 s note3;
#X obj -167 761 s note4;
#X obj -115 761 s note5;
#X obj -16 761 s note7;
#X obj -67 761 s note6;
#X obj -170 724 bng 15 250 50 0 empty empty empty 17 7 0 10 -262144
-1 -1;
#X obj -883 701 r note1;
#X obj -830 702 r note2;
#X obj -779 702 r note3;
#X obj -731 702 r note4;
#X obj -679 702 r note5;
#X obj -631 702 r note6;
#X obj -580 702 r note7;
#X obj -320 301 s note1;
#X obj -268 301 s note2;
#X obj -217 301 s note3;
#X obj -169 301 s note4;
#X obj -117 301 s note5;
#X obj -18 301 s note7;
#X obj -69 301 s note6;
#X obj -322 376 s note1;
#X obj -270 376 s note2;
#X obj -219 376 s note3;
#X obj -171 376 s note4;
#X obj -119 376 s note5;
#X obj -20 376 s note7;
#X obj -71 376 s note6;
#X obj -323 448 s note1;
#X obj -271 448 s note2;
#X obj -220 448 s note3;
#X obj -172 448 s note4;
#X obj -120 448 s note5;
#X obj -21 448 s note7;
#X obj -72 448 s note6;
#X obj -317 508 s note1;
#X obj -265 508 s note2;
#X obj -214 508 s note3;
#X obj -166 508 s note4;
#X obj -114 508 s note5;
#X obj -15 508 s note7;
#X obj -66 508 s note6;
#X obj -318 591 s note1;
#X obj -266 591 s note2;
#X obj -215 591 s note3;
#X obj -167 591 s note4;
#X obj -115 591 s note5;
#X obj -16 591 s note7;
#X obj -67 591 s note6;
#X obj -313 670 s note1;
#X obj -261 670 s note2;
#X obj -210 670 s note3;
#X obj -162 670 s note4;
#X obj -110 670 s note5;
#X obj -11 670 s note7;
#X obj -62 670 s note6;
#X obj 55 293 s note1;
#X obj 107 293 s note2;
#X obj 158 293 s note3;
#X obj 206 293 s note4;
#X obj 258 293 s note5;
#X obj 357 293 s note7;
#X obj 306 293 s note6;
#X obj 55 375 s note1;
#X obj 107 375 s note2;
#X obj 158 375 s note3;
#X obj 206 375 s note4;
#X obj 258 375 s note5;
#X obj 357 375 s note7;
#X obj 306 375 s note6;
#X obj 54 439 s note1;
#X obj 106 439 s note2;
#X obj 157 439 s note3;
#X obj 205 439 s note4;
#X obj 257 439 s note5;
#X obj 356 439 s note7;
#X obj 305 439 s note6;
#X obj 54 507 s note1;
#X obj 106 507 s note2;
#X obj 157 507 s note3;
#X obj 205 507 s note4;
#X obj 257 507 s note5;
#X obj 356 507 s note7;
#X obj 305 507 s note6;
#X obj 52 592 s note1;
#X obj 104 592 s note2;
#X obj 155 592 s note3;
#X obj 203 592 s note4;
#X obj 255 592 s note5;
#X obj 354 592 s note7;
#X obj 303 592 s note6;
#X obj 57 667 s note1;
#X obj 109 667 s note2;
#X obj 160 667 s note3;
#X obj 208 667 s note4;
#X obj 260 667 s note5;
#X obj 359 667 s note7;
#X obj 308 667 s note6;
#X text -249 716 7 Chakra;
#X obj -317 827 s note1;
#X obj -263 825 s note2;
#X obj -212 825 s note3;
#X obj -164 825 s note4;
#X obj -112 825 s note5;
#X obj -13 825 s note7;
#X obj -64 825 s note6;
#X obj -167 788 bng 15 250 50 0 empty empty empty 17 7 0 10 -262144
-1 -1;
#X obj -320 892 s note1;
#X obj -266 890 s note2;
#X obj -215 890 s note3;
#X obj -167 890 s note4;
#X obj -115 890 s note5;
#X obj -16 890 s note7;
#X obj -67 890 s note6;
#X obj -170 853 bng 15 250 50 0 empty empty empty 17 7 0 10 -262144
-1 -1;
#X obj -317 956 s note1;
#X obj -263 954 s note2;
#X obj -212 954 s note3;
#X obj -164 954 s note4;
#X obj -112 954 s note5;
#X obj -13 954 s note7;
#X obj -64 954 s note6;
#X obj -167 917 bng 15 250 50 0 empty empty empty 17 7 0 10 -262144
-1 -1;
#X obj -314 1015 s note1;
#X obj -260 1013 s note2;
#X obj -209 1013 s note3;
#X obj -161 1013 s note4;
#X obj -109 1013 s note5;
#X obj -10 1013 s note7;
#X obj -61 1013 s note6;
#X obj -164 976 bng 15 250 50 0 empty empty empty 17 7 0 10 -262144
-1 -1;
#X obj -311 1079 s note1;
#X obj -257 1077 s note2;
#X obj -206 1077 s note3;
#X obj -158 1077 s note4;
#X obj -106 1077 s note5;
#X obj -7 1077 s note7;
#X obj -58 1077 s note6;
#X obj -161 1040 bng 15 250 50 0 empty empty empty 17 7 0 10 -262144
-1 -1;
#X obj 423 291 s note1;
#X obj 475 291 s note2;
#X obj 526 291 s note3;
#X obj 574 291 s note4;
#X obj 626 291 s note5;
#X obj 725 291 s note7;
#X obj 674 291 s note6;
#X obj 418 374 s note1;
#X obj 470 374 s note2;
#X obj 521 374 s note3;
#X obj 569 374 s note4;
#X obj 621 374 s note5;
#X obj 720 374 s note7;
#X obj 669 374 s note6;
#X obj 421 446 s note1;
#X obj 473 446 s note2;
#X obj 524 446 s note3;
#X obj 572 446 s note4;
#X obj 624 446 s note5;
#X obj 723 446 s note7;
#X obj 672 446 s note6;
#X obj 420 520 s note1;
#X obj 472 520 s note2;
#X obj 523 520 s note3;
#X obj 571 520 s note4;
#X obj 623 520 s note5;
#X obj 722 520 s note7;
#X obj 671 520 s note6;
#X obj 415 596 s note1;
#X obj 467 596 s note2;
#X obj 518 596 s note3;
#X obj 566 596 s note4;
#X obj 618 596 s note5;
#X obj 717 596 s note7;
#X obj 666 596 s note6;
#X obj 415 670 s note1;
#X obj 467 670 s note2;
#X obj 518 670 s note3;
#X obj 566 670 s note4;
#X obj 618 670 s note5;
#X obj 717 670 s note7;
#X obj 666 670 s note6;
#X obj 1078 280 s note1;
#X obj 1130 280 s note2;
#X obj 1181 280 s note3;
#X obj 1229 280 s note4;
#X obj 1281 280 s note5;
#X obj 1380 280 s note7;
#X obj 1329 280 s note6;
#X obj 744 309 s note1;
#X obj 796 309 s note2;
#X obj 847 309 s note3;
#X obj 895 309 s note4;
#X obj 947 309 s note5;
#X obj 1046 309 s note7;
#X obj 995 309 s note6;
#X obj 732 362 s note1;
#X obj 784 362 s note2;
#X obj 835 362 s note3;
#X obj 883 362 s note4;
#X obj 935 362 s note5;
#X obj 1034 362 s note7;
#X obj 983 362 s note6;
#X obj 729 430 s note1;
#X obj 781 430 s note2;
#X obj 832 430 s note3;
#X obj 880 430 s note4;
#X obj 932 430 s note5;
#X obj 1031 430 s note7;
#X obj 980 430 s note6;
#X obj 738 510 s note1;
#X obj 790 510 s note2;
#X obj 841 510 s note3;
#X obj 889 510 s note4;
#X obj 941 510 s note5;
#X obj 1040 510 s note7;
#X obj 989 510 s note6;
#X obj 739 617 s note1;
#X obj 791 617 s note2;
#X obj 842 617 s note3;
#X obj 890 617 s note4;
#X obj 942 617 s note5;
#X obj 1041 617 s note7;
#X obj 990 617 s note6;
#X obj 742 697 s note1;
#X obj 794 697 s note2;
#X obj 845 697 s note3;
#X obj 893 697 s note4;
#X obj 945 697 s note5;
#X obj 1044 697 s note7;
#X obj 993 697 s note6;
#X obj 1085 357 s note1;
#X obj 1137 357 s note2;
#X obj 1188 357 s note3;
#X obj 1236 357 s note4;
#X obj 1288 357 s note5;
#X obj 1387 357 s note7;
#X obj 1336 357 s note6;
#X obj 1091 430 s note1;
#X obj 1143 430 s note2;
#X obj 1194 430 s note3;
#X obj 1242 430 s note4;
#X obj 1294 430 s note5;
#X obj 1393 430 s note7;
#X obj 1342 430 s note6;
#X obj 1097 506 s note1;
#X obj 1149 506 s note2;
#X obj 1200 506 s note3;
#X obj 1248 506 s note4;
#X obj 1300 506 s note5;
#X obj 1399 506 s note7;
#X obj 1348 506 s note6;
#X obj 1098 592 s note1;
#X obj 1150 592 s note2;
#X obj 1201 592 s note3;
#X obj 1249 592 s note4;
#X obj 1301 592 s note5;
#X obj 1400 592 s note7;
#X obj 1349 592 s note6;
#X obj 1101 670 s note1;
#X obj 1153 670 s note2;
#X obj 1204 670 s note3;
#X obj 1252 670 s note4;
#X obj 1304 670 s note5;
#X obj 1403 670 s note7;
#X obj 1352 670 s note6;
#X obj 1462 281 s note1;
#X obj 1514 281 s note2;
#X obj 1565 281 s note3;
#X obj 1613 281 s note4;
#X obj 1665 281 s note5;
#X obj 1764 281 s note7;
#X obj 1713 282 s note6;
#X obj 1461 360 s note1;
#X obj 1513 360 s note2;
#X obj 1564 360 s note3;
#X obj 1612 360 s note4;
#X obj 1664 360 s note5;
#X obj 1763 360 s note7;
#X obj 1712 360 s note6;
#X obj 1462 428 s note1;
#X obj 1514 428 s note2;
#X obj 1565 428 s note3;
#X obj 1613 428 s note4;
#X obj 1665 428 s note5;
#X obj 1764 428 s note7;
#X obj 1713 428 s note6;
#X obj 1465 506 s note1;
#X obj 1517 506 s note2;
#X obj 1568 506 s note3;
#X obj 1616 506 s note4;
#X obj 1668 506 s note5;
#X obj 1767 506 s note7;
#X obj 1716 506 s note6;
#X obj 1463 588 s note1;
#X obj 1515 588 s note2;
#X obj 1566 588 s note3;
#X obj 1614 588 s note4;
#X obj 1666 588 s note5;
#X obj 1765 588 s note7;
#X obj 1714 588 s note6;
#X obj 1465 670 s note1;
#X obj 1517 670 s note2;
#X obj 1568 670 s note3;
#X obj 1616 670 s note4;
#X obj 1668 670 s note5;
#X obj 1767 670 s note7;
#X obj 1716 670 s note6;
#X obj 92 764 s note1;
#X obj 146 762 s note2;
#X obj 197 762 s note3;
#X obj 245 762 s note4;
#X obj 297 762 s note5;
#X obj 396 762 s note7;
#X obj 345 762 s note6;
#X obj 242 725 bng 15 250 50 0 empty empty empty 17 7 0 10 -262144
-1 -1;
#X obj 95 828 s note1;
#X obj 149 826 s note2;
#X obj 200 826 s note3;
#X obj 248 826 s note4;
#X obj 300 826 s note5;
#X obj 399 826 s note7;
#X obj 348 826 s note6;
#X obj 245 789 bng 15 250 50 0 empty empty empty 17 7 0 10 -262144
-1 -1;
#X obj 92 893 s note1;
#X obj 146 891 s note2;
#X obj 197 891 s note3;
#X obj 245 891 s note4;
#X obj 297 891 s note5;
#X obj 396 891 s note7;
#X obj 345 891 s note6;
#X obj 242 854 bng 15 250 50 0 empty empty empty 17 7 0 10 -262144
-1 -1;
#X obj 95 957 s note1;
#X obj 149 955 s note2;
#X obj 200 955 s note3;
#X obj 248 955 s note4;
#X obj 300 955 s note5;
#X obj 399 955 s note7;
#X obj 348 955 s note6;
#X obj 245 918 bng 15 250 50 0 empty empty empty 17 7 0 10 -262144
-1 -1;
#X obj 98 1016 s note1;
#X obj 152 1014 s note2;
#X obj 203 1014 s note3;
#X obj 251 1014 s note4;
#X obj 303 1014 s note5;
#X obj 402 1014 s note7;
#X obj 351 1014 s note6;
#X obj 248 977 bng 15 250 50 0 empty empty empty 17 7 0 10 -262144
-1 -1;
#X obj 101 1080 s note1;
#X obj 155 1078 s note2;
#X obj 206 1078 s note3;
#X obj 254 1078 s note4;
#X obj 306 1078 s note5;
#X obj 405 1078 s note7;
#X obj 354 1078 s note6;
#X obj 251 1041 bng 15 250 50 0 empty empty empty 17 7 0 10 -262144
-1 -1;
#X text 136 710 8 Chakra;
#X obj 488 764 s note1;
#X obj 542 762 s note2;
#X obj 593 762 s note3;
#X obj 641 762 s note4;
#X obj 693 762 s note5;
#X obj 792 762 s note7;
#X obj 741 762 s note6;
#X obj 638 725 bng 15 250 50 0 empty empty empty 17 7 0 10 -262144
-1 -1;
#X obj 491 828 s note1;
#X obj 545 826 s note2;
#X obj 596 826 s note3;
#X obj 644 826 s note4;
#X obj 696 826 s note5;
#X obj 795 826 s note7;
#X obj 744 826 s note6;
#X obj 641 789 bng 15 250 50 0 empty empty empty 17 7 0 10 -262144
-1 -1;
#X obj 488 893 s note1;
#X obj 542 891 s note2;
#X obj 593 891 s note3;
#X obj 641 891 s note4;
#X obj 693 891 s note5;
#X obj 792 891 s note7;
#X obj 741 891 s note6;
#X obj 638 854 bng 15 250 50 0 empty empty empty 17 7 0 10 -262144
-1 -1;
#X obj 491 957 s note1;
#X obj 545 955 s note2;
#X obj 596 955 s note3;
#X obj 644 955 s note4;
#X obj 696 955 s note5;
#X obj 795 955 s note7;
#X obj 744 955 s note6;
#X obj 641 918 bng 15 250 50 0 empty empty empty 17 7 0 10 -262144
-1 -1;
#X obj 494 1016 s note1;
#X obj 548 1014 s note2;
#X obj 599 1014 s note3;
#X obj 647 1014 s note4;
#X obj 699 1014 s note5;
#X obj 798 1014 s note7;
#X obj 747 1014 s note6;
#X obj 644 977 bng 15 250 50 0 empty empty empty 17 7 0 10 -262144
-1 -1;
#X obj 497 1080 s note1;
#X obj 551 1078 s note2;
#X obj 602 1078 s note3;
#X obj 650 1078 s note4;
#X obj 702 1078 s note5;
#X obj 801 1078 s note7;
#X obj 750 1078 s note6;
#X obj 647 1041 bng 15 250 50 0 empty empty empty 17 7 0 10 -262144
-1 -1;
#X obj 900 765 s note1;
#X obj 954 763 s note2;
#X obj 1005 763 s note3;
#X obj 1053 763 s note4;
#X obj 1105 763 s note5;
#X obj 1204 763 s note7;
#X obj 1153 763 s note6;
#X obj 1050 726 bng 15 250 50 0 empty empty empty 17 7 0 10 -262144
-1 -1;
#X obj 903 829 s note1;
#X obj 957 827 s note2;
#X obj 1008 827 s note3;
#X obj 1056 827 s note4;
#X obj 1108 827 s note5;
#X obj 1207 827 s note7;
#X obj 1158 824 s note6;
#X obj 1053 790 bng 15 250 50 0 empty empty empty 17 7 0 10 -262144
-1 -1;
#X obj 900 894 s note1;
#X obj 954 892 s note2;
#X obj 1005 892 s note3;
#X obj 1053 892 s note4;
#X obj 1105 892 s note5;
#X obj 1204 892 s note7;
#X obj 1153 892 s note6;
#X obj 1050 855 bng 15 250 50 0 empty empty empty 17 7 0 10 -262144
-1 -1;
#X obj 903 958 s note1;
#X obj 957 956 s note2;
#X obj 1008 956 s note3;
#X obj 1056 956 s note4;
#X obj 1108 956 s note5;
#X obj 1207 956 s note7;
#X obj 1156 956 s note6;
#X obj 1053 919 bng 15 250 50 0 empty empty empty 17 7 0 10 -262144
-1 -1;
#X obj 906 1017 s note1;
#X obj 960 1015 s note2;
#X obj 1011 1015 s note3;
#X obj 1059 1015 s note4;
#X obj 1111 1015 s note5;
#X obj 1210 1015 s note7;
#X obj 1159 1015 s note6;
#X obj 1056 978 bng 15 250 50 0 empty empty empty 17 7 0 10 -262144
-1 -1;
#X obj 909 1081 s note1;
#X obj 963 1079 s note2;
#X obj 1014 1079 s note3;
#X obj 1062 1079 s note4;
#X obj 1114 1079 s note5;
#X obj 1213 1079 s note7;
#X obj 1162 1079 s note6;
#X obj 1059 1042 bng 15 250 50 0 empty empty empty 17 7 0 10 -262144
-1 -1;
#X text 985 718 10 Chakra;
#X obj 1280 768 s note1;
#X obj 1334 766 s note2;
#X obj 1385 766 s note3;
#X obj 1433 766 s note4;
#X obj 1485 766 s note5;
#X obj 1584 766 s note7;
#X obj 1533 766 s note6;
#X obj 1430 729 bng 15 250 50 0 empty empty empty 17 7 0 10 -262144
-1 -1;
#X obj 1283 832 s note1;
#X obj 1337 830 s note2;
#X obj 1388 830 s note3;
#X obj 1436 830 s note4;
#X obj 1488 830 s note5;
#X obj 1587 830 s note7;
#X obj 1536 830 s note6;
#X obj 1433 793 bng 15 250 50 0 empty empty empty 17 7 0 10 -262144
-1 -1;
#X obj 1280 897 s note1;
#X obj 1334 895 s note2;
#X obj 1385 895 s note3;
#X obj 1433 895 s note4;
#X obj 1485 895 s note5;
#X obj 1584 895 s note7;
#X obj 1533 895 s note6;
#X obj 1430 858 bng 15 250 50 0 empty empty empty 17 7 0 10 -262144
-1 -1;
#X obj 1283 961 s note1;
#X obj 1337 959 s note2;
#X obj 1388 959 s note3;
#X obj 1436 959 s note4;
#X obj 1488 959 s note5;
#X obj 1587 959 s note7;
#X obj 1536 959 s note6;
#X obj 1433 922 bng 15 250 50 0 empty empty empty 17 7 0 10 -262144
-1 -1;
#X obj 1286 1020 s note1;
#X obj 1340 1018 s note2;
#X obj 1391 1018 s note3;
#X obj 1439 1018 s note4;
#X obj 1491 1018 s note5;
#X obj 1590 1018 s note7;
#X obj 1539 1018 s note6;
#X obj 1436 981 bng 15 250 50 0 empty empty empty 17 7 0 10 -262144
-1 -1;
#X obj 1289 1084 s note1;
#X obj 1343 1082 s note2;
#X obj 1394 1082 s note3;
#X obj 1442 1082 s note4;
#X obj 1494 1082 s note5;
#X obj 1593 1082 s note7;
#X obj 1542 1082 s note6;
#X obj 1439 1045 bng 15 250 50 0 empty empty empty 17 7 0 10 -262144
-1 -1;
#X text 1365 721 11 Chakra;
#X obj 1690 765 s note1;
#X obj 1744 763 s note2;
#X obj 1795 763 s note3;
#X obj 1843 763 s note4;
#X obj 1895 763 s note5;
#X obj 1994 763 s note7;
#X obj 1943 763 s note6;
#X obj 1840 726 bng 15 250 50 0 empty empty empty 17 7 0 10 -262144
-1 -1;
#X obj 1693 829 s note1;
#X obj 1747 827 s note2;
#X obj 1798 827 s note3;
#X obj 1846 827 s note4;
#X obj 1898 827 s note5;
#X obj 1997 827 s note7;
#X obj 1948 831 s note6;
#X obj 1843 790 bng 15 250 50 0 empty empty empty 17 7 0 10 -262144
-1 -1;
#X obj 1690 894 s note1;
#X obj 1744 892 s note2;
#X obj 1795 892 s note3;
#X obj 1843 892 s note4;
#X obj 1895 892 s note5;
#X obj 1994 892 s note7;
#X obj 1943 892 s note6;
#X obj 1840 855 bng 15 250 50 0 empty empty empty 17 7 0 10 -262144
-1 -1;
#X obj 1693 958 s note1;
#X obj 1747 956 s note2;
#X obj 1798 956 s note3;
#X obj 1846 956 s note4;
#X obj 1898 956 s note5;
#X obj 1997 956 s note7;
#X obj 1946 956 s note6;
#X obj 1843 919 bng 15 250 50 0 empty empty empty 17 7 0 10 -262144
-1 -1;
#X obj 1696 1017 s note1;
#X obj 1750 1015 s note2;
#X obj 1801 1015 s note3;
#X obj 1849 1015 s note4;
#X obj 1901 1015 s note5;
#X obj 2000 1015 s note7;
#X obj 1949 1015 s note6;
#X obj 1846 978 bng 15 250 50 0 empty empty empty 17 7 0 10 -262144
-1 -1;
#X obj 1699 1081 s note1;
#X obj 1753 1079 s note2;
#X obj 1804 1079 s note3;
#X obj 1852 1079 s note4;
#X obj 1904 1079 s note5;
#X obj 2003 1079 s note7;
#X obj 1952 1079 s note6;
#X obj 1849 1042 bng 15 250 50 0 empty empty empty 17 7 0 10 -262144
-1 -1;
#X text 1775 718 12 Chakra;
#X text -148 720 Salagam;
#X text -145 785 Jalarnavam;
#X text -148 853 Jhalavarali;
#X text -145 914 Navaneetam;
#X text -142 976 Pavani;
#X text -139 1037 Raghupriya;
#X text 264 721 Gavambhodi;
#X text 267 786 Bhavapriya;
#X text 264 854 Shubhapantuvarali;
#X text 267 915 Shadvivadmargini;
#X text 270 977 Suvarnangi;
#X text 273 1038 Divyamani;
#X text 532 709 9 Brahma Chakra;
#X text 660 721 Davalambari;
#X text 663 786 Namanarayani;
#X text 660 854 Kamavardani;
#X text 663 915 Ramapriya;
#X text 666 977 Gamanasharma;
#X text 669 1038 Vishwambari;
#X text 1072 720 Shamalangi;
#X text 1075 787 Shanmukhapriya;
#X text 1072 855 Simhendramadhyamam;
#X text 1075 916 Hemavati;
#X text 1078 978 Dharmavati;
#X text 1081 1039 Neetimati;
#X text 1452 725 Kantamani;
#X text 1455 790 Rishabhapriya;
#X text 1452 858 Latangi;
#X text 1455 919 Vachaspati;
#X text 1458 981 Mechakalyani;
#X text 1460 1042 Chitrambari;
#X text 1862 722 Sucharitra;
#X text 1865 787 Jyoti Swarupini;
#X text 1862 855 Dhatuvardani;
#X text 1865 916 Nasikabhushani;
#X text 1868 978 Kosalam;
#X text 1871 1039 Rasikapriya;
#X obj 1976 423 bng 15 250 50 0 empty empty empty 17 7 0 10 -262144
-1 -1;
#X floatatom 1880 212 5 1 72 0 - - -;
#X obj 1861 239 bng 15 250 50 0 empty empty empty 17 7 0 10 -262144
-1 -1;
#X obj 0 31 route 0 1 2 3 4 5 6 7 8 9 10 11 12 13 14 15 16 17 18 19
20 21 22;
#X obj 362 30 route 22 23 24 25 26 27 28 29 30 31 32 33 34 35 36 37
38 39 40;
#X obj 726 30 route 41 42 43 44 45 46 47 48 49 50 51 52 53 54 55 56
57 58 59;
#X obj 1091 39 route 60 61 62 63 64 65 66 67 68 69 70 71 72 73;
#X msg -317 739 0;
#X msg -265 741 1;
#X msg -212 741 2;
#X msg -164 741 6;
#X msg -115 741 7;
#X msg -67 741 8;
#X msg -16 740 9;
#X msg -67 740 8;
#X msg -112 806 7;
#X msg -59 801 9;
#X msg -314 803 0;
#X msg -317 868 0;
#X msg -312 933 0;
#X msg -311 991 0;
#X msg -308 1055 0;
#X msg -262 805 1;
#X msg -209 805 2;
#X msg -161 805 6;
#X msg -263 872 1;
#X msg -212 870 2;
#X msg -164 870 6;
#X msg -262 934 1;
#X msg -209 934 2;
#X msg -161 934 6;
#X msg -259 993 1;
#X msg -206 993 2;
#X msg -158 993 6;
#X msg -256 1057 1;
#X msg -203 1057 2;
#X msg -155 1057 6;
#X msg -13 804 10;
#X msg -115 870 7;
#X msg -61 866 8;
#X msg -16 869 11;
#X msg -112 934 7;
#X msg -63 932 9;
#X msg -13 933 10;
#X msg -109 993 7;
#X msg -58 992 9;
#X msg -10 992 11;
#X msg -106 1057 7;
#X msg -54 1056 10;
#X msg -7 1056 11;
#X msg 95 741 0;
#X msg 147 742 1;
#X msg 199 742 3;
#X msg 248 742 6;
#X msg 98 804 0;
#X msg 95 869 0;
#X msg 98 933 0;
#X msg 101 992 0;
#X msg 104 1056 0;
#X msg 491 740 0;
#X msg 494 804 0;
#X msg 491 869 0;
#X msg 494 933 0;
#X msg 497 992 0;
#X msg 500 1056 0;
#X msg 903 741 0;
#X msg 906 805 0;
#X msg 903 870 0;
#X msg 906 934 0;
#X msg 909 993 0;
#X msg 912 1057 0;
#X msg 1283 744 0;
#X msg 1286 808 0;
#X msg 1283 873 0;
#X msg 1286 937 0;
#X msg 1289 996 0;
#X msg 1292 1060 0;
#X msg 1692 741 0;
#X msg 1698 805 0;
#X msg 1694 870 0;
#X msg 1696 934 0;
#X msg 1699 993 0;
#X msg 1702 1057 0;
#X msg 150 806 1;
#X msg 204 806 3;
#X msg 251 806 6;
#X msg 148 872 1;
#X msg 200 871 3;
#X msg 248 871 6;
#X msg 150 936 1;
#X msg 203 934 3;
#X msg 251 935 6;
#X msg 153 994 1;
#X msg 206 994 3;
#X msg 254 994 6;
#X msg 156 1058 1;
#X msg 209 1058 3;
#X msg 257 1058 6;
#X msg 297 742 7;
#X msg 342 739 8;
#X msg 397 741 9;
#X msg 300 806 7;
#X msg 346 802 8;
#X msg 346 802 9;
#X msg 399 805 10;
#X msg 297 871 7;
#X msg 348 869 8;
#X msg 396 870 11;
#X msg 300 935 7;
#X msg 348 934 9;
#X msg 399 934 10;
#X msg 303 994 7;
#X msg 351 994 9;
#X msg 402 993 11;
#X msg 306 1058 7;
#X msg 357 1056 10;
#X msg 405 1057 11;
#X msg 543 742 1;
#X msg 596 742 4;
#X msg 644 742 6;
#X msg 546 806 1;
#X msg 599 806 4;
#X msg 647 806 6;
#X msg 543 871 1;
#X msg 597 871 4;
#X msg 644 871 6;
#X msg 546 935 1;
#X msg 599 935 4;
#X msg 647 935 6;
#X msg 549 994 1;
#X msg 602 994 4;
#X msg 650 994 6;
#X msg 552 1058 1;
#X msg 605 1058 4;
#X msg 653 1058 6;
#X msg 955 743 2;
#X msg 1009 743 3;
#X msg 1056 743 6;
#X msg 958 807 2;
#X msg 1011 807 3;
#X msg 1059 807 6;
#X msg 955 872 2;
#X msg 1008 872 3;
#X msg 1056 873 6;
#X msg 958 936 2;
#X msg 1011 936 3;
#X msg 1059 936 6;
#X msg 961 995 2;
#X msg 1016 995 3;
#X msg 1062 995 6;
#X msg 964 1060 2;
#X msg 1018 1059 3;
#X msg 1065 1059 6;
#X msg 693 742 7;
#X msg 742 740 8;
#X msg 792 741 9;
#X msg 696 806 7;
#X msg 745 805 9;
#X msg 795 805 10;
#X msg 693 871 7;
#X msg 742 868 8;
#X msg 792 870 11;
#X msg 696 936 7;
#X msg 745 933 9;
#X msg 795 934 10;
#X msg 699 994 7;
#X msg 744 995 9;
#X msg 798 993 11;
#X msg 702 1058 7;
#X msg 750 1055 10;
#X msg 801 1057 11;
#X msg 1111 996 7;
#X msg 1161 993 9;
#X msg 1210 994 11;
#X msg 1108 936 7;
#X msg 1156 935 9;
#X msg 1207 935 10;
#X msg 1105 872 7;
#X msg 1154 871 8;
#X msg 1204 871 11;
#X msg 1108 807 7;
#X msg 1159 805 9;
#X msg 1207 806 10;
#X msg 1105 744 7;
#X msg 1153 742 8;
#X msg 1205 742 9;
#X msg 1114 1059 7;
#X msg 1213 1058 11;
#X msg 1164 1057 10;
#X msg 1335 746 2;
#X msg 1388 746 4;
#X msg 1436 746 6;
#X msg 1338 810 2;
#X msg 1391 810 4;
#X msg 1439 810 6;
#X msg 1336 875 2;
#X msg 1388 875 4;
#X msg 1436 875 6;
#X msg 1338 939 2;
#X msg 1391 939 4;
#X msg 1439 939 6;
#X msg 1341 998 2;
#X msg 1394 998 4;
#X msg 1442 998 6;
#X msg 1344 1062 2;
#X msg 1397 1062 4;
#X msg 1445 1062 6;
#X msg 1745 743 3;
#X msg 1798 744 4;
#X msg 1846 743 6;
#X msg 1748 807 3;
#X msg 1802 807 4;
#X msg 1849 807 6;
#X msg 1745 872 3;
#X msg 1798 872 4;
#X msg 1846 872 6;
#X msg 1748 936 3;
#X msg 1801 936 4;
#X msg 1849 936 6;
#X msg 1751 995 3;
#X msg 1804 995 4;
#X msg 1852 995 6;
#X msg 1755 1059 3;
#X msg 1807 1059 4;
#X msg 1855 1059 6;
#X msg 1486 746 7;
#X msg 1585 745 9;
#X msg 1895 743 7;
#X msg 1942 741 8;
#X msg 1994 742 9;
#X msg 1533 745 8;
#X msg 1488 810 7;
#X msg 1536 809 9;
#X msg 1536 809 9;
#X msg 1587 809 10;
#X msg 1485 875 7;
#X msg 1533 873 8;
#X msg 1584 874 11;
#X msg 1488 939 7;
#X msg 1587 938 10;
#X msg 1536 938 9;
#X msg 1491 998 7;
#X msg 1539 997 9;
#X msg 1539 997 9;
#X msg 1590 997 11;
#X msg 1494 1062 7;
#X msg 1542 1062 10;
#X msg 1594 1061 11;
#X msg 1899 806 7;
#X msg 1946 805 9;
#X msg 1997 806 10;
#X msg 1895 872 7;
#X msg 1944 872 8;
#X msg 1994 871 11;
#X msg 1898 936 7;
#X msg 1947 936 9;
#X msg 1997 935 10;
#X msg 1901 995 7;
#X msg 1952 995 9;
#X msg 2000 994 11;
#X msg 1904 1059 7;
#X msg 1953 1057 10;
#X msg 2003 1058 11;
#X msg 1209 331 4;
#X connect 0 0 1 0;
#X connect 1 0 1009 0;
#X connect 1 0 1010 0;
#X connect 1 0 1011 0;
#X connect 1 0 1012 0;
#X connect 4 0 88 0;
#X connect 5 0 98 0;
#X connect 6 0 107 0;
#X connect 7 0 116 0;
#X connect 8 0 125 0;
#X connect 9 0 134 0;
#X connect 10 0 144 0;
#X connect 11 0 147 0;
#X connect 12 0 149 0;
#X connect 13 0 151 0;
#X connect 14 0 153 0;
#X connect 15 0 155 0;
#X connect 16 0 163 0;
#X connect 17 0 165 0;
#X connect 18 0 167 0;
#X connect 19 0 169 0;
#X connect 20 0 171 0;
#X connect 21 0 173 0;
#X connect 22 0 181 0;
#X connect 23 0 183 0;
#X connect 24 0 185 0;
#X connect 25 0 187 0;
#X connect 26 0 189 0;
#X connect 27 0 191 0;
#X connect 28 0 201 0;
#X connect 29 0 203 0;
#X connect 30 0 205 0;
#X connect 31 0 207 0;
#X connect 32 0 209 0;
#X connect 33 0 211 0;
#X connect 34 0 213 0;
#X connect 35 0 215 0;
#X connect 36 0 217 0;
#X connect 37 0 219 0;
#X connect 38 0 221 0;
#X connect 39 0 223 0;
#X connect 40 0 424 0;
#X connect 41 0 524 0;
#X connect 42 0 532 0;
#X connect 43 0 540 0;
#X connect 44 0 548 0;
#X connect 45 0 556 0;
#X connect 46 0 732 0;
#X connect 47 0 740 0;
#X connect 48 0 748 0;
#X connect 49 0 756 0;
#X connect 50 0 764 0;
#X connect 51 0 772 0;
#X connect 52 0 781 0;
#X connect 53 0 789 0;
#X connect 54 0 797 0;
#X connect 55 0 805 0;
#X connect 56 0 813 0;
#X connect 57 0 821 0;
#X connect 58 0 829 0;
#X connect 59 0 837 0;
#X connect 60 0 845 0;
#X connect 61 0 853 0;
#X connect 62 0 861 0;
#X connect 63 0 869 0;
#X connect 64 0 878 0;
#X connect 65 0 886 0;
#X connect 66 0 894 0;
#X connect 67 0 902 0;
#X connect 68 0 910 0;
#X connect 69 0 918 0;
#X connect 70 0 927 0;
#X connect 71 0 935 0;
#X connect 72 0 943 0;
#X connect 73 0 951 0;
#X connect 74 0 959 0;
#X connect 75 0 967 0;
#X connect 87 0 432 0;
#X connect 88 0 87 0;
#X connect 88 0 91 0;
#X connect 88 0 92 0;
#X connect 88 0 93 0;
#X connect 88 0 94 0;
#X connect 88 0 95 0;
#X connect 88 0 96 0;
#X connect 91 0 433 0;
#X connect 92 0 434 0;
#X connect 93 0 435 0;
#X connect 94 0 436 0;
#X connect 95 0 438 0;
#X connect 96 0 437 0;
#X connect 97 0 439 0;
#X connect 98 0 97 0;
#X connect 98 0 99 0;
#X connect 98 0 100 0;
#X connect 98 0 101 0;
#X connect 98 0 102 0;
#X connect 98 0 103 0;
#X connect 98 0 105 0;
#X connect 99 0 440 0;
#X connect 100 0 441 0;
#X connect 101 0 442 0;
#X connect 102 0 443 0;
#X connect 103 0 445 0;
#X connect 105 0 444 0;
#X connect 106 0 446 0;
#X connect 107 0 106 0;
#X connect 107 0 108 0;
#X connect 107 0 109 0;
#X connect 107 0 110 0;
#X connect 107 0 111 0;
#X connect 107 0 112 0;
#X connect 107 0 114 0;
#X connect 108 0 447 0;
#X connect 109 0 448 0;
#X connect 110 0 449 0;
#X connect 111 0 450 0;
#X connect 112 0 452 0;
#X connect 114 0 451 0;
#X connect 115 0 453 0;
#X connect 116 0 115 0;
#X connect 116 0 117 0;
#X connect 116 0 118 0;
#X connect 116 0 119 0;
#X connect 116 0 120 0;
#X connect 116 0 122 0;
#X connect 116 0 123 0;
#X connect 117 0 454 0;
#X connect 118 0 455 0;
#X connect 119 0 456 0;
#X connect 120 0 457 0;
#X connect 122 0 459 0;
#X connect 123 0 458 0;
#X connect 124 0 460 0;
#X connect 125 0 124 0;
#X connect 125 0 126 0;
#X connect 125 0 127 0;
#X connect 125 0 128 0;
#X connect 125 0 129 0;
#X connect 125 0 130 0;
#X connect 125 0 132 0;
#X connect 126 0 461 0;
#X connect 127 0 462 0;
#X connect 128 0 463 0;
#X connect 129 0 464 0;
#X connect 130 0 466 0;
#X connect 132 0 465 0;
#X connect 133 0 467 0;
#X connect 134 0 133 0;
#X connect 134 0 135 0;
#X connect 134 0 136 0;
#X connect 134 0 137 0;
#X connect 134 0 138 0;
#X connect 134 0 141 0;
#X connect 134 0 139 0;
#X connect 135 0 468 0;
#X connect 136 0 469 0;
#X connect 137 0 470 0;
#X connect 138 0 471 0;
#X connect 139 0 472 0;
#X connect 141 0 473 0;
#X connect 143 0 474 0;
#X connect 144 0 143 0;
#X connect 144 0 232 0;
#X connect 144 0 233 0;
#X connect 144 0 234 0;
#X connect 144 0 235 0;
#X connect 144 0 236 0;
#X connect 144 0 237 0;
#X connect 146 0 481 0;
#X connect 147 0 146 0;
#X connect 147 0 226 0;
#X connect 147 0 227 0;
#X connect 147 0 228 0;
#X connect 147 0 229 0;
#X connect 147 0 230 0;
#X connect 147 0 231 0;
#X connect 148 0 488 0;
#X connect 149 0 148 0;
#X connect 149 0 238 0;
#X connect 149 0 239 0;
#X connect 149 0 240 0;
#X connect 149 0 241 0;
#X connect 149 0 242 0;
#X connect 149 0 243 0;
#X connect 150 0 495 0;
#X connect 151 0 150 0;
#X connect 151 0 244 0;
#X connect 151 0 245 0;
#X connect 151 0 246 0;
#X connect 151 0 247 0;
#X connect 151 0 248 0;
#X connect 151 0 249 0;
#X connect 152 0 502 0;
#X connect 153 0 152 0;
#X connect 153 0 250 0;
#X connect 153 0 251 0;
#X connect 153 0 252 0;
#X connect 153 0 253 0;
#X connect 153 0 254 0;
#X connect 153 0 255 0;
#X connect 154 0 509 0;
#X connect 155 0 154 0;
#X connect 155 0 256 0;
#X connect 155 0 257 0;
#X connect 155 0 258 0;
#X connect 155 0 259 0;
#X connect 155 0 260 0;
#X connect 155 0 261 0;
#X connect 162 0 557 0;
#X connect 163 0 162 0;
#X connect 163 0 262 0;
#X connect 163 0 263 0;
#X connect 163 0 264 0;
#X connect 163 0 265 0;
#X connect 163 0 266 0;
#X connect 163 0 267 0;
#X connect 164 0 564 0;
#X connect 165 0 164 0;
#X connect 165 0 268 0;
#X connect 165 0 269 0;
#X connect 165 0 278 0;
#X connect 165 0 283 0;
#X connect 165 0 284 0;
#X connect 165 0 285 0;
#X connect 166 0 571 0;
#X connect 167 0 166 0;
#X connect 167 0 270 0;
#X connect 167 0 271 0;
#X connect 167 0 279 0;
#X connect 167 0 286 0;
#X connect 167 0 290 0;
#X connect 167 0 291 0;
#X connect 168 0 578 0;
#X connect 169 0 168 0;
#X connect 169 0 272 0;
#X connect 169 0 273 0;
#X connect 169 0 280 0;
#X connect 169 0 287 0;
#X connect 169 0 292 0;
#X connect 169 0 293 0;
#X connect 170 0 585 0;
#X connect 171 0 170 0;
#X connect 171 0 274 0;
#X connect 171 0 275 0;
#X connect 171 0 281 0;
#X connect 171 0 288 0;
#X connect 171 0 294 0;
#X connect 171 0 295 0;
#X connect 172 0 592 0;
#X connect 173 0 172 0;
#X connect 173 0 276 0;
#X connect 173 0 277 0;
#X connect 173 0 282 0;
#X connect 173 0 289 0;
#X connect 173 0 296 0;
#X connect 173 0 297 0;
#X connect 180 0 606 0;
#X connect 181 0 180 0;
#X connect 181 0 298 0;
#X connect 181 0 299 0;
#X connect 181 0 310 0;
#X connect 181 0 316 0;
#X connect 181 0 317 0;
#X connect 181 0 318 0;
#X connect 182 0 613 0;
#X connect 183 0 182 0;
#X connect 183 0 300 0;
#X connect 183 0 301 0;
#X connect 183 0 311 0;
#X connect 183 0 319 0;
#X connect 183 0 320 0;
#X connect 183 0 321 0;
#X connect 184 0 620 0;
#X connect 185 0 184 0;
#X connect 185 0 302 0;
#X connect 185 0 303 0;
#X connect 185 0 312 0;
#X connect 185 0 322 0;
#X connect 185 0 323 0;
#X connect 185 0 324 0;
#X connect 186 0 627 0;
#X connect 187 0 186 0;
#X connect 187 0 304 0;
#X connect 187 0 305 0;
#X connect 187 0 313 0;
#X connect 187 0 325 0;
#X connect 187 0 326 0;
#X connect 187 0 327 0;
#X connect 188 0 634 0;
#X connect 189 0 188 0;
#X connect 189 0 306 0;
#X connect 189 0 307 0;
#X connect 189 0 314 0;
#X connect 189 0 328 0;
#X connect 189 0 329 0;
#X connect 189 0 330 0;
#X connect 190 0 641 0;
#X connect 191 0 190 0;
#X connect 191 0 308 0;
#X connect 191 0 309 0;
#X connect 191 0 315 0;
#X connect 191 0 331 0;
#X connect 191 0 332 0;
#X connect 191 0 333 0;
#X connect 200 0 599 0;
#X connect 201 0 200 0;
#X connect 201 0 335 0;
#X connect 201 0 336 0;
#X connect 201 0 337 0;
#X connect 201 0 338 0;
#X connect 201 0 339 0;
#X connect 201 0 340 0;
#X connect 202 0 648 0;
#X connect 203 0 202 0;
#X connect 203 0 341 0;
#X connect 203 0 1269 0;
#X connect 203 0 342 0;
#X connect 203 0 355 0;
#X connect 203 0 360 0;
#X connect 203 0 361 0;
#X connect 204 0 655 0;
#X connect 205 0 204 0;
#X connect 205 0 343 0;
#X connect 205 0 344 0;
#X connect 205 0 351 0;
#X connect 205 0 356 0;
#X connect 205 0 362 0;
#X connect 205 0 363 0;
#X connect 206 0 662 0;
#X connect 207 0 206 0;
#X connect 207 0 345 0;
#X connect 207 0 346 0;
#X connect 207 0 352 0;
#X connect 207 0 357 0;
#X connect 207 0 369 0;
#X connect 207 0 370 0;
#X connect 208 0 669 0;
#X connect 209 0 208 0;
#X connect 209 0 347 0;
#X connect 209 0 348 0;
#X connect 209 0 353 0;
#X connect 209 0 358 0;
#X connect 209 0 371 0;
#X connect 209 0 372 0;
#X connect 210 0 676 0;
#X connect 211 0 210 0;
#X connect 211 0 349 0;
#X connect 211 0 350 0;
#X connect 211 0 354 0;
#X connect 211 0 359 0;
#X connect 211 0 373 0;
#X connect 211 0 374 0;
#X connect 212 0 683 0;
#X connect 213 0 212 0;
#X connect 213 0 381 0;
#X connect 213 0 382 0;
#X connect 213 0 383 0;
#X connect 213 0 399 0;
#X connect 213 0 400 0;
#X connect 213 0 401 0;
#X connect 214 0 690 0;
#X connect 215 0 214 0;
#X connect 215 0 384 0;
#X connect 215 0 385 0;
#X connect 215 0 391 0;
#X connect 215 0 402 0;
#X connect 215 0 403 0;
#X connect 215 0 404 0;
#X connect 216 0 697 0;
#X connect 217 0 216 0;
#X connect 217 0 386 0;
#X connect 217 0 387 0;
#X connect 217 0 392 0;
#X connect 217 0 405 0;
#X connect 217 0 406 0;
#X connect 217 0 407 0;
#X connect 218 0 704 0;
#X connect 219 0 218 0;
#X connect 219 0 388 0;
#X connect 219 0 389 0;
#X connect 219 0 390 0;
#X connect 219 0 408 0;
#X connect 219 0 409 0;
#X connect 219 0 410 0;
#X connect 220 0 711 0;
#X connect 221 0 220 0;
#X connect 221 0 393 0;
#X connect 221 0 394 0;
#X connect 221 0 395 0;
#X connect 221 0 411 0;
#X connect 221 0 412 0;
#X connect 221 0 413 0;
#X connect 222 0 718 0;
#X connect 223 0 222 0;
#X connect 223 0 396 0;
#X connect 223 0 397 0;
#X connect 223 0 398 0;
#X connect 223 0 414 0;
#X connect 223 0 415 0;
#X connect 223 0 416 0;
#X connect 226 0 482 0;
#X connect 227 0 483 0;
#X connect 228 0 484 0;
#X connect 229 0 485 0;
#X connect 230 0 487 0;
#X connect 231 0 486 0;
#X connect 232 0 475 0;
#X connect 233 0 476 0;
#X connect 234 0 477 0;
#X connect 235 0 478 0;
#X connect 236 0 480 0;
#X connect 237 0 479 0;
#X connect 238 0 489 0;
#X connect 239 0 490 0;
#X connect 240 0 491 0;
#X connect 241 0 492 0;
#X connect 242 0 494 0;
#X connect 243 0 493 0;
#X connect 244 0 496 0;
#X connect 245 0 497 0;
#X connect 246 0 498 0;
#X connect 247 0 499 0;
#X connect 248 0 501 0;
#X connect 249 0 500 0;
#X connect 250 0 503 0;
#X connect 251 0 504 0;
#X connect 252 0 505 0;
#X connect 253 0 506 0;
#X connect 254 0 508 0;
#X connect 255 0 507 0;
#X connect 256 0 510 0;
#X connect 257 0 511 0;
#X connect 258 0 512 0;
#X connect 259 0 513 0;
#X connect 260 0 515 0;
#X connect 261 0 514 0;
#X connect 262 0 558 0;
#X connect 263 0 559 0;
#X connect 264 0 560 0;
#X connect 265 0 561 0;
#X connect 266 0 563 0;
#X connect 267 0 562 0;
#X connect 268 0 565 0;
#X connect 269 0 566 0;
#X connect 270 0 572 0;
#X connect 271 0 573 0;
#X connect 272 0 579 0;
#X connect 273 0 580 0;
#X connect 274 0 586 0;
#X connect 275 0 587 0;
#X connect 276 0 593 0;
#X connect 277 0 594 0;
#X connect 278 0 567 0;
#X connect 279 0 574 0;
#X connect 280 0 581 0;
#X connect 281 0 588 0;
#X connect 282 0 595 0;
#X connect 283 0 568 0;
#X connect 284 0 570 0;
#X connect 285 0 569 0;
#X connect 286 0 575 0;
#X connect 287 0 582 0;
#X connect 288 0 589 0;
#X connect 289 0 596 0;
#X connect 290 0 577 0;
#X connect 291 0 576 0;
#X connect 292 0 584 0;
#X connect 293 0 583 0;
#X connect 294 0 591 0;
#X connect 295 0 590 0;
#X connect 296 0 598 0;
#X connect 297 0 597 0;
#X connect 298 0 607 0;
#X connect 299 0 608 0;
#X connect 300 0 614 0;
#X connect 301 0 615 0;
#X connect 302 0 621 0;
#X connect 303 0 622 0;
#X connect 304 0 628 0;
#X connect 305 0 629 0;
#X connect 306 0 635 0;
#X connect 307 0 636 0;
#X connect 308 0 642 0;
#X connect 309 0 643 0;
#X connect 310 0 609 0;
#X connect 311 0 616 0;
#X connect 312 0 623 0;
#X connect 313 0 630 0;
#X connect 314 0 637 0;
#X connect 315 0 644 0;
#X connect 316 0 610 0;
#X connect 317 0 612 0;
#X connect 318 0 611 0;
#X connect 319 0 617 0;
#X connect 320 0 619 0;
#X connect 321 0 618 0;
#X connect 322 0 624 0;
#X connect 323 0 626 0;
#X connect 324 0 625 0;
#X connect 325 0 631 0;
#X connect 326 0 633 0;
#X connect 327 0 632 0;
#X connect 328 0 638 0;
#X connect 329 0 640 0;
#X connect 330 0 639 0;
#X connect 331 0 645 0;
#X connect 332 0 647 0;
#X connect 333 0 646 0;
#X connect 335 0 600 0;
#X connect 336 0 601 0;
#X connect 337 0 602 0;
#X connect 338 0 603 0;
#X connect 339 0 605 0;
#X connect 340 0 604 0;
#X connect 341 0 649 0;
#X connect 342 0 651 0;
#X connect 343 0 656 0;
#X connect 344 0 657 0;
#X connect 345 0 663 0;
#X connect 346 0 664 0;
#X connect 347 0 670 0;
#X connect 348 0 671 0;
#X connect 349 0 677 0;
#X connect 350 0 678 0;
#X connect 351 0 658 0;
#X connect 352 0 665 0;
#X connect 353 0 672 0;
#X connect 354 0 679 0;
#X connect 355 0 652 0;
#X connect 356 0 659 0;
#X connect 357 0 666 0;
#X connect 358 0 673 0;
#X connect 359 0 680 0;
#X connect 360 0 654 0;
#X connect 361 0 653 0;
#X connect 362 0 661 0;
#X connect 363 0 660 0;
#X connect 369 0 668 0;
#X connect 370 0 667 0;
#X connect 371 0 675 0;
#X connect 372 0 674 0;
#X connect 373 0 682 0;
#X connect 374 0 681 0;
#X connect 381 0 684 0;
#X connect 382 0 685 0;
#X connect 383 0 686 0;
#X connect 384 0 691 0;
#X connect 385 0 692 0;
#X connect 386 0 698 0;
#X connect 387 0 699 0;
#X connect 388 0 705 0;
#X connect 389 0 706 0;
#X connect 390 0 707 0;
#X connect 391 0 693 0;
#X connect 392 0 700 0;
#X connect 393 0 712 0;
#X connect 394 0 713 0;
#X connect 395 0 714 0;
#X connect 396 0 719 0;
#X connect 397 0 720 0;
#X connect 398 0 721 0;
#X connect 399 0 687 0;
#X connect 400 0 689 0;
#X connect 401 0 688 0;
#X connect 402 0 694 0;
#X connect 403 0 696 0;
#X connect 404 0 695 0;
#X connect 405 0 701 0;
#X connect 406 0 703 0;
#X connect 407 0 702 0;
#X connect 408 0 708 0;
#X connect 409 0 710 0;
#X connect 410 0 709 0;
#X connect 411 0 715 0;
#X connect 412 0 717 0;
#X connect 413 0 716 0;
#X connect 414 0 722 0;
#X connect 415 0 724 0;
#X connect 416 0 723 0;
#X connect 424 0 1013 0;
#X connect 424 0 1014 0;
#X connect 424 0 1015 0;
#X connect 424 0 1016 0;
#X connect 424 0 1017 0;
#X connect 424 0 1018 0;
#X connect 424 0 1019 0;
#X connect 425 0 81 0;
#X connect 426 0 82 0;
#X connect 427 0 83 0;
#X connect 428 0 84 0;
#X connect 429 0 85 0;
#X connect 430 0 86 0;
#X connect 431 0 89 0;
#X connect 524 0 1023 0;
#X connect 524 0 1028 0;
#X connect 524 0 1029 0;
#X connect 524 0 1030 0;
#X connect 524 0 1021 0;
#X connect 524 0 1022 0;
#X connect 524 0 1043 0;
#X connect 532 0 1024 0;
#X connect 532 0 1031 0;
#X connect 532 0 1032 0;
#X connect 532 0 1033 0;
#X connect 532 0 1044 0;
#X connect 532 0 1045 0;
#X connect 532 0 1046 0;
#X connect 540 0 1025 0;
#X connect 540 0 1034 0;
#X connect 540 0 1035 0;
#X connect 540 0 1036 0;
#X connect 540 0 1047 0;
#X connect 540 0 1048 0;
#X connect 540 0 1049 0;
#X connect 548 0 1026 0;
#X connect 548 0 1037 0;
#X connect 548 0 1038 0;
#X connect 548 0 1039 0;
#X connect 548 0 1050 0;
#X connect 548 0 1051 0;
#X connect 548 0 1052 0;
#X connect 556 0 1027 0;
#X connect 556 0 1040 0;
#X connect 556 0 1041 0;
#X connect 556 0 1042 0;
#X connect 556 0 1053 0;
#X connect 556 0 1054 0;
#X connect 556 0 1055 0;
#X connect 732 0 1056 0;
#X connect 732 0 1057 0;
#X connect 732 0 1058 0;
#X connect 732 0 1059 0;
#X connect 732 0 1104 0;
#X connect 732 0 1105 0;
#X connect 732 0 1106 0;
#X connect 740 0 1060 0;
#X connect 740 0 1089 0;
#X connect 740 0 1090 0;
#X connect 740 0 1091 0;
#X connect 740 0 1107 0;
#X connect 740 0 1108 0;
#X connect 740 0 1110 0;
#X connect 748 0 1061 0;
#X connect 748 0 1092 0;
#X connect 748 0 1093 0;
#X connect 748 0 1094 0;
#X connect 748 0 1111 0;
#X connect 748 0 1112 0;
#X connect 748 0 1113 0;
#X connect 756 0 1062 0;
#X connect 756 0 1095 0;
#X connect 756 0 1096 0;
#X connect 756 0 1097 0;
#X connect 756 0 1114 0;
#X connect 756 0 1115 0;
#X connect 756 0 1116 0;
#X connect 764 0 1063 0;
#X connect 764 0 1098 0;
#X connect 764 0 1099 0;
#X connect 764 0 1100 0;
#X connect 764 0 1117 0;
#X connect 764 0 1118 0;
#X connect 764 0 1119 0;
#X connect 772 0 1064 0;
#X connect 772 0 1101 0;
#X connect 772 0 1102 0;
#X connect 772 0 1103 0;
#X connect 772 0 1120 0;
#X connect 772 0 1121 0;
#X connect 772 0 1122 0;
#X connect 781 0 1065 0;
#X connect 781 0 1123 0;
#X connect 781 0 1124 0;
#X connect 781 0 1125 0;
#X connect 781 0 1159 0;
#X connect 781 0 1160 0;
#X connect 781 0 1161 0;
#X connect 789 0 1066 0;
#X connect 789 0 1126 0;
#X connect 789 0 1127 0;
#X connect 789 0 1128 0;
#X connect 789 0 1162 0;
#X connect 789 0 1163 0;
#X connect 789 0 1164 0;
#X connect 797 0 1067 0;
#X connect 797 0 1129 0;
#X connect 797 0 1130 0;
#X connect 797 0 1131 0;
#X connect 797 0 1165 0;
#X connect 797 0 1166 0;
#X connect 797 0 1167 0;
#X connect 805 0 1068 0;
#X connect 805 0 1132 0;
#X connect 805 0 1133 0;
#X connect 805 0 1134 0;
#X connect 805 0 1168 0;
#X connect 805 0 1169 0;
#X connect 805 0 1170 0;
#X connect 813 0 1069 0;
#X connect 813 0 1135 0;
#X connect 813 0 1136 0;
#X connect 813 0 1137 0;
#X connect 813 0 1171 0;
#X connect 813 0 1172 0;
#X connect 813 0 1173 0;
#X connect 821 0 1070 0;
#X connect 821 0 1138 0;
#X connect 821 0 1139 0;
#X connect 821 0 1140 0;
#X connect 821 0 1174 0;
#X connect 821 0 1175 0;
#X connect 821 0 1176 0;
#X connect 829 0 1071 0;
#X connect 829 0 1141 0;
#X connect 829 0 1142 0;
#X connect 829 0 1143 0;
#X connect 829 0 1189 0;
#X connect 829 0 1190 0;
#X connect 829 0 1191 0;
#X connect 837 0 1072 0;
#X connect 837 0 1144 0;
#X connect 837 0 1145 0;
#X connect 837 0 1146 0;
#X connect 837 0 1186 0;
#X connect 837 0 1187 0;
#X connect 837 0 1188 0;
#X connect 845 0 1073 0;
#X connect 845 0 1147 0;
#X connect 845 0 1148 0;
#X connect 845 0 1149 0;
#X connect 845 0 1183 0;
#X connect 845 0 1184 0;
#X connect 845 0 1185 0;
#X connect 853 0 1074 0;
#X connect 853 0 1150 0;
#X connect 853 0 1151 0;
#X connect 853 0 1152 0;
#X connect 853 0 1180 0;
#X connect 853 0 1181 0;
#X connect 853 0 1182 0;
#X connect 861 0 1075 0;
#X connect 861 0 1153 0;
#X connect 861 0 1154 0;
#X connect 861 0 1155 0;
#X connect 861 0 1177 0;
#X connect 861 0 1178 0;
#X connect 861 0 1179 0;
#X connect 869 0 1076 0;
#X connect 869 0 1156 0;
#X connect 869 0 1157 0;
#X connect 869 0 1158 0;
#X connect 869 0 1192 0;
#X connect 869 0 1194 0;
#X connect 869 0 1193 0;
#X connect 878 0 1077 0;
#X connect 878 0 1195 0;
#X connect 878 0 1196 0;
#X connect 878 0 1197 0;
#X connect 878 0 1231 0;
#X connect 878 0 1236 0;
#X connect 878 0 1232 0;
#X connect 886 0 1078 0;
#X connect 886 0 1198 0;
#X connect 886 0 1199 0;
#X connect 886 0 1200 0;
#X connect 886 0 1237 0;
#X connect 886 0 1238 0;
#X connect 886 0 1240 0;
#X connect 894 0 1079 0;
#X connect 894 0 1201 0;
#X connect 894 0 1202 0;
#X connect 894 0 1203 0;
#X connect 894 0 1241 0;
#X connect 894 0 1242 0;
#X connect 894 0 1243 0;
#X connect 902 0 1080 0;
#X connect 902 0 1204 0;
#X connect 902 0 1205 0;
#X connect 902 0 1206 0;
#X connect 902 0 1244 0;
#X connect 902 0 1246 0;
#X connect 902 0 1245 0;
#X connect 910 0 1081 0;
#X connect 910 0 1207 0;
#X connect 910 0 1208 0;
#X connect 910 0 1209 0;
#X connect 910 0 1247 0;
#X connect 910 0 1248 0;
#X connect 910 0 1250 0;
#X connect 918 0 1082 0;
#X connect 918 0 1210 0;
#X connect 918 0 1211 0;
#X connect 918 0 1212 0;
#X connect 918 0 1251 0;
#X connect 918 0 1253 0;
#X connect 918 0 1252 0;
#X connect 927 0 1083 0;
#X connect 927 0 1213 0;
#X connect 927 0 1214 0;
#X connect 927 0 1215 0;
#X connect 927 0 1233 0;
#X connect 927 0 1234 0;
#X connect 927 0 1235 0;
#X connect 935 0 1084 0;
#X connect 935 0 1216 0;
#X connect 935 0 1217 0;
#X connect 935 0 1218 0;
#X connect 935 0 1254 0;
#X connect 935 0 1255 0;
#X connect 935 0 1256 0;
#X connect 943 0 1085 0;
#X connect 943 0 1219 0;
#X connect 943 0 1220 0;
#X connect 943 0 1221 0;
#X connect 943 0 1257 0;
#X connect 943 0 1258 0;
#X connect 943 0 1259 0;
#X connect 951 0 1086 0;
#X connect 951 0 1222 0;
#X connect 951 0 1223 0;
#X connect 951 0 1224 0;
#X connect 951 0 1260 0;
#X connect 951 0 1261 0;
#X connect 951 0 1262 0;
#X connect 959 0 1087 0;
#X connect 959 0 1225 0;
#X connect 959 0 1226 0;
#X connect 959 0 1227 0;
#X connect 959 0 1263 0;
#X connect 959 0 1264 0;
#X connect 959 0 1265 0;
#X connect 967 0 1088 0;
#X connect 967 0 1228 0;
#X connect 967 0 1229 0;
#X connect 967 0 1230 0;
#X connect 967 0 1266 0;
#X connect 967 0 1267 0;
#X connect 967 0 1268 0;
#X connect 1006 0 1 0;
#X connect 1007 0 1 0;
#X connect 1008 0 1007 0;
#X connect 1009 0 3 0;
#X connect 1009 1 4 0;
#X connect 1009 2 5 0;
#X connect 1009 3 6 0;
#X connect 1009 4 7 0;
#X connect 1009 5 8 0;
#X connect 1009 6 9 0;
#X connect 1009 7 10 0;
#X connect 1009 8 11 0;
#X connect 1009 9 12 0;
#X connect 1009 10 13 0;
#X connect 1009 11 14 0;
#X connect 1009 12 15 0;
#X connect 1009 13 16 0;
#X connect 1009 14 17 0;
#X connect 1009 15 18 0;
#X connect 1009 16 19 0;
#X connect 1009 17 20 0;
#X connect 1009 18 21 0;
#X connect 1009 19 22 0;
#X connect 1009 20 23 0;
#X connect 1009 21 24 0;
#X connect 1010 0 25 0;
#X connect 1010 1 26 0;
#X connect 1010 2 27 0;
#X connect 1010 3 28 0;
#X connect 1010 4 29 0;
#X connect 1010 5 30 0;
#X connect 1010 6 31 0;
#X connect 1010 7 32 0;
#X connect 1010 8 33 0;
#X connect 1010 9 34 0;
#X connect 1010 10 35 0;
#X connect 1010 11 36 0;
#X connect 1010 12 37 0;
#X connect 1010 13 38 0;
#X connect 1010 14 39 0;
#X connect 1010 15 40 0;
#X connect 1010 16 41 0;
#X connect 1010 17 42 0;
#X connect 1010 18 43 0;
#X connect 1011 0 44 0;
#X connect 1011 1 45 0;
#X connect 1011 2 46 0;
#X connect 1011 3 47 0;
#X connect 1011 4 48 0;
#X connect 1011 5 49 0;
#X connect 1011 6 50 0;
#X connect 1011 7 51 0;
#X connect 1011 8 52 0;
#X connect 1011 9 53 0;
#X connect 1011 10 54 0;
#X connect 1011 11 55 0;
#X connect 1011 12 56 0;
#X connect 1011 13 57 0;
#X connect 1011 14 58 0;
#X connect 1011 15 59 0;
#X connect 1011 16 60 0;
#X connect 1011 17 61 0;
#X connect 1011 18 62 0;
#X connect 1012 0 63 0;
#X connect 1012 1 64 0;
#X connect 1012 2 65 0;
#X connect 1012 3 66 0;
#X connect 1012 4 67 0;
#X connect 1012 5 68 0;
#X connect 1012 6 69 0;
#X connect 1012 7 70 0;
#X connect 1012 8 71 0;
#X connect 1012 9 72 0;
#X connect 1012 10 73 0;
#X connect 1012 11 74 0;
#X connect 1012 12 75 0;
#X connect 1012 13 76 0;
#X connect 1012 14 77 0;
#X connect 1013 0 417 0;
#X connect 1014 0 418 0;
#X connect 1015 0 419 0;
#X connect 1016 0 420 0;
#X connect 1017 0 421 0;
#X connect 1018 0 423 0;
#X connect 1019 0 422 0;
#X connect 1021 0 521 0;
#X connect 1022 0 523 0;
#X connect 1023 0 517 0;
#X connect 1024 0 525 0;
#X connect 1025 0 533 0;
#X connect 1026 0 541 0;
#X connect 1027 0 549 0;
#X connect 1028 0 518 0;
#X connect 1029 0 519 0;
#X connect 1030 0 520 0;
#X connect 1031 0 526 0;
#X connect 1032 0 527 0;
#X connect 1033 0 528 0;
#X connect 1034 0 534 0;
#X connect 1035 0 535 0;
#X connect 1036 0 536 0;
#X connect 1037 0 542 0;
#X connect 1038 0 543 0;
#X connect 1039 0 544 0;
#X connect 1040 0 550 0;
#X connect 1041 0 551 0;
#X connect 1042 0 552 0;
#X connect 1043 0 522 0;
#X connect 1044 0 529 0;
#X connect 1045 0 531 0;
#X connect 1046 0 530 0;
#X connect 1047 0 537 0;
#X connect 1048 0 539 0;
#X connect 1049 0 538 0;
#X connect 1050 0 545 0;
#X connect 1051 0 547 0;
#X connect 1052 0 546 0;
#X connect 1053 0 553 0;
#X connect 1054 0 555 0;
#X connect 1055 0 554 0;
#X connect 1056 0 725 0;
#X connect 1057 0 726 0;
#X connect 1058 0 727 0;
#X connect 1059 0 728 0;
#X connect 1060 0 733 0;
#X connect 1061 0 741 0;
#X connect 1062 0 749 0;
#X connect 1063 0 757 0;
#X connect 1064 0 765 0;
#X connect 1065 0 774 0;
#X connect 1066 0 782 0;
#X connect 1067 0 790 0;
#X connect 1068 0 798 0;
#X connect 1069 0 806 0;
#X connect 1070 0 814 0;
#X connect 1071 0 822 0;
#X connect 1072 0 830 0;
#X connect 1073 0 838 0;
#X connect 1074 0 846 0;
#X connect 1075 0 854 0;
#X connect 1076 0 862 0;
#X connect 1077 0 871 0;
#X connect 1078 0 879 0;
#X connect 1079 0 887 0;
#X connect 1080 0 895 0;
#X connect 1081 0 903 0;
#X connect 1082 0 911 0;
#X connect 1083 0 920 0;
#X connect 1084 0 928 0;
#X connect 1085 0 936 0;
#X connect 1086 0 944 0;
#X connect 1087 0 952 0;
#X connect 1088 0 960 0;
#X connect 1089 0 734 0;
#X connect 1090 0 735 0;
#X connect 1091 0 736 0;
#X connect 1092 0 742 0;
#X connect 1093 0 743 0;
#X connect 1094 0 744 0;
#X connect 1095 0 750 0;
#X connect 1096 0 751 0;
#X connect 1097 0 752 0;
#X connect 1098 0 758 0;
#X connect 1099 0 759 0;
#X connect 1100 0 760 0;
#X connect 1101 0 766 0;
#X connect 1102 0 767 0;
#X connect 1103 0 768 0;
#X connect 1104 0 729 0;
#X connect 1105 0 731 0;
#X connect 1106 0 730 0;
#X connect 1107 0 737 0;
#X connect 1108 0 739 0;
#X connect 1110 0 738 0;
#X connect 1111 0 745 0;
#X connect 1112 0 747 0;
#X connect 1113 0 746 0;
#X connect 1114 0 753 0;
#X connect 1115 0 755 0;
#X connect 1116 0 754 0;
#X connect 1117 0 761 0;
#X connect 1118 0 763 0;
#X connect 1119 0 762 0;
#X connect 1120 0 769 0;
#X connect 1121 0 771 0;
#X connect 1122 0 770 0;
#X connect 1123 0 775 0;
#X connect 1124 0 776 0;
#X connect 1125 0 777 0;
#X connect 1126 0 783 0;
#X connect 1127 0 784 0;
#X connect 1128 0 785 0;
#X connect 1129 0 791 0;
#X connect 1130 0 792 0;
#X connect 1131 0 793 0;
#X connect 1132 0 799 0;
#X connect 1133 0 800 0;
#X connect 1134 0 801 0;
#X connect 1135 0 807 0;
#X connect 1136 0 808 0;
#X connect 1137 0 809 0;
#X connect 1138 0 815 0;
#X connect 1139 0 816 0;
#X connect 1140 0 817 0;
#X connect 1141 0 823 0;
#X connect 1142 0 824 0;
#X connect 1143 0 825 0;
#X connect 1144 0 831 0;
#X connect 1145 0 832 0;
#X connect 1146 0 833 0;
#X connect 1147 0 839 0;
#X connect 1148 0 840 0;
#X connect 1149 0 841 0;
#X connect 1150 0 847 0;
#X connect 1151 0 848 0;
#X connect 1152 0 849 0;
#X connect 1153 0 855 0;
#X connect 1154 0 856 0;
#X connect 1155 0 857 0;
#X connect 1156 0 863 0;
#X connect 1157 0 864 0;
#X connect 1158 0 865 0;
#X connect 1159 0 778 0;
#X connect 1160 0 780 0;
#X connect 1161 0 779 0;
#X connect 1162 0 786 0;
#X connect 1163 0 788 0;
#X connect 1164 0 787 0;
#X connect 1165 0 794 0;
#X connect 1166 0 796 0;
#X connect 1167 0 795 0;
#X connect 1168 0 802 0;
#X connect 1169 0 804 0;
#X connect 1170 0 803 0;
#X connect 1171 0 810 0;
#X connect 1172 0 812 0;
#X connect 1173 0 811 0;
#X connect 1174 0 818 0;
#X connect 1175 0 820 0;
#X connect 1176 0 819 0;
#X connect 1177 0 858 0;
#X connect 1178 0 860 0;
#X connect 1179 0 859 0;
#X connect 1180 0 850 0;
#X connect 1181 0 852 0;
#X connect 1182 0 851 0;
#X connect 1183 0 842 0;
#X connect 1184 0 844 0;
#X connect 1185 0 843 0;
#X connect 1186 0 834 0;
#X connect 1187 0 836 0;
#X connect 1188 0 835 0;
#X connect 1189 0 826 0;
#X connect 1190 0 828 0;
#X connect 1191 0 827 0;
#X connect 1192 0 866 0;
#X connect 1193 0 867 0;
#X connect 1194 0 868 0;
#X connect 1195 0 872 0;
#X connect 1196 0 873 0;
#X connect 1197 0 874 0;
#X connect 1198 0 880 0;
#X connect 1199 0 881 0;
#X connect 1200 0 882 0;
#X connect 1201 0 888 0;
#X connect 1202 0 889 0;
#X connect 1203 0 890 0;
#X connect 1204 0 896 0;
#X connect 1205 0 897 0;
#X connect 1206 0 898 0;
#X connect 1207 0 904 0;
#X connect 1208 0 905 0;
#X connect 1209 0 906 0;
#X connect 1210 0 912 0;
#X connect 1211 0 913 0;
#X connect 1212 0 914 0;
#X connect 1213 0 921 0;
#X connect 1214 0 922 0;
#X connect 1215 0 923 0;
#X connect 1216 0 929 0;
#X connect 1217 0 930 0;
#X connect 1218 0 931 0;
#X connect 1219 0 937 0;
#X connect 1220 0 938 0;
#X connect 1221 0 939 0;
#X connect 1222 0 945 0;
#X connect 1223 0 946 0;
#X connect 1224 0 947 0;
#X connect 1225 0 953 0;
#X connect 1226 0 954 0;
#X connect 1227 0 955 0;
#X connect 1228 0 961 0;
#X connect 1229 0 962 0;
#X connect 1230 0 963 0;
#X connect 1231 0 875 0;
#X connect 1232 0 876 0;
#X connect 1233 0 924 0;
#X connect 1234 0 926 0;
#X connect 1235 0 925 0;
#X connect 1236 0 877 0;
#X connect 1237 0 883 0;
#X connect 1238 0 885 0;
#X connect 1240 0 884 0;
#X connect 1241 0 891 0;
#X connect 1242 0 893 0;
#X connect 1243 0 892 0;
#X connect 1244 0 899 0;
#X connect 1245 0 900 0;
#X connect 1246 0 901 0;
#X connect 1247 0 907 0;
#X connect 1248 0 909 0;
#X connect 1250 0 908 0;
#X connect 1251 0 915 0;
#X connect 1252 0 917 0;
#X connect 1253 0 916 0;
#X connect 1254 0 932 0;
#X connect 1255 0 934 0;
#X connect 1256 0 933 0;
#X connect 1257 0 940 0;
#X connect 1258 0 942 0;
#X connect 1259 0 941 0;
#X connect 1260 0 948 0;
#X connect 1261 0 950 0;
#X connect 1262 0 949 0;
#X connect 1263 0 956 0;
#X connect 1264 0 958 0;
#X connect 1265 0 957 0;
#X connect 1266 0 964 0;
#X connect 1267 0 966 0;
#X connect 1268 0 965 0;
#X connect 1269 0 650 0;
#X restore 1177 597 pd melakarta;
#X floatatom 1173 544 5 1 72 0 - - -;
#X obj 817 758 s scalenote1;
#X obj 900 760 s scalenote2;
#X obj 985 760 s scalenote3;
#X obj 1072 757 s scalenote4;
#X obj 1169 760 s scalenote5;
#X obj 1267 754 s scalenote6;
#X obj 1364 754 s scalenote7;
#X floatatom 709 399 5 0 0 0 - - -;
#X floatatom 743 399 5 0 0 0 - - -;
#X floatatom 777 399 5 0 0 0 - - -;
#X floatatom 811 399 5 0 0 0 - - -;
#X floatatom 845 399 5 0 0 0 - - -;
#X floatatom 879 399 5 0 0 0 - - -;
#X floatatom 913 399 5 0 0 0 - - -;
#X connect 3 0 100 0;
#X connect 4 0 101 0;
#X connect 5 0 102 0;
#X connect 6 0 103 0;
#X connect 7 0 104 0;
#X connect 8 0 105 0;
#X connect 9 0 106 0;
#X connect 10 0 107 0;
#X connect 11 0 108 0;
#X connect 12 0 109 0;
#X connect 13 0 110 0;
#X connect 14 0 111 0;
#X connect 15 0 112 0;
#X connect 16 0 113 0;
#X connect 17 0 114 0;
#X connect 18 0 115 0;
#X connect 19 0 116 0;
#X connect 20 0 117 0;
#X connect 21 0 118 0;
#X connect 22 0 119 0;
#X connect 23 0 120 0;
#X connect 24 0 121 0;
#X connect 25 0 122 0;
#X connect 26 0 123 0;
#X connect 27 0 124 0;
#X connect 28 0 125 0;
#X connect 29 0 127 0;
#X connect 30 0 128 0;
#X connect 31 0 129 0;
#X connect 32 0 130 0;
#X connect 33 0 131 0;
#X connect 34 0 132 0;
#X connect 35 0 133 0;
#X connect 36 0 134 0;
#X connect 37 0 135 0;
#X connect 38 0 136 0;
#X connect 39 0 137 0;
#X connect 40 0 138 0;
#X connect 41 0 139 0;
#X connect 42 0 140 0;
#X connect 43 0 141 0;
#X connect 44 0 142 0;
#X connect 45 0 143 0;
#X connect 46 0 144 0;
#X connect 47 0 145 0;
#X connect 48 0 146 0;
#X connect 49 0 147 0;
#X connect 50 0 148 0;
#X connect 51 0 149 0;
#X connect 52 0 150 0;
#X connect 53 0 151 0;
#X connect 54 0 152 0;
#X connect 55 0 153 0;
#X connect 56 0 154 0;
#X connect 57 0 155 0;
#X connect 58 0 156 0;
#X connect 59 0 157 0;
#X connect 60 0 158 0;
#X connect 61 0 159 0;
#X connect 62 0 160 0;
#X connect 63 0 161 0;
#X connect 64 0 162 0;
#X connect 65 0 163 0;
#X connect 66 0 164 0;
#X connect 67 0 165 0;
#X connect 68 0 166 0;
#X connect 69 0 167 0;
#X connect 70 0 168 0;
#X connect 71 0 169 0;
#X connect 72 0 170 0;
#X connect 73 0 171 0;
#X connect 74 0 126 0;
#X connect 82 0 76 0;
#X connect 82 0 175 0;
#X connect 82 0 182 0;
#X connect 83 0 75 0;
#X connect 83 0 176 0;
#X connect 83 0 183 0;
#X connect 84 0 78 0;
#X connect 84 0 177 0;
#X connect 84 0 184 0;
#X connect 85 0 77 0;
#X connect 85 0 178 0;
#X connect 85 0 185 0;
#X connect 86 0 80 0;
#X connect 86 0 179 0;
#X connect 86 0 186 0;
#X connect 87 0 79 0;
#X connect 87 0 180 0;
#X connect 87 0 187 0;
#X connect 88 0 81 0;
#X connect 88 0 181 0;
#X connect 88 0 188 0;
#X connect 100 0 172 0;
#X connect 101 0 172 0;
#X connect 102 0 172 0;
#X connect 103 0 172 0;
#X connect 104 0 172 0;
#X connect 106 0 172 0;
#X connect 107 0 172 0;
#X connect 108 0 172 0;
#X connect 109 0 172 0;
#X connect 110 0 172 0;
#X connect 111 0 172 0;
#X connect 112 0 172 0;
#X connect 113 0 172 0;
#X connect 114 0 172 0;
#X connect 115 0 172 0;
#X connect 116 0 172 0;
#X connect 117 0 172 0;
#X connect 118 0 172 0;
#X connect 119 0 172 0;
#X connect 120 0 172 0;
#X connect 121 0 172 0;
#X connect 122 0 172 0;
#X connect 123 0 172 0;
#X connect 124 0 172 0;
#X connect 125 0 172 0;
#X connect 126 0 172 0;
#X connect 127 0 172 0;
#X connect 128 0 172 0;
#X connect 129 0 172 0;
#X connect 130 0 172 0;
#X connect 131 0 172 0;
#X connect 132 0 172 0;
#X connect 133 0 172 0;
#X connect 134 0 172 0;
#X connect 135 0 172 0;
#X connect 136 0 172 0;
#X connect 137 0 172 0;
#X connect 138 0 172 0;
#X connect 139 0 172 0;
#X connect 140 0 172 0;
#X connect 141 0 172 0;
#X connect 142 0 172 0;
#X connect 143 0 172 0;
#X connect 144 0 172 0;
#X connect 145 0 172 0;
#X connect 146 0 172 0;
#X connect 147 0 172 0;
#X connect 148 0 172 0;
#X connect 149 0 172 0;
#X connect 150 0 172 0;
#X connect 151 0 172 0;
#X connect 152 0 172 0;
#X connect 153 0 172 0;
#X connect 154 0 172 0;
#X connect 155 0 172 0;
#X connect 156 0 172 0;
#X connect 157 0 172 0;
#X connect 158 0 172 0;
#X connect 159 0 172 0;
#X connect 160 0 172 0;
#X connect 161 0 172 0;
#X connect 162 0 172 0;
#X connect 163 0 172 0;
#X connect 164 0 172 0;
#X connect 165 0 172 0;
#X connect 166 0 172 0;
#X connect 167 0 172 0;
#X connect 168 0 172 0;
#X connect 169 0 172 0;
#X connect 170 0 172 0;
#X connect 171 0 172 0;
#X connect 172 0 174 0;
#X connect 173 0 82 0;
#X connect 173 1 83 0;
#X connect 173 2 84 0;
#X connect 173 3 85 0;
#X connect 173 4 86 0;
#X connect 173 5 87 0;
#X connect 173 6 88 0;
#X connect 174 0 173 0;
#X coords 0 -1 1 1 850 320 1 100 100;
#X restore -49 -556 pd melathaats;
