#N canvas 1 83 961 659 10;
#N canvas 28 97 1633 910 regdrummer 0;
#X obj -52 806 outlet;
#X obj 640 334 bng 15 250 50 0 empty empty empty 17 7 0 10 -262144
-1 -1;
#X obj -50 751 bng 15 250 50 0 empty empty empty 17 7 0 10 -262144
-1 -1;
#X obj 598 465 bng 15 250 50 0 empty empty empty 17 7 0 10 -262144
-1 -1;
#X obj -53 526 int;
#X obj -26 527 + 1;
#X obj -122 550 mod 8;
#X obj -122 573 route 0 1;
#X obj -120 611 bng 15 250 50 0 empty empty empty 17 7 0 10 -262144
-1 -1;
#X obj 100 301 cnv 15 390 170 empty empty empty 20 12 0 14 -37905 -66577
0;
#X floatatom 120 326 3 1 32 0 - - -;
#X floatatom 196 325 3 1 32 0 - - -;
#X obj 263 547 int;
#X obj 290 548 + 1;
#X obj 263 573 mod 8;
#X obj 263 599 route 0 1;
#X obj 263 628 bng 15 250 50 0 empty empty empty 17 7 0 10 -262144
-1 -1;
#X obj 212 -114 loadbang;
#X obj 128 312 bng 9 250 50 0 empty empty empty 17 7 0 10 -262144 -1
-1;
#X obj 197 310 bng 9 250 50 0 empty empty empty 17 7 0 10 -262144 -1
-1;
#X obj 100 104 cnv 15 390 200 empty empty empty 20 12 0 14 -1487 -66577
0;
#X floatatom 120 351 3 1 32 0 - - -;
#X obj -52 554 mod 8;
#X obj -52 577 route 0 1;
#X obj -56 604 bng 15 250 50 0 empty empty empty 17 7 0 10 -262144
-1 -1;
#X floatatom 195 348 3 1 32 0 - - -;
#X obj 337 593 mod 8;
#X obj 337 617 route 0 1;
#X obj 337 639 bng 15 250 50 0 empty empty empty 17 7 0 10 -262144
-1 -1;
#X msg -125 -39 8;
#X floatatom 120 371 3 0 100 0 - - -;
#X text 142 371 /100;
#X floatatom 195 370 3 0 100 0 - - -;
#X text 217 370 /100;
#X text 107 324 1;
#X text 107 349 2;
#X floatatom 120 395 3 1 32 0 - - -;
#X floatatom 195 392 3 1 32 0 - - -;
#X floatatom 120 415 3 0 100 0 - - -;
#X text 142 415 /100;
#X floatatom 195 414 3 0 100 0 - - -;
#X text 217 414 /100;
#X text 107 393 3;
#X obj 15 556 mod 8;
#X obj 15 579 route 0 1;
#X obj 11 606 bng 15 250 50 0 empty empty empty 17 7 0 10 -262144 -1
-1;
#X obj 38 651 random 100;
#X obj 38 696 route 1;
#X obj 38 718 bng 15 250 50 0 empty empty empty 17 7 0 10 -262144 -1
-1;
#X obj -50 638 random 100;
#X obj -50 683 route 1;
#X obj -50 705 bng 15 250 50 0 empty empty empty 17 7 0 10 -262144
-1 -1;
#X obj 407 592 mod 8;
#X obj 407 616 route 0 1;
#X obj 407 638 bng 15 250 50 0 empty empty empty 17 7 0 10 -262144
-1 -1;
#X obj 407 691 random 100;
#X obj 407 736 route 1;
#X obj 407 758 bng 15 250 50 0 empty empty empty 17 7 0 10 -262144
-1 -1;
#X obj 337 666 random 100;
#X obj 337 711 route 1;
#X obj 337 731 bng 15 250 50 0 empty empty empty 17 7 0 10 -262144
-1 -1;
#X obj 335 833 outlet;
#X obj 337 790 bng 15 250 50 0 empty empty empty 17 7 0 10 -262144
-1 -1;
#X obj 121 452 bng 15 250 50 0 empty empty empty 17 7 0 10 -262144
-1 -1;
#X obj 197 453 bng 15 250 50 0 empty empty empty 17 7 0 10 -262144
-1 -1;
#X obj 280 453 bng 15 250 50 0 empty empty empty 17 7 0 10 -262144
-1 -1;
#X obj 355 453 bng 15 250 50 0 empty empty empty 17 7 0 10 -262144
-1 -1;
#X obj 172 131 hradio 8 1 0 32 empty empty empty 0 -8 0 10 -262144
-1 -1 0;
#X obj 172 139 hradio 8 1 0 32 empty empty empty 0 -8 0 10 -262144
-1 -1 0;
#X obj 172 147 hradio 8 1 0 32 empty empty empty 0 -8 0 10 -262144
-1 -1 0;
#X obj 172 161 hradio 8 1 0 32 empty empty empty 0 -8 0 10 -262144
-1 -1 0;
#X obj 172 169 hradio 8 1 0 32 empty empty empty 0 -8 0 10 -262144
-1 -1 0;
#X obj 172 177 hradio 8 1 0 32 empty empty empty 0 -8 0 10 -262144
-1 -1 0;
#X obj 337 689 <;
#X obj 407 714 <;
#X obj 38 674 <;
#X obj -50 661 <;
#X text 138 305 A;
#X text 206 305 B;
#X msg -167 -39 8;
#X msg -87 -36 8;
#X msg -50 -29 8;
#X obj 431 452 bng 15 250 50 0 empty empty empty 17 7 0 10 -262144
-1 -1;
#X text -47 825 A;
#X text 338 842 B;
#X obj 172 191 hradio 8 1 0 32 empty empty empty 0 -8 0 10 -262144
-1 -1 0;
#X obj 172 199 hradio 8 1 0 32 empty empty empty 0 -8 0 10 -262144
-1 -1 0;
#X obj 172 207 hradio 8 1 0 32 empty empty empty 0 -8 0 10 -262144
-1 -1 0;
#X obj 172 221 hradio 8 1 0 32 empty empty empty 0 -8 0 10 -262144
-1 -1 0;
#X obj 172 229 hradio 8 1 0 32 empty empty empty 0 -8 0 10 -262144
-1 -1 0;
#X obj 172 237 hradio 8 1 0 32 empty empty empty 0 -8 0 10 -262144
-1 -1 0;
#X obj 172 251 hradio 8 1 0 32 empty empty empty 0 -8 0 10 -262144
-1 -1 0;
#X obj 172 259 hradio 8 1 0 32 empty empty empty 0 -8 0 10 -262144
-1 -1 0;
#X obj 172 267 hradio 8 1 0 32 empty empty empty 0 -8 0 10 -262144
-1 -1 0;
#X floatatom 277 326 3 1 32 0 - - -;
#X obj 279 310 bng 9 250 50 0 empty empty empty 17 7 0 10 -262144 -1
-1;
#X floatatom 277 348 3 1 32 0 - - -;
#X floatatom 277 370 3 0 100 0 - - -;
#X text 299 370 /100;
#X floatatom 277 392 3 1 32 0 - - -;
#X floatatom 277 414 3 0 100 0 - - -;
#X text 299 414 /100;
#X floatatom 353 326 3 1 32 0 - - -;
#X obj 355 310 bng 9 250 50 0 empty empty empty 17 7 0 10 -262144 -1
-1;
#X floatatom 353 348 3 1 32 0 - - -;
#X floatatom 353 370 3 0 100 0 - - -;
#X text 375 370 /100;
#X floatatom 353 392 3 1 32 0 - - -;
#X floatatom 353 414 3 0 100 0 - - -;
#X text 375 414 /100;
#X floatatom 429 327 3 1 32 0 - - -;
#X obj 431 311 bng 9 250 50 0 empty empty empty 17 7 0 10 -262144 -1
-1;
#X floatatom 429 349 3 1 32 0 - - -;
#X floatatom 429 371 3 0 100 0 - - -;
#X text 451 371 /100;
#X floatatom 429 393 3 1 32 0 - - -;
#X floatatom 429 415 3 0 100 0 - - -;
#X text 451 415 /100;
#X text 288 305 C;
#X text 364 305 D;
#X text 440 306 E;
#X text 159 133 A;
#X text 159 162 B;
#X text 159 191 C;
#X text 159 220 D;
#X text 159 249 E;
#X obj 527 541 int;
#X obj 554 542 + 1;
#X obj 527 567 mod 8;
#X obj 527 593 route 0 1;
#X obj 527 622 bng 15 250 50 0 empty empty empty 17 7 0 10 -262144
-1 -1;
#X obj 601 587 mod 8;
#X obj 601 611 route 0 1;
#X obj 601 633 bng 15 250 50 0 empty empty empty 17 7 0 10 -262144
-1 -1;
#X obj 671 586 mod 8;
#X obj 671 610 route 0 1;
#X obj 671 632 bng 15 250 50 0 empty empty empty 17 7 0 10 -262144
-1 -1;
#X obj 671 685 random 100;
#X obj 671 730 route 1;
#X obj 671 752 bng 15 250 50 0 empty empty empty 17 7 0 10 -262144
-1 -1;
#X obj 601 660 random 100;
#X obj 601 705 route 1;
#X obj 601 725 bng 15 250 50 0 empty empty empty 17 7 0 10 -262144
-1 -1;
#X obj 601 823 outlet;
#X obj 601 784 bng 15 250 50 0 empty empty empty 17 7 0 10 -262144
-1 -1;
#X obj 601 683 <;
#X obj 671 708 <;
#X text 604 839 C;
#X obj 806 542 int;
#X obj 833 543 + 1;
#X obj 766 575 mod 8;
#X obj 806 594 route 0 1;
#X obj 806 623 bng 15 250 50 0 empty empty empty 17 7 0 10 -262144
-1 -1;
#X obj 877 586 mod 8;
#X obj 880 612 route 0 1;
#X obj 880 634 bng 15 250 50 0 empty empty empty 17 7 0 10 -262144
-1 -1;
#X obj 950 587 mod 8;
#X obj 950 611 route 0 1;
#X obj 950 633 bng 15 250 50 0 empty empty empty 17 7 0 10 -262144
-1 -1;
#X obj 950 686 random 100;
#X obj 950 731 route 1;
#X obj 950 753 bng 15 250 50 0 empty empty empty 17 7 0 10 -262144
-1 -1;
#X obj 880 661 random 100;
#X obj 880 706 route 1;
#X obj 880 726 bng 15 250 50 0 empty empty empty 17 7 0 10 -262144
-1 -1;
#X obj 880 825 outlet;
#X obj 880 785 bng 15 250 50 0 empty empty empty 17 7 0 10 -262144
-1 -1;
#X obj 880 684 <;
#X obj 950 709 <;
#X text 883 841 D;
#X obj 1099 554 int;
#X obj 1126 555 + 1;
#X obj 1072 580 mod 8;
#X obj 1099 606 route 0 1;
#X obj 1099 635 bng 15 250 50 0 empty empty empty 17 7 0 10 -262144
-1 -1;
#X obj 1173 600 mod 8;
#X obj 1173 624 route 0 1;
#X obj 1173 646 bng 15 250 50 0 empty empty empty 17 7 0 10 -262144
-1 -1;
#X obj 1243 599 mod 8;
#X obj 1243 623 route 0 1;
#X obj 1243 645 bng 15 250 50 0 empty empty empty 17 7 0 10 -262144
-1 -1;
#X obj 1243 698 random 100;
#X obj 1243 743 route 1;
#X obj 1243 765 bng 15 250 50 0 empty empty empty 17 7 0 10 -262144
-1 -1;
#X obj 1173 673 random 100;
#X obj 1173 718 route 1;
#X obj 1173 738 bng 15 250 50 0 empty empty empty 17 7 0 10 -262144
-1 -1;
#X obj 1173 828 outlet;
#X obj 1173 797 bng 15 250 50 0 empty empty empty 17 7 0 10 -262144
-1 -1;
#X obj 1173 696 <;
#X obj 1243 721 <;
#X text 1176 844 E;
#X text 240 106 Trigger Distributor;
#X msg 775 135 8;
#X obj 587 -116 r corefreq;
#X floatatom 558 -63 5 0 0 0 - - -;
#X obj 645 -60 bng 15 250 50 0 empty empty empty 17 7 0 10 -262144
-1 -1;
#X connect 1 0 3 0;
#X connect 2 0 0 0;
#X connect 2 0 63 0;
#X connect 3 0 4 0;
#X connect 3 0 12 0;
#X connect 3 0 126 0;
#X connect 3 0 148 0;
#X connect 3 0 170 0;
#X connect 4 0 5 0;
#X connect 4 0 6 0;
#X connect 4 0 22 0;
#X connect 4 0 43 0;
#X connect 5 0 4 1;
#X connect 6 0 7 0;
#X connect 7 0 8 0;
#X connect 8 0 2 0;
#X connect 10 0 6 1;
#X connect 11 0 14 1;
#X connect 12 0 13 0;
#X connect 12 0 14 0;
#X connect 12 0 26 0;
#X connect 12 0 52 0;
#X connect 13 0 12 1;
#X connect 14 0 15 0;
#X connect 15 0 16 0;
#X connect 16 0 62 0;
#X connect 17 0 79 0;
#X connect 17 0 80 0;
#X connect 17 0 29 0;
#X connect 17 0 81 0;
#X connect 17 0 193 0;
#X connect 18 0 79 0;
#X connect 18 0 29 0;
#X connect 19 0 80 0;
#X connect 21 0 22 1;
#X connect 22 0 23 0;
#X connect 23 0 24 0;
#X connect 24 0 49 0;
#X connect 25 0 26 1;
#X connect 26 0 27 0;
#X connect 27 0 28 0;
#X connect 28 0 58 0;
#X connect 29 0 21 0;
#X connect 29 0 36 0;
#X connect 30 0 76 1;
#X connect 32 0 73 1;
#X connect 36 0 43 1;
#X connect 37 0 52 1;
#X connect 38 0 75 1;
#X connect 40 0 74 1;
#X connect 43 0 44 0;
#X connect 44 0 45 0;
#X connect 45 0 46 0;
#X connect 46 0 75 0;
#X connect 47 0 48 0;
#X connect 48 0 2 0;
#X connect 49 0 76 0;
#X connect 50 0 51 0;
#X connect 51 0 2 0;
#X connect 52 0 53 0;
#X connect 53 0 54 0;
#X connect 54 0 55 0;
#X connect 55 0 74 0;
#X connect 56 0 57 0;
#X connect 57 0 62 0;
#X connect 58 0 73 0;
#X connect 59 0 60 0;
#X connect 60 0 62 0;
#X connect 62 0 61 0;
#X connect 62 0 64 0;
#X connect 67 0 10 0;
#X connect 68 0 21 0;
#X connect 69 0 36 0;
#X connect 70 0 11 0;
#X connect 71 0 25 0;
#X connect 72 0 37 0;
#X connect 73 0 59 0;
#X connect 74 0 56 0;
#X connect 75 0 47 0;
#X connect 76 0 50 0;
#X connect 79 0 10 0;
#X connect 80 0 11 0;
#X connect 81 0 25 0;
#X connect 81 0 37 0;
#X connect 85 0 94 0;
#X connect 86 0 96 0;
#X connect 87 0 99 0;
#X connect 88 0 102 0;
#X connect 89 0 104 0;
#X connect 90 0 107 0;
#X connect 91 0 110 0;
#X connect 92 0 112 0;
#X connect 93 0 115 0;
#X connect 94 0 128 1;
#X connect 96 0 131 1;
#X connect 97 0 145 1;
#X connect 99 0 134 1;
#X connect 100 0 146 1;
#X connect 102 0 150 1;
#X connect 104 0 153 1;
#X connect 105 0 167 1;
#X connect 107 0 156 1;
#X connect 108 0 168 1;
#X connect 110 0 172 1;
#X connect 112 0 175 1;
#X connect 113 0 189 1;
#X connect 115 0 178 1;
#X connect 116 0 190 1;
#X connect 126 0 127 0;
#X connect 126 0 128 0;
#X connect 126 0 131 0;
#X connect 126 0 134 0;
#X connect 127 0 126 1;
#X connect 128 0 129 0;
#X connect 129 0 130 0;
#X connect 130 0 144 0;
#X connect 131 0 132 0;
#X connect 132 0 133 0;
#X connect 133 0 140 0;
#X connect 134 0 135 0;
#X connect 135 0 136 0;
#X connect 136 0 137 0;
#X connect 137 0 146 0;
#X connect 138 0 139 0;
#X connect 139 0 144 0;
#X connect 140 0 145 0;
#X connect 141 0 142 0;
#X connect 142 0 144 0;
#X connect 144 0 143 0;
#X connect 144 0 65 0;
#X connect 145 0 141 0;
#X connect 146 0 138 0;
#X connect 148 0 149 0;
#X connect 148 0 150 0;
#X connect 148 0 153 0;
#X connect 148 0 156 0;
#X connect 149 0 148 1;
#X connect 150 0 151 0;
#X connect 151 0 152 0;
#X connect 152 0 166 0;
#X connect 153 0 154 0;
#X connect 154 0 155 0;
#X connect 155 0 162 0;
#X connect 156 0 157 0;
#X connect 157 0 158 0;
#X connect 158 0 159 0;
#X connect 159 0 168 0;
#X connect 160 0 161 0;
#X connect 161 0 166 0;
#X connect 162 0 167 0;
#X connect 163 0 164 0;
#X connect 164 0 166 0;
#X connect 166 0 165 0;
#X connect 166 0 66 0;
#X connect 167 0 163 0;
#X connect 168 0 160 0;
#X connect 170 0 171 0;
#X connect 170 0 172 0;
#X connect 170 0 175 0;
#X connect 170 0 178 0;
#X connect 171 0 170 1;
#X connect 172 0 173 0;
#X connect 173 0 174 0;
#X connect 174 0 188 0;
#X connect 175 0 176 0;
#X connect 176 0 177 0;
#X connect 177 0 184 0;
#X connect 178 0 179 0;
#X connect 179 0 180 0;
#X connect 180 0 181 0;
#X connect 181 0 190 0;
#X connect 182 0 183 0;
#X connect 183 0 188 0;
#X connect 184 0 189 0;
#X connect 185 0 186 0;
#X connect 186 0 188 0;
#X connect 188 0 187 0;
#X connect 188 0 82 0;
#X connect 189 0 185 0;
#X connect 190 0 182 0;
#X connect 193 0 94 0;
#X connect 193 0 96 0;
#X connect 193 0 99 0;
#X connect 193 0 102 0;
#X connect 193 0 104 0;
#X connect 193 0 107 0;
#X connect 193 0 110 0;
#X connect 193 0 112 0;
#X connect 193 0 115 0;
#X connect 194 0 195 0;
#X connect 194 0 196 0;
#X connect 196 0 1 0;
#X coords 0 -1 1 1 390 375 1 100 100;
#X restore -302 -437 pd regdrummer;
#N canvas 1 120 1678 818 notedistributor 0;
#X obj 100 100 cnv 15 470 160 empty empty empty 20 12 0 14 -109142
-66577 0;
#X obj 770 42 inlet;
#X obj 863 42 inlet;
#X obj 955 41 inlet;
#X obj 1053 45 inlet;
#X obj 1156 47 inlet;
#X obj 765 75 bng 15 250 50 0 empty empty empty 17 7 0 10 -262144 -1
-1;
#X obj 861 73 bng 15 250 50 0 empty empty empty 17 7 0 10 -262144 -1
-1;
#X obj 956 71 bng 15 250 50 0 empty empty empty 17 7 0 10 -262144 -1
-1;
#X obj 1051 76 bng 15 250 50 0 empty empty empty 17 7 0 10 -262144
-1 -1;
#X obj 1159 80 bng 15 250 50 0 empty empty empty 17 7 0 10 -262144
-1 -1;
#X obj 752 154 tabread muisti1;
#X msg 752 133 0;
#X obj 851 154 tabread muisti1;
#X msg 851 133 0;
#X obj 951 154 tabread muisti1;
#X msg 951 133 0;
#X obj 1050 154 tabread muisti1;
#X msg 1050 133 0;
#X obj 1153 156 tabread muisti1;
#X msg 1153 135 0;
#X obj 419 799 outlet;
#X obj 662 789 outlet;
#X floatatom 752 179 5 0 0 0 - - -;
#X floatatom 851 178 5 0 0 0 - - -;
#X floatatom 951 179 5 0 0 0 - - -;
#X floatatom 1050 181 5 0 0 0 - - -;
#X floatatom 1153 181 5 0 0 0 - - -;
#X obj 752 222 /;
#X text 107 130 A;
#X floatatom 126 131 5 1 32 1 divider - -;
#X floatatom 209 131 5 1 12 1 multiplier - -;
#X obj 752 253 *;
#X msg 72 44 1;
#X floatatom 312 131 5 -200 200 1 offset_(hz) - -;
#X msg 200 45 0;
#X obj 752 281 +;
#X obj 851 225 /;
#X floatatom 126 157 5 1 16 1 divider - -;
#X floatatom 209 157 5 1 12 1 multiplier - -;
#X obj 851 256 *;
#X floatatom 312 157 5 -200 200 1 offset_(hz) - -;
#X obj 851 284 +;
#X text 107 156 B;
#X obj 953 227 /;
#X floatatom 126 183 5 1 12 1 divider - -;
#X floatatom 209 183 5 1 12 1 multiplier - -;
#X obj 953 258 *;
#X floatatom 312 183 5 -200 200 1 offset_(hz) - -;
#X obj 953 286 +;
#X text 107 182 C;
#X obj 1050 230 /;
#X floatatom 126 208 5 1 12 1 divider - -;
#X floatatom 209 208 5 1 12 1 multiplier - -;
#X obj 1050 261 *;
#X floatatom 312 208 5 -200 200 1 offset_(hz) - -;
#X obj 1050 289 +;
#X obj 1152 234 /;
#X floatatom 126 233 5 1 12 1 divider - -;
#X floatatom 209 233 5 1 12 1 multiplier - -;
#X obj 1152 265 *;
#X floatatom 312 233 5 -200 200 1 offset_(hz) - -;
#X obj 1152 293 +;
#X text 107 207 D;
#X text 107 232 E;
#X obj 150 12 loadbang;
#X floatatom 752 309 5 0 0 0 - - -;
#X floatatom 851 310 5 0 0 0 - - -;
#X floatatom 953 314 5 0 0 0 - - -;
#X floatatom 1050 317 5 0 0 0 - - -;
#X floatatom 1152 320 5 0 0 0 - - -;
#X floatatom 531 132 5 0 0 0 - - -;
#X floatatom 531 158 5 0 0 0 - - -;
#X floatatom 531 185 5 0 0 0 - - -;
#X floatatom 531 212 5 0 0 0 - - -;
#X floatatom 531 236 5 0 0 0 - - -;
#X obj 429 697 makenote;
#X msg 450 610 127;
#X floatatom 522 610 5 0 0 0 - - -;
#X floatatom 377 616 5 0 0 0 - - -;
#X floatatom 419 132 5 50 2000 1 note_length - -;
#X floatatom 419 157 5 50 2000 1 note_length - -;
#X floatatom 419 182 5 50 2000 1 note_length - -;
#X floatatom 419 207 5 50 2000 1 note_length - -;
#X floatatom 419 232 5 50 2000 1 note_length - -;
#X obj 967 726 bng 15 250 50 0 empty empty empty 17 7 0 10 -262144
-1 -1;
#X obj 662 698 makenote;
#X msg 683 611 127;
#X floatatom 719 613 5 0 0 0 - - -;
#X floatatom 638 618 5 0 0 0 - - -;
#X obj 429 732 pack 0 1;
#X obj 662 725 pack 0 1;
#X obj 1014 827 outlet;
#X obj 1014 736 makenote;
#X msg 1035 649 127;
#X floatatom 1071 651 5 0 0 0 - - -;
#X floatatom 994 652 5 0 0 0 - - -;
#X obj 1014 763 pack 0 1;
#X obj 1238 831 outlet;
#X obj 1237 734 makenote;
#X msg 1259 653 127;
#X floatatom 1295 655 5 0 0 0 - - -;
#X floatatom 1218 656 5 0 0 0 - - -;
#X obj 1238 767 pack 0 1;
#X obj 1497 794 outlet;
#X obj 1497 703 makenote;
#X msg 1518 616 127;
#X floatatom 1554 618 5 0 0 0 - - -;
#X floatatom 1477 619 5 0 0 0 - - -;
#X obj 1497 730 pack 0 1;
#X text 223 102 Frequency Distributor;
#X obj 450 836 noteout 1;
#X obj 688 844 noteout 2;
#X obj 1038 868 noteout 3;
#X obj 1250 878 noteout 4;
#X msg 342 27 150;
#X obj 1510 852 noteout 5;
#X obj 447 422 r scale_notes;
#X obj 429 494 mod;
#X floatatom 447 447 5 0 0 0 - - -;
#X obj 429 521 tabread scaler;
#X obj 357 457 /;
#X obj 357 478 int;
#X obj 357 500 *;
#X floatatom 526 441 5 0 0 0 - - -;
#X obj 390 545 +;
#X floatatom 395 402 5 0 0 0 - - -;
#X floatatom 390 575 5 0 0 0 - - -;
#X obj 1409 222 r tonal;
#X floatatom 1409 243 5 0 0 0 - - -;
#X obj 311 355 spigot 1;
#X obj 402 371 spigot 1;
#X obj 1381 278 == 0;
#X obj 765 424 r scale_notes;
#X obj 747 496 mod;
#X floatatom 765 449 5 0 0 0 - - -;
#X obj 747 523 tabread scaler;
#X obj 675 459 /;
#X obj 675 480 int;
#X obj 675 502 *;
#X floatatom 844 443 5 0 0 0 - - -;
#X obj 708 547 +;
#X floatatom 713 404 5 0 0 0 - - -;
#X floatatom 708 577 5 0 0 0 - - -;
#X obj 628 391 spigot 1;
#X obj 720 373 spigot 1;
#X obj 1073 432 r scale_notes;
#X obj 1055 504 mod;
#X floatatom 1073 457 5 0 0 0 - - -;
#X obj 1055 531 tabread scaler;
#X obj 983 467 /;
#X obj 983 488 int;
#X obj 983 510 *;
#X floatatom 1152 451 5 0 0 0 - - -;
#X obj 1016 555 +;
#X floatatom 1021 412 5 0 0 0 - - -;
#X floatatom 1016 585 5 0 0 0 - - -;
#X obj 937 365 spigot 1;
#X obj 1028 381 spigot 1;
#X obj 1325 463 r scale_notes;
#X obj 1326 535 mod;
#X floatatom 1325 488 5 0 0 0 - - -;
#X obj 1326 562 tabread scaler;
#X obj 1254 498 /;
#X obj 1254 519 int;
#X obj 1254 541 *;
#X floatatom 1411 486 5 0 0 0 - - -;
#X obj 1287 586 +;
#X floatatom 1292 443 5 0 0 0 - - -;
#X floatatom 1276 620 5 0 0 0 - - -;
#X obj 1245 393 spigot 1;
#X obj 1336 409 spigot 1;
#X obj 1610 436 r scale_notes;
#X obj 1592 508 mod;
#X floatatom 1610 461 5 0 0 0 - - -;
#X obj 1592 535 tabread scaler;
#X obj 1520 471 /;
#X obj 1520 492 int;
#X obj 1520 514 *;
#X floatatom 1689 455 5 0 0 0 - - -;
#X obj 1553 559 +;
#X floatatom 1558 416 5 0 0 0 - - -;
#X floatatom 1553 589 5 0 0 0 - - -;
#X obj 1474 369 spigot 1;
#X obj 1565 385 spigot 1;
#X obj 526 414 r tuning_notes;
#X obj 844 416 r tuning_notes;
#X obj 1152 424 r tuning_notes;
#X obj 1411 459 r tuning_notes;
#X obj 1704 429 r tuning_notes;
#X connect 1 0 6 0;
#X connect 2 0 7 0;
#X connect 3 0 8 0;
#X connect 4 0 9 0;
#X connect 5 0 10 0;
#X connect 6 0 12 0;
#X connect 7 0 14 0;
#X connect 8 0 16 0;
#X connect 9 0 18 0;
#X connect 10 0 20 0;
#X connect 11 0 23 0;
#X connect 12 0 11 0;
#X connect 13 0 24 0;
#X connect 14 0 13 0;
#X connect 15 0 25 0;
#X connect 16 0 15 0;
#X connect 17 0 26 0;
#X connect 18 0 17 0;
#X connect 19 0 27 0;
#X connect 20 0 19 0;
#X connect 23 0 28 0;
#X connect 24 0 37 0;
#X connect 25 0 44 0;
#X connect 26 0 51 0;
#X connect 27 0 57 0;
#X connect 28 0 32 0;
#X connect 30 0 28 1;
#X connect 31 0 32 1;
#X connect 32 0 36 0;
#X connect 33 0 31 0;
#X connect 33 0 30 0;
#X connect 33 0 39 0;
#X connect 33 0 38 0;
#X connect 33 0 46 0;
#X connect 33 0 45 0;
#X connect 33 0 53 0;
#X connect 33 0 52 0;
#X connect 33 0 59 0;
#X connect 33 0 58 0;
#X connect 34 0 36 1;
#X connect 35 0 34 0;
#X connect 35 0 41 0;
#X connect 35 0 48 0;
#X connect 35 0 55 0;
#X connect 35 0 61 0;
#X connect 36 0 66 0;
#X connect 37 0 40 0;
#X connect 38 0 37 1;
#X connect 39 0 40 1;
#X connect 40 0 42 0;
#X connect 41 0 42 1;
#X connect 42 0 67 0;
#X connect 44 0 47 0;
#X connect 45 0 44 1;
#X connect 46 0 47 1;
#X connect 47 0 49 0;
#X connect 48 0 49 1;
#X connect 49 0 68 0;
#X connect 51 0 54 0;
#X connect 52 0 51 1;
#X connect 53 0 54 1;
#X connect 54 0 56 0;
#X connect 55 0 56 1;
#X connect 56 0 69 0;
#X connect 57 0 60 0;
#X connect 58 0 57 1;
#X connect 59 0 60 1;
#X connect 60 0 62 0;
#X connect 61 0 62 1;
#X connect 62 0 70 0;
#X connect 65 0 33 0;
#X connect 65 0 35 0;
#X connect 65 0 115 0;
#X connect 65 0 85 0;
#X connect 66 0 71 0;
#X connect 66 0 130 0;
#X connect 66 0 131 0;
#X connect 67 0 72 0;
#X connect 67 0 145 0;
#X connect 67 0 144 0;
#X connect 68 0 73 0;
#X connect 68 0 157 0;
#X connect 68 0 158 0;
#X connect 69 0 74 0;
#X connect 69 0 170 0;
#X connect 69 0 171 0;
#X connect 70 0 75 0;
#X connect 70 0 183 0;
#X connect 70 0 184 0;
#X connect 76 0 90 0;
#X connect 76 0 111 0;
#X connect 76 1 90 1;
#X connect 76 1 111 1;
#X connect 77 0 76 1;
#X connect 78 0 76 2;
#X connect 79 0 76 0;
#X connect 80 0 78 0;
#X connect 81 0 88 0;
#X connect 82 0 95 0;
#X connect 83 0 101 0;
#X connect 84 0 107 0;
#X connect 85 0 77 0;
#X connect 85 0 87 0;
#X connect 85 0 94 0;
#X connect 85 0 100 0;
#X connect 85 0 106 0;
#X connect 86 0 91 0;
#X connect 86 0 112 0;
#X connect 86 1 91 1;
#X connect 86 1 112 1;
#X connect 87 0 86 1;
#X connect 88 0 86 2;
#X connect 89 0 86 0;
#X connect 90 0 21 0;
#X connect 91 0 22 0;
#X connect 93 0 97 0;
#X connect 93 0 113 0;
#X connect 93 1 97 1;
#X connect 93 1 113 1;
#X connect 94 0 93 1;
#X connect 95 0 93 2;
#X connect 96 0 93 0;
#X connect 97 0 92 0;
#X connect 99 0 103 0;
#X connect 99 0 114 0;
#X connect 99 1 103 1;
#X connect 99 1 114 1;
#X connect 100 0 99 1;
#X connect 101 0 99 2;
#X connect 102 0 99 0;
#X connect 103 0 98 0;
#X connect 105 0 109 0;
#X connect 105 0 116 0;
#X connect 105 1 109 1;
#X connect 105 1 116 1;
#X connect 106 0 105 1;
#X connect 107 0 105 2;
#X connect 108 0 105 0;
#X connect 109 0 104 0;
#X connect 115 0 80 0;
#X connect 115 0 81 0;
#X connect 115 0 82 0;
#X connect 115 0 83 0;
#X connect 115 0 84 0;
#X connect 117 0 119 0;
#X connect 118 0 120 0;
#X connect 119 0 118 1;
#X connect 119 0 121 1;
#X connect 120 0 125 0;
#X connect 121 0 122 0;
#X connect 122 0 123 0;
#X connect 123 0 125 1;
#X connect 124 0 123 1;
#X connect 125 0 127 0;
#X connect 126 0 121 0;
#X connect 126 0 118 0;
#X connect 127 0 79 0;
#X connect 128 0 129 0;
#X connect 129 0 132 0;
#X connect 129 0 131 1;
#X connect 129 0 145 1;
#X connect 129 0 158 1;
#X connect 129 0 171 1;
#X connect 129 0 184 1;
#X connect 130 0 79 0;
#X connect 131 0 126 0;
#X connect 132 0 130 1;
#X connect 132 0 144 1;
#X connect 132 0 157 1;
#X connect 132 0 170 1;
#X connect 132 0 183 1;
#X connect 133 0 135 0;
#X connect 134 0 136 0;
#X connect 135 0 134 1;
#X connect 135 0 137 1;
#X connect 136 0 141 0;
#X connect 137 0 138 0;
#X connect 138 0 139 0;
#X connect 139 0 141 1;
#X connect 140 0 139 1;
#X connect 141 0 143 0;
#X connect 142 0 137 0;
#X connect 142 0 134 0;
#X connect 143 0 89 0;
#X connect 144 0 89 0;
#X connect 145 0 142 0;
#X connect 146 0 148 0;
#X connect 147 0 149 0;
#X connect 148 0 147 1;
#X connect 148 0 150 1;
#X connect 149 0 154 0;
#X connect 150 0 151 0;
#X connect 151 0 152 0;
#X connect 152 0 154 1;
#X connect 153 0 152 1;
#X connect 154 0 156 0;
#X connect 155 0 150 0;
#X connect 155 0 147 0;
#X connect 156 0 96 0;
#X connect 157 0 96 0;
#X connect 158 0 155 0;
#X connect 159 0 161 0;
#X connect 160 0 162 0;
#X connect 161 0 160 1;
#X connect 161 0 163 1;
#X connect 162 0 167 0;
#X connect 163 0 164 0;
#X connect 164 0 165 0;
#X connect 165 0 167 1;
#X connect 166 0 165 1;
#X connect 167 0 169 0;
#X connect 168 0 163 0;
#X connect 168 0 160 0;
#X connect 169 0 102 0;
#X connect 170 0 102 0;
#X connect 171 0 168 0;
#X connect 172 0 174 0;
#X connect 173 0 175 0;
#X connect 174 0 173 1;
#X connect 174 0 176 1;
#X connect 175 0 180 0;
#X connect 176 0 177 0;
#X connect 177 0 178 0;
#X connect 178 0 180 1;
#X connect 179 0 178 1;
#X connect 180 0 182 0;
#X connect 181 0 176 0;
#X connect 181 0 173 0;
#X connect 182 0 108 0;
#X connect 183 0 108 0;
#X connect 184 0 181 0;
#X connect 185 0 124 0;
#X connect 186 0 140 0;
#X connect 187 0 153 0;
#X connect 188 0 166 0;
#X connect 189 0 179 0;
#X coords 0 -1 1 1 470 160 1 100 100;
#X restore -302 -61 pd notedistributor;
#N canvas 60 127 1443 880 sinesumfactor 0;
#X obj 101 100 cnv 15 400 600 empty empty empty 20 12 0 14 -110853
-66577 0;
#X obj 105 121 cnv 15 390 160 empty empty empty 20 12 0 14 -174107
-66577 0;
#N canvas 1 83 450 300 (subpatch) 0;
#X array sinesumX 131 float 3;
#A 0 -0.162543 0 0.162543 0.320645 0.47001 0.606633 0.726924 0.82783
0.906927 0.962499 0.993585 1 0.982335 0.941921 0.880773 0.80151 0.707254
0.60151 0.488039 0.370721 0.253415 0.139824 0.0333669 -0.0629374 -0.146567
-0.215577 -0.268652 -0.305141 -0.32506 -0.329071 -0.318439 -0.294966
-0.260903 -0.218849 -0.171636 -0.12221 -0.0735059 -0.0283252 0.0107754
0.0415883 0.0623414 0.0717672 0.0691498 0.0543493 0.0278027 -0.00949887
-0.0560551 -0.109922 -0.168796 -0.230109 -0.291141 -0.349126 -0.401377
-0.445389 -0.478947 -0.500221 -0.507835 -0.500935 -0.479217 -0.44295
-0.392961 -0.330611 -0.25774 -0.176598 -0.0897547 -4.87814e-06 0.0897451
0.176588 0.257732 0.330604 0.392955 0.442945 0.479214 0.500934 0.507836
0.500222 0.47895 0.445393 0.401382 0.349132 0.291147 0.230116 0.168802
0.109928 0.0560606 0.00950343 -0.0277992 -0.0543471 -0.0691489 -0.0717676
-0.062343 -0.0415911 -0.0107793 0.0283206 0.0735008 0.122205 0.171631
0.218844 0.260899 0.294963 0.318437 0.32907 0.325061 0.305144 0.268657
0.215583 0.146575 0.0629472 -0.0333559 -0.139812 -0.253403 -0.370708
-0.488026 -0.601498 -0.707243 -0.801501 -0.880765 -0.941915 -0.982332
-0.999999 -0.993587 -0.962504 -0.906934 -0.827839 -0.726936 -0.606647
-0.470026 -0.320661 -0.16256 -1.76542e-05 0.162526;
#X coords 0 1 131 -1 150 60 1 0 0;
#X restore 110 214 graph;
#X floatatom -413 -22 5 0 0 0 - - -;
#X floatatom -363 -23 5 0 0 0 - - -;
#X floatatom -313 -27 5 0 0 0 - - -;
#X obj -843 486 int;
#X obj -811 484 + 1;
#X obj -432 -64 shuffle;
#X floatatom 110 139 3 0 0 1 + - -;
#X floatatom 110 158 3 0 0 1 -- - -;
#X obj -432 -84 bng 15 250 50 0 empty empty empty 17 7 0 10 -262144
-1 -1;
#X obj -381 -67 shuffle;
#X floatatom 163 139 3 0 0 1 + - -;
#X floatatom 163 158 3 0 0 1 -- - -;
#X obj -382 -87 bng 15 250 50 0 empty empty empty 17 7 0 10 -262144
-1 -1;
#X obj -324 -62 shuffle;
#X floatatom 220 141 3 0 0 1 + - -;
#X floatatom 220 160 3 0 0 1 -- - -;
#X obj -326 -81 bng 15 250 50 0 empty empty empty 17 7 0 10 -262144
-1 -1;
#X obj -361 -138 bng 15 250 50 0 empty empty empty 17 7 0 10 -262144
-1 -1;
#X msg -795 409 0;
#X floatatom -875 555 5 0 0 0 - - -;
#X obj -560 751 == 0;
#X obj -560 776 route 1;
#X obj -160 -33 mod 5;
#X obj -160 -10 == 0;
#X obj -160 14 route 1;
#X obj -362 24 pack f f f;
#X obj -761 761 + 25;
#X obj -761 734 mod 50;
#N canvas 0 0 450 300 (subpatch) 0;
#X array graphX 50 float 3;
#A 0 -0.279512 -0.325686 -0.355926 -0.370563 -0.370492 -0.357122 -0.332302
-0.298234 -0.257372 -0.21232 -0.16572 -0.503993 -0.490425 -0.469233
-0.441476 -0.408281 -0.370811 -0.330235 -0.2877 -0.244308 -0.201089
-0.158988 -0.168796 -0.230109 -1 -1 -1 -1 -1 -1 -1 -1 -1 -1 -1 -1 -1
-1 -1 -1 -1 -1 -1 -1 -1 -1 -1 -1 -1 -0.47201;
#X coords 0 1 49 -1 200 70 1 0 0;
#X restore 289 206 graph;
#X floatatom 139 181 5 1 32 1 factorization_speed - -;
#X msg -560 798 \; graphX const -1;
#X obj -666 861 tabwrite graphX;
#X msg -362 49 \; sinesumX sinesum 131 1 \$1 \$2 \$3;
#X msg -503 55 \; sinesumX normalize 1;
#X obj -802 828 tabread sinesumX;
#X text 107 120 Factor 1;
#X text 160 120 Factor 2;
#X text 217 121 Factor 3;
#X obj -463 -36 bng 15 250 50 0 empty empty empty 17 7 0 10 -262144
-1 -1;
#X obj 116 182 bng 15 250 50 0 empty empty empty 17 7 0 10 -262144
-1 -1;
#X obj 105 286 cnv 15 390 160 empty empty empty 20 12 0 14 -174363
-66577 0;
#N canvas 1 83 450 300 (subpatch) 0;
#X array sinesumY 131 float 3;
#A 0 -0.138478 0 0.138478 0.274177 0.404389 0.526554 0.638321 0.737612
0.822672 0.892111 0.944934 0.980561 0.998832 1 0.984712 0.953982 0.909147
0.851823 0.783845 0.70721 0.624014 0.536383 0.44642 0.356135 0.267401
0.181902 0.101095 0.0261823 -0.0419078 -0.102531 -0.155323 -0.200194
-0.237303 -0.267032 -0.289954 -0.306788 -0.318366 -0.325579 -0.329339
-0.330536 -0.330002 -0.328472 -0.326563 -0.32475 -0.323355 -0.322541
-0.322313 -0.322533 -0.322929 -0.323123 -0.322656 -0.321015 -0.317667
-0.312093 -0.303813 -0.292418 -0.277594 -0.259141 -0.236989 -0.211201
-0.181981 -0.149664 -0.114708 -0.0776722 -0.039203 -2.12579e-06 0.0391988
0.0776681 0.114704 0.149661 0.181978 0.211198 0.236986 0.259139 0.277592
0.292416 0.303812 0.312092 0.317667 0.321014 0.322656 0.323123 0.322929
0.322533 0.322313 0.322541 0.323355 0.32475 0.326563 0.328472 0.330002
0.330536 0.329339 0.325579 0.318367 0.30679 0.289956 0.267035 0.237307
0.200199 0.155329 0.102537 0.0419147 -0.0261745 -0.101086 -0.181893
-0.267392 -0.356126 -0.44641 -0.536374 -0.624004 -0.707202 -0.783837
-0.851816 -0.909141 -0.953978 -0.984709 -0.999999 -0.998833 -0.980564
-0.944939 -0.892117 -0.82268 -0.737622 -0.638332 -0.526567 -0.404403
-0.274191 -0.138493 -1.50222e-05 0.138464;
#X coords 0 1 131 -1 150 60 1 0 0;
#X restore 110 379 graph;
#X floatatom -427 194 5 0 0 0 - - -;
#X floatatom -377 193 5 0 0 0 - - -;
#X floatatom -327 189 5 0 0 0 - - -;
#X obj -446 152 shuffle;
#X floatatom 110 304 3 0 0 1 + - -;
#X floatatom 110 323 3 0 0 1 -- - -;
#X obj -446 132 bng 15 250 50 0 empty empty empty 17 7 0 10 -262144
-1 -1;
#X obj -395 149 shuffle;
#X floatatom 163 304 3 0 0 1 + - -;
#X floatatom 163 323 3 0 0 1 -- - -;
#X obj -396 129 bng 15 250 50 0 empty empty empty 17 7 0 10 -262144
-1 -1;
#X obj -338 154 shuffle;
#X floatatom 220 306 3 0 0 1 + - -;
#X floatatom 220 325 3 0 0 1 -- - -;
#X obj -340 135 bng 15 250 50 0 empty empty empty 17 7 0 10 -262144
-1 -1;
#X obj -376 101 bng 15 250 50 0 empty empty empty 17 7 0 10 -262144
-1 -1;
#X obj -174 183 mod 5;
#X obj -174 206 == 0;
#X obj -174 228 route 1;
#X obj -376 240 pack f f f;
#N canvas 0 0 450 300 (subpatch) 0;
#X array graphY 50 float 3;
#A 0 -0.0775622 -0.57554 -0.569824 -0.542115 -0.494364 -0.429226 -0.349939
-0.260193 -0.163981 -0.294471 -0.30989 -0.321529 -0.330255 -0.336898
-0.342212 -0.34684 -0.351294 -0.32475 -0.323355 -0.322541 -0.322313
-0.322533 -0.322929 -0.323123 -1 -1 -1 -1 -1 -1 -1 -1 -1 -1 -1 -1 -1
-1 -1 -1 -1 -1 -1 -1 -1 -1 -1 -1 -1 -0.00624733;
#X coords 0 1 49 -1 200 70 1 0 0;
#X restore 289 371 graph;
#X floatatom 139 346 5 1 32 1 factorization_speed - -;
#X text 107 285 Factor 1;
#X text 160 285 Factor 2;
#X text 217 286 Factor 3;
#X obj -470 174 bng 15 250 50 0 empty empty empty 17 7 0 10 -262144
-1 -1;
#X obj 116 347 bng 15 250 50 0 empty empty empty 17 7 0 10 -262144
-1 -1;
#X msg -517 271 \; sinesumY normalize 1;
#X msg -375 265 \; sinesumY sinesum 131 1 \$1 \$2 \$3;
#X obj -135 736 == 0;
#X obj -135 761 route 1;
#X obj -336 746 + 25;
#X obj -336 719 mod 50;
#X obj -376 813 tabread sinesumY;
#X obj -240 847 tabwrite graphY;
#X obj 105 450 cnv 15 390 160 empty empty empty 20 12 0 14 -174811
-66577 0;
#N canvas 1 83 450 300 (subpatch) 0;
#X array sinesumZ 131 float 3;
#A 0 -0.144315 0 0.144315 0.2856 0.420892 0.547355 0.662343 0.763456
0.84859 0.915985 0.964261 0.992446 1 0.986823 0.953258 0.900084 0.828499
0.740091 0.636808 0.520911 0.39493 0.261605 0.123828 -0.015418 -0.153125
-0.286325 -0.412153 -0.527908 -0.631115 -0.719572 -0.791404 -0.845097
-0.879537 -0.894025 -0.888301 -0.862541 -0.817359 -0.753789 -0.673264
-0.577583 -0.468876 -0.349549 -0.222242 -0.0897608 0.0449748 0.179001
0.309371 0.43322 0.54783 0.650683 0.739522 0.812396 0.867703 0.904224
0.921154 0.918111 0.895153 0.852771 0.791877 0.713791 0.620205 0.513149
0.394947 0.268165 0.135559 7.35437e-06 -0.135544 -0.268151 -0.394933
-0.513136 -0.620194 -0.713782 -0.79187 -0.852765 -0.89515 -0.91811
-0.921154 -0.904227 -0.867708 -0.812403 -0.739531 -0.650694 -0.547842
-0.433233 -0.309384 -0.179015 -0.0449894 0.0897463 0.222227 0.349536
0.468863 0.577572 0.673254 0.753781 0.817353 0.862537 0.888299 0.894026
0.879539 0.845102 0.791411 0.719581 0.631125 0.52792 0.412166 0.286339
0.15314 0.015433 -0.123813 -0.26159 -0.394916 -0.520898 -0.636796 -0.740081
-0.82849 -0.900077 -0.953253 -0.98682 -1 -0.992448 -0.964265 -0.915991
-0.848598 -0.763466 -0.662355 -0.547368 -0.420906 -0.285615 -0.14433
-1.56577e-05 0.144299;
#X coords 0 1 131 -1 150 60 1 0 0;
#X restore 110 543 graph;
#X floatatom -431 394 5 0 0 0 - - -;
#X floatatom -381 393 5 0 0 0 - - -;
#X floatatom -331 389 5 0 0 0 - - -;
#X obj -450 352 shuffle;
#X floatatom 110 468 3 0 0 1 + - -;
#X floatatom 110 487 3 0 0 1 -- - -;
#X obj -450 332 bng 15 250 50 0 empty empty empty 17 7 0 10 -262144
-1 -1;
#X obj -399 349 shuffle;
#X floatatom 163 468 3 0 0 1 + - -;
#X floatatom 163 487 3 0 0 1 -- - -;
#X obj -400 329 bng 15 250 50 0 empty empty empty 17 7 0 10 -262144
-1 -1;
#X obj -342 354 shuffle;
#X floatatom 220 470 3 0 0 1 + - -;
#X floatatom 220 489 3 0 0 1 -- - -;
#X obj -344 335 bng 15 250 50 0 empty empty empty 17 7 0 10 -262144
-1 -1;
#X obj -380 301 bng 15 250 50 0 empty empty empty 17 7 0 10 -262144
-1 -1;
#X obj -178 383 mod 5;
#X obj -178 406 == 0;
#X obj -178 428 route 1;
#X obj -380 440 pack f f f;
#N canvas 0 0 450 300 (subpatch) 0;
#X array graphZ 50 float 3;
#A 0 -0.408752 -0.405951 -0.380435 -0.333973 -0.269143 -0.189233 -0.0980968
-2.70514e-06 0.100543 -0.862541 -0.817359 -0.753789 -0.673264 -0.577583
-0.468876 -0.349549 -0.222242 -0.0897608 0.0449748 0.179001 0.309371
0.43322 0.54783 0.650683 -1 -1 -1 -1 -1 -1 -1 -1 -1 -1 -1 -1 -1 -1
-1 -1 -1 -1 -1 -1 -1 -1 -1 -1 -1 -0.387967;
#X coords 0 1 49 -1 200 70 1 0 0;
#X restore 289 535 graph;
#X floatatom 139 510 5 1 32 1 factorization_speed - -;
#X text 107 449 Factor 1;
#X text 160 449 Factor 2;
#X text 217 450 Factor 3;
#X obj -474 374 bng 15 250 50 0 empty empty empty 17 7 0 10 -262144
-1 -1;
#X obj 116 511 bng 15 250 50 0 empty empty empty 17 7 0 10 -262144
-1 -1;
#X msg -379 465 \; sinesumZ sinesum 131 1 \$1 \$2 \$3;
#X msg -521 471 \; sinesumZ normalize 1;
#X obj 273 744 == 0;
#X obj 273 769 route 1;
#X obj 72 754 + 25;
#X obj 72 727 mod 50;
#X obj 32 822 tabread sinesumZ;
#X obj 168 855 tabwrite graphZ;
#X obj -441 1026 *;
#X obj -879 343 inlet;
#X obj -842 329 r metro;
#X obj -865 416 bng 15 250 50 0 empty empty empty 17 7 0 10 -262144
-1 -1;
#X floatatom 267 666 10 0 0 1 overcome - -;
#X msg -134 784 \; graphY const -1;
#X msg 275 792 \; graphZ const -1;
#X text 223 101 3D Sinesum Vector Sequencer;
#X obj 110 635 vradio 18 1 0 3 empty empty empty 0 -8 0 10 -103873
-1 -1 0;
#X text 130 634 1D;
#X text 130 652 2D;
#X text 130 670 3D;
#X text 109 614 Dimension;
#X obj -577 1383 spigot 1;
#X floatatom -532 1356 1 0 0 0 - - -;
#X obj -380 1382 spigot 1;
#X floatatom -335 1355 1 0 0 0 - - -;
#X obj -215 1384 spigot 1;
#X floatatom -170 1357 1 0 0 0 - - -;
#X floatatom -375 1415 5 0 0 0 - - -;
#X obj -192 1043 *;
#X text -565 1362 1D;
#X text -367 1364 2D;
#X text -202 1367 3D;
#X obj 161 1269 route 0 1 2;
#X obj 157 1304 bng 15 250 50 0 empty empty empty 17 7 0 10 -262144
-1 -1;
#X obj 186 1307 bng 15 250 50 0 empty empty empty 17 7 0 10 -262144
-1 -1;
#X obj 214 1306 bng 15 250 50 0 empty empty empty 17 7 0 10 -262144
-1 -1;
#X msg 113 1338 0;
#X msg 183 1339 0;
#X msg 258 1340 0;
#X msg 140 1338 1;
#X msg 209 1339 1;
#X msg 284 1340 1;
#X floatatom 536 598 5 0 0 0 - - -;
#X floatatom -802 877 5 0 0 0 - - -;
#X floatatom -376 869 5 0 0 0 - - -;
#X floatatom 57 881 5 0 0 0 - - -;
#X floatatom 367 138 6 0 0 1 max - -;
#X floatatom 367 157 6 0 0 1 base - -;
#X obj -802 899 *;
#X floatatom 367 176 6 0 0 1 overcome - -;
#X floatatom 371 300 6 0 0 1 max - -;
#X floatatom 371 319 6 0 0 1 base - -;
#X floatatom 371 338 6 0 0 1 overcome - -;
#X floatatom 374 464 6 0 0 1 max - -;
#X floatatom 374 483 6 0 0 1 base - -;
#X floatatom 374 502 6 0 0 1 overcome - -;
#X obj -802 920 +;
#X obj -802 942 int;
#X floatatom -778 1016 5 0 0 0 - - -;
#X obj -376 891 *;
#X obj -376 912 +;
#X obj -376 934 int;
#X floatatom -376 956 5 0 0 0 - - -;
#X obj 57 905 *;
#X obj 57 926 +;
#X obj 57 948 int;
#X floatatom 57 970 5 0 0 0 - - -;
#X msg -279 1444 0;
#N canvas 1 84 450 300 (subpatch) 0;
#X array muisti1 1 float 3;
#A 0 72;
#X coords 0 1 1 128 100 60 1 0 0;
#X restore 385 630 graph;
#X obj -383 1464 tabwrite muisti1;
#X floatatom 275 316 5 0 0 1 offset - -;
#X floatatom 273 149 5 0 0 1 offset - -;
#X floatatom 291 477 5 0 0 1 offset - -;
#X obj -486 622 +;
#X obj -782 661 +;
#X obj 9 666 +;
#X obj 162 635 vradio 18 1 0 2 empty empty empty 0 -8 0 10 -103873
-1 -1 0;
#X obj -395 1076 +;
#X obj -236 1119 +;
#X obj -380 1176 spigot 1;
#X obj -238 1173 spigot 1;
#X obj -442 1175 spigot 1;
#X obj -179 1176 spigot 1;
#X floatatom -397 1150 1 0 0 0 - - -;
#X floatatom -335 1150 1 0 0 0 - - -;
#X floatatom -192 1152 1 0 0 0 - - -;
#X floatatom -134 1151 1 0 0 0 - - -;
#X floatatom 289 1032 5 0 0 0 - - -;
#X floatatom 290 1076 5 0 0 0 - - -;
#X obj 289 1053 != 1;
#X text 182 633 SUM;
#X text 182 651 MULTI;
#X connect 3 0 28 0;
#X connect 4 0 28 1;
#X connect 4 0 41 0;
#X connect 5 0 28 2;
#X connect 5 0 41 0;
#X connect 6 0 7 0;
#X connect 6 0 22 0;
#X connect 6 0 25 0;
#X connect 6 0 61 0;
#X connect 6 0 98 0;
#X connect 6 0 183 0;
#X connect 6 0 182 0;
#X connect 6 0 184 0;
#X connect 7 0 6 1;
#X connect 8 0 3 0;
#X connect 9 0 8 1;
#X connect 10 0 8 2;
#X connect 11 0 8 0;
#X connect 12 0 4 0;
#X connect 13 0 12 1;
#X connect 14 0 12 2;
#X connect 15 0 12 0;
#X connect 16 0 5 0;
#X connect 17 0 16 1;
#X connect 18 0 16 2;
#X connect 19 0 16 0;
#X connect 20 0 11 0;
#X connect 20 0 15 0;
#X connect 20 0 19 0;
#X connect 21 0 6 0;
#X connect 23 0 24 0;
#X connect 24 0 33 0;
#X connect 25 0 26 0;
#X connect 26 0 27 0;
#X connect 27 0 20 0;
#X connect 28 0 35 0;
#X connect 28 0 36 0;
#X connect 29 0 37 0;
#X connect 30 0 23 0;
#X connect 30 0 29 0;
#X connect 30 0 34 1;
#X connect 32 0 25 1;
#X connect 37 0 34 0;
#X connect 37 0 152 0;
#X connect 41 0 3 0;
#X connect 42 0 20 0;
#X connect 45 0 64 0;
#X connect 46 0 64 1;
#X connect 46 0 70 0;
#X connect 47 0 64 2;
#X connect 47 0 70 0;
#X connect 48 0 45 0;
#X connect 49 0 48 1;
#X connect 50 0 48 2;
#X connect 51 0 48 0;
#X connect 52 0 46 0;
#X connect 53 0 52 1;
#X connect 54 0 52 2;
#X connect 55 0 52 0;
#X connect 56 0 47 0;
#X connect 57 0 56 1;
#X connect 58 0 56 2;
#X connect 59 0 56 0;
#X connect 60 0 51 0;
#X connect 60 0 55 0;
#X connect 60 0 59 0;
#X connect 61 0 62 0;
#X connect 62 0 63 0;
#X connect 63 0 60 0;
#X connect 64 0 73 0;
#X connect 64 0 72 0;
#X connect 66 0 61 1;
#X connect 70 0 45 0;
#X connect 71 0 60 0;
#X connect 74 0 75 0;
#X connect 75 0 122 0;
#X connect 76 0 78 0;
#X connect 77 0 74 0;
#X connect 77 0 76 0;
#X connect 77 0 79 1;
#X connect 78 0 79 0;
#X connect 78 0 153 0;
#X connect 82 0 101 0;
#X connect 83 0 101 1;
#X connect 83 0 107 0;
#X connect 84 0 101 2;
#X connect 84 0 107 0;
#X connect 85 0 82 0;
#X connect 86 0 85 1;
#X connect 87 0 85 2;
#X connect 88 0 85 0;
#X connect 89 0 83 0;
#X connect 90 0 89 1;
#X connect 91 0 89 2;
#X connect 92 0 89 0;
#X connect 93 0 84 0;
#X connect 94 0 93 1;
#X connect 95 0 93 2;
#X connect 96 0 93 0;
#X connect 97 0 88 0;
#X connect 97 0 92 0;
#X connect 97 0 96 0;
#X connect 98 0 99 0;
#X connect 99 0 100 0;
#X connect 100 0 97 0;
#X connect 101 0 109 0;
#X connect 101 0 110 0;
#X connect 103 0 98 1;
#X connect 107 0 82 0;
#X connect 108 0 97 0;
#X connect 111 0 112 0;
#X connect 112 0 123 0;
#X connect 113 0 115 0;
#X connect 114 0 111 0;
#X connect 114 0 113 0;
#X connect 114 0 116 1;
#X connect 115 0 116 0;
#X connect 115 0 154 0;
#X connect 117 0 137 0;
#X connect 117 0 190 0;
#X connect 118 0 120 0;
#X connect 119 0 120 0;
#X connect 120 0 6 0;
#X connect 125 0 141 0;
#X connect 130 0 136 0;
#X connect 131 0 130 1;
#X connect 132 0 136 0;
#X connect 133 0 132 1;
#X connect 134 0 136 0;
#X connect 135 0 134 1;
#X connect 136 0 151 0;
#X connect 136 0 176 0;
#X connect 136 0 178 0;
#X connect 137 0 191 0;
#X connect 141 0 142 0;
#X connect 141 1 143 0;
#X connect 141 2 144 0;
#X connect 142 0 145 0;
#X connect 142 0 148 0;
#X connect 143 0 146 0;
#X connect 143 0 149 0;
#X connect 144 0 147 0;
#X connect 144 0 150 0;
#X connect 145 0 133 0;
#X connect 145 0 135 0;
#X connect 146 0 131 0;
#X connect 146 0 135 0;
#X connect 147 0 131 0;
#X connect 147 0 133 0;
#X connect 148 0 131 0;
#X connect 149 0 133 0;
#X connect 150 0 135 0;
#X connect 151 0 121 0;
#X connect 152 0 157 0;
#X connect 153 0 168 0;
#X connect 154 0 172 0;
#X connect 155 0 157 1;
#X connect 156 0 165 1;
#X connect 157 0 165 0;
#X connect 159 0 168 1;
#X connect 160 0 169 1;
#X connect 162 0 172 1;
#X connect 163 0 173 1;
#X connect 165 0 166 0;
#X connect 166 0 167 0;
#X connect 167 0 158 0;
#X connect 167 0 130 0;
#X connect 167 0 117 0;
#X connect 167 0 186 0;
#X connect 168 0 169 0;
#X connect 169 0 170 0;
#X connect 170 0 171 0;
#X connect 171 0 161 0;
#X connect 171 0 117 1;
#X connect 171 0 186 1;
#X connect 172 0 173 0;
#X connect 173 0 174 0;
#X connect 174 0 175 0;
#X connect 175 0 164 0;
#X connect 175 0 137 1;
#X connect 175 0 187 1;
#X connect 176 0 178 1;
#X connect 179 0 182 1;
#X connect 180 0 183 1;
#X connect 181 0 184 1;
#X connect 182 0 77 0;
#X connect 183 0 30 0;
#X connect 184 0 114 0;
#X connect 185 0 196 0;
#X connect 186 0 187 0;
#X connect 186 0 188 0;
#X connect 187 0 189 0;
#X connect 188 0 132 0;
#X connect 189 0 134 0;
#X connect 190 0 132 0;
#X connect 191 0 134 0;
#X connect 192 0 190 1;
#X connect 193 0 188 1;
#X connect 194 0 189 1;
#X connect 195 0 191 1;
#X connect 196 0 198 0;
#X connect 196 0 195 0;
#X connect 196 0 192 0;
#X connect 197 0 194 0;
#X connect 197 0 193 0;
#X connect 198 0 197 0;
#X coords 0 -1 1 1 400 600 1 100 100;
#X restore 173 -499 pd sinesumfactor;
#X connect 0 0 1 0;
#X connect 0 1 1 1;
#X connect 0 2 1 2;
#X connect 0 3 1 3;
#X connect 0 4 1 4;
