#N canvas 550 335 370 334 10;
#N canvas 0 83 1680 967 evogenerator 0;
#X msg -48 835 0;
#X obj -48 895 + 1;
#X obj -48 1013 + 1;
#X msg -48 953 9;
#X msg -46 1067 18;
#N canvas 0 0 450 300 (subpatch) 0;
#X array pienin 1 float 3;
#A 0 9;
#X coords 0 24 1 0 10 140 1 0 0;
#X restore 58 419 graph;
#X obj 554 -53 bng 15 250 50 0 empty empty empty 17 7 0 10 -262144
-1 -1;
#X obj 890 123 int;
#X obj 890 91 spigot;
#X floatatom 890 186 5 0 0 0 - - -;
#X obj 922 124 + 1;
#X obj 906 156 < 0;
#X msg 1118 26 0;
#X obj 890 218 tabread burstN;
#X obj 889 -29 tabread burstT;
#X obj 779 -12 mod;
#X floatatom 890 242 5 0 0 0 - - -;
#X obj 779 -38 int;
#X obj 805 -38 + 1;
#X obj 779 32 route 1;
#X obj 779 58 bng 15 250 50 0 empty empty empty 17 7 0 10 -262144 -1
-1;
#X obj 985 277 bng 15 250 50 0 empty empty empty 17 7 0 10 -262144
-1 -1;
#X obj 779 10 == 0;
#X floatatom 911 -1 5 0 0 0 - - -;
#X obj 1149 202 ==;
#X obj 1149 224 route 1;
#X obj 1149 253 bng 15 250 50 0 empty empty memend 17 7 0 10 -262144
-1 -1;
#X obj 1118 5 bng 15 250 50 0 empty empty start 17 7 0 10 -262144 -1
-1;
#X obj 630 30 bng 15 250 50 0 empty empty empty 17 7 0 10 -262144 -1
-1;
#X obj 651 205 +;
#X floatatom 666 153 5 0 0 0 - - -;
#X floatatom 500 694 5 0 0 1 outcome - -;
#X obj 500 721 tabwrite collectN;
#X obj 985 334 random;
#X obj 985 308 bng 15 250 50 0 empty empty empty 17 7 0 10 -262144
-1 -1;
#X obj 985 407 +;
#X obj 985 358 -;
#X obj 985 459 tabwrite collectT;
#N canvas 0 0 450 300 (subpatch) 0;
#X array collectN 32 float 3;
#A 0 6 5 11 12 1 4 10 6 12 14 1 0 10 11 10 11 11 12 13 14 1 2 2 8 6
6 7 2 3 1 1 15;
#X coords 0 24 32 -24 100 40 1 0 0;
#X restore 117 151 graph;
#N canvas 0 0 450 300 (subpatch) 0;
#X array collectT 32 float 3;
#A 0 1 2 2 2 2 2 2 2 2 2 2 2 2 2 2 2 2 2 2 2 2 2 2 2 2 2 2 -3 2 1 2
2;
#X coords 0 8 32 1 100 40 1 0 0;
#X restore 13 151 graph;
#X floatatom 985 432 5 0 0 1 outcome - -;
#X obj 1173 308 arraycopy burstN;
#X obj 1155 362 arraycopy burstT;
#X msg 1155 339 copy collectT;
#X msg 1173 285 copy collectN;
#X obj 1223 165 delay 2;
#X obj 628 116 random;
#X obj 628 159 -;
#X obj 666 178 int;
#X obj 1000 385 int;
#X floatatom 309 734 5 0 0 0 - - -;
#X obj 309 710 mod 7;
#X obj 336 663 r scale_notes;
#N canvas 0 0 450 300 (subpatch) 0;
#X array pino 24 float 3;
#A 0 2 2 2 3 0 0 1 0 0 0 0 0 0 0 0 0 0 0 0 0 0 0 0 0;
#X coords 0 48 24 0 60 110 1 0 0;
#X restore -50 251 graph;
#X obj -48 857 tabread pino;
#X obj -48 917 tabwrite pino;
#X msg 27 892 0;
#X obj 55 858 tabread pino;
#X obj 55 896 + 1;
#X obj 55 918 tabwrite pino;
#X msg 55 836 1;
#X msg 130 893 1;
#X obj 157 858 tabread pino;
#X obj 157 896 + 1;
#X obj 157 918 tabwrite pino;
#X obj 260 859 tabread pino;
#X obj 260 897 + 1;
#X obj 260 919 tabwrite pino;
#X msg 157 836 2;
#X msg 260 837 3;
#X msg 232 893 2;
#X msg 335 894 3;
#X obj 369 858 tabread pino;
#X obj 369 896 + 1;
#X obj 369 918 tabwrite pino;
#X obj 472 859 tabread pino;
#X obj 472 897 + 1;
#X obj 472 919 tabwrite pino;
#X obj 574 859 tabread pino;
#X obj 574 897 + 1;
#X obj 574 919 tabwrite pino;
#X obj 677 860 tabread pino;
#X obj 677 898 + 1;
#X obj 677 920 tabwrite pino;
#X msg 369 836 4;
#X msg 472 837 5;
#X msg 574 837 6;
#X msg 677 838 7;
#X msg 444 893 4;
#X msg 547 894 5;
#X msg 649 894 6;
#X msg 752 895 7;
#X obj 785 862 tabread pino;
#X obj 785 900 + 1;
#X obj 785 922 tabwrite pino;
#X msg 785 840 8;
#X msg 860 897 8;
#X msg 1361 321 0;
#X msg 1361 346 \; pino const \$1;
#X obj 651 236 mod;
#X obj 651 262 +;
#X obj 1257 713 bng 15 250 50 0 empty empty findsmallest 17 7 0 10
-262144 -1 -1;
#N canvas 0 0 450 300 (subpatch) 0;
#X array temp1 1 float 3;
#A 0 5;
#X coords 0 48 1 0 10 140 1 0 0;
#X restore 30 245 graph;
#N canvas 0 0 450 300 (subpatch) 0;
#X array temp2 1 float 3;
#A 0 73;
#X coords 0 48 1 0 10 140 1 0 0;
#X restore 78 248 graph;
#N canvas 0 0 450 300 (subpatch) 0;
#X array suurin 1 float 3;
#A 0 3;
#X coords 0 24 1 0 10 140 1 0 0;
#X restore 125 419 graph;
#X obj 359 155 tabread pienin;
#X msg 359 129 0;
#X msg 455 130 0;
#X obj 455 156 tabread suurin;
#X obj 1362 261 route 1;
#X msg 1173 725 128;
#X msg 1174 704 64;
#X msg 1172 745 256;
#X obj 1362 90 int;
#X obj 1391 90 + 1;
#X obj 1362 205 mod;
#X obj 1362 232 == 0;
#X obj 1362 66 bng 15 250 50 0 empty empty empty 17 7 0 10 -262144
-1 -1;
#X obj 1545 -14 s scale_notes;
#X msg 1545 -40 12;
#X obj 413 99 bng 15 250 50 0 empty empty empty 17 7 0 10 -262144 -1
-1;
#X obj 1362 295 delay 50;
#X obj 1327 843 int;
#X obj 1353 842 + 1;
#X obj 1325 818 spigot;
#X floatatom 1418 848 5 0 0 0 - - -;
#X floatatom 1325 894 5 0 0 0 - - -;
#X obj 1410 919 route 1;
#X msg 1325 773 bang;
#X msg 1291 822 0;
#X obj 1325 749 delay 1;
#X obj 1325 922 tabread pino;
#X floatatom 1330 970 5 0 0 0 - - -;
#X msg 1395 951 0;
#X floatatom 1395 1001 5 0 0 0 - - -;
#X msg 1406 1045 0;
#X obj 1326 1034 spigot;
#X obj 1418 797 r scale_notes;
#X msg 1413 1117 0;
#X obj 1326 1100 spigot;
#X obj 1395 977 tabread temp1;
#X obj 1359 1008 <;
#X obj 1325 1072 tabwrite temp1;
#X obj 1326 1140 tabwrite pienin;
#X msg 1229 832 48;
#X floatatom 1265 1117 5 0 0 0 - - -;
#X msg 1229 857 \; temp1 const \$1;
#X floatatom 455 202 5 0 0 0 - - -;
#X floatatom 359 198 5 0 0 0 - - -;
#X obj -48 975 tabread pino;
#X obj -48 1035 tabwrite pino;
#X obj 55 976 tabread pino;
#X obj 55 1014 + 1;
#X obj 55 1036 tabwrite pino;
#X obj 163 978 tabread pino;
#X obj 163 1016 + 1;
#X obj 163 1038 tabwrite pino;
#X msg 55 954 10;
#X msg 163 956 11;
#X msg 27 1010 9;
#X msg 130 1011 10;
#X msg 238 1013 11;
#X obj 1325 794 metro 0;
#X obj 1366 874 <;
#X obj 1546 703 bng 15 250 50 0 empty empty findlargest 17 7 0 10 -262144
-1 -1;
#X obj 1611 836 int;
#X obj 1639 836 + 1;
#X obj 1611 812 spigot;
#X floatatom 1720 799 5 0 0 0 - - -;
#X floatatom 1611 888 5 0 0 0 - - -;
#X msg 1675 760 stop;
#X obj 1702 908 route 1;
#X msg 1611 767 bang;
#X msg 1577 816 0;
#X obj 1611 743 delay 1;
#X obj 1611 916 tabread pino;
#X floatatom 1626 961 5 0 0 0 - - -;
#X msg 1681 943 0;
#X floatatom 1681 993 5 0 0 0 - - -;
#X msg 1692 1036 0;
#X obj 1612 1026 spigot;
#X obj 1720 772 r scale_notes;
#X msg 1700 1099 0;
#X obj 1613 1097 spigot;
#X floatatom 1551 1108 5 0 0 0 - - -;
#X obj 1611 788 metro 0;
#X obj 1639 868 <;
#X msg 1510 856 \; temp2 const \$1;
#X msg 1510 831 0;
#X obj 1681 969 tabread temp2;
#X obj 1611 1063 tabwrite temp2;
#X obj 1613 1122 tabwrite suurin;
#X obj 1645 999 >;
#X obj 1277 677 r findsmallest;
#X obj 1568 670 r findlargest;
#X obj 279 977 tabread pino;
#X obj 279 1015 + 1;
#X obj 279 1037 tabwrite pino;
#X obj 382 978 tabread pino;
#X obj 382 1016 + 1;
#X obj 382 1038 tabwrite pino;
#X obj 490 980 tabread pino;
#X obj 490 1018 + 1;
#X obj 490 1040 tabwrite pino;
#X msg 279 955 12;
#X msg 382 956 13;
#X msg 490 958 14;
#X msg 354 1012 12;
#X msg 457 1013 13;
#X msg 565 1015 14;
#X obj 594 980 tabread pino;
#X obj 594 1018 + 1;
#X obj 594 1040 tabwrite pino;
#X obj 697 981 tabread pino;
#X obj 697 1019 + 1;
#X obj 697 1041 tabwrite pino;
#X obj 805 983 tabread pino;
#X obj 805 1021 + 1;
#X obj 805 1043 tabwrite pino;
#X msg 594 958 15;
#X msg 697 959 16;
#X msg 805 961 17;
#X msg 669 1015 15;
#X msg 772 1016 16;
#X msg 864 903 17;
#X obj 300 754 route 0 1 2 3 4 5 6 7 8 9 10 11 12 13 14 15 16 17 18
19 20 21;
#X obj -46 1089 tabread pino;
#X obj -46 1127 + 1;
#X obj -46 1149 tabwrite pino;
#X obj 58 1089 tabread pino;
#X obj 58 1127 + 1;
#X obj 58 1149 tabwrite pino;
#X obj 161 1090 tabread pino;
#X obj 161 1128 + 1;
#X obj 161 1150 tabwrite pino;
#X obj 269 1092 tabread pino;
#X obj 269 1130 + 1;
#X obj 269 1152 tabwrite pino;
#X msg 29 1124 18;
#X msg 58 1067 19;
#X msg 133 1124 19;
#X msg 161 1068 20;
#X msg 236 1125 20;
#X msg 269 1070 21;
#X msg 344 1127 21;
#X obj 1411 896 <;
#X obj 1702 885 <;
#X obj 1418 823 - 1;
#X obj 1719 849 + 1;
#N canvas 0 0 450 300 (subpatch) 0;
#X array pinotallenne 24 float 3;
#A 0 32 38 60 73 34 11 15 18 15 5 11 17 0 0 0 0 0 0 0 0 0 0 0 0;
#X coords 0 48 24 0 60 110 1 0 0;
#X restore -56 419 graph;
#X obj 1423 314 arraycopy pinotallenne;
#X msg 1423 287 copy pino;
#X obj 538 418 ==;
#X obj 539 381 mod 7;
#X obj 645 549 spigot;
#X obj 538 450 route 1;
#X obj 678 504 == 0;
#X floatatom 650 401 5 0 0 0 - - -;
#X obj 900 500 cnv 15 250 280 empty empty empty 20 12 0 14 -13914 -66577
0;
#X floatatom 953 552 2 0 0 1 + - -;
#X floatatom 936 552 2 0 0 0 -- - -;
#X text 910 536 Rhythm Mutations;
#X floatatom 950 520 2 0 0 1 + - -;
#X floatatom 932 520 2 0 0 0 -- - -;
#X text 908 501 Note Mutations;
#X floatatom 1058 758 5 0 0 0 pinoreset - -;
#X obj 1095 759 bng 15 250 50 0 empty empty empty 17 7 0 10 -262144
-1 -1;
#X obj 1112 759 bng 15 250 50 0 empty empty empty 17 7 0 10 -262144
-1 -1;
#X obj 1130 759 bng 15 250 50 0 empty empty empty 17 7 0 10 -262144
-1 -1;
#X obj 554 -93 inlet;
#X obj 678 710 outlet;
#X obj 928 589 cnv 15 200 70 empty empty empty 20 12 0 14 -14302 -66577
0;
#N canvas 0 0 450 300 (subpatch) 0;
#X array burstN 32 float 3;
#A 0 6 5 11 12 1 4 10 6 12 14 1 0 10 11 10 11 11 12 13 14 1 2 2 8 6
6 7 2 3 1 1 0;
#X coords 0 24 32 -24 200 70 1 0 0;
#X restore 928 589 graph;
#X obj 927 694 cnv 15 200 40 empty empty empty 20 12 0 14 -14302 -66577
0;
#N canvas 0 0 450 300 (subpatch) 0;
#X array burstT 32 float 3;
#A 0 2 2 2 2 2 2 2 2 2 2 2 2 2 2 2 2 2 2 2 2 2 2 2 2 2 2 2 -3 2 1 2
2;
#X coords 0 8 32 1 200 40 1 0 0;
#X restore 927 694 graph;
#X obj 589 344 r scale_notes;
#X floatatom 1033 559 5 0 0 0 memsize - -;
#X floatatom 1067 559 5 0 0 1 mainmod - -;
#X obj 681 662 +;
#X floatatom 906 757 2 0 0 1 out-offset - -;
#X text 1011 499 Evolutionary Generator;
#X msg 1167 509 32;
#X msg 1167 527 24;
#X obj 1167 489 bng 15 250 50 0 empty empty empty 17 7 0 10 -262144
-1 -1;
#X obj 1167 467 loadbang;
#X msg 1388 753 stop;
#X obj 1095 523 bng 24 250 50 0 empty empty empty 17 7 0 10 -30696
-1 -1;
#X floatatom 842 5 5 0 0 0 - - -;
#X msg 1316 501 \; burstT const \$1;
#X msg 1316 476 2;
#X msg 1322 546 2;
#X msg 1322 571 \; collectT const \$1;
#X floatatom 1039 670 5 0 0 0 r-reset - -;
#X obj 1454 255 route 1;
#X obj 1454 199 mod;
#X obj 1454 226 == 0;
#X msg 1191 638 128;
#X msg 1192 617 64;
#X msg 1190 658 256;
#X obj 1091 668 bng 15 250 50 0 empty empty empty 17 7 0 10 -262144
-1 -1;
#X obj 1108 668 bng 15 250 50 0 empty empty empty 17 7 0 10 -262144
-1 -1;
#X obj 1126 668 bng 15 250 50 0 empty empty empty 17 7 0 10 -262144
-1 -1;
#X obj 1039 522 bng 15 250 50 0 empty empty start 17 7 0 10 -262144
-1 -1;
#X obj 977 522 tgl 15 0 empty empty rand 17 7 0 10 -262144 -1 -1 0
1;
#X obj 629 77 spigot;
#X msg 1201 509 0;
#X connect 0 0 54 0;
#X connect 1 0 55 0;
#X connect 1 0 56 0;
#X connect 2 0 150 0;
#X connect 2 0 159 0;
#X connect 3 0 149 0;
#X connect 4 0 226 0;
#X connect 6 0 17 0;
#X connect 7 0 9 0;
#X connect 7 0 10 0;
#X connect 7 0 11 0;
#X connect 8 0 7 0;
#X connect 9 0 13 0;
#X connect 9 0 14 0;
#X connect 9 0 32 1;
#X connect 9 0 37 1;
#X connect 9 0 24 0;
#X connect 9 0 117 0;
#X connect 10 0 7 1;
#X connect 11 0 8 1;
#X connect 12 0 7 0;
#X connect 13 0 16 0;
#X connect 14 0 23 0;
#X connect 14 0 287 0;
#X connect 15 0 22 0;
#X connect 16 0 21 0;
#X connect 16 0 30 0;
#X connect 17 0 18 0;
#X connect 17 0 15 0;
#X connect 18 0 17 1;
#X connect 19 0 8 0;
#X connect 19 0 20 0;
#X connect 21 0 28 0;
#X connect 21 0 34 0;
#X connect 22 0 19 0;
#X connect 23 0 49 0;
#X connect 24 0 25 0;
#X connect 25 0 26 0;
#X connect 26 0 44 0;
#X connect 26 0 43 0;
#X connect 26 0 45 0;
#X connect 27 0 12 0;
#X connect 27 0 286 0;
#X connect 28 0 120 0;
#X connect 28 0 304 0;
#X connect 29 0 99 0;
#X connect 30 0 48 0;
#X connect 31 0 32 0;
#X connect 31 0 51 0;
#X connect 31 0 278 0;
#X connect 33 0 36 0;
#X connect 34 0 33 0;
#X connect 35 0 40 0;
#X connect 36 0 35 0;
#X connect 40 0 37 0;
#X connect 43 0 42 0;
#X connect 44 0 41 0;
#X connect 45 0 27 0;
#X connect 46 0 47 0;
#X connect 47 0 29 0;
#X connect 48 0 29 1;
#X connect 49 0 35 1;
#X connect 50 0 225 0;
#X connect 51 0 50 0;
#X connect 52 0 51 1;
#X connect 54 0 1 0;
#X connect 56 0 55 1;
#X connect 57 0 58 0;
#X connect 58 0 59 0;
#X connect 58 0 61 0;
#X connect 60 0 57 0;
#X connect 61 0 59 1;
#X connect 62 0 63 0;
#X connect 63 0 64 0;
#X connect 63 0 70 0;
#X connect 65 0 66 0;
#X connect 66 0 67 0;
#X connect 66 0 71 0;
#X connect 68 0 62 0;
#X connect 69 0 65 0;
#X connect 70 0 64 1;
#X connect 71 0 67 1;
#X connect 72 0 73 0;
#X connect 73 0 74 0;
#X connect 73 0 88 0;
#X connect 75 0 76 0;
#X connect 76 0 77 0;
#X connect 76 0 89 0;
#X connect 78 0 79 0;
#X connect 79 0 80 0;
#X connect 79 0 90 0;
#X connect 81 0 82 0;
#X connect 82 0 83 0;
#X connect 82 0 91 0;
#X connect 84 0 72 0;
#X connect 85 0 75 0;
#X connect 86 0 78 0;
#X connect 87 0 81 0;
#X connect 88 0 74 1;
#X connect 89 0 77 1;
#X connect 90 0 80 1;
#X connect 91 0 83 1;
#X connect 92 0 93 0;
#X connect 93 0 94 0;
#X connect 93 0 96 0;
#X connect 95 0 92 0;
#X connect 96 0 94 1;
#X connect 97 0 98 0;
#X connect 99 0 100 0;
#X connect 100 0 253 0;
#X connect 100 0 257 0;
#X connect 101 0 144 0;
#X connect 101 0 129 0;
#X connect 101 0 130 0;
#X connect 105 0 148 0;
#X connect 106 0 105 0;
#X connect 107 0 108 0;
#X connect 108 0 147 0;
#X connect 109 0 121 0;
#X connect 109 0 101 0;
#X connect 109 0 164 0;
#X connect 109 0 251 0;
#X connect 110 0 265 0;
#X connect 111 0 265 0;
#X connect 112 0 265 0;
#X connect 113 0 114 0;
#X connect 113 0 115 0;
#X connect 113 0 294 0;
#X connect 114 0 113 1;
#X connect 115 0 116 0;
#X connect 116 0 109 0;
#X connect 117 0 113 0;
#X connect 119 0 118 0;
#X connect 120 0 106 0;
#X connect 120 0 107 0;
#X connect 121 0 97 0;
#X connect 122 0 123 0;
#X connect 122 0 126 0;
#X connect 122 0 163 0;
#X connect 122 0 245 0;
#X connect 123 0 122 1;
#X connect 124 0 122 0;
#X connect 125 0 163 1;
#X connect 125 0 245 1;
#X connect 126 0 131 0;
#X connect 126 0 139 0;
#X connect 128 0 162 0;
#X connect 129 0 122 0;
#X connect 130 0 128 0;
#X connect 131 0 133 0;
#X connect 131 0 132 0;
#X connect 131 0 135 0;
#X connect 132 0 141 0;
#X connect 132 0 136 0;
#X connect 133 0 140 0;
#X connect 134 0 141 1;
#X connect 135 0 142 1;
#X connect 136 0 142 0;
#X connect 137 0 247 0;
#X connect 138 0 143 1;
#X connect 139 0 138 0;
#X connect 139 0 143 0;
#X connect 139 0 145 0;
#X connect 140 0 134 0;
#X connect 141 0 136 1;
#X connect 141 0 139 1;
#X connect 144 0 146 0;
#X connect 147 0 252 1;
#X connect 149 0 2 0;
#X connect 151 0 152 0;
#X connect 152 0 153 0;
#X connect 152 0 160 0;
#X connect 154 0 155 0;
#X connect 155 0 156 0;
#X connect 155 0 161 0;
#X connect 157 0 151 0;
#X connect 158 0 154 0;
#X connect 159 0 150 1;
#X connect 160 0 153 1;
#X connect 161 0 156 1;
#X connect 162 0 124 0;
#X connect 163 0 124 1;
#X connect 164 0 188 0;
#X connect 164 0 173 0;
#X connect 164 0 174 0;
#X connect 165 0 166 0;
#X connect 165 0 186 0;
#X connect 165 0 169 0;
#X connect 165 0 246 0;
#X connect 166 0 165 1;
#X connect 167 0 165 0;
#X connect 168 0 186 1;
#X connect 168 0 248 0;
#X connect 169 0 175 0;
#X connect 169 0 183 0;
#X connect 170 0 185 0;
#X connect 172 0 185 0;
#X connect 173 0 165 0;
#X connect 174 0 172 0;
#X connect 175 0 177 0;
#X connect 175 0 176 0;
#X connect 175 0 180 0;
#X connect 176 0 192 0;
#X connect 177 0 189 0;
#X connect 178 0 192 1;
#X connect 179 0 190 1;
#X connect 180 0 190 0;
#X connect 181 0 168 0;
#X connect 182 0 191 1;
#X connect 183 0 184 0;
#X connect 183 0 191 0;
#X connect 183 0 182 0;
#X connect 185 0 167 0;
#X connect 186 0 167 1;
#X connect 188 0 187 0;
#X connect 189 0 178 0;
#X connect 192 0 180 1;
#X connect 192 0 183 1;
#X connect 193 0 101 0;
#X connect 194 0 164 0;
#X connect 195 0 196 0;
#X connect 196 0 197 0;
#X connect 196 0 207 0;
#X connect 198 0 199 0;
#X connect 199 0 200 0;
#X connect 199 0 208 0;
#X connect 201 0 202 0;
#X connect 202 0 203 0;
#X connect 202 0 209 0;
#X connect 204 0 195 0;
#X connect 205 0 198 0;
#X connect 206 0 201 0;
#X connect 207 0 197 1;
#X connect 208 0 200 1;
#X connect 209 0 203 1;
#X connect 210 0 211 0;
#X connect 211 0 212 0;
#X connect 211 0 222 0;
#X connect 213 0 214 0;
#X connect 214 0 215 0;
#X connect 214 0 223 0;
#X connect 216 0 217 0;
#X connect 217 0 218 0;
#X connect 217 0 224 0;
#X connect 219 0 210 0;
#X connect 220 0 213 0;
#X connect 221 0 216 0;
#X connect 222 0 212 1;
#X connect 223 0 215 1;
#X connect 224 0 218 1;
#X connect 225 0 0 0;
#X connect 225 1 60 0;
#X connect 225 2 68 0;
#X connect 225 3 69 0;
#X connect 225 4 84 0;
#X connect 225 5 85 0;
#X connect 225 6 86 0;
#X connect 225 7 87 0;
#X connect 225 8 95 0;
#X connect 225 9 3 0;
#X connect 225 10 157 0;
#X connect 225 11 158 0;
#X connect 225 12 204 0;
#X connect 225 13 205 0;
#X connect 225 14 206 0;
#X connect 225 15 219 0;
#X connect 225 16 220 0;
#X connect 225 17 221 0;
#X connect 225 18 4 0;
#X connect 225 19 239 0;
#X connect 225 20 241 0;
#X connect 225 21 243 0;
#X connect 226 0 227 0;
#X connect 227 0 228 0;
#X connect 227 0 238 0;
#X connect 229 0 230 0;
#X connect 230 0 231 0;
#X connect 230 0 240 0;
#X connect 232 0 233 0;
#X connect 233 0 234 0;
#X connect 233 0 242 0;
#X connect 235 0 236 0;
#X connect 236 0 237 0;
#X connect 236 0 244 0;
#X connect 238 0 228 1;
#X connect 239 0 229 0;
#X connect 240 0 231 1;
#X connect 241 0 232 0;
#X connect 242 0 234 1;
#X connect 243 0 235 0;
#X connect 244 0 237 1;
#X connect 245 0 127 0;
#X connect 246 0 171 0;
#X connect 247 0 125 0;
#X connect 248 0 246 1;
#X connect 251 0 250 0;
#X connect 252 0 256 0;
#X connect 252 0 255 0;
#X connect 253 0 252 0;
#X connect 254 0 31 0;
#X connect 255 0 28 0;
#X connect 256 0 254 1;
#X connect 257 0 254 0;
#X connect 259 0 33 1;
#X connect 260 0 36 1;
#X connect 262 0 46 1;
#X connect 263 0 47 1;
#X connect 265 0 115 1;
#X connect 266 0 111 0;
#X connect 267 0 110 0;
#X connect 268 0 112 0;
#X connect 269 0 6 0;
#X connect 275 0 253 1;
#X connect 276 0 24 1;
#X connect 276 0 11 1;
#X connect 277 0 99 1;
#X connect 278 0 270 0;
#X connect 279 0 278 1;
#X connect 281 0 276 0;
#X connect 282 0 277 0;
#X connect 283 0 281 0;
#X connect 283 0 282 0;
#X connect 284 0 283 0;
#X connect 284 0 305 0;
#X connect 285 0 162 0;
#X connect 287 0 15 1;
#X connect 289 0 288 0;
#X connect 290 0 291 0;
#X connect 292 0 294 1;
#X connect 293 0 289 0;
#X connect 293 0 290 0;
#X connect 294 0 295 0;
#X connect 295 0 293 0;
#X connect 296 0 292 0;
#X connect 297 0 292 0;
#X connect 298 0 292 0;
#X connect 299 0 297 0;
#X connect 300 0 296 0;
#X connect 301 0 298 0;
#X connect 302 0 27 0;
#X connect 303 0 304 1;
#X connect 304 0 46 0;
#X connect 305 0 303 0;
#X coords 0 -1 1 1 250 280 1 900 500;
#X restore -2182 -794 pd evogenerator;
#X obj -2138 -462 tabwrite muisti1;
#X msg -2045 -484 0;
#X floatatom -2138 -500 5 0 0 0 - - -;
#X obj -2174 -831 r metro;
#X obj -2241 -476 s gentrig;
#X obj -2225 -507 bng 15 250 50 0 empty empty empty 17 7 0 10 -262144
-1 -1;
#X connect 0 0 3 0;
#X connect 0 0 6 0;
#X connect 2 0 1 1;
#X connect 3 0 1 0;
#X connect 3 0 2 0;
#X connect 4 0 0 0;
#X connect 6 0 5 0;
