#N canvas 1 83 459 359 10;
#N canvas 0 83 1680 967 evolver 0;
#X obj 100 100 cnv 15 450 350 empty empty empty 20 12 0 14 -83269 -66577
0;
#X obj 449 47 tabwrite organism;
#X floatatom 548 27 5 0 0 0 - - -;
#X obj 575 5 + 1;
#X obj 548 -51 bng 15 250 50 0 empty empty empty 17 7 0 10 -262144
-1 -1;
#X obj 449 -22 bng 15 250 50 0 empty empty empty 17 7 0 10 -262144
-1 -1;
#X obj 449 19 + 25;
#X obj 449 -87 bng 15 250 50 0 empty empty empty 17 7 0 10 -262144
-1 -1;
#X obj 548 5 int;
#X msg 499 -88 0;
#X obj 449 -5 random 50;
#X msg 528 -127 \; organism const 0;
#X obj 37 -32 bng 15 250 50 0 empty empty empty 0 -6 0 8 -262144 -1
-1;
#X floatatom 85 -35 5 0 0 0 - - -;
#X floatatom 134 -34 5 0 0 0 - - -;
#X text 142 -20 max;
#X text 73 -21 max_index;
#X obj 34 33 bng 15 250 50 0 empty empty empty 0 -6 0 8 -262144 -1
-1;
#X floatatom 82 30 5 0 0 0 - - -;
#X floatatom 131 31 5 0 0 0 - - -;
#X text 139 45 min;
#X text 70 44 min_index;
#X obj 59 -121 tab_reverse organism played;
#X obj 58 -143 bng 15 250 50 0 empty empty empty 17 7 0 10 -262144
-1 -1;
#X obj 61 -92 tab_sqrt organism played;
#X obj 31 -99 bng 15 250 50 0 empty empty empty 17 7 0 10 -262144 -1
-1;
#X obj 80 -155 bng 15 250 50 0 empty empty empty 0 -6 0 8 -262144 -1
-1;
#X floatatom 141 -157 5 0 0 0 - - -;
#X text 137 -143 sum value;
#X obj 80 -207 bng 15 250 50 0 empty empty empty 17 7 0 10 -262144
-1 -1;
#X obj 82 -183 tab_sum organism;
#X obj 447 -118 until;
#X msg 447 -139 100;
#X obj 526 -166 bng 15 250 50 0 empty empty empty 17 7 0 10 -262144
-1 -1;
#X obj 447 -219 bng 15 250 50 0 empty empty form_new_organism 17 7
0 10 -262144 -1 -1;
#X obj 447 -188 delay 5;
#X obj 1188 -147 bng 15 250 50 0 empty empty empty 17 7 0 10 -262144
-1 -1;
#X obj 1188 -177 until;
#X msg 1188 -198 100;
#X obj 1215 -90 + 1;
#X obj 1188 -90 int;
#X obj 590 -36 random 4;
#X obj 1188 -64 tabread organism;
#X obj 1188 -37 + 1;
#X obj 1188 -5 mod;
#X floatatom 1253 -21 5 0 0 0 - - -;
#X obj 1253 -42 r scale_notes;
#X obj 1188 25 ==;
#X floatatom 1254 9 5 0 0 1 #factor1 - -;
#X obj 1188 52 route 1;
#X msg 1206 -119 0;
#X obj 1215 109 + 1;
#X obj 1188 109 int;
#X msg 1206 80 0;
#X floatatom 1188 140 5 0 0 0 - - -;
#X obj 1249 -179 bng 15 250 50 0 empty empty empty 17 7 0 10 -262144
-1 -1;
#X obj 1201 -279 bng 15 250 50 0 empty empty count_centers 17 7 0 10
-262144 -1 -1;
#X obj 1256 57 ==;
#X floatatom 1322 41 5 0 0 1 #factor2 - -;
#X obj 1256 84 route 1;
#X obj 1283 141 + 1;
#X obj 1256 141 int;
#X msg 1274 112 0;
#X floatatom 1256 172 5 0 0 0 - - -;
#X obj 1330 92 ==;
#X floatatom 1396 76 5 0 0 1 toonika - -;
#X obj 1330 119 route 1;
#X obj 1357 176 + 1;
#X obj 1330 176 int;
#X msg 1348 147 0;
#X floatatom 1330 202 5 0 0 0 - - -;
#X obj 769 54 bng 15 250 50 0 empty empty evolve 17 7 0 10 -262144
-1 -1;
#X obj 769 145 until;
#X msg 769 124 100;
#X obj 769 93 delay 5;
#X obj 769 172 bng 15 250 50 0 empty empty empty 17 7 0 10 -262144
-1 -1;
#X obj 796 229 + 1;
#X obj 769 229 int;
#X obj 769 258 tabread organism;
#X msg 787 200 0;
#X obj 819 93 bng 15 250 50 0 empty empty empty 17 7 0 10 -262144 -1
-1;
#X floatatom 870 690 5 0 0 0 - - -;
#X floatatom 869 246 5 0 0 0 - - -;
#X obj 769 496 +;
#X obj 1066 523 random 40;
#X floatatom 141 297 5 0 0 1 mutation_amount - -;
#X obj 1066 544 -;
#X obj 1128 502 * 2;
#X floatatom 1027 561 5 0 0 0 - - -;
#X obj 1066 503 bng 15 250 50 0 empty empty empty 17 7 0 10 -262144
-1 -1;
#X obj 1128 523 + 1;
#X obj 37 -60 tab_max_index organism;
#X obj 34 5 tab_min_index organism;
#X obj 40 -82 bng 15 250 50 0 empty empty empty 17 7 0 10 -262144 -1
-1;
#X obj 37 -14 bng 15 250 50 0 empty empty empty 17 7 0 10 -262144 -1
-1;
#X obj 1012 390 mod;
#X floatatom 1027 371 5 0 0 0 - - -;
#X obj 1027 350 r scale_notes;
#X obj 990 418 ==;
#X floatatom 478 427 2 0 0 0 A - -;
#X obj 1017 418 ==;
#X floatatom 493 427 2 0 0 2 B - -;
#X obj 1042 419 ==;
#X floatatom 508 427 2 0 0 1 C - -;
#X obj 990 445 ||;
#X obj 1027 462 ||;
#X obj 771 714 tabwrite organism;
#X obj 1027 483 == 0;
#X msg 1027 504 0;
#X obj 987 275 != 0;
#X obj 987 300 tgl 15 0 empty empty empty 17 7 0 10 -262144 -1 -1 1
1;
#X obj 769 315 spigot 1;
#X floatatom 769 402 5 0 0 0 - - -;
#X obj 869 315 spigot 1;
#X obj 1066 479 route 1;
#X obj 857 2 tabread organism;
#X msg 857 -20 0;
#X floatatom 909 212 5 0 0 0 - - -;
#X obj 857 47 moses;
#X floatatom 120 384 5 0 0 1 up_limit - -;
#X floatatom 857 73 5 0 0 0 - - -;
#X obj 857 95 moses;
#X floatatom 119 404 5 0 0 1 bottom_limit - -;
#X floatatom 884 115 5 0 0 0 - - -;
#X obj 909 189 - 50;
#X floatatom 929 167 5 0 0 0 - - -;
#X obj 857 24 - 1;
#X obj 1012 332 - 1;
#X floatatom 119 423 5 0 0 1 octave_offset - -;
#X obj 929 146 * 22;
#X obj 1413 276 == 0;
#X obj 1413 306 route 1;
#X obj 886 -211 int;
#X obj 912 -211 + 1;
#X obj 1414 340 random 22;
#X obj 886 -167 mod;
#X obj 886 -147 == 0;
#X obj 886 -124 route 1;
#X floatatom 475 379 5 0 0 0 factorization_cycle_length - -;
#X msg 595 375 128;
#X obj 1345 279 == 0;
#X obj 1345 309 route 1;
#X obj 1346 338 random 22;
#X obj 1290 281 == 0;
#X obj 1290 311 route 1;
#X obj 1288 335 random 22;
#X obj 1473 243 r scale_notes;
#X obj 770 -266 mod;
#X obj 770 -246 == 0;
#X obj 770 -223 route 1;
#X floatatom 470 282 5 0 0 0 reset_cycle_length - -;
#X msg 712 161 1024;
#X obj 590 -15 + 2;
#X floatatom 470 320 5 0 0 0 step_min - -;
#X obj 700 631 clip 0 100;
#X obj 950 102 r scale_notes;
#X obj 797 631 clip 1 100;
#X obj 141 316 tgl 15 0 empty empty clip_gaps 17 7 0 10 -262144 -1
-1 1 1;
#X obj 700 609 spigot 1;
#X obj 797 608 spigot 1;
#X obj 745 588 == 0;
#X text 685 292 Factors;
#X obj 886 -100 spigot 1;
#X obj 378 365 tgl 15 0 empty empty factorization_change 17 7 0 10
-262144 -1 -1 1 1;
#X floatatom 470 301 5 0 0 0 init_mutation_wideness - -;
#X obj 500 -25 * 2;
#X obj 1213 226 spigot 1;
#X obj 1279 230 spigot 1;
#X obj 1346 229 spigot 1;
#X obj 1482 188 tgl 15 0 empty empty empty 17 7 0 10 -262144 -1 -1
1 1;
#X msg 1314 -165 0;
#X obj 1187 -228 delay 5;
#X obj 1256 -230 delay 15;
#X msg 1504 33 1;
#X obj 1527 70 delay 1;
#X obj 1529 94 bng 15 250 50 0 empty empty empty 17 7 0 10 -262144
-1 -1;
#X obj 511 380 bng 15 250 50 0 empty empty 128 17 7 0 10 -262144 -1
-1;
#X obj 504 283 bng 15 250 50 0 empty empty 1024 17 7 0 10 -262144 -1
-1;
#X obj 765 -129 r metro;
#X obj 124 121 cnv 15 400 140 empty empty empty 20 12 0 14 -83525 -66577
0;
#N canvas 0 0 450 300 (subpatch) 0;
#X array organism 100 float 3;
#A 0 21 0 0 0 56 0 0 0 1 0 0 0 14 0 0 0 20 0 0 0 0 29 0 0 0 37 0 0
56 0 0 0 63 0 0 64 0 0 15 0 0 46 0 31 0 14 0 70 0 4 0 0 0 0 59 0 0
0 35 0 5 0 90 0 0 0 0 81 0 0 0 0 68 0 0 0 14 0 65 0 0 13 0 0 0 0 71
0 0 0 0 32 0 24 0 18 0 4 0 4;
#X coords 0 100 99 0 400 140 1 0 0;
#X restore 124 120 graph;
#X obj 413 266 tgl 15 0 empty empty reset_change 17 7 0 10 -262144
-1 -1 1 1;
#X obj 620 -216 spigot 1;
#X floatatom 953 651 5 0 0 1 to_seed - -;
#X obj 953 679 tabwrite muisti1;
#X msg 1062 677 0;
#N canvas 0 0 450 300 (subpatch) 0;
#X array muisti1 1 float 3;
#A 0 2;
#X coords 0 1 1 -1 100 40 1 0 0;
#X restore 1403 589 graph;
#X text 119 367 Seeding;
#X text 474 399 Factors;
#X text 140 280 Mutation;
#X floatatom 470 338 5 0 0 0 step_+max - -;
#X msg 310 -104 4;
#X msg 310 -74 2;
#X msg 353 -83 25;
#X obj 298 -205 loadbang;
#X msg 248 -102 5;
#X obj 352 -146 bng 15 250 50 0 empty empty empty 17 7 0 10 -262144
-1 -1;
#X obj 199 284 bng 15 250 50 0 empty empty trigger 17 7 0 10 -262144
-1 -1;
#X obj 237 -1 s mutationchange;
#X connect 2 0 1 1;
#X connect 3 0 8 1;
#X connect 4 0 8 0;
#X connect 4 0 41 0;
#X connect 5 0 10 0;
#X connect 6 0 1 0;
#X connect 7 0 5 0;
#X connect 7 0 4 0;
#X connect 8 0 3 0;
#X connect 8 0 2 0;
#X connect 9 0 8 0;
#X connect 10 0 6 0;
#X connect 23 0 22 0;
#X connect 25 0 24 0;
#X connect 29 0 30 0;
#X connect 30 0 26 0;
#X connect 30 1 27 0;
#X connect 31 0 7 0;
#X connect 32 0 31 0;
#X connect 33 0 9 0;
#X connect 33 0 11 0;
#X connect 34 0 33 0;
#X connect 34 0 35 0;
#X connect 34 0 198 0;
#X connect 35 0 32 0;
#X connect 36 0 40 0;
#X connect 37 0 36 0;
#X connect 38 0 37 0;
#X connect 39 0 40 1;
#X connect 40 0 39 0;
#X connect 40 0 42 0;
#X connect 41 0 152 0;
#X connect 42 0 43 0;
#X connect 43 0 44 0;
#X connect 44 0 47 0;
#X connect 44 0 57 0;
#X connect 44 0 64 0;
#X connect 45 0 44 1;
#X connect 46 0 45 0;
#X connect 47 0 49 0;
#X connect 48 0 47 1;
#X connect 49 0 52 0;
#X connect 50 0 40 0;
#X connect 51 0 52 1;
#X connect 52 0 51 0;
#X connect 52 0 54 0;
#X connect 53 0 52 0;
#X connect 54 0 166 0;
#X connect 55 0 50 0;
#X connect 55 0 53 0;
#X connect 55 0 62 0;
#X connect 55 0 69 0;
#X connect 55 0 170 0;
#X connect 56 0 55 0;
#X connect 56 0 171 0;
#X connect 56 0 172 0;
#X connect 57 0 59 0;
#X connect 58 0 57 1;
#X connect 59 0 61 0;
#X connect 60 0 61 1;
#X connect 61 0 60 0;
#X connect 61 0 63 0;
#X connect 62 0 61 0;
#X connect 63 0 167 0;
#X connect 64 0 66 0;
#X connect 65 0 64 1;
#X connect 66 0 68 0;
#X connect 67 0 68 1;
#X connect 68 0 67 0;
#X connect 68 0 70 0;
#X connect 69 0 68 0;
#X connect 70 0 168 0;
#X connect 71 0 74 0;
#X connect 71 0 80 0;
#X connect 72 0 75 0;
#X connect 73 0 72 0;
#X connect 74 0 73 0;
#X connect 75 0 77 0;
#X connect 76 0 77 1;
#X connect 77 0 76 0;
#X connect 77 0 78 0;
#X connect 77 0 82 0;
#X connect 78 0 109 0;
#X connect 78 0 111 0;
#X connect 79 0 77 0;
#X connect 80 0 79 0;
#X connect 81 0 106 1;
#X connect 82 0 113 0;
#X connect 83 0 158 0;
#X connect 83 0 159 0;
#X connect 84 0 86 0;
#X connect 85 0 87 0;
#X connect 85 0 86 1;
#X connect 86 0 88 0;
#X connect 87 0 90 0;
#X connect 88 0 83 1;
#X connect 89 0 84 0;
#X connect 90 0 84 1;
#X connect 91 0 12 0;
#X connect 91 1 13 0;
#X connect 91 2 14 0;
#X connect 92 0 17 0;
#X connect 92 1 18 0;
#X connect 92 2 19 0;
#X connect 93 0 91 0;
#X connect 94 0 92 0;
#X connect 95 0 98 0;
#X connect 95 0 100 0;
#X connect 95 0 102 0;
#X connect 96 0 95 1;
#X connect 97 0 96 0;
#X connect 98 0 104 0;
#X connect 99 0 98 1;
#X connect 99 0 48 0;
#X connect 100 0 104 1;
#X connect 101 0 100 1;
#X connect 101 0 58 0;
#X connect 102 0 105 1;
#X connect 103 0 102 1;
#X connect 103 0 65 0;
#X connect 104 0 105 0;
#X connect 105 0 107 0;
#X connect 105 0 114 0;
#X connect 107 0 108 0;
#X connect 108 0 88 0;
#X connect 109 0 110 0;
#X connect 110 0 111 1;
#X connect 110 0 113 1;
#X connect 111 0 112 0;
#X connect 111 0 127 0;
#X connect 112 0 83 0;
#X connect 113 0 81 0;
#X connect 114 0 89 0;
#X connect 115 0 126 0;
#X connect 116 0 115 0;
#X connect 117 0 183 0;
#X connect 118 0 120 0;
#X connect 119 0 118 1;
#X connect 120 0 121 0;
#X connect 121 1 123 0;
#X connect 122 0 121 1;
#X connect 123 0 124 0;
#X connect 124 0 117 0;
#X connect 125 0 124 1;
#X connect 126 0 118 0;
#X connect 127 0 95 0;
#X connect 128 0 129 0;
#X connect 129 0 125 0;
#X connect 130 0 131 0;
#X connect 131 0 134 0;
#X connect 132 0 133 0;
#X connect 132 0 135 0;
#X connect 132 0 147 0;
#X connect 133 0 132 1;
#X connect 134 0 103 0;
#X connect 135 0 136 0;
#X connect 136 0 137 0;
#X connect 137 0 162 0;
#X connect 138 0 135 1;
#X connect 139 0 138 0;
#X connect 140 0 141 0;
#X connect 141 0 142 0;
#X connect 142 0 101 0;
#X connect 143 0 144 0;
#X connect 144 0 145 0;
#X connect 145 0 99 0;
#X connect 146 0 145 1;
#X connect 146 0 142 1;
#X connect 146 0 134 1;
#X connect 147 0 148 0;
#X connect 148 0 149 0;
#X connect 149 0 182 0;
#X connect 150 0 147 1;
#X connect 151 0 150 0;
#X connect 152 0 3 1;
#X connect 153 0 152 1;
#X connect 154 0 106 0;
#X connect 155 0 129 1;
#X connect 156 0 106 0;
#X connect 157 0 159 1;
#X connect 157 0 160 0;
#X connect 158 0 154 0;
#X connect 159 0 156 0;
#X connect 160 0 158 1;
#X connect 162 0 56 0;
#X connect 163 0 162 1;
#X connect 164 0 165 0;
#X connect 164 0 6 1;
#X connect 165 0 10 1;
#X connect 166 0 143 0;
#X connect 167 0 140 0;
#X connect 168 0 130 0;
#X connect 169 0 168 1;
#X connect 169 0 167 1;
#X connect 169 0 166 1;
#X connect 170 0 169 0;
#X connect 171 0 38 0;
#X connect 172 0 173 0;
#X connect 173 0 169 0;
#X connect 173 0 174 0;
#X connect 174 0 175 0;
#X connect 175 0 70 0;
#X connect 175 0 63 0;
#X connect 175 0 54 0;
#X connect 176 0 139 0;
#X connect 177 0 151 0;
#X connect 178 0 71 0;
#X connect 178 0 116 0;
#X connect 178 0 132 0;
#X connect 181 0 182 1;
#X connect 182 0 34 0;
#X connect 183 0 185 0;
#X connect 183 0 184 0;
#X connect 185 0 184 1;
#X connect 191 0 190 0;
#X connect 192 0 153 0;
#X connect 193 0 164 0;
#X connect 194 0 195 0;
#X connect 194 0 191 0;
#X connect 194 0 193 0;
#X connect 194 0 192 0;
#X connect 194 0 196 0;
#X connect 195 0 85 0;
#X connect 196 0 177 0;
#X connect 196 0 176 0;
#X connect 197 0 34 0;
#X coords 0 -1 1 1 450 350 1 100 100;
#X restore 1 -8 pd evolver;
