#N canvas 1 83 438 287 10;
#N canvas 0 83 1680 967 imitation 0;
#X obj 100 100 cnv 15 430 270 empty empty empty 20 12 0 14 -203945
-66577 0;
#N canvas 0 0 450 300 (subpatch) 0;
#X array variate 16 float 3;
#A 0 0 0 0 0 0 0 0 0 0 0 0 0 0 0 0 0;
#X coords 0 0 16 14 200 60 1 0 0;
#X restore 838 880 graph;
#N canvas 0 0 450 300 (subpatch) 0;
#X array subject1 16 float 3;
#A 0 0 0 0 0 0 0 0 0 0 0 0 0 0 0 0 0;
#X coords 0 0 16 14 150 60 1 0 0;
#X restore 109 120 graph;
#X obj 226 -474 int;
#X obj 110 -660 bng 15 250 50 0 empty empty empty 17 7 0 10 -262144
-1 -1;
#X msg -707 731 0;
#X obj -707 752 tabread subject1;
#X floatatom -707 779 5 0 0 0 - - -;
#X floatatom -707 827 3 0 0 0 - - -;
#X floatatom -676 827 3 0 0 0 - - -;
#X floatatom -644 827 3 0 0 0 - - -;
#X obj -707 802 demux 1 2 3;
#X obj -879 741 vradio 18 1 0 3 empty empty empty 0 -8 0 10 -262144
-1 -1 2;
#X obj -598 751 tabread subject1;
#X floatatom -598 778 5 0 0 0 - - -;
#X floatatom -598 826 3 0 0 0 - - -;
#X floatatom -567 826 3 0 0 0 - - -;
#X floatatom -535 826 3 0 0 0 - - -;
#X obj -598 801 demux 1 2 3;
#X obj -493 752 tabread subject1;
#X floatatom -493 779 5 0 0 0 - - -;
#X floatatom -501 827 3 0 0 0 - - -;
#X floatatom -462 827 3 0 0 0 - - -;
#X floatatom -430 827 3 0 0 0 - - -;
#X obj -493 802 demux 1 2 3;
#X obj -389 751 tabread subject1;
#X floatatom -389 778 5 0 0 0 - - -;
#X floatatom -389 823 3 0 0 0 - - -;
#X floatatom -358 826 3 0 0 0 - - -;
#X floatatom -326 826 3 0 0 0 - - -;
#X obj -389 801 demux 1 2 3;
#X obj -284 751 tabread subject1;
#X floatatom -284 778 5 0 0 0 - - -;
#X floatatom -289 825 3 0 0 0 - - -;
#X floatatom -253 826 3 0 0 0 - - -;
#X floatatom -221 826 3 0 0 0 - - -;
#X obj -284 801 demux 1 2 3;
#X obj -179 750 tabread subject1;
#X floatatom -179 777 5 0 0 0 - - -;
#X floatatom -184 812 3 0 0 0 - - -;
#X floatatom -148 825 3 0 0 0 - - -;
#X floatatom -116 825 3 0 0 0 - - -;
#X obj -179 800 demux 1 2 3;
#X obj -74 751 tabread subject1;
#X floatatom -74 778 5 0 0 0 - - -;
#X floatatom -73 826 3 0 0 0 - - -;
#X floatatom -43 826 3 0 0 0 - - -;
#X floatatom -11 826 3 0 0 0 - - -;
#X obj -74 801 demux 1 2 3;
#X obj 31 750 tabread subject1;
#X floatatom 31 777 5 0 0 0 - - -;
#X floatatom 31 823 3 0 0 0 - - -;
#X floatatom 62 825 3 0 0 0 - - -;
#X floatatom 94 826 3 0 0 0 - - -;
#X obj 31 800 demux 1 2 3;
#X obj 134 752 tabread subject1;
#X floatatom 134 779 5 0 0 0 - - -;
#X floatatom 134 827 3 0 0 0 - - -;
#X floatatom 165 827 3 0 0 0 - - -;
#X floatatom 197 827 3 0 0 0 - - -;
#X obj 134 802 demux 1 2 3;
#X obj 240 751 tabread subject1;
#X floatatom 240 778 5 0 0 0 - - -;
#X floatatom 240 826 3 0 0 0 - - -;
#X floatatom 271 826 3 0 0 0 - - -;
#X floatatom 303 826 3 0 0 0 - - -;
#X obj 240 801 demux 1 2 3;
#X obj 343 752 tabread subject1;
#X floatatom 343 779 5 0 0 0 - - -;
#X floatatom 343 827 3 0 0 0 - - -;
#X floatatom 374 827 3 0 0 0 - - -;
#X floatatom 406 827 3 0 0 0 - - -;
#X obj 343 802 demux 1 2 3;
#X obj 449 752 tabread subject1;
#X floatatom 449 779 5 0 0 0 - - -;
#X floatatom 449 827 3 0 0 0 - - -;
#X floatatom 480 827 3 0 0 0 - - -;
#X floatatom 512 827 3 0 0 0 - - -;
#X obj 449 802 demux 1 2 3;
#X obj 553 752 tabread subject1;
#X floatatom 553 779 5 0 0 0 - - -;
#X floatatom 553 827 3 0 0 0 - - -;
#X floatatom 586 823 3 0 0 0 - - -;
#X floatatom 616 827 3 0 0 0 - - -;
#X obj 553 802 demux 1 2 3;
#X obj 657 751 tabread subject1;
#X floatatom 657 778 5 0 0 0 - - -;
#X floatatom 657 826 3 0 0 0 - - -;
#X floatatom 688 826 3 0 0 0 - - -;
#X floatatom 720 826 3 0 0 0 - - -;
#X obj 657 801 demux 1 2 3;
#X obj 761 752 tabread subject1;
#X floatatom 761 779 5 0 0 0 - - -;
#X floatatom 761 827 3 0 0 0 - - -;
#X floatatom 792 827 3 0 0 0 - - -;
#X floatatom 824 827 3 0 0 0 - - -;
#X obj 761 802 demux 1 2 3;
#X obj 866 751 tabread subject1;
#X floatatom 866 778 5 0 0 0 - - -;
#X floatatom 866 826 3 0 0 0 - - -;
#X floatatom 897 826 3 0 0 0 - - -;
#X floatatom 929 826 3 0 0 0 - - -;
#X obj 866 801 demux 1 2 3;
#X msg -598 730 1;
#X msg -493 731 2;
#X msg -389 730 3;
#X msg -284 730 4;
#X msg -179 729 5;
#X msg -74 730 6;
#X msg 31 729 7;
#X msg 134 731 8;
#X msg 240 730 9;
#X msg 343 731 10;
#X msg 449 731 11;
#X msg 553 731 12;
#X msg 657 730 13;
#X msg 761 731 14;
#X obj -715 919 tabwrite variate;
#X floatatom -715 903 5 0 0 0 - - -;
#X obj -584 920 tabwrite variate;
#X floatatom -585 900 5 0 0 0 - - -;
#X obj -454 922 tabwrite variate;
#X floatatom -454 905 5 0 0 0 - - -;
#X obj -323 922 tabwrite variate;
#X floatatom -323 906 5 0 0 0 - - -;
#X obj -190 925 tabwrite variate;
#X floatatom -190 909 5 0 0 0 - - -;
#X obj -59 926 tabwrite variate;
#X floatatom -59 910 5 0 0 0 - - -;
#X obj 71 927 tabwrite variate;
#X floatatom 71 911 5 0 0 0 - - -;
#X obj 204 928 tabwrite variate;
#X floatatom 204 904 5 0 0 0 - - -;
#X obj 854 976 tabwrite variate;
#X floatatom 854 960 5 0 0 0 - - -;
#X obj -64 968 tabwrite variate;
#X floatatom -64 952 5 0 0 0 - - -;
#X obj 66 969 tabwrite variate;
#X floatatom 66 953 5 0 0 0 - - -;
#X obj 197 970 tabwrite variate;
#X floatatom 197 954 5 0 0 0 - - -;
#X obj 330 973 tabwrite variate;
#X floatatom 330 957 5 0 0 0 - - -;
#X obj 461 974 tabwrite variate;
#X floatatom 461 958 5 0 0 0 - - -;
#X obj 591 975 tabwrite variate;
#X floatatom 591 959 5 0 0 0 - - -;
#X obj 722 976 tabwrite variate;
#X floatatom 722 960 5 0 0 0 - - -;
#X msg -614 919 0;
#X msg -483 920 1;
#X msg -353 921 2;
#X msg -222 922 3;
#X msg -89 925 4;
#X msg 42 926 5;
#X msg 172 927 6;
#X msg 305 928 7;
#X msg 37 968 8;
#X msg 167 969 9;
#X msg 298 970 10;
#X msg 431 972 11;
#X msg 562 974 12;
#X msg 692 975 13;
#X msg 823 976 14;
#X msg 958 976 15;
#X msg 866 730 15;
#X obj 75 651 bng 15 250 50 0 empty empty empty 17 7 0 10 -262144 -1
-1;
#X obj 945 694 arraycopy subject1;
#X msg 945 673 copy variate;
#X obj 945 652 delay 1;
#X obj 225 -454 mod 16;
#X floatatom 226 -413 5 0 0 0 - - -;
#X obj 251 -474 + 1;
#X floatatom 226 -200 5 0 0 0 - - -;
#X obj 287 -307 demux;
#X floatatom 314 -328 5 0 0 0 - - -;
#X obj 314 -349 mod 2;
#X obj 314 -369 int;
#X obj 340 -369 + 1;
#X obj 314 -398 bng 15 250 50 0 empty empty empty 17 7 0 10 -262144
-1 -1;
#X floatatom 287 -287 3 0 0 0 - - -;
#X floatatom 315 -287 5 0 0 0 - - -;
#X obj 287 -266 !=;
#X floatatom 287 -244 5 0 0 0 - - -;
#X obj 226 -228 spigot 1;
#X obj 276 133 vradio 15 1 0 15 empty empty empty 0 -8 0 10 -191850
-1 -1 0;
#X obj 291 133 vradio 15 1 0 15 empty empty empty 0 -8 0 10 -191850
-1 -1 0;
#X obj 306 133 vradio 15 1 0 15 empty empty empty 0 -8 0 10 -191850
-1 -1 0;
#X obj 321 133 vradio 15 1 0 15 empty empty empty 0 -8 0 10 -191850
-1 -1 0;
#X obj 338 133 vradio 15 1 0 15 empty empty empty 0 -8 0 10 -191530
-1 -1 0;
#X obj 353 133 vradio 15 1 0 15 empty empty empty 0 -8 0 10 -191530
-1 -1 0;
#X obj 368 133 vradio 15 1 0 15 empty empty empty 0 -8 0 10 -191530
-1 -1 0;
#X obj 383 133 vradio 15 1 0 15 empty empty empty 0 -8 0 10 -191530
-1 -1 0;
#X obj 400 133 vradio 15 1 0 15 empty empty empty 0 -8 0 10 -191850
-1 -1 0;
#X obj 415 133 vradio 15 1 0 15 empty empty empty 0 -8 0 10 -191850
-1 -1 0;
#X obj 430 133 vradio 15 1 0 15 empty empty empty 0 -8 0 10 -191850
-1 -1 0;
#X obj 445 133 vradio 15 1 0 15 empty empty empty 0 -8 0 10 -191850
-1 -1 0;
#X obj 462 133 vradio 15 1 0 15 empty empty empty 0 -8 0 10 -191530
-1 -1 0;
#X obj 477 133 vradio 15 1 0 15 empty empty empty 0 -8 0 10 -191530
-1 -1 0;
#X obj 492 133 vradio 15 1 0 15 empty empty empty 0 -8 0 10 -191530
-1 -1 0;
#X obj 507 133 vradio 15 1 0 15 empty empty empty 0 -8 0 10 -191530
-1 -1 0;
#X floatatom 190 414 5 0 0 0 - - -;
#X msg 293 430 0;
#X floatatom 190 450 5 0 0 0 - - -;
#X msg 293 466 1;
#X floatatom 190 486 5 0 0 0 - - -;
#X msg 293 502 2;
#X floatatom 190 522 5 0 0 0 - - -;
#X floatatom 323 415 5 0 0 0 - - -;
#X floatatom 323 451 5 0 0 0 - - -;
#X floatatom 323 487 5 0 0 0 - - -;
#X floatatom 323 523 5 0 0 0 - - -;
#X floatatom 454 416 5 0 0 0 - - -;
#X floatatom 454 452 5 0 0 0 - - -;
#X floatatom 454 488 5 0 0 0 - - -;
#X floatatom 454 524 5 0 0 0 - - -;
#X floatatom 587 417 5 0 0 0 - - -;
#X floatatom 587 453 5 0 0 0 - - -;
#X floatatom 587 489 5 0 0 0 - - -;
#X floatatom 587 525 5 0 0 0 - - -;
#X msg 293 538 3;
#X msg 426 431 4;
#X msg 426 467 5;
#X msg 426 503 6;
#X msg 426 539 7;
#X msg 557 432 8;
#X msg 557 468 9;
#X msg 557 504 10;
#X msg 557 540 11;
#X msg 690 433 12;
#X msg 690 470 13;
#X msg 690 505 14;
#X msg 689 541 15;
#X obj 416 108 bng 15 250 50 0 empty empty resend 17 7 0 10 -262144
-1 -1;
#X msg 554 116 15;
#X obj 190 430 tabwrite subject1;
#X obj 190 466 tabwrite subject1;
#X obj 190 502 tabwrite subject1;
#X obj 190 538 tabwrite subject1;
#X obj 323 431 tabwrite subject1;
#X obj 323 467 tabwrite subject1;
#X obj 323 503 tabwrite subject1;
#X obj 323 540 tabwrite subject1;
#X obj 454 432 tabwrite subject1;
#X obj 454 468 tabwrite subject1;
#X obj 454 504 tabwrite subject1;
#X obj 454 540 tabwrite subject1;
#X obj 587 433 tabwrite subject1;
#X obj 588 469 tabwrite subject1;
#X obj 587 505 tabwrite subject1;
#X obj 587 541 tabwrite subject1;
#X floatatom -858 741 3 0 100 1 /_100 - -;
#X floatatom -858 759 3 0 100 1 /_100 - -;
#X floatatom -858 777 3 0 100 1 /_100 - -;
#X obj -879 720 bng 18 250 50 0 empty empty empty 17 7 0 10 -262144
-1 -1;
#X floatatom -858 720 3 0 100 1 /_100 - -;
#X text -930 718 Original;
#X text -957 736 Augmentation;
#X text -948 756 Diminution;
#X text -951 776 Retroversio;
#X obj -946 617 bng 15 250 50 0 empty empty empty 17 7 0 10 -262144
-1 -1;
#X obj -909 618 bng 15 250 50 0 empty empty empty 17 7 0 10 -262144
-1 -1;
#X obj -879 619 bng 15 250 50 0 empty empty empty 17 7 0 10 -262144
-1 -1;
#X obj -858 620 bng 15 250 50 0 empty empty empty 17 7 0 10 -262144
-1 -1;
#X msg -908 648 0;
#X msg -875 651 1;
#X msg -845 652 2;
#X obj -939 499 route 0 1 2 3 4;
#X obj -939 521 bng 15 250 50 0 empty empty empty 17 7 0 10 -262144
-1 -1;
#X obj -922 521 bng 15 250 50 0 empty empty empty 17 7 0 10 -262144
-1 -1;
#X obj -905 521 bng 15 250 50 0 empty empty empty 17 7 0 10 -262144
-1 -1;
#X floatatom -942 543 3 1 5 0 - - -;
#X floatatom -920 543 3 1 5 0 - - -;
#X floatatom -898 543 3 1 5 0 - - -;
#X floatatom -939 472 5 0 0 0 - - -;
#X msg -914 203 0;
#X obj -903 235 delay 1;
#X msg -901 258 1;
#X obj -883 284 delay 1;
#X floatatom -942 569 5 0 0 0 - - -;
#X msg -881 307 2;
#X obj -868 332 delay 1;
#X msg -866 355 3;
#X obj -863 380 delay 1;
#X msg -861 403 4;
#X obj -889 521 bng 15 250 50 0 empty empty empty 17 7 0 10 -262144
-1 -1;
#X obj -872 521 bng 15 250 50 0 empty empty empty 17 7 0 10 -262144
-1 -1;
#X floatatom -876 543 3 1 5 0 - - -;
#X floatatom -854 543 3 1 5 0 - - -;
#X obj -828 465 unpack 1 2 3 4 5;
#X obj 180 243 vradio 15 1 0 5 empty empty empty 0 -8 0 10 -154395
-1 -1 0;
#X obj -803 268 + 1;
#X obj 195 243 vradio 15 1 0 5 empty empty empty 0 -8 0 10 -154139
-1 -1 1;
#X obj 210 243 vradio 15 1 0 5 empty empty empty 0 -8 0 10 -154395
-1 -1 1;
#X obj 225 243 vradio 15 1 0 5 empty empty empty 0 -8 0 10 -154139
-1 -1 1;
#X obj 240 243 vradio 15 1 0 5 empty empty empty 0 -8 0 10 -154395
-1 -1 1;
#X obj -776 268 + 1;
#X obj -747 268 + 1;
#X obj -718 268 + 1;
#X obj -688 268 + 1;
#X floatatom -798 290 2 0 0 0 - - -;
#X floatatom -774 290 2 0 0 0 - - -;
#X floatatom -743 289 2 0 0 0 - - -;
#X floatatom -714 289 2 0 0 0 - - -;
#X floatatom -685 287 2 0 0 0 - - -;
#X obj -784 312 pack 1 2 3 4 5;
#X text 130 242 Original;
#X text 103 271 Augmentation;
#X text 114 287 Diminution;
#X text 110 302 Retroversio;
#X text 149 256 Pass;
#X obj -928 176 bng 15 250 50 0 empty empty empty 17 7 0 10 -262144
-1 -1;
#X msg -141 14 0;
#X obj 128 218 bng 15 250 50 0 empty empty reset 17 7 0 10 -262144
-1 -1;
#X obj -137 -50 bng 15 250 50 0 empty empty empty 17 7 0 10 -262144
-1 -1;
#X obj -143 -102 loadbang;
#X obj 180 203 vradio 8 1 0 5 empty empty empty 0 -8 0 10 -133915 -1
-1 0;
#X obj 187 203 vradio 8 1 0 5 empty empty empty 0 -8 0 10 -145883 -1
-1 0;
#X floatatom -206 -436 5 0 0 0 - - -;
#X floatatom -207 -419 5 0 0 0 - - -;
#X obj 195 203 vradio 8 1 0 5 empty empty empty 0 -8 0 10 -133915 -1
-1 0;
#X obj 202 203 vradio 8 1 0 5 empty empty empty 0 -8 0 10 -145883 -1
-1 0;
#X floatatom -147 -434 5 0 0 0 - - -;
#X floatatom -148 -415 5 0 0 0 - - -;
#X obj 210 203 vradio 8 1 0 5 empty empty empty 0 -8 0 10 -133915 -1
-1 0;
#X obj 217 203 vradio 8 1 0 5 empty empty empty 0 -8 0 10 -145883 -1
-1 0;
#X floatatom -90 -435 5 0 0 0 - - -;
#X floatatom -91 -416 5 0 0 0 - - -;
#X obj 225 203 vradio 8 1 0 5 empty empty empty 0 -8 0 10 -133915 -1
-1 0;
#X obj 232 203 vradio 8 1 0 5 empty empty empty 0 -8 0 10 -145883 -1
-1 0;
#X floatatom -28 -437 5 0 0 0 - - -;
#X floatatom -29 -418 5 0 0 0 - - -;
#X obj 240 203 vradio 8 1 0 5 empty empty empty 0 -8 0 10 -133915 -1
-1 0;
#X obj 247 203 vradio 8 1 0 5 empty empty empty 0 -8 0 10 -145883 -1
-1 0;
#X floatatom 32 -438 5 0 0 0 - - -;
#X floatatom 31 -419 5 0 0 0 - - -;
#X obj -685 305 bng 15 250 50 0 empty empty empty 17 7 0 10 -262144
-1 -1;
#X obj -206 -395 random;
#X obj -85 -464 bng 15 250 50 0 empty empty empty 17 7 0 10 -262144
-1 -1;
#X obj -206 -371 +;
#X obj -172 -423 + 1;
#X obj 180 186 tgl 15 0 empty empty empty 17 7 0 10 -262144 -1 -1 0
1;
#X obj -941 594 route 1 2 3 4 5;
#X obj -928 618 bng 15 250 50 0 empty empty empty 17 7 0 10 -262144
-1 -1;
#X obj -148 -393 random;
#X obj -148 -369 +;
#X obj -115 -420 + 1;
#X obj -88 -392 random;
#X obj -88 -368 +;
#X obj -54 -420 + 1;
#X obj -26 -395 random;
#X obj -26 -371 +;
#X obj 8 -423 + 1;
#X obj 30 -396 random;
#X obj 30 -372 +;
#X obj 64 -424 + 1;
#X obj 110 -691 inlet;
#X obj 227 26 outlet;
#X obj 475 108 bng 15 250 50 0 empty empty reset 17 7 0 10 -262144
-1 -1;
#X obj 226 -177 - 14;
#X obj 226 -155 abs;
#X floatatom 226 -134 5 0 0 0 - - -;
#X obj -85 -487 spigot 1;
#X obj -85 -590 int;
#X obj -58 -590 + 1;
#X obj -85 -528 route 1;
#X obj -85 -568 mod;
#X floatatom 198 185 5 16 128 1 freq - -;
#X obj -85 -548 == 0;
#X obj -85 -506 bng 15 250 50 0 empty empty empty 17 7 0 10 -262144
-1 -1;
#X msg -168 6 32;
#X text 217 101 Fugue Imitation Sequencer;
#X floatatom 200 347 4 1 2500 1 length - -;
#X floatatom 178 347 3 0 127 0 vol - -;
#X text 265 236 O;
#X text 265 131 O;
#X text 265 326 2;
#X text 265 311 3;
#X text 265 340 O;
#X obj 133 189 bng 11 250 50 0 empty empty empty 17 7 0 10 -262144
-1 -1;
#X text 265 297 4;
#X text 265 282 5;
#X text 264 266 6;
#X text 264 250 7;
#X text 265 221 2;
#X text 265 206 3;
#X text 265 192 4;
#X text 265 177 5;
#X text 264 161 6;
#X text 264 145 7;
#X obj 144 189 bng 11 250 50 0 empty empty empty 17 7 0 10 -262144
-1 -1;
#X obj 155 189 bng 11 250 50 0 empty empty empty 17 7 0 10 -262144
-1 -1;
#X obj 166 189 bng 11 250 50 0 empty empty empty 17 7 0 10 -262144
-1 -1;
#X msg 669 261 16;
#X msg 697 261 32;
#X msg 724 261 64;
#X msg 751 261 128;
#X floatatom 669 287 5 0 0 0 - - -;
#X obj 296 -675 r stop;
#X msg 293 -645 0;
#X msg -107 15 1;
#X obj 226 -28 makenote;
#X obj 226 -6 pack 0 0;
#X floatatom 226 -58 5 0 0 0 - - -;
#X msg -175 95 127;
#X msg -136 97 150;
#X floatatom 181 321 5 0 256 1 base - -;
#X obj 132 324 bng 11 250 50 0 empty empty empty 17 7 0 10 -262144
-1 -1;
#X obj 143 324 bng 11 250 50 0 empty empty empty 17 7 0 10 -262144
-1 -1;
#X obj 154 324 bng 11 250 50 0 empty empty empty 17 7 0 10 -262144
-1 -1;
#X obj 165 324 bng 11 250 50 0 empty empty empty 17 7 0 10 -262144
-1 -1;
#X floatatom 660 348 5 0 0 0 - - -;
#X msg 660 322 7;
#X msg 688 322 14;
#X msg 715 322 21;
#X msg 742 322 28;
#X obj 226 -108 +;
#X obj 158 -687 r metro;
#X obj 165 -662 bng 15 250 50 0 empty empty empty 17 7 0 10 -262144
-1 -1;
#X obj 226 -381 pipe 7;
#X obj 226 -434 tabread subject1;
#X obj 352 -283 bng 15 250 50 0 empty empty empty 17 7 0 10 -262144
-1 -1;
#N canvas 1681 54 1600 846 tonalwrapper 0;
#X obj 845 474 tabread scaler;
#X obj 826 431 mod;
#X floatatom 789 337 5 0 0 0 - - -;
#X obj 937 122 r scale_notes;
#X obj 788 570 +;
#X obj 773 428 /;
#X obj 773 451 int;
#X obj 777 477 *;
#X obj 873 432 r tuning_notes;
#X floatatom 786 598 5 0 0 0 - - -;
#X floatatom 770 395 5 0 0 0 - - -;
#X floatatom 816 395 5 0 0 0 - - -;
#X obj 854 525 bng 15 250 50 0 empty empty empty 17 7 0 10 -262144
-1 -1;
#X obj 779 85 inlet;
#X obj 929 782 outlet;
#X obj 1022 293 spigot 1;
#X obj 927 292 spigot 1;
#X obj 972 271 != 1;
#X obj 984 211 > 9;
#X connect 0 0 4 0;
#X connect 0 0 12 0;
#X connect 1 0 0 0;
#X connect 2 0 10 0;
#X connect 2 0 11 0;
#X connect 3 0 1 1;
#X connect 3 0 5 1;
#X connect 3 0 18 0;
#X connect 4 0 9 0;
#X connect 5 0 6 0;
#X connect 6 0 7 0;
#X connect 7 0 4 1;
#X connect 8 0 7 1;
#X connect 9 0 14 0;
#X connect 10 0 5 0;
#X connect 11 0 1 0;
#X connect 12 0 10 0;
#X connect 13 0 16 0;
#X connect 13 0 15 0;
#X connect 15 0 14 0;
#X connect 16 0 2 0;
#X connect 17 0 16 1;
#X connect 18 0 17 0;
#X connect 18 0 15 1;
#X restore 224 -86 pd tonalwrapper;
#X connect 3 0 170 0;
#X connect 3 0 172 0;
#X connect 4 0 3 0;
#X connect 4 0 179 0;
#X connect 4 0 363 0;
#X connect 5 0 6 0;
#X connect 6 0 7 0;
#X connect 7 0 11 0;
#X connect 8 0 118 0;
#X connect 8 0 120 0;
#X connect 9 0 118 0;
#X connect 10 0 134 0;
#X connect 11 0 8 0;
#X connect 11 1 9 0;
#X connect 11 2 10 0;
#X connect 12 0 11 1;
#X connect 12 0 18 1;
#X connect 12 0 24 1;
#X connect 12 0 30 1;
#X connect 12 0 36 1;
#X connect 12 0 42 1;
#X connect 12 0 48 1;
#X connect 12 0 54 1;
#X connect 12 0 60 1;
#X connect 12 0 66 1;
#X connect 12 0 72 1;
#X connect 12 0 78 1;
#X connect 12 0 84 1;
#X connect 12 0 90 1;
#X connect 12 0 96 1;
#X connect 12 0 102 1;
#X connect 12 0 166 0;
#X connect 13 0 14 0;
#X connect 14 0 18 0;
#X connect 15 0 122 0;
#X connect 15 0 124 0;
#X connect 17 0 148 0;
#X connect 18 0 15 0;
#X connect 18 1 16 0;
#X connect 18 2 17 0;
#X connect 19 0 20 0;
#X connect 20 0 24 0;
#X connect 21 0 126 0;
#X connect 21 0 128 0;
#X connect 22 0 120 0;
#X connect 23 0 146 0;
#X connect 24 0 21 0;
#X connect 24 1 22 0;
#X connect 24 2 23 0;
#X connect 25 0 26 0;
#X connect 26 0 30 0;
#X connect 27 0 130 0;
#X connect 27 0 132 0;
#X connect 29 0 144 0;
#X connect 30 0 27 0;
#X connect 30 1 28 0;
#X connect 30 2 29 0;
#X connect 31 0 32 0;
#X connect 32 0 36 0;
#X connect 33 0 136 0;
#X connect 33 0 138 0;
#X connect 34 0 122 0;
#X connect 35 0 142 0;
#X connect 36 0 33 0;
#X connect 36 1 34 0;
#X connect 36 2 35 0;
#X connect 37 0 38 0;
#X connect 38 0 42 0;
#X connect 39 0 140 0;
#X connect 39 0 142 0;
#X connect 41 0 140 0;
#X connect 42 0 39 0;
#X connect 42 1 40 0;
#X connect 42 2 41 0;
#X connect 43 0 44 0;
#X connect 44 0 48 0;
#X connect 45 0 144 0;
#X connect 45 0 146 0;
#X connect 46 0 124 0;
#X connect 47 0 138 0;
#X connect 48 0 45 0;
#X connect 48 1 46 0;
#X connect 48 2 47 0;
#X connect 49 0 50 0;
#X connect 50 0 54 0;
#X connect 51 0 148 0;
#X connect 51 0 134 0;
#X connect 53 0 136 0;
#X connect 54 0 51 0;
#X connect 54 1 52 0;
#X connect 54 2 53 0;
#X connect 55 0 56 0;
#X connect 56 0 60 0;
#X connect 58 0 126 0;
#X connect 59 0 132 0;
#X connect 60 0 57 0;
#X connect 60 1 58 0;
#X connect 60 2 59 0;
#X connect 61 0 62 0;
#X connect 62 0 66 0;
#X connect 65 0 130 0;
#X connect 66 0 63 0;
#X connect 66 1 64 0;
#X connect 66 2 65 0;
#X connect 67 0 68 0;
#X connect 68 0 72 0;
#X connect 70 0 128 0;
#X connect 71 0 128 0;
#X connect 72 0 69 0;
#X connect 72 1 70 0;
#X connect 72 2 71 0;
#X connect 73 0 74 0;
#X connect 74 0 78 0;
#X connect 77 0 126 0;
#X connect 78 0 75 0;
#X connect 78 1 76 0;
#X connect 78 2 77 0;
#X connect 79 0 80 0;
#X connect 80 0 84 0;
#X connect 82 0 130 0;
#X connect 83 0 124 0;
#X connect 84 0 81 0;
#X connect 84 1 82 0;
#X connect 84 2 83 0;
#X connect 85 0 86 0;
#X connect 86 0 90 0;
#X connect 89 0 122 0;
#X connect 90 0 87 0;
#X connect 90 1 88 0;
#X connect 90 2 89 0;
#X connect 91 0 92 0;
#X connect 92 0 96 0;
#X connect 94 0 132 0;
#X connect 95 0 120 0;
#X connect 96 0 93 0;
#X connect 96 1 94 0;
#X connect 96 2 95 0;
#X connect 97 0 98 0;
#X connect 98 0 102 0;
#X connect 101 0 118 0;
#X connect 102 0 99 0;
#X connect 102 1 100 0;
#X connect 102 2 101 0;
#X connect 103 0 13 0;
#X connect 104 0 19 0;
#X connect 105 0 25 0;
#X connect 106 0 31 0;
#X connect 107 0 37 0;
#X connect 108 0 43 0;
#X connect 109 0 49 0;
#X connect 110 0 55 0;
#X connect 111 0 61 0;
#X connect 112 0 67 0;
#X connect 113 0 73 0;
#X connect 114 0 79 0;
#X connect 115 0 85 0;
#X connect 116 0 91 0;
#X connect 118 0 117 0;
#X connect 118 0 149 0;
#X connect 120 0 119 0;
#X connect 120 0 150 0;
#X connect 122 0 121 0;
#X connect 122 0 151 0;
#X connect 124 0 123 0;
#X connect 124 0 152 0;
#X connect 126 0 125 0;
#X connect 126 0 153 0;
#X connect 128 0 127 0;
#X connect 128 0 154 0;
#X connect 130 0 129 0;
#X connect 130 0 155 0;
#X connect 132 0 131 0;
#X connect 132 0 156 0;
#X connect 134 0 133 0;
#X connect 134 0 164 0;
#X connect 136 0 135 0;
#X connect 136 0 157 0;
#X connect 138 0 137 0;
#X connect 138 0 158 0;
#X connect 140 0 139 0;
#X connect 140 0 159 0;
#X connect 142 0 141 0;
#X connect 142 0 160 0;
#X connect 144 0 143 0;
#X connect 144 0 161 0;
#X connect 146 0 145 0;
#X connect 146 0 162 0;
#X connect 148 0 147 0;
#X connect 148 0 163 0;
#X connect 149 0 117 1;
#X connect 150 0 119 1;
#X connect 151 0 121 1;
#X connect 152 0 123 1;
#X connect 153 0 125 1;
#X connect 154 0 127 1;
#X connect 155 0 129 1;
#X connect 156 0 131 1;
#X connect 157 0 135 1;
#X connect 158 0 137 1;
#X connect 159 0 139 1;
#X connect 160 0 141 1;
#X connect 161 0 143 1;
#X connect 162 0 145 1;
#X connect 163 0 147 1;
#X connect 164 0 133 1;
#X connect 165 0 97 0;
#X connect 166 0 5 0;
#X connect 166 0 103 0;
#X connect 166 0 104 0;
#X connect 166 0 105 0;
#X connect 166 0 106 0;
#X connect 166 0 108 0;
#X connect 166 0 107 0;
#X connect 166 0 109 0;
#X connect 166 0 110 0;
#X connect 166 0 111 0;
#X connect 166 0 112 0;
#X connect 166 0 113 0;
#X connect 166 0 114 0;
#X connect 166 0 115 0;
#X connect 166 0 116 0;
#X connect 166 0 165 0;
#X connect 166 0 169 0;
#X connect 168 0 167 0;
#X connect 169 0 168 0;
#X connect 170 0 420 0;
#X connect 171 0 174 0;
#X connect 171 0 419 0;
#X connect 172 0 3 1;
#X connect 173 0 359 0;
#X connect 174 0 180 0;
#X connect 174 1 181 0;
#X connect 175 0 174 1;
#X connect 176 0 175 0;
#X connect 177 0 178 0;
#X connect 177 0 176 0;
#X connect 178 0 177 1;
#X connect 179 0 177 0;
#X connect 180 0 182 0;
#X connect 181 0 182 1;
#X connect 181 0 421 0;
#X connect 182 0 183 0;
#X connect 183 0 184 1;
#X connect 184 0 173 0;
#X connect 185 0 201 0;
#X connect 186 0 203 0;
#X connect 187 0 205 0;
#X connect 188 0 207 0;
#X connect 189 0 208 0;
#X connect 190 0 209 0;
#X connect 191 0 210 0;
#X connect 192 0 211 0;
#X connect 193 0 212 0;
#X connect 194 0 213 0;
#X connect 195 0 214 0;
#X connect 196 0 215 0;
#X connect 197 0 216 0;
#X connect 198 0 217 0;
#X connect 199 0 218 0;
#X connect 200 0 219 0;
#X connect 201 0 202 0;
#X connect 201 0 235 0;
#X connect 202 0 235 1;
#X connect 203 0 204 0;
#X connect 203 0 236 0;
#X connect 204 0 236 1;
#X connect 205 0 206 0;
#X connect 205 0 237 0;
#X connect 206 0 237 1;
#X connect 207 0 220 0;
#X connect 207 0 238 0;
#X connect 208 0 221 0;
#X connect 208 0 239 0;
#X connect 209 0 222 0;
#X connect 209 0 240 0;
#X connect 210 0 223 0;
#X connect 210 0 241 0;
#X connect 211 0 224 0;
#X connect 211 0 242 0;
#X connect 212 0 225 0;
#X connect 212 0 243 0;
#X connect 213 0 226 0;
#X connect 213 0 244 0;
#X connect 214 0 227 0;
#X connect 214 0 245 0;
#X connect 215 0 228 0;
#X connect 215 0 246 0;
#X connect 216 0 229 0;
#X connect 216 0 247 0;
#X connect 217 0 230 0;
#X connect 217 0 248 0;
#X connect 218 0 231 0;
#X connect 218 0 249 0;
#X connect 219 0 232 0;
#X connect 219 0 250 0;
#X connect 220 0 238 1;
#X connect 221 0 239 1;
#X connect 222 0 240 1;
#X connect 223 0 241 1;
#X connect 224 0 242 1;
#X connect 225 0 243 1;
#X connect 226 0 244 1;
#X connect 227 0 245 1;
#X connect 228 0 246 1;
#X connect 229 0 247 1;
#X connect 230 0 248 1;
#X connect 231 0 249 1;
#X connect 232 0 250 1;
#X connect 233 0 185 0;
#X connect 233 0 186 0;
#X connect 233 0 187 0;
#X connect 233 0 188 0;
#X connect 233 0 189 0;
#X connect 233 0 190 0;
#X connect 233 0 191 0;
#X connect 233 0 192 0;
#X connect 233 0 193 0;
#X connect 233 0 194 0;
#X connect 233 0 195 0;
#X connect 233 0 196 0;
#X connect 233 0 197 0;
#X connect 233 0 198 0;
#X connect 233 0 199 0;
#X connect 233 0 200 0;
#X connect 234 0 185 0;
#X connect 234 0 186 0;
#X connect 234 0 187 0;
#X connect 234 0 188 0;
#X connect 234 0 189 0;
#X connect 234 0 190 0;
#X connect 234 0 191 0;
#X connect 234 0 192 0;
#X connect 234 0 193 0;
#X connect 234 0 194 0;
#X connect 234 0 195 0;
#X connect 234 0 196 0;
#X connect 234 0 197 0;
#X connect 234 0 198 0;
#X connect 234 0 199 0;
#X connect 234 0 200 0;
#X connect 254 0 233 0;
#X connect 260 0 254 0;
#X connect 261 0 264 0;
#X connect 262 0 265 0;
#X connect 263 0 266 0;
#X connect 264 0 12 0;
#X connect 265 0 12 0;
#X connect 266 0 12 0;
#X connect 267 0 268 0;
#X connect 267 1 269 0;
#X connect 267 2 270 0;
#X connect 267 3 285 0;
#X connect 267 4 286 0;
#X connect 268 0 271 0;
#X connect 269 0 272 0;
#X connect 270 0 273 0;
#X connect 271 0 279 0;
#X connect 272 0 279 0;
#X connect 273 0 279 0;
#X connect 274 0 267 0;
#X connect 275 0 276 0;
#X connect 275 0 274 0;
#X connect 276 0 277 0;
#X connect 277 0 278 0;
#X connect 277 0 274 0;
#X connect 278 0 280 0;
#X connect 279 0 342 0;
#X connect 280 0 274 0;
#X connect 280 0 281 0;
#X connect 281 0 282 0;
#X connect 282 0 283 0;
#X connect 282 0 274 0;
#X connect 283 0 284 0;
#X connect 284 0 274 0;
#X connect 285 0 287 0;
#X connect 286 0 288 0;
#X connect 287 0 279 0;
#X connect 288 0 279 0;
#X connect 289 0 271 0;
#X connect 289 1 272 0;
#X connect 289 2 273 0;
#X connect 289 3 287 0;
#X connect 289 4 288 0;
#X connect 290 0 291 0;
#X connect 291 0 300 0;
#X connect 292 0 296 0;
#X connect 293 0 297 0;
#X connect 294 0 298 0;
#X connect 295 0 299 0;
#X connect 296 0 301 0;
#X connect 297 0 302 0;
#X connect 298 0 303 0;
#X connect 299 0 304 0;
#X connect 300 0 305 0;
#X connect 301 0 305 1;
#X connect 301 0 336 0;
#X connect 302 0 305 2;
#X connect 302 0 336 0;
#X connect 303 0 305 3;
#X connect 303 0 336 0;
#X connect 304 0 305 4;
#X connect 304 0 336 0;
#X connect 305 0 311 0;
#X connect 305 0 289 0;
#X connect 311 0 275 0;
#X connect 312 0 290 0;
#X connect 312 0 341 0;
#X connect 313 0 314 0;
#X connect 314 0 312 0;
#X connect 314 0 400 0;
#X connect 314 0 370 0;
#X connect 314 0 404 0;
#X connect 314 0 405 0;
#X connect 315 0 314 0;
#X connect 316 0 318 0;
#X connect 317 0 319 0;
#X connect 318 0 339 1;
#X connect 319 0 340 0;
#X connect 320 0 322 0;
#X connect 321 0 323 0;
#X connect 322 0 345 1;
#X connect 323 0 346 0;
#X connect 324 0 326 0;
#X connect 325 0 327 0;
#X connect 326 0 348 1;
#X connect 327 0 349 0;
#X connect 328 0 330 0;
#X connect 329 0 331 0;
#X connect 330 0 351 1;
#X connect 331 0 352 0;
#X connect 332 0 334 0;
#X connect 333 0 335 0;
#X connect 334 0 354 1;
#X connect 335 0 355 0;
#X connect 336 0 300 0;
#X connect 337 0 339 0;
#X connect 338 0 337 0;
#X connect 338 0 344 0;
#X connect 338 0 347 0;
#X connect 338 0 350 0;
#X connect 338 0 353 0;
#X connect 339 0 290 0;
#X connect 340 0 337 1;
#X connect 341 0 362 1;
#X connect 342 0 260 0;
#X connect 342 1 343 0;
#X connect 342 2 261 0;
#X connect 342 3 262 0;
#X connect 342 4 263 0;
#X connect 344 0 345 0;
#X connect 345 0 292 0;
#X connect 346 0 344 1;
#X connect 347 0 348 0;
#X connect 348 0 293 0;
#X connect 349 0 347 1;
#X connect 350 0 351 0;
#X connect 351 0 294 0;
#X connect 352 0 350 1;
#X connect 353 0 354 0;
#X connect 354 0 295 0;
#X connect 355 0 353 1;
#X connect 356 0 4 0;
#X connect 358 0 234 0;
#X connect 359 0 360 0;
#X connect 360 0 361 0;
#X connect 361 0 416 0;
#X connect 362 0 338 0;
#X connect 363 0 364 0;
#X connect 363 0 366 0;
#X connect 364 0 363 1;
#X connect 365 0 369 0;
#X connect 366 0 368 0;
#X connect 367 0 366 1;
#X connect 368 0 365 0;
#X connect 369 0 362 0;
#X connect 370 0 367 0;
#X connect 372 0 401 2;
#X connect 373 0 401 1;
#X connect 379 0 393 0;
#X connect 390 0 394 0;
#X connect 391 0 395 0;
#X connect 392 0 396 0;
#X connect 393 0 397 0;
#X connect 394 0 397 0;
#X connect 395 0 397 0;
#X connect 396 0 397 0;
#X connect 398 0 399 0;
#X connect 399 0 3 0;
#X connect 399 0 363 0;
#X connect 400 0 292 0;
#X connect 400 0 293 0;
#X connect 400 0 294 0;
#X connect 400 0 295 0;
#X connect 401 0 402 0;
#X connect 401 1 402 1;
#X connect 402 0 357 0;
#X connect 403 0 401 0;
#X connect 404 0 373 0;
#X connect 405 0 372 0;
#X connect 406 0 416 1;
#X connect 407 0 412 0;
#X connect 408 0 413 0;
#X connect 409 0 414 0;
#X connect 410 0 415 0;
#X connect 411 0 406 0;
#X connect 412 0 411 0;
#X connect 413 0 411 0;
#X connect 414 0 411 0;
#X connect 415 0 411 0;
#X connect 416 0 422 0;
#X connect 417 0 418 0;
#X connect 418 0 4 0;
#X connect 419 0 184 0;
#X connect 420 0 171 0;
#X connect 421 0 180 0;
#X connect 422 0 403 0;
#X coords 0 -1 1 1 430 270 1 100 100;
#X restore -386 -907 pd imitation;
