#N canvas 406 150 1086 782 10;
#N canvas 0 83 1680 967 genmatrix 0;
#X obj 100 101 cnv 15 1075 770 empty empty empty 20 12 0 14 -86277
-66577 0;
#N canvas 1 90 1280 872 chaos 0;
#X obj 101 100 cnv 15 260 150 empty empty empty 20 12 0 14 -256001
-66577 0;
#X obj 110 117 cnv 15 200 100 empty empty empty 20 12 0 14 -256577
-66577 0;
#N canvas 1 85 450 300 (subpatch) 0;
#X array dejong 50 float 3;
#A 0 3.94418 -18.4497 -1.52122 -3.15503 -12.0272 0.129413 -0.0379526
-10.8719 -1.77834 -4.17938 5.44236 13.9497 -3.51192 -5.05496 0.110124
-1.72533 0.802046 -0.914124 -0.0870181 0.158196 -8.5766 5.44701 1.89941
-1.54576 0.596543 14.5662 1.51653 2.12448 4.75909 -2.40037 4.14808
2.38354 -0.616506 -4.11701 0.222919 0.0173427 -1.42033 -4.58681 -5.26373
-0.160888 -0.324741 2.51096 0.56046 0.138132 12.833 -1.83761 0.145407
0.00895645 4.4792 -0.322022;
#X coords 0 24 50 -24 200 100 1 0 0;
#X restore 110 117 graph;
#X obj -389 416 bng 15 250 50 0 empty empty empty 17 7 0 10 -262144
-1 -1;
#X obj -389 435 int;
#X obj -364 435 + 1;
#X floatatom -389 459 5 0 0 0 - - -;
#X obj -280 482 mod 50;
#X obj 376 634 *;
#X floatatom 104 223 5 1 20 1 multi_offset - -;
#X obj 316 125 vsl 9 100 -1 1 0 0 empty empty empty 0 -9 0 10 -248577
-1 -1 1900 1;
#X obj 325 125 vsl 9 100 -1 1 0 0 empty empty empty 0 -9 0 10 -248257
-1 -1 5500 1;
#X text 161 100 Chaos Attractor;
#X obj -367 68 inlet;
#X obj 511 401 dejong 0 0 -0.0239362 -0.67834 2.50703 -0.0138538 -1.44072
2.47917;
#X floatatom 520 460 5 0 0 0 - - -;
#X floatatom 598 466 5 0 0 0 - - -;
#X obj 589 546 *;
#X msg 462 264 param -0.0239362 -0.67834 2.50703 -0.0138538 -1.44072
2.47917;
#X msg 324 348 reset;
#X obj 324 231 bng 15 250 50 0 empty empty empty 17 7 0 10 -256705
-1 -1;
#X msg 490 322 start;
#X msg 433 349 search;
#X msg 444 370 show;
#X obj 334 125 vsl 9 100 -1 1 0 0 empty empty empty 0 -9 0 10 -248577
-1 -1 2000 1;
#X obj 343 125 vsl 9 100 -1 1 0 0 empty empty empty 0 -9 0 10 -248257
-1 -1 5100 1;
#X obj 452 133 pack f f f f f f;
#X msg 452 176 param \$1 \$2 \$3 \$4;
#X obj 318 106 bng 15 250 50 0 empty empty empty 17 7 0 10 -256705
-1 -1;
#X obj 334 106 bng 15 250 50 0 empty empty empty 17 7 0 10 -256705
-1 -1;
#X obj 46 748 tabwrite dejong;
#X floatatom 223 224 5 0 0 1 offset - -;
#X obj -206 703 +;
#X obj -211 793 outlet;
#X connect 3 0 4 0;
#X connect 3 0 14 0;
#X connect 4 0 5 0;
#X connect 4 0 6 0;
#X connect 5 0 4 1;
#X connect 6 0 7 0;
#X connect 7 0 30 1;
#X connect 8 0 30 0;
#X connect 8 0 32 0;
#X connect 9 0 8 1;
#X connect 10 0 26 0;
#X connect 11 0 26 1;
#X connect 13 0 3 0;
#X connect 14 0 15 0;
#X connect 14 1 16 0;
#X connect 15 0 17 0;
#X connect 16 0 17 1;
#X connect 17 0 8 0;
#X connect 18 0 14 0;
#X connect 19 0 14 0;
#X connect 20 0 19 0;
#X connect 21 0 14 0;
#X connect 22 0 14 0;
#X connect 24 0 26 2;
#X connect 25 0 26 3;
#X connect 26 0 27 0;
#X connect 27 0 14 0;
#X connect 28 0 22 0;
#X connect 29 0 23 0;
#X connect 31 0 32 1;
#X connect 32 0 33 0;
#X coords 0 -1 1 1 260 150 1 100 100;
#X restore 903 463 pd chaos;
#N canvas 1 88 1280 715 chaos 0;
#X obj 101 100 cnv 15 260 150 empty empty empty 20 12 0 14 -46145 -66577
0;
#X obj 104 119 cnv 15 200 100 empty empty empty 20 12 0 14 -22297 -66577
0;
#N canvas 1 85 450 300 (subpatch) 0;
#X array ikeda 50 float 3;
#A 0 1.66516 -0.408657 1.72561 -0.805219 1.68323 0.40131 -0.0853132
1.04341 -0.148766 1.0955 0.199165 -2.58241 1.0564 0.229533 -6.25829
6.95044 -6.54079 -2.18967 2.80287 -1.52869 -0.415103 -5.24132 5.2081
-3.9284 2.08593 -6.44451 3.34882 -9.62665 -8.18333 -1.96541 3.5495
-4.21936 -0.812641 -1.68066 0.748683 1.39446 0.0825679 1.02762 0.836552
-3.98654 4.21219 -0.480688 -4.84659 5.56003 -0.705002 -4.32408 4.69813
0.210196 1.08383 -1.74733;
#X coords 0 24 50 -24 200 100 1 0 0;
#X restore 105 118 graph;
#X obj -389 416 bng 15 250 50 0 empty empty empty 17 7 0 10 -262144
-1 -1;
#X obj -389 435 int;
#X obj -364 435 + 1;
#X floatatom -389 459 5 0 0 0 - - -;
#X obj -280 482 mod 50;
#X obj 126 645 *;
#X floatatom 104 223 5 1 20 1 multi_offset - -;
#X floatatom 276 565 10 0 0 0 Y - -;
#X floatatom 234 538 10 0 0 0 X - -;
#X obj 243 511 ikeda 0.1 0.1 0.4 0.9 6 1;
#X floatatom 131 580 5 0 0 0 - - -;
#X floatatom 200 571 5 0 0 0 - - -;
#X msg 265 463 param 0.4 0.9 6 1;
#X obj 310 118 vsl 9 100 0 1 0 0 empty empty empty 0 -9 0 10 -14277
-1 -1 1700 1;
#X obj 319 118 vsl 9 100 0 1 0 0 empty empty empty 0 -9 0 10 -14729
-1 -1 6100 1;
#X obj 328 118 vsl 9 100 0 1 0 0 empty empty empty 0 -9 0 10 -14277
-1 -1 5000 1;
#X obj 338 118 vsl 12 100 1 10 0 0 empty empty empty 0 -9 0 10 -15369
-1 -1 1500 1;
#X obj 295 381 pack f f f f;
#X msg 271 427 param \$1 \$2 \$3 \$4 1;
#X obj 144 610 *;
#X text 152 99 Chaos Attractor;
#X obj 43 718 tabwrite ikeda;
#X obj -367 68 inlet;
#X msg 212 316 reset;
#X obj 321 223 bng 15 250 50 0 empty empty empty 17 7 0 10 -60737 -1
-1;
#X obj -176 709 outlet;
#X floatatom 223 226 5 0 0 1 offset - -;
#X obj -155 664 +;
#X connect 3 0 4 0;
#X connect 3 0 12 0;
#X connect 4 0 5 0;
#X connect 4 0 6 0;
#X connect 5 0 4 1;
#X connect 6 0 7 0;
#X connect 7 0 24 1;
#X connect 8 0 24 0;
#X connect 8 0 30 0;
#X connect 9 0 8 1;
#X connect 10 0 14 0;
#X connect 11 0 13 0;
#X connect 12 0 11 0;
#X connect 12 1 10 0;
#X connect 13 0 22 0;
#X connect 14 0 22 1;
#X connect 15 0 12 0;
#X connect 16 0 20 0;
#X connect 17 0 20 1;
#X connect 18 0 20 2;
#X connect 19 0 20 3;
#X connect 20 0 21 0;
#X connect 21 0 12 0;
#X connect 22 0 8 0;
#X connect 25 0 3 0;
#X connect 26 0 12 0;
#X connect 27 0 26 0;
#X connect 29 0 30 1;
#X connect 30 0 28 0;
#X coords 0 -1 1 1 260 150 1 100 100;
#X restore 903 312 pd chaos;
#N canvas 1 88 1280 715 chaos 0;
#X obj 101 100 cnv 15 260 100 empty empty empty 20 12 0 14 -254849
-66577 0;
#X obj 110 117 cnv 15 200 60 empty empty empty 20 12 0 14 -218305 -66577
0;
#N canvas 1 85 450 300 (subpatch) 0;
#X array weibull 50 float 3;
#A 0 3.04106 6.19949 3.89235 9.77286 4.05341 13.6025 12.326 6.46517
4.91561 4.48279 13.7096 6.88975 9.67929 3.56493 3.36418 20.5611 6.40262
3.22315 3.6179 2.26966 6.0323 9.47715 8.3485 6.87094 4.07278 5.19764
8.18576 4.95481 6.34783 4.21782 6.96255 6.81033 9.93672 3.40731 12.8554
3.67796 6.95403 4.43271 3.70333 13.9977 2.52871 12.8832 14.1023 5.21537
10.433 4.22057 4.21913 16.5818 21.5534 5.18181;
#X coords 0 24 50 -24 200 60 1 0 0;
#X restore 109 118 graph;
#X obj 316 119 vsl 14 69 0 16 0 0 empty empty empty 0 -9 0 10 -259201
-1 -1 2800 1;
#X obj 331 119 vsl 14 69 0 16 0 0 empty empty empty 0 -9 0 10 -259521
-1 -1 0 1;
#X obj -367 68 inlet;
#X text 168 100 Randomizer;
#X obj -150 437 bng 20 250 50 0 empty empty empty 0 -6 0 8 -262144
-1 -1;
#X floatatom -150 505 5 0 0 0 - - -;
#X floatatom 266 288 5 0 0 0 - - -;
#X floatatom 328 299 5 0 0 0 - - -;
#X obj -150 482 weibull 0.78 1.3;
#X obj -57 506 int;
#X obj -31 506 + 1;
#X obj -147 630 tabwrite weibull;
#X floatatom 110 181 5 0 0 1 offset - -;
#X obj 40 575 +;
#X obj -57 528 mod 50;
#X obj 7 640 outlet;
#X connect 3 0 9 0;
#X connect 4 0 10 0;
#X connect 5 0 7 0;
#X connect 7 0 11 0;
#X connect 7 0 12 0;
#X connect 8 0 16 0;
#X connect 9 0 11 1;
#X connect 10 0 11 2;
#X connect 11 0 8 0;
#X connect 12 0 13 0;
#X connect 12 0 17 0;
#X connect 13 0 12 1;
#X connect 15 0 16 1;
#X connect 16 0 18 0;
#X connect 16 0 14 0;
#X connect 17 0 14 1;
#X coords 0 -1 1 1 260 100 1 100 100;
#X restore 640 752 pd chaos;
#N canvas 30 122 1600 846 cubesynth 0;
#X obj 100 100 cnv 15 340 215 empty empty empty 20 12 0 14 -51596 -66577
0;
#X obj 243 127 vsl 15 128 1 8 0 0 empty empty grid 0 -9 0 10 -170880
-1 -1 0 1;
#X obj 112 140 vradio 15 1 0 4 empty empty empty 0 -8 0 10 -262144
-1 -1 2;
#X text 107 123 MODE;
#X obj 292 127 vsl 15 128 1 8 0 0 empty empty angle 0 -9 0 10 -170880
-1 -1 4200 1;
#X obj 196 127 vsl 15 128 0 64 0 0 empty empty base 0 -9 0 10 -170880
-1 -1 1200 1;
#X floatatom 604 198 5 0 0 0 - - -;
#X obj 693 7 int;
#X obj 722 6 + 1;
#X floatatom 693 29 5 0 0 0 - - -;
#X obj 693 -13 bng 15 250 50 0 empty empty empty 17 7 0 10 -262144
-1 -1;
#X text 717 -219 METRO;
#X obj 706 -67 bng 15 250 50 0 empty empty empty 17 7 0 10 -262144
-1 -1;
#X floatatom 138 232 5 0 0 0 step - -;
#X floatatom 138 211 5 1 200 0 total - -;
#X floatatom 196 260 3 0 0 0 - - -;
#X floatatom 243 260 2 0 0 0 - - -;
#X floatatom 292 260 2 0 0 0 - - -;
#X text 129 140 UP;
#X text 129 155 DOWN;
#X obj 594 -7 route 1;
#X obj 594 14 bng 15 250 50 0 empty empty empty 17 7 0 10 -262144 -1
-1;
#X msg 594 74 0;
#X obj 594 -32 >;
#X obj 778 128 mod;
#X floatatom 778 153 5 0 0 0 - - -;
#X obj 778 175 == 0;
#X obj 778 197 route 1;
#X obj 778 218 bng 15 250 50 0 empty empty empty 17 7 0 10 -262144
-1 -1;
#X floatatom 841 728 5 0 0 0 - - -;
#X obj 609 -56 - 1;
#X obj 792 631 int;
#X obj 633 614 + 1;
#X obj 880 246 bng 15 250 50 0 empty empty empty 17 7 0 10 -262144
-1 -1;
#X floatatom 757 740 5 0 0 0 - - -;
#X obj 339 127 vsl 15 128 1 8 0 0 empty empty step+ 0 -9 0 10 -170880
-1 -1 0 1;
#X floatatom 339 260 2 0 0 0 - - -;
#X obj 631 588 spigot 1;
#X floatatom 677 564 5 0 0 0 - - -;
#X floatatom 1082 595 5 0 0 0 - - -;
#X floatatom 797 851 5 0 0 0 - - -;
#X obj 1037 617 spigot 1;
#X obj 670 471 == 1;
#X obj 1066 496 == 0;
#X obj 1066 518 route 1;
#X obj 670 493 route 1;
#X obj 670 515 bng 15 250 50 0 empty empty empty 17 7 0 10 -262144
-1 -1;
#X msg 670 533 1;
#X msg 708 530 0;
#X obj 1066 540 bng 15 250 50 0 empty empty empty 17 7 0 10 -262144
-1 -1;
#X msg 1066 561 1;
#X msg 1101 555 0;
#X floatatom 901 361 5 0 0 0 - - -;
#X obj 719 195 == 1;
#X obj 604 222 == 0;
#X obj 719 216 route 1;
#X obj 719 238 bng 15 250 50 0 empty empty empty 17 7 0 10 -262144
-1 -1;
#X obj 604 244 route 1;
#X obj 606 268 bng 15 250 50 0 empty empty empty 17 7 0 10 -262144
-1 -1;
#X msg 608 296 1;
#X msg 780 241 0;
#X obj 1016 161 == 2;
#X obj 1016 184 route 1;
#X obj 1016 206 bng 15 250 50 0 empty empty empty 17 7 0 10 -262144
-1 -1;
#X msg 1015 227 1;
#X obj 1104 302 spigot 1;
#X floatatom 1150 274 5 0 0 0 - - -;
#X obj 1104 214 int;
#X obj 1133 213 + 1;
#X obj 1104 191 bng 15 250 50 0 empty empty empty 17 7 0 10 -262144
-1 -1;
#X obj 1103 120 mod;
#X obj 1104 142 == 0;
#X obj 1104 167 route 1;
#X floatatom 1103 257 5 0 0 0 - - -;
#X obj 1104 236 mod 2;
#X text 130 170 ZIG ZAG;
#X msg 653 295 0;
#X msg 1048 227 0;
#X floatatom 800 912 5 0 0 0 - - -;
#X floatatom 977 1468 5 0 0 0 - - -;
#X obj -131 371 loadbang;
#X msg 957 -75 0;
#X obj 1347 229 sin;
#X floatatom 1356 256 5 0 0 0 - - -;
#X obj 1366 292 *;
#X obj 1326 201 /;
#X obj 1339 -1 vsl 15 128 1 4 0 0 empty empty div 0 -9 0 10 -262144
-1 -1 0 1;
#X obj 1364 -1 vsl 15 128 1 16 0 0 empty empty mlti 0 -9 0 10 -262144
-1 -1 0 1;
#X floatatom 1365 134 2 0 0 0 - - -;
#X floatatom 1342 135 2 0 0 0 - - -;
#X floatatom 1367 324 5 0 0 0 - - -;
#X obj 1404 382 +;
#X obj 1404 408 spigot 1;
#X floatatom 1449 384 5 0 0 0 - - -;
#X obj 1416 214 route 1;
#X obj 1417 238 bng 15 250 50 0 empty empty empty 17 7 0 10 -262144
-1 -1;
#X obj 1416 191 == 3;
#X msg 1400 264 0;
#X msg 1433 265 1;
#X obj 1414 435 bng 15 250 50 0 empty empty empty 17 7 0 10 -262144
-1 -1;
#X text 129 185 SINE;
#X obj 385 127 vsl 15 128 1 8 0 0 empty empty step- 0 -9 0 10 -170880
-1 -1 0 1;
#X floatatom 385 260 2 0 0 0 - - -;
#X text 1099 96 ZIG-ZAG;
#X text 1410 155 SINE;
#X obj 794 772 +;
#X floatatom 797 801 5 0 0 0 - - -;
#X obj 1037 651 - 1;
#X obj 260 127 vsl 8 128 1 8 0 0 empty empty empty 0 -9 0 10 -149940
-1 -1 8000 1;
#X obj 310 127 vsl 8 128 1 8 0 0 empty empty empty 0 -9 0 10 -149940
-1 -1 7000 1;
#X obj 356 127 vsl 8 128 1 8 0 0 empty empty empty 0 -9 0 10 -149940
-1 -1 8100 1;
#X obj 402 127 vsl 8 128 1 8 0 0 empty empty empty 0 -9 0 10 -149940
-1 -1 8100 1;
#X obj 1354 -1 vsl 8 128 1 4 0 0 empty empty empty 0 -9 0 10 -257908
-1 -1 0 1;
#X obj 1380 -1 vsl 8 128 1 16 0 0 empty empty empty 0 -9 0 10 -257908
-1 -1 0 1;
#X text 106 102 CUBE SYNTH1;
#X obj 156 -555 notein;
#X floatatom 109 -482 5 0 0 0 - - -;
#X floatatom 167 -483 5 0 0 0 - - -;
#X floatatom 235 -484 5 0 0 0 - - -;
#X obj -493 -100 ctlin 12;
#X obj -436 -104 ctlin 11;
#X text -481 -116 base;
#X text -424 -123 grid;
#X obj -493 -77 / 127;
#X obj -436 -83 / 127;
#X obj -323 -85 / 127;
#X obj -260 -88 / 127;
#X obj -379 -80 / 127;
#X text -371 -127 angle;
#X text -317 -126 step +;
#X text -258 -125 step -;
#X obj -436 -62 * 8;
#X obj -492 -49 * 48;
#X obj -379 -56 * 8;
#X obj -379 -106 ctlin 20;
#X obj -323 -65 * 8;
#X obj -260 -66 * 8;
#X obj -556 -79 / 127;
#X obj -556 -57 * 32;
#X obj -556 -36 int;
#X obj -331 -421 == 46;
#X obj -273 -421 == 127;
#X obj -298 -404 &&;
#X obj -298 -384 route 1;
#X obj -298 -365 bng 15 250 50 0 empty empty empty 17 7 0 10 -262144
-1 -1;
#X msg -298 -345 1;
#X obj -162 -419 == 127;
#X obj -187 -402 &&;
#X obj -187 -382 route 1;
#X obj -187 -363 bng 15 250 50 0 empty empty empty 17 7 0 10 -262144
-1 -1;
#X obj -220 -419 == 43;
#X msg -187 -339 0;
#X obj -377 -420 == 127;
#X obj -402 -403 &&;
#X obj -402 -383 route 1;
#X obj -402 -364 bng 15 250 50 0 empty empty empty 17 7 0 10 -262144
-1 -1;
#X obj -435 -420 == 70;
#X obj -56 -422 == 127;
#X obj -82 -397 &&;
#X obj -82 -377 route 1;
#X obj -82 -358 bng 15 250 50 0 empty empty empty 17 7 0 10 -262144
-1 -1;
#X msg -401 -341 2;
#X obj -109 -417 == 58;
#X obj 22 -401 &&;
#X obj 22 -381 route 1;
#X obj 22 -362 bng 15 250 50 0 empty empty empty 17 7 0 10 -262144
-1 -1;
#X obj 220 -400 &&;
#X obj 220 -380 route 1;
#X obj 220 -361 bng 15 250 50 0 empty empty empty 17 7 0 10 -262144
-1 -1;
#X obj 187 -417 == 59;
#X obj 246 -418 == 0;
#X obj 137 117 tgl 15 0 empty empty on 17 7 0 10 -262144 -1 -1 0 1
;
#X floatatom 223 -547 1 0 0 0 - - -;
#X obj 100 -514 spigot 1;
#X obj 173 -512 spigot 1;
#X obj 239 -509 spigot 1;
#X obj 802 882 int;
#X obj 700 -500 r metro;
#X obj -323 -109 ctlin 26;
#X obj -260 -109 ctlin 29;
#X obj -556 -102 ctlin 25;
#X obj 321 -400 &&;
#X obj 321 -380 route 1;
#X obj 321 -361 bng 15 250 50 0 empty empty empty 17 7 0 10 -262144
-1 -1;
#X obj 338 -419 == 127;
#X obj 268 -414 == 56;
#X msg 321 -337 1;
#X obj 428 -404 &&;
#X obj 428 -384 route 1;
#X obj 428 -365 bng 15 250 50 0 empty empty empty 17 7 0 10 -262144
-1 -1;
#X obj 395 -421 == 56;
#X obj 454 -422 == 0;
#X msg 428 -341 0;
#X obj 900 -384 &&;
#X obj 900 -364 route 1;
#X obj 900 -345 bng 15 250 50 0 empty empty empty 17 7 0 10 -262144
-1 -1;
#X obj 917 -403 == 127;
#X msg 900 -321 1;
#X obj 847 -398 == 69;
#X obj 793 -70 delay;
#X obj 841 -161 r tempo_amount;
#X floatatom 841 -132 5 0 0 0 - - -;
#X obj 852 -91 / 2;
#X obj 111 253 tgl 15 0 empty empty double 17 7 0 10 -262144 -1 -1
0 1;
#X obj 802 -33 spigot 1;
#X msg -23 339 0;
#X obj -11 -418 == 58;
#X obj 47 -418 == 0;
#X msg -87 -328 1;
#X msg 28 -328 0;
#X obj 114 -401 &&;
#X obj 114 -381 route 1;
#X obj 114 -362 bng 15 250 50 0 empty empty empty 17 7 0 10 -262144
-1 -1;
#X obj 81 -418 == 59;
#X obj 680 -257 spigot 1;
#X obj 726 -280 tgl 15 0 empty empty empty 17 7 0 10 -262144 -1 -1
1 1;
#X obj 140 -419 == 127;
#X msg 156 -340 0;
#X msg 256 -349 1;
#X obj 393 -547 loadbang;
#X msg 384 -508 1;
#X msg -107 416 168;
#X obj 213 127 vsl 8 128 0 15 0 0 empty empty empty 0 -9 0 10 -149940
-1 -1 8500 1;
#X obj 223 127 vsl 10 128 0 64 0 0 empty empty empty 0 -9 0 10 -133300
-1 -1 1398 1;
#X obj 270 127 vsl 10 128 1 8 0 0 empty empty empty 0 -9 0 10 -133300
-1 -1 1814 1;
#X obj 320 127 vsl 10 128 1 8 0 0 empty empty empty 0 -9 0 10 -133300
-1 -1 7257 1;
#X obj 366 127 vsl 10 128 1 8 0 0 empty empty empty 0 -9 0 10 -133300
-1 -1 7257 1;
#X obj 412 127 vsl 10 128 1 8 0 0 empty empty empty 0 -9 0 10 -133300
-1 -1 0 1;
#X floatatom 270 260 2 0 0 0 - - -;
#X floatatom 320 260 2 0 0 0 - - -;
#X floatatom 366 260 2 0 0 0 - - -;
#X floatatom 413 260 2 0 0 0 - - -;
#X obj 397 103 bng 8 250 50 0 empty empty empty 17 7 0 10 -262144 -1
-1;
#X obj 353 104 bng 8 250 50 0 empty empty empty 17 7 0 10 -262144 -1
-1;
#X obj 310 103 bng 8 250 50 0 empty empty empty 17 7 0 10 -262144 -1
-1;
#X obj 256 104 bng 8 250 50 0 empty empty empty 17 7 0 10 -262144 -1
-1;
#X obj 213 103 bng 8 250 50 0 empty empty empty 17 7 0 10 -262144 -1
-1;
#X text -543 -118 total;
#X obj 151 -16 +;
#X obj 168 -38 random;
#X obj 154 -91 bng 15 250 50 0 empty empty empty 17 7 0 10 -262144
-1 -1;
#X obj 307 -173 bng 15 250 50 0 empty empty empty 17 7 0 10 -262144
-1 -1;
#X obj 218 -10 +;
#X obj 235 -32 random;
#X obj 229 -97 bng 15 250 50 0 empty empty empty 17 7 0 10 -262144
-1 -1;
#X floatatom 216 261 3 0 0 0 - - -;
#X obj 293 -6 +;
#X obj 310 -28 random;
#X obj 304 -93 bng 15 250 50 0 empty empty empty 17 7 0 10 -262144
-1 -1;
#X obj 362 -1 +;
#X obj 379 -23 random;
#X obj 373 -88 bng 15 250 50 0 empty empty empty 17 7 0 10 -262144
-1 -1;
#X obj 430 0 +;
#X obj 447 -22 random;
#X obj 441 -87 bng 15 250 50 0 empty empty empty 17 7 0 10 -262144
-1 -1;
#X obj 97 -105 r total;
#X floatatom 140 273 5 1 100 1 max - -;
#X floatatom 140 291 5 1 100 1 min - -;
#X obj 215 -38 int;
#X floatatom 487 41 5 0 0 0 - - -;
#X obj 341 -62 int;
#X obj 264 -67 int;
#X floatatom 322 44 5 0 0 0 - - -;
#X obj 288 -36 int;
#X obj 1007 817 >;
#X obj 592 817 <;
#X obj 592 838 route 1;
#X obj 1007 837 route 1;
#X obj 592 858 bng 15 250 50 0 empty empty empty 17 7 0 10 -262144
-1 -1;
#X obj 1007 858 bng 15 250 50 0 empty empty empty 17 7 0 10 -262144
-1 -1;
#X obj -80 209 r gridfill;
#X obj 742 -149 spigot 1;
#X obj 811 -209 tgl 15 0 empty empty empty 17 7 0 10 -262144 -1 -1
0 1;
#X obj 822 -260 r distrocubetoggle;
#X obj 306 -195 r change_distrocube;
#X floatatom 266 288 5 0 0 1 basenote_offset - -;
#X obj 800 937 +;
#X floatatom 800 973 5 0 0 0 - - -;
#X obj 717 -198 inlet;
#X obj 799 1076 outlet;
#X obj 428 856 s change_1cube;
#X connect 1 0 16 0;
#X connect 1 0 258 0;
#X connect 2 0 6 0;
#X connect 2 0 61 0;
#X connect 2 0 96 0;
#X connect 4 0 17 0;
#X connect 4 0 263 0;
#X connect 5 0 15 0;
#X connect 6 0 53 0;
#X connect 6 0 54 0;
#X connect 7 0 8 0;
#X connect 7 0 9 0;
#X connect 8 0 7 1;
#X connect 9 0 13 0;
#X connect 9 0 23 0;
#X connect 9 0 24 0;
#X connect 9 0 70 0;
#X connect 9 0 85 0;
#X connect 10 0 7 0;
#X connect 12 0 10 0;
#X connect 12 0 38 0;
#X connect 12 0 199 0;
#X connect 14 0 30 0;
#X connect 15 0 238 0;
#X connect 20 0 21 0;
#X connect 21 0 22 0;
#X connect 22 0 7 0;
#X connect 22 0 31 0;
#X connect 23 0 20 0;
#X connect 24 0 25 0;
#X connect 25 0 26 0;
#X connect 26 0 27 0;
#X connect 27 0 28 0;
#X connect 28 0 33 0;
#X connect 28 0 29 0;
#X connect 29 0 91 0;
#X connect 29 0 105 1;
#X connect 30 0 23 1;
#X connect 31 0 34 0;
#X connect 31 0 37 0;
#X connect 31 0 41 0;
#X connect 32 0 31 1;
#X connect 33 0 31 0;
#X connect 34 0 105 0;
#X connect 35 0 36 0;
#X connect 36 0 249 0;
#X connect 37 0 32 0;
#X connect 38 0 37 1;
#X connect 39 0 41 1;
#X connect 40 0 176 0;
#X connect 41 0 107 0;
#X connect 42 0 45 0;
#X connect 43 0 44 0;
#X connect 44 0 49 0;
#X connect 45 0 46 0;
#X connect 46 0 47 0;
#X connect 46 0 48 0;
#X connect 47 0 38 0;
#X connect 48 0 39 0;
#X connect 49 0 50 0;
#X connect 49 0 51 0;
#X connect 50 0 39 0;
#X connect 51 0 38 0;
#X connect 52 0 42 0;
#X connect 52 0 43 0;
#X connect 53 0 55 0;
#X connect 54 0 57 0;
#X connect 55 0 56 0;
#X connect 56 0 60 0;
#X connect 57 0 58 0;
#X connect 58 0 59 0;
#X connect 58 0 76 0;
#X connect 59 0 52 0;
#X connect 60 0 52 0;
#X connect 60 0 66 0;
#X connect 60 0 93 0;
#X connect 61 0 62 0;
#X connect 62 0 63 0;
#X connect 63 0 64 0;
#X connect 63 0 77 0;
#X connect 64 0 66 0;
#X connect 65 0 52 0;
#X connect 66 0 65 1;
#X connect 67 0 68 0;
#X connect 67 0 74 0;
#X connect 68 0 67 1;
#X connect 69 0 67 0;
#X connect 70 0 71 0;
#X connect 71 0 72 0;
#X connect 72 0 69 0;
#X connect 73 0 65 0;
#X connect 74 0 73 0;
#X connect 76 0 66 0;
#X connect 76 0 93 0;
#X connect 77 0 93 0;
#X connect 78 0 276 0;
#X connect 80 0 221 0;
#X connect 80 0 205 0;
#X connect 81 0 7 0;
#X connect 81 0 67 0;
#X connect 81 0 31 0;
#X connect 82 0 83 0;
#X connect 83 0 84 0;
#X connect 84 0 90 0;
#X connect 85 0 82 0;
#X connect 86 0 85 1;
#X connect 87 0 84 1;
#X connect 90 0 91 1;
#X connect 91 0 92 0;
#X connect 92 0 40 0;
#X connect 92 0 99 0;
#X connect 93 0 92 1;
#X connect 94 0 95 0;
#X connect 95 0 97 0;
#X connect 95 0 98 0;
#X connect 96 0 94 0;
#X connect 97 0 66 0;
#X connect 97 0 39 0;
#X connect 97 0 38 0;
#X connect 98 0 93 0;
#X connect 101 0 102 0;
#X connect 102 0 252 0;
#X connect 105 0 106 0;
#X connect 106 0 40 0;
#X connect 106 0 265 0;
#X connect 106 0 264 0;
#X connect 107 0 31 1;
#X connect 108 0 261 0;
#X connect 109 0 260 0;
#X connect 110 0 250 1;
#X connect 111 0 253 1;
#X connect 115 0 173 0;
#X connect 115 1 174 0;
#X connect 115 2 175 0;
#X connect 116 0 140 0;
#X connect 116 0 150 0;
#X connect 116 0 156 0;
#X connect 116 0 162 0;
#X connect 116 0 169 0;
#X connect 116 0 185 0;
#X connect 116 0 190 0;
#X connect 116 0 198 0;
#X connect 116 0 206 0;
#X connect 116 0 213 0;
#X connect 117 0 141 0;
#X connect 117 0 146 0;
#X connect 117 0 152 0;
#X connect 117 0 157 0;
#X connect 117 0 170 0;
#X connect 117 0 184 0;
#X connect 117 0 191 0;
#X connect 117 0 196 0;
#X connect 117 0 207 0;
#X connect 117 0 216 0;
#X connect 119 0 123 0;
#X connect 120 0 124 0;
#X connect 123 0 132 0;
#X connect 124 0 131 0;
#X connect 125 0 135 0;
#X connect 126 0 136 0;
#X connect 127 0 133 0;
#X connect 134 0 127 0;
#X connect 137 0 138 0;
#X connect 138 0 139 0;
#X connect 139 0 14 0;
#X connect 140 0 142 0;
#X connect 141 0 142 1;
#X connect 142 0 143 0;
#X connect 143 0 144 0;
#X connect 144 0 145 0;
#X connect 145 0 2 0;
#X connect 146 0 147 1;
#X connect 147 0 148 0;
#X connect 148 0 149 0;
#X connect 149 0 151 0;
#X connect 150 0 147 0;
#X connect 151 0 2 0;
#X connect 152 0 153 1;
#X connect 153 0 154 0;
#X connect 154 0 155 0;
#X connect 155 0 161 0;
#X connect 156 0 153 0;
#X connect 157 0 158 1;
#X connect 158 0 159 0;
#X connect 159 0 160 0;
#X connect 160 0 208 0;
#X connect 161 0 2 0;
#X connect 162 0 158 0;
#X connect 163 0 164 0;
#X connect 164 0 165 0;
#X connect 165 0 209 0;
#X connect 166 0 167 0;
#X connect 167 0 168 0;
#X connect 168 0 218 0;
#X connect 169 0 166 0;
#X connect 170 0 166 1;
#X connect 171 0 172 0;
#X connect 172 0 174 1;
#X connect 172 0 173 1;
#X connect 173 0 116 0;
#X connect 174 0 117 0;
#X connect 175 0 118 0;
#X connect 176 0 78 0;
#X connect 177 0 214 0;
#X connect 178 0 125 0;
#X connect 179 0 126 0;
#X connect 180 0 137 0;
#X connect 181 0 182 0;
#X connect 182 0 183 0;
#X connect 183 0 186 0;
#X connect 184 0 181 1;
#X connect 185 0 181 0;
#X connect 187 0 188 0;
#X connect 188 0 189 0;
#X connect 189 0 192 0;
#X connect 190 0 187 0;
#X connect 191 0 187 1;
#X connect 193 0 194 0;
#X connect 194 0 195 0;
#X connect 195 0 197 0;
#X connect 196 0 193 1;
#X connect 198 0 193 0;
#X connect 199 0 204 0;
#X connect 200 0 201 0;
#X connect 201 0 202 0;
#X connect 202 0 199 1;
#X connect 203 0 204 1;
#X connect 204 0 10 0;
#X connect 205 0 203 0;
#X connect 206 0 163 0;
#X connect 207 0 163 1;
#X connect 208 0 203 0;
#X connect 209 0 203 0;
#X connect 210 0 211 0;
#X connect 211 0 212 0;
#X connect 212 0 217 0;
#X connect 213 0 210 0;
#X connect 215 0 214 1;
#X connect 216 0 210 1;
#X connect 217 0 215 0;
#X connect 218 0 215 0;
#X connect 219 0 220 0;
#X connect 220 0 215 0;
#X connect 222 0 239 1;
#X connect 223 0 29 0;
#X connect 223 0 245 0;
#X connect 224 0 24 1;
#X connect 224 0 228 0;
#X connect 225 0 70 1;
#X connect 225 0 229 0;
#X connect 226 0 32 1;
#X connect 226 0 230 0;
#X connect 227 0 107 1;
#X connect 227 0 231 0;
#X connect 232 0 254 0;
#X connect 233 0 251 0;
#X connect 234 0 248 0;
#X connect 235 0 244 0;
#X connect 236 0 240 0;
#X connect 238 0 223 0;
#X connect 239 0 238 1;
#X connect 240 0 239 0;
#X connect 240 0 5 0;
#X connect 241 0 240 0;
#X connect 241 0 244 0;
#X connect 241 0 248 0;
#X connect 241 0 251 0;
#X connect 241 0 254 0;
#X connect 242 0 224 0;
#X connect 243 0 242 1;
#X connect 244 0 243 0;
#X connect 244 0 1 0;
#X connect 246 0 225 0;
#X connect 246 0 262 0;
#X connect 247 0 246 1;
#X connect 248 0 247 0;
#X connect 248 0 4 0;
#X connect 249 0 226 0;
#X connect 250 0 249 1;
#X connect 251 0 250 0;
#X connect 251 0 35 0;
#X connect 252 0 227 0;
#X connect 252 0 259 0;
#X connect 253 0 252 1;
#X connect 254 0 253 0;
#X connect 254 0 101 0;
#X connect 255 0 14 0;
#X connect 256 0 264 1;
#X connect 257 0 265 1;
#X connect 258 0 242 0;
#X connect 260 0 247 1;
#X connect 261 0 243 1;
#X connect 263 0 246 0;
#X connect 264 0 267 0;
#X connect 265 0 266 0;
#X connect 266 0 268 0;
#X connect 267 0 269 0;
#X connect 268 0 46 0;
#X connect 269 0 49 0;
#X connect 270 0 203 0;
#X connect 271 0 12 0;
#X connect 272 0 271 1;
#X connect 273 0 272 0;
#X connect 274 0 241 0;
#X connect 275 0 276 1;
#X connect 276 0 277 0;
#X connect 277 0 279 0;
#X connect 278 0 271 0;
#X coords 0 -1 1 1 340 215 1 100 100;
#X restore 160 582 pd cubesynth;
#N canvas 275 85 1280 845 chaos 0;
#X obj 101 100 cnv 15 230 210 empty empty empty 20 12 0 14 -256833
-66577 0;
#X obj 113 112 cnv 15 200 100 empty empty empty 20 12 0 14 -257281
-66577 0;
#X obj -553 -97 inlet;
#X obj -206 703 +;
#X obj -413 139 int;
#X obj -369 176 + 1;
#X obj -517 176 - 1;
#X obj -413 100 bng 15 250 50 0 empty empty empty 17 7 0 10 -262144
-1 -1;
#X obj -369 156 spigot 1;
#X obj -517 156 spigot 1;
#X floatatom -435 639 5 0 0 0 - - -;
#X floatatom -472 136 1 0 0 0 - - -;
#X floatatom -324 136 1 0 0 0 - - -;
#X obj -377 -46 vradio 11 1 0 2 empty empty empty 0 -8 0 10 -262144
-1 -1 0;
#X obj -377 -21 route 0 1;
#X obj -377 0 bng 15 250 50 0 empty empty empty 17 7 0 10 -262144 -1
-1;
#X obj -352 0 bng 15 250 50 0 empty empty empty 17 7 0 10 -262144 -1
-1;
#X msg -405 21 1;
#X msg -377 21 0;
#X msg -352 21 1;
#X msg -324 21 0;
#X text -365 -51 UP;
#X text -365 -41 DOWN;
#X obj -553 -47 bng 15 250 50 0 empty empty empty 17 7 0 10 -262144
-1 -1;
#X floatatom -157 160 2 1 5 0 - - -;
#N canvas 1 86 450 300 (subpatch) 0;
#X array sandmaker 50 float 3;
#A 0 9 1 9 5 1 2 3 7 3 4 5 2 9 3 7 8 9 7 5 3 5 4 3 1 3 2 1 4 7 5 7
9 1 8 5 1 7 5 3 0 7 8 9 7 5 8 5 4 3 2;
#X coords 0 16 50 -1 200 100 1 0 0;
#X restore 113 112 graph;
#X obj -553 23 int;
#X obj -528 23 + 1;
#X obj -377 -128 == 0;
#X obj -377 -109 route 1;
#X obj -377 -89 int;
#X obj -353 -89 + 1;
#X obj -377 -69 mod 2;
#X floatatom -286 232 5 0 0 0 - - -;
#X obj -409 246 +;
#X obj -377 -147 mod 2;
#X obj -258 -153 sin;
#X obj -258 -123 *;
#X obj -258 -180 /;
#X obj -258 -101 abs;
#X floatatom 113 216 5 0 0 1 angle_sin_div - -;
#X floatatom 113 235 5 0 0 1 angle_sin_multi - -;
#X obj -258 -56 int;
#X obj -258 -81 +;
#X floatatom 113 254 5 0 0 1 angle_sin_offset - -;
#X floatatom -258 -34 5 0 0 1 angle - -;
#X obj -157 100 random 5;
#X obj -157 40 mod 4;
#X obj -157 60 == 0;
#X obj -157 80 route 1;
#X obj -157 119 + 1;
#X floatatom -157 139 0 0 0 1 step_amount - -;
#X floatatom 195 273 5 0 0 1 step_change_freq - -;
#X floatatom 195 291 5 0 0 1 step_max - -;
#X msg -288 198 8;
#X obj -446 530 mod 15;
#X floatatom -494 242 5 0 0 0 - - -;
#X obj -507 297 clip 0 15;
#X floatatom -513 329 5 0 0 0 - - -;
#X obj -501 265 abs;
#X obj -12 -243 loadbang;
#X msg -18 -211 3;
#X msg 67 -211 1;
#X msg 25 -212 2;
#X obj -435 665 tabwrite sandmaker;
#X obj -330 638 mod 50;
#X floatatom 105 291 3 0 0 1 main_offset - -;
#X obj -474 -63 s angletrigger;
#X obj -474 -92 bng 15 250 50 0 empty empty empty 17 7 0 10 -262144
-1 -1;
#X obj -181 349 == 49;
#X obj -180 372 route 1;
#X obj -222 292 +;
#X obj -180 413 random 5;
#X obj 267 -189 bng 15 250 50 0 empty empty empty 17 7 0 10 -262144
-1 -1;
#X msg 222 -157 12;
#X msg 268 -151 2;
#X msg 306 -151 7;
#X obj 311 224 bng 15 250 50 0 empty empty empty 17 7 0 10 -262144
-1 -1;
#X obj -221 749 outlet;
#X floatatom 266 243 2 1 15 1 mod - -;
#X msg 108 -210 14;
#X connect 2 0 23 0;
#X connect 3 0 78 0;
#X connect 4 0 8 0;
#X connect 4 0 9 0;
#X connect 4 0 34 0;
#X connect 5 0 4 1;
#X connect 6 0 4 1;
#X connect 7 0 4 0;
#X connect 8 0 5 0;
#X connect 9 0 6 0;
#X connect 10 0 64 0;
#X connect 10 0 3 0;
#X connect 11 0 9 1;
#X connect 12 0 8 1;
#X connect 13 0 14 0;
#X connect 14 0 15 0;
#X connect 14 1 16 0;
#X connect 15 0 17 0;
#X connect 15 0 18 0;
#X connect 16 0 19 0;
#X connect 16 0 20 0;
#X connect 17 0 12 0;
#X connect 18 0 11 0;
#X connect 19 0 11 0;
#X connect 20 0 12 0;
#X connect 23 0 7 0;
#X connect 23 0 26 0;
#X connect 24 0 5 1;
#X connect 24 0 6 1;
#X connect 26 0 27 0;
#X connect 26 0 35 0;
#X connect 26 0 38 0;
#X connect 26 0 47 0;
#X connect 26 0 65 0;
#X connect 27 0 26 1;
#X connect 28 0 29 0;
#X connect 29 0 30 0;
#X connect 29 0 68 0;
#X connect 30 0 31 0;
#X connect 30 0 32 0;
#X connect 31 0 30 1;
#X connect 32 0 13 0;
#X connect 33 0 34 1;
#X connect 34 0 56 0;
#X connect 34 0 55 0;
#X connect 35 0 28 0;
#X connect 36 0 37 0;
#X connect 37 0 39 0;
#X connect 38 0 36 0;
#X connect 39 0 43 0;
#X connect 40 0 38 1;
#X connect 41 0 37 1;
#X connect 42 0 45 0;
#X connect 43 0 42 0;
#X connect 44 0 43 1;
#X connect 45 0 35 1;
#X connect 46 0 50 0;
#X connect 47 0 48 0;
#X connect 48 0 49 0;
#X connect 49 0 46 0;
#X connect 50 0 51 0;
#X connect 51 0 24 0;
#X connect 52 0 47 1;
#X connect 53 0 46 1;
#X connect 54 0 4 0;
#X connect 55 0 10 0;
#X connect 56 0 59 0;
#X connect 57 0 58 0;
#X connect 59 0 57 0;
#X connect 60 0 61 0;
#X connect 60 0 63 0;
#X connect 60 0 62 0;
#X connect 60 0 80 0;
#X connect 61 0 40 0;
#X connect 61 0 41 0;
#X connect 62 0 44 0;
#X connect 63 0 52 0;
#X connect 63 0 53 0;
#X connect 65 0 64 1;
#X connect 65 0 69 0;
#X connect 66 0 3 1;
#X connect 68 0 67 0;
#X connect 69 0 70 0;
#X connect 70 0 72 0;
#X connect 73 0 74 0;
#X connect 73 0 76 0;
#X connect 73 0 75 0;
#X connect 74 0 40 0;
#X connect 75 0 41 0;
#X connect 75 0 52 0;
#X connect 75 0 53 0;
#X connect 76 0 44 0;
#X connect 77 0 73 0;
#X connect 79 0 55 1;
#X connect 80 0 79 0;
#X coords 0 -1 1 1 230 210 1 100 100;
#X restore 903 614 pd chaos;
#N canvas 1 85 1600 846 baliarpg 0;
#X obj 100 100 cnv 15 400 270 empty empty empty 20 12 0 14 -147521
-66577 0;
#X obj -13 -268 int;
#X obj 11 -268 + 1;
#X obj -13 -290 bng 15 250 50 0 empty empty empty 17 7 0 10 -262144
-1 -1;
#X floatatom -13 -243 5 0 0 0 - - -;
#X obj 111 209 vradio 15 1 0 9 empty empty empty 0 -8 0 10 -229633
-1 -1 5;
#X obj -13 -374 mod 16;
#X obj 126 209 vradio 15 1 0 9 empty empty empty 0 -8 0 10 -230145
-1 -1 5;
#X obj 141 209 vradio 15 1 0 9 empty empty empty 0 -8 0 10 -229633
-1 -1 5;
#X obj 156 209 vradio 15 1 0 9 empty empty empty 0 -8 0 10 -230145
-1 -1 5;
#X obj 172 209 vradio 15 1 0 9 empty empty empty 0 -8 0 10 -229633
-1 -1 5;
#X obj 187 209 vradio 15 1 0 9 empty empty empty 0 -8 0 10 -230145
-1 -1 5;
#X obj 202 209 vradio 15 1 0 9 empty empty empty 0 -8 0 10 -229633
-1 -1 5;
#X obj 217 209 vradio 15 1 0 9 empty empty empty 0 -8 0 10 -230145
-1 -1 5;
#X obj -97 -115 sin;
#X obj -97 -91 *;
#X floatatom 147 153 2 0 0 0 - - -;
#X obj -97 -66 +;
#X floatatom 147 170 2 0 0 0 - - -;
#X floatatom -95 -34 5 0 0 0 - - -;
#X obj -95 -13 int;
#X obj -97 -162 /;
#X floatatom 147 119 2 0 0 0 - - -;
#X obj -97 -137 +;
#X floatatom 147 136 3 0 0 0 - - -;
#X obj 14 -119 sin;
#X obj 14 -95 *;
#X floatatom 168 152 2 0 0 0 - - -;
#X obj 14 -70 +;
#X floatatom 169 169 2 0 0 0 - - -;
#X floatatom 16 -38 5 0 0 0 - - -;
#X obj 16 -17 int;
#X obj 14 -166 /;
#X floatatom 167 119 2 0 0 0 - - -;
#X obj 14 -141 +;
#X floatatom 168 136 3 0 0 0 - - -;
#X obj 130 -122 sin;
#X obj 130 -98 *;
#X floatatom 189 152 2 0 0 0 - - -;
#X obj 130 -73 +;
#X floatatom 190 169 2 0 0 0 - - -;
#X floatatom 132 -41 5 0 0 0 - - -;
#X obj 132 -20 int;
#X obj 130 -169 /;
#X floatatom 188 118 2 0 0 0 - - -;
#X obj 130 -144 +;
#X floatatom 189 135 3 0 0 0 - - -;
#X obj 244 -123 sin;
#X obj 244 -99 *;
#X floatatom 211 152 2 0 0 0 - - -;
#X obj 244 -74 +;
#X floatatom 211 169 2 0 0 0 - - -;
#X floatatom 246 -42 5 0 0 0 - - -;
#X obj 246 -21 int;
#X obj 244 -170 /;
#X floatatom 210 118 2 0 0 0 - - -;
#X obj 244 -145 +;
#X floatatom 210 135 3 0 0 0 - - -;
#X obj 366 -122 sin;
#X obj 366 -98 *;
#X floatatom 231 152 2 0 0 0 - - -;
#X obj 366 -73 +;
#X floatatom 231 169 2 0 0 0 - - -;
#X floatatom 366 -49 5 0 0 0 - - -;
#X obj 366 -28 int;
#X obj 366 -169 /;
#X floatatom 231 117 2 0 0 0 - - -;
#X obj 366 -144 +;
#X floatatom 231 134 3 0 0 0 - - -;
#X obj 477 -126 sin;
#X obj 477 -102 *;
#X floatatom 253 152 2 0 0 0 - - -;
#X obj 477 -77 +;
#X floatatom 253 169 2 0 0 0 - - -;
#X floatatom 479 -45 5 0 0 0 - - -;
#X obj 479 -24 int;
#X obj 477 -173 /;
#X floatatom 253 117 2 0 0 0 - - -;
#X obj 477 -148 +;
#X floatatom 253 134 3 0 0 0 - - -;
#X obj 593 -129 sin;
#X obj 593 -105 *;
#X floatatom 274 151 2 0 0 0 - - -;
#X obj 593 -80 +;
#X floatatom 274 168 2 0 0 0 - - -;
#X floatatom 595 -48 5 0 0 0 - - -;
#X obj 595 -27 int;
#X obj 593 -176 /;
#X floatatom 273 117 2 0 0 0 - - -;
#X obj 593 -151 +;
#X floatatom 273 134 3 0 0 0 - - -;
#X obj 707 -130 sin;
#X obj 707 -106 *;
#X floatatom 294 151 2 0 0 0 - - -;
#X obj 707 -81 +;
#X floatatom 294 168 2 0 0 0 - - -;
#X floatatom 709 -49 5 0 0 0 - - -;
#X obj 709 -28 int;
#X obj 707 -177 /;
#X floatatom 294 116 2 0 0 0 - - -;
#X obj 707 -152 +;
#X floatatom 294 134 3 0 0 0 - - -;
#X floatatom 324 120 5 1 16 1 common_speed - -;
#X msg 233 442 0;
#X floatatom 101 426 5 0 0 0 - - -;
#X floatatom 102 460 5 0 0 0 - - -;
#X floatatom 103 495 5 0 0 0 - - -;
#X floatatom 104 529 5 0 0 0 - - -;
#X floatatom 262 425 5 0 0 0 - - -;
#X floatatom 263 459 5 0 0 0 - - -;
#X floatatom 264 494 5 0 0 0 - - -;
#X floatatom 265 528 5 0 0 0 - - -;
#X msg 234 476 1;
#X msg 235 510 2;
#X msg 236 545 3;
#X msg 395 441 4;
#X msg 396 475 5;
#X msg 397 510 6;
#X msg 398 544 7;
#X floatatom 81 -418 5 0 0 0 - - -;
#X obj 81 -486 int;
#X obj 105 -486 + 1;
#X obj 81 -508 bng 15 250 50 0 empty empty empty 17 7 0 10 -262144
-1 -1;
#X obj -13 -352 == 0;
#X obj -13 -329 route 1;
#X obj -13 -309 bng 15 250 50 0 empty empty empty 17 7 0 10 -262144
-1 -1;
#X obj 81 -464 mod 8;
#X floatatom 366 183 3 0 0 1 change_freq - -;
#X msg 41 -424 64;
#X floatatom 324 140 5 1 8 1 common_range - -;
#X floatatom 324 161 5 0 8 1 common_origo - -;
#X obj 240 209 vradio 15 1 0 9 empty empty empty 0 -8 0 10 -233729
-1 -1 4;
#X obj 255 209 vradio 15 1 0 9 empty empty empty 0 -8 0 10 -234049
-1 -1 2;
#X obj 484 -410 - 4;
#X obj 484 -389 abs;
#X floatatom 484 -368 5 0 0 0 - - -;
#X obj 111 195 hradio 10 1 0 16 empty empty empty 0 -8 0 10 -233921
-1 -1 0;
#X text 242 341 O;
#X text 257 341 R;
#X text 271 190 s;
#X text 114 342 1;
#X text 129 342 2;
#X text 145 342 3;
#X text 160 342 4;
#X text 174 342 5;
#X text 188 341 6;
#X text 204 342 7;
#X text 218 342 8;
#X obj 671 -349 + 1;
#X floatatom 270 269 2 0 0 0 - - -;
#X obj 324 -379 + 1;
#X msg 107 -514 0;
#X obj 162 -408 mod 64;
#X text 146 100 1;
#X text 113 121 div;
#X text 106 137 offset;
#X text 108 155 multi;
#X text 108 172 origo;
#X text 167 100 2;
#X text 188 100 3;
#X text 208 100 4;
#X text 232 100 5;
#X text 253 99 6;
#X text 273 100 7;
#X text 295 99 8;
#N canvas 0 0 450 300 (subpatch) 0;
#X array arpgmatrix3 8 float 3;
#A 0 5 5 5 5 5 5 5 5;
#X coords 0 8 8 0 100 40 1 0 0;
#X restore 859 -165 graph;
#X obj 290 206 cnv 15 200 140 empty empty empty 20 12 0 14 -258113
-66577 0;
#N canvas 0 0 450 300 (subpatch) 0;
#X array graph3 64 float 1;
#A 0 5 6 3 5 6 6 6 3 3 6 3 5 6 6 6 3 3 6 3 5 6 6 6 3 3 6 3 5 6 6 6
3 3 6 3 5 6 6 6 3 3 6 3 5 6 6 6 3 3 6 3 5 6 6 6 3 3 6 3 5 6 6 6 4;
#X coords 0 8 63 0 200 140 1 0 0;
#X restore 289 206 graph;
#X obj 81 -565 inlet;
#X obj 132 -559 r stop;
#X obj 145 -533 bng 15 250 50 0 empty empty empty 17 7 0 10 -262144
-1 -1;
#X obj -24 -516 loadbang;
#X obj 87 -306 outlet;
#X floatatom 290 349 5 0 0 1 offset - -;
#X obj 86 -346 +;
#X obj 82 -388 tabwrite graph3;
#X obj 81 -443 tabread arpgmatrix3;
#X obj 101 442 tabwrite arpgmatrix3;
#X obj 102 476 tabwrite arpgmatrix3;
#X obj 103 511 tabwrite arpgmatrix3;
#X obj 104 545 tabwrite arpgmatrix3;
#X obj 262 441 tabwrite arpgmatrix3;
#X obj 263 475 tabwrite arpgmatrix3;
#X obj 264 510 tabwrite arpgmatrix3;
#X obj 265 544 tabwrite arpgmatrix3;
#X connect 1 0 2 0;
#X connect 1 0 4 0;
#X connect 2 0 1 1;
#X connect 3 0 1 0;
#X connect 4 0 21 0;
#X connect 4 0 32 0;
#X connect 4 0 43 0;
#X connect 4 0 54 0;
#X connect 4 0 65 0;
#X connect 4 0 76 0;
#X connect 4 0 87 0;
#X connect 4 0 98 0;
#X connect 5 0 104 0;
#X connect 6 0 123 0;
#X connect 7 0 105 0;
#X connect 8 0 106 0;
#X connect 9 0 107 0;
#X connect 10 0 108 0;
#X connect 11 0 109 0;
#X connect 12 0 110 0;
#X connect 13 0 111 0;
#X connect 14 0 15 0;
#X connect 15 0 17 0;
#X connect 16 0 15 1;
#X connect 17 0 19 0;
#X connect 18 0 17 1;
#X connect 19 0 20 0;
#X connect 20 0 5 0;
#X connect 21 0 23 0;
#X connect 22 0 21 1;
#X connect 23 0 14 0;
#X connect 24 0 23 1;
#X connect 25 0 26 0;
#X connect 26 0 28 0;
#X connect 27 0 26 1;
#X connect 28 0 30 0;
#X connect 29 0 28 1;
#X connect 30 0 31 0;
#X connect 31 0 7 0;
#X connect 32 0 34 0;
#X connect 33 0 32 1;
#X connect 34 0 25 0;
#X connect 35 0 34 1;
#X connect 36 0 37 0;
#X connect 37 0 39 0;
#X connect 38 0 37 1;
#X connect 39 0 41 0;
#X connect 40 0 39 1;
#X connect 41 0 42 0;
#X connect 42 0 8 0;
#X connect 43 0 45 0;
#X connect 44 0 43 1;
#X connect 45 0 36 0;
#X connect 46 0 45 1;
#X connect 47 0 48 0;
#X connect 48 0 50 0;
#X connect 49 0 48 1;
#X connect 50 0 52 0;
#X connect 51 0 50 1;
#X connect 52 0 53 0;
#X connect 53 0 9 0;
#X connect 54 0 56 0;
#X connect 55 0 54 1;
#X connect 56 0 47 0;
#X connect 57 0 56 1;
#X connect 58 0 59 0;
#X connect 59 0 61 0;
#X connect 60 0 59 1;
#X connect 61 0 63 0;
#X connect 62 0 61 1;
#X connect 63 0 64 0;
#X connect 64 0 10 0;
#X connect 65 0 67 0;
#X connect 66 0 65 1;
#X connect 67 0 58 0;
#X connect 68 0 67 1;
#X connect 69 0 70 0;
#X connect 70 0 72 0;
#X connect 71 0 70 1;
#X connect 72 0 74 0;
#X connect 73 0 72 1;
#X connect 74 0 75 0;
#X connect 75 0 11 0;
#X connect 76 0 78 0;
#X connect 77 0 76 1;
#X connect 78 0 69 0;
#X connect 79 0 78 1;
#X connect 80 0 81 0;
#X connect 81 0 83 0;
#X connect 82 0 81 1;
#X connect 83 0 85 0;
#X connect 84 0 83 1;
#X connect 85 0 86 0;
#X connect 86 0 12 0;
#X connect 87 0 89 0;
#X connect 88 0 87 1;
#X connect 89 0 80 0;
#X connect 90 0 89 1;
#X connect 91 0 92 0;
#X connect 92 0 94 0;
#X connect 93 0 92 1;
#X connect 94 0 96 0;
#X connect 95 0 94 1;
#X connect 96 0 97 0;
#X connect 97 0 13 0;
#X connect 98 0 100 0;
#X connect 99 0 98 1;
#X connect 100 0 91 0;
#X connect 101 0 100 1;
#X connect 102 0 22 0;
#X connect 102 0 33 0;
#X connect 102 0 44 0;
#X connect 102 0 55 0;
#X connect 102 0 66 0;
#X connect 102 0 77 0;
#X connect 102 0 88 0;
#X connect 102 0 99 0;
#X connect 103 0 177 1;
#X connect 104 0 103 0;
#X connect 104 0 177 0;
#X connect 105 0 112 0;
#X connect 105 0 178 0;
#X connect 106 0 113 0;
#X connect 106 0 179 0;
#X connect 107 0 114 0;
#X connect 107 0 180 0;
#X connect 108 0 115 0;
#X connect 108 0 181 0;
#X connect 109 0 116 0;
#X connect 109 0 182 0;
#X connect 110 0 117 0;
#X connect 110 0 183 0;
#X connect 111 0 118 0;
#X connect 111 0 184 0;
#X connect 112 0 178 1;
#X connect 113 0 179 1;
#X connect 114 0 180 1;
#X connect 115 0 181 1;
#X connect 116 0 182 1;
#X connect 117 0 183 1;
#X connect 118 0 184 1;
#X connect 119 0 174 0;
#X connect 119 0 175 0;
#X connect 120 0 121 0;
#X connect 120 0 6 0;
#X connect 120 0 126 0;
#X connect 120 0 152 0;
#X connect 121 0 120 1;
#X connect 122 0 120 0;
#X connect 123 0 124 0;
#X connect 124 0 125 0;
#X connect 125 0 3 0;
#X connect 126 0 176 0;
#X connect 127 0 6 1;
#X connect 128 0 127 0;
#X connect 129 0 93 0;
#X connect 129 0 82 0;
#X connect 129 0 71 0;
#X connect 129 0 60 0;
#X connect 129 0 49 0;
#X connect 129 0 38 0;
#X connect 129 0 27 0;
#X connect 129 0 16 0;
#X connect 130 0 95 0;
#X connect 130 0 84 0;
#X connect 130 0 73 0;
#X connect 130 0 62 0;
#X connect 130 0 51 0;
#X connect 130 0 40 0;
#X connect 130 0 29 0;
#X connect 130 0 18 0;
#X connect 131 0 148 0;
#X connect 132 0 133 0;
#X connect 133 0 134 0;
#X connect 134 0 135 0;
#X connect 135 0 129 0;
#X connect 136 0 150 0;
#X connect 148 0 130 0;
#X connect 150 0 102 0;
#X connect 151 0 120 0;
#X connect 152 0 175 1;
#X connect 168 0 122 0;
#X connect 169 0 170 0;
#X connect 170 0 151 0;
#X connect 171 0 128 0;
#X connect 173 0 174 1;
#X connect 174 0 172 0;
#X connect 176 0 119 0;
#X coords 0 -1 1 1 400 270 1 100 100;
#X restore 102 311 pd baliarpg;
#N canvas 44 135 1443 880 sinesumfactor 0;
#X obj 101 100 cnv 15 400 440 empty empty empty 20 12 0 14 -110853
-66577 0;
#X obj 105 121 cnv 15 390 160 empty empty empty 20 12 0 14 -174107
-66577 0;
#N canvas 1 83 450 300 (subpatch) 0;
#X array sinesumX 131 float 3;
#A 0 -0.121987 0 0.121987 0.242033 0.358245 0.468815 0.572066 0.666488
0.750767 0.823814 0.884785 0.933089 0.968399 0.990644 1 0.996877 0.981896
0.955858 0.919717 0.874546 0.821497 0.761771 0.696578 0.627108 0.554501
0.479815 0.404017 0.327955 0.252357 0.177823 0.104828 0.0337267 -0.0352314
-0.10189 -0.166164 -0.228023 -0.287464 -0.344493 -0.399103 -0.451255
-0.50086 -0.547771 -0.591767 -0.632558 -0.669777 -0.702994 -0.731721
-0.755428 -0.77356 -0.785561 -0.790894 -0.789066 -0.779651 -0.762315
-0.736836 -0.70312 -0.66122 -0.611341 -0.553848 -0.489267 -0.418276
-0.341697 -0.260482 -0.175689 -0.088463 -4.79307e-06 0.0884534 0.17568
0.260473 0.341689 0.418268 0.489259 0.553841 0.611335 0.661215 0.703116
0.736833 0.762313 0.779649 0.789065 0.790894 0.785562 0.773562 0.75543
0.731724 0.702998 0.669781 0.632562 0.591772 0.547776 0.500866 0.45126
0.399109 0.344499 0.28747 0.22803 0.166171 0.101897 0.0352388 -0.0337191
-0.10482 -0.177815 -0.252349 -0.327947 -0.404009 -0.479807 -0.554493
-0.627101 -0.696571 -0.761764 -0.821491 -0.87454 -0.919713 -0.955855
-0.981894 -0.996876 -1 -0.990645 -0.968403 -0.933094 -0.88479 -0.823821
-0.750775 -0.666497 -0.572077 -0.468827 -0.358257 -0.242046 -0.122
-1.3224e-05 0.121974;
#X coords 0 1 131 -1 150 60 1 0 0;
#X restore 110 214 graph;
#X floatatom -413 -22 5 0 0 0 - - -;
#X floatatom -363 -23 5 0 0 0 - - -;
#X floatatom -313 -27 5 0 0 0 - - -;
#X obj -843 486 int;
#X obj -811 484 + 1;
#X obj -432 -64 shuffle;
#X floatatom 110 139 3 0 0 1 + - -;
#X floatatom 110 158 3 0 0 1 -- - -;
#X obj -432 -84 bng 15 250 50 0 empty empty empty 17 7 0 10 -262144
-1 -1;
#X obj -381 -67 shuffle;
#X floatatom 163 139 3 0 0 1 + - -;
#X floatatom 163 158 3 0 0 1 -- - -;
#X obj -382 -87 bng 15 250 50 0 empty empty empty 17 7 0 10 -262144
-1 -1;
#X obj -324 -62 shuffle;
#X floatatom 220 141 3 0 0 1 + - -;
#X floatatom 220 160 3 0 0 1 -- - -;
#X obj -326 -81 bng 15 250 50 0 empty empty empty 17 7 0 10 -262144
-1 -1;
#X obj -361 -138 bng 15 250 50 0 empty empty empty 17 7 0 10 -262144
-1 -1;
#X msg -795 409 0;
#X floatatom -875 555 5 0 0 0 - - -;
#X obj -560 751 == 0;
#X obj -560 776 route 1;
#X obj -160 -33 mod 5;
#X obj -160 -10 == 0;
#X obj -160 14 route 1;
#X obj -362 24 pack f f f;
#X obj -761 761 + 25;
#X obj -761 734 mod 50;
#N canvas 0 0 450 300 (subpatch) 0;
#X array graphX 50 float 3;
#A 0 0.125461 0.0403012 -0.0397227 -0.113666 -0.180807 -0.240645 -0.292897
-0.337487 -0.37452 -0.404271 -0.42715 -0.443677 -0.454452 -0.460126
-0.461369 -0.45885 -0.591767 -1 -1 -1 -1 -1 -1 -1 -1 -1 -1 -1 -1 -1
-1 -1 -1 -1 -1 -1 -1 -1 -1 -1 -1 -1 -1 -1 -1 -1 -1 -1 -1 0.214599;
#X coords 0 1 49 -1 200 70 1 0 0;
#X restore 289 206 graph;
#X floatatom 139 181 5 1 32 1 factorization_speed - -;
#X msg -560 798 \; graphX const -1;
#X obj -666 861 tabwrite graphX;
#X msg -362 49 \; sinesumX sinesum 131 1 \$1 \$2 \$3;
#X msg -503 55 \; sinesumX normalize 1;
#X obj -802 828 tabread sinesumX;
#X text 107 120 Factor 1;
#X text 160 120 Factor 2;
#X text 217 121 Factor 3;
#X obj -463 -36 bng 15 250 50 0 empty empty empty 17 7 0 10 -262144
-1 -1;
#X obj 116 182 bng 15 250 50 0 empty empty empty 17 7 0 10 -262144
-1 -1;
#X obj 105 286 cnv 15 390 160 empty empty empty 20 12 0 14 -174363
-66577 0;
#N canvas 1 83 450 300 (subpatch) 0;
#X array sinesumY 131 float 3;
#A 0 -0.148487 0 0.148487 0.293615 0.432115 0.560891 0.677104 0.778242
0.86219 0.927273 0.972302 0.996598 1 0.982863 0.946039 0.890845 0.819015
0.732651 0.634151 0.526144 0.411409 0.292799 0.173162 0.0552668 -0.0582704
-0.165048 -0.262934 -0.350115 -0.425129 -0.486887 -0.534689 -0.568218
-0.587534 -0.593051 -0.585501 -0.565903 -0.535514 -0.495778 -0.44828
-0.394688 -0.336704 -0.276016 -0.214248 -0.152929 -0.0934521 -0.0370502
0.0152217 0.0624998 0.104116 0.139598 0.168655 0.191173 0.207194 0.216893
0.220562 0.218583 0.211407 0.199537 0.183503 0.163851 0.141129 0.11588
0.088633 0.0599043 0.0301964 1.63666e-06 -0.0301932 -0.0599012 -0.08863
-0.115877 -0.141126 -0.163848 -0.183501 -0.199535 -0.211406 -0.218582
-0.220562 -0.216894 -0.207195 -0.191175 -0.168658 -0.139601 -0.104121
-0.0625047 -0.015227 0.0370443 0.0934458 0.152923 0.214242 0.276009
0.336698 0.394682 0.448275 0.495774 0.53551 0.565901 0.5855 0.593051
0.587536 0.568221 0.534693 0.486893 0.425136 0.350124 0.262944 0.165059
0.0582823 -0.0552543 -0.173149 -0.292786 -0.411397 -0.526132 -0.63414
-0.732641 -0.819007 -0.890838 -0.946034 -0.98286 -0.999999 -0.996599
-0.972306 -0.927279 -0.862198 -0.778252 -0.677115 -0.560904 -0.43213
-0.293631 -0.148503 -1.61148e-05 0.148471;
#X coords 0 1 131 -1 150 60 1 0 0;
#X restore 110 379 graph;
#X floatatom -427 194 5 0 0 0 - - -;
#X floatatom -377 193 5 0 0 0 - - -;
#X floatatom -327 189 5 0 0 0 - - -;
#X obj -446 152 shuffle;
#X floatatom 110 304 3 0 0 1 + - -;
#X floatatom 110 323 3 0 0 1 -- - -;
#X obj -446 132 bng 15 250 50 0 empty empty empty 17 7 0 10 -262144
-1 -1;
#X obj -395 149 shuffle;
#X floatatom 163 304 3 0 0 1 + - -;
#X floatatom 163 323 3 0 0 1 -- - -;
#X obj -396 129 bng 15 250 50 0 empty empty empty 17 7 0 10 -262144
-1 -1;
#X obj -338 154 shuffle;
#X floatatom 220 306 3 0 0 1 + - -;
#X floatatom 220 325 3 0 0 1 -- - -;
#X obj -340 135 bng 15 250 50 0 empty empty empty 17 7 0 10 -262144
-1 -1;
#X obj -376 101 bng 15 250 50 0 empty empty empty 17 7 0 10 -262144
-1 -1;
#X obj -170 179 mod 5;
#X obj -174 206 == 0;
#X obj -174 228 route 1;
#X obj -376 240 pack f f f;
#N canvas 0 0 450 300 (subpatch) 0;
#X array graphY 50 float 3;
#A 0 -0.306457 -0.345832 -0.368256 -0.374292 -0.751855 -0.747273 -0.72445
-0.684817 -0.630205 -0.562769 -0.484907 -0.399173 -0.308194 -0.21458
-0.120851 -0.0293595 0.0577658 0.138673 0.211824 0.276018 0.330398
0.374457 0.40801 0.431178 0.444347 0.448128 0.443307 0.430794 0.411577
0.386669 0.357068 0.323714 0.287461 0.249055 0.20912 0.168153 0.088633
-1 -1 -1 -1 -1 -1 -1 -1 -1 -1 -1 -1 -0.250215;
#X coords 0 1 49 -1 200 70 1 0 0;
#X restore 289 371 graph;
#X floatatom 139 346 5 1 32 1 factorization_speed - -;
#X text 107 285 Factor 1;
#X text 160 285 Factor 2;
#X text 217 286 Factor 3;
#X obj -470 174 bng 15 250 50 0 empty empty empty 17 7 0 10 -262144
-1 -1;
#X obj 116 347 bng 15 250 50 0 empty empty empty 17 7 0 10 -262144
-1 -1;
#X msg -517 271 \; sinesumY normalize 1;
#X msg -375 265 \; sinesumY sinesum 131 1 \$1 \$2 \$3;
#X obj -135 736 == 0;
#X obj -135 761 route 1;
#X obj -336 746 + 25;
#X obj -336 719 mod 50;
#X obj -376 813 tabread sinesumY;
#X obj -240 847 tabwrite graphY;
#X obj -441 1026 *;
#X obj -879 343 inlet;
#X obj -865 416 bng 15 250 50 0 empty empty empty 17 7 0 10 -262144
-1 -1;
#X floatatom 232 476 10 0 0 1 overcome - -;
#X msg -134 784 \; graphY const -1;
#X text 223 101 3D Sinesum Vector Sequencer;
#X obj 111 466 vradio 18 1 0 2 empty empty empty 0 -8 0 10 -103873
-1 -1 1;
#X text 131 465 1D;
#X text 131 483 2D;
#X text 110 445 Dimension;
#X obj -577 1383 spigot 1;
#X floatatom -532 1356 1 0 0 0 - - -;
#X obj -380 1382 spigot 1;
#X floatatom -335 1355 1 0 0 0 - - -;
#X floatatom -375 1415 5 0 0 0 - - -;
#X text -565 1362 1D;
#X text -367 1364 2D;
#X obj 157 1304 bng 15 250 50 0 empty empty empty 17 7 0 10 -262144
-1 -1;
#X obj 186 1307 bng 15 250 50 0 empty empty empty 17 7 0 10 -262144
-1 -1;
#X msg 113 1338 0;
#X msg 183 1339 0;
#X msg 140 1338 1;
#X msg 209 1339 1;
#X floatatom 536 598 5 0 0 0 - - -;
#X floatatom -802 877 5 0 0 0 - - -;
#X floatatom -376 869 5 0 0 0 - - -;
#X floatatom 367 138 6 0 0 1 max - -;
#X floatatom 367 157 6 0 0 1 base - -;
#X obj -802 899 *;
#X floatatom 367 176 6 0 0 1 overcome - -;
#X floatatom 371 300 6 0 0 1 max - -;
#X floatatom 371 319 6 0 0 1 base - -;
#X floatatom 371 338 6 0 0 1 overcome - -;
#X obj -802 920 +;
#X obj -802 942 int;
#X floatatom -778 1016 5 0 0 0 - - -;
#X obj -376 891 *;
#X obj -376 912 +;
#X obj -376 934 int;
#X floatatom -376 956 5 0 0 0 - - -;
#X floatatom 275 316 5 0 0 1 offset - -;
#X floatatom 273 149 5 0 0 1 offset - -;
#X obj -486 622 +;
#X obj -782 661 +;
#X obj 163 466 vradio 18 1 0 2 empty empty empty 0 -8 0 10 -103873
-1 -1 0;
#X obj -395 1076 +;
#X obj -380 1176 spigot 1;
#X obj -442 1175 spigot 1;
#X floatatom -397 1150 1 0 0 0 - - -;
#X floatatom -335 1150 1 0 0 0 - - -;
#X floatatom 289 1032 5 0 0 0 - - -;
#X floatatom 290 1076 5 0 0 0 - - -;
#X obj 289 1053 != 1;
#X text 183 464 SUM;
#X text 183 482 MULTI;
#X obj 161 1269 route 0 1;
#X obj -380 1449 outlet;
#X connect 3 0 28 0;
#X connect 4 0 28 1;
#X connect 4 0 41 0;
#X connect 5 0 28 2;
#X connect 5 0 41 0;
#X connect 6 0 7 0;
#X connect 6 0 22 0;
#X connect 6 0 25 0;
#X connect 6 0 61 0;
#X connect 6 0 123 0;
#X connect 6 0 122 0;
#X connect 7 0 6 1;
#X connect 8 0 3 0;
#X connect 9 0 8 1;
#X connect 10 0 8 2;
#X connect 11 0 8 0;
#X connect 12 0 4 0;
#X connect 13 0 12 1;
#X connect 14 0 12 2;
#X connect 15 0 12 0;
#X connect 16 0 5 0;
#X connect 17 0 16 1;
#X connect 18 0 16 2;
#X connect 19 0 16 0;
#X connect 20 0 11 0;
#X connect 20 0 15 0;
#X connect 20 0 19 0;
#X connect 21 0 6 0;
#X connect 23 0 24 0;
#X connect 24 0 33 0;
#X connect 25 0 26 0;
#X connect 26 0 27 0;
#X connect 27 0 20 0;
#X connect 28 0 35 0;
#X connect 28 0 36 0;
#X connect 29 0 37 0;
#X connect 30 0 23 0;
#X connect 30 0 29 0;
#X connect 30 0 34 1;
#X connect 32 0 25 1;
#X connect 37 0 34 0;
#X connect 37 0 104 0;
#X connect 41 0 3 0;
#X connect 42 0 20 0;
#X connect 45 0 64 0;
#X connect 46 0 64 1;
#X connect 46 0 70 0;
#X connect 47 0 64 2;
#X connect 47 0 70 0;
#X connect 48 0 45 0;
#X connect 49 0 48 1;
#X connect 50 0 48 2;
#X connect 51 0 48 0;
#X connect 52 0 46 0;
#X connect 53 0 52 1;
#X connect 54 0 52 2;
#X connect 55 0 52 0;
#X connect 56 0 47 0;
#X connect 57 0 56 1;
#X connect 58 0 56 2;
#X connect 59 0 56 0;
#X connect 60 0 51 0;
#X connect 60 0 55 0;
#X connect 60 0 59 0;
#X connect 61 0 62 0;
#X connect 62 0 63 0;
#X connect 63 0 60 0;
#X connect 64 0 73 0;
#X connect 64 0 72 0;
#X connect 66 0 61 1;
#X connect 70 0 45 0;
#X connect 71 0 60 0;
#X connect 74 0 75 0;
#X connect 75 0 84 0;
#X connect 76 0 78 0;
#X connect 77 0 74 0;
#X connect 77 0 76 0;
#X connect 77 0 79 1;
#X connect 78 0 79 0;
#X connect 78 0 105 0;
#X connect 80 0 127 0;
#X connect 81 0 82 0;
#X connect 82 0 6 0;
#X connect 86 0 135 0;
#X connect 90 0 94 0;
#X connect 91 0 90 1;
#X connect 92 0 94 0;
#X connect 93 0 92 1;
#X connect 94 0 103 0;
#X connect 94 0 136 0;
#X connect 97 0 99 0;
#X connect 97 0 101 0;
#X connect 98 0 100 0;
#X connect 98 0 102 0;
#X connect 99 0 93 0;
#X connect 100 0 91 0;
#X connect 101 0 91 0;
#X connect 102 0 93 0;
#X connect 103 0 83 0;
#X connect 104 0 108 0;
#X connect 105 0 116 0;
#X connect 106 0 108 1;
#X connect 107 0 113 1;
#X connect 108 0 113 0;
#X connect 110 0 116 1;
#X connect 111 0 117 1;
#X connect 113 0 114 0;
#X connect 114 0 115 0;
#X connect 115 0 109 0;
#X connect 115 0 90 0;
#X connect 115 0 80 0;
#X connect 115 0 125 0;
#X connect 116 0 117 0;
#X connect 117 0 118 0;
#X connect 118 0 119 0;
#X connect 119 0 112 0;
#X connect 119 0 80 1;
#X connect 119 0 125 1;
#X connect 120 0 122 1;
#X connect 121 0 123 1;
#X connect 122 0 77 0;
#X connect 123 0 30 0;
#X connect 124 0 130 0;
#X connect 125 0 126 0;
#X connect 126 0 92 0;
#X connect 127 0 92 0;
#X connect 128 0 127 1;
#X connect 129 0 126 1;
#X connect 130 0 132 0;
#X connect 130 0 128 0;
#X connect 131 0 129 0;
#X connect 132 0 131 0;
#X connect 135 0 97 0;
#X connect 135 1 98 0;
#X coords 0 -1 1 1 400 440 1 100 100;
#X restore 502 311 pd sinesumfactor;
#X floatatom 571 1009 5 0 0 2 vector - -;
#X floatatom 85 952 4 0 0 2 baliarpg - -;
#X floatatom 938 976 5 0 0 2 weibull - -;
#X floatatom 743 984 5 0 0 2 ikeda - -;
#X floatatom 854 984 5 0 0 2 dejong - -;
#X floatatom 267 942 5 0 0 2 cube - -;
#X floatatom 388 964 5 0 0 2 sandmaker - -;
#N canvas 0 83 1680 967 matrix 0;
#X obj 100 101 cnv 15 1070 200 empty empty empty 20 12 0 14 -172097
-66577 0;
#X obj 173 126 hradio 15 1 0 64 empty empty empty 0 -8 0 10 -258113
-1 -1 0;
#X obj 173 143 vradio 15 1 0 7 empty empty empty 0 -8 0 10 -210369
-1 -1 4;
#X obj 173 249 tgl 15 0 empty empty empty 17 7 0 10 -260097 -1 -1 1
1;
#N canvas 0 0 450 300 (subpatch) 0;
#X array formmatrix 64 float 3;
#A 0 4 4 6 6 3 3 4 4 4 4 4 4 4 4 4 4 4 4 4 4 4 4 4 4 4 4 4 4 4 4 4
4 4 4 4 4 4 4 4 4 4 4 4 4 4 4 4 4 4 4 4 4 4 4 4 4 4 4 4 4 4 4 4 4;
#X coords 0 7 63 0 100 40 1 0 0;
#X restore 1541 35 graph;
#N canvas 0 0 450 300 (subpatch) 0;
#X array vectormatrix 64 float 3;
#A 0 1 1 1 1 1 1 1 1 1 1 1 1 1 1 1 1 1 1 1 1 1 1 1 1 1 1 1 1 1 1 1
1 1 1 1 1 1 1 1 1 1 1 1 1 1 1 1 1 1 1 1 1 1 1 1 1 1 1 1 1 1 1 1 1;
#X coords 0 1 63 0 100 40 1 0 0;
#X restore 1540 98 graph;
#X text 131 246 Vector;
#X text 119 155 BaliArpg;
#X text 142 170 Cube;
#X text 114 183 SandMaker;
#X text 137 198 Ikeda;
#X text 132 212 Dejong;
#X text 128 229 Weibull;
#X obj -110 509 tabwrite formmatrix;
#X floatatom -110 493 5 0 0 0 - - -;
#X msg 26 509 0;
#X floatatom -111 527 5 0 0 0 - - -;
#X msg 25 543 0;
#X obj -111 543 tabwrite vectormatrix;
#X obj 188 143 vradio 15 1 0 7 empty empty empty 0 -8 0 10 -210369
-1 -1 4;
#X obj 188 249 tgl 15 0 empty empty empty 17 7 0 10 -260097 -1 -1 1
1;
#X obj -112 578 tabwrite formmatrix;
#X floatatom -112 562 5 0 0 0 - - -;
#X floatatom -113 596 5 0 0 0 - - -;
#X obj -113 612 tabwrite vectormatrix;
#X msg 24 578 1;
#X msg 24 613 1;
#X obj 203 143 vradio 15 1 0 7 empty empty empty 0 -8 0 10 -210369
-1 -1 6;
#X obj 203 249 tgl 15 0 empty empty empty 17 7 0 10 -260097 -1 -1 1
1;
#X obj -114 652 tabwrite formmatrix;
#X floatatom -114 636 5 0 0 0 - - -;
#X floatatom -115 670 5 0 0 0 - - -;
#X obj -115 686 tabwrite vectormatrix;
#X obj 218 143 vradio 15 1 0 7 empty empty empty 0 -8 0 10 -210369
-1 -1 6;
#X obj 218 249 tgl 15 0 empty empty empty 17 7 0 10 -260097 -1 -1 1
1;
#X obj -116 721 tabwrite formmatrix;
#X floatatom -116 705 5 0 0 0 - - -;
#X floatatom -117 739 5 0 0 0 - - -;
#X obj -117 755 tabwrite vectormatrix;
#X msg 22 652 2;
#X msg 21 686 2;
#X msg 19 721 3;
#X msg 20 756 3;
#X obj 233 143 vradio 15 1 0 7 empty empty empty 0 -8 0 10 -210369
-1 -1 3;
#X obj 233 249 tgl 15 0 empty empty empty 17 7 0 10 -260097 -1 -1 1
1;
#X obj -117 795 tabwrite formmatrix;
#X floatatom -117 779 5 0 0 0 - - -;
#X floatatom -118 813 5 0 0 0 - - -;
#X obj -118 829 tabwrite vectormatrix;
#X obj 248 143 vradio 15 1 0 7 empty empty empty 0 -8 0 10 -210369
-1 -1 3;
#X obj 248 249 tgl 15 0 empty empty empty 17 7 0 10 -260097 -1 -1 1
1;
#X obj -119 864 tabwrite formmatrix;
#X floatatom -119 848 5 0 0 0 - - -;
#X floatatom -120 882 5 0 0 0 - - -;
#X obj -120 898 tabwrite vectormatrix;
#X obj 263 143 vradio 15 1 0 7 empty empty empty 0 -8 0 10 -210369
-1 -1 0;
#X obj 263 249 tgl 15 0 empty empty empty 17 7 0 10 -260097 -1 -1 1
1;
#X obj -121 938 tabwrite formmatrix;
#X floatatom -121 922 5 0 0 0 - - -;
#X floatatom -122 956 5 0 0 0 - - -;
#X obj -122 972 tabwrite vectormatrix;
#X obj 278 143 vradio 15 1 0 7 empty empty empty 0 -8 0 10 -210369
-1 -1 0;
#X obj 278 249 tgl 15 0 empty empty empty 17 7 0 10 -260097 -1 -1 1
1;
#X obj -123 1007 tabwrite formmatrix;
#X floatatom -123 991 5 0 0 0 - - -;
#X floatatom -124 1025 5 0 0 0 - - -;
#X obj -124 1041 tabwrite vectormatrix;
#X msg 19 795 4;
#X msg 18 829 4;
#X msg 17 864 5;
#X msg 17 899 5;
#X msg 15 938 6;
#X msg 14 972 6;
#X msg 12 1007 7;
#X msg 13 1042 7;
#X obj 293 143 vradio 15 1 0 7 empty empty empty 0 -8 0 10 -210369
-1 -1 0;
#X obj 293 249 tgl 15 0 empty empty empty 17 7 0 10 -260097 -1 -1 1
1;
#X obj 47 508 tabwrite formmatrix;
#X floatatom 47 492 5 0 0 0 - - -;
#X floatatom 46 526 5 0 0 0 - - -;
#X obj 46 542 tabwrite vectormatrix;
#X obj 308 143 vradio 15 1 0 7 empty empty empty 0 -8 0 10 -210369
-1 -1 0;
#X obj 308 249 tgl 15 0 empty empty empty 17 7 0 10 -260097 -1 -1 1
1;
#X obj 45 577 tabwrite formmatrix;
#X floatatom 45 561 5 0 0 0 - - -;
#X floatatom 44 595 5 0 0 0 - - -;
#X obj 44 611 tabwrite vectormatrix;
#X obj 323 143 vradio 15 1 0 7 empty empty empty 0 -8 0 10 -210369
-1 -1 0;
#X obj 323 249 tgl 15 0 empty empty empty 17 7 0 10 -260097 -1 -1 1
1;
#X obj 43 651 tabwrite formmatrix;
#X floatatom 43 635 5 0 0 0 - - -;
#X floatatom 42 669 5 0 0 0 - - -;
#X obj 42 685 tabwrite vectormatrix;
#X obj 338 143 vradio 15 1 0 7 empty empty empty 0 -8 0 10 -210369
-1 -1 0;
#X obj 338 249 tgl 15 0 empty empty empty 17 7 0 10 -260097 -1 -1 1
1;
#X obj 41 720 tabwrite formmatrix;
#X floatatom 41 704 5 0 0 0 - - -;
#X floatatom 40 738 5 0 0 0 - - -;
#X obj 40 754 tabwrite vectormatrix;
#X obj 353 143 vradio 15 1 0 7 empty empty empty 0 -8 0 10 -210369
-1 -1 0;
#X obj 353 249 tgl 15 0 empty empty empty 17 7 0 10 -260097 -1 -1 1
1;
#X obj 40 794 tabwrite formmatrix;
#X floatatom 40 778 5 0 0 0 - - -;
#X floatatom 39 812 5 0 0 0 - - -;
#X obj 39 828 tabwrite vectormatrix;
#X obj 368 143 vradio 15 1 0 7 empty empty empty 0 -8 0 10 -210369
-1 -1 0;
#X obj 368 249 tgl 15 0 empty empty empty 17 7 0 10 -260097 -1 -1 1
1;
#X obj 38 863 tabwrite formmatrix;
#X floatatom 38 847 5 0 0 0 - - -;
#X floatatom 37 881 5 0 0 0 - - -;
#X obj 37 897 tabwrite vectormatrix;
#X obj 383 143 vradio 15 1 0 7 empty empty empty 0 -8 0 10 -210369
-1 -1 0;
#X obj 383 249 tgl 15 0 empty empty empty 17 7 0 10 -260097 -1 -1 1
1;
#X obj 36 937 tabwrite formmatrix;
#X floatatom 36 921 5 0 0 0 - - -;
#X floatatom 35 955 5 0 0 0 - - -;
#X obj 35 971 tabwrite vectormatrix;
#X obj 398 143 vradio 15 1 0 7 empty empty empty 0 -8 0 10 -210369
-1 -1 0;
#X obj 398 249 tgl 15 0 empty empty empty 17 7 0 10 -260097 -1 -1 1
1;
#X obj 34 1006 tabwrite formmatrix;
#X floatatom 34 990 5 0 0 0 - - -;
#X floatatom 33 1024 5 0 0 0 - - -;
#X obj 33 1040 tabwrite vectormatrix;
#X msg 183 508 8;
#X msg 182 542 8;
#X msg 181 577 9;
#X msg 181 612 9;
#X msg 179 651 10;
#X msg 178 685 10;
#X msg 176 720 11;
#X msg 177 755 11;
#X msg 176 794 12;
#X msg 175 828 12;
#X msg 174 863 13;
#X msg 174 898 13;
#X msg 172 937 14;
#X msg 171 971 14;
#X msg 169 1006 15;
#X msg 170 1041 15;
#X obj 413 143 vradio 15 1 0 7 empty empty empty 0 -8 0 10 -210369
-1 -1 0;
#X obj 413 249 tgl 15 0 empty empty empty 17 7 0 10 -260097 -1 -1 1
1;
#X obj 207 505 tabwrite formmatrix;
#X floatatom 207 489 5 0 0 0 - - -;
#X floatatom 206 523 5 0 0 0 - - -;
#X obj 206 539 tabwrite vectormatrix;
#X obj 428 143 vradio 15 1 0 7 empty empty empty 0 -8 0 10 -210369
-1 -1 0;
#X obj 428 249 tgl 15 0 empty empty empty 17 7 0 10 -260097 -1 -1 1
1;
#X obj 205 574 tabwrite formmatrix;
#X floatatom 205 558 5 0 0 0 - - -;
#X floatatom 204 592 5 0 0 0 - - -;
#X obj 204 608 tabwrite vectormatrix;
#X obj 443 143 vradio 15 1 0 7 empty empty empty 0 -8 0 10 -210369
-1 -1 0;
#X obj 443 249 tgl 15 0 empty empty empty 17 7 0 10 -260097 -1 -1 1
1;
#X obj 203 648 tabwrite formmatrix;
#X floatatom 203 632 5 0 0 0 - - -;
#X floatatom 202 666 5 0 0 0 - - -;
#X obj 202 682 tabwrite vectormatrix;
#X obj 458 143 vradio 15 1 0 7 empty empty empty 0 -8 0 10 -210369
-1 -1 0;
#X obj 458 249 tgl 15 0 empty empty empty 17 7 0 10 -260097 -1 -1 1
1;
#X obj 201 717 tabwrite formmatrix;
#X floatatom 201 701 5 0 0 0 - - -;
#X floatatom 200 735 5 0 0 0 - - -;
#X obj 200 751 tabwrite vectormatrix;
#X obj 473 143 vradio 15 1 0 7 empty empty empty 0 -8 0 10 -210369
-1 -1 0;
#X obj 473 249 tgl 15 0 empty empty empty 17 7 0 10 -260097 -1 -1 1
1;
#X obj 200 791 tabwrite formmatrix;
#X floatatom 200 775 5 0 0 0 - - -;
#X floatatom 199 809 5 0 0 0 - - -;
#X obj 199 825 tabwrite vectormatrix;
#X obj 488 143 vradio 15 1 0 7 empty empty empty 0 -8 0 10 -210369
-1 -1 0;
#X obj 488 249 tgl 15 0 empty empty empty 17 7 0 10 -260097 -1 -1 1
1;
#X obj 198 860 tabwrite formmatrix;
#X floatatom 198 844 5 0 0 0 - - -;
#X floatatom 197 878 5 0 0 0 - - -;
#X obj 197 894 tabwrite vectormatrix;
#X obj 503 143 vradio 15 1 0 7 empty empty empty 0 -8 0 10 -210369
-1 -1 0;
#X obj 503 249 tgl 15 0 empty empty empty 17 7 0 10 -260097 -1 -1 1
1;
#X obj 196 934 tabwrite formmatrix;
#X floatatom 196 918 5 0 0 0 - - -;
#X floatatom 195 952 5 0 0 0 - - -;
#X obj 195 968 tabwrite vectormatrix;
#X obj 518 143 vradio 15 1 0 7 empty empty empty 0 -8 0 10 -210369
-1 -1 0;
#X obj 518 249 tgl 15 0 empty empty empty 17 7 0 10 -260097 -1 -1 1
1;
#X obj 194 1003 tabwrite formmatrix;
#X floatatom 194 987 5 0 0 0 - - -;
#X floatatom 193 1021 5 0 0 0 - - -;
#X obj 193 1037 tabwrite vectormatrix;
#X obj 533 143 vradio 15 1 0 7 empty empty empty 0 -8 0 10 -210369
-1 -1 0;
#X obj 533 249 tgl 15 0 empty empty empty 17 7 0 10 -260097 -1 -1 1
1;
#X obj 367 503 tabwrite formmatrix;
#X floatatom 367 487 5 0 0 0 - - -;
#X floatatom 366 521 5 0 0 0 - - -;
#X obj 366 537 tabwrite vectormatrix;
#X obj 548 143 vradio 15 1 0 7 empty empty empty 0 -8 0 10 -210369
-1 -1 0;
#X obj 548 249 tgl 15 0 empty empty empty 17 7 0 10 -260097 -1 -1 1
1;
#X obj 365 572 tabwrite formmatrix;
#X floatatom 365 556 5 0 0 0 - - -;
#X floatatom 364 590 5 0 0 0 - - -;
#X obj 364 606 tabwrite vectormatrix;
#X obj 563 143 vradio 15 1 0 7 empty empty empty 0 -8 0 10 -210369
-1 -1 0;
#X obj 563 249 tgl 15 0 empty empty empty 17 7 0 10 -260097 -1 -1 1
1;
#X obj 363 646 tabwrite formmatrix;
#X floatatom 363 630 5 0 0 0 - - -;
#X floatatom 362 664 5 0 0 0 - - -;
#X obj 362 680 tabwrite vectormatrix;
#X obj 578 143 vradio 15 1 0 7 empty empty empty 0 -8 0 10 -210369
-1 -1 0;
#X obj 578 249 tgl 15 0 empty empty empty 17 7 0 10 -260097 -1 -1 1
1;
#X obj 361 715 tabwrite formmatrix;
#X floatatom 361 699 5 0 0 0 - - -;
#X floatatom 360 733 5 0 0 0 - - -;
#X obj 360 749 tabwrite vectormatrix;
#X obj 593 143 vradio 15 1 0 7 empty empty empty 0 -8 0 10 -210369
-1 -1 0;
#X obj 593 249 tgl 15 0 empty empty empty 17 7 0 10 -260097 -1 -1 1
1;
#X obj 360 789 tabwrite formmatrix;
#X floatatom 360 773 5 0 0 0 - - -;
#X floatatom 359 807 5 0 0 0 - - -;
#X obj 359 823 tabwrite vectormatrix;
#X obj 608 143 vradio 15 1 0 7 empty empty empty 0 -8 0 10 -210369
-1 -1 0;
#X obj 608 249 tgl 15 0 empty empty empty 17 7 0 10 -260097 -1 -1 1
1;
#X obj 358 858 tabwrite formmatrix;
#X floatatom 358 842 5 0 0 0 - - -;
#X floatatom 357 876 5 0 0 0 - - -;
#X obj 357 892 tabwrite vectormatrix;
#X obj 623 143 vradio 15 1 0 7 empty empty empty 0 -8 0 10 -210369
-1 -1 0;
#X obj 623 249 tgl 15 0 empty empty empty 17 7 0 10 -260097 -1 -1 1
1;
#X obj 356 932 tabwrite formmatrix;
#X floatatom 356 916 5 0 0 0 - - -;
#X floatatom 355 950 5 0 0 0 - - -;
#X obj 355 966 tabwrite vectormatrix;
#X obj 638 143 vradio 15 1 0 7 empty empty empty 0 -8 0 10 -210369
-1 -1 0;
#X obj 638 249 tgl 15 0 empty empty empty 17 7 0 10 -260097 -1 -1 1
1;
#X obj 354 1001 tabwrite formmatrix;
#X floatatom 354 985 5 0 0 0 - - -;
#X floatatom 353 1019 5 0 0 0 - - -;
#X obj 353 1035 tabwrite vectormatrix;
#X msg 343 505 16;
#X msg 342 539 16;
#X msg 341 574 17;
#X msg 341 609 17;
#X msg 339 648 18;
#X msg 338 682 18;
#X msg 336 717 19;
#X msg 337 752 19;
#X msg 336 791 20;
#X msg 335 825 20;
#X msg 334 860 21;
#X msg 334 895 21;
#X msg 332 934 22;
#X msg 331 968 22;
#X msg 329 1003 23;
#X msg 330 1038 23;
#X msg 503 503 24;
#X msg 502 537 24;
#X msg 501 572 25;
#X msg 501 607 25;
#X msg 499 646 26;
#X msg 498 680 26;
#X msg 496 715 27;
#X msg 497 750 27;
#X msg 496 789 28;
#X msg 495 823 28;
#X msg 494 858 29;
#X msg 494 893 29;
#X msg 492 932 30;
#X msg 491 966 30;
#X msg 489 1001 31;
#X msg 490 1036 31;
#X obj 653 143 vradio 15 1 0 7 empty empty empty 0 -8 0 10 -210369
-1 -1 0;
#X obj 653 249 tgl 15 0 empty empty empty 17 7 0 10 -260097 -1 -1 1
1;
#X obj 528 515 tabwrite formmatrix;
#X floatatom 528 499 5 0 0 0 - - -;
#X floatatom 527 533 5 0 0 0 - - -;
#X obj 527 549 tabwrite vectormatrix;
#X obj 668 143 vradio 15 1 0 7 empty empty empty 0 -8 0 10 -210369
-1 -1 0;
#X obj 668 249 tgl 15 0 empty empty empty 17 7 0 10 -260097 -1 -1 1
1;
#X obj 526 584 tabwrite formmatrix;
#X floatatom 526 568 5 0 0 0 - - -;
#X floatatom 525 602 5 0 0 0 - - -;
#X obj 525 618 tabwrite vectormatrix;
#X obj 683 143 vradio 15 1 0 7 empty empty empty 0 -8 0 10 -210369
-1 -1 0;
#X obj 683 249 tgl 15 0 empty empty empty 17 7 0 10 -260097 -1 -1 1
1;
#X obj 524 658 tabwrite formmatrix;
#X floatatom 524 642 5 0 0 0 - - -;
#X floatatom 523 676 5 0 0 0 - - -;
#X obj 523 692 tabwrite vectormatrix;
#X obj 698 143 vradio 15 1 0 7 empty empty empty 0 -8 0 10 -210369
-1 -1 0;
#X obj 698 249 tgl 15 0 empty empty empty 17 7 0 10 -260097 -1 -1 1
1;
#X obj 522 727 tabwrite formmatrix;
#X floatatom 522 711 5 0 0 0 - - -;
#X floatatom 521 745 5 0 0 0 - - -;
#X obj 521 761 tabwrite vectormatrix;
#X obj 713 143 vradio 15 1 0 7 empty empty empty 0 -8 0 10 -210369
-1 -1 0;
#X obj 713 249 tgl 15 0 empty empty empty 17 7 0 10 -260097 -1 -1 1
1;
#X obj 521 801 tabwrite formmatrix;
#X floatatom 521 785 5 0 0 0 - - -;
#X floatatom 520 819 5 0 0 0 - - -;
#X obj 520 835 tabwrite vectormatrix;
#X obj 728 143 vradio 15 1 0 7 empty empty empty 0 -8 0 10 -210369
-1 -1 0;
#X obj 728 249 tgl 15 0 empty empty empty 17 7 0 10 -260097 -1 -1 1
1;
#X obj 519 870 tabwrite formmatrix;
#X floatatom 519 854 5 0 0 0 - - -;
#X floatatom 518 888 5 0 0 0 - - -;
#X obj 518 904 tabwrite vectormatrix;
#X obj 743 143 vradio 15 1 0 7 empty empty empty 0 -8 0 10 -210369
-1 -1 0;
#X obj 743 249 tgl 15 0 empty empty empty 17 7 0 10 -260097 -1 -1 1
1;
#X obj 517 944 tabwrite formmatrix;
#X floatatom 517 928 5 0 0 0 - - -;
#X floatatom 516 962 5 0 0 0 - - -;
#X obj 516 978 tabwrite vectormatrix;
#X obj 758 143 vradio 15 1 0 7 empty empty empty 0 -8 0 10 -210369
-1 -1 0;
#X obj 758 249 tgl 15 0 empty empty empty 17 7 0 10 -260097 -1 -1 1
1;
#X obj 515 1013 tabwrite formmatrix;
#X floatatom 515 997 5 0 0 0 - - -;
#X floatatom 514 1031 5 0 0 0 - - -;
#X obj 514 1047 tabwrite vectormatrix;
#X obj 773 143 vradio 15 1 0 7 empty empty empty 0 -8 0 10 -210369
-1 -1 0;
#X obj 773 249 tgl 15 0 empty empty empty 17 7 0 10 -260097 -1 -1 1
1;
#X obj 729 508 tabwrite formmatrix;
#X floatatom 729 492 5 0 0 0 - - -;
#X floatatom 728 526 5 0 0 0 - - -;
#X obj 728 542 tabwrite vectormatrix;
#X obj 788 143 vradio 15 1 0 7 empty empty empty 0 -8 0 10 -210369
-1 -1 0;
#X obj 788 249 tgl 15 0 empty empty empty 17 7 0 10 -260097 -1 -1 1
1;
#X obj 727 577 tabwrite formmatrix;
#X floatatom 727 561 5 0 0 0 - - -;
#X floatatom 726 595 5 0 0 0 - - -;
#X obj 726 611 tabwrite vectormatrix;
#X obj 803 143 vradio 15 1 0 7 empty empty empty 0 -8 0 10 -210369
-1 -1 0;
#X obj 803 249 tgl 15 0 empty empty empty 17 7 0 10 -260097 -1 -1 1
1;
#X obj 725 651 tabwrite formmatrix;
#X floatatom 725 635 5 0 0 0 - - -;
#X floatatom 724 669 5 0 0 0 - - -;
#X obj 724 685 tabwrite vectormatrix;
#X obj 818 143 vradio 15 1 0 7 empty empty empty 0 -8 0 10 -210369
-1 -1 0;
#X obj 818 249 tgl 15 0 empty empty empty 17 7 0 10 -260097 -1 -1 1
1;
#X obj 723 720 tabwrite formmatrix;
#X floatatom 723 704 5 0 0 0 - - -;
#X floatatom 722 738 5 0 0 0 - - -;
#X obj 722 754 tabwrite vectormatrix;
#X obj 833 143 vradio 15 1 0 7 empty empty empty 0 -8 0 10 -210369
-1 -1 0;
#X obj 833 249 tgl 15 0 empty empty empty 17 7 0 10 -260097 -1 -1 1
1;
#X obj 722 794 tabwrite formmatrix;
#X floatatom 722 778 5 0 0 0 - - -;
#X floatatom 721 812 5 0 0 0 - - -;
#X obj 721 828 tabwrite vectormatrix;
#X obj 848 143 vradio 15 1 0 7 empty empty empty 0 -8 0 10 -210369
-1 -1 0;
#X obj 848 249 tgl 15 0 empty empty empty 17 7 0 10 -260097 -1 -1 1
1;
#X obj 720 863 tabwrite formmatrix;
#X floatatom 720 847 5 0 0 0 - - -;
#X floatatom 719 881 5 0 0 0 - - -;
#X obj 719 897 tabwrite vectormatrix;
#X obj 863 143 vradio 15 1 0 7 empty empty empty 0 -8 0 10 -210369
-1 -1 0;
#X obj 863 249 tgl 15 0 empty empty empty 17 7 0 10 -260097 -1 -1 1
1;
#X obj 718 937 tabwrite formmatrix;
#X floatatom 718 921 5 0 0 0 - - -;
#X floatatom 717 955 5 0 0 0 - - -;
#X obj 717 971 tabwrite vectormatrix;
#X obj 878 143 vradio 15 1 0 7 empty empty empty 0 -8 0 10 -210369
-1 -1 0;
#X obj 878 249 tgl 15 0 empty empty empty 17 7 0 10 -260097 -1 -1 1
1;
#X obj 716 1006 tabwrite formmatrix;
#X floatatom 716 990 5 0 0 0 - - -;
#X floatatom 715 1024 5 0 0 0 - - -;
#X obj 715 1040 tabwrite vectormatrix;
#X obj 893 143 vradio 15 1 0 7 empty empty empty 0 -8 0 10 -210369
-1 -1 0;
#X obj 893 249 tgl 15 0 empty empty empty 17 7 0 10 -260097 -1 -1 1
1;
#X obj 903 516 tabwrite formmatrix;
#X floatatom 903 500 5 0 0 0 - - -;
#X floatatom 902 534 5 0 0 0 - - -;
#X obj 902 550 tabwrite vectormatrix;
#X obj 908 143 vradio 15 1 0 7 empty empty empty 0 -8 0 10 -210369
-1 -1 0;
#X obj 908 249 tgl 15 0 empty empty empty 17 7 0 10 -260097 -1 -1 1
1;
#X obj 901 585 tabwrite formmatrix;
#X floatatom 901 569 5 0 0 0 - - -;
#X floatatom 900 603 5 0 0 0 - - -;
#X obj 900 619 tabwrite vectormatrix;
#X obj 923 143 vradio 15 1 0 7 empty empty empty 0 -8 0 10 -210369
-1 -1 0;
#X obj 923 249 tgl 15 0 empty empty empty 17 7 0 10 -260097 -1 -1 1
1;
#X obj 899 659 tabwrite formmatrix;
#X floatatom 899 643 5 0 0 0 - - -;
#X floatatom 898 677 5 0 0 0 - - -;
#X obj 898 693 tabwrite vectormatrix;
#X obj 938 143 vradio 15 1 0 7 empty empty empty 0 -8 0 10 -210369
-1 -1 0;
#X obj 938 249 tgl 15 0 empty empty empty 17 7 0 10 -260097 -1 -1 1
1;
#X obj 897 728 tabwrite formmatrix;
#X floatatom 897 712 5 0 0 0 - - -;
#X floatatom 896 746 5 0 0 0 - - -;
#X obj 896 762 tabwrite vectormatrix;
#X obj 953 143 vradio 15 1 0 7 empty empty empty 0 -8 0 10 -210369
-1 -1 0;
#X obj 953 249 tgl 15 0 empty empty empty 17 7 0 10 -260097 -1 -1 1
1;
#X obj 896 802 tabwrite formmatrix;
#X floatatom 896 786 5 0 0 0 - - -;
#X floatatom 895 820 5 0 0 0 - - -;
#X obj 895 836 tabwrite vectormatrix;
#X obj 968 143 vradio 15 1 0 7 empty empty empty 0 -8 0 10 -210369
-1 -1 0;
#X obj 968 249 tgl 15 0 empty empty empty 17 7 0 10 -260097 -1 -1 1
1;
#X obj 894 871 tabwrite formmatrix;
#X floatatom 894 855 5 0 0 0 - - -;
#X floatatom 893 889 5 0 0 0 - - -;
#X obj 893 905 tabwrite vectormatrix;
#X obj 983 143 vradio 15 1 0 7 empty empty empty 0 -8 0 10 -210369
-1 -1 0;
#X obj 983 249 tgl 15 0 empty empty empty 17 7 0 10 -260097 -1 -1 1
1;
#X obj 892 945 tabwrite formmatrix;
#X floatatom 892 929 5 0 0 0 - - -;
#X floatatom 891 963 5 0 0 0 - - -;
#X obj 891 979 tabwrite vectormatrix;
#X obj 998 143 vradio 15 1 0 7 empty empty empty 0 -8 0 10 -210369
-1 -1 0;
#X obj 998 249 tgl 15 0 empty empty empty 17 7 0 10 -260097 -1 -1 1
1;
#X obj 890 1014 tabwrite formmatrix;
#X floatatom 890 998 5 0 0 0 - - -;
#X floatatom 889 1032 5 0 0 0 - - -;
#X obj 889 1048 tabwrite vectormatrix;
#X obj 1013 143 vradio 15 1 0 7 empty empty empty 0 -8 0 10 -210369
-1 -1 0;
#X obj 1013 249 tgl 15 0 empty empty empty 17 7 0 10 -260097 -1 -1
1 1;
#X obj 1075 515 tabwrite formmatrix;
#X floatatom 1075 499 5 0 0 0 - - -;
#X floatatom 1074 533 5 0 0 0 - - -;
#X obj 1074 549 tabwrite vectormatrix;
#X obj 1028 143 vradio 15 1 0 7 empty empty empty 0 -8 0 10 -210369
-1 -1 0;
#X obj 1028 249 tgl 15 0 empty empty empty 17 7 0 10 -260097 -1 -1
1 1;
#X obj 1073 584 tabwrite formmatrix;
#X floatatom 1073 568 5 0 0 0 - - -;
#X floatatom 1072 602 5 0 0 0 - - -;
#X obj 1072 618 tabwrite vectormatrix;
#X obj 1043 143 vradio 15 1 0 7 empty empty empty 0 -8 0 10 -210369
-1 -1 0;
#X obj 1043 249 tgl 15 0 empty empty empty 17 7 0 10 -260097 -1 -1
1 1;
#X obj 1071 658 tabwrite formmatrix;
#X floatatom 1071 642 5 0 0 0 - - -;
#X floatatom 1070 676 5 0 0 0 - - -;
#X obj 1070 692 tabwrite vectormatrix;
#X obj 1058 143 vradio 15 1 0 7 empty empty empty 0 -8 0 10 -210369
-1 -1 0;
#X obj 1058 249 tgl 15 0 empty empty empty 17 7 0 10 -260097 -1 -1
1 1;
#X obj 1069 727 tabwrite formmatrix;
#X floatatom 1069 711 5 0 0 0 - - -;
#X floatatom 1068 745 5 0 0 0 - - -;
#X obj 1068 761 tabwrite vectormatrix;
#X obj 1073 143 vradio 15 1 0 7 empty empty empty 0 -8 0 10 -210369
-1 -1 0;
#X obj 1073 249 tgl 15 0 empty empty empty 17 7 0 10 -260097 -1 -1
1 1;
#X obj 1068 801 tabwrite formmatrix;
#X floatatom 1068 785 5 0 0 0 - - -;
#X floatatom 1067 819 5 0 0 0 - - -;
#X obj 1067 835 tabwrite vectormatrix;
#X obj 1088 143 vradio 15 1 0 7 empty empty empty 0 -8 0 10 -210369
-1 -1 0;
#X obj 1088 249 tgl 15 0 empty empty empty 17 7 0 10 -260097 -1 -1
1 1;
#X obj 1066 870 tabwrite formmatrix;
#X floatatom 1066 854 5 0 0 0 - - -;
#X floatatom 1065 888 5 0 0 0 - - -;
#X obj 1065 904 tabwrite vectormatrix;
#X obj 1103 143 vradio 15 1 0 7 empty empty empty 0 -8 0 10 -210369
-1 -1 0;
#X obj 1103 249 tgl 15 0 empty empty empty 17 7 0 10 -260097 -1 -1
1 1;
#X obj 1064 944 tabwrite formmatrix;
#X floatatom 1064 928 5 0 0 0 - - -;
#X floatatom 1063 962 5 0 0 0 - - -;
#X obj 1063 978 tabwrite vectormatrix;
#X obj 1118 143 vradio 15 1 0 7 empty empty empty 0 -8 0 10 -210369
-1 -1 0;
#X obj 1118 249 tgl 15 0 empty empty empty 17 7 0 10 -260097 -1 -1
1 1;
#X obj 1062 1013 tabwrite formmatrix;
#X floatatom 1062 997 5 0 0 0 - - -;
#X floatatom 1061 1031 5 0 0 0 - - -;
#X obj 1061 1047 tabwrite vectormatrix;
#X msg 664 515 32;
#X msg 663 549 32;
#X msg 662 584 33;
#X msg 662 619 33;
#X msg 660 658 34;
#X msg 659 692 34;
#X msg 657 727 35;
#X msg 658 762 35;
#X msg 657 801 36;
#X msg 656 835 36;
#X msg 655 870 37;
#X msg 655 905 37;
#X msg 653 944 38;
#X msg 652 978 38;
#X msg 650 1013 39;
#X msg 651 1048 39;
#X msg 865 508 40;
#X msg 864 542 40;
#X msg 863 577 41;
#X msg 863 612 41;
#X msg 861 651 42;
#X msg 860 685 42;
#X msg 858 720 43;
#X msg 859 755 43;
#X msg 858 794 44;
#X msg 857 828 44;
#X msg 856 863 45;
#X msg 856 898 45;
#X msg 854 937 46;
#X msg 853 971 46;
#X msg 851 1006 47;
#X msg 852 1041 47;
#X msg 1039 516 48;
#X msg 1038 550 48;
#X msg 1037 585 49;
#X msg 1037 620 49;
#X msg 1035 659 50;
#X msg 1034 693 50;
#X msg 1032 728 51;
#X msg 1033 763 51;
#X msg 1032 802 52;
#X msg 1031 836 52;
#X msg 1030 871 53;
#X msg 1030 906 53;
#X msg 1028 945 54;
#X msg 1027 979 54;
#X msg 1025 1014 55;
#X msg 1026 1049 55;
#X msg 1211 515 56;
#X msg 1210 549 56;
#X msg 1209 584 57;
#X msg 1209 619 57;
#X msg 1207 658 58;
#X msg 1206 692 58;
#X msg 1204 727 59;
#X msg 1205 762 59;
#X msg 1204 801 60;
#X msg 1203 835 60;
#X msg 1202 870 61;
#X msg 1202 905 61;
#X msg 1200 944 62;
#X msg 1199 978 62;
#X msg 1197 1013 63;
#X msg 1198 1048 63;
#X obj 1151 143 vradio 15 1 0 7 empty empty empty 0 -8 0 10 -210753
-1 -1 0;
#X msg 1189 128 \$1;
#X obj 173 110 hradio 15 1 0 64 empty empty empty 0 -8 0 10 -188481
-1 -1 5;
#X text 132 106 Length;
#X text 145 124 Time;
#X msg 1211 232 \$1;
#X obj 1151 250 tgl 15 0 empty empty empty 17 7 0 10 -190465 -1 -1
1 1;
#X floatatom 172 267 3 0 0 1 vector_disable_offset_ - -;
#X floatatom 337 267 3 4 64 1 step_length - -;
#X msg 1326 50 0;
#X obj 1318 16 r stop;
#X obj 1215 10 r metro;
#X obj 1260 110 int;
#X obj 1293 109 + 1;
#X floatatom 1275 140 5 0 0 0 - - -;
#X obj 1323 340 mod;
#X floatatom 1134 110 2 0 0 0 - - -;
#X floatatom 1330 363 5 0 0 0 - - -;
#X obj 1428 404 tabread formmatrix;
#X obj 1298 405 tabread vectormatrix;
#X floatatom 1298 430 5 0 0 0 - - -;
#X floatatom 1428 428 5 0 0 0 - - -;
#X obj 1315 310 int;
#X obj 1347 311 + 1;
#X floatatom 1134 126 2 0 0 0 - - -;
#X obj 1281 167 mod;
#X obj 1281 188 == 0;
#X obj 1281 211 route 1;
#X msg 110 62 16;
#X obj 89 14 loadbang;
#X text 143 140 None;
#X obj 1429 451 s form_m;
#X obj 1298 453 s vector_m;
#X obj -13 358 s vector_offset;
#X obj 1362 556 bng 15 250 50 0 empty empty empty 17 7 0 10 -262144
-1 -1;
#X obj 1393 553 bng 15 250 50 0 empty empty empty 17 7 0 10 -262144
-1 -1;
#X obj 1420 551 bng 15 250 50 0 empty empty empty 17 7 0 10 -262144
-1 -1;
#X obj 1444 551 bng 15 250 50 0 empty empty empty 17 7 0 10 -262144
-1 -1;
#X obj 1469 553 bng 15 250 50 0 empty empty empty 17 7 0 10 -262144
-1 -1;
#X obj 1491 554 bng 15 250 50 0 empty empty empty 17 7 0 10 -262144
-1 -1;
#X obj 1518 554 bng 15 250 50 0 empty empty empty 17 7 0 10 -262144
-1 -1;
#X obj 1134 143 bng 15 250 50 0 empty empty empty 17 7 0 10 -258113
-1 -1;
#X obj 1134 158 bng 15 250 50 0 empty empty empty 17 7 0 10 -258113
-1 -1;
#X obj 1134 173 bng 15 250 50 0 empty empty empty 17 7 0 10 -258113
-1 -1;
#X obj 1134 188 bng 15 250 50 0 empty empty empty 17 7 0 10 -258113
-1 -1;
#X obj 1134 203 bng 15 250 50 0 empty empty empty 17 7 0 10 -258113
-1 -1;
#X obj 1134 218 bng 15 250 50 0 empty empty empty 17 7 0 10 -258113
-1 -1;
#X obj 1134 233 bng 15 250 50 0 empty empty empty 17 7 0 10 -258113
-1 -1;
#X obj 1388 510 route 0 1 2 3 4 5 6;
#X obj 459 269 tgl 15 0 empty empty tempo_change_follower 17 7 0 10
-260097 -1 -1 0 1;
#X obj 1375 253 spigot;
#X obj 1406 227 == 0;
#X obj 1406 100 r tempo_change;
#X obj 1453 261 spigot;
#X msg 149 65 0;
#X connect 1 0 547 0;
#X connect 2 0 14 0;
#X connect 3 0 16 0;
#X connect 14 0 13 0;
#X connect 14 0 15 0;
#X connect 15 0 13 1;
#X connect 16 0 17 0;
#X connect 16 0 18 0;
#X connect 17 0 18 1;
#X connect 19 0 22 0;
#X connect 20 0 23 0;
#X connect 22 0 21 0;
#X connect 22 0 25 0;
#X connect 23 0 26 0;
#X connect 23 0 24 0;
#X connect 25 0 21 1;
#X connect 26 0 24 1;
#X connect 27 0 30 0;
#X connect 28 0 31 0;
#X connect 30 0 29 0;
#X connect 30 0 39 0;
#X connect 31 0 40 0;
#X connect 31 0 32 0;
#X connect 33 0 36 0;
#X connect 34 0 37 0;
#X connect 36 0 35 0;
#X connect 36 0 41 0;
#X connect 37 0 42 0;
#X connect 37 0 38 0;
#X connect 39 0 29 1;
#X connect 40 0 32 1;
#X connect 41 0 35 1;
#X connect 42 0 38 1;
#X connect 43 0 46 0;
#X connect 44 0 47 0;
#X connect 46 0 45 0;
#X connect 46 0 67 0;
#X connect 47 0 68 0;
#X connect 47 0 48 0;
#X connect 49 0 52 0;
#X connect 50 0 53 0;
#X connect 52 0 51 0;
#X connect 52 0 69 0;
#X connect 53 0 70 0;
#X connect 53 0 54 0;
#X connect 55 0 58 0;
#X connect 56 0 59 0;
#X connect 58 0 57 0;
#X connect 58 0 71 0;
#X connect 59 0 72 0;
#X connect 59 0 60 0;
#X connect 61 0 64 0;
#X connect 62 0 65 0;
#X connect 64 0 63 0;
#X connect 64 0 73 0;
#X connect 65 0 74 0;
#X connect 65 0 66 0;
#X connect 67 0 45 1;
#X connect 68 0 48 1;
#X connect 69 0 51 1;
#X connect 70 0 54 1;
#X connect 71 0 57 1;
#X connect 72 0 60 1;
#X connect 73 0 63 1;
#X connect 74 0 66 1;
#X connect 75 0 78 0;
#X connect 76 0 79 0;
#X connect 78 0 77 0;
#X connect 78 0 123 0;
#X connect 79 0 124 0;
#X connect 79 0 80 0;
#X connect 81 0 84 0;
#X connect 82 0 85 0;
#X connect 84 0 83 0;
#X connect 84 0 125 0;
#X connect 85 0 126 0;
#X connect 85 0 86 0;
#X connect 87 0 90 0;
#X connect 88 0 91 0;
#X connect 90 0 89 0;
#X connect 90 0 127 0;
#X connect 91 0 128 0;
#X connect 91 0 92 0;
#X connect 93 0 96 0;
#X connect 94 0 97 0;
#X connect 96 0 95 0;
#X connect 96 0 129 0;
#X connect 97 0 130 0;
#X connect 97 0 98 0;
#X connect 99 0 102 0;
#X connect 100 0 103 0;
#X connect 102 0 101 0;
#X connect 102 0 131 0;
#X connect 103 0 132 0;
#X connect 103 0 104 0;
#X connect 105 0 108 0;
#X connect 106 0 109 0;
#X connect 108 0 107 0;
#X connect 108 0 133 0;
#X connect 109 0 134 0;
#X connect 109 0 110 0;
#X connect 111 0 114 0;
#X connect 112 0 115 0;
#X connect 114 0 113 0;
#X connect 114 0 135 0;
#X connect 115 0 136 0;
#X connect 115 0 116 0;
#X connect 117 0 120 0;
#X connect 118 0 121 0;
#X connect 120 0 119 0;
#X connect 120 0 137 0;
#X connect 121 0 138 0;
#X connect 121 0 122 0;
#X connect 123 0 77 1;
#X connect 124 0 80 1;
#X connect 125 0 83 1;
#X connect 126 0 86 1;
#X connect 127 0 89 1;
#X connect 128 0 92 1;
#X connect 129 0 95 1;
#X connect 130 0 98 1;
#X connect 131 0 101 1;
#X connect 132 0 104 1;
#X connect 133 0 107 1;
#X connect 134 0 110 1;
#X connect 135 0 113 1;
#X connect 136 0 116 1;
#X connect 137 0 119 1;
#X connect 138 0 122 1;
#X connect 139 0 142 0;
#X connect 140 0 143 0;
#X connect 142 0 141 0;
#X connect 142 0 235 0;
#X connect 143 0 236 0;
#X connect 143 0 144 0;
#X connect 145 0 148 0;
#X connect 146 0 149 0;
#X connect 148 0 147 0;
#X connect 148 0 237 0;
#X connect 149 0 238 0;
#X connect 149 0 150 0;
#X connect 151 0 154 0;
#X connect 152 0 155 0;
#X connect 154 0 153 0;
#X connect 154 0 239 0;
#X connect 155 0 240 0;
#X connect 155 0 156 0;
#X connect 157 0 160 0;
#X connect 158 0 161 0;
#X connect 160 0 159 0;
#X connect 160 0 241 0;
#X connect 161 0 242 0;
#X connect 161 0 162 0;
#X connect 163 0 166 0;
#X connect 164 0 167 0;
#X connect 166 0 165 0;
#X connect 166 0 243 0;
#X connect 167 0 244 0;
#X connect 167 0 168 0;
#X connect 169 0 172 0;
#X connect 170 0 173 0;
#X connect 172 0 171 0;
#X connect 172 0 245 0;
#X connect 173 0 246 0;
#X connect 173 0 174 0;
#X connect 175 0 178 0;
#X connect 176 0 179 0;
#X connect 178 0 177 0;
#X connect 178 0 247 0;
#X connect 179 0 248 0;
#X connect 179 0 180 0;
#X connect 181 0 184 0;
#X connect 182 0 185 0;
#X connect 184 0 183 0;
#X connect 184 0 249 0;
#X connect 185 0 250 0;
#X connect 185 0 186 0;
#X connect 187 0 190 0;
#X connect 188 0 191 0;
#X connect 190 0 189 0;
#X connect 190 0 251 0;
#X connect 191 0 252 0;
#X connect 191 0 192 0;
#X connect 193 0 196 0;
#X connect 194 0 197 0;
#X connect 196 0 195 0;
#X connect 196 0 253 0;
#X connect 197 0 254 0;
#X connect 197 0 198 0;
#X connect 199 0 202 0;
#X connect 200 0 203 0;
#X connect 202 0 201 0;
#X connect 202 0 255 0;
#X connect 203 0 256 0;
#X connect 203 0 204 0;
#X connect 205 0 208 0;
#X connect 206 0 209 0;
#X connect 208 0 207 0;
#X connect 208 0 257 0;
#X connect 209 0 258 0;
#X connect 209 0 210 0;
#X connect 211 0 214 0;
#X connect 212 0 215 0;
#X connect 214 0 213 0;
#X connect 214 0 259 0;
#X connect 215 0 260 0;
#X connect 215 0 216 0;
#X connect 217 0 220 0;
#X connect 218 0 221 0;
#X connect 220 0 219 0;
#X connect 220 0 261 0;
#X connect 221 0 262 0;
#X connect 221 0 222 0;
#X connect 223 0 226 0;
#X connect 224 0 227 0;
#X connect 226 0 225 0;
#X connect 226 0 263 0;
#X connect 227 0 264 0;
#X connect 227 0 228 0;
#X connect 229 0 232 0;
#X connect 230 0 233 0;
#X connect 232 0 231 0;
#X connect 232 0 265 0;
#X connect 233 0 266 0;
#X connect 233 0 234 0;
#X connect 235 0 141 1;
#X connect 236 0 144 1;
#X connect 237 0 147 1;
#X connect 238 0 150 1;
#X connect 239 0 153 1;
#X connect 240 0 156 1;
#X connect 241 0 159 1;
#X connect 242 0 162 1;
#X connect 243 0 165 1;
#X connect 244 0 168 1;
#X connect 245 0 171 1;
#X connect 246 0 174 1;
#X connect 247 0 177 1;
#X connect 248 0 180 1;
#X connect 249 0 183 1;
#X connect 250 0 186 1;
#X connect 251 0 189 1;
#X connect 252 0 192 1;
#X connect 253 0 195 1;
#X connect 254 0 198 1;
#X connect 255 0 201 1;
#X connect 256 0 204 1;
#X connect 257 0 207 1;
#X connect 258 0 210 1;
#X connect 259 0 213 1;
#X connect 260 0 216 1;
#X connect 261 0 219 1;
#X connect 262 0 222 1;
#X connect 263 0 225 1;
#X connect 264 0 228 1;
#X connect 265 0 231 1;
#X connect 266 0 234 1;
#X connect 267 0 270 0;
#X connect 268 0 271 0;
#X connect 270 0 269 0;
#X connect 270 0 459 0;
#X connect 271 0 460 0;
#X connect 271 0 272 0;
#X connect 273 0 276 0;
#X connect 274 0 277 0;
#X connect 276 0 275 0;
#X connect 276 0 461 0;
#X connect 277 0 462 0;
#X connect 277 0 278 0;
#X connect 279 0 282 0;
#X connect 280 0 283 0;
#X connect 282 0 281 0;
#X connect 282 0 463 0;
#X connect 283 0 464 0;
#X connect 283 0 284 0;
#X connect 285 0 288 0;
#X connect 286 0 289 0;
#X connect 288 0 287 0;
#X connect 288 0 465 0;
#X connect 289 0 466 0;
#X connect 289 0 290 0;
#X connect 291 0 294 0;
#X connect 292 0 295 0;
#X connect 294 0 293 0;
#X connect 294 0 467 0;
#X connect 295 0 468 0;
#X connect 295 0 296 0;
#X connect 297 0 300 0;
#X connect 298 0 301 0;
#X connect 300 0 299 0;
#X connect 300 0 469 0;
#X connect 301 0 470 0;
#X connect 301 0 302 0;
#X connect 303 0 306 0;
#X connect 304 0 307 0;
#X connect 306 0 305 0;
#X connect 306 0 471 0;
#X connect 307 0 472 0;
#X connect 307 0 308 0;
#X connect 309 0 312 0;
#X connect 310 0 313 0;
#X connect 312 0 311 0;
#X connect 312 0 473 0;
#X connect 313 0 474 0;
#X connect 313 0 314 0;
#X connect 315 0 318 0;
#X connect 316 0 319 0;
#X connect 318 0 317 0;
#X connect 318 0 475 0;
#X connect 319 0 476 0;
#X connect 319 0 320 0;
#X connect 321 0 324 0;
#X connect 322 0 325 0;
#X connect 324 0 323 0;
#X connect 324 0 477 0;
#X connect 325 0 478 0;
#X connect 325 0 326 0;
#X connect 327 0 330 0;
#X connect 328 0 331 0;
#X connect 330 0 329 0;
#X connect 330 0 479 0;
#X connect 331 0 480 0;
#X connect 331 0 332 0;
#X connect 333 0 336 0;
#X connect 334 0 337 0;
#X connect 336 0 335 0;
#X connect 336 0 481 0;
#X connect 337 0 482 0;
#X connect 337 0 338 0;
#X connect 339 0 342 0;
#X connect 340 0 343 0;
#X connect 342 0 341 0;
#X connect 342 0 483 0;
#X connect 343 0 484 0;
#X connect 343 0 344 0;
#X connect 345 0 348 0;
#X connect 346 0 349 0;
#X connect 348 0 347 0;
#X connect 348 0 485 0;
#X connect 349 0 486 0;
#X connect 349 0 350 0;
#X connect 351 0 354 0;
#X connect 352 0 355 0;
#X connect 354 0 353 0;
#X connect 354 0 487 0;
#X connect 355 0 488 0;
#X connect 355 0 356 0;
#X connect 357 0 360 0;
#X connect 358 0 361 0;
#X connect 360 0 359 0;
#X connect 360 0 489 0;
#X connect 361 0 490 0;
#X connect 361 0 362 0;
#X connect 363 0 366 0;
#X connect 364 0 367 0;
#X connect 366 0 365 0;
#X connect 366 0 491 0;
#X connect 367 0 492 0;
#X connect 367 0 368 0;
#X connect 369 0 372 0;
#X connect 370 0 373 0;
#X connect 372 0 371 0;
#X connect 372 0 493 0;
#X connect 373 0 494 0;
#X connect 373 0 374 0;
#X connect 375 0 378 0;
#X connect 376 0 379 0;
#X connect 378 0 377 0;
#X connect 378 0 495 0;
#X connect 379 0 496 0;
#X connect 379 0 380 0;
#X connect 381 0 384 0;
#X connect 382 0 385 0;
#X connect 384 0 383 0;
#X connect 384 0 497 0;
#X connect 385 0 498 0;
#X connect 385 0 386 0;
#X connect 387 0 390 0;
#X connect 388 0 391 0;
#X connect 390 0 389 0;
#X connect 390 0 499 0;
#X connect 391 0 500 0;
#X connect 391 0 392 0;
#X connect 393 0 396 0;
#X connect 394 0 397 0;
#X connect 396 0 395 0;
#X connect 396 0 501 0;
#X connect 397 0 502 0;
#X connect 397 0 398 0;
#X connect 399 0 402 0;
#X connect 400 0 403 0;
#X connect 402 0 401 0;
#X connect 402 0 503 0;
#X connect 403 0 504 0;
#X connect 403 0 404 0;
#X connect 405 0 408 0;
#X connect 406 0 409 0;
#X connect 408 0 407 0;
#X connect 408 0 505 0;
#X connect 409 0 506 0;
#X connect 409 0 410 0;
#X connect 411 0 414 0;
#X connect 412 0 415 0;
#X connect 414 0 413 0;
#X connect 414 0 507 0;
#X connect 415 0 508 0;
#X connect 415 0 416 0;
#X connect 417 0 420 0;
#X connect 418 0 421 0;
#X connect 420 0 419 0;
#X connect 420 0 509 0;
#X connect 421 0 510 0;
#X connect 421 0 422 0;
#X connect 423 0 426 0;
#X connect 424 0 427 0;
#X connect 426 0 425 0;
#X connect 426 0 511 0;
#X connect 427 0 512 0;
#X connect 427 0 428 0;
#X connect 429 0 432 0;
#X connect 430 0 433 0;
#X connect 432 0 431 0;
#X connect 432 0 513 0;
#X connect 433 0 514 0;
#X connect 433 0 434 0;
#X connect 435 0 438 0;
#X connect 436 0 439 0;
#X connect 438 0 437 0;
#X connect 438 0 515 0;
#X connect 439 0 516 0;
#X connect 439 0 440 0;
#X connect 441 0 444 0;
#X connect 442 0 445 0;
#X connect 444 0 443 0;
#X connect 444 0 517 0;
#X connect 445 0 518 0;
#X connect 445 0 446 0;
#X connect 447 0 450 0;
#X connect 448 0 451 0;
#X connect 450 0 449 0;
#X connect 450 0 519 0;
#X connect 451 0 520 0;
#X connect 451 0 452 0;
#X connect 453 0 456 0;
#X connect 454 0 457 0;
#X connect 456 0 455 0;
#X connect 456 0 521 0;
#X connect 457 0 522 0;
#X connect 457 0 458 0;
#X connect 459 0 269 1;
#X connect 460 0 272 1;
#X connect 461 0 275 1;
#X connect 462 0 278 1;
#X connect 463 0 281 1;
#X connect 464 0 284 1;
#X connect 465 0 287 1;
#X connect 466 0 290 1;
#X connect 467 0 293 1;
#X connect 468 0 296 1;
#X connect 469 0 299 1;
#X connect 470 0 302 1;
#X connect 471 0 305 1;
#X connect 472 0 308 1;
#X connect 473 0 311 1;
#X connect 474 0 314 1;
#X connect 475 0 317 1;
#X connect 476 0 320 1;
#X connect 477 0 323 1;
#X connect 478 0 326 1;
#X connect 479 0 329 1;
#X connect 480 0 332 1;
#X connect 481 0 335 1;
#X connect 482 0 338 1;
#X connect 483 0 341 1;
#X connect 484 0 344 1;
#X connect 485 0 347 1;
#X connect 486 0 350 1;
#X connect 487 0 353 1;
#X connect 488 0 356 1;
#X connect 489 0 359 1;
#X connect 490 0 362 1;
#X connect 491 0 365 1;
#X connect 492 0 368 1;
#X connect 493 0 371 1;
#X connect 494 0 374 1;
#X connect 495 0 377 1;
#X connect 496 0 380 1;
#X connect 497 0 383 1;
#X connect 498 0 386 1;
#X connect 499 0 389 1;
#X connect 500 0 392 1;
#X connect 501 0 395 1;
#X connect 502 0 398 1;
#X connect 503 0 401 1;
#X connect 504 0 404 1;
#X connect 505 0 407 1;
#X connect 506 0 410 1;
#X connect 507 0 413 1;
#X connect 508 0 416 1;
#X connect 509 0 419 1;
#X connect 510 0 422 1;
#X connect 511 0 425 1;
#X connect 512 0 428 1;
#X connect 513 0 431 1;
#X connect 514 0 434 1;
#X connect 515 0 437 1;
#X connect 516 0 440 1;
#X connect 517 0 443 1;
#X connect 518 0 446 1;
#X connect 519 0 449 1;
#X connect 520 0 452 1;
#X connect 521 0 455 1;
#X connect 522 0 458 1;
#X connect 523 0 524 0;
#X connect 524 0 2 0;
#X connect 524 0 19 0;
#X connect 524 0 27 0;
#X connect 524 0 33 0;
#X connect 524 0 43 0;
#X connect 524 0 49 0;
#X connect 524 0 55 0;
#X connect 524 0 61 0;
#X connect 524 0 75 0;
#X connect 524 0 81 0;
#X connect 524 0 87 0;
#X connect 524 0 93 0;
#X connect 524 0 99 0;
#X connect 524 0 105 0;
#X connect 524 0 111 0;
#X connect 524 0 117 0;
#X connect 524 0 139 0;
#X connect 524 0 145 0;
#X connect 524 0 151 0;
#X connect 524 0 157 0;
#X connect 524 0 163 0;
#X connect 524 0 169 0;
#X connect 524 0 175 0;
#X connect 524 0 181 0;
#X connect 524 0 187 0;
#X connect 524 0 193 0;
#X connect 524 0 199 0;
#X connect 524 0 205 0;
#X connect 524 0 211 0;
#X connect 524 0 223 0;
#X connect 524 0 217 0;
#X connect 524 0 229 0;
#X connect 524 0 267 0;
#X connect 524 0 273 0;
#X connect 524 0 279 0;
#X connect 524 0 285 0;
#X connect 524 0 291 0;
#X connect 524 0 297 0;
#X connect 524 0 303 0;
#X connect 524 0 309 0;
#X connect 524 0 315 0;
#X connect 524 0 321 0;
#X connect 524 0 327 0;
#X connect 524 0 333 0;
#X connect 524 0 339 0;
#X connect 524 0 345 0;
#X connect 524 0 351 0;
#X connect 524 0 357 0;
#X connect 524 0 363 0;
#X connect 524 0 369 0;
#X connect 524 0 375 0;
#X connect 524 0 381 0;
#X connect 524 0 387 0;
#X connect 524 0 393 0;
#X connect 524 0 399 0;
#X connect 524 0 405 0;
#X connect 524 0 411 0;
#X connect 524 0 417 0;
#X connect 524 0 423 0;
#X connect 524 0 429 0;
#X connect 524 0 435 0;
#X connect 524 0 441 0;
#X connect 524 0 447 0;
#X connect 524 0 453 0;
#X connect 525 0 538 1;
#X connect 525 0 539 0;
#X connect 528 0 3 0;
#X connect 528 0 20 0;
#X connect 528 0 28 0;
#X connect 528 0 34 0;
#X connect 528 0 44 0;
#X connect 528 0 50 0;
#X connect 528 0 56 0;
#X connect 528 0 62 0;
#X connect 528 0 76 0;
#X connect 528 0 82 0;
#X connect 528 0 88 0;
#X connect 528 0 94 0;
#X connect 528 0 100 0;
#X connect 528 0 106 0;
#X connect 528 0 112 0;
#X connect 528 0 118 0;
#X connect 528 0 140 0;
#X connect 528 0 146 0;
#X connect 528 0 152 0;
#X connect 528 0 158 0;
#X connect 528 0 164 0;
#X connect 528 0 170 0;
#X connect 528 0 176 0;
#X connect 528 0 182 0;
#X connect 528 0 188 0;
#X connect 528 0 200 0;
#X connect 528 0 194 0;
#X connect 528 0 206 0;
#X connect 528 0 212 0;
#X connect 528 0 218 0;
#X connect 528 0 224 0;
#X connect 528 0 230 0;
#X connect 528 0 268 0;
#X connect 528 0 274 0;
#X connect 528 0 280 0;
#X connect 528 0 286 0;
#X connect 528 0 292 0;
#X connect 528 0 298 0;
#X connect 528 0 304 0;
#X connect 528 0 310 0;
#X connect 528 0 316 0;
#X connect 528 0 322 0;
#X connect 528 0 328 0;
#X connect 528 0 334 0;
#X connect 528 0 340 0;
#X connect 528 0 346 0;
#X connect 528 0 352 0;
#X connect 528 0 358 0;
#X connect 528 0 364 0;
#X connect 528 0 370 0;
#X connect 528 0 376 0;
#X connect 528 0 382 0;
#X connect 528 0 388 0;
#X connect 528 0 394 0;
#X connect 528 0 400 0;
#X connect 528 0 406 0;
#X connect 528 0 412 0;
#X connect 528 0 418 0;
#X connect 528 0 424 0;
#X connect 528 0 430 0;
#X connect 528 0 436 0;
#X connect 528 0 442 0;
#X connect 528 0 448 0;
#X connect 528 0 454 0;
#X connect 529 0 528 0;
#X connect 530 0 556 0;
#X connect 531 0 548 1;
#X connect 532 0 535 0;
#X connect 532 0 545 0;
#X connect 533 0 532 0;
#X connect 534 0 535 0;
#X connect 535 0 536 0;
#X connect 535 0 537 0;
#X connect 536 0 535 1;
#X connect 537 0 548 0;
#X connect 538 0 540 0;
#X connect 540 0 1 0;
#X connect 540 0 541 0;
#X connect 540 0 542 0;
#X connect 541 0 544 0;
#X connect 542 0 543 0;
#X connect 543 0 555 0;
#X connect 544 0 554 0;
#X connect 544 0 571 0;
#X connect 545 0 546 0;
#X connect 545 0 538 0;
#X connect 546 0 545 1;
#X connect 548 0 549 0;
#X connect 549 0 550 0;
#X connect 550 0 573 0;
#X connect 551 0 531 0;
#X connect 552 0 551 0;
#X connect 552 0 577 0;
#X connect 557 0 564 0;
#X connect 558 0 565 0;
#X connect 559 0 566 0;
#X connect 560 0 567 0;
#X connect 561 0 568 0;
#X connect 562 0 569 0;
#X connect 563 0 570 0;
#X connect 571 0 557 0;
#X connect 571 1 558 0;
#X connect 571 2 559 0;
#X connect 571 3 560 0;
#X connect 571 4 561 0;
#X connect 571 5 562 0;
#X connect 571 6 563 0;
#X connect 572 0 574 0;
#X connect 572 0 576 1;
#X connect 573 0 545 0;
#X connect 574 0 573 1;
#X connect 575 0 576 0;
#X connect 576 0 545 0;
#X connect 577 0 572 0;
#X coords 0 -1 1 1 1070 200 1 100 100;
#X restore 103 103 pd matrix;
#X obj 1439 54 r metro;
#X obj 579 1333 tabwrite muisti1;
#X msg 682 1334 0;
#X floatatom 580 1318 5 0 0 0 - - -;
#X obj 580 1284 +;
#X obj 1315 206 bng 15 250 50 0 empty empty empty 17 7 0 10 -262144
-1 -1;
#X obj 1331 179 spigot;
#X obj 1534 140 r form_m;
#X obj 1446 215 demux 0 1 2 3 4 5 6;
#X floatatom 1535 163 5 0 0 0 - - -;
#X obj 1374 152 r vector_m;
#X obj 1425 261 bng 15 250 50 0 empty empty empty 17 7 0 10 -262144
-1 -1;
#X obj 1456 258 bng 15 250 50 0 empty empty empty 17 7 0 10 -262144
-1 -1;
#X obj 1483 256 bng 15 250 50 0 empty empty empty 17 7 0 10 -262144
-1 -1;
#X obj 1507 256 bng 15 250 50 0 empty empty empty 17 7 0 10 -262144
-1 -1;
#X obj 1532 258 bng 15 250 50 0 empty empty empty 17 7 0 10 -262144
-1 -1;
#X obj 1554 259 bng 15 250 50 0 empty empty empty 17 7 0 10 -262144
-1 -1;
#X obj 1601 251 bng 15 250 50 0 empty empty empty 17 7 0 10 -262144
-1 -1;
#X floatatom 555 1209 5 0 0 0 - - -;
#X obj 556 1179 mux 0 1 2 3 4 5 6;
#X obj 857 1083 r form_m;
#X floatatom 857 1104 5 0 0 0 - - -;
#X obj 596 1051 spigot;
#X obj 1306 685 bng 15 250 50 0 empty empty empty 17 7 0 10 -262144
-1 -1;
#X obj 638 1006 r vector_m;
#X obj 1233 813 spigot;
#X obj 1266 790 == 0;
#X floatatom 596 1125 5 0 0 0 - - -;
#X obj 1266 769 r vector_m;
#X obj 1230 854 bng 15 250 50 0 empty empty empty 17 7 0 10 -262144
-1 -1;
#X obj 1097 999 r vector_offset;
#X obj 580 1245 +;
#X floatatom 1097 1027 5 0 0 0 - - -;
#X obj 920 829 cnv 15 210 40 empty empty empty 20 12 0 14 -204865 -66577
0;
#X floatatom 926 841 5 0 0 1 final_offset - -;
#N canvas 0 0 450 300 (subpatch) 0;
#X array muisti1 1 float 3;
#A 0 7.2102;
#X coords 0 128 1 -128 15 15 1 0 0;
#X restore 1240 36 graph;
#N canvas 0 0 450 300 (subpatch) 0;
#X array muisti2 1 float 3;
#A 0 10;
#X coords 0 128 1 -128 15 15 1 0 0;
#X restore 1240 67 graph;
#N canvas 0 0 450 300 (subpatch) 0;
#X array muisti3 1 float 3;
#A 0 8;
#X coords 0 128 1 -128 15 15 1 0 0;
#X restore 1241 98 graph;
#X floatatom 733 1259 5 0 0 0 - - -;
#X obj 603 1154 bng 15 250 50 0 empty empty empty 17 7 0 10 -262144
-1 -1;
#X connect 1 0 12 0;
#X connect 2 0 11 0;
#X connect 3 0 10 0;
#X connect 4 0 13 0;
#X connect 5 0 14 0;
#X connect 6 0 9 0;
#X connect 7 0 8 0;
#X connect 8 0 38 0;
#X connect 9 0 35 1;
#X connect 10 0 35 6;
#X connect 11 0 35 4;
#X connect 12 0 35 5;
#X connect 13 0 35 2;
#X connect 14 0 35 3;
#X connect 16 0 22 0;
#X connect 16 0 24 0;
#X connect 16 0 39 0;
#X connect 18 0 17 1;
#X connect 19 0 17 0;
#X connect 19 0 18 0;
#X connect 20 0 19 0;
#X connect 21 0 7 0;
#X connect 22 0 21 0;
#X connect 23 0 25 0;
#X connect 24 0 27 0;
#X connect 24 1 28 0;
#X connect 24 2 29 0;
#X connect 24 3 30 0;
#X connect 24 4 31 0;
#X connect 24 5 32 0;
#X connect 24 6 33 0;
#X connect 25 0 24 1;
#X connect 26 0 22 1;
#X connect 28 0 6 0;
#X connect 29 0 4 0;
#X connect 30 0 5 0;
#X connect 31 0 2 0;
#X connect 32 0 1 0;
#X connect 33 0 3 0;
#X connect 34 0 47 0;
#X connect 35 0 34 0;
#X connect 36 0 37 0;
#X connect 37 0 35 7;
#X connect 38 0 43 0;
#X connect 39 0 41 0;
#X connect 40 0 38 1;
#X connect 41 0 45 0;
#X connect 42 0 41 1;
#X connect 43 0 55 0;
#X connect 43 0 47 1;
#X connect 44 0 42 0;
#X connect 45 0 48 0;
#X connect 46 0 48 0;
#X connect 47 0 20 0;
#X connect 48 0 43 0;
#X connect 50 0 20 1;
#X connect 55 0 34 0;
#X coords 0 -1 1 1 1075 770 1 100 100;
#X restore -2 -734 pd genmatrix;
