#N canvas 1 111 223 453 10;
#N canvas 0 83 1680 967 trigen 0;
#X obj 100 101 cnv 15 190 320 empty empty empty 20 12 0 14 -74580 -66577
0;
#N canvas 578 106 1026 615 tonalwrap 0;
#X obj 305 136 inlet;
#X obj 307 572 outlet;
#X obj 307 542 pack;
#X obj 302 518 makenote;
#X floatatom 325 465 5 0 0 0 - - -;
#X floatatom 376 465 5 0 0 0 - - -;
#X floatatom 279 465 5 0 0 0 - - -;
#X msg 325 445 126;
#X floatatom 280 441 5 0 0 0 - - -;
#X obj 347 317 tabread scaler;
#X obj 252 307 int;
#X obj 252 287 /;
#X obj 252 329 *;
#X obj 849 82 r scale_notes;
#X obj 752 79 r tuning_notes;
#X floatatom 752 101 5 0 0 0 - - -;
#X obj 347 296 mod;
#X floatatom 849 104 5 0 0 0 - - -;
#X floatatom 301 207 5 0 0 0 - - -;
#X obj 280 410 +;
#X floatatom 252 260 5 0 0 0 - - -;
#X floatatom 347 269 5 0 0 0 - - -;
#X obj 359 372 bng 15 250 50 0 empty empty empty 17 7 0 10 -262144
-1 -1;
#X msg 376 444 150;
#X obj 456 114 inlet;
#X obj 494 114 inlet;
#X connect 0 0 18 0;
#X connect 2 0 1 0;
#X connect 3 0 2 0;
#X connect 3 1 2 1;
#X connect 4 0 3 1;
#X connect 5 0 3 2;
#X connect 6 0 3 0;
#X connect 7 0 4 0;
#X connect 8 0 6 0;
#X connect 9 0 22 0;
#X connect 9 0 19 0;
#X connect 10 0 12 0;
#X connect 11 0 10 0;
#X connect 12 0 19 1;
#X connect 13 0 17 0;
#X connect 14 0 15 0;
#X connect 15 0 12 1;
#X connect 16 0 9 0;
#X connect 17 0 16 1;
#X connect 17 0 11 1;
#X connect 18 0 20 0;
#X connect 18 0 21 0;
#X connect 19 0 8 0;
#X connect 20 0 11 0;
#X connect 21 0 16 0;
#X connect 22 0 20 0;
#X connect 23 0 5 0;
#X connect 24 0 4 0;
#X connect 25 0 5 0;
#X restore 586 291 pd tonalwrap;
#X floatatom 586 270 5 0 0 0 - - -;
#X obj 586 -294 bng 15 250 50 0 empty empty empty 17 7 0 10 -262144
-1 -1;
#X obj 586 250 +;
#X obj 586 -144 int;
#X obj 611 -144 + 1;
#X obj 586 151 mod;
#X floatatom 615 135 5 0 0 0 - - -;
#X floatatom 616 234 5 0 0 0 - - -;
#X obj 586 185 mod;
#X floatatom 664 169 5 0 0 0 - - -;
#X obj 586 218 mod;
#X floatatom 715 202 5 0 0 0 - - -;
#X obj 586 -101 sin;
#X obj 586 -77 *;
#X floatatom 624 -93 5 0 0 0 - - -;
#X obj 586 -50 +;
#X floatatom 624 -66 5 0 0 0 - - -;
#X floatatom 586 -30 5 0 0 0 - - -;
#X obj 586 -122 /;
#X floatatom 639 -138 5 0 0 0 - - -;
#X obj 775 -106 sin;
#X obj 775 -85 *;
#X floatatom 812 -101 5 0 0 0 - - -;
#X obj 775 -63 +;
#X floatatom 812 -79 5 0 0 0 - - -;
#X obj 775 -127 /;
#X floatatom 790 -166 5 0 0 0 - - -;
#X floatatom 775 -22 5 0 0 0 - - -;
#X obj 615 113 * 3;
#X obj 664 147 * 2;
#X obj 715 178 * 1;
#X obj 775 -42 int;
#X obj 859 264 mod 100;
#X obj 778 286 tabwrite graph;
#X obj 109 116 cnv 15 170 70 empty empty empty 20 12 0 14 -232576 -66577
0;
#N canvas 0 0 450 300 (subpatch) 0;
#X array graph 100 float 3;
#A 0 21 18 17 24 22 23 21 23 21 20 20 17 19 19 23 20 24 20 21 22 18
22 25 17 24 24 20 19 19 19 19 21 27 26 24 20 24 21 18 20 25 21 26 20
24 22 26 28 27 20 28 21 19 28 19 29 22 17 18 28 24 22 24 23 25 17 17
19 18 17 23 20 25 21 22 23 20 17 23 20 20 18 21 21 21 22 20 21 21 24
17 19 22 20 19 25 20 24 18 19;
#X coords 0 30 99 0 170 70 1 0 0;
#X restore 109 116 graph;
#X obj 112 224 vsl 11 100 0 99 0 0 empty empty empty 0 -9 0 10 -82645
-1 -1 0 1;
#X floatatom 113 329 2 0 99 0 - - -;
#X text 112 205 l;
#X obj 129 224 vsl 11 100 0 99 0 0 empty empty empty 0 -9 0 10 -82645
-1 -1 0 1;
#X floatatom 130 329 2 0 99 0 - - -;
#X text 128 204 s;
#X obj 146 224 vsl 11 100 0 99 0 0 empty empty empty 0 -9 0 10 -82645
-1 -1 0 1;
#X floatatom 147 329 2 0 99 0 - - -;
#X text 147 205 b;
#X obj 229 224 vsl 11 100 0 99 0 0 empty empty empty 0 -9 0 10 -82645
-1 -1 0 1;
#X floatatom 230 329 2 0 99 0 - - -;
#X text 229 205 l;
#X obj 246 224 vsl 11 100 0 99 0 0 empty empty empty 0 -9 0 10 -82645
-1 -1 0 1;
#X floatatom 247 329 2 0 99 0 - - -;
#X text 246 205 s;
#X obj 263 224 vsl 11 100 0 99 0 0 empty empty empty 0 -9 0 10 -82645
-1 -1 0 1;
#X floatatom 264 329 2 0 99 0 - - -;
#X text 264 205 b;
#X text 227 191 Circle 2;
#X text 110 191 Circle 1;
#X obj 170 271 vradio 15 1 0 5 empty empty empty 0 -8 0 10 -107480
-1 -1 2;
#X obj 185 271 vradio 15 1 0 5 empty empty empty 0 -8 0 10 -107480
-1 -1 1;
#X obj 200 271 vradio 15 1 0 5 empty empty empty 0 -8 0 10 -107480
-1 -1 0;
#X text 173 250 Ratios;
#X obj 91 -186 loadbang;
#X msg 168 -104 1;
#X text 174 223 --- >;
#X obj 630 91 + 1;
#X obj 679 124 + 1;
#X obj 730 155 + 1;
#X msg 124 -100 2;
#X msg 214 -104 0;
#X obj 111 365 hsl 128 11 0 127 0 0 empty empty base -2 -8 0 10 -74516
-1 -1 0 1;
#X floatatom 245 363 5 0 0 0 - - -;
#X floatatom 106 396 5 0 127 1 volume - -;
#X floatatom 250 396 5 10 600 0 length - -;
#X msg -13 -121 126;
#X msg 284 -174 150;
#X obj 587 -315 inlet;
#X obj 586 422 outlet;
#X connect 1 0 77 0;
#X connect 2 0 1 0;
#X connect 2 0 35 0;
#X connect 3 0 5 0;
#X connect 4 0 2 0;
#X connect 5 0 6 0;
#X connect 5 0 20 0;
#X connect 5 0 27 0;
#X connect 5 0 34 0;
#X connect 6 0 5 1;
#X connect 7 0 10 0;
#X connect 8 0 7 1;
#X connect 9 0 4 1;
#X connect 10 0 12 0;
#X connect 11 0 10 1;
#X connect 12 0 4 0;
#X connect 13 0 12 1;
#X connect 14 0 15 0;
#X connect 15 0 17 0;
#X connect 16 0 15 1;
#X connect 17 0 19 0;
#X connect 18 0 17 1;
#X connect 19 0 7 0;
#X connect 20 0 14 0;
#X connect 21 0 20 1;
#X connect 22 0 23 0;
#X connect 23 0 25 0;
#X connect 24 0 23 1;
#X connect 25 0 33 0;
#X connect 26 0 25 1;
#X connect 27 0 22 0;
#X connect 28 0 27 1;
#X connect 29 0 30 0;
#X connect 29 0 31 0;
#X connect 29 0 32 0;
#X connect 30 0 8 0;
#X connect 31 0 11 0;
#X connect 32 0 13 0;
#X connect 33 0 29 0;
#X connect 34 0 35 1;
#X connect 38 0 39 0;
#X connect 39 0 21 0;
#X connect 41 0 42 0;
#X connect 42 0 16 0;
#X connect 44 0 45 0;
#X connect 45 0 18 0;
#X connect 47 0 48 0;
#X connect 48 0 28 0;
#X connect 50 0 51 0;
#X connect 51 0 24 0;
#X connect 53 0 54 0;
#X connect 54 0 26 0;
#X connect 58 0 65 0;
#X connect 59 0 66 0;
#X connect 60 0 67 0;
#X connect 62 0 69 0;
#X connect 62 0 63 0;
#X connect 62 0 68 0;
#X connect 62 0 74 0;
#X connect 62 0 75 0;
#X connect 63 0 59 0;
#X connect 65 0 30 1;
#X connect 66 0 31 1;
#X connect 67 0 32 1;
#X connect 68 0 58 0;
#X connect 69 0 60 0;
#X connect 70 0 71 0;
#X connect 71 0 9 0;
#X connect 72 0 1 1;
#X connect 73 0 1 2;
#X connect 74 0 72 0;
#X connect 75 0 73 0;
#X connect 76 0 3 0;
#X coords 0 -1 1 1 190 320 1 100 100;
#X restore -429 -175 pd trigen;
#N canvas 1 86 955 617 gridwrap 0;
#X obj 550 2 inlet;
#X obj 100 100 cnv 15 200 120 empty empty empty 20 12 0 14 -128992
-66577 0;
#X obj 550 44 int;
#X obj 576 44 + 1;
#X floatatom 550 65 5 0 0 0 - - -;
#X obj 550 25 bng 15 250 50 0 empty empty empty 17 7 0 10 -262144 -1
-1;
#X obj 102 129 hradio 8 1 0 24 empty empty empty 0 -8 0 10 -132701
-1 -1 0;
#X obj 103 159 hradio 8 1 0 24 empty empty empty 0 -8 0 10 -132701
-1 -1 0;
#X obj 103 189 hradio 8 1 0 24 empty empty empty 0 -8 0 10 -132701
-1 -1 0;
#X floatatom 104 200 3 0 100 1 /100 - -;
#X floatatom 103 169 3 0 100 1 /100 - -;
#X floatatom 102 140 3 0 100 1 /100 - -;
#X msg 22 35 100;
#X msg 6 55 0;
#X obj 1 -10 loadbang;
#X text 163 100 Grid Wrapper;
#X obj 467 125 == 0;
#X obj 467 105 mod;
#X obj 554 336 outlet;
#X obj 554 316 bng 15 250 50 0 empty empty empty 17 7 0 10 -262144
-1 -1;
#X obj 467 183 random 100;
#X obj 467 226 route 1;
#X obj 467 205 <;
#X obj 467 145 route 1;
#X obj 467 165 bng 15 250 50 0 empty empty empty 17 7 0 10 -262144
-1 -1;
#X obj 550 127 == 0;
#X obj 550 107 mod;
#X obj 550 185 random 100;
#X obj 550 228 route 1;
#X obj 550 207 <;
#X obj 550 147 route 1;
#X obj 550 167 bng 15 250 50 0 empty empty empty 17 7 0 10 -262144
-1 -1;
#X obj 633 134 == 0;
#X obj 633 114 mod;
#X obj 633 192 random 100;
#X obj 633 235 route 1;
#X obj 633 214 <;
#X obj 633 154 route 1;
#X obj 633 174 bng 15 250 50 0 empty empty empty 17 7 0 10 -262144
-1 -1;
#X obj 279 139 bng 15 250 50 0 empty empty empty 17 7 0 10 -187264
-1 -1;
#X obj 280 170 bng 15 250 50 0 empty empty empty 17 7 0 10 -187264
-1 -1;
#X obj 280 199 bng 15 250 50 0 empty empty empty 17 7 0 10 -187264
-1 -1;
#X obj 500 3 r metro;
#X connect 0 0 5 0;
#X connect 2 0 3 0;
#X connect 2 0 4 0;
#X connect 3 0 2 1;
#X connect 4 0 17 0;
#X connect 4 0 26 0;
#X connect 4 0 33 0;
#X connect 5 0 2 0;
#X connect 6 0 17 1;
#X connect 7 0 26 1;
#X connect 8 0 33 1;
#X connect 9 0 36 1;
#X connect 10 0 29 1;
#X connect 11 0 22 1;
#X connect 12 0 11 0;
#X connect 13 0 10 0;
#X connect 13 0 9 0;
#X connect 14 0 12 0;
#X connect 14 0 13 0;
#X connect 16 0 23 0;
#X connect 17 0 16 0;
#X connect 19 0 18 0;
#X connect 20 0 22 0;
#X connect 21 0 19 0;
#X connect 21 0 39 0;
#X connect 22 0 21 0;
#X connect 23 0 24 0;
#X connect 24 0 20 0;
#X connect 25 0 30 0;
#X connect 26 0 25 0;
#X connect 27 0 29 0;
#X connect 28 0 19 0;
#X connect 28 0 40 0;
#X connect 29 0 28 0;
#X connect 30 0 31 0;
#X connect 31 0 27 0;
#X connect 32 0 37 0;
#X connect 33 0 32 0;
#X connect 34 0 36 0;
#X connect 35 0 19 0;
#X connect 35 0 41 0;
#X connect 36 0 35 0;
#X connect 37 0 38 0;
#X connect 38 0 34 0;
#X connect 42 0 5 0;
#X coords 0 -1 1 1 200 120 1 100 100;
#X restore -434 -299 pd gridwrap;
#X connect 1 0 0 0;
