#N canvas 169 83 1465 918 10;
#N canvas 0 83 1680 967 borgcube 0;
#X obj 101 100 cnv 15 560 560 empty empty empty 20 12 0 14 -13381 -66577
0;
#X obj 82 22 r to_GUI;
#X obj 83 706 s from_GUI;
#X obj 151 184 cube_sphere 16 222 14 33288 0 24197 201 278 24197 165
278 24197 154 325 24197 221 291 24197 131 243 24197 86 213 24197 105
293 24197 128 273 24197 286 335 24197 138 301 24197 344 311 24197 227
355 24197 298 266 24197 337 264 24197 253 311 24197 191 332;
#N canvas 224 85 343 545 colors 0;
#N canvas 16 80 189 98 sphere_color 0;
#X obj 12 27 bng 15 250 50 0 empty empty empty 0 -6 0 8 -262144 -1
-1;
#X msg 12 139 0;
#X obj 12 226 outlet;
#X obj 12 43 bng 15 250 50 0 empty empty empty 0 -6 0 8 -166441 -1
-1;
#X msg 12 160 1;
#X obj 12 59 bng 15 250 50 0 empty empty empty 0 -6 0 8 -66577 -1 -1
;
#X obj 60 27 bng 15 250 50 0 empty empty empty 0 -6 0 8 -261689 -1
-1;
#X msg 12 181 2;
#X msg 60 139 3;
#X obj 76 27 bng 15 250 50 0 empty empty empty 0 -6 0 8 -261681 -1
-1;
#X obj 92 27 bng 15 250 50 0 empty empty empty 0 -6 0 8 -262131 -1
-1;
#X obj 108 27 bng 15 250 50 0 empty empty empty 0 -6 0 8 -225271 -1
-1;
#X obj 124 27 bng 15 250 50 0 empty empty empty 0 -6 0 8 -225280 -1
-1;
#X msg 76 139 4;
#X msg 92 139 5;
#X msg 108 139 6;
#X msg 124 139 7;
#X obj 140 27 bng 15 250 50 0 empty empty empty 0 -6 0 8 -228992 -1
-1;
#X obj 156 27 bng 15 250 50 0 empty empty empty 0 -6 0 8 -257472 -1
-1;
#X msg 140 139 8;
#X msg 156 139 9;
#X obj 28 27 bng 15 250 50 0 empty empty empty 0 -6 0 8 -233017 -1
-1;
#X obj 28 43 bng 15 250 50 0 empty empty empty 0 -6 0 8 -128992 -1
-1;
#X obj 28 59 bng 15 250 50 0 empty empty empty 0 -6 0 8 -33289 -1 -1
;
#X obj 60 43 bng 15 250 50 0 empty empty empty 0 -6 0 8 -258699 -1
-1;
#X obj 76 43 bng 15 250 50 0 empty empty empty 0 -6 0 8 -260818 -1
-1;
#X obj 92 43 bng 15 250 50 0 empty empty empty 0 -6 0 8 -241291 -1
-1;
#X obj 108 43 bng 15 250 50 0 empty empty empty 0 -6 0 8 -24198 -1
-1;
#X obj 124 43 bng 15 250 50 0 empty empty empty 0 -6 0 8 -44926 -1
-1;
#X obj 140 43 bng 15 250 50 0 empty empty empty 0 -6 0 8 -62784 -1
-1;
#X obj 156 43 bng 15 250 50 0 empty empty empty 0 -6 0 8 -250685 -1
-1;
#X msg 60 160 13;
#X msg 76 160 14;
#X msg 92 160 15;
#X msg 108 160 16;
#X msg 124 160 17;
#X msg 140 160 18;
#X msg 156 160 19;
#X msg 28 139 10;
#X msg 28 160 11;
#X msg 28 181 12;
#X obj 44 27 bng 15 250 50 0 empty empty empty 0 -6 0 8 -195568 -1
-1;
#X obj 44 43 bng 15 250 50 0 empty empty empty 0 -6 0 8 -99865 -1 -1
;
#X obj 44 59 bng 15 250 50 0 empty empty empty 0 -6 0 8 -1 -1 -1;
#X obj 60 59 bng 15 250 50 0 empty empty empty 0 -6 0 8 -143491 -1
-1;
#X obj 76 59 bng 15 250 50 0 empty empty empty 0 -6 0 8 -90881 -1 -1
;
#X obj 92 59 bng 15 250 50 0 empty empty empty 0 -6 0 8 -123526 -1
-1;
#X obj 108 59 bng 15 250 50 0 empty empty empty 0 -6 0 8 -42246 -1
-1;
#X obj 124 59 bng 15 250 50 0 empty empty empty 0 -6 0 8 -1109 -1 -1
;
#X obj 140 59 bng 15 250 50 0 empty empty empty 0 -6 0 8 -355 -1 -1
;
#X obj 156 59 bng 15 250 50 0 empty empty empty 0 -6 0 8 -90133 -1
-1;
#X msg 60 181 23;
#X msg 76 181 24;
#X msg 92 181 25;
#X msg 108 181 26;
#X msg 124 181 27;
#X msg 140 181 28;
#X msg 156 181 29;
#X msg 44 139 20;
#X msg 44 160 21;
#X msg 44 181 22;
#X connect 0 0 1 0;
#X connect 1 0 2 0;
#X connect 3 0 4 0;
#X connect 4 0 2 0;
#X connect 5 0 7 0;
#X connect 6 0 8 0;
#X connect 7 0 2 0;
#X connect 8 0 2 0;
#X connect 9 0 13 0;
#X connect 10 0 14 0;
#X connect 11 0 15 0;
#X connect 12 0 16 0;
#X connect 13 0 2 0;
#X connect 14 0 2 0;
#X connect 15 0 2 0;
#X connect 16 0 2 0;
#X connect 17 0 19 0;
#X connect 18 0 20 0;
#X connect 19 0 2 0;
#X connect 20 0 2 0;
#X connect 21 0 38 0;
#X connect 22 0 39 0;
#X connect 23 0 40 0;
#X connect 24 0 31 0;
#X connect 25 0 32 0;
#X connect 26 0 33 0;
#X connect 27 0 34 0;
#X connect 28 0 35 0;
#X connect 29 0 36 0;
#X connect 30 0 37 0;
#X connect 31 0 2 0;
#X connect 32 0 2 0;
#X connect 33 0 2 0;
#X connect 34 0 2 0;
#X connect 35 0 2 0;
#X connect 36 0 2 0;
#X connect 37 0 2 0;
#X connect 38 0 2 0;
#X connect 39 0 2 0;
#X connect 40 0 2 0;
#X connect 41 0 58 0;
#X connect 42 0 59 0;
#X connect 43 0 60 0;
#X connect 44 0 51 0;
#X connect 45 0 52 0;
#X connect 46 0 53 0;
#X connect 47 0 54 0;
#X connect 48 0 55 0;
#X connect 49 0 56 0;
#X connect 50 0 57 0;
#X connect 51 0 2 0;
#X connect 52 0 2 0;
#X connect 53 0 2 0;
#X connect 54 0 2 0;
#X connect 55 0 2 0;
#X connect 56 0 2 0;
#X connect 57 0 2 0;
#X connect 58 0 2 0;
#X connect 59 0 2 0;
#X connect 60 0 2 0;
#X coords 0 0 1 1 200 100 1;
#X restore 47 17 pd sphere_color;
#X msg 47 125 \; to_GUI sphere_col \$1;
#N canvas 16 80 189 98 frame_color 0;
#X obj 12 27 bng 15 250 50 0 empty empty empty 0 -6 0 8 -262144 -1
-1;
#X msg 12 139 0;
#X obj 12 226 outlet;
#X obj 12 43 bng 15 250 50 0 empty empty empty 0 -6 0 8 -166441 -1
-1;
#X msg 12 160 1;
#X obj 12 59 bng 15 250 50 0 empty empty empty 0 -6 0 8 -66577 -1 -1
;
#X obj 60 27 bng 15 250 50 0 empty empty empty 0 -6 0 8 -261689 -1
-1;
#X msg 12 181 2;
#X msg 60 139 3;
#X obj 76 27 bng 15 250 50 0 empty empty empty 0 -6 0 8 -261681 -1
-1;
#X obj 92 27 bng 15 250 50 0 empty empty empty 0 -6 0 8 -262131 -1
-1;
#X obj 108 27 bng 15 250 50 0 empty empty empty 0 -6 0 8 -225271 -1
-1;
#X obj 124 27 bng 15 250 50 0 empty empty empty 0 -6 0 8 -225280 -1
-1;
#X msg 76 139 4;
#X msg 92 139 5;
#X msg 108 139 6;
#X msg 124 139 7;
#X obj 140 27 bng 15 250 50 0 empty empty empty 0 -6 0 8 -228992 -1
-1;
#X obj 156 27 bng 15 250 50 0 empty empty empty 0 -6 0 8 -257472 -1
-1;
#X msg 140 139 8;
#X msg 156 139 9;
#X obj 28 27 bng 15 250 50 0 empty empty empty 0 -6 0 8 -233017 -1
-1;
#X obj 28 43 bng 15 250 50 0 empty empty empty 0 -6 0 8 -128992 -1
-1;
#X obj 28 59 bng 15 250 50 0 empty empty empty 0 -6 0 8 -33289 -1 -1
;
#X obj 60 43 bng 15 250 50 0 empty empty empty 0 -6 0 8 -258699 -1
-1;
#X obj 76 43 bng 15 250 50 0 empty empty empty 0 -6 0 8 -260818 -1
-1;
#X obj 92 43 bng 15 250 50 0 empty empty empty 0 -6 0 8 -241291 -1
-1;
#X obj 108 43 bng 15 250 50 0 empty empty empty 0 -6 0 8 -24198 -1
-1;
#X obj 124 43 bng 15 250 50 0 empty empty empty 0 -6 0 8 -44926 -1
-1;
#X obj 140 43 bng 15 250 50 0 empty empty empty 0 -6 0 8 -62784 -1
-1;
#X obj 156 43 bng 15 250 50 0 empty empty empty 0 -6 0 8 -250685 -1
-1;
#X msg 60 160 13;
#X msg 76 160 14;
#X msg 92 160 15;
#X msg 108 160 16;
#X msg 124 160 17;
#X msg 140 160 18;
#X msg 156 160 19;
#X msg 28 139 10;
#X msg 28 160 11;
#X msg 28 181 12;
#X obj 44 27 bng 15 250 50 0 empty empty empty 0 -6 0 8 -195568 -1
-1;
#X obj 44 43 bng 15 250 50 0 empty empty empty 0 -6 0 8 -99865 -1 -1
;
#X obj 44 59 bng 15 250 50 0 empty empty empty 0 -6 0 8 -1 -1 -1;
#X obj 60 59 bng 15 250 50 0 empty empty empty 0 -6 0 8 -143491 -1
-1;
#X obj 76 59 bng 15 250 50 0 empty empty empty 0 -6 0 8 -90881 -1 -1
;
#X obj 92 59 bng 15 250 50 0 empty empty empty 0 -6 0 8 -123526 -1
-1;
#X obj 108 59 bng 15 250 50 0 empty empty empty 0 -6 0 8 -42246 -1
-1;
#X obj 124 59 bng 15 250 50 0 empty empty empty 0 -6 0 8 -1109 -1 -1
;
#X obj 140 59 bng 15 250 50 0 empty empty empty 0 -6 0 8 -355 -1 -1
;
#X obj 156 59 bng 15 250 50 0 empty empty empty 0 -6 0 8 -90133 -1
-1;
#X msg 60 181 23;
#X msg 76 181 24;
#X msg 92 181 25;
#X msg 108 181 26;
#X msg 124 181 27;
#X msg 140 181 28;
#X msg 156 181 29;
#X msg 44 139 20;
#X msg 44 160 21;
#X msg 44 181 22;
#X connect 0 0 1 0;
#X connect 1 0 2 0;
#X connect 3 0 4 0;
#X connect 4 0 2 0;
#X connect 5 0 7 0;
#X connect 6 0 8 0;
#X connect 7 0 2 0;
#X connect 8 0 2 0;
#X connect 9 0 13 0;
#X connect 10 0 14 0;
#X connect 11 0 15 0;
#X connect 12 0 16 0;
#X connect 13 0 2 0;
#X connect 14 0 2 0;
#X connect 15 0 2 0;
#X connect 16 0 2 0;
#X connect 17 0 19 0;
#X connect 18 0 20 0;
#X connect 19 0 2 0;
#X connect 20 0 2 0;
#X connect 21 0 38 0;
#X connect 22 0 39 0;
#X connect 23 0 40 0;
#X connect 24 0 31 0;
#X connect 25 0 32 0;
#X connect 26 0 33 0;
#X connect 27 0 34 0;
#X connect 28 0 35 0;
#X connect 29 0 36 0;
#X connect 30 0 37 0;
#X connect 31 0 2 0;
#X connect 32 0 2 0;
#X connect 33 0 2 0;
#X connect 34 0 2 0;
#X connect 35 0 2 0;
#X connect 36 0 2 0;
#X connect 37 0 2 0;
#X connect 38 0 2 0;
#X connect 39 0 2 0;
#X connect 40 0 2 0;
#X connect 41 0 58 0;
#X connect 42 0 59 0;
#X connect 43 0 60 0;
#X connect 44 0 51 0;
#X connect 45 0 52 0;
#X connect 46 0 53 0;
#X connect 47 0 54 0;
#X connect 48 0 55 0;
#X connect 49 0 56 0;
#X connect 50 0 57 0;
#X connect 51 0 2 0;
#X connect 52 0 2 0;
#X connect 53 0 2 0;
#X connect 54 0 2 0;
#X connect 55 0 2 0;
#X connect 56 0 2 0;
#X connect 57 0 2 0;
#X connect 58 0 2 0;
#X connect 59 0 2 0;
#X connect 60 0 2 0;
#X coords 0 0 1 1 200 100 1;
#X restore 46 161 pd frame_color;
#X msg 46 263 \; to_GUI frame_col \$1;
#X msg 57 476 \; to_GUI src_col \$1 \$2;
#X obj 57 453 pack 1 15;
#X obj 81 410 t b f;
#X obj 57 433 f 1;
#N canvas 16 80 189 98 source_color 0;
#X obj 12 27 bng 15 250 50 0 empty empty empty 0 -6 0 8 -262144 -1
-1;
#X msg 12 139 0;
#X obj 12 226 outlet;
#X obj 12 43 bng 15 250 50 0 empty empty empty 0 -6 0 8 -166441 -1
-1;
#X msg 12 160 1;
#X obj 12 59 bng 15 250 50 0 empty empty empty 0 -6 0 8 -66577 -1 -1
;
#X obj 60 27 bng 15 250 50 0 empty empty empty 0 -6 0 8 -261689 -1
-1;
#X msg 12 181 2;
#X msg 60 139 3;
#X obj 76 27 bng 15 250 50 0 empty empty empty 0 -6 0 8 -261681 -1
-1;
#X obj 92 27 bng 15 250 50 0 empty empty empty 0 -6 0 8 -262131 -1
-1;
#X obj 108 27 bng 15 250 50 0 empty empty empty 0 -6 0 8 -225271 -1
-1;
#X obj 124 27 bng 15 250 50 0 empty empty empty 0 -6 0 8 -225280 -1
-1;
#X msg 76 139 4;
#X msg 92 139 5;
#X msg 108 139 6;
#X msg 124 139 7;
#X obj 140 27 bng 15 250 50 0 empty empty empty 0 -6 0 8 -228992 -1
-1;
#X obj 156 27 bng 15 250 50 0 empty empty empty 0 -6 0 8 -257472 -1
-1;
#X msg 140 139 8;
#X msg 156 139 9;
#X obj 28 27 bng 15 250 50 0 empty empty empty 0 -6 0 8 -233017 -1
-1;
#X obj 28 43 bng 15 250 50 0 empty empty empty 0 -6 0 8 -128992 -1
-1;
#X obj 28 59 bng 15 250 50 0 empty empty empty 0 -6 0 8 -33289 -1 -1
;
#X obj 60 43 bng 15 250 50 0 empty empty empty 0 -6 0 8 -258699 -1
-1;
#X obj 76 43 bng 15 250 50 0 empty empty empty 0 -6 0 8 -260818 -1
-1;
#X obj 92 43 bng 15 250 50 0 empty empty empty 0 -6 0 8 -241291 -1
-1;
#X obj 108 43 bng 15 250 50 0 empty empty empty 0 -6 0 8 -24198 -1
-1;
#X obj 124 43 bng 15 250 50 0 empty empty empty 0 -6 0 8 -44926 -1
-1;
#X obj 140 43 bng 15 250 50 0 empty empty empty 0 -6 0 8 -62784 -1
-1;
#X obj 156 43 bng 15 250 50 0 empty empty empty 0 -6 0 8 -250685 -1
-1;
#X msg 60 160 13;
#X msg 76 160 14;
#X msg 92 160 15;
#X msg 108 160 16;
#X msg 124 160 17;
#X msg 140 160 18;
#X msg 156 160 19;
#X msg 28 139 10;
#X msg 28 160 11;
#X msg 28 181 12;
#X obj 44 27 bng 15 250 50 0 empty empty empty 0 -6 0 8 -195568 -1
-1;
#X obj 44 43 bng 15 250 50 0 empty empty empty 0 -6 0 8 -99865 -1 -1
;
#X obj 44 59 bng 15 250 50 0 empty empty empty 0 -6 0 8 -1 -1 -1;
#X obj 60 59 bng 15 250 50 0 empty empty empty 0 -6 0 8 -143491 -1
-1;
#X obj 76 59 bng 15 250 50 0 empty empty empty 0 -6 0 8 -90881 -1 -1
;
#X obj 92 59 bng 15 250 50 0 empty empty empty 0 -6 0 8 -123526 -1
-1;
#X obj 108 59 bng 15 250 50 0 empty empty empty 0 -6 0 8 -42246 -1
-1;
#X obj 124 59 bng 15 250 50 0 empty empty empty 0 -6 0 8 -1109 -1 -1
;
#X obj 140 59 bng 15 250 50 0 empty empty empty 0 -6 0 8 -355 -1 -1
;
#X obj 156 59 bng 15 250 50 0 empty empty empty 0 -6 0 8 -90133 -1
-1;
#X msg 60 181 23;
#X msg 76 181 24;
#X msg 92 181 25;
#X msg 108 181 26;
#X msg 124 181 27;
#X msg 140 181 28;
#X msg 156 181 29;
#X msg 44 139 20;
#X msg 44 160 21;
#X msg 44 181 22;
#X connect 0 0 1 0;
#X connect 1 0 2 0;
#X connect 3 0 4 0;
#X connect 4 0 2 0;
#X connect 5 0 7 0;
#X connect 6 0 8 0;
#X connect 7 0 2 0;
#X connect 8 0 2 0;
#X connect 9 0 13 0;
#X connect 10 0 14 0;
#X connect 11 0 15 0;
#X connect 12 0 16 0;
#X connect 13 0 2 0;
#X connect 14 0 2 0;
#X connect 15 0 2 0;
#X connect 16 0 2 0;
#X connect 17 0 19 0;
#X connect 18 0 20 0;
#X connect 19 0 2 0;
#X connect 20 0 2 0;
#X connect 21 0 38 0;
#X connect 22 0 39 0;
#X connect 23 0 40 0;
#X connect 24 0 31 0;
#X connect 25 0 32 0;
#X connect 26 0 33 0;
#X connect 27 0 34 0;
#X connect 28 0 35 0;
#X connect 29 0 36 0;
#X connect 30 0 37 0;
#X connect 31 0 2 0;
#X connect 32 0 2 0;
#X connect 33 0 2 0;
#X connect 34 0 2 0;
#X connect 35 0 2 0;
#X connect 36 0 2 0;
#X connect 37 0 2 0;
#X connect 38 0 2 0;
#X connect 39 0 2 0;
#X connect 40 0 2 0;
#X connect 41 0 58 0;
#X connect 42 0 59 0;
#X connect 43 0 60 0;
#X connect 44 0 51 0;
#X connect 45 0 52 0;
#X connect 46 0 53 0;
#X connect 47 0 54 0;
#X connect 48 0 55 0;
#X connect 49 0 56 0;
#X connect 50 0 57 0;
#X connect 51 0 2 0;
#X connect 52 0 2 0;
#X connect 53 0 2 0;
#X connect 54 0 2 0;
#X connect 55 0 2 0;
#X connect 56 0 2 0;
#X connect 57 0 2 0;
#X connect 58 0 2 0;
#X connect 59 0 2 0;
#X connect 60 0 2 0;
#X coords 0 0 1 1 200 100 1;
#X restore 81 306 pd source_color;
#X floatatom 39 364 5 1 100 0 - - -;
#X text 42 337 src;
#X text 35 348 number;
#X connect 0 0 1 0;
#X connect 2 0 3 0;
#X connect 5 0 4 0;
#X connect 6 0 7 0;
#X connect 6 1 5 1;
#X connect 7 0 5 0;
#X connect 8 0 6 0;
#X connect 9 0 7 1;
#X restore 1221 280 pd colors;
#X floatatom 185 748 5 0 100 0 - - -;
#X msg 185 768 \; to_GUI nr_src \$1;
#X msg 306 804 \; to_GUI src_font 14;
#N canvas 0 0 450 300 (subpatch) 0;
#X array borgpitch 16 float 3;
#A 0 7 9 15 8 11 17 17 13 16 14 19 17 10 15 11 14;
#X coords 0 30 16 0 100 40 1 0 0;
#X restore 1119 -219 graph;
#N canvas 1 83 450 300 (subpatch) 0;
#X array borgvol 16 float 3;
#A 0 0.8858 0.747183 0.814264 0.995387 0.572192 0.478966 0.673616 0.658234
0.835967 0.740239 0.700617 0.988039 0.667048 0.611462 0.893311 0.912562
;
#X coords 0 1 16 0 100 40 1 0 0;
#X restore 1119 -159 graph;
#N canvas 0 83 1680 967 sourcetotabs 0;
#X obj 938 -42 r from_GUI;
#X floatatom 611 96 5 0 0 0 - - -;
#X floatatom 644 96 5 0 0 0 - - -;
#X obj 611 74 unpack;
#X obj 611 118 / 3;
#X obj 611 165 abs;
#X obj 611 187 int;
#X floatatom 611 211 5 0 0 0 - - -;
#X obj 611 141 - 29;
#X obj 611 250 tabwrite borgpitch;
#X msg 727 250 0;
#X floatatom 611 234 5 0 0 0 - - -;
#X obj 644 117 abs;
#X floatatom 644 138 5 0 0 0 - - -;
#X obj 644 160 / 180;
#X floatatom 643 184 5 0 0 0 - - -;
#X msg 759 225 0;
#X floatatom 643 209 5 0 0 0 - - -;
#X obj 643 225 tabwrite borgvol;
#X floatatom 784 101 5 0 0 0 - - -;
#X floatatom 817 101 5 0 0 0 - - -;
#X obj 784 79 unpack;
#X obj 784 123 / 3;
#X obj 784 170 abs;
#X obj 784 192 int;
#X floatatom 784 216 5 0 0 0 - - -;
#X obj 784 146 - 29;
#X obj 784 255 tabwrite borgpitch;
#X floatatom 784 239 5 0 0 0 - - -;
#X obj 817 122 abs;
#X floatatom 817 143 5 0 0 0 - - -;
#X obj 817 165 / 180;
#X floatatom 816 189 5 0 0 0 - - -;
#X floatatom 816 214 5 0 0 0 - - -;
#X obj 816 230 tabwrite borgvol;
#X msg 932 230 1;
#X msg 900 255 1;
#X floatatom 964 106 5 0 0 0 - - -;
#X floatatom 997 106 5 0 0 0 - - -;
#X obj 964 84 unpack;
#X obj 964 128 / 3;
#X obj 964 175 abs;
#X obj 964 197 int;
#X floatatom 964 221 5 0 0 0 - - -;
#X obj 964 151 - 29;
#X obj 964 260 tabwrite borgpitch;
#X floatatom 964 244 5 0 0 0 - - -;
#X obj 997 127 abs;
#X floatatom 997 148 5 0 0 0 - - -;
#X obj 997 170 / 180;
#X floatatom 996 194 5 0 0 0 - - -;
#X floatatom 996 219 5 0 0 0 - - -;
#X obj 996 235 tabwrite borgvol;
#X msg 1112 235 2;
#X msg 1080 260 2;
#X floatatom 1145 113 5 0 0 0 - - -;
#X floatatom 1178 113 5 0 0 0 - - -;
#X obj 1145 91 unpack;
#X obj 1145 135 / 3;
#X obj 1145 182 abs;
#X obj 1145 204 int;
#X floatatom 1145 228 5 0 0 0 - - -;
#X obj 1145 158 - 29;
#X obj 1145 267 tabwrite borgpitch;
#X floatatom 1145 251 5 0 0 0 - - -;
#X obj 1178 134 abs;
#X floatatom 1178 155 5 0 0 0 - - -;
#X obj 1178 177 / 180;
#X floatatom 1177 201 5 0 0 0 - - -;
#X floatatom 1177 226 5 0 0 0 - - -;
#X obj 1177 242 tabwrite borgvol;
#X msg 1293 242 3;
#X msg 1261 267 3;
#X floatatom 615 303 5 0 0 0 - - -;
#X floatatom 648 303 5 0 0 0 - - -;
#X obj 615 281 unpack;
#X obj 615 325 / 3;
#X obj 615 372 abs;
#X obj 615 394 int;
#X floatatom 615 418 5 0 0 0 - - -;
#X obj 615 348 - 29;
#X obj 615 457 tabwrite borgpitch;
#X floatatom 615 441 5 0 0 0 - - -;
#X obj 648 324 abs;
#X floatatom 648 345 5 0 0 0 - - -;
#X obj 648 367 / 180;
#X floatatom 647 391 5 0 0 0 - - -;
#X floatatom 647 416 5 0 0 0 - - -;
#X obj 647 432 tabwrite borgvol;
#X floatatom 788 308 5 0 0 0 - - -;
#X floatatom 821 308 5 0 0 0 - - -;
#X obj 788 286 unpack;
#X obj 788 330 / 3;
#X obj 788 377 abs;
#X obj 788 399 int;
#X floatatom 788 423 5 0 0 0 - - -;
#X obj 788 353 - 29;
#X obj 788 462 tabwrite borgpitch;
#X floatatom 788 446 5 0 0 0 - - -;
#X obj 821 329 abs;
#X floatatom 821 350 5 0 0 0 - - -;
#X obj 821 372 / 180;
#X floatatom 820 396 5 0 0 0 - - -;
#X floatatom 820 421 5 0 0 0 - - -;
#X obj 820 437 tabwrite borgvol;
#X floatatom 968 313 5 0 0 0 - - -;
#X floatatom 1001 313 5 0 0 0 - - -;
#X obj 968 291 unpack;
#X obj 968 335 / 3;
#X obj 968 382 abs;
#X obj 968 404 int;
#X floatatom 968 428 5 0 0 0 - - -;
#X obj 968 358 - 29;
#X obj 968 467 tabwrite borgpitch;
#X floatatom 968 451 5 0 0 0 - - -;
#X obj 1001 334 abs;
#X floatatom 1001 355 5 0 0 0 - - -;
#X obj 1001 377 / 180;
#X floatatom 1000 401 5 0 0 0 - - -;
#X floatatom 1000 426 5 0 0 0 - - -;
#X obj 1000 442 tabwrite borgvol;
#X floatatom 1149 320 5 0 0 0 - - -;
#X floatatom 1182 320 5 0 0 0 - - -;
#X obj 1149 298 unpack;
#X obj 1149 342 / 3;
#X obj 1149 389 abs;
#X obj 1149 411 int;
#X floatatom 1149 435 5 0 0 0 - - -;
#X obj 1149 365 - 29;
#X obj 1149 474 tabwrite borgpitch;
#X floatatom 1149 458 5 0 0 0 - - -;
#X obj 1182 341 abs;
#X floatatom 1182 362 5 0 0 0 - - -;
#X obj 1182 384 / 180;
#X floatatom 1181 408 5 0 0 0 - - -;
#X floatatom 1181 433 5 0 0 0 - - -;
#X obj 1181 449 tabwrite borgvol;
#X msg 763 432 4;
#X msg 731 457 4;
#X msg 936 437 5;
#X msg 904 462 5;
#X msg 1116 442 6;
#X msg 1084 467 6;
#X msg 1297 449 7;
#X msg 1265 474 7;
#X floatatom 620 507 5 0 0 0 - - -;
#X floatatom 653 507 5 0 0 0 - - -;
#X obj 620 485 unpack;
#X obj 620 529 / 3;
#X obj 620 576 abs;
#X obj 620 598 int;
#X floatatom 620 622 5 0 0 0 - - -;
#X obj 620 552 - 29;
#X obj 620 661 tabwrite borgpitch;
#X floatatom 620 645 5 0 0 0 - - -;
#X obj 653 528 abs;
#X floatatom 653 549 5 0 0 0 - - -;
#X obj 653 571 / 180;
#X floatatom 652 595 5 0 0 0 - - -;
#X floatatom 652 620 5 0 0 0 - - -;
#X obj 652 636 tabwrite borgvol;
#X floatatom 793 512 5 0 0 0 - - -;
#X floatatom 826 512 5 0 0 0 - - -;
#X obj 793 490 unpack;
#X obj 793 534 / 3;
#X obj 793 581 abs;
#X obj 793 603 int;
#X floatatom 793 627 5 0 0 0 - - -;
#X obj 793 557 - 29;
#X obj 793 666 tabwrite borgpitch;
#X floatatom 793 650 5 0 0 0 - - -;
#X obj 826 533 abs;
#X floatatom 826 554 5 0 0 0 - - -;
#X obj 826 576 / 180;
#X floatatom 825 600 5 0 0 0 - - -;
#X floatatom 825 625 5 0 0 0 - - -;
#X obj 825 641 tabwrite borgvol;
#X floatatom 973 517 5 0 0 0 - - -;
#X floatatom 1006 517 5 0 0 0 - - -;
#X obj 973 495 unpack;
#X obj 973 539 / 3;
#X obj 973 586 abs;
#X obj 973 608 int;
#X floatatom 973 632 5 0 0 0 - - -;
#X obj 973 562 - 29;
#X obj 973 671 tabwrite borgpitch;
#X floatatom 973 655 5 0 0 0 - - -;
#X obj 1006 538 abs;
#X floatatom 1006 559 5 0 0 0 - - -;
#X obj 1006 581 / 180;
#X floatatom 1005 605 5 0 0 0 - - -;
#X floatatom 1005 630 5 0 0 0 - - -;
#X obj 1005 646 tabwrite borgvol;
#X floatatom 1154 524 5 0 0 0 - - -;
#X floatatom 1187 524 5 0 0 0 - - -;
#X obj 1154 502 unpack;
#X obj 1154 546 / 3;
#X obj 1154 593 abs;
#X obj 1154 615 int;
#X floatatom 1154 639 5 0 0 0 - - -;
#X obj 1154 569 - 29;
#X obj 1154 678 tabwrite borgpitch;
#X floatatom 1154 662 5 0 0 0 - - -;
#X obj 1187 545 abs;
#X floatatom 1187 566 5 0 0 0 - - -;
#X obj 1187 588 / 180;
#X floatatom 1186 612 5 0 0 0 - - -;
#X floatatom 1186 637 5 0 0 0 - - -;
#X obj 1186 653 tabwrite borgvol;
#X floatatom 624 714 5 0 0 0 - - -;
#X floatatom 657 714 5 0 0 0 - - -;
#X obj 624 692 unpack;
#X obj 624 736 / 3;
#X obj 624 783 abs;
#X obj 624 805 int;
#X floatatom 624 829 5 0 0 0 - - -;
#X obj 624 759 - 29;
#X obj 624 868 tabwrite borgpitch;
#X floatatom 624 852 5 0 0 0 - - -;
#X obj 657 735 abs;
#X floatatom 657 756 5 0 0 0 - - -;
#X obj 657 778 / 180;
#X floatatom 656 802 5 0 0 0 - - -;
#X floatatom 656 827 5 0 0 0 - - -;
#X obj 656 843 tabwrite borgvol;
#X floatatom 797 719 5 0 0 0 - - -;
#X floatatom 830 719 5 0 0 0 - - -;
#X obj 797 697 unpack;
#X obj 797 741 / 3;
#X obj 797 788 abs;
#X obj 797 810 int;
#X floatatom 797 834 5 0 0 0 - - -;
#X obj 797 764 - 29;
#X obj 797 873 tabwrite borgpitch;
#X floatatom 797 857 5 0 0 0 - - -;
#X obj 830 740 abs;
#X floatatom 830 761 5 0 0 0 - - -;
#X obj 830 783 / 180;
#X floatatom 829 807 5 0 0 0 - - -;
#X floatatom 829 832 5 0 0 0 - - -;
#X obj 829 848 tabwrite borgvol;
#X floatatom 977 724 5 0 0 0 - - -;
#X floatatom 1010 724 5 0 0 0 - - -;
#X obj 977 702 unpack;
#X obj 977 746 / 3;
#X obj 977 793 abs;
#X obj 977 815 int;
#X floatatom 977 839 5 0 0 0 - - -;
#X obj 977 769 - 29;
#X obj 977 878 tabwrite borgpitch;
#X floatatom 977 862 5 0 0 0 - - -;
#X obj 1010 745 abs;
#X floatatom 1010 766 5 0 0 0 - - -;
#X obj 1010 788 / 180;
#X floatatom 1009 812 5 0 0 0 - - -;
#X floatatom 1009 837 5 0 0 0 - - -;
#X obj 1009 853 tabwrite borgvol;
#X floatatom 1158 731 5 0 0 0 - - -;
#X floatatom 1191 731 5 0 0 0 - - -;
#X obj 1158 709 unpack;
#X obj 1158 753 / 3;
#X obj 1158 800 abs;
#X obj 1158 822 int;
#X floatatom 1158 846 5 0 0 0 - - -;
#X obj 1158 776 - 29;
#X obj 1158 885 tabwrite borgpitch;
#X floatatom 1158 869 5 0 0 0 - - -;
#X obj 1191 752 abs;
#X floatatom 1191 773 5 0 0 0 - - -;
#X obj 1191 795 / 180;
#X floatatom 1190 819 5 0 0 0 - - -;
#X floatatom 1190 844 5 0 0 0 - - -;
#X obj 1190 860 tabwrite borgvol;
#X msg 768 636 8;
#X msg 736 661 8;
#X msg 941 641 9;
#X msg 909 666 9;
#X msg 1121 646 10;
#X msg 1089 671 10;
#X msg 1303 653 11;
#X msg 1270 678 11;
#X msg 772 843 12;
#X msg 740 868 12;
#X msg 945 848 13;
#X msg 913 873 13;
#X msg 1125 853 14;
#X msg 1093 878 14;
#X msg 1306 860 15;
#X msg 1274 885 15;
#X obj 937 -20 route 1 2 3 4 5 6 7 8 9 10 11 12 13 14 15 16;
#X obj 1484 493 outlet;
#X obj 1484 425 bng 15 250 50 0 empty empty empty 17 7 0 10 -262144
-1 -1;
#X connect 0 0 289 0;
#X connect 0 0 291 0;
#X connect 1 0 4 0;
#X connect 2 0 12 0;
#X connect 3 0 1 0;
#X connect 3 1 2 0;
#X connect 4 0 8 0;
#X connect 5 0 6 0;
#X connect 6 0 7 0;
#X connect 7 0 11 0;
#X connect 8 0 5 0;
#X connect 10 0 9 1;
#X connect 11 0 9 0;
#X connect 11 0 10 0;
#X connect 12 0 13 0;
#X connect 13 0 14 0;
#X connect 14 0 15 0;
#X connect 15 0 17 0;
#X connect 16 0 18 1;
#X connect 17 0 16 0;
#X connect 17 0 18 0;
#X connect 17 0 18 1;
#X connect 19 0 22 0;
#X connect 20 0 29 0;
#X connect 21 0 19 0;
#X connect 21 1 20 0;
#X connect 22 0 26 0;
#X connect 23 0 24 0;
#X connect 24 0 25 0;
#X connect 25 0 28 0;
#X connect 26 0 23 0;
#X connect 28 0 27 0;
#X connect 28 0 36 0;
#X connect 29 0 30 0;
#X connect 30 0 31 0;
#X connect 31 0 32 0;
#X connect 32 0 33 0;
#X connect 33 0 35 0;
#X connect 33 0 34 0;
#X connect 33 0 34 1;
#X connect 35 0 34 1;
#X connect 36 0 27 1;
#X connect 37 0 40 0;
#X connect 38 0 47 0;
#X connect 39 0 37 0;
#X connect 39 1 38 0;
#X connect 40 0 44 0;
#X connect 41 0 42 0;
#X connect 42 0 43 0;
#X connect 43 0 46 0;
#X connect 44 0 41 0;
#X connect 46 0 45 0;
#X connect 46 0 54 0;
#X connect 47 0 48 0;
#X connect 48 0 49 0;
#X connect 49 0 50 0;
#X connect 50 0 51 0;
#X connect 51 0 53 0;
#X connect 51 0 52 0;
#X connect 51 0 52 1;
#X connect 53 0 52 1;
#X connect 54 0 45 1;
#X connect 55 0 58 0;
#X connect 56 0 65 0;
#X connect 57 0 55 0;
#X connect 57 1 56 0;
#X connect 58 0 62 0;
#X connect 59 0 60 0;
#X connect 60 0 61 0;
#X connect 61 0 64 0;
#X connect 62 0 59 0;
#X connect 64 0 63 0;
#X connect 64 0 72 0;
#X connect 65 0 66 0;
#X connect 66 0 67 0;
#X connect 67 0 68 0;
#X connect 68 0 69 0;
#X connect 69 0 71 0;
#X connect 69 0 70 0;
#X connect 69 0 70 1;
#X connect 71 0 70 1;
#X connect 72 0 63 1;
#X connect 73 0 76 0;
#X connect 74 0 83 0;
#X connect 75 0 73 0;
#X connect 75 1 74 0;
#X connect 76 0 80 0;
#X connect 77 0 78 0;
#X connect 78 0 79 0;
#X connect 79 0 82 0;
#X connect 80 0 77 0;
#X connect 82 0 81 0;
#X connect 82 0 138 0;
#X connect 83 0 84 0;
#X connect 84 0 85 0;
#X connect 85 0 86 0;
#X connect 86 0 87 0;
#X connect 87 0 137 0;
#X connect 87 0 88 0;
#X connect 87 0 88 1;
#X connect 89 0 92 0;
#X connect 90 0 99 0;
#X connect 91 0 89 0;
#X connect 91 1 90 0;
#X connect 92 0 96 0;
#X connect 93 0 94 0;
#X connect 94 0 95 0;
#X connect 95 0 98 0;
#X connect 96 0 93 0;
#X connect 98 0 97 0;
#X connect 98 0 140 0;
#X connect 99 0 100 0;
#X connect 100 0 101 0;
#X connect 101 0 102 0;
#X connect 102 0 103 0;
#X connect 103 0 139 0;
#X connect 103 0 104 0;
#X connect 103 0 104 1;
#X connect 105 0 108 0;
#X connect 106 0 115 0;
#X connect 107 0 105 0;
#X connect 107 1 106 0;
#X connect 108 0 112 0;
#X connect 109 0 110 0;
#X connect 110 0 111 0;
#X connect 111 0 114 0;
#X connect 112 0 109 0;
#X connect 114 0 113 0;
#X connect 114 0 142 0;
#X connect 115 0 116 0;
#X connect 116 0 117 0;
#X connect 117 0 118 0;
#X connect 118 0 119 0;
#X connect 119 0 141 0;
#X connect 119 0 120 0;
#X connect 119 0 120 1;
#X connect 121 0 124 0;
#X connect 122 0 131 0;
#X connect 123 0 121 0;
#X connect 123 1 122 0;
#X connect 124 0 128 0;
#X connect 125 0 126 0;
#X connect 126 0 127 0;
#X connect 127 0 130 0;
#X connect 128 0 125 0;
#X connect 130 0 129 0;
#X connect 130 0 144 0;
#X connect 131 0 132 0;
#X connect 132 0 133 0;
#X connect 133 0 134 0;
#X connect 134 0 135 0;
#X connect 135 0 143 0;
#X connect 135 0 136 0;
#X connect 135 0 136 1;
#X connect 137 0 88 1;
#X connect 138 0 81 1;
#X connect 139 0 104 1;
#X connect 140 0 97 1;
#X connect 141 0 120 1;
#X connect 142 0 113 1;
#X connect 143 0 136 1;
#X connect 144 0 129 1;
#X connect 145 0 148 0;
#X connect 146 0 155 0;
#X connect 147 0 145 0;
#X connect 147 1 146 0;
#X connect 148 0 152 0;
#X connect 149 0 150 0;
#X connect 150 0 151 0;
#X connect 151 0 154 0;
#X connect 152 0 149 0;
#X connect 154 0 153 0;
#X connect 154 0 274 0;
#X connect 155 0 156 0;
#X connect 156 0 157 0;
#X connect 157 0 158 0;
#X connect 158 0 159 0;
#X connect 159 0 273 0;
#X connect 159 0 160 0;
#X connect 159 0 160 1;
#X connect 161 0 164 0;
#X connect 162 0 171 0;
#X connect 163 0 161 0;
#X connect 163 1 162 0;
#X connect 164 0 168 0;
#X connect 165 0 166 0;
#X connect 166 0 167 0;
#X connect 167 0 170 0;
#X connect 168 0 165 0;
#X connect 170 0 169 0;
#X connect 170 0 276 0;
#X connect 171 0 172 0;
#X connect 172 0 173 0;
#X connect 173 0 174 0;
#X connect 174 0 175 0;
#X connect 175 0 275 0;
#X connect 175 0 176 0;
#X connect 175 0 176 1;
#X connect 177 0 180 0;
#X connect 178 0 187 0;
#X connect 179 0 177 0;
#X connect 179 1 178 0;
#X connect 180 0 184 0;
#X connect 181 0 182 0;
#X connect 182 0 183 0;
#X connect 183 0 186 0;
#X connect 184 0 181 0;
#X connect 186 0 185 0;
#X connect 186 0 278 0;
#X connect 187 0 188 0;
#X connect 188 0 189 0;
#X connect 189 0 190 0;
#X connect 190 0 191 0;
#X connect 191 0 277 0;
#X connect 191 0 192 0;
#X connect 191 0 192 1;
#X connect 193 0 196 0;
#X connect 194 0 203 0;
#X connect 195 0 193 0;
#X connect 195 1 194 0;
#X connect 196 0 200 0;
#X connect 197 0 198 0;
#X connect 198 0 199 0;
#X connect 199 0 202 0;
#X connect 200 0 197 0;
#X connect 202 0 201 0;
#X connect 202 0 280 0;
#X connect 203 0 204 0;
#X connect 204 0 205 0;
#X connect 205 0 206 0;
#X connect 206 0 207 0;
#X connect 207 0 279 0;
#X connect 207 0 208 0;
#X connect 207 0 208 1;
#X connect 209 0 212 0;
#X connect 210 0 219 0;
#X connect 211 0 209 0;
#X connect 211 1 210 0;
#X connect 212 0 216 0;
#X connect 213 0 214 0;
#X connect 214 0 215 0;
#X connect 215 0 218 0;
#X connect 216 0 213 0;
#X connect 218 0 217 0;
#X connect 218 0 282 0;
#X connect 219 0 220 0;
#X connect 220 0 221 0;
#X connect 221 0 222 0;
#X connect 222 0 223 0;
#X connect 223 0 281 0;
#X connect 223 0 224 0;
#X connect 223 0 224 1;
#X connect 225 0 228 0;
#X connect 226 0 235 0;
#X connect 227 0 225 0;
#X connect 227 1 226 0;
#X connect 228 0 232 0;
#X connect 229 0 230 0;
#X connect 230 0 231 0;
#X connect 231 0 234 0;
#X connect 232 0 229 0;
#X connect 234 0 233 0;
#X connect 234 0 284 0;
#X connect 235 0 236 0;
#X connect 236 0 237 0;
#X connect 237 0 238 0;
#X connect 238 0 239 0;
#X connect 239 0 283 0;
#X connect 239 0 240 0;
#X connect 239 0 240 1;
#X connect 241 0 244 0;
#X connect 242 0 251 0;
#X connect 243 0 241 0;
#X connect 243 1 242 0;
#X connect 244 0 248 0;
#X connect 245 0 246 0;
#X connect 246 0 247 0;
#X connect 247 0 250 0;
#X connect 248 0 245 0;
#X connect 250 0 249 0;
#X connect 250 0 286 0;
#X connect 251 0 252 0;
#X connect 252 0 253 0;
#X connect 253 0 254 0;
#X connect 254 0 255 0;
#X connect 255 0 285 0;
#X connect 255 0 256 0;
#X connect 255 0 256 1;
#X connect 257 0 260 0;
#X connect 258 0 267 0;
#X connect 259 0 257 0;
#X connect 259 1 258 0;
#X connect 260 0 264 0;
#X connect 261 0 262 0;
#X connect 262 0 263 0;
#X connect 263 0 266 0;
#X connect 264 0 261 0;
#X connect 266 0 265 0;
#X connect 266 0 288 0;
#X connect 267 0 268 0;
#X connect 268 0 269 0;
#X connect 269 0 270 0;
#X connect 270 0 271 0;
#X connect 271 0 287 0;
#X connect 271 0 272 0;
#X connect 271 0 272 1;
#X connect 273 0 160 1;
#X connect 274 0 153 1;
#X connect 275 0 176 1;
#X connect 276 0 169 1;
#X connect 277 0 192 1;
#X connect 278 0 185 1;
#X connect 279 0 208 1;
#X connect 280 0 201 1;
#X connect 281 0 224 1;
#X connect 282 0 217 1;
#X connect 283 0 240 1;
#X connect 284 0 233 1;
#X connect 285 0 256 1;
#X connect 286 0 249 1;
#X connect 287 0 272 1;
#X connect 288 0 265 1;
#X connect 289 0 3 0;
#X connect 289 1 21 0;
#X connect 289 2 39 0;
#X connect 289 3 57 0;
#X connect 289 4 75 0;
#X connect 289 5 91 0;
#X connect 289 6 107 0;
#X connect 289 7 123 0;
#X connect 289 8 147 0;
#X connect 289 9 163 0;
#X connect 289 10 179 0;
#X connect 289 11 195 0;
#X connect 289 12 211 0;
#X connect 289 13 227 0;
#X connect 289 14 243 0;
#X connect 289 15 259 0;
#X connect 291 0 290 0;
#X restore 1221 257 pd sourcetotabs;
#X obj 603 -47 int;
#X obj 632 -47 + 1;
#X obj 773 -200 r stop;
#X obj 603 -231 r metro;
#X msg 773 -178 0;
#X obj 603 -67 bng 15 250 50 0 empty empty empty 17 7 0 10 -262144
-1 -1;
#X floatatom 603 -22 5 0 0 0 - - -;
#X obj 603 5 mod;
#X obj 603 -138 mod;
#X obj 603 -161 int;
#X obj 632 -161 + 1;
#X obj 603 -208 bng 15 250 50 0 empty empty empty 17 7 0 10 -262144
-1 -1;
#X obj 603 -115 == 0;
#X obj 603 -93 route 1;
#X floatatom 677 -154 2 1 16 0 - - -;
#X floatatom 676 -11 2 1 16 0 - - -;
#X obj 152 154 hradio 16 1 0 16 empty empty cycle_length 0 -8 0 10
-13445 -1 -1 15;
#X obj 731 170 + 1;
#X floatatom 410 154 2 1 16 0 - - -;
#X obj 152 119 hradio 16 1 0 16 empty empty grid 0 -8 0 10 -13701 -1
-1 0;
#X obj 730 134 + 1;
#X floatatom 410 119 2 1 16 0 - - -;
#X obj 427 121 bng 15 250 50 0 empty empty empty 17 7 0 10 -13381 -1
-1;
#X floatatom 602 189 2 0 0 1 step - -;
#X obj -134 506 tabread borgpitch;
#X obj -21 506 tabread borgvol;
#X obj 610 297 bng 15 250 50 0 empty empty 1 17 7 0 10 -13637 -1 -1
;
#X obj 610 314 bng 15 250 50 0 empty empty 2 17 7 0 10 -13637 -1 -1
;
#X obj 610 331 bng 15 250 50 0 empty empty 3 17 7 0 10 -13637 -1 -1
;
#X obj 610 348 bng 15 250 50 0 empty empty 4 17 7 0 10 -13637 -1 -1
;
#X obj 610 365 bng 15 250 50 0 empty empty 5 17 7 0 10 -13637 -1 -1
;
#X obj 610 382 bng 15 250 50 0 empty empty 6 17 7 0 10 -13637 -1 -1
;
#X obj 610 399 bng 15 250 50 0 empty empty 7 17 7 0 10 -13637 -1 -1
;
#X obj 610 416 bng 15 250 50 0 empty empty 8 17 7 0 10 -13637 -1 -1
;
#X obj 610 441 bng 15 250 50 0 empty empty 9 17 7 0 10 -13637 -1 -1
;
#X obj 610 458 bng 15 250 50 0 empty empty 10 17 7 0 10 -13637 -1 -1
;
#X obj 610 475 bng 15 250 50 0 empty empty 11 17 7 0 10 -13637 -1 -1
;
#X obj 610 492 bng 15 250 50 0 empty empty 12 17 7 0 10 -13637 -1 -1
;
#X obj 610 509 bng 15 250 50 0 empty empty 13 17 7 0 10 -13637 -1 -1
;
#X obj 610 526 bng 15 250 50 0 empty empty 14 17 7 0 10 -13637 -1 -1
;
#X obj 610 543 bng 15 250 50 0 empty empty 15 17 7 0 10 -13637 -1 -1
;
#X obj 610 560 bng 15 250 50 0 empty empty 16 17 7 0 10 -13637 -1 -1
;
#X text 598 274 TRIGGERS;
#X obj 515 114 vradio 16 1 0 2 empty empty empty 0 -8 0 10 -13573 -1
-1 0;
#X text 531 111 Sequencer;
#X text 531 128 Static;
#X msg 686 308 0;
#X msg 751 346 1;
#X msg 750 368 2;
#X msg 749 393 3;
#X msg 748 419 4;
#X msg 747 444 5;
#X msg 746 466 6;
#X msg 745 491 7;
#X msg 787 326 8;
#X msg 786 351 9;
#X msg 785 373 10;
#X msg 784 398 11;
#X msg 783 424 12;
#X msg 782 449 13;
#X msg 781 471 14;
#X msg 780 496 15;
#X obj -96 692 outlet;
#X obj -96 539 pack;
#X obj 603 -186 spigot 1;
#X obj 669 -203 == 0;
#X floatatom -67 23 5 0 0 0 - - -;
#X obj 690 602 tabread borgpitch;
#X obj 690 624 tabread borgvol;
#X obj 690 647 pack;
#X obj 690 672 outlet;
#X floatatom 689 581 5 0 0 0 - - -;
#X obj 802 597 tabread borgpitch;
#X obj 802 619 tabread borgvol;
#X obj 802 642 pack;
#X obj 802 667 outlet;
#X floatatom 801 576 5 0 0 0 - - -;
#X obj 912 595 tabread borgpitch;
#X obj 912 617 tabread borgvol;
#X obj 912 640 pack;
#X obj 912 665 outlet;
#X floatatom 911 574 5 0 0 0 - - -;
#X obj 1024 590 tabread borgpitch;
#X obj 1024 612 tabread borgvol;
#X obj 1024 635 pack;
#X obj 1024 660 outlet;
#X floatatom 1023 569 5 0 0 0 - - -;
#X obj 1140 590 tabread borgpitch;
#X obj 1140 612 tabread borgvol;
#X obj 1140 635 pack;
#X obj 1140 660 outlet;
#X floatatom 1139 569 5 0 0 0 - - -;
#X obj 1252 585 tabread borgpitch;
#X obj 1252 607 tabread borgvol;
#X obj 1252 630 pack;
#X obj 1252 655 outlet;
#X floatatom 1251 564 5 0 0 0 - - -;
#X obj 1362 583 tabread borgpitch;
#X obj 1362 605 tabread borgvol;
#X obj 1362 628 pack;
#X obj 1362 653 outlet;
#X floatatom 1361 562 5 0 0 0 - - -;
#X obj 1474 578 tabread borgpitch;
#X obj 1474 600 tabread borgvol;
#X obj 1474 623 pack;
#X obj 1474 648 outlet;
#X floatatom 1473 557 5 0 0 0 - - -;
#X obj 605 122 tgl 15 0 empty empty touch 17 7 0 10 -4034 -1 -1 1 1
;
#X obj 1137 392 spigot 1;
#X obj 1137 417 bng 15 250 50 0 empty empty empty 17 7 0 10 -262144
-1 -1;
#X connect 1 0 3 0;
#X connect 3 0 2 0;
#X connect 5 0 6 0;
#X connect 10 0 119 0;
#X connect 11 0 12 0;
#X connect 11 0 17 0;
#X connect 12 0 11 1;
#X connect 13 0 15 0;
#X connect 14 0 22 0;
#X connect 15 0 11 0;
#X connect 15 0 20 0;
#X connect 16 0 11 0;
#X connect 17 0 18 0;
#X connect 18 0 34 0;
#X connect 18 0 77 0;
#X connect 19 0 23 0;
#X connect 20 0 21 0;
#X connect 20 0 19 0;
#X connect 21 0 20 1;
#X connect 22 0 75 0;
#X connect 23 0 24 0;
#X connect 24 0 16 0;
#X connect 24 0 33 0;
#X connect 25 0 19 1;
#X connect 26 0 18 1;
#X connect 27 0 28 0;
#X connect 28 0 29 0;
#X connect 29 0 26 0;
#X connect 30 0 31 0;
#X connect 31 0 32 0;
#X connect 32 0 25 0;
#X connect 35 0 74 0;
#X connect 36 0 74 1;
#X connect 37 0 57 0;
#X connect 38 0 58 0;
#X connect 39 0 59 0;
#X connect 40 0 60 0;
#X connect 41 0 61 0;
#X connect 42 0 62 0;
#X connect 43 0 63 0;
#X connect 44 0 64 0;
#X connect 45 0 65 0;
#X connect 46 0 66 0;
#X connect 47 0 67 0;
#X connect 48 0 68 0;
#X connect 49 0 69 0;
#X connect 50 0 70 0;
#X connect 51 0 71 0;
#X connect 52 0 72 0;
#X connect 54 0 76 0;
#X connect 57 0 82 0;
#X connect 58 0 87 0;
#X connect 59 0 92 0;
#X connect 60 0 97 0;
#X connect 61 0 102 0;
#X connect 62 0 107 0;
#X connect 63 0 112 0;
#X connect 64 0 117 0;
#X connect 74 0 73 0;
#X connect 75 0 20 0;
#X connect 76 0 75 1;
#X connect 77 0 35 0;
#X connect 77 0 36 0;
#X connect 78 0 80 0;
#X connect 79 0 80 1;
#X connect 80 0 81 0;
#X connect 82 0 78 0;
#X connect 82 0 79 0;
#X connect 83 0 85 0;
#X connect 84 0 85 1;
#X connect 85 0 86 0;
#X connect 87 0 83 0;
#X connect 87 0 84 0;
#X connect 88 0 90 0;
#X connect 89 0 90 1;
#X connect 90 0 91 0;
#X connect 92 0 88 0;
#X connect 92 0 89 0;
#X connect 93 0 95 0;
#X connect 94 0 95 1;
#X connect 95 0 96 0;
#X connect 97 0 93 0;
#X connect 97 0 94 0;
#X connect 98 0 100 0;
#X connect 99 0 100 1;
#X connect 100 0 101 0;
#X connect 102 0 98 0;
#X connect 102 0 99 0;
#X connect 103 0 105 0;
#X connect 104 0 105 1;
#X connect 105 0 106 0;
#X connect 107 0 103 0;
#X connect 107 0 104 0;
#X connect 108 0 110 0;
#X connect 109 0 110 1;
#X connect 110 0 111 0;
#X connect 112 0 108 0;
#X connect 112 0 109 0;
#X connect 113 0 115 0;
#X connect 114 0 115 1;
#X connect 115 0 116 0;
#X connect 117 0 113 0;
#X connect 117 0 114 0;
#X connect 118 0 119 1;
#X connect 119 0 120 0;
#X connect 120 0 82 0;
#X connect 120 0 87 0;
#X connect 120 0 92 0;
#X connect 120 0 97 0;
#X connect 120 0 102 0;
#X connect 120 0 107 0;
#X connect 120 0 112 0;
#X connect 120 0 117 0;
#X coords 0 -1 1 1 560 563 1 100 100;
#X restore 5 -383 pd borgcube;
#X obj -104 412 makenote;
#X obj -104 434 pack 0 0;
#X floatatom -104 382 5 0 0 0 - - -;
#N canvas 1681 54 1600 846 tonalwrapper 0;
#X obj 845 474 tabread scaler;
#X obj 826 431 mod;
#X floatatom 789 337 5 0 0 0 - - -;
#X obj 937 122 r scale_notes;
#X obj 788 570 +;
#X obj 773 428 /;
#X obj 773 451 int;
#X obj 777 477 *;
#X obj 873 432 r tuning_notes;
#X floatatom 786 598 5 0 0 0 - - -;
#X floatatom 770 395 5 0 0 0 - - -;
#X floatatom 816 395 5 0 0 0 - - -;
#X obj 854 525 bng 15 250 50 0 empty empty empty 17 7 0 10 -262144
-1 -1;
#X obj 779 85 inlet;
#X obj 929 782 outlet;
#X obj 1022 293 spigot 1;
#X obj 927 292 spigot 1;
#X obj 972 271 != 1;
#X obj 984 211 > 9;
#X connect 0 0 4 0;
#X connect 0 0 12 0;
#X connect 1 0 0 0;
#X connect 2 0 10 0;
#X connect 2 0 11 0;
#X connect 3 0 1 1;
#X connect 3 0 5 1;
#X connect 3 0 18 0;
#X connect 4 0 9 0;
#X connect 5 0 6 0;
#X connect 6 0 7 0;
#X connect 7 0 4 1;
#X connect 8 0 7 1;
#X connect 9 0 14 0;
#X connect 10 0 5 0;
#X connect 11 0 1 0;
#X connect 12 0 10 0;
#X connect 13 0 16 0;
#X connect 13 0 15 0;
#X connect 15 0 14 0;
#X connect 16 0 2 0;
#X connect 17 0 16 1;
#X connect 18 0 17 0;
#X connect 18 0 15 1;
#X restore -104 361 pd tonalwrapper;
#X floatatom -104 319 5 0 0 0 - - -;
#X obj -104 340 int;
#X floatatom -2 320 5 0 0 0 - - -;
#X obj -104 291 unpack;
#X obj 641 623 dac~;
#X obj -70 323 * 127;
#N canvas 0 83 1680 967 static-osc 0;
#X obj 786 77 r tuning_notes;
#X floatatom 480 67 5 0 0 0 - - -;
#X floatatom 670 78 5 0 0 0 - - -;
#X obj 480 94 / 12;
#X obj 670 94 mod 12;
#X obj 480 116 int;
#X obj 480 143 tabread octaves;
#X obj 670 119 tabread tuning;
#X floatatom 480 169 5 0 0 0 - - -;
#X floatatom 670 145 5 0 0 0 - - -;
#X obj 577 52 bng 15 250 50 0 empty empty empty 17 7 0 10 -262144 -1
-1;
#X obj 571 219 *;
#X obj 669 189 r basetone;
#X floatatom 617 220 5 0 0 0 - - -;
#X obj 571 256 *;
#X floatatom 571 280 5 0 0 0 - - -;
#X floatatom 570 -10 5 0 0 2 note - -;
#X obj 571 329 line;
#X floatatom 571 358 5 0 0 0 - - -;
#X obj 571 303 pack 0 0;
#X obj 573 792 *~;
#X obj 448 630 *~;
#X obj 584 562 line~;
#X obj 284 566 cos~;
#X obj 284 541 +~;
#X obj 584 539 pack 0 50;
#X floatatom 584 491 0 0 0 0 - - -;
#X obj 584 515 / 100;
#X obj 284 516 phasor~;
#X text 619 491 index (x100);
#X floatatom 377 423 3 0 15 0 - - -;
#X obj 284 492 *;
#X obj 452 449 int;
#X floatatom 569 388 5 0 0 0 - - -;
#X obj 399 373 bng 15 250 50 0 empty empty empty 17 7 0 10 -262144
-1 -1;
#N canvas 372 245 794 572 oscillator3 0;
#X obj 72 73 inlet;
#X obj 196 473 outlet~;
#X obj 443 70 inlet;
#X text 72 51 Frequency;
#X text 438 52 Waveform;
#X obj 185 183 osc~;
#X obj 185 209 *~ 100;
#X obj 185 237 clip~ -1 1;
#X obj 299 171 osc~;
#X obj 138 370 +~;
#X obj 197 441 +~;
#X floatatom 69 104 5 0 0 0 - - -;
#N canvas 1140 244 450 300 selektor~ 0;
#X obj 74 39 inlet~;
#X obj 175 36 inlet;
#X obj 97 128 *~ 0;
#X obj 109 233 outlet~;
#X obj 143 86 > 0;
#X connect 0 0 2 0;
#X connect 1 0 4 0;
#X connect 2 0 3 0;
#X connect 4 0 2 1;
#X restore 67 284 pd selektor~;
#N canvas 1140 244 450 300 selektor~ 0;
#X obj 74 39 inlet~;
#X obj 175 36 inlet;
#X obj 97 128 *~ 0;
#X obj 109 233 outlet~;
#X obj 143 86 > 0;
#X connect 0 0 2 0;
#X connect 1 0 4 0;
#X connect 2 0 3 0;
#X connect 4 0 2 1;
#X restore 181 284 pd selektor~;
#N canvas 1138 245 450 300 selektor~ 0;
#X obj 74 39 inlet~;
#X obj 175 36 inlet;
#X obj 97 128 *~ 0;
#X obj 109 233 outlet~;
#X obj 143 86 > 0;
#X connect 0 0 2 0;
#X connect 1 0 4 0;
#X connect 2 0 3 0;
#X connect 4 0 2 1;
#X restore 301 289 pd selektor~;
#X floatatom 441 143 5 0 0 0 - - -;
#X obj 446 176 int;
#X floatatom 510 445 5 0 0 0 - - -;
#X floatatom 572 443 5 0 0 0 - - -;
#X floatatom 452 444 5 0 0 0 - - -;
#X floatatom 500 209 5 0 0 0 - - -;
#X obj 433 266 == 0;
#X obj 517 268 == 1;
#X obj 596 268 == 2;
#X msg 388 394 1;
#X msg 424 374 0;
#X obj 419 334 bng 15 250 50 0 empty empty empty 17 7 0 10 -262144
-1 -1;
#X msg 487 387 1;
#X msg 526 384 0;
#X obj 513 346 bng 15 250 50 0 empty empty empty 17 7 0 10 -262144
-1 -1;
#X msg 581 385 1;
#X msg 612 384 0;
#X obj 607 344 bng 15 250 50 0 empty empty empty 17 7 0 10 -262144
-1 -1;
#X obj 420 301 route 1;
#X obj 522 309 route 1;
#X obj 616 306 route 1;
#X floatatom 443 94 5 0 0 0 - - -;
#X obj 64 213 ssaw~ 440;
#X connect 0 0 11 0;
#X connect 2 0 36 0;
#X connect 5 0 6 0;
#X connect 6 0 7 0;
#X connect 7 0 13 0;
#X connect 8 0 14 0;
#X connect 9 0 10 0;
#X connect 10 0 1 0;
#X connect 11 0 8 0;
#X connect 11 0 5 0;
#X connect 11 0 37 0;
#X connect 12 0 9 0;
#X connect 13 0 9 1;
#X connect 14 0 10 1;
#X connect 15 0 16 0;
#X connect 16 0 20 0;
#X connect 17 0 13 1;
#X connect 18 0 14 1;
#X connect 19 0 12 1;
#X connect 20 0 21 0;
#X connect 20 0 22 0;
#X connect 20 0 23 0;
#X connect 21 0 33 0;
#X connect 22 0 34 0;
#X connect 23 0 35 0;
#X connect 24 0 19 0;
#X connect 25 0 17 0;
#X connect 25 0 18 0;
#X connect 26 0 24 0;
#X connect 26 0 25 0;
#X connect 27 0 17 0;
#X connect 28 0 19 0;
#X connect 28 0 18 0;
#X connect 29 0 27 0;
#X connect 29 0 28 0;
#X connect 30 0 18 0;
#X connect 31 0 19 0;
#X connect 31 0 17 0;
#X connect 32 0 30 0;
#X connect 32 0 31 0;
#X connect 33 0 26 0;
#X connect 34 0 29 0;
#X connect 35 0 32 0;
#X connect 36 0 15 0;
#X connect 37 0 12 0;
#X restore 446 514 pd oscillator3;
#X obj 289 604 hip~ 5;
#X obj 559 -110 inlet;
#X obj 100 100 cnv 15 160 65 empty empty empty 20 12 0 14 -83269 -66577
0;
#X obj 105 106 cnv 15 150 55 empty empty empty 20 12 0 14 -160197 -66577
0;
#X floatatom 177 124 2 1 8 1 harmonic - -;
#X obj 108 110 vradio 16 1 0 3 empty empty empty 0 -8 0 10 -214925
-1 -1 2;
#X text 125 138 SINE;
#X text 126 107 SAW;
#X text 126 124 SQUARE;
#X floatatom 177 142 0 0 0 1 index - -;
#X obj 558 -78 unpack;
#X obj 572 830 outlet~;
#X obj 173 106 hsl 70 11 0 200 0 0 empty empty empty -2 -8 0 10 -260097
-1 -1 6500 1;
#X text 198 100 porta;
#X connect 0 0 3 1;
#X connect 0 0 4 1;
#X connect 1 0 3 0;
#X connect 2 0 4 0;
#X connect 3 0 5 0;
#X connect 4 0 7 0;
#X connect 5 0 6 0;
#X connect 6 0 8 0;
#X connect 7 0 9 0;
#X connect 8 0 11 0;
#X connect 9 0 11 1;
#X connect 9 0 10 0;
#X connect 10 0 1 0;
#X connect 11 0 14 0;
#X connect 12 0 13 0;
#X connect 13 0 14 1;
#X connect 14 0 15 0;
#X connect 15 0 19 0;
#X connect 16 0 1 0;
#X connect 16 0 2 0;
#X connect 17 0 18 0;
#X connect 18 0 33 0;
#X connect 19 0 17 0;
#X connect 20 0 47 0;
#X connect 21 0 24 1;
#X connect 22 0 21 1;
#X connect 23 0 36 0;
#X connect 24 0 23 0;
#X connect 25 0 22 0;
#X connect 26 0 27 0;
#X connect 27 0 25 0;
#X connect 28 0 24 0;
#X connect 30 0 31 0;
#X connect 31 0 28 0;
#X connect 32 0 31 1;
#X connect 32 0 35 0;
#X connect 33 0 32 0;
#X connect 33 0 34 0;
#X connect 34 0 30 0;
#X connect 35 0 21 0;
#X connect 36 0 20 0;
#X connect 37 0 46 0;
#X connect 40 0 30 0;
#X connect 41 0 35 1;
#X connect 45 0 26 0;
#X connect 46 0 16 0;
#X connect 46 1 20 1;
#X connect 48 0 19 1;
#X coords 0 -1 1 1 160 65 1 100 100;
#X restore 339 406 pd static-osc;
#X obj 339 378 pack 0 0;
#X floatatom 338 355 5 0 0 0 - - -;
#N canvas 1681 54 1600 846 tonalwrapper 0;
#X obj 845 474 tabread scaler;
#X obj 826 431 mod;
#X floatatom 789 337 5 0 0 0 - - -;
#X obj 937 122 r scale_notes;
#X obj 788 570 +;
#X obj 773 428 /;
#X obj 773 451 int;
#X obj 777 477 *;
#X obj 873 432 r tuning_notes;
#X floatatom 786 598 5 0 0 0 - - -;
#X floatatom 770 395 5 0 0 0 - - -;
#X floatatom 816 395 5 0 0 0 - - -;
#X obj 854 525 bng 15 250 50 0 empty empty empty 17 7 0 10 -262144
-1 -1;
#X obj 779 85 inlet;
#X obj 929 782 outlet;
#X obj 1022 293 spigot 1;
#X obj 927 292 spigot 1;
#X obj 972 271 != 1;
#X obj 984 211 > 9;
#X connect 0 0 4 0;
#X connect 0 0 12 0;
#X connect 1 0 0 0;
#X connect 2 0 10 0;
#X connect 2 0 11 0;
#X connect 3 0 1 1;
#X connect 3 0 5 1;
#X connect 3 0 18 0;
#X connect 4 0 9 0;
#X connect 5 0 6 0;
#X connect 6 0 7 0;
#X connect 7 0 4 1;
#X connect 8 0 7 1;
#X connect 9 0 14 0;
#X connect 10 0 5 0;
#X connect 11 0 1 0;
#X connect 12 0 10 0;
#X connect 13 0 16 0;
#X connect 13 0 15 0;
#X connect 15 0 14 0;
#X connect 16 0 2 0;
#X connect 17 0 16 1;
#X connect 18 0 17 0;
#X connect 18 0 15 1;
#X restore 338 334 pd tonalwrapper;
#X floatatom 338 292 5 0 0 0 - - -;
#X obj 338 313 int;
#X obj 343 244 unpack;
#X obj 341 270 +;
#X floatatom 419 234 5 0 0 0 - - -;
#X obj 520 373 pack 0 0;
#X floatatom 519 350 5 0 0 0 - - -;
#N canvas 1681 54 1600 846 tonalwrapper 0;
#X obj 845 474 tabread scaler;
#X obj 826 431 mod;
#X floatatom 789 337 5 0 0 0 - - -;
#X obj 937 122 r scale_notes;
#X obj 788 570 +;
#X obj 773 428 /;
#X obj 773 451 int;
#X obj 777 477 *;
#X obj 873 432 r tuning_notes;
#X floatatom 786 598 5 0 0 0 - - -;
#X floatatom 770 395 5 0 0 0 - - -;
#X floatatom 816 395 5 0 0 0 - - -;
#X obj 854 525 bng 15 250 50 0 empty empty empty 17 7 0 10 -262144
-1 -1;
#X obj 779 85 inlet;
#X obj 929 782 outlet;
#X obj 1022 293 spigot 1;
#X obj 927 292 spigot 1;
#X obj 972 271 != 1;
#X obj 984 211 > 9;
#X connect 0 0 4 0;
#X connect 0 0 12 0;
#X connect 1 0 0 0;
#X connect 2 0 10 0;
#X connect 2 0 11 0;
#X connect 3 0 1 1;
#X connect 3 0 5 1;
#X connect 3 0 18 0;
#X connect 4 0 9 0;
#X connect 5 0 6 0;
#X connect 6 0 7 0;
#X connect 7 0 4 1;
#X connect 8 0 7 1;
#X connect 9 0 14 0;
#X connect 10 0 5 0;
#X connect 11 0 1 0;
#X connect 12 0 10 0;
#X connect 13 0 16 0;
#X connect 13 0 15 0;
#X connect 15 0 14 0;
#X connect 16 0 2 0;
#X connect 17 0 16 1;
#X connect 18 0 17 0;
#X connect 18 0 15 1;
#X restore 519 329 pd tonalwrapper;
#X floatatom 519 287 5 0 0 0 - - -;
#X obj 519 308 int;
#X obj 524 239 unpack;
#X obj 522 265 +;
#X floatatom 600 229 5 0 0 0 - - -;
#X obj 699 370 pack 0 0;
#X floatatom 698 347 5 0 0 0 - - -;
#N canvas 1681 54 1600 846 tonalwrapper 0;
#X obj 845 474 tabread scaler;
#X obj 826 431 mod;
#X floatatom 789 337 5 0 0 0 - - -;
#X obj 937 122 r scale_notes;
#X obj 788 570 +;
#X obj 773 428 /;
#X obj 773 451 int;
#X obj 777 477 *;
#X obj 873 432 r tuning_notes;
#X floatatom 786 598 5 0 0 0 - - -;
#X floatatom 770 395 5 0 0 0 - - -;
#X floatatom 816 395 5 0 0 0 - - -;
#X obj 854 525 bng 15 250 50 0 empty empty empty 17 7 0 10 -262144
-1 -1;
#X obj 779 85 inlet;
#X obj 929 782 outlet;
#X obj 1022 293 spigot 1;
#X obj 927 292 spigot 1;
#X obj 972 271 != 1;
#X obj 984 211 > 9;
#X connect 0 0 4 0;
#X connect 0 0 12 0;
#X connect 1 0 0 0;
#X connect 2 0 10 0;
#X connect 2 0 11 0;
#X connect 3 0 1 1;
#X connect 3 0 5 1;
#X connect 3 0 18 0;
#X connect 4 0 9 0;
#X connect 5 0 6 0;
#X connect 6 0 7 0;
#X connect 7 0 4 1;
#X connect 8 0 7 1;
#X connect 9 0 14 0;
#X connect 10 0 5 0;
#X connect 11 0 1 0;
#X connect 12 0 10 0;
#X connect 13 0 16 0;
#X connect 13 0 15 0;
#X connect 15 0 14 0;
#X connect 16 0 2 0;
#X connect 17 0 16 1;
#X connect 18 0 17 0;
#X connect 18 0 15 1;
#X restore 698 326 pd tonalwrapper;
#X floatatom 698 284 5 0 0 0 - - -;
#X obj 698 305 int;
#X obj 703 236 unpack;
#X obj 701 262 +;
#X floatatom 779 226 5 0 0 0 - - -;
#X obj 894 364 pack 0 0;
#X floatatom 893 341 5 0 0 0 - - -;
#N canvas 1681 54 1600 846 tonalwrapper 0;
#X obj 845 474 tabread scaler;
#X obj 826 431 mod;
#X floatatom 789 337 5 0 0 0 - - -;
#X obj 937 122 r scale_notes;
#X obj 788 570 +;
#X obj 773 428 /;
#X obj 773 451 int;
#X obj 777 477 *;
#X obj 873 432 r tuning_notes;
#X floatatom 786 598 5 0 0 0 - - -;
#X floatatom 770 395 5 0 0 0 - - -;
#X floatatom 816 395 5 0 0 0 - - -;
#X obj 854 525 bng 15 250 50 0 empty empty empty 17 7 0 10 -262144
-1 -1;
#X obj 779 85 inlet;
#X obj 929 782 outlet;
#X obj 1022 293 spigot 1;
#X obj 927 292 spigot 1;
#X obj 972 271 != 1;
#X obj 984 211 > 9;
#X connect 0 0 4 0;
#X connect 0 0 12 0;
#X connect 1 0 0 0;
#X connect 2 0 10 0;
#X connect 2 0 11 0;
#X connect 3 0 1 1;
#X connect 3 0 5 1;
#X connect 3 0 18 0;
#X connect 4 0 9 0;
#X connect 5 0 6 0;
#X connect 6 0 7 0;
#X connect 7 0 4 1;
#X connect 8 0 7 1;
#X connect 9 0 14 0;
#X connect 10 0 5 0;
#X connect 11 0 1 0;
#X connect 12 0 10 0;
#X connect 13 0 16 0;
#X connect 13 0 15 0;
#X connect 15 0 14 0;
#X connect 16 0 2 0;
#X connect 17 0 16 1;
#X connect 18 0 17 0;
#X connect 18 0 15 1;
#X restore 893 320 pd tonalwrapper;
#X floatatom 893 278 5 0 0 0 - - -;
#X obj 893 299 int;
#X obj 898 230 unpack;
#X obj 896 256 +;
#X floatatom 962 224 5 0 0 0 - - -;
#X obj 651 541 *~;
#X obj 1138 337 vsl 15 128 0 1 0 0 empty empty empty 0 -9 0 10 -262144
-1 -1 0 1;
#N canvas 0 83 1680 967 static-osc 0;
#X obj 786 77 r tuning_notes;
#X floatatom 480 67 5 0 0 0 - - -;
#X floatatom 670 78 5 0 0 0 - - -;
#X obj 480 94 / 12;
#X obj 670 94 mod 12;
#X obj 480 116 int;
#X obj 480 143 tabread octaves;
#X obj 670 119 tabread tuning;
#X floatatom 480 169 5 0 0 0 - - -;
#X floatatom 670 145 5 0 0 0 - - -;
#X obj 577 52 bng 15 250 50 0 empty empty empty 17 7 0 10 -262144 -1
-1;
#X obj 571 219 *;
#X obj 669 189 r basetone;
#X floatatom 617 220 5 0 0 0 - - -;
#X obj 571 256 *;
#X floatatom 571 280 5 0 0 0 - - -;
#X floatatom 570 -10 5 0 0 2 note - -;
#X obj 571 329 line;
#X floatatom 571 358 5 0 0 0 - - -;
#X obj 571 303 pack 0 0;
#X obj 573 792 *~;
#X obj 448 630 *~;
#X obj 584 562 line~;
#X obj 284 566 cos~;
#X obj 284 541 +~;
#X obj 584 539 pack 0 50;
#X floatatom 584 491 0 0 0 0 - - -;
#X obj 584 515 / 100;
#X obj 284 516 phasor~;
#X text 619 491 index (x100);
#X floatatom 377 423 3 0 15 0 - - -;
#X obj 284 492 *;
#X obj 452 449 int;
#X floatatom 569 388 5 0 0 0 - - -;
#X obj 399 373 bng 15 250 50 0 empty empty empty 17 7 0 10 -262144
-1 -1;
#N canvas 372 245 794 572 oscillator3 0;
#X obj 72 73 inlet;
#X obj 196 473 outlet~;
#X obj 443 70 inlet;
#X text 72 51 Frequency;
#X text 438 52 Waveform;
#X obj 185 183 osc~;
#X obj 185 209 *~ 100;
#X obj 185 237 clip~ -1 1;
#X obj 299 171 osc~;
#X obj 138 370 +~;
#X obj 197 441 +~;
#X floatatom 69 104 5 0 0 0 - - -;
#N canvas 1140 244 450 300 selektor~ 0;
#X obj 74 39 inlet~;
#X obj 175 36 inlet;
#X obj 97 128 *~ 0;
#X obj 109 233 outlet~;
#X obj 143 86 > 0;
#X connect 0 0 2 0;
#X connect 1 0 4 0;
#X connect 2 0 3 0;
#X connect 4 0 2 1;
#X restore 67 284 pd selektor~;
#N canvas 1140 244 450 300 selektor~ 0;
#X obj 74 39 inlet~;
#X obj 175 36 inlet;
#X obj 97 128 *~ 0;
#X obj 109 233 outlet~;
#X obj 143 86 > 0;
#X connect 0 0 2 0;
#X connect 1 0 4 0;
#X connect 2 0 3 0;
#X connect 4 0 2 1;
#X restore 181 284 pd selektor~;
#N canvas 1138 245 450 300 selektor~ 0;
#X obj 74 39 inlet~;
#X obj 175 36 inlet;
#X obj 97 128 *~ 0;
#X obj 109 233 outlet~;
#X obj 143 86 > 0;
#X connect 0 0 2 0;
#X connect 1 0 4 0;
#X connect 2 0 3 0;
#X connect 4 0 2 1;
#X restore 301 289 pd selektor~;
#X floatatom 441 143 5 0 0 0 - - -;
#X obj 446 176 int;
#X floatatom 510 445 5 0 0 0 - - -;
#X floatatom 572 443 5 0 0 0 - - -;
#X floatatom 452 444 5 0 0 0 - - -;
#X floatatom 500 209 5 0 0 0 - - -;
#X obj 433 266 == 0;
#X obj 517 268 == 1;
#X obj 596 268 == 2;
#X msg 388 394 1;
#X msg 424 374 0;
#X obj 419 334 bng 15 250 50 0 empty empty empty 17 7 0 10 -262144
-1 -1;
#X msg 487 387 1;
#X msg 526 384 0;
#X obj 513 346 bng 15 250 50 0 empty empty empty 17 7 0 10 -262144
-1 -1;
#X msg 581 385 1;
#X msg 612 384 0;
#X obj 607 344 bng 15 250 50 0 empty empty empty 17 7 0 10 -262144
-1 -1;
#X obj 420 301 route 1;
#X obj 522 309 route 1;
#X obj 616 306 route 1;
#X floatatom 443 94 5 0 0 0 - - -;
#X obj 64 213 ssaw~ 440;
#X connect 0 0 11 0;
#X connect 2 0 36 0;
#X connect 5 0 6 0;
#X connect 6 0 7 0;
#X connect 7 0 13 0;
#X connect 8 0 14 0;
#X connect 9 0 10 0;
#X connect 10 0 1 0;
#X connect 11 0 8 0;
#X connect 11 0 5 0;
#X connect 11 0 37 0;
#X connect 12 0 9 0;
#X connect 13 0 9 1;
#X connect 14 0 10 1;
#X connect 15 0 16 0;
#X connect 16 0 20 0;
#X connect 17 0 13 1;
#X connect 18 0 14 1;
#X connect 19 0 12 1;
#X connect 20 0 21 0;
#X connect 20 0 22 0;
#X connect 20 0 23 0;
#X connect 21 0 33 0;
#X connect 22 0 34 0;
#X connect 23 0 35 0;
#X connect 24 0 19 0;
#X connect 25 0 17 0;
#X connect 25 0 18 0;
#X connect 26 0 24 0;
#X connect 26 0 25 0;
#X connect 27 0 17 0;
#X connect 28 0 19 0;
#X connect 28 0 18 0;
#X connect 29 0 27 0;
#X connect 29 0 28 0;
#X connect 30 0 18 0;
#X connect 31 0 19 0;
#X connect 31 0 17 0;
#X connect 32 0 30 0;
#X connect 32 0 31 0;
#X connect 33 0 26 0;
#X connect 34 0 29 0;
#X connect 35 0 32 0;
#X connect 36 0 15 0;
#X connect 37 0 12 0;
#X restore 446 514 pd oscillator3;
#X obj 289 604 hip~ 5;
#X obj 559 -110 inlet;
#X obj 100 100 cnv 15 160 65 empty empty empty 20 12 0 14 -83269 -66577
0;
#X obj 105 106 cnv 15 150 55 empty empty empty 20 12 0 14 -160197 -66577
0;
#X floatatom 177 124 2 1 8 1 harmonic - -;
#X obj 108 110 vradio 16 1 0 3 empty empty empty 0 -8 0 10 -214925
-1 -1 1;
#X text 125 138 SINE;
#X text 126 107 SAW;
#X text 126 124 SQUARE;
#X floatatom 177 142 0 0 0 1 index - -;
#X obj 558 -78 unpack;
#X obj 572 830 outlet~;
#X obj 173 106 hsl 70 11 0 200 0 0 empty empty empty -2 -8 0 10 -260097
-1 -1 2500 1;
#X text 198 100 porta;
#X connect 0 0 3 1;
#X connect 0 0 4 1;
#X connect 1 0 3 0;
#X connect 2 0 4 0;
#X connect 3 0 5 0;
#X connect 4 0 7 0;
#X connect 5 0 6 0;
#X connect 6 0 8 0;
#X connect 7 0 9 0;
#X connect 8 0 11 0;
#X connect 9 0 11 1;
#X connect 9 0 10 0;
#X connect 10 0 1 0;
#X connect 11 0 14 0;
#X connect 12 0 13 0;
#X connect 13 0 14 1;
#X connect 14 0 15 0;
#X connect 15 0 19 0;
#X connect 16 0 1 0;
#X connect 16 0 2 0;
#X connect 17 0 18 0;
#X connect 18 0 33 0;
#X connect 19 0 17 0;
#X connect 20 0 47 0;
#X connect 21 0 24 1;
#X connect 22 0 21 1;
#X connect 23 0 36 0;
#X connect 24 0 23 0;
#X connect 25 0 22 0;
#X connect 26 0 27 0;
#X connect 27 0 25 0;
#X connect 28 0 24 0;
#X connect 30 0 31 0;
#X connect 31 0 28 0;
#X connect 32 0 31 1;
#X connect 32 0 35 0;
#X connect 33 0 32 0;
#X connect 33 0 34 0;
#X connect 34 0 30 0;
#X connect 35 0 21 0;
#X connect 36 0 20 0;
#X connect 37 0 46 0;
#X connect 40 0 30 0;
#X connect 41 0 35 1;
#X connect 45 0 26 0;
#X connect 46 0 16 0;
#X connect 46 1 20 1;
#X connect 48 0 19 1;
#X coords 0 -1 1 1 160 65 1 100 100;
#X restore 525 405 pd static-osc;
#N canvas 0 83 1680 967 static-osc 0;
#X obj 786 77 r tuning_notes;
#X floatatom 480 67 5 0 0 0 - - -;
#X floatatom 670 78 5 0 0 0 - - -;
#X obj 480 94 / 12;
#X obj 670 94 mod 12;
#X obj 480 116 int;
#X obj 480 143 tabread octaves;
#X obj 670 119 tabread tuning;
#X floatatom 480 169 5 0 0 0 - - -;
#X floatatom 670 145 5 0 0 0 - - -;
#X obj 577 52 bng 15 250 50 0 empty empty empty 17 7 0 10 -262144 -1
-1;
#X obj 571 219 *;
#X obj 669 189 r basetone;
#X floatatom 617 220 5 0 0 0 - - -;
#X obj 571 256 *;
#X floatatom 571 280 5 0 0 0 - - -;
#X floatatom 570 -10 5 0 0 2 note - -;
#X obj 571 329 line;
#X floatatom 571 358 5 0 0 0 - - -;
#X obj 571 303 pack 0 0;
#X obj 573 792 *~;
#X obj 448 630 *~;
#X obj 584 562 line~;
#X obj 284 566 cos~;
#X obj 284 541 +~;
#X obj 584 539 pack 0 50;
#X floatatom 584 491 0 0 0 0 - - -;
#X obj 584 515 / 100;
#X obj 284 516 phasor~;
#X text 619 491 index (x100);
#X floatatom 377 423 3 0 15 0 - - -;
#X obj 284 492 *;
#X obj 452 449 int;
#X floatatom 569 388 5 0 0 0 - - -;
#X obj 399 373 bng 15 250 50 0 empty empty empty 17 7 0 10 -262144
-1 -1;
#N canvas 372 245 794 572 oscillator3 0;
#X obj 72 73 inlet;
#X obj 196 473 outlet~;
#X obj 443 70 inlet;
#X text 72 51 Frequency;
#X text 438 52 Waveform;
#X obj 185 183 osc~;
#X obj 185 209 *~ 100;
#X obj 185 237 clip~ -1 1;
#X obj 299 171 osc~;
#X obj 138 370 +~;
#X obj 197 441 +~;
#X floatatom 69 104 5 0 0 0 - - -;
#N canvas 1140 244 450 300 selektor~ 0;
#X obj 74 39 inlet~;
#X obj 175 36 inlet;
#X obj 97 128 *~ 0;
#X obj 109 233 outlet~;
#X obj 143 86 > 0;
#X connect 0 0 2 0;
#X connect 1 0 4 0;
#X connect 2 0 3 0;
#X connect 4 0 2 1;
#X restore 67 284 pd selektor~;
#N canvas 1140 244 450 300 selektor~ 0;
#X obj 74 39 inlet~;
#X obj 175 36 inlet;
#X obj 97 128 *~ 0;
#X obj 109 233 outlet~;
#X obj 143 86 > 0;
#X connect 0 0 2 0;
#X connect 1 0 4 0;
#X connect 2 0 3 0;
#X connect 4 0 2 1;
#X restore 181 284 pd selektor~;
#N canvas 1138 245 450 300 selektor~ 0;
#X obj 74 39 inlet~;
#X obj 175 36 inlet;
#X obj 97 128 *~ 0;
#X obj 109 233 outlet~;
#X obj 143 86 > 0;
#X connect 0 0 2 0;
#X connect 1 0 4 0;
#X connect 2 0 3 0;
#X connect 4 0 2 1;
#X restore 301 289 pd selektor~;
#X floatatom 441 143 5 0 0 0 - - -;
#X obj 446 176 int;
#X floatatom 510 445 5 0 0 0 - - -;
#X floatatom 572 443 5 0 0 0 - - -;
#X floatatom 452 444 5 0 0 0 - - -;
#X floatatom 500 209 5 0 0 0 - - -;
#X obj 433 266 == 0;
#X obj 517 268 == 1;
#X obj 596 268 == 2;
#X msg 388 394 1;
#X msg 424 374 0;
#X obj 419 334 bng 15 250 50 0 empty empty empty 17 7 0 10 -262144
-1 -1;
#X msg 487 387 1;
#X msg 526 384 0;
#X obj 513 346 bng 15 250 50 0 empty empty empty 17 7 0 10 -262144
-1 -1;
#X msg 581 385 1;
#X msg 612 384 0;
#X obj 607 344 bng 15 250 50 0 empty empty empty 17 7 0 10 -262144
-1 -1;
#X obj 420 301 route 1;
#X obj 522 309 route 1;
#X obj 616 306 route 1;
#X floatatom 443 94 5 0 0 0 - - -;
#X obj 64 213 ssaw~ 440;
#X connect 0 0 11 0;
#X connect 2 0 36 0;
#X connect 5 0 6 0;
#X connect 6 0 7 0;
#X connect 7 0 13 0;
#X connect 8 0 14 0;
#X connect 9 0 10 0;
#X connect 10 0 1 0;
#X connect 11 0 8 0;
#X connect 11 0 5 0;
#X connect 11 0 37 0;
#X connect 12 0 9 0;
#X connect 13 0 9 1;
#X connect 14 0 10 1;
#X connect 15 0 16 0;
#X connect 16 0 20 0;
#X connect 17 0 13 1;
#X connect 18 0 14 1;
#X connect 19 0 12 1;
#X connect 20 0 21 0;
#X connect 20 0 22 0;
#X connect 20 0 23 0;
#X connect 21 0 33 0;
#X connect 22 0 34 0;
#X connect 23 0 35 0;
#X connect 24 0 19 0;
#X connect 25 0 17 0;
#X connect 25 0 18 0;
#X connect 26 0 24 0;
#X connect 26 0 25 0;
#X connect 27 0 17 0;
#X connect 28 0 19 0;
#X connect 28 0 18 0;
#X connect 29 0 27 0;
#X connect 29 0 28 0;
#X connect 30 0 18 0;
#X connect 31 0 19 0;
#X connect 31 0 17 0;
#X connect 32 0 30 0;
#X connect 32 0 31 0;
#X connect 33 0 26 0;
#X connect 34 0 29 0;
#X connect 35 0 32 0;
#X connect 36 0 15 0;
#X connect 37 0 12 0;
#X restore 446 514 pd oscillator3;
#X obj 289 604 hip~ 5;
#X obj 559 -110 inlet;
#X obj 100 100 cnv 15 160 65 empty empty empty 20 12 0 14 -83269 -66577
0;
#X obj 105 106 cnv 15 150 55 empty empty empty 20 12 0 14 -160197 -66577
0;
#X floatatom 177 124 2 1 8 1 harmonic - -;
#X obj 108 110 vradio 16 1 0 3 empty empty empty 0 -8 0 10 -214925
-1 -1 2;
#X text 125 138 SINE;
#X text 126 107 SAW;
#X text 126 124 SQUARE;
#X floatatom 177 142 0 0 0 1 index - -;
#X obj 558 -78 unpack;
#X obj 572 830 outlet~;
#X obj 173 106 hsl 70 11 0 200 0 0 empty empty empty -2 -8 0 10 -260097
-1 -1 2100 1;
#X text 198 100 porta;
#X connect 0 0 3 1;
#X connect 0 0 4 1;
#X connect 1 0 3 0;
#X connect 2 0 4 0;
#X connect 3 0 5 0;
#X connect 4 0 7 0;
#X connect 5 0 6 0;
#X connect 6 0 8 0;
#X connect 7 0 9 0;
#X connect 8 0 11 0;
#X connect 9 0 11 1;
#X connect 9 0 10 0;
#X connect 10 0 1 0;
#X connect 11 0 14 0;
#X connect 12 0 13 0;
#X connect 13 0 14 1;
#X connect 14 0 15 0;
#X connect 15 0 19 0;
#X connect 16 0 1 0;
#X connect 16 0 2 0;
#X connect 17 0 18 0;
#X connect 18 0 33 0;
#X connect 19 0 17 0;
#X connect 20 0 47 0;
#X connect 21 0 24 1;
#X connect 22 0 21 1;
#X connect 23 0 36 0;
#X connect 24 0 23 0;
#X connect 25 0 22 0;
#X connect 26 0 27 0;
#X connect 27 0 25 0;
#X connect 28 0 24 0;
#X connect 30 0 31 0;
#X connect 31 0 28 0;
#X connect 32 0 31 1;
#X connect 32 0 35 0;
#X connect 33 0 32 0;
#X connect 33 0 34 0;
#X connect 34 0 30 0;
#X connect 35 0 21 0;
#X connect 36 0 20 0;
#X connect 37 0 46 0;
#X connect 40 0 30 0;
#X connect 41 0 35 1;
#X connect 45 0 26 0;
#X connect 46 0 16 0;
#X connect 46 1 20 1;
#X connect 48 0 19 1;
#X coords 0 -1 1 1 160 65 1 100 100;
#X restore 698 398 pd static-osc;
#N canvas 0 83 1680 967 static-osc 0;
#X obj 786 77 r tuning_notes;
#X floatatom 480 67 5 0 0 0 - - -;
#X floatatom 670 78 5 0 0 0 - - -;
#X obj 480 94 / 12;
#X obj 670 94 mod 12;
#X obj 480 116 int;
#X obj 480 143 tabread octaves;
#X obj 670 119 tabread tuning;
#X floatatom 480 169 5 0 0 0 - - -;
#X floatatom 670 145 5 0 0 0 - - -;
#X obj 577 52 bng 15 250 50 0 empty empty empty 17 7 0 10 -262144 -1
-1;
#X obj 571 219 *;
#X obj 669 189 r basetone;
#X floatatom 617 220 5 0 0 0 - - -;
#X obj 571 256 *;
#X floatatom 571 280 5 0 0 0 - - -;
#X floatatom 570 -10 5 0 0 2 note - -;
#X obj 571 329 line;
#X floatatom 571 358 5 0 0 0 - - -;
#X obj 571 303 pack 0 0;
#X obj 573 792 *~;
#X obj 448 630 *~;
#X obj 584 562 line~;
#X obj 284 566 cos~;
#X obj 284 541 +~;
#X obj 584 539 pack 0 50;
#X floatatom 584 491 0 0 0 0 - - -;
#X obj 584 515 / 100;
#X obj 284 516 phasor~;
#X text 619 491 index (x100);
#X floatatom 377 423 3 0 15 0 - - -;
#X obj 284 492 *;
#X obj 452 449 int;
#X floatatom 569 388 5 0 0 0 - - -;
#X obj 399 373 bng 15 250 50 0 empty empty empty 17 7 0 10 -262144
-1 -1;
#N canvas 372 245 794 572 oscillator3 0;
#X obj 72 73 inlet;
#X obj 196 473 outlet~;
#X obj 443 70 inlet;
#X text 72 51 Frequency;
#X text 438 52 Waveform;
#X obj 185 183 osc~;
#X obj 185 209 *~ 100;
#X obj 185 237 clip~ -1 1;
#X obj 299 171 osc~;
#X obj 138 370 +~;
#X obj 197 441 +~;
#X floatatom 69 104 5 0 0 0 - - -;
#N canvas 1140 244 450 300 selektor~ 0;
#X obj 74 39 inlet~;
#X obj 175 36 inlet;
#X obj 97 128 *~ 0;
#X obj 109 233 outlet~;
#X obj 143 86 > 0;
#X connect 0 0 2 0;
#X connect 1 0 4 0;
#X connect 2 0 3 0;
#X connect 4 0 2 1;
#X restore 67 284 pd selektor~;
#N canvas 1140 244 450 300 selektor~ 0;
#X obj 74 39 inlet~;
#X obj 175 36 inlet;
#X obj 97 128 *~ 0;
#X obj 109 233 outlet~;
#X obj 143 86 > 0;
#X connect 0 0 2 0;
#X connect 1 0 4 0;
#X connect 2 0 3 0;
#X connect 4 0 2 1;
#X restore 181 284 pd selektor~;
#N canvas 1138 245 450 300 selektor~ 0;
#X obj 74 39 inlet~;
#X obj 175 36 inlet;
#X obj 97 128 *~ 0;
#X obj 109 233 outlet~;
#X obj 143 86 > 0;
#X connect 0 0 2 0;
#X connect 1 0 4 0;
#X connect 2 0 3 0;
#X connect 4 0 2 1;
#X restore 301 289 pd selektor~;
#X floatatom 441 143 5 0 0 0 - - -;
#X obj 446 176 int;
#X floatatom 510 445 5 0 0 0 - - -;
#X floatatom 572 443 5 0 0 0 - - -;
#X floatatom 452 444 5 0 0 0 - - -;
#X floatatom 500 209 5 0 0 0 - - -;
#X obj 433 266 == 0;
#X obj 517 268 == 1;
#X obj 596 268 == 2;
#X msg 388 394 1;
#X msg 424 374 0;
#X obj 419 334 bng 15 250 50 0 empty empty empty 17 7 0 10 -262144
-1 -1;
#X msg 487 387 1;
#X msg 526 384 0;
#X obj 513 346 bng 15 250 50 0 empty empty empty 17 7 0 10 -262144
-1 -1;
#X msg 581 385 1;
#X msg 612 384 0;
#X obj 607 344 bng 15 250 50 0 empty empty empty 17 7 0 10 -262144
-1 -1;
#X obj 420 301 route 1;
#X obj 522 309 route 1;
#X obj 616 306 route 1;
#X floatatom 443 94 5 0 0 0 - - -;
#X obj 64 213 ssaw~ 440;
#X connect 0 0 11 0;
#X connect 2 0 36 0;
#X connect 5 0 6 0;
#X connect 6 0 7 0;
#X connect 7 0 13 0;
#X connect 8 0 14 0;
#X connect 9 0 10 0;
#X connect 10 0 1 0;
#X connect 11 0 8 0;
#X connect 11 0 5 0;
#X connect 11 0 37 0;
#X connect 12 0 9 0;
#X connect 13 0 9 1;
#X connect 14 0 10 1;
#X connect 15 0 16 0;
#X connect 16 0 20 0;
#X connect 17 0 13 1;
#X connect 18 0 14 1;
#X connect 19 0 12 1;
#X connect 20 0 21 0;
#X connect 20 0 22 0;
#X connect 20 0 23 0;
#X connect 21 0 33 0;
#X connect 22 0 34 0;
#X connect 23 0 35 0;
#X connect 24 0 19 0;
#X connect 25 0 17 0;
#X connect 25 0 18 0;
#X connect 26 0 24 0;
#X connect 26 0 25 0;
#X connect 27 0 17 0;
#X connect 28 0 19 0;
#X connect 28 0 18 0;
#X connect 29 0 27 0;
#X connect 29 0 28 0;
#X connect 30 0 18 0;
#X connect 31 0 19 0;
#X connect 31 0 17 0;
#X connect 32 0 30 0;
#X connect 32 0 31 0;
#X connect 33 0 26 0;
#X connect 34 0 29 0;
#X connect 35 0 32 0;
#X connect 36 0 15 0;
#X connect 37 0 12 0;
#X restore 446 514 pd oscillator3;
#X obj 289 604 hip~ 5;
#X obj 559 -110 inlet;
#X obj 100 100 cnv 15 160 65 empty empty empty 20 12 0 14 -83269 -66577
0;
#X obj 105 106 cnv 15 150 55 empty empty empty 20 12 0 14 -160197 -66577
0;
#X floatatom 177 124 2 1 8 1 harmonic - -;
#X obj 108 110 vradio 16 1 0 3 empty empty empty 0 -8 0 10 -214925
-1 -1 0;
#X text 125 138 SINE;
#X text 126 107 SAW;
#X text 126 124 SQUARE;
#X floatatom 177 142 0 0 0 1 index - -;
#X obj 558 -78 unpack;
#X obj 572 830 outlet~;
#X obj 173 106 hsl 70 11 0 200 0 0 empty empty empty -2 -8 0 10 -260097
-1 -1 2300 1;
#X text 198 100 porta;
#X connect 0 0 3 1;
#X connect 0 0 4 1;
#X connect 1 0 3 0;
#X connect 2 0 4 0;
#X connect 3 0 5 0;
#X connect 4 0 7 0;
#X connect 5 0 6 0;
#X connect 6 0 8 0;
#X connect 7 0 9 0;
#X connect 8 0 11 0;
#X connect 9 0 11 1;
#X connect 9 0 10 0;
#X connect 10 0 1 0;
#X connect 11 0 14 0;
#X connect 12 0 13 0;
#X connect 13 0 14 1;
#X connect 14 0 15 0;
#X connect 15 0 19 0;
#X connect 16 0 1 0;
#X connect 16 0 2 0;
#X connect 17 0 18 0;
#X connect 18 0 33 0;
#X connect 19 0 17 0;
#X connect 20 0 47 0;
#X connect 21 0 24 1;
#X connect 22 0 21 1;
#X connect 23 0 36 0;
#X connect 24 0 23 0;
#X connect 25 0 22 0;
#X connect 26 0 27 0;
#X connect 27 0 25 0;
#X connect 28 0 24 0;
#X connect 30 0 31 0;
#X connect 31 0 28 0;
#X connect 32 0 31 1;
#X connect 32 0 35 0;
#X connect 33 0 32 0;
#X connect 33 0 34 0;
#X connect 34 0 30 0;
#X connect 35 0 21 0;
#X connect 36 0 20 0;
#X connect 37 0 46 0;
#X connect 40 0 30 0;
#X connect 41 0 35 1;
#X connect 45 0 26 0;
#X connect 46 0 16 0;
#X connect 46 1 20 1;
#X connect 48 0 19 1;
#X coords 0 -1 1 1 160 65 1 100 100;
#X restore 894 401 pd static-osc;
#X obj 30 401 makenote;
#X obj 30 423 pack 0 0;
#X floatatom 30 371 5 0 0 0 - - -;
#N canvas 1 83 1600 846 tonalwrapper 0;
#X obj 845 474 tabread scaler;
#X obj 826 431 mod;
#X floatatom 789 337 5 0 0 0 - - -;
#X obj 937 122 r scale_notes;
#X obj 788 570 +;
#X obj 773 428 /;
#X obj 773 451 int;
#X obj 777 477 *;
#X obj 873 432 r tuning_notes;
#X floatatom 786 598 5 0 0 0 - - -;
#X floatatom 770 395 5 0 0 0 - - -;
#X floatatom 816 395 5 0 0 0 - - -;
#X obj 854 525 bng 15 250 50 0 empty empty empty 17 7 0 10 -262144
-1 -1;
#X obj 779 85 inlet;
#X obj 929 782 outlet;
#X obj 1022 293 spigot 1;
#X obj 927 292 spigot 1;
#X obj 972 271 != 1;
#X obj 984 211 > 9;
#X connect 0 0 4 0;
#X connect 0 0 12 0;
#X connect 1 0 0 0;
#X connect 2 0 10 0;
#X connect 2 0 11 0;
#X connect 3 0 1 1;
#X connect 3 0 5 1;
#X connect 3 0 18 0;
#X connect 4 0 9 0;
#X connect 5 0 6 0;
#X connect 6 0 7 0;
#X connect 7 0 4 1;
#X connect 8 0 7 1;
#X connect 9 0 14 0;
#X connect 10 0 5 0;
#X connect 11 0 1 0;
#X connect 12 0 10 0;
#X connect 13 0 16 0;
#X connect 13 0 15 0;
#X connect 15 0 14 0;
#X connect 16 0 2 0;
#X connect 17 0 16 1;
#X connect 18 0 17 0;
#X connect 18 0 15 1;
#X restore 30 350 pd tonalwrapper;
#X floatatom 30 308 5 0 0 0 - - -;
#X obj 30 329 int;
#X floatatom 109 292 5 0 0 0 - - -;
#X obj 29 243 unpack;
#X obj 63 308 * 127;
#X obj 30 280 +;
#X floatatom 77 243 5 0 0 0 - - -;
#X connect 0 0 8 0;
#X connect 0 0 56 0;
#X connect 0 1 17 0;
#X connect 0 2 25 0;
#X connect 0 3 33 0;
#X connect 0 4 41 0;
#X connect 1 0 2 0;
#X connect 1 1 2 1;
#X connect 3 0 1 0;
#X connect 4 0 3 0;
#X connect 5 0 6 0;
#X connect 6 0 4 0;
#X connect 7 0 1 2;
#X connect 8 0 5 0;
#X connect 8 1 10 0;
#X connect 10 0 1 1;
#X connect 12 0 11 0;
#X connect 13 0 12 0;
#X connect 14 0 13 0;
#X connect 15 0 16 0;
#X connect 16 0 14 0;
#X connect 17 0 18 0;
#X connect 17 1 12 1;
#X connect 18 0 15 0;
#X connect 19 0 18 1;
#X connect 20 0 46 0;
#X connect 21 0 20 0;
#X connect 22 0 21 0;
#X connect 23 0 24 0;
#X connect 24 0 22 0;
#X connect 25 0 26 0;
#X connect 25 1 20 1;
#X connect 26 0 23 0;
#X connect 27 0 26 1;
#X connect 28 0 47 0;
#X connect 29 0 28 0;
#X connect 30 0 29 0;
#X connect 31 0 32 0;
#X connect 32 0 30 0;
#X connect 33 0 34 0;
#X connect 33 1 28 1;
#X connect 34 0 31 0;
#X connect 35 0 34 1;
#X connect 36 0 48 0;
#X connect 37 0 36 0;
#X connect 38 0 37 0;
#X connect 39 0 40 0;
#X connect 40 0 38 0;
#X connect 41 0 42 0;
#X connect 41 1 36 1;
#X connect 42 0 39 0;
#X connect 43 0 42 1;
#X connect 44 0 9 0;
#X connect 44 0 9 1;
#X connect 45 0 44 1;
#X connect 48 0 44 0;
#X connect 49 0 50 0;
#X connect 49 1 50 1;
#X connect 51 0 49 0;
#X connect 52 0 51 0;
#X connect 53 0 54 0;
#X connect 54 0 52 0;
#X connect 55 0 49 2;
#X connect 56 0 58 0;
#X connect 56 1 57 0;
#X connect 57 0 49 1;
#X connect 58 0 53 0;
#X connect 59 0 58 1;
