#N canvas 1 83 430 566 10;
#N canvas 1680 54 1600 846 indodistro 0;
#X obj 100 100 cnv 15 400 550 empty empty empty 20 12 0 14 -155909
-66577 0;
#X obj 901 72 inlet;
#X obj 1037 395 bng 15 250 50 0 empty empty empty 17 7 0 10 -262144
-1 -1;
#X obj 372 397 vsl 18 100 0 100 0 0 empty empty empty 0 -9 0 10 -259987
-1 -1 0 1;
#X obj 390 397 vsl 18 100 0 100 0 0 empty empty empty 0 -9 0 10 -259283
-1 -1 0 1;
#X obj 408 397 vsl 18 100 0 100 0 0 empty empty empty 0 -9 0 10 -260243
-1 -1 0 1;
#X obj 426 397 vsl 18 100 0 100 0 0 empty empty empty 0 -9 0 10 -259283
-1 -1 0 1;
#X obj 444 397 vsl 18 100 0 100 0 0 empty empty empty 0 -9 0 10 -259987
-1 -1 0 1;
#X text 374 378 A;
#X text 394 378 B;
#X text 412 378 C;
#X text 431 378 D;
#X text 448 378 E;
#X floatatom 744 470 3 0 0 0 - - -;
#X floatatom 902 475 3 0 0 0 - - -;
#X floatatom 1029 484 3 0 0 0 - - -;
#X floatatom 1132 479 3 0 0 0 - - -;
#X floatatom 1273 475 3 0 0 0 - - -;
#X obj 709 502 random 100;
#X obj 709 527 <;
#X obj 709 550 route 1;
#X obj 709 480 bng 15 250 50 0 empty empty empty 17 7 0 10 -262144
-1 -1;
#X obj 709 572 bng 15 250 50 0 empty empty empty 17 7 0 10 -262144
-1 -1;
#X obj 862 513 random 100;
#X obj 862 538 <;
#X obj 862 561 route 1;
#X obj 862 491 bng 15 250 50 0 empty empty empty 17 7 0 10 -262144
-1 -1;
#X obj 862 583 bng 15 250 50 0 empty empty empty 17 7 0 10 -262144
-1 -1;
#X obj 986 508 random 100;
#X obj 986 533 <;
#X obj 986 556 route 1;
#X obj 986 486 bng 15 250 50 0 empty empty empty 17 7 0 10 -262144
-1 -1;
#X obj 986 578 bng 15 250 50 0 empty empty empty 17 7 0 10 -262144
-1 -1;
#X obj 1093 502 random 100;
#X obj 1093 527 <;
#X obj 1093 550 route 1;
#X obj 1093 480 bng 15 250 50 0 empty empty empty 17 7 0 10 -262144
-1 -1;
#X obj 1093 572 bng 15 250 50 0 empty empty empty 17 7 0 10 -262144
-1 -1;
#X obj 1220 512 random 100;
#X obj 1220 537 <;
#X obj 1220 560 route 1;
#X obj 1220 490 bng 15 250 50 0 empty empty empty 17 7 0 10 -262144
-1 -1;
#X obj 1220 582 bng 15 250 50 0 empty empty empty 17 7 0 10 -262144
-1 -1;
#X obj 372 500 bng 17 250 50 0 empty empty empty 17 7 0 10 -238092
-1 -1;
#X obj 390 500 bng 17 250 50 0 empty empty empty 17 7 0 10 -238092
-1 -1;
#X obj 408 500 bng 17 250 50 0 empty empty empty 17 7 0 10 -238092
-1 -1;
#X obj 426 500 bng 17 250 50 0 empty empty empty 17 7 0 10 -238092
-1 -1;
#X obj 444 500 bng 17 250 50 0 empty empty empty 17 7 0 10 -238092
-1 -1;
#X floatatom 106 540 3 0 0 1 offset - -;
#X floatatom 106 559 2 0 8 1 oct - -;
#X obj -218 276 *;
#X floatatom -222 198 5 0 0 0 - - -;
#X text 107 522 A;
#X floatatom 106 580 3 0 127 1 vol - -;
#X floatatom 106 598 4 0 2500 1 length - -;
#X floatatom 106 617 3 0 0 1 s-offset - -;
#X msg -113 128 127;
#X msg -67 129 150;
#X floatatom 525 1050 5 0 48 1 sampleoffset - -;
#X obj 510 1243 outlet;
#X obj 510 1189 makenote;
#X obj 510 1211 pack 0 0;
#X floatatom 510 1159 5 0 0 0 - - -;
#N canvas 1681 54 1600 846 tonalwrapper 0;
#X obj 845 474 tabread scaler;
#X obj 826 431 mod;
#X floatatom 789 337 5 0 0 0 - - -;
#X obj 937 122 r scale_notes;
#X obj 788 570 +;
#X obj 773 428 /;
#X obj 773 451 int;
#X obj 777 477 *;
#X obj 873 432 r tuning_notes;
#X floatatom 786 598 5 0 0 0 - - -;
#X floatatom 770 395 5 0 0 0 - - -;
#X floatatom 816 395 5 0 0 0 - - -;
#X obj 854 525 bng 15 250 50 0 empty empty empty 17 7 0 10 -262144
-1 -1;
#X obj 779 85 inlet;
#X obj 929 782 outlet;
#X obj 1022 293 spigot 1;
#X obj 927 292 spigot 1;
#X obj 972 271 != 1;
#X obj 984 211 > 9;
#X connect 0 0 4 0;
#X connect 0 0 12 0;
#X connect 1 0 0 0;
#X connect 2 0 10 0;
#X connect 2 0 11 0;
#X connect 3 0 1 1;
#X connect 3 0 5 1;
#X connect 3 0 18 0;
#X connect 4 0 9 0;
#X connect 5 0 6 0;
#X connect 6 0 7 0;
#X connect 7 0 4 1;
#X connect 8 0 7 1;
#X connect 9 0 14 0;
#X connect 10 0 5 0;
#X connect 11 0 1 0;
#X connect 12 0 10 0;
#X connect 13 0 16 0;
#X connect 13 0 15 0;
#X connect 15 0 14 0;
#X connect 16 0 2 0;
#X connect 17 0 16 1;
#X connect 18 0 17 0;
#X connect 18 0 15 1;
#X restore 510 1138 pd tonalwrapper;
#X floatatom 510 1096 5 0 0 0 - - -;
#X obj 510 1117 int;
#X obj 510 1071 +;
#N canvas 1 83 450 300 (subpatch) 0;
#X array indeksi 2 float 3;
#A 0 97 0;
#X coords 0 100 2 0 200 140 1 0 0;
#X restore -48 844 graph;
#X obj 901 115 bng 15 250 50 0 empty empty empty 17 7 0 10 -262144
-1 -1;
#X msg 711 590 0;
#X floatatom 711 700 5 0 0 0 - - -;
#X floatatom 184 540 3 0 0 1 offset - -;
#X floatatom 184 559 2 0 8 1 oct - -;
#X floatatom 184 580 3 0 127 1 vol - -;
#X floatatom 184 598 4 0 2500 1 length - -;
#X floatatom 184 617 3 0 0 1 s-offset - -;
#X floatatom 261 540 3 0 0 1 offset - -;
#X floatatom 261 559 2 0 8 1 oct - -;
#X floatatom 261 580 3 0 127 1 vol - -;
#X floatatom 261 598 4 0 2500 1 length - -;
#X floatatom 261 617 3 0 0 1 s-offset - -;
#X floatatom 336 541 3 0 0 1 offset - -;
#X floatatom 336 560 2 0 8 1 oct - -;
#X floatatom 336 581 3 0 127 1 vol - -;
#X floatatom 336 599 4 0 2500 1 length - -;
#X floatatom 336 618 3 0 0 1 s-offset - -;
#X floatatom 413 541 3 0 0 1 offset - -;
#X floatatom 413 560 2 0 8 1 oct - -;
#X floatatom 413 581 3 0 127 1 vol - -;
#X floatatom 413 599 4 0 2500 1 length - -;
#X floatatom 413 618 3 0 0 1 s-offset - -;
#X floatatom 607 1007 5 0 0 0 - - -;
#X floatatom 572 1008 5 0 0 0 - - -;
#X obj 414 1244 outlet;
#X obj 414 1190 makenote;
#X obj 414 1212 pack 0 0;
#X floatatom 414 1160 5 0 0 0 - - -;
#N canvas 1681 54 1600 846 tonalwrapper 0;
#X obj 845 474 tabread scaler;
#X obj 826 431 mod;
#X floatatom 789 337 5 0 0 0 - - -;
#X obj 937 122 r scale_notes;
#X obj 788 570 +;
#X obj 773 428 /;
#X obj 773 451 int;
#X obj 777 477 *;
#X obj 873 432 r tuning_notes;
#X floatatom 786 598 5 0 0 0 - - -;
#X floatatom 770 395 5 0 0 0 - - -;
#X floatatom 816 395 5 0 0 0 - - -;
#X obj 854 525 bng 15 250 50 0 empty empty empty 17 7 0 10 -262144
-1 -1;
#X obj 779 85 inlet;
#X obj 929 782 outlet;
#X obj 1022 293 spigot 1;
#X obj 927 292 spigot 1;
#X obj 972 271 != 1;
#X obj 984 211 > 9;
#X connect 0 0 4 0;
#X connect 0 0 12 0;
#X connect 1 0 0 0;
#X connect 2 0 10 0;
#X connect 2 0 11 0;
#X connect 3 0 1 1;
#X connect 3 0 5 1;
#X connect 3 0 18 0;
#X connect 4 0 9 0;
#X connect 5 0 6 0;
#X connect 6 0 7 0;
#X connect 7 0 4 1;
#X connect 8 0 7 1;
#X connect 9 0 14 0;
#X connect 10 0 5 0;
#X connect 11 0 1 0;
#X connect 12 0 10 0;
#X connect 13 0 16 0;
#X connect 13 0 15 0;
#X connect 15 0 14 0;
#X connect 16 0 2 0;
#X connect 17 0 16 1;
#X connect 18 0 17 0;
#X connect 18 0 15 1;
#X restore 414 1139 pd tonalwrapper;
#X floatatom 414 1097 5 0 0 0 - - -;
#X obj 414 1118 int;
#X floatatom 739 1052 5 0 48 1 sampleoffset - -;
#X obj 724 1245 outlet;
#X obj 724 1191 makenote;
#X obj 724 1213 pack 0 0;
#X floatatom 724 1161 5 0 0 0 - - -;
#N canvas 1681 54 1600 846 tonalwrapper 0;
#X obj 845 474 tabread scaler;
#X obj 826 431 mod;
#X floatatom 789 337 5 0 0 0 - - -;
#X obj 937 122 r scale_notes;
#X obj 788 570 +;
#X obj 773 428 /;
#X obj 773 451 int;
#X obj 777 477 *;
#X obj 873 432 r tuning_notes;
#X floatatom 786 598 5 0 0 0 - - -;
#X floatatom 770 395 5 0 0 0 - - -;
#X floatatom 816 395 5 0 0 0 - - -;
#X obj 854 525 bng 15 250 50 0 empty empty empty 17 7 0 10 -262144
-1 -1;
#X obj 779 85 inlet;
#X obj 929 782 outlet;
#X obj 1022 293 spigot 1;
#X obj 927 292 spigot 1;
#X obj 972 271 != 1;
#X obj 984 211 > 9;
#X connect 0 0 4 0;
#X connect 0 0 12 0;
#X connect 1 0 0 0;
#X connect 2 0 10 0;
#X connect 2 0 11 0;
#X connect 3 0 1 1;
#X connect 3 0 5 1;
#X connect 3 0 18 0;
#X connect 4 0 9 0;
#X connect 5 0 6 0;
#X connect 6 0 7 0;
#X connect 7 0 4 1;
#X connect 8 0 7 1;
#X connect 9 0 14 0;
#X connect 10 0 5 0;
#X connect 11 0 1 0;
#X connect 12 0 10 0;
#X connect 13 0 16 0;
#X connect 13 0 15 0;
#X connect 15 0 14 0;
#X connect 16 0 2 0;
#X connect 17 0 16 1;
#X connect 18 0 17 0;
#X connect 18 0 15 1;
#X restore 724 1140 pd tonalwrapper;
#X floatatom 724 1098 5 0 0 0 - - -;
#X obj 724 1119 int;
#X obj 724 1073 +;
#X floatatom 821 1009 5 0 0 0 - - -;
#X floatatom 786 1010 5 0 0 0 - - -;
#X obj 628 1246 outlet;
#X obj 628 1192 makenote;
#X obj 628 1214 pack 0 0;
#X floatatom 628 1162 5 0 0 0 - - -;
#N canvas 1681 54 1600 846 tonalwrapper 0;
#X obj 845 474 tabread scaler;
#X obj 826 431 mod;
#X floatatom 789 337 5 0 0 0 - - -;
#X obj 937 122 r scale_notes;
#X obj 788 570 +;
#X obj 773 428 /;
#X obj 773 451 int;
#X obj 777 477 *;
#X obj 873 432 r tuning_notes;
#X floatatom 786 598 5 0 0 0 - - -;
#X floatatom 770 395 5 0 0 0 - - -;
#X floatatom 816 395 5 0 0 0 - - -;
#X obj 854 525 bng 15 250 50 0 empty empty empty 17 7 0 10 -262144
-1 -1;
#X obj 779 85 inlet;
#X obj 929 782 outlet;
#X obj 1022 293 spigot 1;
#X obj 927 292 spigot 1;
#X obj 972 271 != 1;
#X obj 984 211 > 9;
#X connect 0 0 4 0;
#X connect 0 0 12 0;
#X connect 1 0 0 0;
#X connect 2 0 10 0;
#X connect 2 0 11 0;
#X connect 3 0 1 1;
#X connect 3 0 5 1;
#X connect 3 0 18 0;
#X connect 4 0 9 0;
#X connect 5 0 6 0;
#X connect 6 0 7 0;
#X connect 7 0 4 1;
#X connect 8 0 7 1;
#X connect 9 0 14 0;
#X connect 10 0 5 0;
#X connect 11 0 1 0;
#X connect 12 0 10 0;
#X connect 13 0 16 0;
#X connect 13 0 15 0;
#X connect 15 0 14 0;
#X connect 16 0 2 0;
#X connect 17 0 16 1;
#X connect 18 0 17 0;
#X connect 18 0 15 1;
#X restore 628 1141 pd tonalwrapper;
#X floatatom 628 1099 5 0 0 0 - - -;
#X obj 628 1120 int;
#X floatatom 945 1047 5 0 48 1 sampleoffset - -;
#X obj 930 1240 outlet;
#X obj 930 1186 makenote;
#X obj 930 1208 pack 0 0;
#X floatatom 930 1156 5 0 0 0 - - -;
#N canvas 1681 54 1600 846 tonalwrapper 0;
#X obj 845 474 tabread scaler;
#X obj 826 431 mod;
#X floatatom 789 337 5 0 0 0 - - -;
#X obj 937 122 r scale_notes;
#X obj 788 570 +;
#X obj 773 428 /;
#X obj 773 451 int;
#X obj 777 477 *;
#X obj 873 432 r tuning_notes;
#X floatatom 786 598 5 0 0 0 - - -;
#X floatatom 770 395 5 0 0 0 - - -;
#X floatatom 816 395 5 0 0 0 - - -;
#X obj 854 525 bng 15 250 50 0 empty empty empty 17 7 0 10 -262144
-1 -1;
#X obj 779 85 inlet;
#X obj 929 782 outlet;
#X obj 1022 293 spigot 1;
#X obj 927 292 spigot 1;
#X obj 972 271 != 1;
#X obj 984 211 > 9;
#X connect 0 0 4 0;
#X connect 0 0 12 0;
#X connect 1 0 0 0;
#X connect 2 0 10 0;
#X connect 2 0 11 0;
#X connect 3 0 1 1;
#X connect 3 0 5 1;
#X connect 3 0 18 0;
#X connect 4 0 9 0;
#X connect 5 0 6 0;
#X connect 6 0 7 0;
#X connect 7 0 4 1;
#X connect 8 0 7 1;
#X connect 9 0 14 0;
#X connect 10 0 5 0;
#X connect 11 0 1 0;
#X connect 12 0 10 0;
#X connect 13 0 16 0;
#X connect 13 0 15 0;
#X connect 15 0 14 0;
#X connect 16 0 2 0;
#X connect 17 0 16 1;
#X connect 18 0 17 0;
#X connect 18 0 15 1;
#X restore 930 1135 pd tonalwrapper;
#X floatatom 930 1093 5 0 0 0 - - -;
#X obj 930 1114 int;
#X obj 930 1068 +;
#X floatatom 1027 1004 5 0 0 0 - - -;
#X floatatom 992 1005 5 0 0 0 - - -;
#X obj 834 1241 outlet;
#X obj 834 1187 makenote;
#X obj 834 1209 pack 0 0;
#X floatatom 834 1157 5 0 0 0 - - -;
#N canvas 1681 54 1600 846 tonalwrapper 0;
#X obj 845 474 tabread scaler;
#X obj 826 431 mod;
#X floatatom 789 337 5 0 0 0 - - -;
#X obj 937 122 r scale_notes;
#X obj 788 570 +;
#X obj 773 428 /;
#X obj 773 451 int;
#X obj 777 477 *;
#X obj 873 432 r tuning_notes;
#X floatatom 786 598 5 0 0 0 - - -;
#X floatatom 770 395 5 0 0 0 - - -;
#X floatatom 816 395 5 0 0 0 - - -;
#X obj 854 525 bng 15 250 50 0 empty empty empty 17 7 0 10 -262144
-1 -1;
#X obj 779 85 inlet;
#X obj 929 782 outlet;
#X obj 1022 293 spigot 1;
#X obj 927 292 spigot 1;
#X obj 972 271 != 1;
#X obj 984 211 > 9;
#X connect 0 0 4 0;
#X connect 0 0 12 0;
#X connect 1 0 0 0;
#X connect 2 0 10 0;
#X connect 2 0 11 0;
#X connect 3 0 1 1;
#X connect 3 0 5 1;
#X connect 3 0 18 0;
#X connect 4 0 9 0;
#X connect 5 0 6 0;
#X connect 6 0 7 0;
#X connect 7 0 4 1;
#X connect 8 0 7 1;
#X connect 9 0 14 0;
#X connect 10 0 5 0;
#X connect 11 0 1 0;
#X connect 12 0 10 0;
#X connect 13 0 16 0;
#X connect 13 0 15 0;
#X connect 15 0 14 0;
#X connect 16 0 2 0;
#X connect 17 0 16 1;
#X connect 18 0 17 0;
#X connect 18 0 15 1;
#X restore 834 1136 pd tonalwrapper;
#X floatatom 834 1094 5 0 0 0 - - -;
#X obj 834 1115 int;
#X floatatom 1159 1049 5 0 48 1 sampleoffset - -;
#X obj 1144 1242 outlet;
#X obj 1144 1188 makenote;
#X obj 1144 1210 pack 0 0;
#X floatatom 1144 1158 5 0 0 0 - - -;
#N canvas 1681 54 1600 846 tonalwrapper 0;
#X obj 845 474 tabread scaler;
#X obj 826 431 mod;
#X floatatom 789 337 5 0 0 0 - - -;
#X obj 937 122 r scale_notes;
#X obj 788 570 +;
#X obj 773 428 /;
#X obj 773 451 int;
#X obj 777 477 *;
#X obj 873 432 r tuning_notes;
#X floatatom 786 598 5 0 0 0 - - -;
#X floatatom 770 395 5 0 0 0 - - -;
#X floatatom 816 395 5 0 0 0 - - -;
#X obj 854 525 bng 15 250 50 0 empty empty empty 17 7 0 10 -262144
-1 -1;
#X obj 779 85 inlet;
#X obj 929 782 outlet;
#X obj 1022 293 spigot 1;
#X obj 927 292 spigot 1;
#X obj 972 271 != 1;
#X obj 984 211 > 9;
#X connect 0 0 4 0;
#X connect 0 0 12 0;
#X connect 1 0 0 0;
#X connect 2 0 10 0;
#X connect 2 0 11 0;
#X connect 3 0 1 1;
#X connect 3 0 5 1;
#X connect 3 0 18 0;
#X connect 4 0 9 0;
#X connect 5 0 6 0;
#X connect 6 0 7 0;
#X connect 7 0 4 1;
#X connect 8 0 7 1;
#X connect 9 0 14 0;
#X connect 10 0 5 0;
#X connect 11 0 1 0;
#X connect 12 0 10 0;
#X connect 13 0 16 0;
#X connect 13 0 15 0;
#X connect 15 0 14 0;
#X connect 16 0 2 0;
#X connect 17 0 16 1;
#X connect 18 0 17 0;
#X connect 18 0 15 1;
#X restore 1144 1137 pd tonalwrapper;
#X floatatom 1144 1095 5 0 0 0 - - -;
#X obj 1144 1116 int;
#X obj 1144 1070 +;
#X floatatom 1241 1006 5 0 0 0 - - -;
#X floatatom 1206 1007 5 0 0 0 - - -;
#X obj 1048 1243 outlet;
#X obj 1048 1189 makenote;
#X obj 1048 1211 pack 0 0;
#X floatatom 1048 1159 5 0 0 0 - - -;
#N canvas 1681 54 1600 846 tonalwrapper 0;
#X obj 845 474 tabread scaler;
#X obj 826 431 mod;
#X floatatom 789 337 5 0 0 0 - - -;
#X obj 937 122 r scale_notes;
#X obj 788 570 +;
#X obj 773 428 /;
#X obj 773 451 int;
#X obj 777 477 *;
#X obj 873 432 r tuning_notes;
#X floatatom 786 598 5 0 0 0 - - -;
#X floatatom 770 395 5 0 0 0 - - -;
#X floatatom 816 395 5 0 0 0 - - -;
#X obj 854 525 bng 15 250 50 0 empty empty empty 17 7 0 10 -262144
-1 -1;
#X obj 779 85 inlet;
#X obj 929 782 outlet;
#X obj 1022 293 spigot 1;
#X obj 927 292 spigot 1;
#X obj 972 271 != 1;
#X obj 984 211 > 9;
#X connect 0 0 4 0;
#X connect 0 0 12 0;
#X connect 1 0 0 0;
#X connect 2 0 10 0;
#X connect 2 0 11 0;
#X connect 3 0 1 1;
#X connect 3 0 5 1;
#X connect 3 0 18 0;
#X connect 4 0 9 0;
#X connect 5 0 6 0;
#X connect 6 0 7 0;
#X connect 7 0 4 1;
#X connect 8 0 7 1;
#X connect 9 0 14 0;
#X connect 10 0 5 0;
#X connect 11 0 1 0;
#X connect 12 0 10 0;
#X connect 13 0 16 0;
#X connect 13 0 15 0;
#X connect 15 0 14 0;
#X connect 16 0 2 0;
#X connect 17 0 16 1;
#X connect 18 0 17 0;
#X connect 18 0 15 1;
#X restore 1048 1138 pd tonalwrapper;
#X floatatom 1048 1096 5 0 0 0 - - -;
#X obj 1048 1117 int;
#X floatatom 1360 1046 5 0 48 1 sampleoffset - -;
#X obj 1345 1239 outlet;
#X obj 1345 1185 makenote;
#X obj 1345 1207 pack 0 0;
#X floatatom 1345 1155 5 0 0 0 - - -;
#N canvas 1681 54 1600 846 tonalwrapper 0;
#X obj 845 474 tabread scaler;
#X obj 826 431 mod;
#X floatatom 789 337 5 0 0 0 - - -;
#X obj 937 122 r scale_notes;
#X obj 788 570 +;
#X obj 773 428 /;
#X obj 773 451 int;
#X obj 777 477 *;
#X obj 873 432 r tuning_notes;
#X floatatom 786 598 5 0 0 0 - - -;
#X floatatom 770 395 5 0 0 0 - - -;
#X floatatom 816 395 5 0 0 0 - - -;
#X obj 854 525 bng 15 250 50 0 empty empty empty 17 7 0 10 -262144
-1 -1;
#X obj 779 85 inlet;
#X obj 929 782 outlet;
#X obj 1022 293 spigot 1;
#X obj 927 292 spigot 1;
#X obj 972 271 != 1;
#X obj 984 211 > 9;
#X connect 0 0 4 0;
#X connect 0 0 12 0;
#X connect 1 0 0 0;
#X connect 2 0 10 0;
#X connect 2 0 11 0;
#X connect 3 0 1 1;
#X connect 3 0 5 1;
#X connect 3 0 18 0;
#X connect 4 0 9 0;
#X connect 5 0 6 0;
#X connect 6 0 7 0;
#X connect 7 0 4 1;
#X connect 8 0 7 1;
#X connect 9 0 14 0;
#X connect 10 0 5 0;
#X connect 11 0 1 0;
#X connect 12 0 10 0;
#X connect 13 0 16 0;
#X connect 13 0 15 0;
#X connect 15 0 14 0;
#X connect 16 0 2 0;
#X connect 17 0 16 1;
#X connect 18 0 17 0;
#X connect 18 0 15 1;
#X restore 1345 1134 pd tonalwrapper;
#X floatatom 1345 1092 5 0 0 0 - - -;
#X obj 1345 1113 int;
#X obj 1345 1067 +;
#X floatatom 1372 1002 5 0 0 0 - - -;
#X floatatom 1337 1003 5 0 0 0 - - -;
#X obj 1249 1240 outlet;
#X obj 1249 1186 makenote;
#X obj 1249 1208 pack 0 0;
#X floatatom 1249 1156 5 0 0 0 - - -;
#N canvas 1681 54 1600 846 tonalwrapper 0;
#X obj 845 474 tabread scaler;
#X obj 826 431 mod;
#X floatatom 789 337 5 0 0 0 - - -;
#X obj 937 122 r scale_notes;
#X obj 788 570 +;
#X obj 773 428 /;
#X obj 773 451 int;
#X obj 777 477 *;
#X obj 873 432 r tuning_notes;
#X floatatom 786 598 5 0 0 0 - - -;
#X floatatom 770 395 5 0 0 0 - - -;
#X floatatom 816 395 5 0 0 0 - - -;
#X obj 854 525 bng 15 250 50 0 empty empty empty 17 7 0 10 -262144
-1 -1;
#X obj 779 85 inlet;
#X obj 929 782 outlet;
#X obj 1022 293 spigot 1;
#X obj 927 292 spigot 1;
#X obj 972 271 != 1;
#X obj 984 211 > 9;
#X connect 0 0 4 0;
#X connect 0 0 12 0;
#X connect 1 0 0 0;
#X connect 2 0 10 0;
#X connect 2 0 11 0;
#X connect 3 0 1 1;
#X connect 3 0 5 1;
#X connect 3 0 18 0;
#X connect 4 0 9 0;
#X connect 5 0 6 0;
#X connect 6 0 7 0;
#X connect 7 0 4 1;
#X connect 8 0 7 1;
#X connect 9 0 14 0;
#X connect 10 0 5 0;
#X connect 11 0 1 0;
#X connect 12 0 10 0;
#X connect 13 0 16 0;
#X connect 13 0 15 0;
#X connect 15 0 14 0;
#X connect 16 0 2 0;
#X connect 17 0 16 1;
#X connect 18 0 17 0;
#X connect 18 0 15 1;
#X restore 1249 1135 pd tonalwrapper;
#X floatatom 1249 1093 5 0 0 0 - - -;
#X obj 1249 1114 int;
#X obj 711 722 int;
#X obj 711 750 +;
#X msg 862 602 0;
#X floatatom 862 703 5 0 0 0 - - -;
#X obj 862 725 int;
#X obj 862 753 +;
#X msg 986 601 0;
#X floatatom 986 702 5 0 0 0 - - -;
#X obj 986 724 int;
#X obj 986 752 +;
#X msg 1093 599 0;
#X floatatom 1092 700 5 0 0 0 - - -;
#X obj 1092 722 int;
#X obj 1092 750 +;
#X msg 1221 607 0;
#X floatatom 1221 700 5 0 0 0 - - -;
#X obj 1221 722 int;
#X obj 1221 750 +;
#X obj -84 100 loadbang;
#X text -82 80 Presets;
#X obj -219 307 *;
#X obj -221 332 *;
#X obj -222 363 *;
#X obj -223 390 *;
#X text 185 522 B;
#X text 262 522 C;
#X text 337 523 D;
#X text 414 523 E;
#X obj 1037 346 delay 2;
#X obj -222 173 r scale_notes;
#X obj 1221 680 tabread muisti1;
#X obj 1093 680 tabread muisti1;
#X obj 986 682 tabread muisti1;
#X obj 862 683 tabread muisti1;
#X obj 711 680 tabread muisti1;
#N canvas 1 88 1280 872 chaos 0;
#X obj 101 100 cnv 15 260 150 empty empty empty 20 12 0 14 -256001
-66577 0;
#X obj 110 117 cnv 15 200 100 empty empty empty 20 12 0 14 -256577
-66577 0;
#N canvas 1 85 450 300 (subpatch) 0;
#X array dejong 50 float 3;
#A 0 7.60024 -8.26755 -3.36252 0.0191108 -3.18567 8.37461 0.00709862
0.00368694 9.41341 4.00369 5.5527 -1.57557 -0.70758 1.90797 -1.76885
-5.47064 -0.0303936 -17.573 7.40242 5.25377 -0.567447 2.38662 5.5564
0.127047 -1.44994 3.35397 -0.472509 -3.67506 1.06323 0.0723702 -0.180372
4.09308 3.42001 -1.50607 -0.836747 -12.8046 0.390643 -0.330137 -0.376322
-0.0539095 0.143308 -3.98139 0.487537 1.71943 1.0457 3.57655 0.807858
-1.51702 -0.000100274 14.9264;
#X coords 0 24 50 -24 200 100 1 0 0;
#X restore 110 117 graph;
#X obj -389 416 bng 15 250 50 0 empty empty empty 17 7 0 10 -262144
-1 -1;
#X obj -389 435 int;
#X obj -364 435 + 1;
#X floatatom -389 459 5 0 0 0 - - -;
#X obj -280 482 mod 50;
#X obj 376 634 *;
#X floatatom 104 223 5 1 20 1 multi_offset - -;
#X obj 316 125 vsl 9 100 -1 1 0 0 empty empty empty 0 -9 0 10 -248577
-1 -1 0 1;
#X obj 325 125 vsl 9 100 -1 1 0 0 empty empty empty 0 -9 0 10 -248257
-1 -1 0 1;
#X text 161 100 Chaos Attractor;
#X obj -367 68 inlet;
#X obj 511 401 dejong 0 0 -0.0239362 -0.67834 2.50703 -0.0138538 -1.44072
2.47917;
#X floatatom 520 460 5 0 0 0 - - -;
#X floatatom 598 466 5 0 0 0 - - -;
#X obj 589 546 *;
#X msg 462 264 param -0.0239362 -0.67834 2.50703 -0.0138538 -1.44072
2.47917;
#X msg 324 348 reset;
#X obj 324 231 bng 15 250 50 0 empty empty empty 17 7 0 10 -256705
-1 -1;
#X msg 490 322 start;
#X msg 433 349 search;
#X msg 444 370 show;
#X obj 334 125 vsl 9 100 -1 1 0 0 empty empty empty 0 -9 0 10 -248577
-1 -1 0 1;
#X obj 343 125 vsl 9 100 -1 1 0 0 empty empty empty 0 -9 0 10 -248257
-1 -1 0 1;
#X obj 452 133 pack f f f f f f;
#X msg 452 176 param \$1 \$2 \$3 \$4;
#X obj 318 106 bng 15 250 50 0 empty empty empty 17 7 0 10 -256705
-1 -1;
#X obj 334 106 bng 15 250 50 0 empty empty empty 17 7 0 10 -256705
-1 -1;
#X obj 46 748 tabwrite dejong;
#X obj -248 740 tabwrite muisti1;
#N canvas 0 0 450 300 (subpatch) 0;
#X array muisti1 1 float 3;
#A 0 -2.67506;
#X coords 0 128 1 -128 15 15 1 0 0;
#X restore -284 143 graph;
#X floatatom 223 224 5 0 0 1 offset - -;
#X obj -206 703 +;
#X msg -143 739 0;
#X connect 3 0 4 0;
#X connect 3 0 14 0;
#X connect 4 0 5 0;
#X connect 4 0 6 0;
#X connect 5 0 4 1;
#X connect 6 0 7 0;
#X connect 7 0 30 1;
#X connect 8 0 30 0;
#X connect 8 0 34 0;
#X connect 9 0 8 1;
#X connect 10 0 26 0;
#X connect 11 0 26 1;
#X connect 13 0 3 0;
#X connect 14 0 15 0;
#X connect 14 1 16 0;
#X connect 15 0 17 0;
#X connect 16 0 17 1;
#X connect 17 0 8 0;
#X connect 18 0 14 0;
#X connect 19 0 14 0;
#X connect 20 0 19 0;
#X connect 21 0 14 0;
#X connect 22 0 14 0;
#X connect 24 0 26 2;
#X connect 25 0 26 3;
#X connect 26 0 27 0;
#X connect 27 0 14 0;
#X connect 28 0 22 0;
#X connect 29 0 23 0;
#X connect 33 0 34 1;
#X connect 34 0 31 0;
#X connect 34 0 35 0;
#X connect 35 0 31 1;
#X coords 0 -1 1 1 260 150 1 100 100;
#X restore 106 368 pd chaos;
#N canvas 0 85 1280 715 chaos 0;
#X obj 101 100 cnv 15 260 150 empty empty empty 20 12 0 14 -46145 -66577
0;
#X obj 104 119 cnv 15 200 100 empty empty empty 20 12 0 14 -22297 -66577
0;
#N canvas 1 85 450 300 (subpatch) 0;
#X array ikeda 50 float 3;
#A 0 -6.64047 0.295996 1.11409 1.56798 -0.123533 1.17928 0.781886 0.81292
-1.51239 1.47944 0.634128 -5.57283 1.51397 -5.68361 0.651882 -2.16992
2.77711 -2.1715 1.7673 -3.21313 3.49 0.388864 -4.90283 0.54203 -2.90339
2.25781 -1.59076 -0.381984 -5.22447 5.07601 -4.10471 1.99807 -6.8001
5.25309 -10.3774 -11.1036 -7.12885 -0.399818 1.95823 -1.0145 2.03547
-0.488389 1.41253 0.309336 -2.25594 1.05894 0.468173 -6.53138 5.46283
-8.64259;
#X coords 0 24 50 -24 200 100 1 0 0;
#X restore 105 118 graph;
#X obj -389 416 bng 15 250 50 0 empty empty empty 17 7 0 10 -262144
-1 -1;
#X obj -389 435 int;
#X obj -364 435 + 1;
#X floatatom -389 459 5 0 0 0 - - -;
#X obj -280 482 mod 50;
#X obj 147 684 *;
#X floatatom 104 223 5 1 20 1 multi_offset - -;
#X floatatom 276 565 10 0 0 0 Y - -;
#X floatatom 234 538 10 0 0 0 X - -;
#X obj 243 511 ikeda 0.1 0.1 0.4 0.9 6 1;
#X floatatom 131 580 5 0 0 0 - - -;
#X floatatom 200 571 5 0 0 0 - - -;
#X msg 265 463 param 0.4 0.9 6 1;
#X obj 310 118 vsl 9 100 0 1 0 0 empty empty empty 0 -9 0 10 -14277
-1 -1 0 1;
#X obj 319 118 vsl 9 100 0 1 0 0 empty empty empty 0 -9 0 10 -14729
-1 -1 0 1;
#X obj 328 118 vsl 9 100 0 1 0 0 empty empty empty 0 -9 0 10 -14277
-1 -1 0 1;
#X obj 338 118 vsl 12 100 1 10 0 0 empty empty empty 0 -9 0 10 -15369
-1 -1 0 1;
#X obj 295 381 pack f f f f;
#X msg 271 427 param \$1 \$2 \$3 \$4 1;
#X obj 144 610 *;
#X text 152 99 Chaos Attractor;
#X obj 43 718 tabwrite ikeda;
#X obj -367 68 inlet;
#X msg 212 316 reset;
#X obj 321 223 bng 15 250 50 0 empty empty empty 17 7 0 10 -60737 -1
-1;
#X connect 3 0 4 0;
#X connect 3 0 12 0;
#X connect 4 0 5 0;
#X connect 4 0 6 0;
#X connect 5 0 4 1;
#X connect 6 0 7 0;
#X connect 7 0 24 1;
#X connect 8 0 24 0;
#X connect 9 0 8 1;
#X connect 10 0 14 0;
#X connect 11 0 13 0;
#X connect 12 0 11 0;
#X connect 12 1 10 0;
#X connect 13 0 22 0;
#X connect 14 0 22 1;
#X connect 15 0 12 0;
#X connect 16 0 20 0;
#X connect 17 0 20 1;
#X connect 18 0 20 2;
#X connect 19 0 20 3;
#X connect 20 0 21 0;
#X connect 21 0 12 0;
#X connect 22 0 8 0;
#X connect 25 0 3 0;
#X connect 26 0 12 0;
#X connect 27 0 26 0;
#X coords 0 -1 1 1 260 150 1 100 100;
#X restore 106 215 pd chaos;
#N canvas 1 86 1280 715 chaos 0;
#X obj 101 100 cnv 15 260 100 empty empty empty 20 12 0 14 -254849
-66577 0;
#X obj 110 117 cnv 15 200 60 empty empty empty 20 12 0 14 -218305 -66577
0;
#N canvas 1 85 450 300 (subpatch) 0;
#X array weibull 50 float 3;
#A 0 -9.93383 -10.7729 -9.70646 -9.37155 -10.2855 -11.8457 -9.59247
-8.44426 -13.2399 -8.92971 -11.3211 -12.7701 -10.752 -11.3076 -9.21303
-9.45552 -10.1403 -12.2142 -12.3586 -10.8367 -8.65712 -9.06957 -11.3053
-11.6038 -9.35956 -7.46422 -7.95654 -10.2407 -7.06399 -8.02659 -9.49335
-9.6338 -7.95935 -11.175 -8.45243 -8.78134 -8.55064 -10.5215 -9.56575
-8.51217 -6.58188 -9.0027 -8.40909 -10.8108 -8.32793 -9.94302 -8.48501
-10.9449 -9.75178 -8.27347;
#X coords 0 24 50 -24 200 60 1 0 0;
#X restore 109 118 graph;
#X obj 316 119 vsl 14 69 0 16 0 0 empty empty empty 0 -9 0 10 -259201
-1 -1 0 1;
#X obj 331 119 vsl 14 69 0 16 0 0 empty empty empty 0 -9 0 10 -259521
-1 -1 0 1;
#X obj -367 68 inlet;
#X text 168 100 Randomizer;
#X obj -150 437 bng 20 250 50 0 empty empty empty 0 -6 0 8 -262144
-1 -1;
#X floatatom -150 505 5 0 0 0 - - -;
#X floatatom 266 288 5 0 0 0 - - -;
#X floatatom 328 299 5 0 0 0 - - -;
#X obj -150 482 weibull 0.78 1.3;
#X obj -57 506 int;
#X obj -31 506 + 1;
#X obj -147 630 tabwrite weibull;
#X floatatom 110 181 5 0 0 1 offset - -;
#X obj 40 575 +;
#X obj -57 528 mod 50;
#X obj 7 640 outlet;
#X connect 3 0 9 0;
#X connect 4 0 10 0;
#X connect 5 0 7 0;
#X connect 7 0 11 0;
#X connect 7 0 12 0;
#X connect 8 0 16 0;
#X connect 9 0 11 1;
#X connect 10 0 11 2;
#X connect 11 0 8 0;
#X connect 12 0 13 0;
#X connect 12 0 17 0;
#X connect 13 0 12 1;
#X connect 15 0 16 1;
#X connect 16 0 18 0;
#X connect 16 0 14 0;
#X connect 17 0 14 1;
#X coords 0 -1 1 1 260 100 1 100 100;
#X restore 106 110 pd chaos;
#X connect 1 0 68 0;
#X connect 1 0 200 0;
#X connect 2 0 21 0;
#X connect 2 0 26 0;
#X connect 2 0 31 0;
#X connect 2 0 36 0;
#X connect 2 0 41 0;
#X connect 3 0 13 0;
#X connect 4 0 14 0;
#X connect 5 0 15 0;
#X connect 6 0 16 0;
#X connect 7 0 17 0;
#X connect 13 0 19 1;
#X connect 14 0 24 1;
#X connect 15 0 29 1;
#X connect 16 0 34 1;
#X connect 17 0 39 1;
#X connect 18 0 19 0;
#X connect 19 0 20 0;
#X connect 20 0 22 0;
#X connect 21 0 18 0;
#X connect 22 0 43 0;
#X connect 22 0 69 0;
#X connect 23 0 24 0;
#X connect 24 0 25 0;
#X connect 25 0 27 0;
#X connect 26 0 23 0;
#X connect 27 0 44 0;
#X connect 27 0 174 0;
#X connect 28 0 29 0;
#X connect 29 0 30 0;
#X connect 30 0 32 0;
#X connect 31 0 28 0;
#X connect 32 0 45 0;
#X connect 32 0 178 0;
#X connect 33 0 34 0;
#X connect 34 0 35 0;
#X connect 35 0 37 0;
#X connect 36 0 33 0;
#X connect 37 0 46 0;
#X connect 37 0 182 0;
#X connect 38 0 39 0;
#X connect 39 0 40 0;
#X connect 40 0 42 0;
#X connect 41 0 38 0;
#X connect 42 0 47 0;
#X connect 42 0 186 0;
#X connect 48 0 173 1;
#X connect 49 0 50 0;
#X connect 50 0 48 0;
#X connect 51 0 50 1;
#X connect 51 0 192 1;
#X connect 51 0 193 1;
#X connect 51 0 194 1;
#X connect 51 0 195 1;
#X connect 53 0 92 0;
#X connect 54 0 91 0;
#X connect 55 0 58 0;
#X connect 56 0 53 0;
#X connect 56 0 73 0;
#X connect 56 0 78 0;
#X connect 56 0 83 0;
#X connect 56 0 88 0;
#X connect 57 0 54 0;
#X connect 57 0 74 0;
#X connect 57 0 79 0;
#X connect 57 0 84 0;
#X connect 57 0 89 0;
#X connect 58 0 66 1;
#X connect 60 0 61 0;
#X connect 60 1 61 1;
#X connect 61 0 59 0;
#X connect 62 0 60 0;
#X connect 63 0 62 0;
#X connect 64 0 65 0;
#X connect 65 0 63 0;
#X connect 66 0 64 0;
#X connect 68 0 207 0;
#X connect 69 0 206 0;
#X connect 70 0 172 0;
#X connect 71 0 177 1;
#X connect 72 0 192 0;
#X connect 73 0 110 0;
#X connect 74 0 109 0;
#X connect 75 0 100 0;
#X connect 76 0 181 1;
#X connect 77 0 193 0;
#X connect 78 0 128 0;
#X connect 79 0 127 0;
#X connect 80 0 118 0;
#X connect 81 0 185 1;
#X connect 82 0 194 0;
#X connect 83 0 146 0;
#X connect 84 0 145 0;
#X connect 85 0 136 0;
#X connect 86 0 189 1;
#X connect 87 0 195 0;
#X connect 88 0 164 0;
#X connect 89 0 163 0;
#X connect 90 0 154 0;
#X connect 91 0 94 2;
#X connect 91 0 60 2;
#X connect 92 0 94 1;
#X connect 92 0 60 1;
#X connect 94 0 95 0;
#X connect 94 1 95 1;
#X connect 95 0 93 0;
#X connect 96 0 94 0;
#X connect 97 0 96 0;
#X connect 98 0 99 0;
#X connect 99 0 97 0;
#X connect 100 0 108 1;
#X connect 102 0 103 0;
#X connect 102 1 103 1;
#X connect 103 0 101 0;
#X connect 104 0 102 0;
#X connect 105 0 104 0;
#X connect 106 0 107 0;
#X connect 107 0 105 0;
#X connect 108 0 106 0;
#X connect 109 0 112 2;
#X connect 109 0 102 2;
#X connect 110 0 112 1;
#X connect 110 0 102 1;
#X connect 112 0 113 0;
#X connect 112 1 113 1;
#X connect 113 0 111 0;
#X connect 114 0 112 0;
#X connect 115 0 114 0;
#X connect 116 0 117 0;
#X connect 117 0 115 0;
#X connect 118 0 126 1;
#X connect 120 0 121 0;
#X connect 120 1 121 1;
#X connect 121 0 119 0;
#X connect 122 0 120 0;
#X connect 123 0 122 0;
#X connect 124 0 125 0;
#X connect 125 0 123 0;
#X connect 126 0 124 0;
#X connect 127 0 130 2;
#X connect 127 0 120 2;
#X connect 128 0 130 1;
#X connect 128 0 120 1;
#X connect 130 0 131 0;
#X connect 130 1 131 1;
#X connect 131 0 129 0;
#X connect 132 0 130 0;
#X connect 133 0 132 0;
#X connect 134 0 135 0;
#X connect 135 0 133 0;
#X connect 136 0 144 1;
#X connect 138 0 139 0;
#X connect 138 1 139 1;
#X connect 139 0 137 0;
#X connect 140 0 138 0;
#X connect 141 0 140 0;
#X connect 142 0 143 0;
#X connect 143 0 141 0;
#X connect 144 0 142 0;
#X connect 145 0 148 2;
#X connect 145 0 138 2;
#X connect 146 0 148 1;
#X connect 146 0 138 1;
#X connect 148 0 149 0;
#X connect 148 1 149 1;
#X connect 149 0 147 0;
#X connect 150 0 148 0;
#X connect 151 0 150 0;
#X connect 152 0 153 0;
#X connect 153 0 151 0;
#X connect 154 0 162 1;
#X connect 156 0 157 0;
#X connect 156 1 157 1;
#X connect 157 0 155 0;
#X connect 158 0 156 0;
#X connect 159 0 158 0;
#X connect 160 0 161 0;
#X connect 161 0 159 0;
#X connect 162 0 160 0;
#X connect 163 0 166 2;
#X connect 163 0 156 2;
#X connect 164 0 166 1;
#X connect 164 0 156 1;
#X connect 166 0 167 0;
#X connect 166 1 167 1;
#X connect 167 0 165 0;
#X connect 168 0 166 0;
#X connect 169 0 168 0;
#X connect 170 0 171 0;
#X connect 171 0 169 0;
#X connect 172 0 173 0;
#X connect 173 0 98 0;
#X connect 173 0 66 0;
#X connect 174 0 205 0;
#X connect 175 0 176 0;
#X connect 176 0 177 0;
#X connect 177 0 116 0;
#X connect 177 0 108 0;
#X connect 178 0 204 0;
#X connect 179 0 180 0;
#X connect 180 0 181 0;
#X connect 181 0 134 0;
#X connect 181 0 126 0;
#X connect 182 0 203 0;
#X connect 183 0 184 0;
#X connect 184 0 185 0;
#X connect 185 0 152 0;
#X connect 185 0 144 0;
#X connect 186 0 202 0;
#X connect 187 0 188 0;
#X connect 188 0 189 0;
#X connect 189 0 170 0;
#X connect 189 0 162 0;
#X connect 190 0 56 0;
#X connect 190 0 57 0;
#X connect 192 0 71 0;
#X connect 193 0 76 0;
#X connect 194 0 81 0;
#X connect 195 0 86 0;
#X connect 200 0 2 0;
#X connect 201 0 51 0;
#X connect 202 0 187 0;
#X connect 203 0 183 0;
#X connect 204 0 179 0;
#X connect 205 0 175 0;
#X connect 206 0 70 0;
#X coords 0 -1 1 1 400 550 1 100 100;
#X restore -444 -273 pd indodistro;
