#N canvas 1 111 185 106 10;
#N canvas 0 83 1680 967 scanner 0;
#X obj 601 300 cnv 15 170 70 empty empty empty 20 12 0 14 -261234 -66577
0;
#X obj 442 56 fiddle~;
#X obj 443 30 adc~;
#X floatatom 470 95 5 0 0 0 - - -;
#X floatatom 516 95 5 0 0 0 - - -;
#X floatatom 438 96 5 0 0 0 - - -;
#X floatatom 396 97 5 0 0 0 - - -;
#X obj 606 305 hsl 128 15 0 127 0 0 empty empty empty -2 -8 0 10 -262144
-1 -1 0 1;
#X obj 337 471 >;
#X obj 606 320 hsl 128 8 0 127 0 0 empty empty empty -2 -8 0 10 -262144
-1 -1 0 1;
#X obj 337 491 route 1;
#X obj 742 307 bng 15 250 50 0 empty empty empty 17 7 0 10 -262144
-1 -1;
#X obj 606 335 hsl 128 15 0 127 0 0 empty empty empty -2 -8 0 10 -262144
-1 -1 0 1;
#X obj 337 554 >;
#X obj 606 350 hsl 128 8 0 127 0 0 empty empty empty -2 -8 0 10 -262144
-1 -1 0 1;
#X obj 337 574 route 1;
#X obj 742 336 bng 15 250 50 0 empty empty empty 17 7 0 10 -262144
-1 -1;
#X obj 816 567 outlet;
#X obj 928 571 outlet;
#X connect 1 0 6 0;
#X connect 1 1 5 0;
#X connect 1 2 3 0;
#X connect 1 3 4 0;
#X connect 2 0 1 0;
#X connect 3 0 12 0;
#X connect 4 0 7 0;
#X connect 7 0 8 0;
#X connect 8 0 10 0;
#X connect 9 0 8 1;
#X connect 10 0 11 0;
#X connect 11 0 17 0;
#X connect 12 0 13 0;
#X connect 13 0 15 0;
#X connect 14 0 13 1;
#X connect 15 0 16 0;
#X connect 16 0 18 0;
#X coords 0 -1 1 1 170 70 1 600 300;
#X restore -315 -135 pd scanner;
