#N canvas 694 298 355 211 10;
#N canvas 0 83 1680 967 gridmetro 0;
#X obj 100 100 cnv 15 200 150 empty empty empty 20 12 0 14 -260097
-66577 0;
#X obj -302 349 metro;
#X floatatom -239 279 5 0 0 0 - - -;
#X obj -302 378 bng 15 250 50 0 empty empty empty 17 7 0 10 -262144
-1 -1;
#X obj -95 227 mod 16;
#X floatatom 168 131 2 1 64 0 changemod - -;
#X obj -95 270 route 1;
#X obj -95 312 random 100;
#X obj -95 333 + 200;
#X obj -95 293 bng 15 250 50 0 empty empty empty 17 7 0 10 -262144
-1 -1;
#X obj -302 401 int;
#X obj -274 401 + 1;
#X obj -95 206 int;
#X obj -67 206 + 1;
#X obj -302 421 mod;
#X floatatom -148 455 3 1 4 1 grid - -;
#X obj -302 459 route 1;
#X obj -302 480 bng 15 250 50 0 empty empty empty 17 7 0 10 -262144
-1 -1;
#X floatatom -413 501 5 0 0 0 - - -;
#X obj -95 249 == 0;
#X obj -302 440 == 0;
#X obj -148 400 random;
#X obj -148 431 +;
#X floatatom 176 175 2 1 4 0 gridbase - -;
#X floatatom 191 175 2 1 8 1 grid+max - -;
#X obj -302 512 delay;
#X obj -265 495 random;
#X floatatom 176 197 2 1 50 1 randdelay - -;
#X obj -300 554 bng 15 250 50 0 empty empty empty 17 7 0 10 -262144
-1 -1;
#X floatatom 196 151 4 0 100 1 tempo+max - -;
#X floatatom 169 151 4 50 500 0 tempobase - -;
#X obj 190 132 tgl 15 0 empty empty on 17 7 0 10 -262144 -1 -1 0 1
;
#X obj 157 199 bng 15 250 50 0 empty empty empty 17 7 0 10 -262144
-1 -1;
#X text 156 100 GRIDMETRONOME;
#X obj 68 -133 loadbang;
#X msg -16 -33 16;
#X msg 27 -31 300;
#X msg 86 -17 50;
#X msg 147 -24 1;
#X msg 209 -26 3;
#X msg 251 -32 15;
#X msg 283 -30 0;
#X obj -285 662 outlet;
#X connect 1 0 3 0;
#X connect 2 0 1 1;
#X connect 3 0 12 0;
#X connect 3 0 10 0;
#X connect 4 0 19 0;
#X connect 5 0 4 1;
#X connect 6 0 9 0;
#X connect 7 0 8 0;
#X connect 8 0 2 0;
#X connect 9 0 7 0;
#X connect 9 0 21 0;
#X connect 10 0 11 0;
#X connect 10 0 14 0;
#X connect 10 0 18 0;
#X connect 11 0 10 1;
#X connect 12 0 13 0;
#X connect 12 0 4 0;
#X connect 13 0 12 1;
#X connect 14 0 20 0;
#X connect 15 0 14 1;
#X connect 16 0 17 0;
#X connect 17 0 26 0;
#X connect 17 0 25 0;
#X connect 19 0 6 0;
#X connect 20 0 16 0;
#X connect 21 0 22 0;
#X connect 22 0 15 0;
#X connect 23 0 22 1;
#X connect 24 0 21 1;
#X connect 25 0 28 0;
#X connect 26 0 25 1;
#X connect 27 0 26 1;
#X connect 28 0 32 0;
#X connect 28 0 42 0;
#X connect 29 0 7 1;
#X connect 30 0 8 1;
#X connect 31 0 1 0;
#X connect 34 0 35 0;
#X connect 34 0 36 0;
#X connect 34 0 37 0;
#X connect 34 0 38 0;
#X connect 34 0 39 0;
#X connect 34 0 40 0;
#X connect 34 0 41 0;
#X connect 35 0 5 0;
#X connect 36 0 30 0;
#X connect 37 0 29 0;
#X connect 38 0 23 0;
#X connect 39 0 24 0;
#X connect 40 0 27 0;
#X connect 41 0 31 0;
#X coords 0 -1 1 1 200 150 1 100 100;
#X restore -2 -21 pd gridmetro;
#X obj 11 154 s metro;
#X obj 72 155 s metro2;
#X obj 132 157 s metro3;
#X connect 0 0 1 0;
