#N canvas 0 83 1680 967 10;
#N canvas 0 83 1680 967 atonaler 0;
#X obj 100 100 cnv 15 205 90 empty empty empty 20 12 0 14 -258689 -66577
0;
#N canvas 0 0 450 300 (subpatch) 0;
#X array index 24 float 3;
#A 0 1 0 1 1 1 1 0 0 1 1 1 1 0 0 0 0 0 0 0 0 0 0 0 0;
#X coords 0 2 24 -1 100 40 1 0 0;
#X restore 104 139 graph;
#X obj 511 204 tabwrite index;
#X floatatom 619 170 5 0 0 0 - - -;
#X obj 619 193 tabread index;
#X obj 619 220 == 0;
#X obj 673 210 == 1;
#X obj 673 231 route 1;
#X obj 673 251 bng 15 250 50 0 empty empty empty 17 7 0 10 -262144
-1 -1;
#X msg 511 186 1;
#X msg 617 491 \; index const 0;
#X obj 619 288 int;
#X obj 619 240 route 1;
#X obj 619 265 bng 15 250 50 0 empty empty empty 17 7 0 10 -262144
-1 -1;
#X obj 648 288 + 1;
#X obj 617 416 route 1;
#X obj 617 436 bng 15 250 50 0 empty empty empty 17 7 0 10 -262144
-1 -1;
#X msg 617 466 0;
#X floatatom 676 305 5 0 0 0 - - -;
#X floatatom 592 186 2 0 0 0 - - -;
#X obj 511 171 bng 15 250 50 0 empty empty empty 17 7 0 10 -262144
-1 -1;
#X obj 511 150 delay 1;
#X obj 673 269 delay 1;
#X floatatom 617 533 5 0 0 0 - - -;
#X obj 716 -20 int;
#X obj 716 -39 bng 15 250 50 0 empty empty empty 17 7 0 10 -262144
-1 -1;
#X obj 716 1 /;
#X floatatom 770 -15 5 0 0 0 - - -;
#X obj 716 22 sin;
#X msg 806 -32 1;
#X obj 716 43 *;
#X floatatom 768 27 5 0 0 0 - - -;
#X obj 716 64 +;
#X floatatom 768 48 5 0 0 0 - - -;
#X msg 806 31 12;
#X msg 806 10 6;
#X obj 632 -121 loadbang;
#X floatatom 716 106 5 0 0 0 - - -;
#X obj 741 -20 + 1;
#X obj 716 84 int;
#X obj 673 -44 bng 15 250 50 0 empty empty empty 17 7 0 10 -262144
-1 -1;
#X obj 619 28 gauss;
#X floatatom 646 7 2 0 0 0 - - -;
#X floatatom 632 7 2 0 0 0 - - -;
#X obj 619 7 bng 15 250 50 0 empty empty empty 17 7 0 10 -262144 -1
-1;
#X obj 619 48 int;
#X obj 619 69 abs;
#X obj 617 394 == 23;
#X msg 632 -21 12;
#X msg 666 -21 0;
#X obj 632 -43 bng 15 250 50 0 empty empty empty 17 7 0 10 -262144
-1 -1;
#X obj 619 122 +;
#X obj 619 145 mod 24;
#X obj 806 -104 bng 15 250 50 0 empty empty empty 17 7 0 10 -262144
-1 -1;
#X obj 673 -149 bng 15 250 50 0 empty empty empty 17 7 0 10 -262144
-1 -1;
#X obj 673 -176 inlet;
#X obj 617 562 outlet;
#X floatatom 207 142 3 1 24 1 notes - -;
#X msg 346 -78 24;
#X obj 273 146 bng 15 250 50 0 empty empty empty 17 7 0 10 -262144
-1 -1;
#X text 276 144 R;
#X obj 645 334 - 1;
#X text 140 106 Atonal Serializer;
#X connect 3 0 4 0;
#X connect 3 0 19 0;
#X connect 3 0 23 0;
#X connect 4 0 6 0;
#X connect 4 0 5 0;
#X connect 5 0 12 0;
#X connect 6 0 7 0;
#X connect 7 0 8 0;
#X connect 8 0 22 0;
#X connect 9 0 2 0;
#X connect 11 0 14 0;
#X connect 11 0 18 0;
#X connect 11 0 47 0;
#X connect 12 0 13 0;
#X connect 13 0 11 0;
#X connect 13 0 21 0;
#X connect 14 0 11 1;
#X connect 15 0 16 0;
#X connect 16 0 10 0;
#X connect 16 0 17 0;
#X connect 17 0 11 0;
#X connect 19 0 2 1;
#X connect 20 0 9 0;
#X connect 20 0 19 0;
#X connect 21 0 20 0;
#X connect 22 0 40 0;
#X connect 23 0 56 0;
#X connect 24 0 26 0;
#X connect 24 0 38 0;
#X connect 25 0 24 0;
#X connect 26 0 28 0;
#X connect 27 0 26 1;
#X connect 28 0 30 0;
#X connect 29 0 27 0;
#X connect 30 0 32 0;
#X connect 31 0 30 1;
#X connect 32 0 39 0;
#X connect 33 0 32 1;
#X connect 34 0 33 0;
#X connect 35 0 31 0;
#X connect 36 0 50 0;
#X connect 36 0 53 0;
#X connect 36 0 58 0;
#X connect 37 0 51 1;
#X connect 38 0 24 1;
#X connect 39 0 37 0;
#X connect 40 0 44 0;
#X connect 40 0 25 0;
#X connect 41 0 45 0;
#X connect 42 0 41 2;
#X connect 43 0 41 1;
#X connect 44 0 41 0;
#X connect 45 0 46 0;
#X connect 46 0 51 0;
#X connect 47 0 15 0;
#X connect 48 0 43 0;
#X connect 49 0 42 0;
#X connect 50 0 48 0;
#X connect 50 0 49 0;
#X connect 51 0 52 0;
#X connect 52 0 3 0;
#X connect 53 0 29 0;
#X connect 53 0 35 0;
#X connect 53 0 34 0;
#X connect 54 0 40 0;
#X connect 55 0 54 0;
#X connect 57 0 52 1;
#X connect 57 0 61 0;
#X connect 58 0 57 0;
#X connect 59 0 16 0;
#X connect 61 0 47 1;
#X coords 0 -1 1 1 205 90 1 100 100;
#X restore 655 81 pd atonaler;
