#N canvas 1 83 450 300 10;
#N canvas 22 90 1636 899 burmaburst 0;
#X obj 100 100 cnv 15 365 250 empty empty empty 20 12 0 14 -188481
-66577 0;
#X obj 960 294 int;
#X obj 986 294 - 1;
#X obj 960 313 > 0;
#X obj 963 -96 bng 15 250 50 0 empty empty empty 17 7 0 10 -262144
-1 -1;
#X obj 960 272 spigot 1;
#X floatatom 960 335 5 0 0 0 - - -;
#X obj 960 354 bng 15 250 50 0 empty empty empty 17 7 0 10 -262144
-1 -1;
#X obj 963 -73 int;
#X obj 987 -73 + 1;
#X obj 896 -32 mod 16;
#X obj 896 -12 == 0;
#X obj 896 8 route 1;
#X obj 960 414 int;
#X obj 986 414 + 1;
#X floatatom 960 436 5 0 0 0 - - -;
#X obj 1001 391 + 1;
#X obj 1001 369 random;
#X obj 961 626 sin;
#X obj 961 603 /;
#X obj 961 649 *;
#X obj 961 675 +;
#X obj 961 698 int;
#X floatatom 961 753 5 0 0 0 - - -;
#X obj 960 458 sin;
#X obj 960 480 *;
#X obj 960 506 +;
#X obj 960 529 int;
#X floatatom 960 550 5 0 0 0 - - -;
#X obj 343 -86 loadbang;
#X msg 330 -41 3;
#X msg 358 -41 15;
#X msg 385 -41 6;
#X msg 412 -41 10;
#X msg 440 -41 12;
#X msg 303 -41 1;
#X obj 105 121 cnv 15 80 150 empty empty empty 20 12 0 14 -75026 -66577
0;
#X obj 110 126 vradio 14 1 0 10 empty empty empty 0 -8 0 10 -230420
-1 -1 0;
#X obj 124 126 vradio 14 1 0 10 empty empty empty 0 -8 0 10 -231188
-1 -1 0;
#X obj 138 126 vradio 14 1 0 10 empty empty empty 0 -8 0 10 -230420
-1 -1 0;
#X obj 152 126 vradio 14 1 0 10 empty empty empty 0 -8 0 10 -231188
-1 -1 0;
#X obj 166 126 vradio 14 1 0 10 empty empty empty 0 -8 0 10 -230420
-1 -1 0;
#N canvas 0 0 450 300 (subpatch) 0;
#X array clip1 5 float 3;
#A 0 5 7 4 8 5;
#X coords 0 10 5 0 100 40 1 0 0;
#X restore -103 309 graph;
#X obj -112 396 tabwrite clip1;
#X floatatom -112 380 5 0 0 0 - - -;
#X msg -22 396 0;
#X obj -112 431 tabwrite clip1;
#X floatatom -112 415 5 0 0 0 - - -;
#X obj -111 466 tabwrite clip1;
#X floatatom -111 450 5 0 0 0 - - -;
#X obj -111 501 tabwrite clip1;
#X floatatom -111 485 5 0 0 0 - - -;
#X obj -110 536 tabwrite clip1;
#X floatatom -110 520 5 0 0 0 - - -;
#X msg -22 431 1;
#X msg -21 466 2;
#X msg -21 501 3;
#X msg -20 536 4;
#X obj 735 87 random 5;
#X floatatom 735 110 5 0 0 0 - - -;
#X obj 735 67 bng 15 250 50 0 empty empty empty 17 7 0 10 -262144 -1
-1;
#X obj 735 132 tabread clip1;
#X obj 735 154 - 10;
#X obj 735 177 abs;
#X floatatom 735 199 5 0 0 0 - - -;
#X obj 188 235 cnv 15 270 80 empty empty empty 20 12 0 14 -75026 -66577
0;
#X obj 188 166 cnv 15 270 65 empty empty empty 20 12 0 14 -75026 -66577
0;
#X obj 190 174 hradio 9 1 0 24 empty empty empty 0 -8 0 10 -230420
-1 -1 0;
#X obj 190 192 hradio 9 1 0 24 empty empty empty 0 -8 0 10 -231188
-1 -1 0;
#X obj 190 210 hradio 9 1 0 24 empty empty empty 0 -8 0 10 -230420
-1 -1 0;
#X floatatom 410 174 2 0 100 1 /100 - -;
#X floatatom 410 192 2 0 100 1 /100 - -;
#X floatatom 410 210 2 0 100 1 /100 - -;
#X text 334 233 Inner;
#X text 395 232 Outer;
#X floatatom 398 252 3 1 16 1 div - -;
#X floatatom 398 273 3 1 16 1 multi - -;
#X floatatom 398 294 3 -16 16 1 center - -;
#X floatatom 337 254 3 1 16 1 multi - -;
#X floatatom 337 274 3 -16 16 1 center - -;
#X floatatom 190 237 2 0 7 1 stepmax - -;
#X msg 469 -41 100;
#X obj 188 121 cnv 15 270 40 empty empty empty 20 12 0 14 -75026 -66577
0;
#X obj 190 124 hradio 8 1 0 32 empty empty empty 0 -8 0 10 -230420
-1 -1 0;
#X obj 190 133 hradio 8 1 0 32 empty empty empty 0 -8 0 10 -231188
-1 -1 0;
#X floatatom 190 143 2 0 100 1 /100 - -;
#X floatatom 262 143 2 0 100 1 /100 - -;
#X obj 107 320 cnv 15 350 20 empty empty empty 20 12 0 14 -75026 -66577
0;
#X obj 111 325 hradio 10 1 0 32 empty empty empty 0 -8 0 10 -230420
-1 -1 0;
#X obj 896 30 random 100;
#X obj 896 52 < 100;
#X obj 896 73 route 1;
#X obj 896 95 bng 15 250 50 0 empty empty empty 17 7 0 10 -262144 -1
-1;
#X obj 963 -32 mod 16;
#X obj 963 -12 == 0;
#X obj 963 8 route 1;
#X obj 963 30 random 100;
#X obj 963 52 < 100;
#X obj 963 73 route 1;
#X obj 963 95 bng 15 250 50 0 empty empty empty 17 7 0 10 -262144 -1
-1;
#X obj 1030 -32 mod 16;
#X obj 1030 -12 == 0;
#X obj 1030 8 route 1;
#X obj 1030 30 random 100;
#X obj 1030 52 < 100;
#X obj 1030 73 route 1;
#X obj 1030 95 bng 15 250 50 0 empty empty empty 17 7 0 10 -262144
-1 -1;
#X obj 960 252 bng 15 250 50 0 empty empty empty 17 7 0 10 -262144
-1 -1;
#X obj 700 -98 mod 16;
#X obj 700 -78 == 0;
#X obj 700 -58 route 1;
#X obj 700 -36 random 100;
#X obj 700 -16 < 100;
#X obj 700 5 route 1;
#X obj 700 27 bng 15 250 50 0 empty empty empty 17 7 0 10 -262144 -1
-1;
#X obj 439 323 bng 15 250 50 0 empty empty empty 17 7 0 10 -230420
-1 -1;
#X obj 767 -98 mod 16;
#X obj 767 -78 == 0;
#X obj 767 -58 route 1;
#X obj 767 -36 random 100;
#X obj 767 -16 < 100;
#X obj 767 5 route 1;
#X obj 767 27 bng 15 250 50 0 empty empty empty 17 7 0 10 -262144 -1
-1;
#X obj 961 885 outlet;
#X obj 945 -148 inlet;
#X obj 994 -148 r metro;
#X floatatom 337 295 3 4 128 1 mod - -;
#X obj 961 577 mod;
#X floatatom 191 294 5 10 1500 1 length - -;
#X floatatom 191 275 3 0 127 1 vol - -;
#X obj 1295 267 outlet;
#X obj 961 831 makenote;
#X obj 961 853 pack 0 0;
#X floatatom 961 801 5 0 0 0 - - -;
#N canvas 1681 54 1600 846 tonalwrapper 0;
#X obj 845 474 tabread scaler;
#X obj 826 431 mod;
#X floatatom 789 337 5 0 0 0 - - -;
#X obj 937 122 r scale_notes;
#X obj 788 570 +;
#X obj 773 428 /;
#X obj 773 451 int;
#X obj 777 477 *;
#X obj 873 432 r tuning_notes;
#X floatatom 786 598 5 0 0 0 - - -;
#X floatatom 770 395 5 0 0 0 - - -;
#X floatatom 816 395 5 0 0 0 - - -;
#X obj 854 525 bng 15 250 50 0 empty empty empty 17 7 0 10 -262144
-1 -1;
#X obj 779 85 inlet;
#X obj 929 782 outlet;
#X obj 1022 293 spigot 1;
#X obj 927 292 spigot 1;
#X obj 972 271 != 1;
#X obj 984 211 > 9;
#X connect 0 0 4 0;
#X connect 0 0 12 0;
#X connect 1 0 0 0;
#X connect 2 0 10 0;
#X connect 2 0 11 0;
#X connect 3 0 1 1;
#X connect 3 0 5 1;
#X connect 3 0 18 0;
#X connect 4 0 9 0;
#X connect 5 0 6 0;
#X connect 6 0 7 0;
#X connect 7 0 4 1;
#X connect 8 0 7 1;
#X connect 9 0 14 0;
#X connect 10 0 5 0;
#X connect 11 0 1 0;
#X connect 12 0 10 0;
#X connect 13 0 16 0;
#X connect 13 0 15 0;
#X connect 15 0 14 0;
#X connect 16 0 2 0;
#X connect 17 0 16 1;
#X connect 18 0 17 0;
#X connect 18 0 15 1;
#X restore 961 778 pd tonalwrapper;
#X msg 155 8 127;
#X msg 200 9 160;
#X text 240 101 Burst Sequencer;
#X floatatom 190 257 3 0 127 1 base - -;
#X obj 961 724 +;
#X floatatom 234 275 2 0 0 1 sample_offset - -;
#X floatatom 1064 750 5 0 0 0 - - -;
#X obj 1064 882 outlet;
#X obj 1064 828 makenote;
#X obj 1064 850 pack 0 0;
#X floatatom 1064 798 5 0 0 0 - - -;
#N canvas 1681 54 1600 846 tonalwrapper 0;
#X obj 845 474 tabread scaler;
#X obj 826 431 mod;
#X floatatom 789 337 5 0 0 0 - - -;
#X obj 937 122 r scale_notes;
#X obj 788 570 +;
#X obj 773 428 /;
#X obj 773 451 int;
#X obj 777 477 *;
#X obj 873 432 r tuning_notes;
#X floatatom 786 598 5 0 0 0 - - -;
#X floatatom 770 395 5 0 0 0 - - -;
#X floatatom 816 395 5 0 0 0 - - -;
#X obj 854 525 bng 15 250 50 0 empty empty empty 17 7 0 10 -262144
-1 -1;
#X obj 779 85 inlet;
#X obj 929 782 outlet;
#X obj 1022 293 spigot 1;
#X obj 927 292 spigot 1;
#X obj 972 271 != 1;
#X obj 984 211 > 9;
#X connect 0 0 4 0;
#X connect 0 0 12 0;
#X connect 1 0 0 0;
#X connect 2 0 10 0;
#X connect 2 0 11 0;
#X connect 3 0 1 1;
#X connect 3 0 5 1;
#X connect 3 0 18 0;
#X connect 4 0 9 0;
#X connect 5 0 6 0;
#X connect 6 0 7 0;
#X connect 7 0 4 1;
#X connect 8 0 7 1;
#X connect 9 0 14 0;
#X connect 10 0 5 0;
#X connect 11 0 1 0;
#X connect 12 0 10 0;
#X connect 13 0 16 0;
#X connect 13 0 15 0;
#X connect 15 0 14 0;
#X connect 16 0 2 0;
#X connect 17 0 16 1;
#X connect 18 0 17 0;
#X connect 18 0 15 1;
#X restore 1064 775 pd tonalwrapper;
#X obj 1064 720 +;
#X connect 1 0 2 0;
#X connect 1 0 3 0;
#X connect 1 0 6 0;
#X connect 2 0 1 1;
#X connect 3 0 5 1;
#X connect 4 0 8 0;
#X connect 5 0 1 0;
#X connect 6 0 7 0;
#X connect 7 0 13 0;
#X connect 7 0 17 0;
#X connect 8 0 9 0;
#X connect 8 0 10 0;
#X connect 8 0 93 0;
#X connect 8 0 100 0;
#X connect 8 0 108 0;
#X connect 8 0 116 0;
#X connect 9 0 8 1;
#X connect 10 0 11 0;
#X connect 11 0 12 0;
#X connect 12 0 89 0;
#X connect 13 0 14 0;
#X connect 13 0 15 0;
#X connect 14 0 13 1;
#X connect 15 0 24 0;
#X connect 16 0 14 1;
#X connect 17 0 16 0;
#X connect 18 0 20 0;
#X connect 19 0 18 0;
#X connect 20 0 21 0;
#X connect 21 0 22 0;
#X connect 22 0 139 0;
#X connect 22 0 88 0;
#X connect 23 0 134 0;
#X connect 23 0 147 0;
#X connect 24 0 25 0;
#X connect 25 0 26 0;
#X connect 26 0 27 0;
#X connect 27 0 28 0;
#X connect 28 0 127 0;
#X connect 29 0 30 0;
#X connect 29 0 31 0;
#X connect 29 0 32 0;
#X connect 29 0 33 0;
#X connect 29 0 34 0;
#X connect 29 0 35 0;
#X connect 29 0 81 0;
#X connect 29 0 135 0;
#X connect 29 0 136 0;
#X connect 30 0 78 0;
#X connect 31 0 79 0;
#X connect 32 0 75 0;
#X connect 33 0 76 0;
#X connect 34 0 77 0;
#X connect 35 0 80 0;
#X connect 37 0 44 0;
#X connect 38 0 47 0;
#X connect 39 0 49 0;
#X connect 40 0 51 0;
#X connect 41 0 53 0;
#X connect 44 0 43 0;
#X connect 44 0 45 0;
#X connect 45 0 43 1;
#X connect 47 0 46 0;
#X connect 47 0 54 0;
#X connect 49 0 48 0;
#X connect 49 0 55 0;
#X connect 51 0 50 0;
#X connect 51 0 56 0;
#X connect 53 0 52 0;
#X connect 53 0 57 0;
#X connect 54 0 46 1;
#X connect 55 0 48 1;
#X connect 56 0 50 1;
#X connect 57 0 52 1;
#X connect 58 0 59 0;
#X connect 59 0 61 0;
#X connect 60 0 58 0;
#X connect 61 0 62 0;
#X connect 62 0 63 0;
#X connect 63 0 64 0;
#X connect 64 0 1 0;
#X connect 67 0 10 1;
#X connect 68 0 93 1;
#X connect 69 0 100 1;
#X connect 70 0 90 1;
#X connect 71 0 97 1;
#X connect 72 0 104 1;
#X connect 75 0 19 1;
#X connect 76 0 20 1;
#X connect 77 0 21 1;
#X connect 78 0 25 1;
#X connect 79 0 26 1;
#X connect 80 0 17 1;
#X connect 81 0 70 0;
#X connect 81 0 85 0;
#X connect 83 0 108 1;
#X connect 84 0 116 1;
#X connect 85 0 112 1;
#X connect 86 0 120 1;
#X connect 89 0 90 0;
#X connect 90 0 91 0;
#X connect 91 0 92 0;
#X connect 92 0 107 0;
#X connect 93 0 94 0;
#X connect 94 0 95 0;
#X connect 95 0 96 0;
#X connect 96 0 97 0;
#X connect 97 0 98 0;
#X connect 98 0 99 0;
#X connect 99 0 107 0;
#X connect 100 0 101 0;
#X connect 101 0 102 0;
#X connect 102 0 103 0;
#X connect 103 0 104 0;
#X connect 104 0 105 0;
#X connect 105 0 106 0;
#X connect 106 0 107 0;
#X connect 107 0 5 0;
#X connect 107 0 130 0;
#X connect 108 0 109 0;
#X connect 109 0 110 0;
#X connect 110 0 111 0;
#X connect 111 0 112 0;
#X connect 112 0 113 0;
#X connect 113 0 114 0;
#X connect 114 0 60 0;
#X connect 116 0 117 0;
#X connect 117 0 118 0;
#X connect 118 0 119 0;
#X connect 119 0 120 0;
#X connect 120 0 121 0;
#X connect 121 0 122 0;
#X connect 122 0 60 0;
#X connect 124 0 4 0;
#X connect 125 0 4 0;
#X connect 126 0 127 1;
#X connect 127 0 19 0;
#X connect 128 0 131 2;
#X connect 128 0 143 2;
#X connect 129 0 131 1;
#X connect 129 0 143 1;
#X connect 131 0 132 0;
#X connect 131 1 132 1;
#X connect 132 0 123 0;
#X connect 132 0 115 0;
#X connect 133 0 131 0;
#X connect 134 0 133 0;
#X connect 135 0 129 0;
#X connect 136 0 128 0;
#X connect 138 0 139 1;
#X connect 139 0 23 0;
#X connect 140 0 147 1;
#X connect 141 0 146 0;
#X connect 143 0 144 0;
#X connect 143 1 144 1;
#X connect 144 0 142 0;
#X connect 145 0 143 0;
#X connect 146 0 145 0;
#X connect 147 0 141 0;
#X coords 0 -1 1 1 365 250 1 100 100;
#X restore -102 -96 pd burmaburst;
