#N canvas 0 83 1680 967 10;
#N canvas 0 83 1680 967 baliarpg 0;
#X obj 100 100 cnv 15 400 270 empty empty empty 20 12 0 14 -147521
-66577 0;
#X obj -13 -268 int;
#X obj 11 -268 + 1;
#X obj -13 -290 bng 15 250 50 0 empty empty empty 17 7 0 10 -262144
-1 -1;
#X floatatom -13 -243 5 0 0 0 - - -;
#X obj 111 209 vradio 15 1 0 9 empty empty empty 0 -8 0 10 -229633
-1 -1 0;
#X obj -13 -374 mod 16;
#X obj 126 209 vradio 15 1 0 9 empty empty empty 0 -8 0 10 -230145
-1 -1 0;
#X obj 141 209 vradio 15 1 0 9 empty empty empty 0 -8 0 10 -229633
-1 -1 0;
#X obj 156 209 vradio 15 1 0 9 empty empty empty 0 -8 0 10 -230145
-1 -1 0;
#X obj 172 209 vradio 15 1 0 9 empty empty empty 0 -8 0 10 -229633
-1 -1 0;
#X obj 187 209 vradio 15 1 0 9 empty empty empty 0 -8 0 10 -230145
-1 -1 0;
#X obj 202 209 vradio 15 1 0 9 empty empty empty 0 -8 0 10 -229633
-1 -1 0;
#X obj 217 209 vradio 15 1 0 9 empty empty empty 0 -8 0 10 -230145
-1 -1 0;
#X obj -97 -115 sin;
#X obj -97 -91 *;
#X floatatom 147 153 2 0 0 0 - - -;
#X obj -97 -66 +;
#X floatatom 147 170 2 0 0 0 - - -;
#X floatatom -95 -34 5 0 0 0 - - -;
#X obj -95 -13 int;
#X obj -97 -162 /;
#X floatatom 147 119 2 0 0 0 - - -;
#X obj -97 -137 +;
#X floatatom 147 136 3 0 0 0 - - -;
#X obj 14 -119 sin;
#X obj 14 -95 *;
#X floatatom 168 152 2 0 0 0 - - -;
#X obj 14 -70 +;
#X floatatom 169 169 2 0 0 0 - - -;
#X floatatom 16 -38 5 0 0 0 - - -;
#X obj 16 -17 int;
#X obj 14 -166 /;
#X floatatom 167 119 2 0 0 0 - - -;
#X obj 14 -141 +;
#X floatatom 168 136 3 0 0 0 - - -;
#X obj 130 -122 sin;
#X obj 130 -98 *;
#X floatatom 189 152 2 0 0 0 - - -;
#X obj 130 -73 +;
#X floatatom 190 169 2 0 0 0 - - -;
#X floatatom 132 -41 5 0 0 0 - - -;
#X obj 132 -20 int;
#X obj 130 -169 /;
#X floatatom 188 118 2 0 0 0 - - -;
#X obj 130 -144 +;
#X floatatom 189 135 3 0 0 0 - - -;
#X obj 244 -123 sin;
#X obj 244 -99 *;
#X floatatom 211 152 2 0 0 0 - - -;
#X obj 244 -74 +;
#X floatatom 211 169 2 0 0 0 - - -;
#X floatatom 246 -42 5 0 0 0 - - -;
#X obj 246 -21 int;
#X obj 244 -170 /;
#X floatatom 210 118 2 0 0 0 - - -;
#X obj 244 -145 +;
#X floatatom 210 135 3 0 0 0 - - -;
#X obj 366 -122 sin;
#X obj 366 -98 *;
#X floatatom 231 152 2 0 0 0 - - -;
#X obj 366 -73 +;
#X floatatom 231 169 2 0 0 0 - - -;
#X floatatom 366 -49 5 0 0 0 - - -;
#X obj 366 -28 int;
#X obj 366 -169 /;
#X floatatom 231 117 2 0 0 0 - - -;
#X obj 366 -144 +;
#X floatatom 231 134 3 0 0 0 - - -;
#X obj 477 -126 sin;
#X obj 477 -102 *;
#X floatatom 253 152 2 0 0 0 - - -;
#X obj 477 -77 +;
#X floatatom 253 169 2 0 0 0 - - -;
#X floatatom 479 -45 5 0 0 0 - - -;
#X obj 479 -24 int;
#X obj 477 -173 /;
#X floatatom 253 117 2 0 0 0 - - -;
#X obj 477 -148 +;
#X floatatom 253 134 3 0 0 0 - - -;
#X obj 593 -129 sin;
#X obj 593 -105 *;
#X floatatom 274 151 2 0 0 0 - - -;
#X obj 593 -80 +;
#X floatatom 274 168 2 0 0 0 - - -;
#X floatatom 595 -48 5 0 0 0 - - -;
#X obj 595 -27 int;
#X obj 593 -176 /;
#X floatatom 273 117 2 0 0 0 - - -;
#X obj 593 -151 +;
#X floatatom 273 134 3 0 0 0 - - -;
#X obj 707 -130 sin;
#X obj 707 -106 *;
#X floatatom 294 151 2 0 0 0 - - -;
#X obj 707 -81 +;
#X floatatom 294 168 2 0 0 0 - - -;
#X floatatom 709 -49 5 0 0 0 - - -;
#X obj 709 -28 int;
#X obj 707 -177 /;
#X floatatom 294 116 2 0 0 0 - - -;
#X obj 707 -152 +;
#X floatatom 294 134 3 0 0 0 - - -;
#X floatatom 324 120 5 1 16 1 common_speed - -;
#X obj 101 442 tabwrite arpgmatrix;
#X msg 222 442 0;
#X floatatom 101 426 5 0 0 0 - - -;
#X obj 102 476 tabwrite arpgmatrix;
#X floatatom 102 460 5 0 0 0 - - -;
#X obj 103 511 tabwrite arpgmatrix;
#X floatatom 103 495 5 0 0 0 - - -;
#X obj 104 545 tabwrite arpgmatrix;
#X floatatom 104 529 5 0 0 0 - - -;
#X obj 251 441 tabwrite arpgmatrix;
#X floatatom 251 425 5 0 0 0 - - -;
#X obj 252 475 tabwrite arpgmatrix;
#X floatatom 252 459 5 0 0 0 - - -;
#X obj 253 510 tabwrite arpgmatrix;
#X floatatom 253 494 5 0 0 0 - - -;
#X obj 254 544 tabwrite arpgmatrix;
#X floatatom 254 528 5 0 0 0 - - -;
#X msg 223 476 1;
#X msg 224 510 2;
#X msg 225 545 3;
#X msg 372 441 4;
#X msg 373 475 5;
#X msg 374 510 6;
#X msg 375 544 7;
#X floatatom 81 -418 5 0 0 0 - - -;
#X obj 81 -486 int;
#X obj 105 -486 + 1;
#X obj 81 -508 bng 15 250 50 0 empty empty empty 17 7 0 10 -262144
-1 -1;
#X obj -13 -352 == 0;
#X obj -13 -329 route 1;
#X obj -13 -309 bng 15 250 50 0 empty empty empty 17 7 0 10 -262144
-1 -1;
#X obj 81 -443 tabread arpgmatrix;
#X obj 81 -464 mod 8;
#X obj 81 -388 tabwrite graph;
#X floatatom 366 183 3 0 0 1 change_freq - -;
#X msg 41 -424 64;
#X floatatom 324 140 5 1 8 1 common_range - -;
#X floatatom 324 161 5 0 8 1 common_origo - -;
#X obj 240 209 vradio 15 1 0 9 empty empty empty 0 -8 0 10 -233729
-1 -1 4;
#X obj 255 209 vradio 15 1 0 9 empty empty empty 0 -8 0 10 -234049
-1 -1 3;
#X obj 484 -410 - 4;
#X obj 484 -389 abs;
#X floatatom 484 -368 5 0 0 0 - - -;
#X obj 111 195 hradio 10 1 0 16 empty empty empty 0 -8 0 10 -233921
-1 -1 0;
#X text 242 341 O;
#X text 257 341 R;
#X text 271 190 s;
#X text 114 342 1;
#X text 129 342 2;
#X text 145 342 3;
#X text 160 342 4;
#X text 174 342 5;
#X text 188 341 6;
#X text 204 342 7;
#X text 218 342 8;
#X obj 671 -349 + 1;
#X floatatom 270 269 2 0 0 0 - - -;
#X obj 324 -379 + 1;
#X msg 107 -514 0;
#X obj 162 -408 mod 64;
#X text 146 100 1;
#X text 113 121 div;
#X text 106 137 offset;
#X text 108 155 multi;
#X text 108 172 origo;
#X text 167 100 2;
#X text 188 100 3;
#X text 208 100 4;
#X text 232 100 5;
#X text 253 99 6;
#X text 273 100 7;
#X text 295 99 8;
#N canvas 0 0 450 300 (subpatch) 0;
#X array arpgmatrix 8 float 3;
#A 0 5 7 5 6 4 7 2 6;
#X coords 0 8 8 0 100 40 1 0 0;
#X restore 859 -165 graph;
#X obj 290 206 cnv 15 200 140 empty empty empty 20 12 0 14 -258113
-66577 0;
#N canvas 0 0 450 300 (subpatch) 0;
#X array graph 64 float 1;
#A 0 7 2 7 2 6 2 7 7 7 2 7 2 6 2 7 7 7 2 7 2 6 2 7 7 7 2 7 2 6 2 7
7 7 2 7 2 6 2 7 7 7 2 7 2 6 2 7 7 7 2 7 2 6 2 7 7 7 2 7 2 6 2 7 5;
#X coords 0 8 63 0 200 140 1 0 0;
#X restore 289 206 graph;
#X obj 81 -565 inlet;
#X obj 132 -559 r stop;
#X obj 145 -533 bng 15 250 50 0 empty empty empty 17 7 0 10 -262144
-1 -1;
#X obj -24 -516 loadbang;
#X obj 133 -337 tabwrite muisti1;
#X msg 236 -336 0;
#X obj 81 -347 outlet;
#X floatatom 133 -352 5 0 0 0 - - -;
#X connect 1 0 2 0;
#X connect 1 0 4 0;
#X connect 2 0 1 1;
#X connect 3 0 1 0;
#X connect 4 0 21 0;
#X connect 4 0 32 0;
#X connect 4 0 43 0;
#X connect 4 0 54 0;
#X connect 4 0 65 0;
#X connect 4 0 76 0;
#X connect 4 0 87 0;
#X connect 4 0 98 0;
#X connect 5 0 105 0;
#X connect 6 0 131 0;
#X connect 7 0 107 0;
#X connect 8 0 109 0;
#X connect 9 0 111 0;
#X connect 10 0 113 0;
#X connect 11 0 115 0;
#X connect 12 0 117 0;
#X connect 13 0 119 0;
#X connect 14 0 15 0;
#X connect 15 0 17 0;
#X connect 16 0 15 1;
#X connect 17 0 19 0;
#X connect 18 0 17 1;
#X connect 19 0 20 0;
#X connect 20 0 5 0;
#X connect 21 0 23 0;
#X connect 22 0 21 1;
#X connect 23 0 14 0;
#X connect 24 0 23 1;
#X connect 25 0 26 0;
#X connect 26 0 28 0;
#X connect 27 0 26 1;
#X connect 28 0 30 0;
#X connect 29 0 28 1;
#X connect 30 0 31 0;
#X connect 31 0 7 0;
#X connect 32 0 34 0;
#X connect 33 0 32 1;
#X connect 34 0 25 0;
#X connect 35 0 34 1;
#X connect 36 0 37 0;
#X connect 37 0 39 0;
#X connect 38 0 37 1;
#X connect 39 0 41 0;
#X connect 40 0 39 1;
#X connect 41 0 42 0;
#X connect 42 0 8 0;
#X connect 43 0 45 0;
#X connect 44 0 43 1;
#X connect 45 0 36 0;
#X connect 46 0 45 1;
#X connect 47 0 48 0;
#X connect 48 0 50 0;
#X connect 49 0 48 1;
#X connect 50 0 52 0;
#X connect 51 0 50 1;
#X connect 52 0 53 0;
#X connect 53 0 9 0;
#X connect 54 0 56 0;
#X connect 55 0 54 1;
#X connect 56 0 47 0;
#X connect 57 0 56 1;
#X connect 58 0 59 0;
#X connect 59 0 61 0;
#X connect 60 0 59 1;
#X connect 61 0 63 0;
#X connect 62 0 61 1;
#X connect 63 0 64 0;
#X connect 64 0 10 0;
#X connect 65 0 67 0;
#X connect 66 0 65 1;
#X connect 67 0 58 0;
#X connect 68 0 67 1;
#X connect 69 0 70 0;
#X connect 70 0 72 0;
#X connect 71 0 70 1;
#X connect 72 0 74 0;
#X connect 73 0 72 1;
#X connect 74 0 75 0;
#X connect 75 0 11 0;
#X connect 76 0 78 0;
#X connect 77 0 76 1;
#X connect 78 0 69 0;
#X connect 79 0 78 1;
#X connect 80 0 81 0;
#X connect 81 0 83 0;
#X connect 82 0 81 1;
#X connect 83 0 85 0;
#X connect 84 0 83 1;
#X connect 85 0 86 0;
#X connect 86 0 12 0;
#X connect 87 0 89 0;
#X connect 88 0 87 1;
#X connect 89 0 80 0;
#X connect 90 0 89 1;
#X connect 91 0 92 0;
#X connect 92 0 94 0;
#X connect 93 0 92 1;
#X connect 94 0 96 0;
#X connect 95 0 94 1;
#X connect 96 0 97 0;
#X connect 97 0 13 0;
#X connect 98 0 100 0;
#X connect 99 0 98 1;
#X connect 100 0 91 0;
#X connect 101 0 100 1;
#X connect 102 0 22 0;
#X connect 102 0 33 0;
#X connect 102 0 44 0;
#X connect 102 0 55 0;
#X connect 102 0 66 0;
#X connect 102 0 77 0;
#X connect 102 0 88 0;
#X connect 102 0 99 0;
#X connect 104 0 103 1;
#X connect 105 0 103 0;
#X connect 105 0 104 0;
#X connect 107 0 106 0;
#X connect 107 0 120 0;
#X connect 109 0 108 0;
#X connect 109 0 121 0;
#X connect 111 0 110 0;
#X connect 111 0 122 0;
#X connect 113 0 112 0;
#X connect 113 0 123 0;
#X connect 115 0 114 0;
#X connect 115 0 124 0;
#X connect 117 0 116 0;
#X connect 117 0 125 0;
#X connect 119 0 118 0;
#X connect 119 0 126 0;
#X connect 120 0 106 1;
#X connect 121 0 108 1;
#X connect 122 0 110 1;
#X connect 123 0 112 1;
#X connect 124 0 114 1;
#X connect 125 0 116 1;
#X connect 126 0 118 1;
#X connect 127 0 136 0;
#X connect 127 0 184 0;
#X connect 127 0 185 0;
#X connect 128 0 129 0;
#X connect 128 0 6 0;
#X connect 128 0 135 0;
#X connect 128 0 162 0;
#X connect 129 0 128 1;
#X connect 130 0 128 0;
#X connect 131 0 132 0;
#X connect 132 0 133 0;
#X connect 133 0 3 0;
#X connect 134 0 127 0;
#X connect 135 0 134 0;
#X connect 137 0 6 1;
#X connect 138 0 137 0;
#X connect 139 0 93 0;
#X connect 139 0 82 0;
#X connect 139 0 71 0;
#X connect 139 0 60 0;
#X connect 139 0 49 0;
#X connect 139 0 38 0;
#X connect 139 0 27 0;
#X connect 139 0 16 0;
#X connect 140 0 95 0;
#X connect 140 0 84 0;
#X connect 140 0 73 0;
#X connect 140 0 62 0;
#X connect 140 0 51 0;
#X connect 140 0 40 0;
#X connect 140 0 29 0;
#X connect 140 0 18 0;
#X connect 141 0 158 0;
#X connect 142 0 143 0;
#X connect 143 0 144 0;
#X connect 144 0 145 0;
#X connect 145 0 139 0;
#X connect 146 0 160 0;
#X connect 158 0 140 0;
#X connect 160 0 102 0;
#X connect 161 0 128 0;
#X connect 162 0 136 1;
#X connect 178 0 130 0;
#X connect 179 0 180 0;
#X connect 180 0 161 0;
#X connect 181 0 138 0;
#X connect 183 0 182 1;
#X connect 185 0 182 0;
#X connect 185 0 183 0;
#X coords 0 -1 1 1 400 270 1 100 100;
#X restore 547 -183 pd baliarpg;
