#N canvas 1 111 165 166 10;
#N canvas 0 83 1680 967 sequential 0;
#X obj 100 101 cnv 15 150 150 empty empty empty 20 12 0 14 -158081
-66577 0;
#X obj 3 176 s cube1toggle;
#X obj -7 227 s cube2toggle;
#X obj -1 281 s trigentoggle;
#X obj 161 131 tgl 15 0 empty empty cube1 17 7 0 10 -262144 -1 -1 0
1;
#X obj 161 154 tgl 15 0 empty empty cube2 17 7 0 10 -262144 -1 -1 0
1;
#X obj 161 174 tgl 15 0 empty empty trigen 17 7 0 10 -262144 -1 -1
0 1;
#X obj 161 196 tgl 15 0 empty empty phrase 17 7 0 10 -262144 -1 -1
0 1;
#X floatatom 114 130 3 1 128 1 - - -;
#X text 113 108 Mod;
#X obj 982 -96 r metro;
#X obj 982 -49 int;
#X obj 1009 -49 + 1;
#X obj 982 -72 bng 15 250 50 0 empty empty empty 17 7 0 10 -262144
-1 -1;
#X obj 889 29 mod;
#X obj 889 55 == 0;
#X obj 889 81 route 1;
#X obj 889 101 random;
#X floatatom 140 130 2 1 5 1 - - -;
#X floatatom 113 152 3 1 128 1 - - -;
#X floatatom 139 152 2 1 5 1 - - -;
#X floatatom 113 173 3 1 128 1 - - -;
#X floatatom 139 173 2 1 5 1 - - -;
#X obj 941 29 mod;
#X obj 941 55 == 0;
#X obj 941 81 route 1;
#X obj 941 101 random;
#X obj 994 26 mod;
#X obj 994 52 == 0;
#X obj 994 78 route 1;
#X obj 994 98 random;
#X obj 1052 22 mod;
#X obj 1052 48 == 0;
#X obj 1052 74 route 1;
#X obj 1052 94 random;
#X floatatom 113 195 3 1 128 1 - - -;
#X floatatom 139 195 2 1 5 1 - - -;
#X text 140 108 R;
#X text 157 105 Toggle;
#X obj 605 -153 * 4;
#X obj 605 -132 * 4;
#X obj 604 -112 * 4;
#X obj 605 -92 * 4;
#X obj 1108 29 mod;
#X obj 1108 55 == 0;
#X obj 1108 81 route 1;
#X obj 1108 101 random;
#X obj 162 219 tgl 15 0 empty empty hat 17 7 0 10 -262144 -1 -1 0 1
;
#X floatatom 114 218 3 1 128 1 - - -;
#X floatatom 140 218 2 1 5 1 - - -;
#X obj 607 -65 * 4;
#X obj -16 337 s phrasetoggle;
#X obj 2 378 s hatttoggle;
#X obj 1108 124 != 0;
#X obj 1052 117 != 0;
#X obj 994 121 != 0;
#X obj 941 124 != 0;
#X obj 889 124 != 0;
#X connect 4 0 1 0;
#X connect 5 0 2 0;
#X connect 6 0 3 0;
#X connect 7 0 51 0;
#X connect 8 0 39 0;
#X connect 10 0 13 0;
#X connect 11 0 12 0;
#X connect 11 0 14 0;
#X connect 11 0 23 0;
#X connect 11 0 27 0;
#X connect 11 0 31 0;
#X connect 11 0 43 0;
#X connect 12 0 11 1;
#X connect 13 0 11 0;
#X connect 14 0 15 0;
#X connect 15 0 16 0;
#X connect 16 0 17 0;
#X connect 17 0 57 0;
#X connect 18 0 17 1;
#X connect 19 0 40 0;
#X connect 20 0 26 1;
#X connect 21 0 41 0;
#X connect 22 0 30 1;
#X connect 23 0 24 0;
#X connect 24 0 25 0;
#X connect 25 0 26 0;
#X connect 26 0 56 0;
#X connect 27 0 28 0;
#X connect 28 0 29 0;
#X connect 29 0 30 0;
#X connect 30 0 55 0;
#X connect 31 0 32 0;
#X connect 32 0 33 0;
#X connect 33 0 34 0;
#X connect 34 0 54 0;
#X connect 35 0 42 0;
#X connect 36 0 34 1;
#X connect 39 0 14 1;
#X connect 40 0 23 1;
#X connect 41 0 27 1;
#X connect 42 0 31 1;
#X connect 43 0 44 0;
#X connect 44 0 45 0;
#X connect 45 0 46 0;
#X connect 46 0 53 0;
#X connect 47 0 52 0;
#X connect 48 0 50 0;
#X connect 49 0 46 1;
#X connect 50 0 43 1;
#X connect 53 0 47 0;
#X connect 54 0 7 0;
#X connect 55 0 6 0;
#X connect 56 0 5 0;
#X connect 57 0 4 0;
#X coords 0 -1 1 1 150 150 1 100 100;
#X restore -102 -144 pd sequential;
