#N canvas 1 83 717 398 10;
#N canvas 0 83 1680 967 fractalseq 0;
#X obj 101 100 cnv 15 700 380 empty empty empty 20 12 0 14 -83269 -66577
0;
#X obj 111 107 cnv 15 75 230 empty empty empty 20 12 0 14 -164997 -66577
0;
#X obj 191 107 cnv 15 75 230 empty empty empty 20 12 0 14 -164997 -66577
0;
#X obj 272 106 cnv 15 75 230 empty empty empty 20 12 0 14 -164997 -66577
0;
#X obj 353 106 cnv 15 75 230 empty empty empty 20 12 0 14 -164997 -66577
0;
#X obj 434 106 cnv 15 75 230 empty empty empty 20 12 0 14 -164997 -66577
0;
#X obj 516 105 cnv 15 275 90 empty empty empty 20 12 0 14 -185681 -66577
0;
#X obj 516 200 cnv 15 275 135 empty empty empty 20 12 0 14 -185809
-66577 0;
#N canvas 0 0 450 300 (subpatch) 0;
#X array theme 16 float 3;
#A 0 2.39996 5.59996 8.19997 4.99996 6.99997 3.79996 6.79997 10.4 8.99997
7.59997 4.59997 2.79996 8.99997 6.19997 4.19997 2.59997;
#X coords 0 15 16 0 270 75 1 0 0;
#X restore 519 118 graph;
#X text 136 105 R1;
#X text 218 107 R2;
#X text 303 106 R3;
#X text 383 105 R4;
#X text 464 105 R5;
#X obj 125 136 vsl 15 128 0 5 0 0 empty empty mul 0 -9 0 10 -260097
-1 -1 2540 1;
#X obj 154 136 vsl 15 128 0 8 0 0 empty empty mod 0 -9 0 10 -259649
-1 -1 5637 1;
#X floatatom 125 269 4 0 0 0 - - -;
#X floatatom 154 269 2 0 0 0 - - -;
#X obj 146 61 int;
#X obj 123 287 bng 15 250 50 0 empty empty empty 17 7 0 10 -259521
-1 -1;
#X msg 123 47 1;
#X obj 204 137 vsl 15 128 0 5 0 0 empty empty mul 0 -9 0 10 -260097
-1 -1 2540 1;
#X obj 233 137 vsl 15 128 0 8 0 0 empty empty mod 0 -9 0 10 -259649
-1 -1 9237 1;
#X floatatom 204 270 4 0 0 0 - - -;
#X floatatom 233 270 2 0 0 0 - - -;
#X obj 225 62 int;
#X obj 202 288 bng 15 250 50 0 empty empty empty 17 7 0 10 -259521
-1 -1;
#X msg 202 48 1;
#X obj 287 137 vsl 15 128 0 5 0 0 empty empty mul 0 -9 0 10 -260097
-1 -1 3140 1;
#X obj 316 137 vsl 15 128 0 8 0 0 empty empty mod 0 -9 0 10 -259649
-1 -1 5537 1;
#X floatatom 287 270 4 0 0 0 - - -;
#X floatatom 316 270 2 0 0 0 - - -;
#X obj 308 62 int;
#X obj 285 288 bng 15 250 50 0 empty empty empty 17 7 0 10 -259521
-1 -1;
#X msg 285 48 1;
#X obj 368 137 vsl 15 128 0 5 0 0 empty empty mul 0 -9 0 10 -260097
-1 -1 2540 1;
#X obj 397 137 vsl 15 128 0 8 0 0 empty empty mod 0 -9 0 10 -259649
-1 -1 9137 1;
#X floatatom 368 270 4 0 0 0 - - -;
#X floatatom 397 270 2 0 0 0 - - -;
#X obj 389 62 int;
#X obj 366 288 bng 15 250 50 0 empty empty empty 17 7 0 10 -259521
-1 -1;
#X msg 366 48 1;
#X obj 448 136 vsl 15 128 0 5 0 0 empty empty mul 0 -9 0 10 -260097
-1 -1 2540 1;
#X obj 477 136 vsl 15 128 0 8 0 0 empty empty mod 0 -9 0 10 -259649
-1 -1 8737 1;
#X floatatom 448 269 4 0 0 0 - - -;
#X floatatom 477 269 2 0 0 0 - - -;
#X obj 469 61 int;
#X obj 446 287 bng 15 250 50 0 empty empty empty 17 7 0 10 -259521
-1 -1;
#X msg 446 47 1;
#X msg -11 113 5;
#X obj 9 8 loadbang;
#X text 595 101 FRACTAL SEQUENCER;
#X obj -877 118 bng 15 250 50 0 empty empty empty 17 7 0 10 -262144
-1 -1;
#X obj -877 141 int;
#X obj -849 141 + 1;
#X obj -877 183 mod;
#X floatatom -835 167 2 1 16 1 r4_mod - -;
#X obj -877 207 == 0;
#X obj -877 229 route 1;
#X obj -877 253 bng 15 250 50 0 empty empty empty 17 7 0 10 -262144
-1 -1;
#X obj -812 268 int;
#X obj -784 268 + 1;
#X obj -812 310 mod;
#X floatatom -770 294 2 1 16 1 r3_mod - -;
#X obj -812 334 == 0;
#X obj -812 356 route 1;
#X obj -812 380 bng 15 250 50 0 empty empty empty 17 7 0 10 -262144
-1 -1;
#X obj -752 395 int;
#X obj -724 395 + 1;
#X obj -752 437 mod;
#X floatatom -710 421 2 1 16 1 r2_mod - -;
#X obj -752 461 == 0;
#X obj -752 483 route 1;
#X obj -752 507 bng 15 250 50 0 empty empty empty 17 7 0 10 -262144
-1 -1;
#X obj -654 522 int;
#X obj -626 522 + 1;
#X obj -528 539 mod 16;
#X floatatom -528 589 5 0 0 0 - - -;
#X obj -649 412 mod 16;
#X floatatom -649 462 5 0 0 0 - - -;
#X obj -687 285 mod 16;
#X floatatom -687 335 5 0 0 0 - - -;
#X obj -765 158 mod 16;
#X floatatom -765 208 5 0 0 0 - - -;
#X obj -654 562 mod;
#X floatatom -612 546 2 1 16 1 r1_mod - -;
#X obj -654 586 == 0;
#X obj -654 608 route 1;
#X obj -654 632 bng 15 250 50 0 empty empty empty 17 7 0 10 -262144
-1 -1;
#X obj -584 647 int;
#X obj -556 647 + 1;
#X obj -489 664 mod 16;
#X floatatom -489 714 5 0 0 0 - - -;
#X msg -637 27 0;
#X floatatom -400 66 5 0 0 0 - - -;
#X obj -360 368 +;
#X obj -361 495 +;
#X obj -361 639 +;
#X obj -361 730 +;
#X floatatom -361 790 5 0 0 0 - - -;
#X obj 81 887 tabwrite muisti1;
#X msg 186 888 0;
#X floatatom 81 858 5 0 0 0 - - -;
#X obj -877 84 r metro;
#X msg -382 39 5;
#X msg -304 785 20;
#X obj -510 478 *;
#X floatatom -495 458 2 0 0 1 r3_multi - -;
#X obj -661 224 *;
#X floatatom -646 202 2 0 0 1 r5_multi - -;
#X obj -489 737 *;
#X floatatom -436 712 2 0 0 1 r1_multi - -;
#X obj -482 622 *;
#X floatatom -459 598 2 0 0 1 r2_multi - -;
#X obj -527 351 *;
#X floatatom -502 326 2 0 0 1 r4_multi - -;
#X obj -765 183 tabread theme;
#X obj -687 310 tabread theme;
#X obj -649 437 tabread theme;
#X obj -528 564 tabread theme;
#X obj -489 689 tabread theme;
#X obj 111 342 cnv 15 500 30 empty empty empty 20 12 0 14 -165189 -66577
0;
#X obj 136 347 tgl 17 0 empty empty add 17 7 0 10 -259393 -1 -1 1 1
;
#X obj 217 347 tgl 17 0 empty empty add 17 7 0 10 -259393 -1 -1 1 1
;
#X obj 294 347 tgl 17 0 empty empty add 17 7 0 10 -259393 -1 -1 0 1
;
#X obj 375 347 tgl 17 0 empty empty add 17 7 0 10 -259393 -1 -1 1 1
;
#X obj 459 347 tgl 17 0 empty empty add 17 7 0 10 -259393 -1 -1 1 1
;
#X text 511 346 seed1;
#X floatatom 551 349 3 0 0 1 offset - -;
#X obj 111 375 cnv 15 500 30 empty empty empty 20 12 0 14 -165189 -66577
0;
#X obj 136 380 tgl 17 0 empty empty add 17 7 0 10 -259393 -1 -1 0 1
;
#X obj 217 380 tgl 17 0 empty empty add 17 7 0 10 -259393 -1 -1 1 1
;
#X obj 294 380 tgl 17 0 empty empty add 17 7 0 10 -259393 -1 -1 1 1
;
#X obj 375 380 tgl 17 0 empty empty add 17 7 0 10 -259393 -1 -1 0 1
;
#X obj 459 380 tgl 17 0 empty empty add 17 7 0 10 -259393 -1 -1 1 1
;
#X text 511 379 seed1;
#X floatatom 551 382 3 0 0 1 offset - -;
#X obj 111 408 cnv 15 500 30 empty empty empty 20 12 0 14 -165189 -66577
0;
#X obj 135 413 tgl 17 0 empty empty add 17 7 0 10 -259393 -1 -1 1 1
;
#X obj 216 413 tgl 17 0 empty empty add 17 7 0 10 -259393 -1 -1 0 1
;
#X obj 293 413 tgl 17 0 empty empty add 17 7 0 10 -259393 -1 -1 1 1
;
#X obj 374 413 tgl 17 0 empty empty add 17 7 0 10 -259393 -1 -1 0 1
;
#X obj 458 413 tgl 17 0 empty empty add 17 7 0 10 -259393 -1 -1 1 1
;
#X text 510 412 seed1;
#X floatatom 550 415 3 0 0 1 offset - -;
#X text 137 311 FAR;
#X text 458 310 NEAR;
#N canvas 0 83 1680 967 addmatrix 0;
#X obj 299 73 inlet;
#X obj 339 74 inlet;
#X obj 381 75 inlet;
#X obj 421 75 inlet;
#X obj 462 75 inlet;
#X obj 765 71 inlet;
#X obj 805 72 inlet;
#X obj 847 73 inlet;
#X obj 887 73 inlet;
#X obj 928 73 inlet;
#X text 390 42 feeds;
#X text 844 45 gates;
#X obj 766 93 tgl 15 0 empty empty empty 17 7 0 10 -262144 -1 -1 1
1;
#X obj 805 97 tgl 15 0 empty empty empty 17 7 0 10 -262144 -1 -1 1
1;
#X obj 848 95 tgl 15 0 empty empty empty 17 7 0 10 -262144 -1 -1 0
1;
#X obj 887 99 tgl 15 0 empty empty empty 17 7 0 10 -262144 -1 -1 1
1;
#X obj 931 99 tgl 15 0 empty empty empty 17 7 0 10 -262144 -1 -1 1
1;
#X floatatom 301 104 5 0 0 0 - - -;
#X floatatom 340 99 5 0 0 0 - - -;
#X floatatom 382 101 5 0 0 0 - - -;
#X floatatom 424 100 5 0 0 0 - - -;
#X floatatom 464 100 5 0 0 0 - - -;
#X obj 520 404 spigot;
#X obj 570 404 spigot;
#X obj 603 381 == 0;
#X msg 570 375 0;
#X floatatom 552 452 5 0 0 0 - - -;
#X obj 389 404 spigot;
#X obj 439 404 spigot;
#X obj 472 381 == 0;
#X msg 439 375 0;
#X floatatom 421 452 5 0 0 0 - - -;
#X obj 253 401 spigot;
#X obj 303 401 spigot;
#X obj 336 378 == 0;
#X msg 303 372 0;
#X floatatom 285 449 5 0 0 0 - - -;
#X obj 133 395 spigot;
#X obj 183 395 spigot;
#X obj 216 372 == 0;
#X msg 183 366 0;
#X floatatom 165 443 5 0 0 0 - - -;
#X obj 9 389 spigot;
#X obj 59 389 spigot;
#X obj 92 366 == 0;
#X msg 59 360 0;
#X floatatom 41 437 5 0 0 0 - - -;
#X obj 485 560 +;
#X obj 399 636 +;
#X obj 288 718 +;
#X obj 182 772 +;
#X floatatom 180 816 5 0 0 1 sum - -;
#X obj 175 874 outlet;
#X connect 0 0 17 0;
#X connect 1 0 18 0;
#X connect 2 0 19 0;
#X connect 3 0 20 0;
#X connect 4 0 21 0;
#X connect 5 0 12 0;
#X connect 6 0 13 0;
#X connect 7 0 14 0;
#X connect 8 0 15 0;
#X connect 9 0 16 0;
#X connect 12 0 44 0;
#X connect 12 0 42 1;
#X connect 13 0 39 0;
#X connect 13 0 37 1;
#X connect 14 0 34 0;
#X connect 14 0 32 1;
#X connect 15 0 27 1;
#X connect 15 0 29 0;
#X connect 16 0 22 1;
#X connect 16 0 24 0;
#X connect 17 0 42 0;
#X connect 17 0 45 0;
#X connect 18 0 37 0;
#X connect 18 0 40 0;
#X connect 19 0 32 0;
#X connect 19 0 35 0;
#X connect 20 0 27 0;
#X connect 20 0 30 0;
#X connect 21 0 22 0;
#X connect 21 0 25 0;
#X connect 22 0 26 0;
#X connect 23 0 26 0;
#X connect 24 0 23 1;
#X connect 25 0 23 0;
#X connect 26 0 47 0;
#X connect 27 0 31 0;
#X connect 28 0 31 0;
#X connect 29 0 28 1;
#X connect 30 0 28 0;
#X connect 31 0 47 1;
#X connect 32 0 36 0;
#X connect 33 0 36 0;
#X connect 34 0 33 1;
#X connect 35 0 33 0;
#X connect 36 0 48 1;
#X connect 37 0 41 0;
#X connect 38 0 41 0;
#X connect 39 0 38 1;
#X connect 40 0 38 0;
#X connect 41 0 49 1;
#X connect 42 0 46 0;
#X connect 43 0 46 0;
#X connect 44 0 43 1;
#X connect 45 0 43 0;
#X connect 46 0 50 1;
#X connect 47 0 48 0;
#X connect 48 0 49 0;
#X connect 49 0 50 0;
#X connect 50 0 51 0;
#X connect 51 0 52 0;
#X coords 0 0 1 1 85 60 0;
#X restore 81 787 pd addmatrix -------------------;
#X floatatom -306 242 5 0 0 0 - - -;
#X floatatom -210 367 5 0 0 0 - - -;
#X floatatom -127 495 5 0 0 0 - - -;
#X floatatom -63 639 5 0 0 0 - - -;
#X floatatom -72 742 5 0 0 0 - - -;
#X floatatom 81 831 5 0 0 0 - - -;
#X msg -67 175 0;
#X obj 81 809 +;
#N canvas 0 0 450 300 (subpatch) 0;
#X array seed1graph 100 float 3;
#A 0 16.7999 13.7999 11.9999 18.1999 13.9999 11.9999 10.3999 10.1999
13.3999 12.9999 9.79986 11.7999 8.59986 11.5999 13.3999 11.9999 10.5999
7.59986 5.79986 18.1999 15.3999 13.3999 11.7999 11.5999 11.9999 14.5999
11.3999 13.3999 10.1999 11.1999 14.7999 13.3999 11.9999 8.99986 5.59986
11.7999 8.99987 6.99986 5.39986 4.99985 8.19986 10.7999 7.59986 9.59986
9.59986 12.5999 16.1999 14.7999 13.3999 10.9999 9.19986 15.3999 12.5999
10.5999 5.79986 5.59985 8.79986 11.3999 8.19986 12.1999 8.99986 11.9999
15.5999 14.1999 9.59986 6.59986 4.79986 10.9999 8.19986 9.19986 7.59986
7.39986 10.5999 13.1999 13.5999 15.5999 12.3999 15.3999 18.9999 16.1999
14.7999 11.7999 9.99986 16.1999 11.9999 9.99986 8.39986 8.19986 11.3999
11.1999 9.59986 9.39986 12.5999 15.1999 15.5999 17.5999 14.3999 17.3999
20.9999 18.1999;
#X coords 0 100 100 0 270 30 1 0 0;
#X restore 518 210 graph;
#N canvas 0 0 450 300 (subpatch) 0;
#X array seed2graph 100 float 3;
#A 0 15.9369 12.9369 11.1369 17.3369 10.581 8.58099 6.98099 6.78098
9.98099 12.581 9.38099 11.381 8.18099 11.181 14.781 13.381 11.981 8.98099
7.18099 15.8534 13.0534 11.0534 9.45343 9.25343 12.4534 15.0534 11.8534
13.8534 10.6534 13.6534 17.2534 15.8534 14.4534 11.4534 5.69752 11.8975
9.09753 7.09752 5.49752 5.29752 8.49752 11.0975 7.89752 9.89752 6.69752
9.69753 13.2975 11.8975 10.4975 9.20619 7.40619 13.6062 10.8062 8.80619
7.20619 7.00618 10.2062 12.8062 9.60619 11.6062 8.40619 11.4062 15.0062
13.6062 16.6566 13.6566 11.8566 18.0566 15.2566 13.2566 11.6566 11.4566
14.6566 17.2566 14.0566 16.0566 12.8566 15.8566 19.4566 16.3259 14.9259
11.9259 10.1259 16.3259 13.5259 11.5259 9.92587 9.72587 12.9259 12.5369
10.9369 10.7369 13.9369 16.5369 13.3369 15.3369 12.1369 15.1369 18.7369
17.3369;
#X coords 0 100 100 0 270 30 1 0 0;
#X restore 518 252 graph;
#N canvas 0 0 450 300 (subpatch) 0;
#X array seed3graph 100 float 3;
#A 0 17.7369 14.7369 12.9369 19.1369 12.381 10.381 8.78099 8.58098
11.781 14.381 11.181 13.181 9.98098 12.981 16.581 15.181 13.781 10.781
8.98099 17.6534 14.8534 12.8534 11.2534 11.0534 14.2534 16.8534 13.6534
15.6534 12.4534 15.4534 19.0534 17.6534 16.2534 13.2534 7.49752 13.6975
10.8975 8.89752 7.29752 7.09752 10.2975 12.8975 9.69752 11.6975 8.49752
11.4975 15.0975 13.6975 12.2975 13.0062 11.2062 17.4062 14.6062 12.6062
11.0062 10.8062 14.0062 16.6062 13.4062 15.4062 12.2062 15.2062 18.8062
17.4062 20.4566 17.4566 15.6566 21.8566 19.0566 17.0566 15.4566 15.2566
18.4566 21.0566 17.8566 19.8566 16.6566 19.6566 23.2566 20.1259 18.7259
15.7259 13.9259 20.1259 17.3259 15.3259 13.7259 13.5259 16.7259 14.3369
12.7369 12.5369 15.7369 18.3369 15.1369 17.1369 13.9369 16.9369 20.5369
19.1369;
#X coords 0 100 100 0 270 30 1 0 0;
#X restore 519 293 graph;
#X obj -85 847 tabwrite seed1graph;
#X obj 26 826 mod 100;
#X floatatom -341 689 5 0 0 0 - - -;
#X msg 395 1057 0;
#X floatatom 290 1027 5 0 0 0 - - -;
#N canvas 0 83 1680 967 addmatrix 0;
#X obj 299 73 inlet;
#X obj 339 74 inlet;
#X obj 381 75 inlet;
#X obj 421 75 inlet;
#X obj 462 75 inlet;
#X obj 765 71 inlet;
#X obj 805 72 inlet;
#X obj 847 73 inlet;
#X obj 887 73 inlet;
#X obj 928 73 inlet;
#X text 390 42 feeds;
#X text 844 45 gates;
#X obj 766 93 tgl 15 0 empty empty empty 17 7 0 10 -262144 -1 -1 0
1;
#X obj 805 97 tgl 15 0 empty empty empty 17 7 0 10 -262144 -1 -1 1
1;
#X obj 848 95 tgl 15 0 empty empty empty 17 7 0 10 -262144 -1 -1 1
1;
#X obj 887 99 tgl 15 0 empty empty empty 17 7 0 10 -262144 -1 -1 0
1;
#X obj 931 99 tgl 15 0 empty empty empty 17 7 0 10 -262144 -1 -1 1
1;
#X floatatom 301 104 5 0 0 0 - - -;
#X floatatom 340 99 5 0 0 0 - - -;
#X floatatom 382 101 5 0 0 0 - - -;
#X floatatom 424 100 5 0 0 0 - - -;
#X floatatom 464 100 5 0 0 0 - - -;
#X obj 520 404 spigot;
#X obj 570 404 spigot;
#X obj 603 381 == 0;
#X msg 570 375 0;
#X floatatom 552 452 5 0 0 0 - - -;
#X obj 389 404 spigot;
#X obj 439 404 spigot;
#X obj 472 381 == 0;
#X msg 439 375 0;
#X floatatom 421 452 5 0 0 0 - - -;
#X obj 253 401 spigot;
#X obj 303 401 spigot;
#X obj 336 378 == 0;
#X msg 303 372 0;
#X floatatom 285 449 5 0 0 0 - - -;
#X obj 133 395 spigot;
#X obj 183 395 spigot;
#X obj 216 372 == 0;
#X msg 183 366 0;
#X floatatom 165 443 5 0 0 0 - - -;
#X obj 9 389 spigot;
#X obj 59 389 spigot;
#X obj 92 366 == 0;
#X msg 59 360 0;
#X floatatom 41 437 5 0 0 0 - - -;
#X obj 485 560 +;
#X obj 399 636 +;
#X obj 288 718 +;
#X obj 182 772 +;
#X floatatom 180 816 5 0 0 1 sum - -;
#X obj 175 874 outlet;
#X connect 0 0 17 0;
#X connect 1 0 18 0;
#X connect 2 0 19 0;
#X connect 3 0 20 0;
#X connect 4 0 21 0;
#X connect 5 0 12 0;
#X connect 6 0 13 0;
#X connect 7 0 14 0;
#X connect 8 0 15 0;
#X connect 9 0 16 0;
#X connect 12 0 44 0;
#X connect 12 0 42 1;
#X connect 13 0 39 0;
#X connect 13 0 37 1;
#X connect 14 0 34 0;
#X connect 14 0 32 1;
#X connect 15 0 27 1;
#X connect 15 0 29 0;
#X connect 16 0 22 1;
#X connect 16 0 24 0;
#X connect 17 0 42 0;
#X connect 17 0 45 0;
#X connect 18 0 37 0;
#X connect 18 0 40 0;
#X connect 19 0 32 0;
#X connect 19 0 35 0;
#X connect 20 0 27 0;
#X connect 20 0 30 0;
#X connect 21 0 22 0;
#X connect 21 0 25 0;
#X connect 22 0 26 0;
#X connect 23 0 26 0;
#X connect 24 0 23 1;
#X connect 25 0 23 0;
#X connect 26 0 47 0;
#X connect 27 0 31 0;
#X connect 28 0 31 0;
#X connect 29 0 28 1;
#X connect 30 0 28 0;
#X connect 31 0 47 1;
#X connect 32 0 36 0;
#X connect 33 0 36 0;
#X connect 34 0 33 1;
#X connect 35 0 33 0;
#X connect 36 0 48 1;
#X connect 37 0 41 0;
#X connect 38 0 41 0;
#X connect 39 0 38 1;
#X connect 40 0 38 0;
#X connect 41 0 49 1;
#X connect 42 0 46 0;
#X connect 43 0 46 0;
#X connect 44 0 43 1;
#X connect 45 0 43 0;
#X connect 46 0 50 1;
#X connect 47 0 48 0;
#X connect 48 0 49 0;
#X connect 49 0 50 0;
#X connect 50 0 51 0;
#X connect 51 0 52 0;
#X coords 0 0 1 1 85 60 0;
#X restore 290 956 pd addmatrix -------------------;
#X floatatom 290 1000 5 0 0 0 - - -;
#X obj 290 978 +;
#X obj 235 995 mod 100;
#X obj 124 1016 tabwrite seed2graph;
#X obj 291 1056 tabwrite muisti2;
#X msg 2 1058 0;
#X floatatom -103 1028 5 0 0 0 - - -;
#N canvas 0 83 1680 967 addmatrix 0;
#X obj 299 73 inlet;
#X obj 339 74 inlet;
#X obj 381 75 inlet;
#X obj 421 75 inlet;
#X obj 462 75 inlet;
#X obj 765 71 inlet;
#X obj 805 72 inlet;
#X obj 847 73 inlet;
#X obj 887 73 inlet;
#X obj 928 73 inlet;
#X text 390 42 feeds;
#X text 844 45 gates;
#X obj 766 93 tgl 15 0 empty empty empty 17 7 0 10 -262144 -1 -1 1
1;
#X obj 805 97 tgl 15 0 empty empty empty 17 7 0 10 -262144 -1 -1 0
1;
#X obj 848 95 tgl 15 0 empty empty empty 17 7 0 10 -262144 -1 -1 1
1;
#X obj 887 99 tgl 15 0 empty empty empty 17 7 0 10 -262144 -1 -1 0
1;
#X obj 931 99 tgl 15 0 empty empty empty 17 7 0 10 -262144 -1 -1 1
1;
#X floatatom 301 104 5 0 0 0 - - -;
#X floatatom 340 99 5 0 0 0 - - -;
#X floatatom 382 101 5 0 0 0 - - -;
#X floatatom 424 100 5 0 0 0 - - -;
#X floatatom 464 100 5 0 0 0 - - -;
#X obj 520 404 spigot;
#X obj 570 404 spigot;
#X obj 603 381 == 0;
#X msg 570 375 0;
#X floatatom 552 452 5 0 0 0 - - -;
#X obj 389 404 spigot;
#X obj 439 404 spigot;
#X obj 472 381 == 0;
#X msg 439 375 0;
#X floatatom 421 452 5 0 0 0 - - -;
#X obj 253 401 spigot;
#X obj 303 401 spigot;
#X obj 336 378 == 0;
#X msg 303 372 0;
#X floatatom 285 449 5 0 0 0 - - -;
#X obj 133 395 spigot;
#X obj 183 395 spigot;
#X obj 216 372 == 0;
#X msg 183 366 0;
#X floatatom 165 443 5 0 0 0 - - -;
#X obj 9 389 spigot;
#X obj 59 389 spigot;
#X obj 92 366 == 0;
#X msg 59 360 0;
#X floatatom 41 437 5 0 0 0 - - -;
#X obj 485 560 +;
#X obj 399 636 +;
#X obj 288 718 +;
#X obj 182 772 +;
#X floatatom 180 816 5 0 0 1 sum - -;
#X obj 175 874 outlet;
#X connect 0 0 17 0;
#X connect 1 0 18 0;
#X connect 2 0 19 0;
#X connect 3 0 20 0;
#X connect 4 0 21 0;
#X connect 5 0 12 0;
#X connect 6 0 13 0;
#X connect 7 0 14 0;
#X connect 8 0 15 0;
#X connect 9 0 16 0;
#X connect 12 0 44 0;
#X connect 12 0 42 1;
#X connect 13 0 39 0;
#X connect 13 0 37 1;
#X connect 14 0 34 0;
#X connect 14 0 32 1;
#X connect 15 0 27 1;
#X connect 15 0 29 0;
#X connect 16 0 22 1;
#X connect 16 0 24 0;
#X connect 17 0 42 0;
#X connect 17 0 45 0;
#X connect 18 0 37 0;
#X connect 18 0 40 0;
#X connect 19 0 32 0;
#X connect 19 0 35 0;
#X connect 20 0 27 0;
#X connect 20 0 30 0;
#X connect 21 0 22 0;
#X connect 21 0 25 0;
#X connect 22 0 26 0;
#X connect 23 0 26 0;
#X connect 24 0 23 1;
#X connect 25 0 23 0;
#X connect 26 0 47 0;
#X connect 27 0 31 0;
#X connect 28 0 31 0;
#X connect 29 0 28 1;
#X connect 30 0 28 0;
#X connect 31 0 47 1;
#X connect 32 0 36 0;
#X connect 33 0 36 0;
#X connect 34 0 33 1;
#X connect 35 0 33 0;
#X connect 36 0 48 1;
#X connect 37 0 41 0;
#X connect 38 0 41 0;
#X connect 39 0 38 1;
#X connect 40 0 38 0;
#X connect 41 0 49 1;
#X connect 42 0 46 0;
#X connect 43 0 46 0;
#X connect 44 0 43 1;
#X connect 45 0 43 0;
#X connect 46 0 50 1;
#X connect 47 0 48 0;
#X connect 48 0 49 0;
#X connect 49 0 50 0;
#X connect 50 0 51 0;
#X connect 51 0 52 0;
#X coords 0 0 1 1 85 60 0;
#X restore -103 957 pd addmatrix -------------------;
#X floatatom -103 1001 5 0 0 0 - - -;
#X obj -103 979 +;
#X obj -158 996 mod 100;
#X obj -269 1017 tabwrite seed3graph;
#X obj -102 1057 tabwrite muisti3;
#N canvas 0 0 450 300 (subpatch) 0;
#X array muisti1 1 float 3;
#A 0 11.3999;
#X coords 0 100 1 0 20 40 1 0 0;
#X restore 1443 1 graph;
#N canvas 0 0 450 300 (subpatch) 0;
#X array muisti2 1 float 3;
#A 0 12.9259;
#X coords 0 100 1 0 20 40 1 0 0;
#X restore 1506 0 graph;
#N canvas 0 0 450 300 (subpatch) 0;
#X array muisti3 1 float 3;
#A 0 16.7259;
#X coords 0 100 1 0 20 40 1 0 0;
#X restore 1566 3 graph;
#X obj 705 406 image fractal.gif;
#X connect 14 0 16 0;
#X connect 15 0 18 0;
#X connect 16 0 111 0;
#X connect 17 0 85 0;
#X connect 18 0 17 0;
#X connect 19 0 20 0;
#X connect 20 0 14 0;
#X connect 21 0 23 0;
#X connect 22 0 25 0;
#X connect 23 0 113 0;
#X connect 24 0 70 0;
#X connect 25 0 24 0;
#X connect 26 0 27 0;
#X connect 27 0 21 0;
#X connect 28 0 30 0;
#X connect 29 0 32 0;
#X connect 30 0 107 0;
#X connect 31 0 63 0;
#X connect 32 0 31 0;
#X connect 33 0 34 0;
#X connect 34 0 28 0;
#X connect 35 0 37 0;
#X connect 36 0 39 0;
#X connect 37 0 115 0;
#X connect 38 0 56 0;
#X connect 39 0 38 0;
#X connect 40 0 41 0;
#X connect 41 0 35 0;
#X connect 42 0 44 0;
#X connect 43 0 46 0;
#X connect 44 0 109 0;
#X connect 46 0 45 0;
#X connect 47 0 48 0;
#X connect 48 0 42 0;
#X connect 49 0 15 0;
#X connect 49 0 22 0;
#X connect 49 0 29 0;
#X connect 49 0 36 0;
#X connect 49 0 43 0;
#X connect 50 0 49 0;
#X connect 50 0 20 0;
#X connect 50 0 27 0;
#X connect 50 0 34 0;
#X connect 50 0 41 0;
#X connect 50 0 48 0;
#X connect 50 0 154 0;
#X connect 52 0 53 0;
#X connect 53 0 54 0;
#X connect 53 0 55 0;
#X connect 53 0 82 0;
#X connect 53 0 161 0;
#X connect 54 0 53 1;
#X connect 55 0 57 0;
#X connect 56 0 55 1;
#X connect 57 0 58 0;
#X connect 58 0 59 0;
#X connect 59 0 60 0;
#X connect 60 0 61 0;
#X connect 60 0 62 0;
#X connect 60 0 80 0;
#X connect 61 0 60 1;
#X connect 62 0 64 0;
#X connect 63 0 62 1;
#X connect 64 0 65 0;
#X connect 65 0 66 0;
#X connect 66 0 67 0;
#X connect 67 0 68 0;
#X connect 67 0 69 0;
#X connect 67 0 78 0;
#X connect 68 0 67 1;
#X connect 69 0 71 0;
#X connect 70 0 69 1;
#X connect 71 0 72 0;
#X connect 72 0 73 0;
#X connect 73 0 74 0;
#X connect 74 0 75 0;
#X connect 74 0 76 0;
#X connect 74 0 84 0;
#X connect 75 0 74 1;
#X connect 76 0 119 0;
#X connect 77 0 112 0;
#X connect 78 0 118 0;
#X connect 79 0 106 0;
#X connect 80 0 117 0;
#X connect 81 0 114 0;
#X connect 82 0 116 0;
#X connect 83 0 108 0;
#X connect 84 0 86 0;
#X connect 85 0 84 1;
#X connect 86 0 87 0;
#X connect 87 0 88 0;
#X connect 88 0 89 0;
#X connect 89 0 90 0;
#X connect 89 0 91 0;
#X connect 90 0 89 1;
#X connect 91 0 120 0;
#X connect 92 0 110 0;
#X connect 93 0 53 0;
#X connect 93 0 60 0;
#X connect 93 0 67 0;
#X connect 93 0 74 0;
#X connect 93 0 89 0;
#X connect 94 0 63 0;
#X connect 94 0 70 0;
#X connect 94 0 85 0;
#X connect 94 0 56 0;
#X connect 95 0 96 0;
#X connect 96 0 97 0;
#X connect 97 0 98 0;
#X connect 98 0 99 0;
#X connect 101 0 100 1;
#X connect 102 0 100 0;
#X connect 102 0 101 0;
#X connect 103 0 52 0;
#X connect 104 0 94 0;
#X connect 106 0 96 1;
#X connect 106 0 150 0;
#X connect 107 0 106 1;
#X connect 108 0 95 0;
#X connect 108 0 148 0;
#X connect 109 0 108 1;
#X connect 110 0 98 1;
#X connect 110 0 152 0;
#X connect 111 0 110 1;
#X connect 112 0 97 1;
#X connect 112 0 151 0;
#X connect 113 0 112 1;
#X connect 114 0 95 1;
#X connect 114 0 149 0;
#X connect 115 0 114 1;
#X connect 116 0 83 0;
#X connect 117 0 81 0;
#X connect 118 0 79 0;
#X connect 119 0 77 0;
#X connect 120 0 92 0;
#X connect 122 0 147 5;
#X connect 123 0 147 6;
#X connect 124 0 147 7;
#X connect 125 0 147 8;
#X connect 126 0 147 9;
#X connect 128 0 155 1;
#X connect 130 0 164 5;
#X connect 131 0 164 6;
#X connect 132 0 164 7;
#X connect 133 0 164 8;
#X connect 134 0 164 9;
#X connect 136 0 166 1;
#X connect 138 0 172 5;
#X connect 139 0 172 6;
#X connect 140 0 172 7;
#X connect 141 0 172 8;
#X connect 142 0 172 9;
#X connect 144 0 174 1;
#X connect 147 0 155 0;
#X connect 148 0 147 4;
#X connect 148 0 164 4;
#X connect 148 0 172 4;
#X connect 149 0 147 3;
#X connect 149 0 164 3;
#X connect 149 0 172 3;
#X connect 150 0 147 2;
#X connect 150 0 164 2;
#X connect 150 0 172 2;
#X connect 151 0 147 1;
#X connect 151 0 164 1;
#X connect 151 0 172 1;
#X connect 152 0 147 0;
#X connect 152 0 164 0;
#X connect 152 0 172 0;
#X connect 153 0 102 0;
#X connect 153 0 159 0;
#X connect 154 0 122 0;
#X connect 154 0 123 0;
#X connect 154 0 124 0;
#X connect 154 0 125 0;
#X connect 154 0 126 0;
#X connect 154 0 130 0;
#X connect 154 0 131 0;
#X connect 154 0 132 0;
#X connect 154 0 133 0;
#X connect 154 0 134 0;
#X connect 155 0 153 0;
#X connect 160 0 159 1;
#X connect 161 0 160 0;
#X connect 161 0 167 0;
#X connect 161 0 175 0;
#X connect 162 0 169 1;
#X connect 163 0 162 0;
#X connect 163 0 169 0;
#X connect 164 0 166 0;
#X connect 165 0 163 0;
#X connect 165 0 168 0;
#X connect 166 0 165 0;
#X connect 167 0 168 1;
#X connect 170 0 177 1;
#X connect 171 0 170 0;
#X connect 171 0 177 0;
#X connect 172 0 174 0;
#X connect 173 0 171 0;
#X connect 173 0 176 0;
#X connect 174 0 173 0;
#X connect 175 0 176 1;
#X coords 0 -1 1 1 700 380 1 100 100;
#X restore -92 -79 pd fractalseq;
