#N canvas 1 83 450 300 10;
#N canvas 676 158 974 697 binaryrando 0;
#X obj -26 -510 inlet;
#X obj -216 373 outlet;
#X obj -216 341 pack f f f f f;
#X obj -115 -232 bng 15 250 50 0 empty empty empty 17 7 0 10 -262144
-1 -1;
#X floatatom -115 -192 5 0 0 0 - - -;
#X obj -59 -232 bng 15 250 50 0 empty empty empty 17 7 0 10 -262144
-1 -1;
#X floatatom -59 -192 5 0 0 0 - - -;
#X obj -4 -233 bng 15 250 50 0 empty empty empty 17 7 0 10 -262144
-1 -1;
#X floatatom -4 -193 5 0 0 0 - - -;
#X obj 51 -233 bng 15 250 50 0 empty empty empty 17 7 0 10 -262144
-1 -1;
#X floatatom 51 -193 5 0 0 0 - - -;
#X obj 107 -233 bng 15 250 50 0 empty empty empty 17 7 0 10 -262144
-1 -1;
#X floatatom 107 -193 5 0 0 0 - - -;
#X obj -11 -275 bng 15 250 50 0 empty empty empty 17 7 0 10 -262144
-1 -1;
#X obj 100 100 cnv 15 90 45 empty empty empty 20 12 0 14 -203904 -66577
0;
#X obj 138 -98 spigot 1;
#X obj 67 -100 spigot 1;
#X obj -4 -106 spigot 1;
#X obj -73 -112 spigot 1;
#X obj -144 -119 spigot 1;
#X obj 107 107 tgl 15 0 empty empty empty 17 7 0 10 -262144 -1 -1 1
1;
#X obj 122 107 tgl 15 0 empty empty empty 17 7 0 10 -262144 -1 -1 1
1;
#X obj 137 107 tgl 15 0 empty empty empty 17 7 0 10 -262144 -1 -1 1
1;
#X obj 152 107 tgl 15 0 empty empty empty 17 7 0 10 -262144 -1 -1 1
1;
#X obj 167 107 tgl 15 0 empty empty empty 17 7 0 10 -262144 -1 -1 1
1;
#X obj 148 32 loadbang;
#X msg 174 61 1;
#X floatatom 124 126 2 0 0 0 - - -;
#X floatatom 108 126 2 0 0 0 - - -;
#X floatatom 140 127 2 0 0 0 - - -;
#X floatatom 156 127 2 0 0 0 - - -;
#X floatatom 172 127 2 0 0 0 - - -;
#X obj -115 -213 random 2;
#X obj -59 -213 random 2;
#X obj -4 -214 random 2;
#X obj 51 -214 random 2;
#X obj 107 -214 random 2;
#X connect 0 0 13 0;
#X connect 2 0 1 0;
#X connect 3 0 32 0;
#X connect 4 0 19 0;
#X connect 5 0 28 0;
#X connect 5 0 33 0;
#X connect 6 0 18 0;
#X connect 7 0 28 0;
#X connect 7 0 34 0;
#X connect 8 0 17 0;
#X connect 9 0 28 0;
#X connect 9 0 35 0;
#X connect 10 0 16 0;
#X connect 11 0 28 0;
#X connect 11 0 36 0;
#X connect 12 0 15 0;
#X connect 13 0 7 0;
#X connect 13 0 9 0;
#X connect 13 0 11 0;
#X connect 13 0 5 0;
#X connect 13 0 3 0;
#X connect 15 0 31 0;
#X connect 16 0 30 0;
#X connect 17 0 29 0;
#X connect 18 0 27 0;
#X connect 19 0 28 0;
#X connect 20 0 19 1;
#X connect 21 0 18 1;
#X connect 22 0 17 1;
#X connect 23 0 16 1;
#X connect 24 0 15 1;
#X connect 25 0 26 0;
#X connect 26 0 20 0;
#X connect 26 0 21 0;
#X connect 26 0 22 0;
#X connect 26 0 23 0;
#X connect 26 0 24 0;
#X connect 27 0 2 1;
#X connect 28 0 2 0;
#X connect 29 0 2 2;
#X connect 30 0 2 3;
#X connect 31 0 2 4;
#X connect 32 0 4 0;
#X connect 33 0 6 0;
#X connect 34 0 8 0;
#X connect 35 0 10 0;
#X connect 36 0 12 0;
#X coords 0 -1 1 1 90 45 1 100 100;
#X restore -24 73 pd binaryrando;
#N canvas 858 340 450 300 atom 0;
#X obj 100 100 cnv 15 65 25 empty empty empty 20 12 0 14 -203904 -66577
0;
#X floatatom 104 103 1 0 0 0 - - -;
#X floatatom 116 103 1 0 0 0 - - -;
#X floatatom 128 103 1 0 0 0 - - -;
#X floatatom 140 103 1 0 0 0 - - -;
#X floatatom 152 103 1 0 0 0 - - -;
#X obj 89 228 outlet;
#X obj 88 12 inlet;
#X obj 89 205 pack f f f f f;
#X obj 88 36 unpack f f f f f;
#X obj 196 64 bng 15 250 50 0 empty empty empty 17 7 0 10 -262144 -1
-1;
#X obj 279 51 bng 15 250 50 0 empty empty empty 17 7 0 10 -262144 -1
-1;
#X connect 1 0 8 0;
#X connect 2 0 8 1;
#X connect 2 0 10 0;
#X connect 3 0 8 2;
#X connect 3 0 10 0;
#X connect 4 0 8 3;
#X connect 4 0 10 0;
#X connect 5 0 8 4;
#X connect 5 0 10 0;
#X connect 7 0 9 0;
#X connect 8 0 6 0;
#X connect 9 0 1 0;
#X connect 9 1 2 0;
#X connect 9 2 3 0;
#X connect 9 3 4 0;
#X connect 9 4 5 0;
#X connect 10 0 1 0;
#X coords 0 -1 1 1 65 25 1 100 100;
#X restore -24 123 pd atom;
#N canvas 410 159 1082 802 from 0;
#X obj 648 106 inlet;
#X obj 669 609 outlet;
#X obj 648 134 unpack f f f f f;
#X obj 775 270 pow 0;
#X obj 743 309 pow 1;
#X obj 706 333 pow 2;
#X obj 658 351 pow 3;
#X obj 621 375 pow 4;
#X floatatom 789 383 5 0 0 0 - - -;
#X obj 760 418 +;
#X obj 733 462 +;
#X obj 708 503 +;
#X obj 671 549 +;
#X floatatom 671 579 5 0 0 0 - - -;
#X obj 775 245 * 3;
#X obj 743 284 * 3;
#X obj 706 308 * 3;
#X obj 658 326 * 3;
#X obj 621 350 * 3;
#X floatatom 105 119 5 2 9 1 dimension - -;
#X obj 174 104 bng 11 250 50 0 empty empty empty 17 7 0 10 -203904
-1 -1;
#X obj 186 104 bng 11 250 50 0 empty empty empty 17 7 0 10 -1 -1 -1
;
#X obj 197 104 bng 11 250 50 0 empty empty empty 17 7 0 10 -49843 -1
-1;
#X obj 209 104 bng 11 250 50 0 empty empty empty 17 7 0 10 -188481
-1 -1;
#X obj 221 104 bng 11 250 50 0 empty empty empty 17 7 0 10 -220097
-1 -1;
#X obj 232 104 bng 11 250 50 0 empty empty empty 17 7 0 10 -13701 -1
-1;
#X obj 244 104 bng 11 250 50 0 empty empty empty 17 7 0 10 -259585
-1 -1;
#X obj 255 104 bng 11 250 50 0 empty empty empty 17 7 0 10 -161192
-1 -1;
#X msg 106 473 2;
#X msg 135 473 3;
#X floatatom 352 490 5 0 0 0 - - -;
#X msg 162 473 4;
#X msg 192 473 5;
#X msg 221 473 6;
#X msg 250 473 7;
#X msg 281 473 8;
#X msg 310 473 9;
#X connect 0 0 2 0;
#X connect 2 0 18 0;
#X connect 2 1 17 0;
#X connect 2 2 16 0;
#X connect 2 3 15 0;
#X connect 2 4 14 0;
#X connect 3 0 8 0;
#X connect 4 0 9 0;
#X connect 5 0 10 0;
#X connect 6 0 11 0;
#X connect 7 0 12 0;
#X connect 8 0 9 1;
#X connect 9 0 10 1;
#X connect 10 0 11 1;
#X connect 11 0 12 1;
#X connect 12 0 13 0;
#X connect 13 0 1 0;
#X connect 14 0 3 0;
#X connect 15 0 4 0;
#X connect 16 0 5 0;
#X connect 17 0 6 0;
#X connect 18 0 7 0;
#X connect 19 0 14 1;
#X connect 19 0 15 1;
#X connect 19 0 16 1;
#X connect 19 0 17 1;
#X connect 19 0 18 1;
#X connect 20 0 28 0;
#X connect 21 0 29 0;
#X connect 22 0 31 0;
#X connect 23 0 32 0;
#X connect 24 0 33 0;
#X connect 25 0 34 0;
#X connect 26 0 35 0;
#X connect 27 0 36 0;
#X connect 28 0 30 0;
#X connect 29 0 30 0;
#X connect 30 0 19 0;
#X connect 31 0 30 0;
#X connect 32 0 30 0;
#X connect 33 0 30 0;
#X connect 34 0 30 0;
#X connect 35 0 30 0;
#X connect 36 0 30 0;
#X coords 0 -1 1 1 175 40 1 100 100;
#X restore -24 174 pd from;
#N canvas 594 434 1026 615 tonalwrap 0;
#X obj 305 136 inlet;
#X obj 307 572 outlet;
#X obj 307 542 pack;
#X obj 302 518 makenote;
#X floatatom 325 465 5 0 0 0 - - -;
#X floatatom 376 465 5 0 0 0 - - -;
#X floatatom 279 465 5 0 0 0 - - -;
#X floatatom 280 441 5 0 0 0 - - -;
#X obj 347 317 tabread scaler;
#X obj 252 307 int;
#X obj 252 287 /;
#X obj 252 329 *;
#X obj 506 165 r scale_notes;
#X obj 409 162 r tuning_notes;
#X floatatom 409 184 5 0 0 0 - - -;
#X obj 347 296 mod;
#X floatatom 506 187 5 0 0 0 - - -;
#X floatatom 301 207 5 0 0 0 - - -;
#X obj 280 410 +;
#X floatatom 252 260 5 0 0 0 - - -;
#X floatatom 347 269 5 0 0 0 - - -;
#X obj 359 372 bng 15 250 50 0 empty empty empty 17 7 0 10 -262144
-1 -1;
#X floatatom 182 116 5 0 127 1 volume - -;
#X floatatom 146 116 5 10 600 0 length - -;
#X obj 228 5 loadbang;
#X msg 154 58 126;
#X msg 205 57 150;
#X connect 0 0 17 0;
#X connect 2 0 1 0;
#X connect 3 0 2 0;
#X connect 3 1 2 1;
#X connect 4 0 3 1;
#X connect 5 0 3 2;
#X connect 6 0 3 0;
#X connect 7 0 6 0;
#X connect 8 0 21 0;
#X connect 8 0 18 0;
#X connect 9 0 11 0;
#X connect 10 0 9 0;
#X connect 11 0 18 1;
#X connect 12 0 16 0;
#X connect 13 0 14 0;
#X connect 14 0 11 1;
#X connect 15 0 8 0;
#X connect 16 0 15 1;
#X connect 16 0 10 1;
#X connect 17 0 19 0;
#X connect 17 0 20 0;
#X connect 18 0 7 0;
#X connect 19 0 10 0;
#X connect 20 0 15 0;
#X connect 21 0 19 0;
#X connect 22 0 5 0;
#X connect 23 0 4 0;
#X connect 24 0 25 0;
#X connect 24 0 26 0;
#X connect 25 0 23 0;
#X connect 26 0 22 0;
#X coords 0 -1 1 1 160 35 1 100 100;
#X restore -24 238 pd tonalwrap;
#N canvas 974 341 450 300 atom 0;
#X obj 100 100 cnv 15 65 25 empty empty empty 20 12 0 14 -33289 -66577
0;
#X floatatom 104 103 1 0 0 0 - - -;
#X floatatom 116 103 1 0 0 0 - - -;
#X floatatom 128 103 1 0 0 0 - - -;
#X floatatom 140 103 1 0 0 0 - - -;
#X floatatom 152 103 1 0 0 0 - - -;
#X obj 89 228 outlet;
#X obj 88 12 inlet;
#X obj 89 205 pack f f f f f;
#X obj 88 36 unpack f f f f f;
#X obj 13 119 bng 15 250 50 0 empty empty empty 17 7 0 10 -262144 -1
-1;
#X connect 1 0 8 0;
#X connect 2 0 8 1;
#X connect 2 0 10 0;
#X connect 3 0 8 2;
#X connect 3 0 10 0;
#X connect 4 0 8 3;
#X connect 4 0 10 0;
#X connect 5 0 8 4;
#X connect 5 0 10 0;
#X connect 7 0 9 0;
#X connect 8 0 6 0;
#X connect 9 0 1 0;
#X connect 9 1 2 0;
#X connect 9 2 3 0;
#X connect 9 3 4 0;
#X connect 9 4 5 0;
#X connect 10 0 1 0;
#X coords 0 -1 1 1 65 25 1 100 100;
#X restore 69 122 pd atom;
#N canvas 678 157 974 697 binaryrando 0;
#X obj -26 -510 inlet;
#X obj -216 373 outlet;
#X obj -216 341 pack f f f f f;
#X obj -115 -232 bng 15 250 50 0 empty empty empty 17 7 0 10 -262144
-1 -1;
#X floatatom -115 -192 5 0 0 0 - - -;
#X obj -59 -232 bng 15 250 50 0 empty empty empty 17 7 0 10 -262144
-1 -1;
#X floatatom -59 -192 5 0 0 0 - - -;
#X obj -4 -233 bng 15 250 50 0 empty empty empty 17 7 0 10 -262144
-1 -1;
#X floatatom -4 -193 5 0 0 0 - - -;
#X obj 51 -233 bng 15 250 50 0 empty empty empty 17 7 0 10 -262144
-1 -1;
#X floatatom 51 -193 5 0 0 0 - - -;
#X obj 107 -233 bng 15 250 50 0 empty empty empty 17 7 0 10 -262144
-1 -1;
#X floatatom 107 -193 5 0 0 0 - - -;
#X obj -11 -275 bng 15 250 50 0 empty empty empty 17 7 0 10 -262144
-1 -1;
#X obj 100 100 cnv 15 90 45 empty empty empty 20 12 0 14 -1 -66577
0;
#X obj 138 -98 spigot 1;
#X obj 67 -100 spigot 1;
#X obj -4 -106 spigot 1;
#X obj -73 -112 spigot 1;
#X obj -144 -119 spigot 1;
#X obj 107 107 tgl 15 0 empty empty empty 17 7 0 10 -262144 -1 -1 1
1;
#X obj 122 107 tgl 15 0 empty empty empty 17 7 0 10 -262144 -1 -1 1
1;
#X obj 137 107 tgl 15 0 empty empty empty 17 7 0 10 -262144 -1 -1 1
1;
#X obj 152 107 tgl 15 0 empty empty empty 17 7 0 10 -262144 -1 -1 1
1;
#X obj 167 107 tgl 15 0 empty empty empty 17 7 0 10 -262144 -1 -1 1
1;
#X obj 148 32 loadbang;
#X msg 174 61 1;
#X floatatom 124 126 2 0 0 0 - - -;
#X floatatom 108 126 2 0 0 0 - - -;
#X floatatom 140 127 2 0 0 0 - - -;
#X floatatom 156 127 2 0 0 0 - - -;
#X floatatom 172 127 2 0 0 0 - - -;
#X obj 107 -214 random 3;
#X obj 51 -214 random 3;
#X obj -4 -214 random 3;
#X obj -59 -213 random 3;
#X obj -115 -213 random 3;
#X connect 0 0 13 0;
#X connect 2 0 1 0;
#X connect 3 0 36 0;
#X connect 4 0 19 0;
#X connect 5 0 28 0;
#X connect 5 0 35 0;
#X connect 6 0 18 0;
#X connect 7 0 28 0;
#X connect 7 0 34 0;
#X connect 8 0 17 0;
#X connect 9 0 28 0;
#X connect 9 0 33 0;
#X connect 10 0 16 0;
#X connect 11 0 28 0;
#X connect 11 0 32 0;
#X connect 12 0 15 0;
#X connect 13 0 7 0;
#X connect 13 0 9 0;
#X connect 13 0 11 0;
#X connect 13 0 5 0;
#X connect 13 0 3 0;
#X connect 15 0 31 0;
#X connect 16 0 30 0;
#X connect 17 0 29 0;
#X connect 18 0 27 0;
#X connect 19 0 28 0;
#X connect 20 0 19 1;
#X connect 21 0 18 1;
#X connect 22 0 17 1;
#X connect 23 0 16 1;
#X connect 24 0 15 1;
#X connect 25 0 26 0;
#X connect 26 0 20 0;
#X connect 26 0 21 0;
#X connect 26 0 22 0;
#X connect 26 0 23 0;
#X connect 26 0 24 0;
#X connect 27 0 2 1;
#X connect 28 0 2 0;
#X connect 29 0 2 2;
#X connect 30 0 2 3;
#X connect 31 0 2 4;
#X connect 32 0 12 0;
#X connect 33 0 10 0;
#X connect 34 0 8 0;
#X connect 35 0 6 0;
#X connect 36 0 4 0;
#X coords 0 -1 1 1 90 45 1 100 100;
#X restore 69 73 pd binaryrando;
#N canvas 672 160 974 697 binaryrando 0;
#X obj -26 -510 inlet;
#X obj -216 373 outlet;
#X obj -216 341 pack f f f f f;
#X obj -115 -232 bng 15 250 50 0 empty empty empty 17 7 0 10 -262144
-1 -1;
#X floatatom -115 -192 5 0 0 0 - - -;
#X obj -59 -232 bng 15 250 50 0 empty empty empty 17 7 0 10 -262144
-1 -1;
#X floatatom -59 -192 5 0 0 0 - - -;
#X obj -4 -233 bng 15 250 50 0 empty empty empty 17 7 0 10 -262144
-1 -1;
#X floatatom -4 -193 5 0 0 0 - - -;
#X obj 51 -233 bng 15 250 50 0 empty empty empty 17 7 0 10 -262144
-1 -1;
#X floatatom 51 -193 5 0 0 0 - - -;
#X obj 107 -233 bng 15 250 50 0 empty empty empty 17 7 0 10 -262144
-1 -1;
#X floatatom 107 -193 5 0 0 0 - - -;
#X obj -11 -275 bng 15 250 50 0 empty empty empty 17 7 0 10 -262144
-1 -1;
#X obj 100 100 cnv 15 90 45 empty empty empty 20 12 0 14 -49843 -66577
0;
#X obj 138 -98 spigot 1;
#X obj 67 -100 spigot 1;
#X obj -4 -106 spigot 1;
#X obj -73 -112 spigot 1;
#X obj -144 -119 spigot 1;
#X obj 107 107 tgl 15 0 empty empty empty 17 7 0 10 -262144 -1 -1 1
1;
#X obj 122 107 tgl 15 0 empty empty empty 17 7 0 10 -262144 -1 -1 1
1;
#X obj 137 107 tgl 15 0 empty empty empty 17 7 0 10 -262144 -1 -1 1
1;
#X obj 152 107 tgl 15 0 empty empty empty 17 7 0 10 -262144 -1 -1 1
1;
#X obj 167 107 tgl 15 0 empty empty empty 17 7 0 10 -262144 -1 -1 1
1;
#X obj 148 32 loadbang;
#X msg 174 61 1;
#X floatatom 124 126 2 0 0 0 - - -;
#X floatatom 108 126 2 0 0 0 - - -;
#X floatatom 140 127 2 0 0 0 - - -;
#X floatatom 156 127 2 0 0 0 - - -;
#X floatatom 172 127 2 0 0 0 - - -;
#X obj -115 -213 random 4;
#X obj -59 -214 random 4;
#X obj -4 -214 random 4;
#X obj 51 -214 random 4;
#X obj 107 -214 random 4;
#X connect 0 0 13 0;
#X connect 2 0 1 0;
#X connect 3 0 32 0;
#X connect 4 0 19 0;
#X connect 5 0 28 0;
#X connect 5 0 33 0;
#X connect 6 0 18 0;
#X connect 7 0 28 0;
#X connect 7 0 34 0;
#X connect 8 0 17 0;
#X connect 9 0 28 0;
#X connect 9 0 35 0;
#X connect 10 0 16 0;
#X connect 11 0 28 0;
#X connect 11 0 36 0;
#X connect 12 0 15 0;
#X connect 13 0 7 0;
#X connect 13 0 9 0;
#X connect 13 0 11 0;
#X connect 13 0 5 0;
#X connect 13 0 3 0;
#X connect 15 0 31 0;
#X connect 16 0 30 0;
#X connect 17 0 29 0;
#X connect 18 0 27 0;
#X connect 19 0 28 0;
#X connect 20 0 19 1;
#X connect 21 0 18 1;
#X connect 22 0 17 1;
#X connect 23 0 16 1;
#X connect 24 0 15 1;
#X connect 25 0 26 0;
#X connect 26 0 20 0;
#X connect 26 0 21 0;
#X connect 26 0 22 0;
#X connect 26 0 23 0;
#X connect 26 0 24 0;
#X connect 27 0 2 1;
#X connect 28 0 2 0;
#X connect 29 0 2 2;
#X connect 30 0 2 3;
#X connect 31 0 2 4;
#X connect 32 0 4 0;
#X connect 33 0 6 0;
#X connect 34 0 8 0;
#X connect 35 0 10 0;
#X connect 36 0 12 0;
#X coords 0 -1 1 1 90 45 1 100 100;
#X restore 163 73 pd binaryrando;
#N canvas 970 343 450 300 atom 0;
#X obj 100 100 cnv 15 65 25 empty empty empty 20 12 0 14 -49843 -66577
0;
#X floatatom 104 103 1 0 0 0 - - -;
#X floatatom 116 103 1 0 0 0 - - -;
#X floatatom 128 103 1 0 0 0 - - -;
#X floatatom 140 103 1 0 0 0 - - -;
#X floatatom 152 103 1 0 0 0 - - -;
#X obj 89 228 outlet;
#X obj 88 12 inlet;
#X obj 89 205 pack f f f f f;
#X obj 88 36 unpack f f f f f;
#X obj 13 119 bng 15 250 50 0 empty empty empty 17 7 0 10 -262144 -1
-1;
#X connect 1 0 8 0;
#X connect 2 0 8 1;
#X connect 2 0 10 0;
#X connect 3 0 8 2;
#X connect 3 0 10 0;
#X connect 4 0 8 3;
#X connect 4 0 10 0;
#X connect 5 0 8 4;
#X connect 5 0 10 0;
#X connect 7 0 9 0;
#X connect 8 0 6 0;
#X connect 9 0 1 0;
#X connect 9 1 2 0;
#X connect 9 2 3 0;
#X connect 9 3 4 0;
#X connect 9 4 5 0;
#X connect 10 0 1 0;
#X coords 0 -1 1 1 65 25 1 100 100;
#X restore 163 122 pd atom;
#N canvas 668 162 974 697 binaryrando 0;
#X obj -26 -510 inlet;
#X obj -216 373 outlet;
#X obj -216 341 pack f f f f f;
#X obj -115 -232 bng 15 250 50 0 empty empty empty 17 7 0 10 -262144
-1 -1;
#X floatatom -115 -192 5 0 0 0 - - -;
#X obj -59 -232 bng 15 250 50 0 empty empty empty 17 7 0 10 -262144
-1 -1;
#X floatatom -59 -192 5 0 0 0 - - -;
#X obj -4 -233 bng 15 250 50 0 empty empty empty 17 7 0 10 -262144
-1 -1;
#X floatatom -4 -193 5 0 0 0 - - -;
#X obj 51 -233 bng 15 250 50 0 empty empty empty 17 7 0 10 -262144
-1 -1;
#X floatatom 51 -193 5 0 0 0 - - -;
#X obj 107 -233 bng 15 250 50 0 empty empty empty 17 7 0 10 -262144
-1 -1;
#X floatatom 107 -193 5 0 0 0 - - -;
#X obj -11 -275 bng 15 250 50 0 empty empty empty 17 7 0 10 -262144
-1 -1;
#X obj 100 100 cnv 15 90 45 empty empty empty 20 12 0 14 -188481 -66577
0;
#X obj 138 -98 spigot 1;
#X obj 67 -100 spigot 1;
#X obj -4 -106 spigot 1;
#X obj -73 -112 spigot 1;
#X obj -144 -119 spigot 1;
#X obj 107 107 tgl 15 0 empty empty empty 17 7 0 10 -262144 -1 -1 1
1;
#X obj 122 107 tgl 15 0 empty empty empty 17 7 0 10 -262144 -1 -1 1
1;
#X obj 137 107 tgl 15 0 empty empty empty 17 7 0 10 -262144 -1 -1 1
1;
#X obj 152 107 tgl 15 0 empty empty empty 17 7 0 10 -262144 -1 -1 1
1;
#X obj 167 107 tgl 15 0 empty empty empty 17 7 0 10 -262144 -1 -1 1
1;
#X obj 148 32 loadbang;
#X msg 174 61 1;
#X floatatom 124 126 2 0 0 0 - - -;
#X floatatom 108 126 2 0 0 0 - - -;
#X floatatom 140 127 2 0 0 0 - - -;
#X floatatom 156 127 2 0 0 0 - - -;
#X floatatom 172 127 2 0 0 0 - - -;
#X obj -115 -213 random 5;
#X obj -59 -214 random 5;
#X obj -4 -214 random 5;
#X obj 51 -214 random 5;
#X obj 107 -214 random 5;
#X connect 0 0 13 0;
#X connect 2 0 1 0;
#X connect 3 0 32 0;
#X connect 4 0 19 0;
#X connect 5 0 28 0;
#X connect 5 0 33 0;
#X connect 6 0 18 0;
#X connect 7 0 28 0;
#X connect 7 0 34 0;
#X connect 8 0 17 0;
#X connect 9 0 28 0;
#X connect 9 0 35 0;
#X connect 10 0 16 0;
#X connect 11 0 28 0;
#X connect 11 0 36 0;
#X connect 12 0 15 0;
#X connect 13 0 7 0;
#X connect 13 0 9 0;
#X connect 13 0 11 0;
#X connect 13 0 5 0;
#X connect 13 0 3 0;
#X connect 15 0 31 0;
#X connect 16 0 30 0;
#X connect 17 0 29 0;
#X connect 18 0 27 0;
#X connect 19 0 28 0;
#X connect 20 0 19 1;
#X connect 21 0 18 1;
#X connect 22 0 17 1;
#X connect 23 0 16 1;
#X connect 24 0 15 1;
#X connect 25 0 26 0;
#X connect 26 0 20 0;
#X connect 26 0 21 0;
#X connect 26 0 22 0;
#X connect 26 0 23 0;
#X connect 26 0 24 0;
#X connect 27 0 2 1;
#X connect 28 0 2 0;
#X connect 29 0 2 2;
#X connect 30 0 2 3;
#X connect 31 0 2 4;
#X connect 32 0 4 0;
#X connect 33 0 6 0;
#X connect 34 0 8 0;
#X connect 35 0 10 0;
#X connect 36 0 12 0;
#X coords 0 -1 1 1 90 45 1 100 100;
#X restore 256 73 pd binaryrando;
#N canvas 968 344 450 300 atom 0;
#X obj 100 100 cnv 15 65 25 empty empty empty 20 12 0 14 -188481 -66577
0;
#X floatatom 104 102 1 0 0 0 - - -;
#X floatatom 116 103 1 0 0 0 - - -;
#X floatatom 128 103 1 0 0 0 - - -;
#X floatatom 140 103 1 0 0 0 - - -;
#X floatatom 152 103 1 0 0 0 - - -;
#X obj 89 228 outlet;
#X obj 88 12 inlet;
#X obj 89 205 pack f f f f f;
#X obj 88 36 unpack f f f f f;
#X obj 13 119 bng 15 250 50 0 empty empty empty 17 7 0 10 -262144 -1
-1;
#X connect 1 0 8 0;
#X connect 2 0 8 1;
#X connect 2 0 10 0;
#X connect 3 0 8 2;
#X connect 3 0 10 0;
#X connect 4 0 8 3;
#X connect 4 0 10 0;
#X connect 5 0 8 4;
#X connect 5 0 10 0;
#X connect 7 0 9 0;
#X connect 8 0 6 0;
#X connect 9 0 1 0;
#X connect 9 1 2 0;
#X connect 9 2 3 0;
#X connect 9 3 4 0;
#X connect 9 4 5 0;
#X connect 10 0 1 0;
#X coords 0 -1 1 1 65 25 1 100 100;
#X restore 256 121 pd atom;
#X obj -24 31 bng 15 250 50 0 empty empty empty 17 7 0 10 -262144 -1
-1;
#X connect 0 0 1 0;
#X connect 1 0 2 0;
#X connect 2 0 3 0;
#X connect 5 0 4 0;
#X connect 6 0 7 0;
#X connect 8 0 9 0;
#X connect 10 0 0 0;
