#N canvas 1 83 416 535 10;
#N canvas 0 85 1280 715 patterngridder 0;
#X obj 101 100 cnv 15 400 240 empty empty empty 20 12 0 14 -155909
-66577 0;
#X obj 108 128 vradio 12 1 0 16 empty empty empty 0 -8 0 10 -259987
-1 -1 0;
#X obj 156 128 vradio 12 1 0 16 empty empty empty 0 -8 0 10 -259283
-1 -1 0;
#X obj 120 128 vradio 12 1 0 16 empty empty empty 0 -8 0 10 -259987
-1 -1 0;
#X obj 132 128 vradio 12 1 0 16 empty empty empty 0 -8 0 10 -259987
-1 -1 0;
#X obj 144 128 vradio 12 1 0 16 empty empty empty 0 -8 0 10 -259987
-1 -1 0;
#X obj 168 128 vradio 12 1 0 16 empty empty empty 0 -8 0 10 -259283
-1 -1 0;
#X obj 180 128 vradio 12 1 0 16 empty empty empty 0 -8 0 10 -259283
-1 -1 0;
#X obj 192 128 vradio 12 1 0 16 empty empty empty 0 -8 0 10 -259283
-1 -1 0;
#X obj 204 128 vradio 12 1 0 16 empty empty empty 0 -8 0 10 -259987
-1 -1 0;
#X obj 252 128 vradio 12 1 0 16 empty empty empty 0 -8 0 10 -259283
-1 -1 0;
#X obj 216 128 vradio 12 1 0 16 empty empty empty 0 -8 0 10 -259987
-1 -1 0;
#X obj 228 128 vradio 12 1 0 16 empty empty empty 0 -8 0 10 -259987
-1 -1 0;
#X obj 240 128 vradio 12 1 0 16 empty empty empty 0 -8 0 10 -259987
-1 -1 0;
#X obj 264 128 vradio 12 1 0 16 empty empty empty 0 -8 0 10 -259283
-1 -1 0;
#X obj 276 128 vradio 12 1 0 16 empty empty empty 0 -8 0 10 -259283
-1 -1 0;
#X obj 288 128 vradio 12 1 0 16 empty empty empty 0 -8 0 10 -259283
-1 -1 0;
#X obj 300 128 vradio 12 1 0 16 empty empty empty 0 -8 0 10 -259987
-1 -1 0;
#X obj 348 128 vradio 12 1 0 16 empty empty empty 0 -8 0 10 -259283
-1 -1 0;
#X obj 312 128 vradio 12 1 0 16 empty empty empty 0 -8 0 10 -259987
-1 -1 0;
#X obj 324 128 vradio 12 1 0 16 empty empty empty 0 -8 0 10 -259987
-1 -1 0;
#X obj 336 128 vradio 12 1 0 16 empty empty empty 0 -8 0 10 -259987
-1 -1 0;
#X obj 360 128 vradio 12 1 0 16 empty empty empty 0 -8 0 10 -259283
-1 -1 0;
#X obj 372 128 vradio 12 1 0 16 empty empty empty 0 -8 0 10 -259283
-1 -1 0;
#X obj 384 128 vradio 12 1 0 16 empty empty empty 0 -8 0 10 -259283
-1 -1 0;
#X obj 396 128 vradio 12 1 0 16 empty empty empty 0 -8 0 10 -259987
-1 -1 0;
#X obj 444 128 vradio 12 1 0 16 empty empty empty 0 -8 0 10 -259283
-1 -1 0;
#X obj 408 128 vradio 12 1 0 16 empty empty empty 0 -8 0 10 -259987
-1 -1 0;
#X obj 420 128 vradio 12 1 0 16 empty empty empty 0 -8 0 10 -259987
-1 -1 0;
#X obj 432 128 vradio 12 1 0 16 empty empty empty 0 -8 0 10 -259987
-1 -1 0;
#X obj 456 128 vradio 12 1 0 16 empty empty empty 0 -8 0 10 -259283
-1 -1 0;
#X obj 468 128 vradio 12 1 0 16 empty empty empty 0 -8 0 10 -259283
-1 -1 0;
#X obj 480 128 vradio 12 1 0 16 empty empty empty 0 -8 0 10 -259283
-1 -1 0;
#N canvas 0 0 450 300 (subpatch) 0;
#X array patgrid 32 float 3;
#A 0 15 15 15 15 15 15 15 15 15 15 15 15 15 15 15 15 15 15 15 15 15
15 15 15 15 15 15 15 15 15 15 15;
#X coords 0 16 31 0 100 40 1 0 0;
#X restore 972 -79 graph;
#X msg -474 -97 0;
#X floatatom -575 -113 5 0 0 0 - - -;
#X obj -575 -97 tabwrite patgrid;
#X floatatom -575 -79 5 0 0 0 - - -;
#X obj -575 -63 tabwrite patgrid;
#X floatatom -575 -45 5 0 0 0 - - -;
#X obj -575 -29 tabwrite patgrid;
#X floatatom -575 -11 5 0 0 0 - - -;
#X obj -575 5 tabwrite patgrid;
#X floatatom -575 24 5 0 0 0 - - -;
#X obj -575 40 tabwrite patgrid;
#X floatatom -575 58 5 0 0 0 - - -;
#X obj -575 74 tabwrite patgrid;
#X floatatom -575 92 5 0 0 0 - - -;
#X obj -575 108 tabwrite patgrid;
#X floatatom -575 126 5 0 0 0 - - -;
#X obj -575 142 tabwrite patgrid;
#X floatatom -444 -112 5 0 0 0 - - -;
#X obj -444 -96 tabwrite patgrid;
#X floatatom -444 -78 5 0 0 0 - - -;
#X obj -444 -62 tabwrite patgrid;
#X floatatom -444 -44 5 0 0 0 - - -;
#X obj -444 -28 tabwrite patgrid;
#X floatatom -444 -10 5 0 0 0 - - -;
#X obj -444 6 tabwrite patgrid;
#X floatatom -444 25 5 0 0 0 - - -;
#X obj -444 41 tabwrite patgrid;
#X floatatom -444 59 5 0 0 0 - - -;
#X obj -444 75 tabwrite patgrid;
#X floatatom -444 93 5 0 0 0 - - -;
#X obj -444 109 tabwrite patgrid;
#X floatatom -444 127 5 0 0 0 - - -;
#X obj -444 143 tabwrite patgrid;
#X floatatom -308 -113 5 0 0 0 - - -;
#X obj -308 -97 tabwrite patgrid;
#X floatatom -308 -79 5 0 0 0 - - -;
#X obj -308 -63 tabwrite patgrid;
#X floatatom -308 -45 5 0 0 0 - - -;
#X obj -308 -29 tabwrite patgrid;
#X floatatom -308 -11 5 0 0 0 - - -;
#X obj -308 5 tabwrite patgrid;
#X floatatom -308 24 5 0 0 0 - - -;
#X obj -308 40 tabwrite patgrid;
#X floatatom -308 58 5 0 0 0 - - -;
#X obj -308 74 tabwrite patgrid;
#X floatatom -308 92 5 0 0 0 - - -;
#X obj -308 108 tabwrite patgrid;
#X floatatom -308 126 5 0 0 0 - - -;
#X obj -308 142 tabwrite patgrid;
#X floatatom -177 -112 5 0 0 0 - - -;
#X obj -177 -96 tabwrite patgrid;
#X floatatom -177 -78 5 0 0 0 - - -;
#X obj -177 -62 tabwrite patgrid;
#X floatatom -177 -44 5 0 0 0 - - -;
#X obj -177 -28 tabwrite patgrid;
#X floatatom -177 -10 5 0 0 0 - - -;
#X obj -177 6 tabwrite patgrid;
#X floatatom -177 25 5 0 0 0 - - -;
#X obj -177 41 tabwrite patgrid;
#X floatatom -177 59 5 0 0 0 - - -;
#X obj -177 75 tabwrite patgrid;
#X floatatom -177 93 5 0 0 0 - - -;
#X obj -177 109 tabwrite patgrid;
#X floatatom -177 127 5 0 0 0 - - -;
#X obj -177 143 tabwrite patgrid;
#X msg -474 -63 1;
#X msg -474 -29 2;
#X msg -474 5 3;
#X msg -474 40 4;
#X msg -474 74 5;
#X msg -474 108 6;
#X msg -474 142 7;
#X msg -343 -96 8;
#X msg -343 -63 9;
#X msg -343 -28 10;
#X msg -343 6 11;
#X msg -343 41 12;
#X msg -343 75 13;
#X msg -343 109 14;
#X msg -343 143 15;
#X msg -207 -97 16;
#X msg -208 -63 17;
#X msg -207 -29 18;
#X msg -207 5 19;
#X msg -207 40 20;
#X msg -207 75 21;
#X msg -207 108 22;
#X msg -207 142 23;
#X msg -76 -96 24;
#X msg -76 -62 25;
#X msg -76 -28 26;
#X msg -76 6 27;
#X msg -76 41 28;
#X msg -76 75 29;
#X msg -75 109 30;
#X msg -76 143 31;
#X floatatom 480 30 5 0 0 0 - - -;
#X msg 480 3 8;
#X floatatom 447 322 2 0 16 1 const - -;
#X text 254 99 Pattern Gridder;
#X obj 109 323 bng 15 250 50 0 empty empty empty 17 7 0 10 -238925
-1 -1;
#X obj 770 -3 inlet;
#X obj 839 2 r metro;
#X obj 787 78 bng 15 250 50 0 empty empty empty 17 7 0 10 -262144 -1
-1;
#X obj 836 167 int;
#X obj 863 167 + 1;
#X obj 685 233 int;
#X obj 712 233 + 1;
#X obj 746 514 outlet;
#X obj 910 516 outlet;
#X text 734 537 Main Trig;
#X text 905 537 Frist Trig;
#X obj 685 261 mod;
#X obj 685 282 == 0;
#X obj 685 304 route 1;
#X obj 837 212 tabread patgrid;
#X obj 838 245 - 16;
#X obj 839 272 abs;
#X floatatom 839 294 5 0 0 0 - - -;
#X obj 836 142 bng 15 250 50 0 empty empty empty 17 7 0 10 -262144
-1 -1;
#X obj 836 189 mod 32;
#X obj 742 405 bng 15 250 50 0 empty empty empty 17 7 0 10 -262144
-1 -1;
#X obj 108 116 hradio 12 1 0 32 empty empty empty 0 -8 0 10 -239112
-1 -1 0;
#X obj 957 195 == 0;
#X obj 957 216 route 1;
#X obj 955 261 bng 15 250 50 0 empty empty empty 17 7 0 10 -262144
-1 -1;
#X connect 1 0 35 0;
#X connect 2 0 43 0;
#X connect 3 0 37 0;
#X connect 4 0 39 0;
#X connect 5 0 41 0;
#X connect 6 0 45 0;
#X connect 7 0 47 0;
#X connect 8 0 49 0;
#X connect 9 0 51 0;
#X connect 10 0 59 0;
#X connect 11 0 53 0;
#X connect 12 0 55 0;
#X connect 13 0 57 0;
#X connect 14 0 61 0;
#X connect 15 0 63 0;
#X connect 16 0 65 0;
#X connect 17 0 67 0;
#X connect 18 0 75 0;
#X connect 19 0 69 0;
#X connect 20 0 71 0;
#X connect 21 0 73 0;
#X connect 22 0 77 0;
#X connect 23 0 79 0;
#X connect 24 0 81 0;
#X connect 25 0 83 0;
#X connect 26 0 91 0;
#X connect 27 0 85 0;
#X connect 28 0 87 0;
#X connect 29 0 89 0;
#X connect 30 0 93 0;
#X connect 31 0 95 0;
#X connect 32 0 97 0;
#X connect 34 0 36 1;
#X connect 35 0 34 0;
#X connect 35 0 36 0;
#X connect 37 0 99 0;
#X connect 37 0 38 0;
#X connect 39 0 100 0;
#X connect 39 0 40 0;
#X connect 41 0 101 0;
#X connect 41 0 42 0;
#X connect 43 0 102 0;
#X connect 43 0 44 0;
#X connect 45 0 103 0;
#X connect 45 0 46 0;
#X connect 47 0 104 0;
#X connect 47 0 48 0;
#X connect 49 0 105 0;
#X connect 49 0 50 0;
#X connect 51 0 106 0;
#X connect 51 0 52 0;
#X connect 53 0 107 0;
#X connect 53 0 54 0;
#X connect 55 0 108 0;
#X connect 55 0 56 0;
#X connect 57 0 109 0;
#X connect 57 0 58 0;
#X connect 59 0 110 0;
#X connect 59 0 60 0;
#X connect 61 0 111 0;
#X connect 61 0 62 0;
#X connect 63 0 112 0;
#X connect 63 0 64 0;
#X connect 65 0 113 0;
#X connect 65 0 66 0;
#X connect 67 0 114 0;
#X connect 67 0 68 0;
#X connect 69 0 115 0;
#X connect 69 0 70 0;
#X connect 71 0 116 0;
#X connect 71 0 72 0;
#X connect 73 0 117 0;
#X connect 73 0 74 0;
#X connect 75 0 118 0;
#X connect 75 0 76 0;
#X connect 77 0 119 0;
#X connect 77 0 78 0;
#X connect 79 0 120 0;
#X connect 79 0 80 0;
#X connect 81 0 121 0;
#X connect 81 0 82 0;
#X connect 83 0 122 0;
#X connect 83 0 84 0;
#X connect 85 0 123 0;
#X connect 85 0 86 0;
#X connect 87 0 124 0;
#X connect 87 0 88 0;
#X connect 89 0 125 0;
#X connect 89 0 90 0;
#X connect 91 0 126 0;
#X connect 91 0 92 0;
#X connect 93 0 127 0;
#X connect 93 0 94 0;
#X connect 95 0 128 0;
#X connect 95 0 96 0;
#X connect 97 0 129 0;
#X connect 97 0 98 0;
#X connect 99 0 38 1;
#X connect 100 0 40 1;
#X connect 101 0 42 1;
#X connect 102 0 44 1;
#X connect 103 0 46 1;
#X connect 104 0 48 1;
#X connect 105 0 50 1;
#X connect 106 0 52 1;
#X connect 107 0 54 1;
#X connect 108 0 56 1;
#X connect 109 0 58 1;
#X connect 110 0 60 1;
#X connect 111 0 62 1;
#X connect 112 0 64 1;
#X connect 113 0 66 1;
#X connect 114 0 68 1;
#X connect 115 0 70 1;
#X connect 116 0 72 1;
#X connect 117 0 74 1;
#X connect 118 0 76 1;
#X connect 119 0 78 1;
#X connect 120 0 80 1;
#X connect 121 0 82 1;
#X connect 122 0 84 1;
#X connect 123 0 86 1;
#X connect 124 0 88 1;
#X connect 125 0 90 1;
#X connect 126 0 92 1;
#X connect 127 0 94 1;
#X connect 128 0 96 1;
#X connect 129 0 98 1;
#X connect 130 0 32 0;
#X connect 130 0 30 0;
#X connect 130 0 31 0;
#X connect 130 0 26 0;
#X connect 130 0 29 0;
#X connect 130 0 28 0;
#X connect 130 0 27 0;
#X connect 130 0 25 0;
#X connect 130 0 24 0;
#X connect 130 0 23 0;
#X connect 130 0 22 0;
#X connect 130 0 18 0;
#X connect 130 0 21 0;
#X connect 130 0 20 0;
#X connect 130 0 19 0;
#X connect 130 0 17 0;
#X connect 130 0 16 0;
#X connect 130 0 15 0;
#X connect 130 0 14 0;
#X connect 130 0 10 0;
#X connect 130 0 12 0;
#X connect 130 0 13 0;
#X connect 130 0 11 0;
#X connect 130 0 9 0;
#X connect 130 0 8 0;
#X connect 130 0 7 0;
#X connect 130 0 6 0;
#X connect 130 0 2 0;
#X connect 130 0 5 0;
#X connect 130 0 4 0;
#X connect 130 0 3 0;
#X connect 130 0 1 0;
#X connect 131 0 130 0;
#X connect 132 0 130 0;
#X connect 135 0 137 0;
#X connect 136 0 137 0;
#X connect 137 0 140 0;
#X connect 138 0 139 0;
#X connect 138 0 154 0;
#X connect 139 0 138 1;
#X connect 140 0 141 0;
#X connect 140 0 146 0;
#X connect 141 0 140 1;
#X connect 146 0 147 0;
#X connect 147 0 148 0;
#X connect 148 0 153 0;
#X connect 148 0 155 0;
#X connect 149 0 150 0;
#X connect 150 0 151 0;
#X connect 151 0 152 0;
#X connect 152 0 146 1;
#X connect 153 0 138 0;
#X connect 154 0 149 0;
#X connect 154 0 156 0;
#X connect 154 0 157 0;
#X connect 155 0 142 0;
#X connect 155 0 134 0;
#X connect 157 0 158 0;
#X connect 158 0 159 0;
#X connect 159 0 143 0;
#X coords 0 -1 1 1 400 240 1 100 100;
#X restore -6 -22 pd patterngridder;
#N canvas 0 83 1680 967 indodistro 0;
#X obj 100 100 cnv 15 400 280 empty empty empty 20 12 0 14 -155909
-66577 0;
#X obj 761 -38 inlet;
#X obj 1037 395 bng 15 250 50 0 empty empty empty 17 7 0 10 -262144
-1 -1;
#X obj 108 121 vsl 18 100 0 100 0 0 empty empty empty 0 -9 0 10 -259987
-1 -1 0 1;
#X obj 126 121 vsl 18 100 0 100 0 0 empty empty empty 0 -9 0 10 -259283
-1 -1 0 1;
#X obj 144 121 vsl 18 100 0 100 0 0 empty empty empty 0 -9 0 10 -260243
-1 -1 0 1;
#X obj 162 121 vsl 18 100 0 100 0 0 empty empty empty 0 -9 0 10 -259283
-1 -1 0 1;
#X obj 180 121 vsl 18 100 0 100 0 0 empty empty empty 0 -9 0 10 -259987
-1 -1 0 1;
#X text 110 102 A;
#X text 130 102 B;
#X text 148 102 C;
#X text 167 102 D;
#X text 184 102 E;
#X floatatom 744 470 3 0 0 0 - - -;
#X floatatom 902 475 3 0 0 0 - - -;
#X floatatom 1029 484 3 0 0 0 - - -;
#X floatatom 1132 479 3 0 0 0 - - -;
#X floatatom 1273 475 3 0 0 0 - - -;
#X obj 709 502 random 100;
#X obj 709 527 <;
#X obj 709 550 route 1;
#X obj 709 480 bng 15 250 50 0 empty empty empty 17 7 0 10 -262144
-1 -1;
#X obj 709 572 bng 15 250 50 0 empty empty empty 17 7 0 10 -262144
-1 -1;
#X obj 862 513 random 100;
#X obj 862 538 <;
#X obj 862 561 route 1;
#X obj 862 491 bng 15 250 50 0 empty empty empty 17 7 0 10 -262144
-1 -1;
#X obj 862 583 bng 15 250 50 0 empty empty empty 17 7 0 10 -262144
-1 -1;
#X obj 986 508 random 100;
#X obj 986 533 <;
#X obj 986 556 route 1;
#X obj 986 486 bng 15 250 50 0 empty empty empty 17 7 0 10 -262144
-1 -1;
#X obj 986 578 bng 15 250 50 0 empty empty empty 17 7 0 10 -262144
-1 -1;
#X obj 1093 502 random 100;
#X obj 1093 527 <;
#X obj 1093 550 route 1;
#X obj 1093 480 bng 15 250 50 0 empty empty empty 17 7 0 10 -262144
-1 -1;
#X obj 1093 572 bng 15 250 50 0 empty empty empty 17 7 0 10 -262144
-1 -1;
#X obj 1220 512 random 100;
#X obj 1220 537 <;
#X obj 1220 560 route 1;
#X obj 1220 490 bng 15 250 50 0 empty empty empty 17 7 0 10 -262144
-1 -1;
#X obj 1220 582 bng 15 250 50 0 empty empty empty 17 7 0 10 -262144
-1 -1;
#X obj 108 224 bng 17 250 50 0 empty empty empty 17 7 0 10 -238092
-1 -1;
#X obj 126 224 bng 17 250 50 0 empty empty empty 17 7 0 10 -238092
-1 -1;
#X obj 144 224 bng 17 250 50 0 empty empty empty 17 7 0 10 -238092
-1 -1;
#X obj 162 224 bng 17 250 50 0 empty empty empty 17 7 0 10 -238092
-1 -1;
#X obj 180 224 bng 17 250 50 0 empty empty empty 17 7 0 10 -238092
-1 -1;
#X floatatom 106 281 3 0 0 1 offset - -;
#X floatatom 106 300 2 0 8 1 oct - -;
#X obj 1087 92 *;
#X floatatom 1083 14 5 0 0 0 - - -;
#X text 107 263 A;
#X floatatom 106 321 3 0 127 1 vol - -;
#X floatatom 106 339 4 0 2500 1 length - -;
#X floatatom 106 358 3 0 0 1 s-offset - -;
#X msg -60 311 127;
#X msg -14 312 150;
#X floatatom 525 1050 5 0 48 1 sampleoffset - -;
#X obj 510 1243 outlet;
#X obj 510 1189 makenote;
#X obj 510 1211 pack 0 0;
#X floatatom 510 1159 5 0 0 0 - - -;
#N canvas 1681 54 1600 846 tonalwrapper 0;
#X obj 845 474 tabread scaler;
#X obj 826 431 mod;
#X floatatom 789 337 5 0 0 0 - - -;
#X obj 937 122 r scale_notes;
#X obj 788 570 +;
#X obj 773 428 /;
#X obj 773 451 int;
#X obj 777 477 *;
#X obj 873 432 r tuning_notes;
#X floatatom 786 598 5 0 0 0 - - -;
#X floatatom 770 395 5 0 0 0 - - -;
#X floatatom 816 395 5 0 0 0 - - -;
#X obj 854 525 bng 15 250 50 0 empty empty empty 17 7 0 10 -262144
-1 -1;
#X obj 779 85 inlet;
#X obj 929 782 outlet;
#X obj 1022 293 spigot 1;
#X obj 927 292 spigot 1;
#X obj 972 271 != 1;
#X obj 984 211 > 9;
#X connect 0 0 4 0;
#X connect 0 0 12 0;
#X connect 1 0 0 0;
#X connect 2 0 10 0;
#X connect 2 0 11 0;
#X connect 3 0 1 1;
#X connect 3 0 5 1;
#X connect 3 0 18 0;
#X connect 4 0 9 0;
#X connect 5 0 6 0;
#X connect 6 0 7 0;
#X connect 7 0 4 1;
#X connect 8 0 7 1;
#X connect 9 0 14 0;
#X connect 10 0 5 0;
#X connect 11 0 1 0;
#X connect 12 0 10 0;
#X connect 13 0 16 0;
#X connect 13 0 15 0;
#X connect 15 0 14 0;
#X connect 16 0 2 0;
#X connect 17 0 16 1;
#X connect 18 0 17 0;
#X connect 18 0 15 1;
#X restore 510 1138 pd tonalwrapper;
#X floatatom 510 1096 5 0 0 0 - - -;
#X obj 510 1117 int;
#X obj 510 1071 +;
#N canvas 53 109 1280 940 cogseq 0;
#X obj 100 100 cnv 15 265 160 empty empty empty 20 12 0 14 -71634 -66577
0;
#X obj -1 306 == 0;
#X obj 0 326 route 1;
#X obj -301 -443 inlet;
#N canvas 1 87 450 300 (subpatch) 0;
#X array cogs1 100 float 3;
#A 0 20.0039 18.9974 20.0039 10.0013 15.0026 20.0039 10.0013 20.0039
15.0026 10.0013 20.0039 13.9961 8.00387 17 10.9923 17 8.00387 13.9961
20.0039 17 13.9961 10.9923 8.00387 10.9923 13.9961 17 20.0039 20.0039
20.0039 20.0039 20.0039 20.0039 20.0039 20.0039 20.0039 20.0039 20.0039
20.0039 20.0039 18.9974 18.0065 17 15.9935 17 18.0065 18.9974 20.0039
18.9974 18.0065 17 15.9935 17 18.0065 18.9974 20.0039 18.9974 18.0065
17 15.9935 17 18.0065 18.9974 20.0039 18.9974 18.0065 17 15.9935 17
18.0065 18.9974 20.0039 18.9974 18.0065 17 15.9935 17 18.0065 18.9974
20.0039 18.9974 18.0065 17 15.9935 15.9935 15.9935 15.9935 15.9935
6.00645 13.9961 17 13.9961 10.9923 8.00387 20.0039 18.9974 18.0065
17 15.9935 17 18.0065;
#X coords 0 48 99 0 160 60 1 0 0;
#X restore 102 111 graph;
#X obj 102 111 cnv 15 160 60 empty empty empty 20 12 0 14 -72018 -66577
0;
#X obj 81 -364 loadbang;
#X msg 0 350 \; cogs1 const 0;
#X obj -46 357 outlet;
#X text -47 373 index;
#X floatatom -85 293 5 0 0 0 - - -;
#X obj -1 277 + 1;
#X obj -2 254 mod 99;
#X obj -412 -9 metro;
#X msg -418 -64 bang;
#X msg -383 -63 stop;
#X floatatom -367 -37 5 0 0 0 - - -;
#X obj -411 15 bng 15 250 50 0 empty empty empty 17 7 0 10 -262144
-1 -1;
#X obj -305 123 int;
#X obj -305 -277 bng 15 250 50 0 empty empty empty 17 7 0 10 -262144
-1 -1;
#X floatatom -305 158 5 0 0 0 - - -;
#X floatatom -305 326 5 0 0 0 - - -;
#X obj -305 301 +;
#X floatatom 276 133 3 0 48 1 base - -;
#X floatatom -305 272 5 0 0 0 - - -;
#X obj -305 217 mod 48;
#X floatatom 277 113 3 4 48 1 modulo - -;
#X obj -262 32 sin;
#X obj -262 57 *;
#X obj -262 86 +;
#X floatatom 187 215 3 0 0 1 base - -;
#X floatatom 187 195 3 0 0 1 multi - -;
#X floatatom -305 243 5 0 0 0 - - -;
#X obj -227 -262 int;
#X floatatom -227 -239 5 0 0 0 - - -;
#X obj -199 -262 + 1;
#X obj -277 123 + 1;
#X obj -227 -127 sin;
#X obj -227 -101 *;
#X obj -227 -150 /;
#X obj -227 -75 +;
#X floatatom 108 232 3 0 0 1 base - -;
#X floatatom 108 213 3 0 0 1 multi - -;
#X floatatom 108 194 3 0 0 1 div - -;
#X obj -227 -53 abs;
#X floatatom -227 -31 5 0 0 0 - - -;
#X obj 191 -393 loadbang;
#X msg 57 -227 12;
#X msg 85 -227 5;
#X msg 113 -227 9;
#X msg 239 -238 23;
#X msg 211 -238 3;
#X msg 267 -238 0;
#X obj 239 -266 bng 15 250 50 0 empty empty empty 17 7 0 10 -262144
-1 -1;
#X obj 85 -257 bng 15 250 50 0 empty empty empty 17 7 0 10 -262144
-1 -1;
#X obj -201 343 tabwrite cogs1;
#X obj -301 -419 bng 15 250 50 0 empty empty empty 17 7 0 10 -262144
-1 -1;
#X text 106 175 Factor 1;
#X text 184 175 Factor 2;
#X text 165 174 ->;
#X connect 1 0 2 0;
#X connect 2 0 7 0;
#X connect 3 0 56 0;
#X connect 11 0 1 0;
#X connect 11 0 8 0;
#X connect 11 0 55 1;
#X connect 12 0 10 0;
#X connect 12 0 11 0;
#X connect 13 0 17 0;
#X connect 14 0 13 0;
#X connect 15 0 13 0;
#X connect 16 0 13 1;
#X connect 18 0 20 0;
#X connect 18 0 36 0;
#X connect 19 0 18 0;
#X connect 19 0 33 0;
#X connect 20 0 25 0;
#X connect 20 0 27 0;
#X connect 21 0 55 0;
#X connect 22 0 21 0;
#X connect 23 0 22 1;
#X connect 24 0 22 0;
#X connect 25 0 32 0;
#X connect 26 0 25 1;
#X connect 27 0 28 0;
#X connect 28 0 29 0;
#X connect 29 0 36 1;
#X connect 30 0 29 1;
#X connect 31 0 28 1;
#X connect 32 0 24 0;
#X connect 33 0 34 0;
#X connect 33 0 35 0;
#X connect 33 0 12 0;
#X connect 34 0 39 0;
#X connect 35 0 33 1;
#X connect 36 0 18 1;
#X connect 37 0 38 0;
#X connect 38 0 40 0;
#X connect 39 0 37 0;
#X connect 40 0 44 0;
#X connect 41 0 40 1;
#X connect 42 0 38 1;
#X connect 43 0 39 1;
#X connect 44 0 45 0;
#X connect 45 0 31 0;
#X connect 46 0 54 0;
#X connect 46 0 53 0;
#X connect 47 0 43 0;
#X connect 48 0 42 0;
#X connect 49 0 41 0;
#X connect 50 0 26 0;
#X connect 51 0 30 0;
#X connect 52 0 23 0;
#X connect 53 0 51 0;
#X connect 53 0 50 0;
#X connect 53 0 52 0;
#X connect 54 0 47 0;
#X connect 54 0 48 0;
#X connect 54 0 49 0;
#X connect 56 0 19 0;
#X coords 0 -1 1 1 265 160 1 100 100;
#X restore 217 105 pd cogseq;
#X floatatom 123 646 5 0 0 0 - - -;
#N canvas 1 83 450 300 (subpatch) 0;
#X array indeksi 2 float 3;
#A 0 87 0;
#X coords 0 100 2 0 200 140 1 0 0;
#X restore 64 809 graph;
#X obj 123 686 tabwrite indeksi;
#X msg 228 685 0;
#X floatatom 123 669 5 0 0 0 - - -;
#X obj 761 5 bng 15 250 50 0 empty empty empty 17 7 0 10 -262144 -1
-1;
#X obj 711 615 tabread indeksi;
#X msg 711 590 0;
#X floatatom 711 660 5 0 0 0 - - -;
#X floatatom 711 700 5 0 0 0 - - -;
#X obj 711 680 tabread cogs1;
#X floatatom 184 281 3 0 0 1 offset - -;
#X floatatom 184 300 2 0 8 1 oct - -;
#X floatatom 184 321 3 0 127 1 vol - -;
#X floatatom 184 339 4 0 2500 1 length - -;
#X floatatom 184 358 3 0 0 1 s-offset - -;
#X floatatom 261 281 3 0 0 1 offset - -;
#X floatatom 261 300 2 0 8 1 oct - -;
#X floatatom 261 321 3 0 127 1 vol - -;
#X floatatom 261 339 4 0 2500 1 length - -;
#X floatatom 261 358 3 0 0 1 s-offset - -;
#X floatatom 336 282 3 0 0 1 offset - -;
#X floatatom 336 301 2 0 8 1 oct - -;
#X floatatom 336 322 3 0 127 1 vol - -;
#X floatatom 336 340 4 0 2500 1 length - -;
#X floatatom 336 359 3 0 0 1 s-offset - -;
#X floatatom 413 282 3 0 0 1 offset - -;
#X floatatom 413 301 2 0 8 1 oct - -;
#X floatatom 413 322 3 0 127 1 vol - -;
#X floatatom 413 340 4 0 2500 1 length - -;
#X floatatom 413 359 3 0 0 1 s-offset - -;
#X floatatom 607 1007 5 0 0 0 - - -;
#X floatatom 572 1008 5 0 0 0 - - -;
#X obj 414 1244 outlet;
#X obj 414 1190 makenote;
#X obj 414 1212 pack 0 0;
#X floatatom 414 1160 5 0 0 0 - - -;
#N canvas 1681 54 1600 846 tonalwrapper 0;
#X obj 845 474 tabread scaler;
#X obj 826 431 mod;
#X floatatom 789 337 5 0 0 0 - - -;
#X obj 937 122 r scale_notes;
#X obj 788 570 +;
#X obj 773 428 /;
#X obj 773 451 int;
#X obj 777 477 *;
#X obj 873 432 r tuning_notes;
#X floatatom 786 598 5 0 0 0 - - -;
#X floatatom 770 395 5 0 0 0 - - -;
#X floatatom 816 395 5 0 0 0 - - -;
#X obj 854 525 bng 15 250 50 0 empty empty empty 17 7 0 10 -262144
-1 -1;
#X obj 779 85 inlet;
#X obj 929 782 outlet;
#X obj 1022 293 spigot 1;
#X obj 927 292 spigot 1;
#X obj 972 271 != 1;
#X obj 984 211 > 9;
#X connect 0 0 4 0;
#X connect 0 0 12 0;
#X connect 1 0 0 0;
#X connect 2 0 10 0;
#X connect 2 0 11 0;
#X connect 3 0 1 1;
#X connect 3 0 5 1;
#X connect 3 0 18 0;
#X connect 4 0 9 0;
#X connect 5 0 6 0;
#X connect 6 0 7 0;
#X connect 7 0 4 1;
#X connect 8 0 7 1;
#X connect 9 0 14 0;
#X connect 10 0 5 0;
#X connect 11 0 1 0;
#X connect 12 0 10 0;
#X connect 13 0 16 0;
#X connect 13 0 15 0;
#X connect 15 0 14 0;
#X connect 16 0 2 0;
#X connect 17 0 16 1;
#X connect 18 0 17 0;
#X connect 18 0 15 1;
#X restore 414 1139 pd tonalwrapper;
#X floatatom 414 1097 5 0 0 0 - - -;
#X obj 414 1118 int;
#X floatatom 739 1052 5 0 48 1 sampleoffset - -;
#X obj 724 1245 outlet;
#X obj 724 1191 makenote;
#X obj 724 1213 pack 0 0;
#X floatatom 724 1161 5 0 0 0 - - -;
#N canvas 1681 54 1600 846 tonalwrapper 0;
#X obj 845 474 tabread scaler;
#X obj 826 431 mod;
#X floatatom 789 337 5 0 0 0 - - -;
#X obj 937 122 r scale_notes;
#X obj 788 570 +;
#X obj 773 428 /;
#X obj 773 451 int;
#X obj 777 477 *;
#X obj 873 432 r tuning_notes;
#X floatatom 786 598 5 0 0 0 - - -;
#X floatatom 770 395 5 0 0 0 - - -;
#X floatatom 816 395 5 0 0 0 - - -;
#X obj 854 525 bng 15 250 50 0 empty empty empty 17 7 0 10 -262144
-1 -1;
#X obj 779 85 inlet;
#X obj 929 782 outlet;
#X obj 1022 293 spigot 1;
#X obj 927 292 spigot 1;
#X obj 972 271 != 1;
#X obj 984 211 > 9;
#X connect 0 0 4 0;
#X connect 0 0 12 0;
#X connect 1 0 0 0;
#X connect 2 0 10 0;
#X connect 2 0 11 0;
#X connect 3 0 1 1;
#X connect 3 0 5 1;
#X connect 3 0 18 0;
#X connect 4 0 9 0;
#X connect 5 0 6 0;
#X connect 6 0 7 0;
#X connect 7 0 4 1;
#X connect 8 0 7 1;
#X connect 9 0 14 0;
#X connect 10 0 5 0;
#X connect 11 0 1 0;
#X connect 12 0 10 0;
#X connect 13 0 16 0;
#X connect 13 0 15 0;
#X connect 15 0 14 0;
#X connect 16 0 2 0;
#X connect 17 0 16 1;
#X connect 18 0 17 0;
#X connect 18 0 15 1;
#X restore 724 1140 pd tonalwrapper;
#X floatatom 724 1098 5 0 0 0 - - -;
#X obj 724 1119 int;
#X obj 724 1073 +;
#X floatatom 821 1009 5 0 0 0 - - -;
#X floatatom 786 1010 5 0 0 0 - - -;
#X obj 628 1246 outlet;
#X obj 628 1192 makenote;
#X obj 628 1214 pack 0 0;
#X floatatom 628 1162 5 0 0 0 - - -;
#N canvas 1681 54 1600 846 tonalwrapper 0;
#X obj 845 474 tabread scaler;
#X obj 826 431 mod;
#X floatatom 789 337 5 0 0 0 - - -;
#X obj 937 122 r scale_notes;
#X obj 788 570 +;
#X obj 773 428 /;
#X obj 773 451 int;
#X obj 777 477 *;
#X obj 873 432 r tuning_notes;
#X floatatom 786 598 5 0 0 0 - - -;
#X floatatom 770 395 5 0 0 0 - - -;
#X floatatom 816 395 5 0 0 0 - - -;
#X obj 854 525 bng 15 250 50 0 empty empty empty 17 7 0 10 -262144
-1 -1;
#X obj 779 85 inlet;
#X obj 929 782 outlet;
#X obj 1022 293 spigot 1;
#X obj 927 292 spigot 1;
#X obj 972 271 != 1;
#X obj 984 211 > 9;
#X connect 0 0 4 0;
#X connect 0 0 12 0;
#X connect 1 0 0 0;
#X connect 2 0 10 0;
#X connect 2 0 11 0;
#X connect 3 0 1 1;
#X connect 3 0 5 1;
#X connect 3 0 18 0;
#X connect 4 0 9 0;
#X connect 5 0 6 0;
#X connect 6 0 7 0;
#X connect 7 0 4 1;
#X connect 8 0 7 1;
#X connect 9 0 14 0;
#X connect 10 0 5 0;
#X connect 11 0 1 0;
#X connect 12 0 10 0;
#X connect 13 0 16 0;
#X connect 13 0 15 0;
#X connect 15 0 14 0;
#X connect 16 0 2 0;
#X connect 17 0 16 1;
#X connect 18 0 17 0;
#X connect 18 0 15 1;
#X restore 628 1141 pd tonalwrapper;
#X floatatom 628 1099 5 0 0 0 - - -;
#X obj 628 1120 int;
#X floatatom 945 1047 5 0 48 1 sampleoffset - -;
#X obj 930 1240 outlet;
#X obj 930 1186 makenote;
#X obj 930 1208 pack 0 0;
#X floatatom 930 1156 5 0 0 0 - - -;
#N canvas 1681 54 1600 846 tonalwrapper 0;
#X obj 845 474 tabread scaler;
#X obj 826 431 mod;
#X floatatom 789 337 5 0 0 0 - - -;
#X obj 937 122 r scale_notes;
#X obj 788 570 +;
#X obj 773 428 /;
#X obj 773 451 int;
#X obj 777 477 *;
#X obj 873 432 r tuning_notes;
#X floatatom 786 598 5 0 0 0 - - -;
#X floatatom 770 395 5 0 0 0 - - -;
#X floatatom 816 395 5 0 0 0 - - -;
#X obj 854 525 bng 15 250 50 0 empty empty empty 17 7 0 10 -262144
-1 -1;
#X obj 779 85 inlet;
#X obj 929 782 outlet;
#X obj 1022 293 spigot 1;
#X obj 927 292 spigot 1;
#X obj 972 271 != 1;
#X obj 984 211 > 9;
#X connect 0 0 4 0;
#X connect 0 0 12 0;
#X connect 1 0 0 0;
#X connect 2 0 10 0;
#X connect 2 0 11 0;
#X connect 3 0 1 1;
#X connect 3 0 5 1;
#X connect 3 0 18 0;
#X connect 4 0 9 0;
#X connect 5 0 6 0;
#X connect 6 0 7 0;
#X connect 7 0 4 1;
#X connect 8 0 7 1;
#X connect 9 0 14 0;
#X connect 10 0 5 0;
#X connect 11 0 1 0;
#X connect 12 0 10 0;
#X connect 13 0 16 0;
#X connect 13 0 15 0;
#X connect 15 0 14 0;
#X connect 16 0 2 0;
#X connect 17 0 16 1;
#X connect 18 0 17 0;
#X connect 18 0 15 1;
#X restore 930 1135 pd tonalwrapper;
#X floatatom 930 1093 5 0 0 0 - - -;
#X obj 930 1114 int;
#X obj 930 1068 +;
#X floatatom 1027 1004 5 0 0 0 - - -;
#X floatatom 992 1005 5 0 0 0 - - -;
#X obj 834 1241 outlet;
#X obj 834 1187 makenote;
#X obj 834 1209 pack 0 0;
#X floatatom 834 1157 5 0 0 0 - - -;
#N canvas 1681 54 1600 846 tonalwrapper 0;
#X obj 845 474 tabread scaler;
#X obj 826 431 mod;
#X floatatom 789 337 5 0 0 0 - - -;
#X obj 937 122 r scale_notes;
#X obj 788 570 +;
#X obj 773 428 /;
#X obj 773 451 int;
#X obj 777 477 *;
#X obj 873 432 r tuning_notes;
#X floatatom 786 598 5 0 0 0 - - -;
#X floatatom 770 395 5 0 0 0 - - -;
#X floatatom 816 395 5 0 0 0 - - -;
#X obj 854 525 bng 15 250 50 0 empty empty empty 17 7 0 10 -262144
-1 -1;
#X obj 779 85 inlet;
#X obj 929 782 outlet;
#X obj 1022 293 spigot 1;
#X obj 927 292 spigot 1;
#X obj 972 271 != 1;
#X obj 984 211 > 9;
#X connect 0 0 4 0;
#X connect 0 0 12 0;
#X connect 1 0 0 0;
#X connect 2 0 10 0;
#X connect 2 0 11 0;
#X connect 3 0 1 1;
#X connect 3 0 5 1;
#X connect 3 0 18 0;
#X connect 4 0 9 0;
#X connect 5 0 6 0;
#X connect 6 0 7 0;
#X connect 7 0 4 1;
#X connect 8 0 7 1;
#X connect 9 0 14 0;
#X connect 10 0 5 0;
#X connect 11 0 1 0;
#X connect 12 0 10 0;
#X connect 13 0 16 0;
#X connect 13 0 15 0;
#X connect 15 0 14 0;
#X connect 16 0 2 0;
#X connect 17 0 16 1;
#X connect 18 0 17 0;
#X connect 18 0 15 1;
#X restore 834 1136 pd tonalwrapper;
#X floatatom 834 1094 5 0 0 0 - - -;
#X obj 834 1115 int;
#X floatatom 1159 1049 5 0 48 1 sampleoffset - -;
#X obj 1144 1242 outlet;
#X obj 1144 1188 makenote;
#X obj 1144 1210 pack 0 0;
#X floatatom 1144 1158 5 0 0 0 - - -;
#N canvas 1681 54 1600 846 tonalwrapper 0;
#X obj 845 474 tabread scaler;
#X obj 826 431 mod;
#X floatatom 789 337 5 0 0 0 - - -;
#X obj 937 122 r scale_notes;
#X obj 788 570 +;
#X obj 773 428 /;
#X obj 773 451 int;
#X obj 777 477 *;
#X obj 873 432 r tuning_notes;
#X floatatom 786 598 5 0 0 0 - - -;
#X floatatom 770 395 5 0 0 0 - - -;
#X floatatom 816 395 5 0 0 0 - - -;
#X obj 854 525 bng 15 250 50 0 empty empty empty 17 7 0 10 -262144
-1 -1;
#X obj 779 85 inlet;
#X obj 929 782 outlet;
#X obj 1022 293 spigot 1;
#X obj 927 292 spigot 1;
#X obj 972 271 != 1;
#X obj 984 211 > 9;
#X connect 0 0 4 0;
#X connect 0 0 12 0;
#X connect 1 0 0 0;
#X connect 2 0 10 0;
#X connect 2 0 11 0;
#X connect 3 0 1 1;
#X connect 3 0 5 1;
#X connect 3 0 18 0;
#X connect 4 0 9 0;
#X connect 5 0 6 0;
#X connect 6 0 7 0;
#X connect 7 0 4 1;
#X connect 8 0 7 1;
#X connect 9 0 14 0;
#X connect 10 0 5 0;
#X connect 11 0 1 0;
#X connect 12 0 10 0;
#X connect 13 0 16 0;
#X connect 13 0 15 0;
#X connect 15 0 14 0;
#X connect 16 0 2 0;
#X connect 17 0 16 1;
#X connect 18 0 17 0;
#X connect 18 0 15 1;
#X restore 1144 1137 pd tonalwrapper;
#X floatatom 1144 1095 5 0 0 0 - - -;
#X obj 1144 1116 int;
#X obj 1144 1070 +;
#X floatatom 1241 1006 5 0 0 0 - - -;
#X floatatom 1206 1007 5 0 0 0 - - -;
#X obj 1048 1243 outlet;
#X obj 1048 1189 makenote;
#X obj 1048 1211 pack 0 0;
#X floatatom 1048 1159 5 0 0 0 - - -;
#N canvas 1681 54 1600 846 tonalwrapper 0;
#X obj 845 474 tabread scaler;
#X obj 826 431 mod;
#X floatatom 789 337 5 0 0 0 - - -;
#X obj 937 122 r scale_notes;
#X obj 788 570 +;
#X obj 773 428 /;
#X obj 773 451 int;
#X obj 777 477 *;
#X obj 873 432 r tuning_notes;
#X floatatom 786 598 5 0 0 0 - - -;
#X floatatom 770 395 5 0 0 0 - - -;
#X floatatom 816 395 5 0 0 0 - - -;
#X obj 854 525 bng 15 250 50 0 empty empty empty 17 7 0 10 -262144
-1 -1;
#X obj 779 85 inlet;
#X obj 929 782 outlet;
#X obj 1022 293 spigot 1;
#X obj 927 292 spigot 1;
#X obj 972 271 != 1;
#X obj 984 211 > 9;
#X connect 0 0 4 0;
#X connect 0 0 12 0;
#X connect 1 0 0 0;
#X connect 2 0 10 0;
#X connect 2 0 11 0;
#X connect 3 0 1 1;
#X connect 3 0 5 1;
#X connect 3 0 18 0;
#X connect 4 0 9 0;
#X connect 5 0 6 0;
#X connect 6 0 7 0;
#X connect 7 0 4 1;
#X connect 8 0 7 1;
#X connect 9 0 14 0;
#X connect 10 0 5 0;
#X connect 11 0 1 0;
#X connect 12 0 10 0;
#X connect 13 0 16 0;
#X connect 13 0 15 0;
#X connect 15 0 14 0;
#X connect 16 0 2 0;
#X connect 17 0 16 1;
#X connect 18 0 17 0;
#X connect 18 0 15 1;
#X restore 1048 1138 pd tonalwrapper;
#X floatatom 1048 1096 5 0 0 0 - - -;
#X obj 1048 1117 int;
#X floatatom 1360 1046 5 0 48 1 sampleoffset - -;
#X obj 1345 1239 outlet;
#X obj 1345 1185 makenote;
#X obj 1345 1207 pack 0 0;
#X floatatom 1345 1155 5 0 0 0 - - -;
#N canvas 1681 54 1600 846 tonalwrapper 0;
#X obj 845 474 tabread scaler;
#X obj 826 431 mod;
#X floatatom 789 337 5 0 0 0 - - -;
#X obj 937 122 r scale_notes;
#X obj 788 570 +;
#X obj 773 428 /;
#X obj 773 451 int;
#X obj 777 477 *;
#X obj 873 432 r tuning_notes;
#X floatatom 786 598 5 0 0 0 - - -;
#X floatatom 770 395 5 0 0 0 - - -;
#X floatatom 816 395 5 0 0 0 - - -;
#X obj 854 525 bng 15 250 50 0 empty empty empty 17 7 0 10 -262144
-1 -1;
#X obj 779 85 inlet;
#X obj 929 782 outlet;
#X obj 1022 293 spigot 1;
#X obj 927 292 spigot 1;
#X obj 972 271 != 1;
#X obj 984 211 > 9;
#X connect 0 0 4 0;
#X connect 0 0 12 0;
#X connect 1 0 0 0;
#X connect 2 0 10 0;
#X connect 2 0 11 0;
#X connect 3 0 1 1;
#X connect 3 0 5 1;
#X connect 3 0 18 0;
#X connect 4 0 9 0;
#X connect 5 0 6 0;
#X connect 6 0 7 0;
#X connect 7 0 4 1;
#X connect 8 0 7 1;
#X connect 9 0 14 0;
#X connect 10 0 5 0;
#X connect 11 0 1 0;
#X connect 12 0 10 0;
#X connect 13 0 16 0;
#X connect 13 0 15 0;
#X connect 15 0 14 0;
#X connect 16 0 2 0;
#X connect 17 0 16 1;
#X connect 18 0 17 0;
#X connect 18 0 15 1;
#X restore 1345 1134 pd tonalwrapper;
#X floatatom 1345 1092 5 0 0 0 - - -;
#X obj 1345 1113 int;
#X obj 1345 1067 +;
#X floatatom 1372 1002 5 0 0 0 - - -;
#X floatatom 1337 1003 5 0 0 0 - - -;
#X obj 1249 1240 outlet;
#X obj 1249 1186 makenote;
#X obj 1249 1208 pack 0 0;
#X floatatom 1249 1156 5 0 0 0 - - -;
#N canvas 1681 54 1600 846 tonalwrapper 0;
#X obj 845 474 tabread scaler;
#X obj 826 431 mod;
#X floatatom 789 337 5 0 0 0 - - -;
#X obj 937 122 r scale_notes;
#X obj 788 570 +;
#X obj 773 428 /;
#X obj 773 451 int;
#X obj 777 477 *;
#X obj 873 432 r tuning_notes;
#X floatatom 786 598 5 0 0 0 - - -;
#X floatatom 770 395 5 0 0 0 - - -;
#X floatatom 816 395 5 0 0 0 - - -;
#X obj 854 525 bng 15 250 50 0 empty empty empty 17 7 0 10 -262144
-1 -1;
#X obj 779 85 inlet;
#X obj 929 782 outlet;
#X obj 1022 293 spigot 1;
#X obj 927 292 spigot 1;
#X obj 972 271 != 1;
#X obj 984 211 > 9;
#X connect 0 0 4 0;
#X connect 0 0 12 0;
#X connect 1 0 0 0;
#X connect 2 0 10 0;
#X connect 2 0 11 0;
#X connect 3 0 1 1;
#X connect 3 0 5 1;
#X connect 3 0 18 0;
#X connect 4 0 9 0;
#X connect 5 0 6 0;
#X connect 6 0 7 0;
#X connect 7 0 4 1;
#X connect 8 0 7 1;
#X connect 9 0 14 0;
#X connect 10 0 5 0;
#X connect 11 0 1 0;
#X connect 12 0 10 0;
#X connect 13 0 16 0;
#X connect 13 0 15 0;
#X connect 15 0 14 0;
#X connect 16 0 2 0;
#X connect 17 0 16 1;
#X connect 18 0 17 0;
#X connect 18 0 15 1;
#X restore 1249 1135 pd tonalwrapper;
#X floatatom 1249 1093 5 0 0 0 - - -;
#X obj 1249 1114 int;
#X obj 711 722 int;
#X obj 711 750 +;
#X obj 862 627 tabread indeksi;
#X msg 862 602 0;
#X floatatom 862 672 5 0 0 0 - - -;
#X floatatom 862 712 5 0 0 0 - - -;
#X obj 862 692 tabread cogs1;
#X obj 862 734 int;
#X obj 862 762 +;
#X obj 986 626 tabread indeksi;
#X msg 986 601 0;
#X floatatom 986 671 5 0 0 0 - - -;
#X floatatom 986 711 5 0 0 0 - - -;
#X obj 986 691 tabread cogs1;
#X obj 986 733 int;
#X obj 986 761 +;
#X obj 1093 624 tabread indeksi;
#X msg 1093 599 0;
#X floatatom 1093 669 5 0 0 0 - - -;
#X floatatom 1093 709 5 0 0 0 - - -;
#X obj 1093 689 tabread cogs1;
#X obj 1093 731 int;
#X obj 1093 759 +;
#X obj 1220 635 tabread indeksi;
#X msg 1220 610 0;
#X floatatom 1220 680 5 0 0 0 - - -;
#X floatatom 1220 720 5 0 0 0 - - -;
#X obj 1220 700 tabread cogs1;
#X obj 1220 742 int;
#X obj 1220 770 +;
#X obj -31 283 loadbang;
#X text -29 263 Presets;
#X obj 1086 123 *;
#X obj 1084 148 *;
#X obj 1083 179 *;
#X obj 1082 206 *;
#X text 185 263 B;
#X text 262 263 C;
#X text 337 264 D;
#X text 414 264 E;
#X obj 1037 346 delay 2;
#X obj 1083 -11 r scale_notes;
#X obj 711 637 - 0;
#X obj 862 649 - 0;
#X obj 986 648 - 0;
#X obj 1093 646 - 0;
#X obj 1220 657 - 0;
#X connect 1 0 73 0;
#X connect 1 0 220 0;
#X connect 2 0 21 0;
#X connect 2 0 26 0;
#X connect 2 0 31 0;
#X connect 2 0 36 0;
#X connect 2 0 41 0;
#X connect 3 0 13 0;
#X connect 4 0 14 0;
#X connect 5 0 15 0;
#X connect 6 0 16 0;
#X connect 7 0 17 0;
#X connect 13 0 19 1;
#X connect 14 0 24 1;
#X connect 15 0 29 1;
#X connect 16 0 34 1;
#X connect 17 0 39 1;
#X connect 18 0 19 0;
#X connect 19 0 20 0;
#X connect 20 0 22 0;
#X connect 21 0 18 0;
#X connect 22 0 43 0;
#X connect 22 0 75 0;
#X connect 23 0 24 0;
#X connect 24 0 25 0;
#X connect 25 0 27 0;
#X connect 26 0 23 0;
#X connect 27 0 44 0;
#X connect 27 0 183 0;
#X connect 28 0 29 0;
#X connect 29 0 30 0;
#X connect 30 0 32 0;
#X connect 31 0 28 0;
#X connect 32 0 45 0;
#X connect 32 0 190 0;
#X connect 33 0 34 0;
#X connect 34 0 35 0;
#X connect 35 0 37 0;
#X connect 36 0 33 0;
#X connect 37 0 46 0;
#X connect 37 0 197 0;
#X connect 38 0 39 0;
#X connect 39 0 40 0;
#X connect 40 0 42 0;
#X connect 41 0 38 0;
#X connect 42 0 47 0;
#X connect 42 0 204 0;
#X connect 48 0 181 1;
#X connect 49 0 50 0;
#X connect 50 0 48 0;
#X connect 51 0 50 1;
#X connect 51 0 212 1;
#X connect 51 0 213 1;
#X connect 51 0 214 1;
#X connect 51 0 215 1;
#X connect 53 0 100 0;
#X connect 54 0 99 0;
#X connect 55 0 58 0;
#X connect 56 0 53 0;
#X connect 56 0 81 0;
#X connect 56 0 86 0;
#X connect 56 0 91 0;
#X connect 56 0 96 0;
#X connect 57 0 54 0;
#X connect 57 0 82 0;
#X connect 57 0 87 0;
#X connect 57 0 92 0;
#X connect 57 0 97 0;
#X connect 58 0 66 1;
#X connect 60 0 61 0;
#X connect 60 1 61 1;
#X connect 61 0 59 0;
#X connect 62 0 60 0;
#X connect 63 0 62 0;
#X connect 64 0 65 0;
#X connect 65 0 63 0;
#X connect 66 0 64 0;
#X connect 67 0 68 0;
#X connect 68 0 72 0;
#X connect 71 0 70 1;
#X connect 72 0 71 0;
#X connect 72 0 70 0;
#X connect 73 0 67 0;
#X connect 74 0 222 0;
#X connect 75 0 74 0;
#X connect 76 0 78 0;
#X connect 77 0 180 0;
#X connect 78 0 77 0;
#X connect 79 0 188 1;
#X connect 80 0 212 0;
#X connect 81 0 118 0;
#X connect 82 0 117 0;
#X connect 83 0 108 0;
#X connect 84 0 195 1;
#X connect 85 0 213 0;
#X connect 86 0 136 0;
#X connect 87 0 135 0;
#X connect 88 0 126 0;
#X connect 89 0 202 1;
#X connect 90 0 214 0;
#X connect 91 0 154 0;
#X connect 92 0 153 0;
#X connect 93 0 144 0;
#X connect 94 0 209 1;
#X connect 95 0 215 0;
#X connect 96 0 172 0;
#X connect 97 0 171 0;
#X connect 98 0 162 0;
#X connect 99 0 102 2;
#X connect 99 0 60 2;
#X connect 100 0 102 1;
#X connect 100 0 60 1;
#X connect 102 0 103 0;
#X connect 102 1 103 1;
#X connect 103 0 101 0;
#X connect 104 0 102 0;
#X connect 105 0 104 0;
#X connect 106 0 107 0;
#X connect 107 0 105 0;
#X connect 108 0 116 1;
#X connect 110 0 111 0;
#X connect 110 1 111 1;
#X connect 111 0 109 0;
#X connect 112 0 110 0;
#X connect 113 0 112 0;
#X connect 114 0 115 0;
#X connect 115 0 113 0;
#X connect 116 0 114 0;
#X connect 117 0 120 2;
#X connect 117 0 110 2;
#X connect 118 0 120 1;
#X connect 118 0 110 1;
#X connect 120 0 121 0;
#X connect 120 1 121 1;
#X connect 121 0 119 0;
#X connect 122 0 120 0;
#X connect 123 0 122 0;
#X connect 124 0 125 0;
#X connect 125 0 123 0;
#X connect 126 0 134 1;
#X connect 128 0 129 0;
#X connect 128 1 129 1;
#X connect 129 0 127 0;
#X connect 130 0 128 0;
#X connect 131 0 130 0;
#X connect 132 0 133 0;
#X connect 133 0 131 0;
#X connect 134 0 132 0;
#X connect 135 0 138 2;
#X connect 135 0 128 2;
#X connect 136 0 138 1;
#X connect 136 0 128 1;
#X connect 138 0 139 0;
#X connect 138 1 139 1;
#X connect 139 0 137 0;
#X connect 140 0 138 0;
#X connect 141 0 140 0;
#X connect 142 0 143 0;
#X connect 143 0 141 0;
#X connect 144 0 152 1;
#X connect 146 0 147 0;
#X connect 146 1 147 1;
#X connect 147 0 145 0;
#X connect 148 0 146 0;
#X connect 149 0 148 0;
#X connect 150 0 151 0;
#X connect 151 0 149 0;
#X connect 152 0 150 0;
#X connect 153 0 156 2;
#X connect 153 0 146 2;
#X connect 154 0 156 1;
#X connect 154 0 146 1;
#X connect 156 0 157 0;
#X connect 156 1 157 1;
#X connect 157 0 155 0;
#X connect 158 0 156 0;
#X connect 159 0 158 0;
#X connect 160 0 161 0;
#X connect 161 0 159 0;
#X connect 162 0 170 1;
#X connect 164 0 165 0;
#X connect 164 1 165 1;
#X connect 165 0 163 0;
#X connect 166 0 164 0;
#X connect 167 0 166 0;
#X connect 168 0 169 0;
#X connect 169 0 167 0;
#X connect 170 0 168 0;
#X connect 171 0 174 2;
#X connect 171 0 164 2;
#X connect 172 0 174 1;
#X connect 172 0 164 1;
#X connect 174 0 175 0;
#X connect 174 1 175 1;
#X connect 175 0 173 0;
#X connect 176 0 174 0;
#X connect 177 0 176 0;
#X connect 178 0 179 0;
#X connect 179 0 177 0;
#X connect 180 0 181 0;
#X connect 181 0 106 0;
#X connect 181 0 66 0;
#X connect 182 0 223 0;
#X connect 183 0 182 0;
#X connect 184 0 186 0;
#X connect 185 0 187 0;
#X connect 186 0 185 0;
#X connect 187 0 188 0;
#X connect 188 0 124 0;
#X connect 188 0 116 0;
#X connect 189 0 224 0;
#X connect 190 0 189 0;
#X connect 191 0 193 0;
#X connect 192 0 194 0;
#X connect 193 0 192 0;
#X connect 194 0 195 0;
#X connect 195 0 142 0;
#X connect 195 0 134 0;
#X connect 196 0 225 0;
#X connect 197 0 196 0;
#X connect 198 0 200 0;
#X connect 199 0 201 0;
#X connect 200 0 199 0;
#X connect 201 0 202 0;
#X connect 202 0 160 0;
#X connect 202 0 152 0;
#X connect 203 0 226 0;
#X connect 204 0 203 0;
#X connect 205 0 207 0;
#X connect 206 0 208 0;
#X connect 207 0 206 0;
#X connect 208 0 209 0;
#X connect 209 0 178 0;
#X connect 209 0 170 0;
#X connect 210 0 56 0;
#X connect 210 0 57 0;
#X connect 212 0 79 0;
#X connect 213 0 84 0;
#X connect 214 0 89 0;
#X connect 215 0 94 0;
#X connect 220 0 2 0;
#X connect 221 0 51 0;
#X connect 222 0 76 0;
#X connect 223 0 184 0;
#X connect 224 0 191 0;
#X connect 225 0 198 0;
#X connect 226 0 205 0;
#X coords 0 -1 1 1 400 280 1 100 100;
#X restore -5 221 pd indodistro;
#X connect 0 0 1 0;
