#N canvas 1 83 450 145 10;
#N canvas 61 273 1536 715 neuros 0;
#X obj 101 100 cnv 15 420 120 empty empty empty 20 12 0 14 -149652
-66577 0;
#X obj 248 105 bng 25 250 50 0 empty empty start 27 9 0 10 -67347 -1
-1;
#X obj 310 107 bng 20 250 50 0 empty empty stop 24 9 0 10 -184385 -1
-1;
#X obj 468 581 s metro;
#X obj 468 558 bng 15 250 50 0 empty empty empty 17 7 0 10 -262144
-1 -1;
#X floatatom 683 157 5 0 0 0 - - -;
#X obj 468 434 metro;
#X msg 957 -128 bang;
#X msg 1015 -129 stop;
#X text 135 101 Dynamic Metronome;
#X obj 107 145 hradio 8 1 0 32 empty empty empty 0 -8 0 10 -170700
-1 -1 0;
#X obj 107 207 hradio 8 1 0 32 empty empty empty 0 -8 0 10 -170700
-1 -1 0;
#X obj 107 156 vradio 8 1 0 6 empty empty empty 0 -8 0 10 -166794 -1
-1 0;
#X obj 115 156 vradio 8 1 0 6 empty empty empty 0 -8 0 10 -166794 -1
-1 0;
#X obj 123 156 vradio 8 1 0 6 empty empty empty 0 -8 0 10 -166794 -1
-1 0;
#X obj 131 156 vradio 8 1 0 6 empty empty empty 0 -8 0 10 -166794 -1
-1 0;
#X obj 139 156 vradio 8 1 0 6 empty empty empty 0 -8 0 10 -166794 -1
-1 0;
#X obj 147 156 vradio 8 1 0 6 empty empty empty 0 -8 0 10 -166794 -1
-1 0;
#X obj 155 156 vradio 8 1 0 6 empty empty empty 0 -8 0 10 -166794 -1
-1 0;
#X obj 163 156 vradio 8 1 0 6 empty empty empty 0 -8 0 10 -166794 -1
-1 0;
#X obj 171 156 vradio 8 1 0 6 empty empty empty 0 -8 0 10 -166794 -1
-1 0;
#X obj 179 156 vradio 8 1 0 6 empty empty empty 0 -8 0 10 -166794 -1
-1 0;
#X obj 187 156 vradio 8 1 0 6 empty empty empty 0 -8 0 10 -166794 -1
-1 0;
#X obj 195 156 vradio 8 1 0 6 empty empty empty 0 -8 0 10 -166794 -1
-1 0;
#X obj 203 156 vradio 8 1 0 6 empty empty empty 0 -8 0 10 -166794 -1
-1 0;
#X obj 211 156 vradio 8 1 0 6 empty empty empty 0 -8 0 10 -166794 -1
-1 0;
#X obj 219 156 vradio 8 1 0 6 empty empty empty 0 -8 0 10 -166794 -1
-1 0;
#X obj 227 156 vradio 8 1 0 6 empty empty empty 0 -8 0 10 -166794 -1
-1 0;
#X obj 235 156 vradio 8 1 0 6 empty empty empty 0 -8 0 10 -166794 -1
-1 0;
#X obj 243 156 vradio 8 1 0 6 empty empty empty 0 -8 0 10 -166794 -1
-1 0;
#X obj 251 156 vradio 8 1 0 6 empty empty empty 0 -8 0 10 -166794 -1
-1 0;
#X obj 259 156 vradio 8 1 0 6 empty empty empty 0 -8 0 10 -166794 -1
-1 0;
#X obj 267 156 vradio 8 1 0 6 empty empty empty 0 -8 0 10 -166794 -1
-1 0;
#X obj 275 156 vradio 8 1 0 6 empty empty empty 0 -8 0 10 -166794 -1
-1 0;
#X obj 283 156 vradio 8 1 0 6 empty empty empty 0 -8 0 10 -166794 -1
-1 0;
#X obj 291 156 vradio 8 1 0 6 empty empty empty 0 -8 0 10 -166794 -1
-1 0;
#X obj 299 156 vradio 8 1 0 6 empty empty empty 0 -8 0 10 -166794 -1
-1 0;
#X obj 307 156 vradio 8 1 0 6 empty empty empty 0 -8 0 10 -166794 -1
-1 0;
#X obj 315 156 vradio 8 1 0 6 empty empty empty 0 -8 0 10 -166794 -1
-1 0;
#X obj 323 156 vradio 8 1 0 6 empty empty empty 0 -8 0 10 -166794 -1
-1 0;
#X obj 331 156 vradio 8 1 0 6 empty empty empty 0 -8 0 10 -166794 -1
-1 0;
#X obj 339 156 vradio 8 1 0 6 empty empty empty 0 -8 0 10 -166794 -1
-1 0;
#X obj 347 156 vradio 8 1 0 6 empty empty empty 0 -8 0 10 -166794 -1
-1 0;
#X obj 355 156 vradio 8 1 0 6 empty empty empty 0 -8 0 10 -166794 -1
-1 0;
#X floatatom 392 109 5 20 320 1 #1 - -;
#X floatatom 392 127 5 20 320 1 #2 - -;
#X floatatom 392 145 5 20 320 1 #3 - -;
#X floatatom 392 163 5 20 320 1 #4 - -;
#X floatatom 392 181 5 20 320 1 #5 - -;
#X floatatom 392 199 5 20 320 1 #6 - -;
#X obj 371 108 vradio 18 1 0 6 empty empty empty 0 -8 0 10 -207249
-1 -1 0;
#X obj 445 130 bng 11 250 50 0 empty empty empty 17 7 0 10 -166869
-1 -1;
#X obj -20 318 * 3;
#X obj -106 -135 route 0 1 2 3 4 5 6 7 8 9 10 11 12 13 14 15 16 17
18 19 20 21 22 23 24 25 26 27 28 29 30 31;
#X obj -186 -83 bng 15 250 50 0 empty empty empty 17 7 0 10 -262144
-1 -1;
#X obj -169 -83 bng 15 250 50 0 empty empty empty 17 7 0 10 -262144
-1 -1;
#X obj -151 -83 bng 15 250 50 0 empty empty empty 17 7 0 10 -262144
-1 -1;
#X obj -134 -83 bng 15 250 50 0 empty empty empty 17 7 0 10 -262144
-1 -1;
#X obj -116 -83 bng 15 250 50 0 empty empty empty 17 7 0 10 -262144
-1 -1;
#X obj -99 -83 bng 15 250 50 0 empty empty empty 17 7 0 10 -262144
-1 -1;
#X obj -81 -83 bng 15 250 50 0 empty empty empty 17 7 0 10 -262144
-1 -1;
#X obj -64 -83 bng 15 250 50 0 empty empty empty 17 7 0 10 -262144
-1 -1;
#X obj -45 -83 bng 15 250 50 0 empty empty empty 17 7 0 10 -262144
-1 -1;
#X obj -28 -83 bng 15 250 50 0 empty empty empty 17 7 0 10 -262144
-1 -1;
#X obj -10 -83 bng 15 250 50 0 empty empty empty 17 7 0 10 -262144
-1 -1;
#X obj 7 -83 bng 15 250 50 0 empty empty empty 17 7 0 10 -262144 -1
-1;
#X obj 25 -83 bng 15 250 50 0 empty empty empty 17 7 0 10 -262144 -1
-1;
#X obj 42 -83 bng 15 250 50 0 empty empty empty 17 7 0 10 -262144 -1
-1;
#X obj 60 -83 bng 15 250 50 0 empty empty empty 17 7 0 10 -262144 -1
-1;
#X obj 77 -83 bng 15 250 50 0 empty empty empty 17 7 0 10 -262144 -1
-1;
#X obj 100 -83 bng 15 250 50 0 empty empty empty 17 7 0 10 -262144
-1 -1;
#X obj 117 -83 bng 15 250 50 0 empty empty empty 17 7 0 10 -262144
-1 -1;
#X obj 135 -83 bng 15 250 50 0 empty empty empty 17 7 0 10 -262144
-1 -1;
#X obj 152 -83 bng 15 250 50 0 empty empty empty 17 7 0 10 -262144
-1 -1;
#X obj 170 -83 bng 15 250 50 0 empty empty empty 17 7 0 10 -262144
-1 -1;
#X obj 187 -83 bng 15 250 50 0 empty empty empty 17 7 0 10 -262144
-1 -1;
#X obj 205 -83 bng 15 250 50 0 empty empty empty 17 7 0 10 -262144
-1 -1;
#X obj 222 -83 bng 15 250 50 0 empty empty empty 17 7 0 10 -262144
-1 -1;
#X obj 245 -84 bng 15 250 50 0 empty empty empty 17 7 0 10 -262144
-1 -1;
#X obj 262 -84 bng 15 250 50 0 empty empty empty 17 7 0 10 -262144
-1 -1;
#X obj 280 -84 bng 15 250 50 0 empty empty empty 17 7 0 10 -262144
-1 -1;
#X obj 297 -84 bng 15 250 50 0 empty empty empty 17 7 0 10 -262144
-1 -1;
#X obj 315 -84 bng 15 250 50 0 empty empty empty 17 7 0 10 -262144
-1 -1;
#X obj 332 -84 bng 15 250 50 0 empty empty empty 17 7 0 10 -262144
-1 -1;
#X obj 350 -84 bng 15 250 50 0 empty empty empty 17 7 0 10 -262144
-1 -1;
#X obj 367 -84 bng 15 250 50 0 empty empty empty 17 7 0 10 -262144
-1 -1;
#X msg 392 -15 150;
#X obj 392 -35 bng 15 250 50 0 empty empty empty 17 7 0 10 -262144
-1 -1;
#X obj 392 -58 loadbang;
#X floatatom -33 226 2 0 0 0 - - -;
#X floatatom -106 -160 5 0 0 0 - - -;
#X obj -106 -330 int;
#X obj -79 -330 + 1;
#X obj -106 -354 bng 15 250 50 0 empty empty empty 17 7 0 10 -262144
-1 -1;
#X msg -59 -359 0;
#X floatatom -106 -204 5 0 0 0 - - -;
#X obj -106 -183 mod 32;
#X obj 498 105 bng 15 250 50 0 empty empty empty 17 7 0 10 -262144
-1 -1;
#X floatatom 109 123 5 1 16 1 grid_length - -;
#X obj -106 -308 mod 4;
#X obj -106 -288 == 0;
#X obj -106 -266 route 1;
#X obj -106 -227 int;
#X obj -79 -227 + 1;
#X obj -106 -246 bng 15 250 50 0 empty empty empty 17 7 0 10 -262144
-1 -1;
#X obj 134 368 tabwrite tempotable;
#N canvas 0 0 450 300 (subpatch) 0;
#X array tempotable 6 float 3;
#A 0 0 165 82.5 165 165 165;
#X coords 0 300 6 0 100 40 1 0 0;
#X restore 25 425 graph;
#X msg 254 368 0;
#X floatatom 134 352 5 0 0 0 - - -;
#X obj 145 406 tabwrite tempotable;
#X floatatom 145 390 5 0 0 0 - - -;
#X msg 265 406 1;
#X obj 161 444 tabwrite tempotable;
#X floatatom 161 428 5 0 0 0 - - -;
#X obj 172 482 tabwrite tempotable;
#X floatatom 172 466 5 0 0 0 - - -;
#X msg 281 444 2;
#X msg 292 482 3;
#X obj 192 519 tabwrite tempotable;
#X floatatom 192 503 5 0 0 0 - - -;
#X obj 203 557 tabwrite tempotable;
#X floatatom 203 541 5 0 0 0 - - -;
#X msg 312 519 4;
#X msg 323 557 5;
#X obj 456 130 bng 11 250 50 0 empty empty empty 17 7 0 10 -166869
-1 -1;
#X obj 482 130 bng 11 250 50 0 empty empty empty 17 7 0 10 -166869
-1 -1;
#X obj 493 130 bng 11 250 50 0 empty empty empty 17 7 0 10 -166869
-1 -1;
#X obj 468 129 bng 13 250 50 0 empty empty empty 17 7 0 10 -141707
-1 -1;
#X floatatom 1008 -58 5 0 0 0 - - -;
#X msg 439 -12 8;
#X obj 728 416 *;
#X floatatom 728 447 5 0 0 0 - - -;
#X floatatom 728 344 5 0 0 0 - - -;
#X obj 735 298 bng 15 250 50 0 empty empty empty 17 7 0 10 -262144
-1 -1;
#X msg 750 243 1;
#X obj 94 271 tabread tempotable;
#X obj -143 325 s tempo_amount;
#X obj -59 -195 + 1;
#X msg 659 251 0.5;
#X msg 709 246 0.75;
#X msg 815 239 2;
#X msg 777 242 1.5;
#X floatatom 904 154 5 0 0 0 - - -;
#X obj 445 148 bng 11 250 50 0 empty empty empty 17 7 0 10 -166869
-1 -1;
#X obj 456 148 bng 11 250 50 0 empty empty empty 17 7 0 10 -166869
-1 -1;
#X obj 482 148 bng 11 250 50 0 empty empty empty 17 7 0 10 -166869
-1 -1;
#X obj 493 148 bng 11 250 50 0 empty empty empty 17 7 0 10 -166869
-1 -1;
#X obj 468 147 bng 13 250 50 0 empty empty empty 17 7 0 10 -141707
-1 -1;
#X obj 949 413 *;
#X floatatom 949 444 5 0 0 0 - - -;
#X floatatom 949 341 5 0 0 0 - - -;
#X obj 956 295 bng 15 250 50 0 empty empty empty 17 7 0 10 -262144
-1 -1;
#X msg 971 240 1;
#X msg 880 248 0.5;
#X msg 930 243 0.75;
#X msg 1036 236 2;
#X msg 998 239 1.5;
#X floatatom 1128 142 5 0 0 0 - - -;
#X obj 445 166 bng 11 250 50 0 empty empty empty 17 7 0 10 -166869
-1 -1;
#X obj 456 166 bng 11 250 50 0 empty empty empty 17 7 0 10 -166869
-1 -1;
#X obj 482 166 bng 11 250 50 0 empty empty empty 17 7 0 10 -166869
-1 -1;
#X obj 493 166 bng 11 250 50 0 empty empty empty 17 7 0 10 -166869
-1 -1;
#X obj 468 165 bng 13 250 50 0 empty empty empty 17 7 0 10 -141707
-1 -1;
#X obj 1173 401 *;
#X floatatom 1173 432 5 0 0 0 - - -;
#X floatatom 1173 329 5 0 0 0 - - -;
#X obj 1180 283 bng 15 250 50 0 empty empty empty 17 7 0 10 -262144
-1 -1;
#X msg 1195 228 1;
#X msg 1104 236 0.5;
#X msg 1154 231 0.75;
#X msg 1260 224 2;
#X msg 1222 227 1.5;
#X floatatom 1352 123 5 0 0 0 - - -;
#X obj 446 184 bng 11 250 50 0 empty empty empty 17 7 0 10 -166869
-1 -1;
#X obj 457 184 bng 11 250 50 0 empty empty empty 17 7 0 10 -166869
-1 -1;
#X obj 483 184 bng 11 250 50 0 empty empty empty 17 7 0 10 -166869
-1 -1;
#X obj 494 184 bng 11 250 50 0 empty empty empty 17 7 0 10 -166869
-1 -1;
#X obj 469 183 bng 13 250 50 0 empty empty empty 17 7 0 10 -141707
-1 -1;
#X obj 1397 382 *;
#X floatatom 1397 413 5 0 0 0 - - -;
#X floatatom 1397 310 5 0 0 0 - - -;
#X obj 1404 264 bng 15 250 50 0 empty empty empty 17 7 0 10 -262144
-1 -1;
#X msg 1419 209 1;
#X msg 1328 217 0.5;
#X msg 1378 212 0.75;
#X msg 1484 205 2;
#X msg 1446 208 1.5;
#X floatatom 1563 112 5 0 0 0 - - -;
#X obj 446 200 bng 11 250 50 0 empty empty empty 17 7 0 10 -166869
-1 -1;
#X obj 457 200 bng 11 250 50 0 empty empty empty 17 7 0 10 -166869
-1 -1;
#X obj 483 200 bng 11 250 50 0 empty empty empty 17 7 0 10 -166869
-1 -1;
#X obj 494 200 bng 11 250 50 0 empty empty empty 17 7 0 10 -166869
-1 -1;
#X obj 469 199 bng 13 250 50 0 empty empty empty 17 7 0 10 -141707
-1 -1;
#X obj 1608 371 *;
#X floatatom 1608 402 5 0 0 0 - - -;
#X floatatom 1608 299 5 0 0 0 - - -;
#X obj 1615 253 bng 15 250 50 0 empty empty empty 17 7 0 10 -262144
-1 -1;
#X msg 1630 198 1;
#X msg 1539 206 0.5;
#X msg 1589 201 0.75;
#X msg 1695 194 2;
#X msg 1657 197 1.5;
#X obj 481 491 delay;
#X floatatom 447 105 5 0 0 0 - - -;
#X obj 567 463 random;
#X obj 399 470 bng 15 250 50 0 empty empty empty 17 7 0 10 -262144
-1 -1;
#X obj -130 395 s modulation;
#X obj 434 -243 random 3;
#X floatatom 392 310 5 0 0 0 - - -;
#X obj 436 -268 bng 15 250 50 0 empty empty empty 17 7 0 10 -262144
-1 -1;
#X floatatom 433 -217 5 0 0 0 - - -;
#X obj 443 -159 bng 15 250 50 0 empty empty empty 17 7 0 10 -262144
-1 -1;
#X obj 460 -159 bng 15 250 50 0 empty empty empty 17 7 0 10 -262144
-1 -1;
#X obj 477 -159 bng 15 250 50 0 empty empty empty 17 7 0 10 -262144
-1 -1;
#X obj 495 -159 bng 15 250 50 0 empty empty empty 17 7 0 10 -262144
-1 -1;
#X obj 512 -158 bng 15 250 50 0 empty empty empty 17 7 0 10 -262144
-1 -1;
#X obj 530 -158 bng 15 250 50 0 empty empty empty 17 7 0 10 -262144
-1 -1;
#X obj 443 -185 route 0 1 2 3 4 5;
#X obj 773 -158 s change_cube5;
#X obj 629 -222 spigot 1;
#X obj 275 125 tgl 15 0 empty empty cube 17 7 0 10 -262144 -1 -1 0
1;
#X connect 1 0 7 0;
#X connect 2 0 8 0;
#X connect 2 0 94 0;
#X connect 4 0 3 0;
#X connect 5 0 130 1;
#X connect 5 0 133 0;
#X connect 6 0 97 0;
#X connect 6 0 202 0;
#X connect 6 0 205 0;
#X connect 7 0 6 0;
#X connect 8 0 6 0;
#X connect 11 0 137 0;
#X connect 12 0 89 0;
#X connect 13 0 89 0;
#X connect 14 0 89 0;
#X connect 15 0 89 0;
#X connect 16 0 89 0;
#X connect 17 0 89 0;
#X connect 18 0 89 0;
#X connect 19 0 89 0;
#X connect 20 0 89 0;
#X connect 21 0 89 0;
#X connect 22 0 89 0;
#X connect 23 0 89 0;
#X connect 24 0 89 0;
#X connect 25 0 89 0;
#X connect 26 0 89 0;
#X connect 27 0 89 0;
#X connect 28 0 89 0;
#X connect 29 0 89 0;
#X connect 30 0 89 0;
#X connect 31 0 89 0;
#X connect 32 0 89 0;
#X connect 33 0 89 0;
#X connect 34 0 89 0;
#X connect 35 0 89 0;
#X connect 36 0 89 0;
#X connect 37 0 89 0;
#X connect 38 0 89 0;
#X connect 39 0 89 0;
#X connect 40 0 89 0;
#X connect 41 0 89 0;
#X connect 42 0 89 0;
#X connect 43 0 89 0;
#X connect 44 0 108 0;
#X connect 44 0 128 0;
#X connect 44 0 5 0;
#X connect 44 0 142 0;
#X connect 44 0 157 0;
#X connect 44 0 172 0;
#X connect 44 0 187 0;
#X connect 44 0 136 0;
#X connect 44 0 208 0;
#X connect 45 0 110 0;
#X connect 45 0 208 0;
#X connect 46 0 113 0;
#X connect 46 0 208 0;
#X connect 47 0 115 0;
#X connect 47 0 208 0;
#X connect 48 0 119 0;
#X connect 48 0 208 0;
#X connect 49 0 121 0;
#X connect 49 0 208 0;
#X connect 51 0 138 0;
#X connect 53 0 54 0;
#X connect 53 1 55 0;
#X connect 53 2 56 0;
#X connect 53 3 57 0;
#X connect 53 4 58 0;
#X connect 53 5 59 0;
#X connect 53 6 60 0;
#X connect 53 7 61 0;
#X connect 53 8 62 0;
#X connect 53 9 63 0;
#X connect 53 10 64 0;
#X connect 53 11 65 0;
#X connect 53 12 66 0;
#X connect 53 13 67 0;
#X connect 53 14 68 0;
#X connect 53 15 69 0;
#X connect 53 16 70 0;
#X connect 53 17 71 0;
#X connect 53 18 72 0;
#X connect 53 19 73 0;
#X connect 53 20 74 0;
#X connect 53 21 75 0;
#X connect 53 22 76 0;
#X connect 53 23 77 0;
#X connect 53 24 78 0;
#X connect 53 25 79 0;
#X connect 53 26 80 0;
#X connect 53 27 81 0;
#X connect 53 28 82 0;
#X connect 53 29 83 0;
#X connect 53 30 84 0;
#X connect 53 31 85 0;
#X connect 54 0 12 0;
#X connect 55 0 13 0;
#X connect 56 0 14 0;
#X connect 57 0 15 0;
#X connect 58 0 16 0;
#X connect 59 0 17 0;
#X connect 60 0 18 0;
#X connect 61 0 19 0;
#X connect 62 0 20 0;
#X connect 63 0 21 0;
#X connect 64 0 22 0;
#X connect 65 0 23 0;
#X connect 66 0 24 0;
#X connect 67 0 25 0;
#X connect 68 0 26 0;
#X connect 69 0 27 0;
#X connect 70 0 28 0;
#X connect 71 0 29 0;
#X connect 72 0 30 0;
#X connect 73 0 31 0;
#X connect 74 0 32 0;
#X connect 75 0 33 0;
#X connect 76 0 34 0;
#X connect 77 0 35 0;
#X connect 78 0 36 0;
#X connect 79 0 37 0;
#X connect 80 0 38 0;
#X connect 81 0 39 0;
#X connect 82 0 40 0;
#X connect 83 0 41 0;
#X connect 84 0 42 0;
#X connect 85 0 43 0;
#X connect 86 0 44 0;
#X connect 87 0 86 0;
#X connect 87 0 129 0;
#X connect 88 0 87 0;
#X connect 89 0 206 0;
#X connect 90 0 53 0;
#X connect 90 0 10 0;
#X connect 91 0 92 0;
#X connect 91 0 99 0;
#X connect 92 0 91 1;
#X connect 93 0 91 0;
#X connect 94 0 91 0;
#X connect 94 0 102 0;
#X connect 95 0 96 0;
#X connect 96 0 90 0;
#X connect 97 0 93 0;
#X connect 98 0 99 1;
#X connect 99 0 100 0;
#X connect 100 0 101 0;
#X connect 101 0 104 0;
#X connect 102 0 103 0;
#X connect 102 0 95 0;
#X connect 103 0 102 1;
#X connect 104 0 102 0;
#X connect 104 0 209 0;
#X connect 107 0 105 1;
#X connect 108 0 105 0;
#X connect 108 0 107 0;
#X connect 110 0 109 0;
#X connect 110 0 111 0;
#X connect 111 0 109 1;
#X connect 113 0 112 0;
#X connect 113 0 116 0;
#X connect 115 0 114 0;
#X connect 115 0 117 0;
#X connect 116 0 112 1;
#X connect 117 0 114 1;
#X connect 119 0 118 0;
#X connect 119 0 122 0;
#X connect 121 0 120 0;
#X connect 121 0 123 0;
#X connect 122 0 118 1;
#X connect 123 0 120 1;
#X connect 124 0 139 0;
#X connect 125 0 141 0;
#X connect 126 0 140 0;
#X connect 127 0 134 0;
#X connect 129 0 98 0;
#X connect 130 0 131 0;
#X connect 131 0 45 0;
#X connect 132 0 130 0;
#X connect 133 0 132 0;
#X connect 134 0 132 0;
#X connect 135 0 136 0;
#X connect 137 0 96 1;
#X connect 138 0 132 0;
#X connect 139 0 132 0;
#X connect 140 0 132 0;
#X connect 141 0 132 0;
#X connect 142 0 148 1;
#X connect 142 0 151 0;
#X connect 143 0 153 0;
#X connect 144 0 154 0;
#X connect 145 0 156 0;
#X connect 146 0 155 0;
#X connect 147 0 152 0;
#X connect 148 0 149 0;
#X connect 149 0 46 0;
#X connect 150 0 148 0;
#X connect 151 0 150 0;
#X connect 152 0 150 0;
#X connect 153 0 150 0;
#X connect 154 0 150 0;
#X connect 155 0 150 0;
#X connect 156 0 150 0;
#X connect 157 0 163 1;
#X connect 157 0 166 0;
#X connect 158 0 168 0;
#X connect 159 0 169 0;
#X connect 160 0 171 0;
#X connect 161 0 170 0;
#X connect 162 0 167 0;
#X connect 163 0 164 0;
#X connect 164 0 47 0;
#X connect 165 0 163 0;
#X connect 166 0 165 0;
#X connect 167 0 165 0;
#X connect 168 0 165 0;
#X connect 169 0 165 0;
#X connect 170 0 165 0;
#X connect 171 0 165 0;
#X connect 172 0 178 1;
#X connect 172 0 181 0;
#X connect 173 0 183 0;
#X connect 174 0 184 0;
#X connect 175 0 186 0;
#X connect 176 0 185 0;
#X connect 177 0 182 0;
#X connect 178 0 179 0;
#X connect 179 0 48 0;
#X connect 180 0 178 0;
#X connect 181 0 180 0;
#X connect 182 0 180 0;
#X connect 183 0 180 0;
#X connect 184 0 180 0;
#X connect 185 0 180 0;
#X connect 186 0 180 0;
#X connect 187 0 193 1;
#X connect 187 0 196 0;
#X connect 188 0 198 0;
#X connect 189 0 199 0;
#X connect 190 0 201 0;
#X connect 191 0 200 0;
#X connect 192 0 197 0;
#X connect 193 0 194 0;
#X connect 194 0 49 0;
#X connect 195 0 193 0;
#X connect 196 0 195 0;
#X connect 197 0 195 0;
#X connect 198 0 195 0;
#X connect 199 0 195 0;
#X connect 200 0 195 0;
#X connect 201 0 195 0;
#X connect 202 0 4 0;
#X connect 204 0 202 1;
#X connect 205 0 204 0;
#X connect 207 0 210 0;
#X connect 208 0 6 1;
#X connect 209 0 207 0;
#X connect 209 0 219 0;
#X connect 210 0 217 0;
#X connect 211 0 44 0;
#X connect 212 0 45 0;
#X connect 213 0 46 0;
#X connect 214 0 47 0;
#X connect 215 0 48 0;
#X connect 216 0 49 0;
#X connect 217 0 211 0;
#X connect 217 1 212 0;
#X connect 217 2 213 0;
#X connect 217 3 214 0;
#X connect 217 4 215 0;
#X connect 217 5 216 0;
#X connect 219 0 218 0;
#X connect 220 0 219 1;
#X coords 0 -1 1 1 420 120 1 100 100;
#X restore -195 -205 pd neuros;
