#N canvas 0 83 1680 967 10;
#N canvas 1 90 1280 872 chaos 0;
#X obj 101 100 cnv 15 260 150 empty empty empty 20 12 0 14 -256001
-66577 0;
#X obj 110 117 cnv 15 200 100 empty empty empty 20 12 0 14 -256577
-66577 0;
#N canvas 1 85 450 300 (subpatch) 0;
#X array dejong 50 float 3;
#A 0 5.70828 0.0526405 -0.736612 0.268284 14.9907 -0.719292 0.274547
1.05722 -1.85603 -0.0944286 0.43127 3.52747 -1.26083 0.214929 0.618118
-1.45777 -0.113793 0.0218637 2.71488 -8.47977 -0.34635 -12.1876 2.02616
-0.737069 1.86934 -0.0368828 -0.872719 -9.62266 2.3288 1.83869 -0.8329
1.21058 -6.86721 2.86977 -2.829 3.51393 0.770912 8.12199 -1.47565 0.833565
-1.71435 -3.37306 -0.943943 3.09172 0.735642 2.03182 1.25543 -1.80365
0.234769 14.4528;
#X coords 0 24 50 -24 200 100 1 0 0;
#X restore 110 117 graph;
#X obj -389 416 bng 15 250 50 0 empty empty empty 17 7 0 10 -262144
-1 -1;
#X obj -389 435 int;
#X obj -364 435 + 1;
#X floatatom -389 459 5 0 0 0 - - -;
#X obj -280 482 mod 50;
#X obj 376 634 *;
#X floatatom 104 223 5 1 20 1 multi_offset - -;
#X obj 316 125 vsl 9 100 -1 1 0 0 empty empty empty 0 -9 0 10 -248577
-1 -1 4600 1;
#X obj 325 125 vsl 9 100 -1 1 0 0 empty empty empty 0 -9 0 10 -248257
-1 -1 200 1;
#X text 161 100 Chaos Attractor;
#X obj -367 68 inlet;
#X obj 511 401 dejong 0 0 -0.0239362 -0.67834 2.50703 -0.0138538 -1.44072
2.47917;
#X floatatom 520 460 5 0 0 0 - - -;
#X floatatom 598 466 5 0 0 0 - - -;
#X obj 589 546 *;
#X msg 462 264 param -0.0239362 -0.67834 2.50703 -0.0138538 -1.44072
2.47917;
#X msg 324 348 reset;
#X obj 324 231 bng 15 250 50 0 empty empty empty 17 7 0 10 -256705
-1 -1;
#X msg 490 322 start;
#X msg 433 349 search;
#X msg 444 370 show;
#X obj 334 125 vsl 9 100 -1 1 0 0 empty empty empty 0 -9 0 10 -248577
-1 -1 3900 1;
#X obj 343 125 vsl 9 100 -1 1 0 0 empty empty empty 0 -9 0 10 -248257
-1 -1 8100 1;
#X obj 452 133 pack f f f f f f;
#X msg 452 176 param \$1 \$2 \$3 \$4;
#X obj 318 106 bng 15 250 50 0 empty empty empty 17 7 0 10 -256705
-1 -1;
#X obj 334 106 bng 15 250 50 0 empty empty empty 17 7 0 10 -256705
-1 -1;
#X obj 46 748 tabwrite dejong;
#X floatatom 223 224 5 0 0 1 offset - -;
#X obj -206 703 +;
#X obj -211 793 outlet;
#X connect 3 0 4 0;
#X connect 3 0 14 0;
#X connect 4 0 5 0;
#X connect 4 0 6 0;
#X connect 5 0 4 1;
#X connect 6 0 7 0;
#X connect 7 0 30 1;
#X connect 8 0 30 0;
#X connect 8 0 32 0;
#X connect 9 0 8 1;
#X connect 10 0 26 0;
#X connect 11 0 26 1;
#X connect 13 0 3 0;
#X connect 14 0 15 0;
#X connect 14 1 16 0;
#X connect 15 0 17 0;
#X connect 16 0 17 1;
#X connect 17 0 8 0;
#X connect 18 0 14 0;
#X connect 19 0 14 0;
#X connect 20 0 19 0;
#X connect 21 0 14 0;
#X connect 22 0 14 0;
#X connect 24 0 26 2;
#X connect 25 0 26 3;
#X connect 26 0 27 0;
#X connect 27 0 14 0;
#X connect 28 0 22 0;
#X connect 29 0 23 0;
#X connect 31 0 32 1;
#X connect 32 0 33 0;
#X coords 0 -1 1 1 260 150 1 100 100;
#X restore 847 488 pd chaos;
#N canvas 1 88 1280 715 chaos 0;
#X obj 101 100 cnv 15 260 150 empty empty empty 20 12 0 14 -46145 -66577
0;
#X obj 104 119 cnv 15 200 100 empty empty empty 20 12 0 14 -22297 -66577
0;
#N canvas 1 85 450 300 (subpatch) 0;
#X array ikeda 50 float 3;
#A 0 1.97649 0.455529 0.79723 1.17773 -3.20163 2.50154 -3.19668 2.91327
-1.46646 1.93678 0.591308 1.09833 0.70266 1.22527 -4.12765 4.12858
0.427394 -2.88908 -0.525934 -1.06155 2.03972 -0.67606 1.48347 0.414497
-4.10534 2.76762 -2.17702 0.773541 1.53454 0.114213 0.902364 1.05423
-3.34841 2.68287 -2.80925 2.19741 -3.53693 3.6872 0.390439 -1.63485
-0.286067 -5.59258 5.81794 -2.75586 1.60419 0.29259 -0.138833 -0.477987
0.51616 -0.897954;
#X coords 0 24 50 -24 200 100 1 0 0;
#X restore 105 118 graph;
#X obj -389 416 bng 15 250 50 0 empty empty empty 17 7 0 10 -262144
-1 -1;
#X obj -389 435 int;
#X obj -364 435 + 1;
#X floatatom -389 459 5 0 0 0 - - -;
#X obj -280 482 mod 50;
#X obj 126 645 *;
#X floatatom 104 223 5 1 20 1 multi_offset - -;
#X floatatom 276 565 10 0 0 0 Y - -;
#X floatatom 234 538 10 0 0 0 X - -;
#X obj 243 511 ikeda 0.1 0.1 0.4 0.9 6 1;
#X floatatom 131 580 5 0 0 0 - - -;
#X floatatom 200 571 5 0 0 0 - - -;
#X msg 265 463 param 0.4 0.9 6 1;
#X obj 310 118 vsl 9 100 0 1 0 0 empty empty empty 0 -9 0 10 -14277
-1 -1 3700 1;
#X obj 319 118 vsl 9 100 0 1 0 0 empty empty empty 0 -9 0 10 -14729
-1 -1 4700 1;
#X obj 328 118 vsl 9 100 0 1 0 0 empty empty empty 0 -9 0 10 -14277
-1 -1 2200 1;
#X obj 338 118 vsl 12 100 1 10 0 0 empty empty empty 0 -9 0 10 -15369
-1 -1 4600 1;
#X obj 295 381 pack f f f f;
#X msg 271 427 param \$1 \$2 \$3 \$4 1;
#X obj 144 610 *;
#X text 152 99 Chaos Attractor;
#X obj 43 718 tabwrite ikeda;
#X obj -367 68 inlet;
#X msg 212 316 reset;
#X obj 321 223 bng 15 250 50 0 empty empty empty 17 7 0 10 -60737 -1
-1;
#X obj -176 709 outlet;
#X floatatom 223 226 5 0 0 1 offset - -;
#X obj -155 664 +;
#X connect 3 0 4 0;
#X connect 3 0 12 0;
#X connect 4 0 5 0;
#X connect 4 0 6 0;
#X connect 5 0 4 1;
#X connect 6 0 7 0;
#X connect 7 0 24 1;
#X connect 8 0 24 0;
#X connect 8 0 30 0;
#X connect 9 0 8 1;
#X connect 10 0 14 0;
#X connect 11 0 13 0;
#X connect 12 0 11 0;
#X connect 12 1 10 0;
#X connect 13 0 22 0;
#X connect 14 0 22 1;
#X connect 15 0 12 0;
#X connect 16 0 20 0;
#X connect 17 0 20 1;
#X connect 18 0 20 2;
#X connect 19 0 20 3;
#X connect 20 0 21 0;
#X connect 21 0 12 0;
#X connect 22 0 8 0;
#X connect 25 0 3 0;
#X connect 26 0 12 0;
#X connect 27 0 26 0;
#X connect 29 0 30 1;
#X connect 30 0 28 0;
#X coords 0 -1 1 1 260 150 1 100 100;
#X restore 891 204 pd chaos;
#N canvas 1 88 1280 715 chaos 0;
#X obj 101 100 cnv 15 260 100 empty empty empty 20 12 0 14 -254849
-66577 0;
#X obj 110 117 cnv 15 200 60 empty empty empty 20 12 0 14 -218305 -66577
0;
#N canvas 1 85 450 300 (subpatch) 0;
#X array weibull 50 float 3;
#A 0 11.9859 17.949 12.5614 13.0817 12.0955 9.20376 13.8503 9.63462
14.7226 7.8023 16.484 19.5398 9.0404 10.4659 11.8285 14.0932 15.1061
9.23282 7.45496 10.6301 11.3779 11.4904 8.36395 12.277 12.3899 7.6398
13.2673 10.4375 12.3391 15.7328 12.1003 12.9468 18.3433 8.33641 10.4873
14.7867 16.7789 20.9081 6.24254 14.1138 7.77943 17.122 14.0507 9.89445
10.1218 10.0446 7.32231 8.82773 11.7373 8.3897;
#X coords 0 24 50 -24 200 60 1 0 0;
#X restore 109 118 graph;
#X obj 316 119 vsl 14 69 0 16 0 0 empty empty empty 0 -9 0 10 -259201
-1 -1 0 1;
#X obj 331 119 vsl 14 69 0 16 0 0 empty empty empty 0 -9 0 10 -259521
-1 -1 0 1;
#X obj -367 68 inlet;
#X text 168 100 Randomizer;
#X obj -150 437 bng 20 250 50 0 empty empty empty 0 -6 0 8 -262144
-1 -1;
#X floatatom -150 505 5 0 0 0 - - -;
#X floatatom 266 288 5 0 0 0 - - -;
#X floatatom 328 299 5 0 0 0 - - -;
#X obj -150 482 weibull 0.78 1.3;
#X obj -57 506 int;
#X obj -31 506 + 1;
#X obj -147 630 tabwrite weibull;
#X floatatom 110 181 5 0 0 1 offset - -;
#X obj 40 575 +;
#X obj -57 528 mod 50;
#X obj 7 640 outlet;
#X connect 3 0 9 0;
#X connect 4 0 10 0;
#X connect 5 0 7 0;
#X connect 7 0 11 0;
#X connect 7 0 12 0;
#X connect 8 0 16 0;
#X connect 9 0 11 1;
#X connect 10 0 11 2;
#X connect 11 0 8 0;
#X connect 12 0 13 0;
#X connect 12 0 17 0;
#X connect 13 0 12 1;
#X connect 15 0 16 1;
#X connect 16 0 18 0;
#X connect 16 0 14 0;
#X connect 17 0 14 1;
#X coords 0 -1 1 1 260 100 1 100 100;
#X restore 1258 242 pd chaos;
#X obj 221 976 tabwrite muisti1;
#X msg 324 977 0;
#X floatatom 222 961 5 0 0 0 - - -;
#X msg 479 978 0;
#X floatatom 375 962 5 0 0 0 - - -;
#X obj 375 978 tabwrite muisti2;
#X msg 643 979 0;
#X floatatom 535 961 5 0 0 0 - - -;
#X obj 535 977 tabwrite muisti3;
#X obj 717 -92 r metro;
#X obj 589 -95 r metro2;
#X obj 504 -91 r metro3;
#N canvas 32 121 1600 846 cubesynth 0;
#X obj 100 100 cnv 15 340 215 empty empty empty 20 12 0 14 -51596 -66577
0;
#X obj 243 127 vsl 15 128 1 8 0 0 empty empty grid 0 -9 0 10 -170880
-1 -1 0 1;
#X obj 112 140 vradio 15 1 0 4 empty empty empty 0 -8 0 10 -262144
-1 -1 0;
#X text 107 123 MODE;
#X obj 292 127 vsl 15 128 1 8 0 0 empty empty angle 0 -9 0 10 -170880
-1 -1 0 1;
#X obj 196 127 vsl 15 128 0 64 0 0 empty empty base 0 -9 0 10 -170880
-1 -1 0 1;
#X floatatom 604 198 5 0 0 0 - - -;
#X obj 693 7 int;
#X obj 722 6 + 1;
#X floatatom 693 29 5 0 0 0 - - -;
#X obj 693 -13 bng 15 250 50 0 empty empty empty 17 7 0 10 -262144
-1 -1;
#X text 717 -219 METRO;
#X obj 706 -67 bng 15 250 50 0 empty empty empty 17 7 0 10 -262144
-1 -1;
#X floatatom 138 232 5 0 0 0 step - -;
#X floatatom 138 211 5 1 200 0 total - -;
#X floatatom 196 260 3 0 0 0 - - -;
#X floatatom 243 260 2 0 0 0 - - -;
#X floatatom 292 260 2 0 0 0 - - -;
#X text 129 140 UP;
#X text 129 155 DOWN;
#X obj 594 -7 route 1;
#X obj 594 14 bng 15 250 50 0 empty empty empty 17 7 0 10 -262144 -1
-1;
#X msg 594 74 0;
#X obj 594 -32 >;
#X obj 778 128 mod;
#X floatatom 778 153 5 0 0 0 - - -;
#X obj 778 175 == 0;
#X obj 778 197 route 1;
#X obj 778 218 bng 15 250 50 0 empty empty empty 17 7 0 10 -262144
-1 -1;
#X floatatom 841 728 5 0 0 0 - - -;
#X obj 609 -56 - 1;
#X obj 792 631 int;
#X obj 633 614 + 1;
#X obj 880 246 bng 15 250 50 0 empty empty empty 17 7 0 10 -262144
-1 -1;
#X floatatom 757 740 5 0 0 0 - - -;
#X obj 339 127 vsl 15 128 1 8 0 0 empty empty step+ 0 -9 0 10 -170880
-1 -1 0 1;
#X floatatom 339 260 2 0 0 0 - - -;
#X obj 631 588 spigot 1;
#X floatatom 677 564 5 0 0 0 - - -;
#X floatatom 1082 595 5 0 0 0 - - -;
#X floatatom 797 851 5 0 0 0 - - -;
#X obj 1037 617 spigot 1;
#X obj 670 471 == 1;
#X obj 1066 496 == 0;
#X obj 1066 518 route 1;
#X obj 670 493 route 1;
#X obj 670 515 bng 15 250 50 0 empty empty empty 17 7 0 10 -262144
-1 -1;
#X msg 670 533 1;
#X msg 708 530 0;
#X obj 1066 540 bng 15 250 50 0 empty empty empty 17 7 0 10 -262144
-1 -1;
#X msg 1066 561 1;
#X msg 1101 555 0;
#X floatatom 901 361 5 0 0 0 - - -;
#X obj 719 195 == 1;
#X obj 604 222 == 0;
#X obj 719 216 route 1;
#X obj 719 238 bng 15 250 50 0 empty empty empty 17 7 0 10 -262144
-1 -1;
#X obj 604 244 route 1;
#X obj 606 268 bng 15 250 50 0 empty empty empty 17 7 0 10 -262144
-1 -1;
#X msg 608 296 1;
#X msg 780 241 0;
#X obj 1016 161 == 2;
#X obj 1016 184 route 1;
#X obj 1016 206 bng 15 250 50 0 empty empty empty 17 7 0 10 -262144
-1 -1;
#X msg 1015 227 1;
#X obj 1104 302 spigot 1;
#X floatatom 1150 274 5 0 0 0 - - -;
#X obj 1104 214 int;
#X obj 1133 213 + 1;
#X obj 1104 191 bng 15 250 50 0 empty empty empty 17 7 0 10 -262144
-1 -1;
#X obj 1103 120 mod;
#X obj 1104 142 == 0;
#X obj 1104 167 route 1;
#X floatatom 1103 257 5 0 0 0 - - -;
#X obj 1104 236 mod 2;
#X text 130 170 ZIG ZAG;
#X msg 653 295 0;
#X msg 1048 227 0;
#X floatatom 800 912 5 0 0 0 - - -;
#X floatatom 977 1468 5 0 0 0 - - -;
#X obj -131 371 loadbang;
#X msg 957 -75 0;
#X obj 1347 229 sin;
#X floatatom 1356 256 5 0 0 0 - - -;
#X obj 1366 292 *;
#X obj 1326 201 /;
#X obj 1339 -1 vsl 15 128 1 4 0 0 empty empty div 0 -9 0 10 -262144
-1 -1 0 1;
#X obj 1364 -1 vsl 15 128 1 16 0 0 empty empty mlti 0 -9 0 10 -262144
-1 -1 0 1;
#X floatatom 1365 134 2 0 0 0 - - -;
#X floatatom 1342 135 2 0 0 0 - - -;
#X floatatom 1367 324 5 0 0 0 - - -;
#X obj 1404 382 +;
#X obj 1404 408 spigot 1;
#X floatatom 1449 384 5 0 0 0 - - -;
#X obj 1416 214 route 1;
#X obj 1417 238 bng 15 250 50 0 empty empty empty 17 7 0 10 -262144
-1 -1;
#X obj 1416 191 == 3;
#X msg 1400 264 0;
#X msg 1433 265 1;
#X obj 1414 435 bng 15 250 50 0 empty empty empty 17 7 0 10 -262144
-1 -1;
#X text 129 185 SINE;
#X obj 385 127 vsl 15 128 1 8 0 0 empty empty step- 0 -9 0 10 -170880
-1 -1 0 1;
#X floatatom 385 260 2 0 0 0 - - -;
#X text 1099 96 ZIG-ZAG;
#X text 1410 155 SINE;
#X obj 794 772 +;
#X floatatom 797 801 5 0 0 0 - - -;
#X obj 1037 651 - 1;
#X obj 260 127 vsl 8 128 1 8 0 0 empty empty empty 0 -9 0 10 -149940
-1 -1 0 1;
#X obj 310 127 vsl 8 128 1 8 0 0 empty empty empty 0 -9 0 10 -149940
-1 -1 0 1;
#X obj 356 127 vsl 8 128 1 8 0 0 empty empty empty 0 -9 0 10 -149940
-1 -1 0 1;
#X obj 402 127 vsl 8 128 1 8 0 0 empty empty empty 0 -9 0 10 -149940
-1 -1 0 1;
#X obj 1354 -1 vsl 8 128 1 4 0 0 empty empty empty 0 -9 0 10 -257908
-1 -1 0 1;
#X obj 1380 -1 vsl 8 128 1 16 0 0 empty empty empty 0 -9 0 10 -257908
-1 -1 0 1;
#X text 106 102 CUBE SYNTH1;
#X obj 156 -555 notein;
#X floatatom 109 -482 5 0 0 0 - - -;
#X floatatom 167 -483 5 0 0 0 - - -;
#X floatatom 235 -484 5 0 0 0 - - -;
#X obj -493 -100 ctlin 12;
#X obj -436 -104 ctlin 11;
#X text -481 -116 base;
#X text -424 -123 grid;
#X obj -493 -77 / 127;
#X obj -436 -83 / 127;
#X obj -323 -85 / 127;
#X obj -260 -88 / 127;
#X obj -379 -80 / 127;
#X text -371 -127 angle;
#X text -317 -126 step +;
#X text -258 -125 step -;
#X obj -436 -62 * 8;
#X obj -492 -49 * 48;
#X obj -379 -56 * 8;
#X obj -379 -106 ctlin 20;
#X obj -323 -65 * 8;
#X obj -260 -66 * 8;
#X obj -556 -79 / 127;
#X obj -556 -57 * 32;
#X obj -556 -36 int;
#X obj -331 -421 == 46;
#X obj -273 -421 == 127;
#X obj -298 -404 &&;
#X obj -298 -384 route 1;
#X obj -298 -365 bng 15 250 50 0 empty empty empty 17 7 0 10 -262144
-1 -1;
#X msg -298 -345 1;
#X obj -162 -419 == 127;
#X obj -187 -402 &&;
#X obj -187 -382 route 1;
#X obj -187 -363 bng 15 250 50 0 empty empty empty 17 7 0 10 -262144
-1 -1;
#X obj -220 -419 == 43;
#X msg -187 -339 0;
#X obj -377 -420 == 127;
#X obj -402 -403 &&;
#X obj -402 -383 route 1;
#X obj -402 -364 bng 15 250 50 0 empty empty empty 17 7 0 10 -262144
-1 -1;
#X obj -435 -420 == 70;
#X obj -56 -422 == 127;
#X obj -82 -397 &&;
#X obj -82 -377 route 1;
#X obj -82 -358 bng 15 250 50 0 empty empty empty 17 7 0 10 -262144
-1 -1;
#X msg -401 -341 2;
#X obj -109 -417 == 58;
#X obj 22 -401 &&;
#X obj 22 -381 route 1;
#X obj 22 -362 bng 15 250 50 0 empty empty empty 17 7 0 10 -262144
-1 -1;
#X obj 220 -400 &&;
#X obj 220 -380 route 1;
#X obj 220 -361 bng 15 250 50 0 empty empty empty 17 7 0 10 -262144
-1 -1;
#X obj 187 -417 == 59;
#X obj 246 -418 == 0;
#X obj 137 117 tgl 15 0 empty empty on 17 7 0 10 -262144 -1 -1 0 1
;
#X floatatom 223 -547 1 0 0 0 - - -;
#X obj 100 -514 spigot 1;
#X obj 173 -512 spigot 1;
#X obj 239 -509 spigot 1;
#X obj 802 882 int;
#X obj 700 -500 r metro;
#X obj -323 -109 ctlin 26;
#X obj -260 -109 ctlin 29;
#X obj -556 -102 ctlin 25;
#X obj 321 -400 &&;
#X obj 321 -380 route 1;
#X obj 321 -361 bng 15 250 50 0 empty empty empty 17 7 0 10 -262144
-1 -1;
#X obj 338 -419 == 127;
#X obj 268 -414 == 56;
#X msg 321 -337 1;
#X obj 428 -404 &&;
#X obj 428 -384 route 1;
#X obj 428 -365 bng 15 250 50 0 empty empty empty 17 7 0 10 -262144
-1 -1;
#X obj 395 -421 == 56;
#X obj 454 -422 == 0;
#X msg 428 -341 0;
#X obj 900 -384 &&;
#X obj 900 -364 route 1;
#X obj 900 -345 bng 15 250 50 0 empty empty empty 17 7 0 10 -262144
-1 -1;
#X obj 917 -403 == 127;
#X msg 900 -321 1;
#X obj 847 -398 == 69;
#X obj 793 -70 delay;
#X obj 841 -161 r tempo_amount;
#X floatatom 841 -132 5 0 0 0 - - -;
#X obj 852 -91 / 2;
#X obj 111 253 tgl 15 0 empty empty double 17 7 0 10 -262144 -1 -1
0 1;
#X obj 802 -33 spigot 1;
#X msg -23 339 0;
#X obj -11 -418 == 58;
#X obj 47 -418 == 0;
#X msg -87 -328 1;
#X msg 28 -328 0;
#X obj 114 -401 &&;
#X obj 114 -381 route 1;
#X obj 114 -362 bng 15 250 50 0 empty empty empty 17 7 0 10 -262144
-1 -1;
#X obj 81 -418 == 59;
#X obj 680 -257 spigot 1;
#X obj 726 -280 tgl 15 0 empty empty empty 17 7 0 10 -262144 -1 -1
1 1;
#X obj 140 -419 == 127;
#X msg 156 -340 0;
#X msg 256 -349 1;
#X obj 393 -547 loadbang;
#X msg 384 -508 1;
#X msg -107 416 168;
#X obj 213 127 vsl 8 128 0 15 0 0 empty empty empty 0 -9 0 10 -149940
-1 -1 0 1;
#X obj 223 127 vsl 10 128 0 64 0 0 empty empty empty 0 -9 0 10 -133300
-1 -1 0 1;
#X obj 270 127 vsl 10 128 1 8 0 0 empty empty empty 0 -9 0 10 -133300
-1 -1 0 1;
#X obj 320 127 vsl 10 128 1 8 0 0 empty empty empty 0 -9 0 10 -133300
-1 -1 0 1;
#X obj 366 127 vsl 10 128 1 8 0 0 empty empty empty 0 -9 0 10 -133300
-1 -1 0 1;
#X obj 412 127 vsl 10 128 1 8 0 0 empty empty empty 0 -9 0 10 -133300
-1 -1 0 1;
#X floatatom 270 260 2 0 0 0 - - -;
#X floatatom 320 260 2 0 0 0 - - -;
#X floatatom 366 260 2 0 0 0 - - -;
#X floatatom 413 260 2 0 0 0 - - -;
#X obj 397 103 bng 8 250 50 0 empty empty empty 17 7 0 10 -262144 -1
-1;
#X obj 353 104 bng 8 250 50 0 empty empty empty 17 7 0 10 -262144 -1
-1;
#X obj 310 103 bng 8 250 50 0 empty empty empty 17 7 0 10 -262144 -1
-1;
#X obj 256 104 bng 8 250 50 0 empty empty empty 17 7 0 10 -262144 -1
-1;
#X obj 213 103 bng 8 250 50 0 empty empty empty 17 7 0 10 -262144 -1
-1;
#X text -543 -118 total;
#X obj 151 -16 +;
#X obj 168 -38 random;
#X obj 154 -91 bng 15 250 50 0 empty empty empty 17 7 0 10 -262144
-1 -1;
#X obj 307 -173 bng 15 250 50 0 empty empty empty 17 7 0 10 -262144
-1 -1;
#X obj 218 -10 +;
#X obj 235 -32 random;
#X obj 229 -97 bng 15 250 50 0 empty empty empty 17 7 0 10 -262144
-1 -1;
#X floatatom 216 261 3 0 0 0 - - -;
#X obj 293 -6 +;
#X obj 310 -28 random;
#X obj 304 -93 bng 15 250 50 0 empty empty empty 17 7 0 10 -262144
-1 -1;
#X obj 362 -1 +;
#X obj 379 -23 random;
#X obj 373 -88 bng 15 250 50 0 empty empty empty 17 7 0 10 -262144
-1 -1;
#X obj 430 0 +;
#X obj 447 -22 random;
#X obj 441 -87 bng 15 250 50 0 empty empty empty 17 7 0 10 -262144
-1 -1;
#X obj 97 -105 r total;
#X floatatom 140 273 5 1 100 1 max - -;
#X floatatom 140 291 5 1 100 1 min - -;
#X obj 215 -38 int;
#X floatatom 487 41 5 0 0 0 - - -;
#X obj 341 -62 int;
#X obj 264 -67 int;
#X floatatom 322 44 5 0 0 0 - - -;
#X obj 288 -36 int;
#X obj 1007 817 >;
#X obj 592 817 <;
#X obj 592 838 route 1;
#X obj 1007 837 route 1;
#X obj 592 858 bng 15 250 50 0 empty empty empty 17 7 0 10 -262144
-1 -1;
#X obj 1007 858 bng 15 250 50 0 empty empty empty 17 7 0 10 -262144
-1 -1;
#X obj -80 209 r gridfill;
#X obj 742 -149 spigot 1;
#X obj 811 -209 tgl 15 0 empty empty empty 17 7 0 10 -262144 -1 -1
0 1;
#X obj 822 -260 r distrocubetoggle;
#X obj 306 -195 r change_distrocube;
#X floatatom 266 288 5 0 0 1 basenote_offset - -;
#X obj 800 937 +;
#X floatatom 800 973 5 0 0 0 - - -;
#X obj 717 -198 inlet;
#X obj 799 1076 outlet;
#X connect 1 0 16 0;
#X connect 1 0 258 0;
#X connect 2 0 6 0;
#X connect 2 0 61 0;
#X connect 2 0 96 0;
#X connect 4 0 17 0;
#X connect 4 0 263 0;
#X connect 5 0 15 0;
#X connect 6 0 53 0;
#X connect 6 0 54 0;
#X connect 7 0 8 0;
#X connect 7 0 9 0;
#X connect 8 0 7 1;
#X connect 9 0 13 0;
#X connect 9 0 23 0;
#X connect 9 0 24 0;
#X connect 9 0 70 0;
#X connect 9 0 85 0;
#X connect 10 0 7 0;
#X connect 12 0 10 0;
#X connect 12 0 38 0;
#X connect 12 0 199 0;
#X connect 14 0 30 0;
#X connect 15 0 238 0;
#X connect 20 0 21 0;
#X connect 21 0 22 0;
#X connect 22 0 7 0;
#X connect 22 0 31 0;
#X connect 23 0 20 0;
#X connect 24 0 25 0;
#X connect 25 0 26 0;
#X connect 26 0 27 0;
#X connect 27 0 28 0;
#X connect 28 0 33 0;
#X connect 28 0 29 0;
#X connect 29 0 91 0;
#X connect 29 0 105 1;
#X connect 30 0 23 1;
#X connect 31 0 34 0;
#X connect 31 0 37 0;
#X connect 31 0 41 0;
#X connect 32 0 31 1;
#X connect 33 0 31 0;
#X connect 34 0 105 0;
#X connect 35 0 36 0;
#X connect 36 0 249 0;
#X connect 37 0 32 0;
#X connect 38 0 37 1;
#X connect 39 0 41 1;
#X connect 40 0 176 0;
#X connect 41 0 107 0;
#X connect 42 0 45 0;
#X connect 43 0 44 0;
#X connect 44 0 49 0;
#X connect 45 0 46 0;
#X connect 46 0 47 0;
#X connect 46 0 48 0;
#X connect 47 0 38 0;
#X connect 48 0 39 0;
#X connect 49 0 50 0;
#X connect 49 0 51 0;
#X connect 50 0 39 0;
#X connect 51 0 38 0;
#X connect 52 0 42 0;
#X connect 52 0 43 0;
#X connect 53 0 55 0;
#X connect 54 0 57 0;
#X connect 55 0 56 0;
#X connect 56 0 60 0;
#X connect 57 0 58 0;
#X connect 58 0 59 0;
#X connect 58 0 76 0;
#X connect 59 0 52 0;
#X connect 60 0 52 0;
#X connect 60 0 66 0;
#X connect 60 0 93 0;
#X connect 61 0 62 0;
#X connect 62 0 63 0;
#X connect 63 0 64 0;
#X connect 63 0 77 0;
#X connect 64 0 66 0;
#X connect 65 0 52 0;
#X connect 66 0 65 1;
#X connect 67 0 68 0;
#X connect 67 0 74 0;
#X connect 68 0 67 1;
#X connect 69 0 67 0;
#X connect 70 0 71 0;
#X connect 71 0 72 0;
#X connect 72 0 69 0;
#X connect 73 0 65 0;
#X connect 74 0 73 0;
#X connect 76 0 66 0;
#X connect 76 0 93 0;
#X connect 77 0 93 0;
#X connect 78 0 276 0;
#X connect 80 0 221 0;
#X connect 80 0 205 0;
#X connect 81 0 7 0;
#X connect 81 0 67 0;
#X connect 81 0 31 0;
#X connect 82 0 83 0;
#X connect 83 0 84 0;
#X connect 84 0 90 0;
#X connect 85 0 82 0;
#X connect 86 0 85 1;
#X connect 87 0 84 1;
#X connect 90 0 91 1;
#X connect 91 0 92 0;
#X connect 92 0 40 0;
#X connect 92 0 99 0;
#X connect 93 0 92 1;
#X connect 94 0 95 0;
#X connect 95 0 97 0;
#X connect 95 0 98 0;
#X connect 96 0 94 0;
#X connect 97 0 66 0;
#X connect 97 0 39 0;
#X connect 97 0 38 0;
#X connect 98 0 93 0;
#X connect 101 0 102 0;
#X connect 102 0 252 0;
#X connect 105 0 106 0;
#X connect 106 0 40 0;
#X connect 106 0 265 0;
#X connect 106 0 264 0;
#X connect 107 0 31 1;
#X connect 108 0 261 0;
#X connect 109 0 260 0;
#X connect 110 0 250 1;
#X connect 111 0 253 1;
#X connect 115 0 173 0;
#X connect 115 1 174 0;
#X connect 115 2 175 0;
#X connect 116 0 140 0;
#X connect 116 0 150 0;
#X connect 116 0 156 0;
#X connect 116 0 162 0;
#X connect 116 0 169 0;
#X connect 116 0 185 0;
#X connect 116 0 190 0;
#X connect 116 0 198 0;
#X connect 116 0 206 0;
#X connect 116 0 213 0;
#X connect 117 0 141 0;
#X connect 117 0 146 0;
#X connect 117 0 152 0;
#X connect 117 0 157 0;
#X connect 117 0 170 0;
#X connect 117 0 184 0;
#X connect 117 0 191 0;
#X connect 117 0 196 0;
#X connect 117 0 207 0;
#X connect 117 0 216 0;
#X connect 119 0 123 0;
#X connect 120 0 124 0;
#X connect 123 0 132 0;
#X connect 124 0 131 0;
#X connect 125 0 135 0;
#X connect 126 0 136 0;
#X connect 127 0 133 0;
#X connect 134 0 127 0;
#X connect 137 0 138 0;
#X connect 138 0 139 0;
#X connect 139 0 14 0;
#X connect 140 0 142 0;
#X connect 141 0 142 1;
#X connect 142 0 143 0;
#X connect 143 0 144 0;
#X connect 144 0 145 0;
#X connect 145 0 2 0;
#X connect 146 0 147 1;
#X connect 147 0 148 0;
#X connect 148 0 149 0;
#X connect 149 0 151 0;
#X connect 150 0 147 0;
#X connect 151 0 2 0;
#X connect 152 0 153 1;
#X connect 153 0 154 0;
#X connect 154 0 155 0;
#X connect 155 0 161 0;
#X connect 156 0 153 0;
#X connect 157 0 158 1;
#X connect 158 0 159 0;
#X connect 159 0 160 0;
#X connect 160 0 208 0;
#X connect 161 0 2 0;
#X connect 162 0 158 0;
#X connect 163 0 164 0;
#X connect 164 0 165 0;
#X connect 165 0 209 0;
#X connect 166 0 167 0;
#X connect 167 0 168 0;
#X connect 168 0 218 0;
#X connect 169 0 166 0;
#X connect 170 0 166 1;
#X connect 171 0 172 0;
#X connect 172 0 174 1;
#X connect 172 0 173 1;
#X connect 173 0 116 0;
#X connect 174 0 117 0;
#X connect 175 0 118 0;
#X connect 176 0 78 0;
#X connect 177 0 214 0;
#X connect 178 0 125 0;
#X connect 179 0 126 0;
#X connect 180 0 137 0;
#X connect 181 0 182 0;
#X connect 182 0 183 0;
#X connect 183 0 186 0;
#X connect 184 0 181 1;
#X connect 185 0 181 0;
#X connect 187 0 188 0;
#X connect 188 0 189 0;
#X connect 189 0 192 0;
#X connect 190 0 187 0;
#X connect 191 0 187 1;
#X connect 193 0 194 0;
#X connect 194 0 195 0;
#X connect 195 0 197 0;
#X connect 196 0 193 1;
#X connect 198 0 193 0;
#X connect 199 0 204 0;
#X connect 200 0 201 0;
#X connect 201 0 202 0;
#X connect 202 0 199 1;
#X connect 203 0 204 1;
#X connect 204 0 10 0;
#X connect 205 0 203 0;
#X connect 206 0 163 0;
#X connect 207 0 163 1;
#X connect 208 0 203 0;
#X connect 209 0 203 0;
#X connect 210 0 211 0;
#X connect 211 0 212 0;
#X connect 212 0 217 0;
#X connect 213 0 210 0;
#X connect 215 0 214 1;
#X connect 216 0 210 1;
#X connect 217 0 215 0;
#X connect 218 0 215 0;
#X connect 219 0 220 0;
#X connect 220 0 215 0;
#X connect 222 0 239 1;
#X connect 223 0 29 0;
#X connect 223 0 245 0;
#X connect 224 0 24 1;
#X connect 224 0 228 0;
#X connect 225 0 70 1;
#X connect 225 0 229 0;
#X connect 226 0 32 1;
#X connect 226 0 230 0;
#X connect 227 0 107 1;
#X connect 227 0 231 0;
#X connect 232 0 254 0;
#X connect 233 0 251 0;
#X connect 234 0 248 0;
#X connect 235 0 244 0;
#X connect 236 0 240 0;
#X connect 238 0 223 0;
#X connect 239 0 238 1;
#X connect 240 0 239 0;
#X connect 240 0 5 0;
#X connect 241 0 240 0;
#X connect 241 0 244 0;
#X connect 241 0 248 0;
#X connect 241 0 251 0;
#X connect 241 0 254 0;
#X connect 242 0 224 0;
#X connect 243 0 242 1;
#X connect 244 0 243 0;
#X connect 244 0 1 0;
#X connect 246 0 225 0;
#X connect 246 0 262 0;
#X connect 247 0 246 1;
#X connect 248 0 247 0;
#X connect 248 0 4 0;
#X connect 249 0 226 0;
#X connect 250 0 249 1;
#X connect 251 0 250 0;
#X connect 251 0 35 0;
#X connect 252 0 227 0;
#X connect 252 0 259 0;
#X connect 253 0 252 1;
#X connect 254 0 253 0;
#X connect 254 0 101 0;
#X connect 255 0 14 0;
#X connect 256 0 264 1;
#X connect 257 0 265 1;
#X connect 258 0 242 0;
#X connect 260 0 247 1;
#X connect 261 0 243 1;
#X connect 263 0 246 0;
#X connect 264 0 267 0;
#X connect 265 0 266 0;
#X connect 266 0 268 0;
#X connect 267 0 269 0;
#X connect 268 0 46 0;
#X connect 269 0 49 0;
#X connect 270 0 203 0;
#X connect 271 0 12 0;
#X connect 272 0 271 1;
#X connect 273 0 272 0;
#X connect 274 0 241 0;
#X connect 275 0 276 1;
#X connect 276 0 277 0;
#X connect 277 0 279 0;
#X connect 278 0 271 0;
#X coords 0 -1 1 1 340 215 1 100 100;
#X restore 923 -159 pd cubesynth;
#N canvas 275 85 1280 845 chaos 0;
#X obj 101 100 cnv 15 230 210 empty empty empty 20 12 0 14 -256833
-66577 0;
#X obj 113 112 cnv 15 200 100 empty empty empty 20 12 0 14 -257281
-66577 0;
#X obj -553 -97 inlet;
#X obj -206 703 +;
#X obj -413 139 int;
#X obj -369 176 + 1;
#X obj -517 176 - 1;
#X obj -413 100 bng 15 250 50 0 empty empty empty 17 7 0 10 -262144
-1 -1;
#X obj -369 156 spigot 1;
#X obj -517 156 spigot 1;
#X floatatom -435 639 5 0 0 0 - - -;
#X floatatom -472 136 1 0 0 0 - - -;
#X floatatom -324 136 1 0 0 0 - - -;
#X obj -377 -46 vradio 11 1 0 2 empty empty empty 0 -8 0 10 -262144
-1 -1 1;
#X obj -377 -21 route 0 1;
#X obj -377 0 bng 15 250 50 0 empty empty empty 17 7 0 10 -262144 -1
-1;
#X obj -352 0 bng 15 250 50 0 empty empty empty 17 7 0 10 -262144 -1
-1;
#X msg -405 21 1;
#X msg -377 21 0;
#X msg -352 21 1;
#X msg -324 21 0;
#X text -365 -51 UP;
#X text -365 -41 DOWN;
#X obj -553 -47 bng 15 250 50 0 empty empty empty 17 7 0 10 -262144
-1 -1;
#X floatatom -157 160 2 1 5 0 - - -;
#N canvas 1 86 450 300 (subpatch) 0;
#X array sandmaker 50 float 3;
#A 0 1 6 3 0 5 4 3 4 5 4 3 2 1 6 3 6 3 6 3 6 7 0 1 0 7 6 5 2 7 4 1
2 3 4 5 6 7 0 1 3 5 3 1 0 7 6 5 4 3 2;
#X coords 0 16 50 -1 200 100 1 0 0;
#X restore 113 112 graph;
#X obj -553 23 int;
#X obj -528 23 + 1;
#X obj -377 -128 == 0;
#X obj -377 -109 route 1;
#X obj -377 -89 int;
#X obj -353 -89 + 1;
#X obj -377 -69 mod 2;
#X floatatom -286 232 5 0 0 0 - - -;
#X obj -409 246 +;
#X obj -377 -147 mod 2;
#X obj -258 -153 sin;
#X obj -258 -123 *;
#X obj -258 -180 /;
#X obj -258 -101 abs;
#X floatatom 113 216 5 0 0 1 angle_sin_div - -;
#X floatatom 113 235 5 0 0 1 angle_sin_multi - -;
#X obj -258 -56 int;
#X obj -258 -81 +;
#X floatatom 113 254 5 0 0 1 angle_sin_offset - -;
#X floatatom -258 -34 5 0 0 1 angle - -;
#X obj -157 100 random 5;
#X obj -157 40 mod 4;
#X obj -157 60 == 0;
#X obj -157 80 route 1;
#X obj -157 119 + 1;
#X floatatom -157 139 0 0 0 1 step_amount - -;
#X floatatom 195 273 5 0 0 1 step_change_freq - -;
#X floatatom 195 291 5 0 0 1 step_max - -;
#X msg -288 198 8;
#X obj -446 530 mod 15;
#X floatatom -494 242 5 0 0 0 - - -;
#X obj -507 297 clip 0 15;
#X floatatom -513 329 5 0 0 0 - - -;
#X obj -501 265 abs;
#X obj -12 -243 loadbang;
#X msg -18 -211 3;
#X msg 67 -211 1;
#X msg 25 -212 2;
#X obj -435 665 tabwrite sandmaker;
#X obj -330 638 mod 50;
#X floatatom 105 291 3 0 0 1 main_offset - -;
#X obj -474 -63 s angletrigger;
#X obj -474 -92 bng 15 250 50 0 empty empty empty 17 7 0 10 -262144
-1 -1;
#X obj -181 349 == 49;
#X obj -180 372 route 1;
#X obj -222 292 +;
#X obj -180 413 random 5;
#X obj 267 -189 bng 15 250 50 0 empty empty empty 17 7 0 10 -262144
-1 -1;
#X msg 222 -157 12;
#X msg 268 -151 2;
#X msg 306 -151 7;
#X obj 311 224 bng 15 250 50 0 empty empty empty 17 7 0 10 -262144
-1 -1;
#X obj -221 749 outlet;
#X floatatom 266 243 2 1 15 1 mod - -;
#X msg 108 -210 14;
#X connect 2 0 23 0;
#X connect 3 0 78 0;
#X connect 4 0 8 0;
#X connect 4 0 9 0;
#X connect 4 0 34 0;
#X connect 5 0 4 1;
#X connect 6 0 4 1;
#X connect 7 0 4 0;
#X connect 8 0 5 0;
#X connect 9 0 6 0;
#X connect 10 0 64 0;
#X connect 10 0 3 0;
#X connect 11 0 9 1;
#X connect 12 0 8 1;
#X connect 13 0 14 0;
#X connect 14 0 15 0;
#X connect 14 1 16 0;
#X connect 15 0 17 0;
#X connect 15 0 18 0;
#X connect 16 0 19 0;
#X connect 16 0 20 0;
#X connect 17 0 12 0;
#X connect 18 0 11 0;
#X connect 19 0 11 0;
#X connect 20 0 12 0;
#X connect 23 0 7 0;
#X connect 23 0 26 0;
#X connect 24 0 5 1;
#X connect 24 0 6 1;
#X connect 26 0 27 0;
#X connect 26 0 35 0;
#X connect 26 0 38 0;
#X connect 26 0 47 0;
#X connect 26 0 65 0;
#X connect 27 0 26 1;
#X connect 28 0 29 0;
#X connect 29 0 30 0;
#X connect 29 0 68 0;
#X connect 30 0 31 0;
#X connect 30 0 32 0;
#X connect 31 0 30 1;
#X connect 32 0 13 0;
#X connect 33 0 34 1;
#X connect 34 0 56 0;
#X connect 34 0 55 0;
#X connect 35 0 28 0;
#X connect 36 0 37 0;
#X connect 37 0 39 0;
#X connect 38 0 36 0;
#X connect 39 0 43 0;
#X connect 40 0 38 1;
#X connect 41 0 37 1;
#X connect 42 0 45 0;
#X connect 43 0 42 0;
#X connect 44 0 43 1;
#X connect 45 0 35 1;
#X connect 46 0 50 0;
#X connect 47 0 48 0;
#X connect 48 0 49 0;
#X connect 49 0 46 0;
#X connect 50 0 51 0;
#X connect 51 0 24 0;
#X connect 52 0 47 1;
#X connect 53 0 46 1;
#X connect 54 0 4 0;
#X connect 55 0 10 0;
#X connect 56 0 59 0;
#X connect 57 0 58 0;
#X connect 59 0 57 0;
#X connect 60 0 61 0;
#X connect 60 0 63 0;
#X connect 60 0 62 0;
#X connect 60 0 80 0;
#X connect 61 0 40 0;
#X connect 61 0 41 0;
#X connect 62 0 44 0;
#X connect 63 0 52 0;
#X connect 63 0 53 0;
#X connect 65 0 64 1;
#X connect 65 0 69 0;
#X connect 66 0 3 1;
#X connect 68 0 67 0;
#X connect 69 0 70 0;
#X connect 70 0 72 0;
#X connect 73 0 74 0;
#X connect 73 0 76 0;
#X connect 73 0 75 0;
#X connect 74 0 40 0;
#X connect 75 0 41 0;
#X connect 75 0 52 0;
#X connect 75 0 53 0;
#X connect 76 0 44 0;
#X connect 77 0 73 0;
#X connect 79 0 55 1;
#X connect 80 0 79 0;
#X coords 0 -1 1 1 230 210 1 100 100;
#X restore 1136 485 pd chaos;
#N canvas 1 84 1600 846 baliarpg 0;
#X obj 100 100 cnv 15 400 270 empty empty empty 20 12 0 14 -147521
-66577 0;
#X obj -13 -268 int;
#X obj 11 -268 + 1;
#X obj -13 -290 bng 15 250 50 0 empty empty empty 17 7 0 10 -262144
-1 -1;
#X floatatom -13 -243 5 0 0 0 - - -;
#X obj 111 209 vradio 15 1 0 9 empty empty empty 0 -8 0 10 -229633
-1 -1 4;
#X obj -13 -374 mod 16;
#X obj 126 209 vradio 15 1 0 9 empty empty empty 0 -8 0 10 -230145
-1 -1 3;
#X obj 141 209 vradio 15 1 0 9 empty empty empty 0 -8 0 10 -229633
-1 -1 5;
#X obj 156 209 vradio 15 1 0 9 empty empty empty 0 -8 0 10 -230145
-1 -1 1;
#X obj 172 209 vradio 15 1 0 9 empty empty empty 0 -8 0 10 -229633
-1 -1 8;
#X obj 187 209 vradio 15 1 0 9 empty empty empty 0 -8 0 10 -230145
-1 -1 8;
#X obj 202 209 vradio 15 1 0 9 empty empty empty 0 -8 0 10 -229633
-1 -1 8;
#X obj 217 209 vradio 15 1 0 9 empty empty empty 0 -8 0 10 -230145
-1 -1 6;
#X obj -97 -115 sin;
#X obj -97 -91 *;
#X floatatom 147 153 2 0 0 0 - - -;
#X obj -97 -66 +;
#X floatatom 147 170 2 0 0 0 - - -;
#X floatatom -95 -34 5 0 0 0 - - -;
#X obj -95 -13 int;
#X obj -97 -162 /;
#X floatatom 147 119 2 0 0 0 - - -;
#X obj -97 -137 +;
#X floatatom 147 136 3 0 0 0 - - -;
#X obj 14 -119 sin;
#X obj 14 -95 *;
#X floatatom 168 152 2 0 0 0 - - -;
#X obj 14 -70 +;
#X floatatom 169 169 2 0 0 0 - - -;
#X floatatom 16 -38 5 0 0 0 - - -;
#X obj 16 -17 int;
#X obj 14 -166 /;
#X floatatom 167 119 2 0 0 0 - - -;
#X obj 14 -141 +;
#X floatatom 168 136 3 0 0 0 - - -;
#X obj 130 -122 sin;
#X obj 130 -98 *;
#X floatatom 189 152 2 0 0 0 - - -;
#X obj 130 -73 +;
#X floatatom 190 169 2 0 0 0 - - -;
#X floatatom 132 -41 5 0 0 0 - - -;
#X obj 132 -20 int;
#X obj 130 -169 /;
#X floatatom 188 118 2 0 0 0 - - -;
#X obj 130 -144 +;
#X floatatom 189 135 3 0 0 0 - - -;
#X obj 244 -123 sin;
#X obj 244 -99 *;
#X floatatom 211 152 2 0 0 0 - - -;
#X obj 244 -74 +;
#X floatatom 211 169 2 0 0 0 - - -;
#X floatatom 246 -42 5 0 0 0 - - -;
#X obj 246 -21 int;
#X obj 244 -170 /;
#X floatatom 210 118 2 0 0 0 - - -;
#X obj 244 -145 +;
#X floatatom 210 135 3 0 0 0 - - -;
#X obj 366 -122 sin;
#X obj 366 -98 *;
#X floatatom 231 152 2 0 0 0 - - -;
#X obj 366 -73 +;
#X floatatom 231 169 2 0 0 0 - - -;
#X floatatom 366 -49 5 0 0 0 - - -;
#X obj 366 -28 int;
#X obj 366 -169 /;
#X floatatom 231 117 2 0 0 0 - - -;
#X obj 366 -144 +;
#X floatatom 231 134 3 0 0 0 - - -;
#X obj 477 -126 sin;
#X obj 477 -102 *;
#X floatatom 253 152 2 0 0 0 - - -;
#X obj 477 -77 +;
#X floatatom 253 169 2 0 0 0 - - -;
#X floatatom 479 -45 5 0 0 0 - - -;
#X obj 479 -24 int;
#X obj 477 -173 /;
#X floatatom 253 117 2 0 0 0 - - -;
#X obj 477 -148 +;
#X floatatom 253 134 3 0 0 0 - - -;
#X obj 593 -129 sin;
#X obj 593 -105 *;
#X floatatom 274 151 2 0 0 0 - - -;
#X obj 593 -80 +;
#X floatatom 274 168 2 0 0 0 - - -;
#X floatatom 595 -48 5 0 0 0 - - -;
#X obj 595 -27 int;
#X obj 593 -176 /;
#X floatatom 273 117 2 0 0 0 - - -;
#X obj 593 -151 +;
#X floatatom 273 134 3 0 0 0 - - -;
#X obj 707 -130 sin;
#X obj 707 -106 *;
#X floatatom 294 151 2 0 0 0 - - -;
#X obj 707 -81 +;
#X floatatom 294 168 2 0 0 0 - - -;
#X floatatom 709 -49 5 0 0 0 - - -;
#X obj 709 -28 int;
#X obj 707 -177 /;
#X floatatom 294 116 2 0 0 0 - - -;
#X obj 707 -152 +;
#X floatatom 294 134 3 0 0 0 - - -;
#X floatatom 324 120 5 1 16 1 common_speed - -;
#X obj 101 442 tabwrite arpgmatrix;
#X msg 222 442 0;
#X floatatom 101 426 5 0 0 0 - - -;
#X obj 102 476 tabwrite arpgmatrix;
#X floatatom 102 460 5 0 0 0 - - -;
#X obj 103 511 tabwrite arpgmatrix;
#X floatatom 103 495 5 0 0 0 - - -;
#X obj 104 545 tabwrite arpgmatrix;
#X floatatom 104 529 5 0 0 0 - - -;
#X obj 251 441 tabwrite arpgmatrix;
#X floatatom 251 425 5 0 0 0 - - -;
#X obj 252 475 tabwrite arpgmatrix;
#X floatatom 252 459 5 0 0 0 - - -;
#X obj 253 510 tabwrite arpgmatrix;
#X floatatom 253 494 5 0 0 0 - - -;
#X obj 254 544 tabwrite arpgmatrix;
#X floatatom 254 528 5 0 0 0 - - -;
#X msg 223 476 1;
#X msg 224 510 2;
#X msg 225 545 3;
#X msg 372 441 4;
#X msg 373 475 5;
#X msg 374 510 6;
#X msg 375 544 7;
#X floatatom 81 -418 5 0 0 0 - - -;
#X obj 81 -486 int;
#X obj 105 -486 + 1;
#X obj 81 -508 bng 15 250 50 0 empty empty empty 17 7 0 10 -262144
-1 -1;
#X obj -13 -352 == 0;
#X obj -13 -329 route 1;
#X obj -13 -309 bng 15 250 50 0 empty empty empty 17 7 0 10 -262144
-1 -1;
#X obj 81 -443 tabread arpgmatrix;
#X obj 81 -464 mod 8;
#X obj 81 -388 tabwrite graph;
#X floatatom 366 183 3 0 0 1 change_freq - -;
#X msg 41 -424 64;
#X floatatom 324 140 5 1 8 1 common_range - -;
#X floatatom 324 161 5 0 8 1 common_origo - -;
#X obj 240 209 vradio 15 1 0 9 empty empty empty 0 -8 0 10 -233729
-1 -1 4;
#X obj 255 209 vradio 15 1 0 9 empty empty empty 0 -8 0 10 -234049
-1 -1 0;
#X obj 484 -410 - 4;
#X obj 484 -389 abs;
#X floatatom 484 -368 5 0 0 0 - - -;
#X obj 111 195 hradio 10 1 0 16 empty empty empty 0 -8 0 10 -233921
-1 -1 0;
#X text 242 341 O;
#X text 257 341 R;
#X text 271 190 s;
#X text 114 342 1;
#X text 129 342 2;
#X text 145 342 3;
#X text 160 342 4;
#X text 174 342 5;
#X text 188 341 6;
#X text 204 342 7;
#X text 218 342 8;
#X obj 671 -349 + 1;
#X floatatom 270 269 2 0 0 0 - - -;
#X obj 324 -379 + 1;
#X msg 107 -514 0;
#X obj 162 -408 mod 64;
#X text 146 100 1;
#X text 113 121 div;
#X text 106 137 offset;
#X text 108 155 multi;
#X text 108 172 origo;
#X text 167 100 2;
#X text 188 100 3;
#X text 208 100 4;
#X text 232 100 5;
#X text 253 99 6;
#X text 273 100 7;
#X text 295 99 8;
#N canvas 0 0 450 300 (subpatch) 0;
#X array arpgmatrix 8 float 3;
#A 0 4 3 5 1 8 8 8 6;
#X coords 0 8 8 0 100 40 1 0 0;
#X restore 859 -165 graph;
#X obj 290 206 cnv 15 200 140 empty empty empty 20 12 0 14 -258113
-66577 0;
#N canvas 0 0 450 300 (subpatch) 0;
#X array graph 64 float 1;
#A 0 3 5 1 8 8 8 6 4 3 5 1 8 8 8 6 4 3 5 1 8 8 8 3 1 6 8 4 7 4 8 3
1 6 8 4 7 4 8 3 1 6 8 4 7 4 8 3 1 6 8 4 7 4 8 3 1 6 8 4 7 4 8 3 4;
#X coords 0 8 63 0 200 140 1 0 0;
#X restore 289 206 graph;
#X obj 81 -565 inlet;
#X obj 132 -559 r stop;
#X obj 145 -533 bng 15 250 50 0 empty empty empty 17 7 0 10 -262144
-1 -1;
#X obj -24 -516 loadbang;
#X obj 87 -306 outlet;
#X floatatom 290 349 5 0 0 1 offset - -;
#X obj 86 -346 +;
#X connect 1 0 2 0;
#X connect 1 0 4 0;
#X connect 2 0 1 1;
#X connect 3 0 1 0;
#X connect 4 0 21 0;
#X connect 4 0 32 0;
#X connect 4 0 43 0;
#X connect 4 0 54 0;
#X connect 4 0 65 0;
#X connect 4 0 76 0;
#X connect 4 0 87 0;
#X connect 4 0 98 0;
#X connect 5 0 105 0;
#X connect 6 0 131 0;
#X connect 7 0 107 0;
#X connect 8 0 109 0;
#X connect 9 0 111 0;
#X connect 10 0 113 0;
#X connect 11 0 115 0;
#X connect 12 0 117 0;
#X connect 13 0 119 0;
#X connect 14 0 15 0;
#X connect 15 0 17 0;
#X connect 16 0 15 1;
#X connect 17 0 19 0;
#X connect 18 0 17 1;
#X connect 19 0 20 0;
#X connect 20 0 5 0;
#X connect 21 0 23 0;
#X connect 22 0 21 1;
#X connect 23 0 14 0;
#X connect 24 0 23 1;
#X connect 25 0 26 0;
#X connect 26 0 28 0;
#X connect 27 0 26 1;
#X connect 28 0 30 0;
#X connect 29 0 28 1;
#X connect 30 0 31 0;
#X connect 31 0 7 0;
#X connect 32 0 34 0;
#X connect 33 0 32 1;
#X connect 34 0 25 0;
#X connect 35 0 34 1;
#X connect 36 0 37 0;
#X connect 37 0 39 0;
#X connect 38 0 37 1;
#X connect 39 0 41 0;
#X connect 40 0 39 1;
#X connect 41 0 42 0;
#X connect 42 0 8 0;
#X connect 43 0 45 0;
#X connect 44 0 43 1;
#X connect 45 0 36 0;
#X connect 46 0 45 1;
#X connect 47 0 48 0;
#X connect 48 0 50 0;
#X connect 49 0 48 1;
#X connect 50 0 52 0;
#X connect 51 0 50 1;
#X connect 52 0 53 0;
#X connect 53 0 9 0;
#X connect 54 0 56 0;
#X connect 55 0 54 1;
#X connect 56 0 47 0;
#X connect 57 0 56 1;
#X connect 58 0 59 0;
#X connect 59 0 61 0;
#X connect 60 0 59 1;
#X connect 61 0 63 0;
#X connect 62 0 61 1;
#X connect 63 0 64 0;
#X connect 64 0 10 0;
#X connect 65 0 67 0;
#X connect 66 0 65 1;
#X connect 67 0 58 0;
#X connect 68 0 67 1;
#X connect 69 0 70 0;
#X connect 70 0 72 0;
#X connect 71 0 70 1;
#X connect 72 0 74 0;
#X connect 73 0 72 1;
#X connect 74 0 75 0;
#X connect 75 0 11 0;
#X connect 76 0 78 0;
#X connect 77 0 76 1;
#X connect 78 0 69 0;
#X connect 79 0 78 1;
#X connect 80 0 81 0;
#X connect 81 0 83 0;
#X connect 82 0 81 1;
#X connect 83 0 85 0;
#X connect 84 0 83 1;
#X connect 85 0 86 0;
#X connect 86 0 12 0;
#X connect 87 0 89 0;
#X connect 88 0 87 1;
#X connect 89 0 80 0;
#X connect 90 0 89 1;
#X connect 91 0 92 0;
#X connect 92 0 94 0;
#X connect 93 0 92 1;
#X connect 94 0 96 0;
#X connect 95 0 94 1;
#X connect 96 0 97 0;
#X connect 97 0 13 0;
#X connect 98 0 100 0;
#X connect 99 0 98 1;
#X connect 100 0 91 0;
#X connect 101 0 100 1;
#X connect 102 0 22 0;
#X connect 102 0 33 0;
#X connect 102 0 44 0;
#X connect 102 0 55 0;
#X connect 102 0 66 0;
#X connect 102 0 77 0;
#X connect 102 0 88 0;
#X connect 102 0 99 0;
#X connect 104 0 103 1;
#X connect 105 0 103 0;
#X connect 105 0 104 0;
#X connect 107 0 106 0;
#X connect 107 0 120 0;
#X connect 109 0 108 0;
#X connect 109 0 121 0;
#X connect 111 0 110 0;
#X connect 111 0 122 0;
#X connect 113 0 112 0;
#X connect 113 0 123 0;
#X connect 115 0 114 0;
#X connect 115 0 124 0;
#X connect 117 0 116 0;
#X connect 117 0 125 0;
#X connect 119 0 118 0;
#X connect 119 0 126 0;
#X connect 120 0 106 1;
#X connect 121 0 108 1;
#X connect 122 0 110 1;
#X connect 123 0 112 1;
#X connect 124 0 114 1;
#X connect 125 0 116 1;
#X connect 126 0 118 1;
#X connect 127 0 136 0;
#X connect 127 0 184 0;
#X connect 128 0 129 0;
#X connect 128 0 6 0;
#X connect 128 0 135 0;
#X connect 128 0 162 0;
#X connect 129 0 128 1;
#X connect 130 0 128 0;
#X connect 131 0 132 0;
#X connect 132 0 133 0;
#X connect 133 0 3 0;
#X connect 134 0 127 0;
#X connect 135 0 134 0;
#X connect 137 0 6 1;
#X connect 138 0 137 0;
#X connect 139 0 93 0;
#X connect 139 0 82 0;
#X connect 139 0 71 0;
#X connect 139 0 60 0;
#X connect 139 0 49 0;
#X connect 139 0 38 0;
#X connect 139 0 27 0;
#X connect 139 0 16 0;
#X connect 140 0 95 0;
#X connect 140 0 84 0;
#X connect 140 0 73 0;
#X connect 140 0 62 0;
#X connect 140 0 51 0;
#X connect 140 0 40 0;
#X connect 140 0 29 0;
#X connect 140 0 18 0;
#X connect 141 0 158 0;
#X connect 142 0 143 0;
#X connect 143 0 144 0;
#X connect 144 0 145 0;
#X connect 145 0 139 0;
#X connect 146 0 160 0;
#X connect 158 0 140 0;
#X connect 160 0 102 0;
#X connect 161 0 128 0;
#X connect 162 0 136 1;
#X connect 178 0 130 0;
#X connect 179 0 180 0;
#X connect 180 0 161 0;
#X connect 181 0 138 0;
#X connect 183 0 184 1;
#X connect 184 0 182 0;
#X coords 0 -1 1 1 400 270 1 100 100;
#X restore 5 260 pd baliarpg;
#N canvas 46 134 1443 880 sinesumfactor 0;
#X obj 101 100 cnv 15 400 440 empty empty empty 20 12 0 14 -110853
-66577 0;
#X obj 105 121 cnv 15 390 160 empty empty empty 20 12 0 14 -174107
-66577 0;
#N canvas 1 83 450 300 (subpatch) 0;
#X array sinesumX 131 float 3;
#A 0 -0.146266 0 0.146266 0.289322 0.42604 0.553452 0.668826 0.769731
0.854102 0.920282 0.967066 0.99372 1 0.986145 0.952867 0.90132 0.833067
0.750028 0.654426 0.548721 0.435543 0.317621 0.197709 0.0785197 -0.0373471
-0.147463 -0.249628 -0.341917 -0.422716 -0.490752 -0.545111 -0.585243
-0.610959 -0.622421 -0.620117 -0.604836 -0.577627 -0.539763 -0.492697
-0.43801 -0.377371 -0.312486 -0.245056 -0.176735 -0.109096 -0.0435961
0.0184469 0.0758759 0.127709 0.173147 0.211577 0.242572 0.265881 0.281425
0.289278 0.289657 0.282904 0.269473 0.249907 0.22483 0.194928 0.160939
0.123637 0.0838285 0.0423375 2.2962e-06 -0.042333 -0.0838241 -0.123633
-0.160935 -0.194925 -0.224827 -0.249904 -0.269471 -0.282903 -0.289656
-0.289278 -0.281426 -0.265883 -0.242575 -0.211581 -0.173151 -0.127714
-0.0758818 -0.0184533 0.0435892 0.109089 0.176728 0.245048 0.312479
0.377364 0.438004 0.492691 0.539759 0.577623 0.604833 0.620117 0.622422
0.610961 0.585247 0.545116 0.490759 0.422724 0.341926 0.249639 0.147475
0.0373593 -0.0785069 -0.197696 -0.317608 -0.435531 -0.548709 -0.654415
-0.750018 -0.833058 -0.901313 -0.952862 -0.986143 -1 -0.993722 -0.96707
-0.920288 -0.85411 -0.769741 -0.668837 -0.553465 -0.426054 -0.289337
-0.146281 -1.5872e-05 0.14625;
#X coords 0 1 131 -1 150 60 1 0 0;
#X restore 110 214 graph;
#X floatatom -413 -22 5 0 0 0 - - -;
#X floatatom -363 -23 5 0 0 0 - - -;
#X floatatom -313 -27 5 0 0 0 - - -;
#X obj -843 486 int;
#X obj -811 484 + 1;
#X obj -432 -64 shuffle;
#X floatatom 110 139 3 0 0 1 + - -;
#X floatatom 110 158 3 0 0 1 -- - -;
#X obj -432 -84 bng 15 250 50 0 empty empty empty 17 7 0 10 -262144
-1 -1;
#X obj -381 -67 shuffle;
#X floatatom 163 139 3 0 0 1 + - -;
#X floatatom 163 158 3 0 0 1 -- - -;
#X obj -382 -87 bng 15 250 50 0 empty empty empty 17 7 0 10 -262144
-1 -1;
#X obj -324 -62 shuffle;
#X floatatom 220 141 3 0 0 1 + - -;
#X floatatom 220 160 3 0 0 1 -- - -;
#X obj -326 -81 bng 15 250 50 0 empty empty empty 17 7 0 10 -262144
-1 -1;
#X obj -361 -138 bng 15 250 50 0 empty empty empty 17 7 0 10 -262144
-1 -1;
#X msg -795 409 0;
#X floatatom -875 555 5 0 0 0 - - -;
#X obj -560 751 == 0;
#X obj -560 776 route 1;
#X obj -160 -33 mod 5;
#X obj -160 -10 == 0;
#X obj -160 14 route 1;
#X obj -362 24 pack f f f;
#X obj -761 761 + 25;
#X obj -761 734 mod 50;
#N canvas 0 0 450 300 (subpatch) 0;
#X array graphX 50 float 3;
#A 0 -1 -1 -1 -1 -1 -1 -1 -1 -1 -1 -1 -1 -1 -1 -1 -1 -1 -1 -1 -1 -1
-1 -1 -1 -1 -1 -1 -1 -1 -1 -1 -1 -1 -1 -1 -1 -1 -1 -1 -1 -1 -1 -1 -1
-1 -1 -1 -1 -1 -0.147463;
#X coords 0 1 49 -1 200 70 1 0 0;
#X restore 289 206 graph;
#X floatatom 139 181 5 1 32 1 factorization_speed - -;
#X msg -560 798 \; graphX const -1;
#X obj -666 861 tabwrite graphX;
#X msg -362 49 \; sinesumX sinesum 131 1 \$1 \$2 \$3;
#X msg -503 55 \; sinesumX normalize 1;
#X obj -802 828 tabread sinesumX;
#X text 107 120 Factor 1;
#X text 160 120 Factor 2;
#X text 217 121 Factor 3;
#X obj -463 -36 bng 15 250 50 0 empty empty empty 17 7 0 10 -262144
-1 -1;
#X obj 116 182 bng 15 250 50 0 empty empty empty 17 7 0 10 -262144
-1 -1;
#X obj 105 286 cnv 15 390 160 empty empty empty 20 12 0 14 -174363
-66577 0;
#N canvas 1 83 450 300 (subpatch) 0;
#X array sinesumY 131 float 3;
#A 0 -0.154409 0 0.154409 0.305035 0.4482 0.580445 0.698618 0.79997
0.882228 0.943656 0.983096 0.999999 0.994428 0.967045 0.919085 0.852305
0.768925 0.671549 0.563083 0.44664 0.325442 0.202725 0.0816424 -0.0348289
-0.143966 -0.243373 -0.331043 -0.405395 -0.465311 -0.510142 -0.539712
-0.554294 -0.55458 -0.541636 -0.516851 -0.481868 -0.438518 -0.388749
-0.334553 -0.2779 -0.220668 -0.164589 -0.111202 -0.0618085 -0.017451
0.0211061 0.0533791 0.0791586 0.0984914 0.111654 0.119118 0.121512
0.119575 0.114113 0.105954 0.0959073 0.0847225 0.0730601 0.0614656
0.0503525 0.0399947 0.0305257 0.021948 0.0141488 0.00692296 3.71432e-07
-0.0069222 -0.014148 -0.0219471 -0.0305247 -0.0399936 -0.0503514 -0.0614643
-0.0730589 -0.0847213 -0.0959061 -0.105953 -0.114112 -0.119575 -0.121512
-0.119119 -0.111655 -0.0984931 -0.079161 -0.0533823 -0.0211099 0.0174465
0.0618035 0.111196 0.164583 0.220662 0.277894 0.334547 0.388743 0.438513
0.481864 0.516848 0.541634 0.554579 0.554295 0.539715 0.510146 0.465316
0.405402 0.331052 0.243384 0.143977 0.0348411 -0.0816295 -0.202712
-0.325429 -0.446627 -0.563071 -0.671538 -0.768915 -0.852297 -0.919078
-0.967041 -0.994426 -1 -0.983099 -0.943661 -0.882236 -0.79998 -0.69863
-0.580458 -0.448215 -0.305051 -0.154426 -1.67629e-05 0.154393;
#X coords 0 1 131 -1 150 60 1 0 0;
#X restore 110 379 graph;
#X floatatom -427 194 5 0 0 0 - - -;
#X floatatom -377 193 5 0 0 0 - - -;
#X floatatom -327 189 5 0 0 0 - - -;
#X obj -446 152 shuffle;
#X floatatom 110 304 3 0 0 1 + - -;
#X floatatom 110 323 3 0 0 1 -- - -;
#X obj -446 132 bng 15 250 50 0 empty empty empty 17 7 0 10 -262144
-1 -1;
#X obj -395 149 shuffle;
#X floatatom 163 304 3 0 0 1 + - -;
#X floatatom 163 323 3 0 0 1 -- - -;
#X obj -396 129 bng 15 250 50 0 empty empty empty 17 7 0 10 -262144
-1 -1;
#X obj -338 154 shuffle;
#X floatatom 220 306 3 0 0 1 + - -;
#X floatatom 220 325 3 0 0 1 -- - -;
#X obj -340 135 bng 15 250 50 0 empty empty empty 17 7 0 10 -262144
-1 -1;
#X obj -376 101 bng 15 250 50 0 empty empty empty 17 7 0 10 -262144
-1 -1;
#X obj -170 179 mod 5;
#X obj -174 206 == 0;
#X obj -174 228 route 1;
#X obj -376 240 pack f f f;
#N canvas 0 0 450 300 (subpatch) 0;
#X array graphY 50 float 3;
#A 0 -0.710699 -0.742625 -0.750132 -0.733877 -0.695309 -0.636593 -0.560514
-0.470358 -0.369782 -0.262669 -0.152979 -0.0446028 0.0587789 0.153827
0.237657 0.307931 0.362926 0.401582 0.423515 0.42901 0.418982 0.394916
0.0984914 0.111654 0.119118 0.121512 0.119575 0.114113 0.105954 0.0959073
0.0847225 0.0730601 0.0614656 0.0503525 0.0399947 0.0305257 0.021948
0.0141488 0.00692296 3.71432e-07 -0.0069222 -0.014148 -0.0219471 -0.0305247
-0.0399936 -0.0503514 -1 -1 -1 -0.654528;
#X coords 0 1 49 -1 200 70 1 0 0;
#X restore 289 371 graph;
#X floatatom 139 346 5 1 32 1 factorization_speed - -;
#X text 107 285 Factor 1;
#X text 160 285 Factor 2;
#X text 217 286 Factor 3;
#X obj -470 174 bng 15 250 50 0 empty empty empty 17 7 0 10 -262144
-1 -1;
#X obj 116 347 bng 15 250 50 0 empty empty empty 17 7 0 10 -262144
-1 -1;
#X msg -517 271 \; sinesumY normalize 1;
#X msg -375 265 \; sinesumY sinesum 131 1 \$1 \$2 \$3;
#X obj -135 736 == 0;
#X obj -135 761 route 1;
#X obj -336 746 + 25;
#X obj -336 719 mod 50;
#X obj -376 813 tabread sinesumY;
#X obj -240 847 tabwrite graphY;
#X obj -441 1026 *;
#X obj -879 343 inlet;
#X obj -865 416 bng 15 250 50 0 empty empty empty 17 7 0 10 -262144
-1 -1;
#X floatatom 232 476 10 0 0 1 overcome - -;
#X msg -134 784 \; graphY const -1;
#X text 223 101 3D Sinesum Vector Sequencer;
#X obj 111 466 vradio 18 1 0 2 empty empty empty 0 -8 0 10 -103873
-1 -1 1;
#X text 131 465 1D;
#X text 131 483 2D;
#X text 110 445 Dimension;
#X obj -577 1383 spigot 1;
#X floatatom -532 1356 1 0 0 0 - - -;
#X obj -380 1382 spigot 1;
#X floatatom -335 1355 1 0 0 0 - - -;
#X floatatom -375 1415 5 0 0 0 - - -;
#X text -565 1362 1D;
#X text -367 1364 2D;
#X obj 157 1304 bng 15 250 50 0 empty empty empty 17 7 0 10 -262144
-1 -1;
#X obj 186 1307 bng 15 250 50 0 empty empty empty 17 7 0 10 -262144
-1 -1;
#X msg 113 1338 0;
#X msg 183 1339 0;
#X msg 140 1338 1;
#X msg 209 1339 1;
#X floatatom 536 598 5 0 0 0 - - -;
#X floatatom -802 877 5 0 0 0 - - -;
#X floatatom -376 869 5 0 0 0 - - -;
#X floatatom 367 138 6 0 0 1 max - -;
#X floatatom 367 157 6 0 0 1 base - -;
#X obj -802 899 *;
#X floatatom 367 176 6 0 0 1 overcome - -;
#X floatatom 371 300 6 0 0 1 max - -;
#X floatatom 371 319 6 0 0 1 base - -;
#X floatatom 371 338 6 0 0 1 overcome - -;
#X obj -802 920 +;
#X obj -802 942 int;
#X floatatom -778 1016 5 0 0 0 - - -;
#X obj -376 891 *;
#X obj -376 912 +;
#X obj -376 934 int;
#X floatatom -376 956 5 0 0 0 - - -;
#X floatatom 275 316 5 0 0 1 offset - -;
#X floatatom 273 149 5 0 0 1 offset - -;
#X obj -486 622 +;
#X obj -782 661 +;
#X obj 163 466 vradio 18 1 0 2 empty empty empty 0 -8 0 10 -103873
-1 -1 0;
#X obj -395 1076 +;
#X obj -380 1176 spigot 1;
#X obj -442 1175 spigot 1;
#X floatatom -397 1150 1 0 0 0 - - -;
#X floatatom -335 1150 1 0 0 0 - - -;
#X floatatom 289 1032 5 0 0 0 - - -;
#X floatatom 290 1076 5 0 0 0 - - -;
#X obj 289 1053 != 1;
#X text 183 464 SUM;
#X text 183 482 MULTI;
#X obj 161 1269 route 0 1;
#X obj -380 1449 outlet;
#X connect 3 0 28 0;
#X connect 4 0 28 1;
#X connect 4 0 41 0;
#X connect 5 0 28 2;
#X connect 5 0 41 0;
#X connect 6 0 7 0;
#X connect 6 0 22 0;
#X connect 6 0 25 0;
#X connect 6 0 61 0;
#X connect 6 0 123 0;
#X connect 6 0 122 0;
#X connect 7 0 6 1;
#X connect 8 0 3 0;
#X connect 9 0 8 1;
#X connect 10 0 8 2;
#X connect 11 0 8 0;
#X connect 12 0 4 0;
#X connect 13 0 12 1;
#X connect 14 0 12 2;
#X connect 15 0 12 0;
#X connect 16 0 5 0;
#X connect 17 0 16 1;
#X connect 18 0 16 2;
#X connect 19 0 16 0;
#X connect 20 0 11 0;
#X connect 20 0 15 0;
#X connect 20 0 19 0;
#X connect 21 0 6 0;
#X connect 23 0 24 0;
#X connect 24 0 33 0;
#X connect 25 0 26 0;
#X connect 26 0 27 0;
#X connect 27 0 20 0;
#X connect 28 0 35 0;
#X connect 28 0 36 0;
#X connect 29 0 37 0;
#X connect 30 0 23 0;
#X connect 30 0 29 0;
#X connect 30 0 34 1;
#X connect 32 0 25 1;
#X connect 37 0 34 0;
#X connect 37 0 104 0;
#X connect 41 0 3 0;
#X connect 42 0 20 0;
#X connect 45 0 64 0;
#X connect 46 0 64 1;
#X connect 46 0 70 0;
#X connect 47 0 64 2;
#X connect 47 0 70 0;
#X connect 48 0 45 0;
#X connect 49 0 48 1;
#X connect 50 0 48 2;
#X connect 51 0 48 0;
#X connect 52 0 46 0;
#X connect 53 0 52 1;
#X connect 54 0 52 2;
#X connect 55 0 52 0;
#X connect 56 0 47 0;
#X connect 57 0 56 1;
#X connect 58 0 56 2;
#X connect 59 0 56 0;
#X connect 60 0 51 0;
#X connect 60 0 55 0;
#X connect 60 0 59 0;
#X connect 61 0 62 0;
#X connect 62 0 63 0;
#X connect 63 0 60 0;
#X connect 64 0 73 0;
#X connect 64 0 72 0;
#X connect 66 0 61 1;
#X connect 70 0 45 0;
#X connect 71 0 60 0;
#X connect 74 0 75 0;
#X connect 75 0 84 0;
#X connect 76 0 78 0;
#X connect 77 0 74 0;
#X connect 77 0 76 0;
#X connect 77 0 79 1;
#X connect 78 0 79 0;
#X connect 78 0 105 0;
#X connect 80 0 127 0;
#X connect 81 0 82 0;
#X connect 82 0 6 0;
#X connect 86 0 135 0;
#X connect 90 0 94 0;
#X connect 91 0 90 1;
#X connect 92 0 94 0;
#X connect 93 0 92 1;
#X connect 94 0 103 0;
#X connect 94 0 136 0;
#X connect 97 0 99 0;
#X connect 97 0 101 0;
#X connect 98 0 100 0;
#X connect 98 0 102 0;
#X connect 99 0 93 0;
#X connect 100 0 91 0;
#X connect 101 0 91 0;
#X connect 102 0 93 0;
#X connect 103 0 83 0;
#X connect 104 0 108 0;
#X connect 105 0 116 0;
#X connect 106 0 108 1;
#X connect 107 0 113 1;
#X connect 108 0 113 0;
#X connect 110 0 116 1;
#X connect 111 0 117 1;
#X connect 113 0 114 0;
#X connect 114 0 115 0;
#X connect 115 0 109 0;
#X connect 115 0 90 0;
#X connect 115 0 80 0;
#X connect 115 0 125 0;
#X connect 116 0 117 0;
#X connect 117 0 118 0;
#X connect 118 0 119 0;
#X connect 119 0 112 0;
#X connect 119 0 80 1;
#X connect 119 0 125 1;
#X connect 120 0 122 1;
#X connect 121 0 123 1;
#X connect 122 0 77 0;
#X connect 123 0 30 0;
#X connect 124 0 130 0;
#X connect 125 0 126 0;
#X connect 126 0 92 0;
#X connect 127 0 92 0;
#X connect 128 0 127 1;
#X connect 129 0 126 1;
#X connect 130 0 132 0;
#X connect 130 0 128 0;
#X connect 131 0 129 0;
#X connect 132 0 131 0;
#X connect 135 0 97 0;
#X connect 135 1 98 0;
#X coords 0 -1 1 1 400 440 1 100 100;
#X restore 426 162 pd sinesumfactor;
#X msg 804 975 0;
#X floatatom 699 956 5 0 0 0 - - -;
#X obj 699 972 tabwrite muisti4;
#X msg 990 974 0;
#X floatatom 883 959 5 0 0 0 - - -;
#X obj 883 975 tabwrite muisti5;
#X obj 388 864 +;
#X obj 609 857 +;
#X floatatom 412 632 5 0 0 0 - - -;
#X obj 376 941 -;
#X floatatom 406 905 5 0 0 0 - - -;
#X obj 613 924 -;
#X floatatom 642 892 5 0 0 0 - - -;
#X obj 515 86 bng 15 250 50 0 empty empty empty 17 7 0 10 -262144 -1
-1;
#X floatatom 79 562 5 0 0 0 - - -;
#N canvas 0 83 1680 967 atonaler 0;
#X obj 100 100 cnv 15 205 90 empty empty empty 20 12 0 14 -258689 -66577
0;
#N canvas 0 0 450 300 (subpatch) 0;
#X array index 24 float 3;
#A 0 1 1 1 1 0 0 0 1 1 1 1 0 0 0 0 0 0 0 0 0 0 0 0 0;
#X coords 0 2 24 -1 100 40 1 0 0;
#X restore 104 139 graph;
#X obj 511 204 tabwrite index;
#X floatatom 619 170 5 0 0 0 - - -;
#X obj 619 193 tabread index;
#X obj 619 220 == 0;
#X obj 673 210 == 1;
#X obj 673 231 route 1;
#X obj 673 251 bng 15 250 50 0 empty empty empty 17 7 0 10 -262144
-1 -1;
#X msg 511 186 1;
#X msg 617 491 \; index const 0;
#X obj 619 288 int;
#X obj 619 240 route 1;
#X obj 619 265 bng 15 250 50 0 empty empty empty 17 7 0 10 -262144
-1 -1;
#X obj 648 288 + 1;
#X obj 617 416 route 1;
#X obj 617 436 bng 15 250 50 0 empty empty empty 17 7 0 10 -262144
-1 -1;
#X msg 617 466 0;
#X floatatom 676 305 5 0 0 0 - - -;
#X floatatom 592 186 2 0 0 0 - - -;
#X obj 511 171 bng 15 250 50 0 empty empty empty 17 7 0 10 -262144
-1 -1;
#X obj 511 150 delay 1;
#X obj 673 269 delay 1;
#X floatatom 617 533 5 0 0 0 - - -;
#X obj 716 -20 int;
#X obj 716 -39 bng 15 250 50 0 empty empty empty 17 7 0 10 -262144
-1 -1;
#X obj 716 1 /;
#X floatatom 770 -15 5 0 0 0 - - -;
#X obj 716 22 sin;
#X msg 806 -32 1;
#X obj 716 43 *;
#X floatatom 768 27 5 0 0 0 - - -;
#X obj 716 64 +;
#X floatatom 768 48 5 0 0 0 - - -;
#X msg 806 31 12;
#X msg 806 10 6;
#X obj 632 -121 loadbang;
#X floatatom 716 106 5 0 0 0 - - -;
#X obj 741 -20 + 1;
#X obj 716 84 int;
#X obj 673 -44 bng 15 250 50 0 empty empty empty 17 7 0 10 -262144
-1 -1;
#X obj 619 28 gauss;
#X floatatom 646 7 2 0 0 0 - - -;
#X floatatom 632 7 2 0 0 0 - - -;
#X obj 619 7 bng 15 250 50 0 empty empty empty 17 7 0 10 -262144 -1
-1;
#X obj 619 48 int;
#X obj 619 69 abs;
#X obj 617 394 == 23;
#X msg 632 -21 12;
#X msg 666 -21 0;
#X obj 632 -43 bng 15 250 50 0 empty empty empty 17 7 0 10 -262144
-1 -1;
#X obj 619 122 +;
#X obj 619 145 mod 24;
#X obj 806 -104 bng 15 250 50 0 empty empty empty 17 7 0 10 -262144
-1 -1;
#X obj 673 -149 bng 15 250 50 0 empty empty empty 17 7 0 10 -262144
-1 -1;
#X obj 673 -176 inlet;
#X obj 617 562 outlet;
#X floatatom 207 142 3 1 24 1 notes - -;
#X msg 346 -78 24;
#X obj 273 146 bng 15 250 50 0 empty empty empty 17 7 0 10 -262144
-1 -1;
#X text 276 144 R;
#X obj 645 334 - 1;
#X text 140 106 Atonal Serializer;
#X connect 3 0 4 0;
#X connect 3 0 19 0;
#X connect 3 0 23 0;
#X connect 4 0 6 0;
#X connect 4 0 5 0;
#X connect 5 0 12 0;
#X connect 6 0 7 0;
#X connect 7 0 8 0;
#X connect 8 0 22 0;
#X connect 9 0 2 0;
#X connect 11 0 14 0;
#X connect 11 0 18 0;
#X connect 11 0 47 0;
#X connect 12 0 13 0;
#X connect 13 0 11 0;
#X connect 13 0 21 0;
#X connect 14 0 11 1;
#X connect 15 0 16 0;
#X connect 16 0 10 0;
#X connect 16 0 17 0;
#X connect 17 0 11 0;
#X connect 19 0 2 1;
#X connect 20 0 9 0;
#X connect 20 0 19 0;
#X connect 21 0 20 0;
#X connect 22 0 40 0;
#X connect 23 0 56 0;
#X connect 24 0 26 0;
#X connect 24 0 38 0;
#X connect 25 0 24 0;
#X connect 26 0 28 0;
#X connect 27 0 26 1;
#X connect 28 0 30 0;
#X connect 29 0 27 0;
#X connect 30 0 32 0;
#X connect 31 0 30 1;
#X connect 32 0 39 0;
#X connect 33 0 32 1;
#X connect 34 0 33 0;
#X connect 35 0 31 0;
#X connect 36 0 50 0;
#X connect 36 0 53 0;
#X connect 36 0 58 0;
#X connect 37 0 51 1;
#X connect 38 0 24 1;
#X connect 39 0 37 0;
#X connect 40 0 44 0;
#X connect 40 0 25 0;
#X connect 41 0 45 0;
#X connect 42 0 41 2;
#X connect 43 0 41 1;
#X connect 44 0 41 0;
#X connect 45 0 46 0;
#X connect 46 0 51 0;
#X connect 47 0 15 0;
#X connect 48 0 43 0;
#X connect 49 0 42 0;
#X connect 50 0 48 0;
#X connect 50 0 49 0;
#X connect 51 0 52 0;
#X connect 52 0 3 0;
#X connect 53 0 29 0;
#X connect 53 0 35 0;
#X connect 53 0 34 0;
#X connect 54 0 40 0;
#X connect 55 0 54 0;
#X connect 57 0 52 1;
#X connect 57 0 61 0;
#X connect 58 0 57 0;
#X connect 59 0 16 0;
#X connect 61 0 47 1;
#X coords 0 -1 1 1 205 90 1 100 100;
#X restore 1267 133 pd atonaler;
#X obj 222 933 -;
#X floatatom 252 897 5 0 0 0 - - -;
#X floatatom 1205 373 5 0 0 0 - - -;
#X floatatom 898 394 5 0 0 0 - - -;
#X floatatom 347 807 5 0 0 0 - - -;
#X obj 1217 203 bng 15 250 50 0 empty empty empty 17 7 0 10 -262144
-1 -1;
#X floatatom 1554 -103 5 0 0 0 - - -;
#N canvas 0 0 450 300 (subpatch) 0;
#X array graaffi 100 float 3;
#A 0 2 2 6 7 4 7 10 1 8 10 7 8 9 10 7 0 2 7 7 3 0 2 3 8 6 8 9 9 1 3
2 0 9 10 5 10 6 11 0 9 4 5 9 1 3 6 8 9 1 6 5 2 8 5 1 9 2 7 1 4 0 2
0 4 7 7 2 2 0 8 6 0 1 4 5 11 4 8 7 5 2 7 8 5 11 3 4 7 0 9 3 9 3 6 6
5 5 5 4 2;
#X coords 0 24 99 0 200 140 1 0 0;
#X restore 1496 48 graph;
#X obj 1647 -40 int;
#X obj 1678 -39 + 1;
#X obj 1647 -59 bng 15 250 50 0 empty empty empty 17 7 0 10 -262144
-1 -1;
#X obj 1647 -18 mod 100;
#X obj 1554 2 tabwrite graaffi;
#X floatatom 1554 -75 5 0 0 0 - - -;
#X floatatom 611 811 5 0 0 0 - - -;
#X obj 829 74 bng 15 250 50 0 empty empty empty 17 7 0 10 -262144 -1
-1;
#X obj 191 822 +;
#X connect 0 0 49 0;
#X connect 1 0 38 0;
#X connect 2 0 37 0;
#X connect 4 0 3 1;
#X connect 5 0 3 0;
#X connect 5 0 4 0;
#X connect 6 0 8 1;
#X connect 7 0 6 0;
#X connect 7 0 8 0;
#X connect 9 0 11 1;
#X connect 10 0 9 0;
#X connect 10 0 11 0;
#X connect 12 0 32 0;
#X connect 12 0 50 0;
#X connect 16 0 39 0;
#X connect 17 0 33 0;
#X connect 18 0 27 0;
#X connect 19 0 21 1;
#X connect 20 0 19 0;
#X connect 20 0 21 0;
#X connect 22 0 24 1;
#X connect 23 0 22 0;
#X connect 23 0 24 0;
#X connect 25 0 28 0;
#X connect 26 0 30 0;
#X connect 27 0 26 1;
#X connect 27 0 25 1;
#X connect 27 0 51 1;
#X connect 28 0 7 0;
#X connect 29 0 28 1;
#X connect 30 0 10 0;
#X connect 31 0 30 1;
#X connect 32 0 18 0;
#X connect 32 0 17 0;
#X connect 33 0 51 0;
#X connect 35 0 5 0;
#X connect 36 0 35 1;
#X connect 39 0 25 0;
#X connect 40 0 2 0;
#X connect 41 0 48 0;
#X connect 43 0 44 0;
#X connect 43 0 46 0;
#X connect 44 0 43 1;
#X connect 45 0 43 0;
#X connect 46 0 47 1;
#X connect 48 0 47 0;
#X connect 48 0 45 0;
#X connect 49 0 26 0;
#X connect 50 0 16 0;
#X connect 50 0 1 0;
#X connect 50 0 0 0;
#X connect 51 0 35 0;
