#N canvas 13 714 377 335 10;
#N canvas 0 83 1680 967 basstiger 0;
#X obj 100 101 cnv 15 370 250 empty empty empty 20 12 0 14 -204865
-66577 0;
#X text 118 100 BassTiger;
#X obj 314 138 vradio 15 1 0 10 empty empty empty 0 -8 0 10 -259905
-1 -1 9;
#X obj -374 1574 outlet~;
#X obj -598 658 r tuning_notes;
#X floatatom -904 648 5 0 0 0 - - -;
#X floatatom -714 659 5 0 0 0 - - -;
#X obj -904 675 / 12;
#X obj -714 675 mod 12;
#X obj -904 697 int;
#X obj -904 724 tabread octaves;
#X obj -714 700 tabread tuning;
#X floatatom -904 750 5 0 0 0 - - -;
#X floatatom -714 726 5 0 0 0 - - -;
#X obj -807 633 bng 15 250 50 0 empty empty empty 17 7 0 10 -262144
-1 -1;
#X obj -813 800 *;
#X obj -715 770 r basetone;
#X floatatom -767 801 5 0 0 0 - - -;
#X obj -813 837 *;
#X floatatom -813 861 5 0 0 0 - - -;
#X floatatom -814 571 5 0 0 0 - - -;
#X obj -813 910 line;
#X floatatom -813 939 5 0 0 0 - - -;
#X obj -813 884 pack 0 0;
#X obj -820 983 +;
#X obj -659 961 inlet;
#X text -657 933 detune1;
#X obj -585 962 inlet;
#X text -583 934 detune2;
#X obj -722 986 +;
#X obj -844 1108 +~;
#X obj -857 1065 +~;
#X obj -747 1259 *~;
#N canvas 575 266 794 572 oscillator2 0;
#X obj 72 73 inlet;
#X obj 196 473 outlet~;
#X obj 443 70 inlet;
#X text 72 51 Frequency;
#X text 438 52 Waveform;
#X obj 185 183 osc~;
#X obj 185 209 *~ 100;
#X obj 185 237 clip~ -1 1;
#X obj 77 187 phasor~;
#X obj 299 171 osc~;
#X obj 138 370 +~;
#X obj 197 441 +~;
#X floatatom 69 104 5 0 0 0 - - -;
#N canvas 1140 244 450 300 selektor~ 0;
#X obj 74 39 inlet~;
#X obj 175 36 inlet;
#X obj 97 128 *~ 0;
#X obj 109 233 outlet~;
#X obj 143 86 > 0;
#X connect 0 0 2 0;
#X connect 1 0 4 0;
#X connect 2 0 3 0;
#X connect 4 0 2 1;
#X restore 67 284 pd selektor~;
#N canvas 1140 244 450 300 selektor~ 0;
#X obj 74 39 inlet~;
#X obj 175 36 inlet;
#X obj 97 128 *~ 0;
#X obj 109 233 outlet~;
#X obj 143 86 > 0;
#X connect 0 0 2 0;
#X connect 1 0 4 0;
#X connect 2 0 3 0;
#X connect 4 0 2 1;
#X restore 181 284 pd selektor~;
#N canvas 1138 245 450 300 selektor~ 0;
#X obj 74 39 inlet~;
#X obj 175 36 inlet;
#X obj 97 128 *~ 0;
#X obj 109 233 outlet~;
#X obj 143 86 > 0;
#X connect 0 0 2 0;
#X connect 1 0 4 0;
#X connect 2 0 3 0;
#X connect 4 0 2 1;
#X restore 301 289 pd selektor~;
#X floatatom 441 143 5 0 0 0 - - -;
#X obj 446 176 int;
#X floatatom 510 445 5 0 0 0 - - -;
#X floatatom 572 443 5 0 0 0 - - -;
#X floatatom 452 444 5 0 0 0 - - -;
#X floatatom 500 209 5 0 0 0 - - -;
#X obj 433 266 == 0;
#X obj 517 268 == 1;
#X obj 596 268 == 2;
#X msg 388 394 1;
#X msg 424 374 0;
#X obj 419 334 bng 15 250 50 0 empty empty empty 17 7 0 10 -262144
-1 -1;
#X msg 487 387 1;
#X msg 526 384 0;
#X obj 513 346 bng 15 250 50 0 empty empty empty 17 7 0 10 -262144
-1 -1;
#X msg 581 385 1;
#X msg 612 384 0;
#X obj 607 344 bng 15 250 50 0 empty empty empty 17 7 0 10 -262144
-1 -1;
#X obj 420 301 route 1;
#X obj 522 309 route 1;
#X obj 616 306 route 1;
#X floatatom 443 94 5 0 0 0 - - -;
#X connect 0 0 12 0;
#X connect 2 0 37 0;
#X connect 5 0 6 0;
#X connect 6 0 7 0;
#X connect 7 0 14 0;
#X connect 8 0 13 0;
#X connect 9 0 15 0;
#X connect 10 0 11 0;
#X connect 11 0 1 0;
#X connect 12 0 8 0;
#X connect 12 0 9 0;
#X connect 12 0 5 0;
#X connect 13 0 10 0;
#X connect 14 0 10 1;
#X connect 15 0 11 1;
#X connect 16 0 17 0;
#X connect 17 0 21 0;
#X connect 18 0 14 1;
#X connect 19 0 15 1;
#X connect 20 0 13 1;
#X connect 21 0 22 0;
#X connect 21 0 23 0;
#X connect 21 0 24 0;
#X connect 22 0 34 0;
#X connect 23 0 35 0;
#X connect 24 0 36 0;
#X connect 25 0 20 0;
#X connect 26 0 18 0;
#X connect 26 0 19 0;
#X connect 27 0 25 0;
#X connect 27 0 26 0;
#X connect 28 0 18 0;
#X connect 29 0 20 0;
#X connect 29 0 19 0;
#X connect 30 0 28 0;
#X connect 30 0 29 0;
#X connect 31 0 19 0;
#X connect 32 0 20 0;
#X connect 32 0 18 0;
#X connect 33 0 31 0;
#X connect 33 0 32 0;
#X connect 34 0 27 0;
#X connect 35 0 30 0;
#X connect 36 0 33 0;
#X connect 37 0 16 0;
#X restore -965 1016 pd oscillator2;
#N canvas 573 267 794 572 oscillator2 0;
#X obj 72 73 inlet;
#X obj 196 473 outlet~;
#X obj 443 70 inlet;
#X text 72 51 Frequency;
#X text 438 52 Waveform;
#X obj 185 183 osc~;
#X obj 185 209 *~ 100;
#X obj 185 237 clip~ -1 1;
#X obj 77 187 phasor~;
#X obj 299 171 osc~;
#X obj 138 370 +~;
#X obj 197 441 +~;
#X floatatom 69 104 5 0 0 0 - - -;
#N canvas 1140 244 450 300 selektor~ 0;
#X obj 74 39 inlet~;
#X obj 175 36 inlet;
#X obj 97 128 *~ 0;
#X obj 109 233 outlet~;
#X obj 143 86 > 0;
#X connect 0 0 2 0;
#X connect 1 0 4 0;
#X connect 2 0 3 0;
#X connect 4 0 2 1;
#X restore 67 284 pd selektor~;
#N canvas 1140 244 450 300 selektor~ 0;
#X obj 74 39 inlet~;
#X obj 175 36 inlet;
#X obj 97 128 *~ 0;
#X obj 109 233 outlet~;
#X obj 143 86 > 0;
#X connect 0 0 2 0;
#X connect 1 0 4 0;
#X connect 2 0 3 0;
#X connect 4 0 2 1;
#X restore 181 284 pd selektor~;
#N canvas 1138 245 450 300 selektor~ 0;
#X obj 74 39 inlet~;
#X obj 175 36 inlet;
#X obj 97 128 *~ 0;
#X obj 109 233 outlet~;
#X obj 143 86 > 0;
#X connect 0 0 2 0;
#X connect 1 0 4 0;
#X connect 2 0 3 0;
#X connect 4 0 2 1;
#X restore 301 289 pd selektor~;
#X floatatom 441 143 5 0 0 0 - - -;
#X obj 446 176 int;
#X floatatom 510 445 5 0 0 0 - - -;
#X floatatom 572 443 5 0 0 0 - - -;
#X floatatom 452 444 5 0 0 0 - - -;
#X floatatom 500 209 5 0 0 0 - - -;
#X obj 433 266 == 0;
#X obj 517 268 == 1;
#X obj 596 268 == 2;
#X msg 388 394 1;
#X msg 424 374 0;
#X obj 419 334 bng 15 250 50 0 empty empty empty 17 7 0 10 -262144
-1 -1;
#X msg 487 387 1;
#X msg 526 384 0;
#X obj 513 346 bng 15 250 50 0 empty empty empty 17 7 0 10 -262144
-1 -1;
#X msg 581 385 1;
#X msg 612 384 0;
#X obj 607 344 bng 15 250 50 0 empty empty empty 17 7 0 10 -262144
-1 -1;
#X obj 420 301 route 1;
#X obj 522 309 route 1;
#X obj 616 306 route 1;
#X floatatom 443 94 5 0 0 0 - - -;
#X connect 0 0 12 0;
#X connect 2 0 37 0;
#X connect 5 0 6 0;
#X connect 6 0 7 0;
#X connect 7 0 14 0;
#X connect 8 0 13 0;
#X connect 9 0 15 0;
#X connect 10 0 11 0;
#X connect 11 0 1 0;
#X connect 12 0 8 0;
#X connect 12 0 9 0;
#X connect 12 0 5 0;
#X connect 13 0 10 0;
#X connect 14 0 10 1;
#X connect 15 0 11 1;
#X connect 16 0 17 0;
#X connect 17 0 21 0;
#X connect 18 0 14 1;
#X connect 19 0 15 1;
#X connect 20 0 13 1;
#X connect 21 0 22 0;
#X connect 21 0 23 0;
#X connect 21 0 24 0;
#X connect 22 0 34 0;
#X connect 23 0 35 0;
#X connect 24 0 36 0;
#X connect 25 0 20 0;
#X connect 26 0 18 0;
#X connect 26 0 19 0;
#X connect 27 0 25 0;
#X connect 27 0 26 0;
#X connect 28 0 18 0;
#X connect 29 0 20 0;
#X connect 29 0 19 0;
#X connect 30 0 28 0;
#X connect 30 0 29 0;
#X connect 31 0 19 0;
#X connect 32 0 20 0;
#X connect 32 0 18 0;
#X connect 33 0 31 0;
#X connect 33 0 32 0;
#X connect 34 0 27 0;
#X connect 35 0 30 0;
#X connect 36 0 33 0;
#X connect 37 0 16 0;
#X restore -862 1019 pd oscillator2;
#N canvas 575 266 794 572 oscillator2 0;
#X obj 72 73 inlet;
#X obj 196 473 outlet~;
#X obj 443 70 inlet;
#X text 72 51 Frequency;
#X text 438 52 Waveform;
#X obj 185 183 osc~;
#X obj 185 209 *~ 100;
#X obj 185 237 clip~ -1 1;
#X obj 77 187 phasor~;
#X obj 299 171 osc~;
#X obj 138 370 +~;
#X obj 197 441 +~;
#X floatatom 69 104 5 0 0 0 - - -;
#N canvas 1140 244 450 300 selektor~ 0;
#X obj 74 39 inlet~;
#X obj 175 36 inlet;
#X obj 97 128 *~ 0;
#X obj 109 233 outlet~;
#X obj 143 86 > 0;
#X connect 0 0 2 0;
#X connect 1 0 4 0;
#X connect 2 0 3 0;
#X connect 4 0 2 1;
#X restore 67 284 pd selektor~;
#N canvas 1140 244 450 300 selektor~ 0;
#X obj 74 39 inlet~;
#X obj 175 36 inlet;
#X obj 97 128 *~ 0;
#X obj 109 233 outlet~;
#X obj 143 86 > 0;
#X connect 0 0 2 0;
#X connect 1 0 4 0;
#X connect 2 0 3 0;
#X connect 4 0 2 1;
#X restore 181 284 pd selektor~;
#N canvas 1138 245 450 300 selektor~ 0;
#X obj 74 39 inlet~;
#X obj 175 36 inlet;
#X obj 97 128 *~ 0;
#X obj 109 233 outlet~;
#X obj 143 86 > 0;
#X connect 0 0 2 0;
#X connect 1 0 4 0;
#X connect 2 0 3 0;
#X connect 4 0 2 1;
#X restore 301 289 pd selektor~;
#X floatatom 441 143 5 0 0 0 - - -;
#X obj 446 176 int;
#X floatatom 510 445 5 0 0 0 - - -;
#X floatatom 572 443 5 0 0 0 - - -;
#X floatatom 452 444 5 0 0 0 - - -;
#X floatatom 500 209 5 0 0 0 - - -;
#X obj 433 266 == 0;
#X obj 517 268 == 1;
#X obj 596 268 == 2;
#X msg 388 394 1;
#X msg 424 374 0;
#X obj 419 334 bng 15 250 50 0 empty empty empty 17 7 0 10 -262144
-1 -1;
#X msg 487 387 1;
#X msg 526 384 0;
#X obj 513 346 bng 15 250 50 0 empty empty empty 17 7 0 10 -262144
-1 -1;
#X msg 581 385 1;
#X msg 612 384 0;
#X obj 607 344 bng 15 250 50 0 empty empty empty 17 7 0 10 -262144
-1 -1;
#X obj 420 301 route 1;
#X obj 522 309 route 1;
#X obj 616 306 route 1;
#X floatatom 443 94 5 0 0 0 - - -;
#X connect 0 0 12 0;
#X connect 2 0 37 0;
#X connect 5 0 6 0;
#X connect 6 0 7 0;
#X connect 7 0 14 0;
#X connect 8 0 13 0;
#X connect 9 0 15 0;
#X connect 10 0 11 0;
#X connect 11 0 1 0;
#X connect 12 0 8 0;
#X connect 12 0 9 0;
#X connect 12 0 5 0;
#X connect 13 0 10 0;
#X connect 14 0 10 1;
#X connect 15 0 11 1;
#X connect 16 0 17 0;
#X connect 17 0 21 0;
#X connect 18 0 14 1;
#X connect 19 0 15 1;
#X connect 20 0 13 1;
#X connect 21 0 22 0;
#X connect 21 0 23 0;
#X connect 21 0 24 0;
#X connect 22 0 34 0;
#X connect 23 0 35 0;
#X connect 24 0 36 0;
#X connect 25 0 20 0;
#X connect 26 0 18 0;
#X connect 26 0 19 0;
#X connect 27 0 25 0;
#X connect 27 0 26 0;
#X connect 28 0 18 0;
#X connect 29 0 20 0;
#X connect 29 0 19 0;
#X connect 30 0 28 0;
#X connect 30 0 29 0;
#X connect 31 0 19 0;
#X connect 32 0 20 0;
#X connect 32 0 18 0;
#X connect 33 0 31 0;
#X connect 33 0 32 0;
#X connect 34 0 27 0;
#X connect 35 0 30 0;
#X connect 36 0 33 0;
#X connect 37 0 16 0;
#X restore -751 1024 pd oscillator2;
#X obj -755 1384 *~;
#X obj 106 241 cnv 15 200 100 empty empty synth 20 12 0 14 -259784
-66577 0;
#X floatatom -202 1059 5 0 0 0 - - -;
#X floatatom -159 1059 5 0 0 0 - - -;
#X floatatom -116 1059 5 0 0 0 - - -;
#X floatatom -73 1059 5 0 0 0 - - -;
#X obj 211 261 vsl 8 64 10 2000 0 1 empty empty A 0 -8 0 8 -259329
-1 -1 0 1;
#X obj 219 261 vsl 8 64 10 2000 0 1 empty empty D 0 -8 0 8 -258945
-1 -1 3100 1;
#X obj 235 261 vsl 8 64 10 2000 0 1 empty empty R 0 -8 0 8 -258945
-1 -1 2500 1;
#X obj 227 261 vsl 8 64 0 1 0 1 empty empty S 0 -8 0 8 -259329 -1 -1
800 1;
#X msg -222 870 lina;
#X msg -222 901 loga;
#X text -316 870 linear attack;
#X text -300 902 log attack;
#X msg -223 931 zero;
#X obj 245 259 bng 15 250 50 0 empty empty lin 17 7 0 10 -230283 -1
-1;
#X obj 245 276 bng 15 250 50 0 empty empty log 17 7 0 10 -230283 -1
-1;
#X msg -436 1070 1;
#X msg -397 1046 0;
#X obj -404 1006 del 800;
#X obj -413 943 bng 15 250 50 0 empty empty empty 17 7 0 10 -262144
-1 -1;
#X obj 245 293 bng 15 250 50 0 empty empty zro 17 7 0 10 -230283 -1
-1;
#X obj 112 266 vradio 16 1 0 3 empty empty empty 0 -8 0 10 -259395
-1 -1 1;
#X text 129 295 SINE;
#X text 130 263 SAW;
#X text 130 279 SQUARE;
#X obj 285 260 vsl 13 64 0 0.5 0 1 empty empty vol 0 -8 0 8 -258945
-1 -1 5500 1;
#X floatatom -723 913 5 0 0 0 - - -;
#X obj 197 260 vsl 8 64 0 150 0 1 empty empty p 0 -8 0 8 -258945 -1
-1 0 1;
#X obj 316 325 hsl 128 17 0 200 0 0 empty empty empty -2 -8 0 10 -259592
-1 -1 7150 1;
#X obj 329 138 vradio 15 1 0 10 empty empty empty 0 -8 0 10 -259073
-1 -1 5;
#X obj 316 307 hsl 62 17 0 100 0 0 empty empty empty -2 -8 0 10 -259592
-1 -1 3250 1;
#X obj 382 307 hsl 62 17 100 200 0 0 empty empty empty -2 -8 0 10 -259592
-1 -1 2450 1;
#X obj 316 290 hsl 28 17 0 50 0 0 empty empty empty -2 -8 0 10 -259592
-1 -1 1750 1;
#X obj 349 290 hsl 28 17 50 100 0 0 empty empty empty -2 -8 0 10 -259592
-1 -1 850 1;
#X obj 383 290 hsl 28 17 100 150 0 0 empty empty empty -2 -8 0 10 -259592
-1 -1 1250 1;
#X obj 416 290 hsl 28 17 150 200 0 0 empty empty empty -2 -8 0 10 -259592
-1 -1 1750 1;
#X obj 347 138 vradio 15 1 0 10 empty empty empty 0 -8 0 10 -259905
-1 -1 8;
#X obj 362 138 vradio 15 1 0 10 empty empty empty 0 -8 0 10 -259073
-1 -1 7;
#X obj 381 138 vradio 15 1 0 10 empty empty empty 0 -8 0 10 -259905
-1 -1 9;
#X obj 396 138 vradio 15 1 0 10 empty empty empty 0 -8 0 10 -259073
-1 -1 5;
#X obj 416 138 vradio 15 1 0 10 empty empty empty 0 -8 0 10 -259905
-1 -1 4;
#X obj 431 138 vradio 15 1 0 10 empty empty empty 0 -8 0 10 -259073
-1 -1 0;
#X obj 314 121 bng 15 250 50 0 empty empty empty 17 7 0 10 -259905
-1 -1;
#X obj 329 121 bng 15 250 50 0 empty empty empty 17 7 0 10 -259073
-1 -1;
#X obj 348 121 bng 15 250 50 0 empty empty empty 17 7 0 10 -259905
-1 -1;
#X obj 363 121 bng 15 250 50 0 empty empty empty 17 7 0 10 -259073
-1 -1;
#X obj 381 121 bng 15 250 50 0 empty empty empty 17 7 0 10 -259905
-1 -1;
#X obj 396 121 bng 15 250 50 0 empty empty empty 17 7 0 10 -259073
-1 -1;
#X obj 415 121 bng 15 250 50 0 empty empty empty 17 7 0 10 -259905
-1 -1;
#X obj 430 121 bng 15 250 50 0 empty empty empty 17 7 0 10 -259073
-1 -1;
#X obj 106 121 cnv 15 205 110 empty empty empty 20 12 0 14 -259784
-66577 0;
#X obj 599 20 int;
#X obj 625 20 + 1;
#X obj 599 -20 r metro;
#X floatatom 113 321 2 0 6 1 octave - -;
#X obj 599 1 bng 15 250 50 0 empty empty empty 17 7 0 10 -262144 -1
-1;
#X floatatom 599 41 5 0 0 0 - - -;
#X obj 108 128 hradio 15 1 0 10 empty empty empty 0 -8 0 10 -259073
-1 -1 5;
#X floatatom 261 127 3 0 100 1 /100 - -;
#X obj 108 145 hradio 15 1 0 10 empty empty empty 0 -8 0 10 -241985
-1 -1 2;
#X floatatom 261 144 3 0 100 1 /100 - -;
#X obj 108 163 hradio 15 1 0 10 empty empty empty 0 -8 0 10 -259073
-1 -1 0;
#X floatatom 261 162 3 0 100 1 /100 - -;
#X obj 108 180 hradio 15 1 0 10 empty empty empty 0 -8 0 10 -241985
-1 -1 0;
#X floatatom 261 179 3 0 100 1 /100 - -;
#X obj 675 502 moses;
#X floatatom 596 544 5 0 0 0 - - -;
#X floatatom 751 547 5 0 0 0 - - -;
#N canvas 0 0 450 300 (subpatch) 0;
#X array claw 8 float 3;
#A 0 9 5 8 7 9 5 4 0;
#X coords 0 10 8 0 100 40 1 0 0;
#X restore 893 -289 graph;
#X obj 588 331 bng 15 250 50 0 empty empty empty 17 7 0 10 -262144
-1 -1;
#X obj 584 597 moses;
#X floatatom 537 640 5 0 0 0 - - -;
#X floatatom 633 639 5 0 0 0 - - -;
#X obj -398 14 tabwrite claw;
#X floatatom -398 -2 5 0 0 0 - - -;
#X msg -314 14 0;
#X obj -398 50 tabwrite claw;
#X floatatom -398 34 5 0 0 0 - - -;
#X msg -314 50 1;
#X obj -398 85 tabwrite claw;
#X floatatom -398 69 5 0 0 0 - - -;
#X obj -398 121 tabwrite claw;
#X floatatom -398 105 5 0 0 0 - - -;
#X msg -314 85 2;
#X msg -314 121 3;
#X obj -398 155 tabwrite claw;
#X floatatom -398 139 5 0 0 0 - - -;
#X obj -398 191 tabwrite claw;
#X floatatom -398 175 5 0 0 0 - - -;
#X obj -398 226 tabwrite claw;
#X floatatom -398 210 5 0 0 0 - - -;
#X obj -398 262 tabwrite claw;
#X floatatom -398 246 5 0 0 0 - - -;
#X msg -314 155 4;
#X msg -313 191 5;
#X msg -314 226 6;
#X msg -314 262 7;
#X obj 630 849 tabread claw;
#X obj 630 894 abs;
#X floatatom 630 924 5 0 0 0 - - -;
#X obj 630 873 - 9;
#X msg 496 121 9;
#X obj 748 600 moses;
#X floatatom 729 641 5 0 0 0 - - -;
#X floatatom 793 635 5 0 0 0 - - -;
#X obj 495 681 moses;
#X floatatom 475 724 5 0 0 0 - - -;
#X floatatom 531 723 5 0 0 0 - - -;
#X obj 603 684 moses;
#X floatatom 583 727 5 0 0 0 - - -;
#X floatatom 639 726 5 0 0 0 - - -;
#X obj 711 689 moses;
#X floatatom 691 732 5 0 0 0 - - -;
#X floatatom 747 731 5 0 0 0 - - -;
#X obj 817 692 moses;
#X floatatom 797 735 5 0 0 0 - - -;
#X floatatom 853 734 5 0 0 0 - - -;
#X obj 477 750 bng 15 250 50 0 empty empty empty 17 7 0 10 -262144
-1 -1;
#X obj 528 752 bng 15 250 50 0 empty empty empty 17 7 0 10 -262144
-1 -1;
#X obj 584 758 bng 15 250 50 0 empty empty empty 17 7 0 10 -262144
-1 -1;
#X obj 637 759 bng 15 250 50 0 empty empty empty 17 7 0 10 -262144
-1 -1;
#X obj 688 765 bng 15 250 50 0 empty empty empty 17 7 0 10 -262144
-1 -1;
#X obj 741 766 bng 15 250 50 0 empty empty empty 17 7 0 10 -262144
-1 -1;
#X obj 797 772 bng 15 250 50 0 empty empty empty 17 7 0 10 -262144
-1 -1;
#X obj 850 773 bng 15 250 50 0 empty empty empty 17 7 0 10 -262144
-1 -1;
#X floatatom 630 825 5 0 0 0 - - -;
#X msg 472 776 0;
#X msg 526 778 1;
#X msg 579 785 2;
#X msg 633 787 3;
#X msg 685 797 4;
#X msg 740 799 5;
#X msg 792 806 6;
#X msg 846 808 7;
#X text 446 270 1;
#X text 446 254 2;
#X text 446 241 3;
#X text 446 225 4;
#X text 446 209 5;
#X text 445 194 6;
#X text 446 180 7;
#X text 446 164 8;
#X text 446 151 9;
#X text 444 135 10;
#X obj 584 106 mod;
#X obj 584 129 == 0;
#X obj 584 152 route 1;
#X obj 584 174 random 100;
#X obj 584 195 <;
#X obj 584 218 route 1;
#X obj 584 241 bng 15 250 50 0 empty empty empty 17 7 0 10 -262144
-1 -1;
#X obj 679 107 mod;
#X obj 679 130 == 0;
#X obj 679 153 route 1;
#X obj 679 175 random 100;
#X obj 679 196 <;
#X obj 679 219 route 1;
#X obj 679 242 bng 15 250 50 0 empty empty empty 17 7 0 10 -262144
-1 -1;
#X obj 760 107 mod;
#X obj 760 130 == 0;
#X obj 760 153 route 1;
#X obj 760 175 random 100;
#X obj 760 196 <;
#X obj 760 219 route 1;
#X obj 760 242 bng 15 250 50 0 empty empty empty 17 7 0 10 -262144
-1 -1;
#X obj 855 108 mod;
#X obj 855 131 == 0;
#X obj 855 154 route 1;
#X obj 855 176 random 100;
#X obj 855 197 <;
#X obj 855 220 route 1;
#X obj 855 243 bng 15 250 50 0 empty empty empty 17 7 0 10 -262144
-1 -1;
#X floatatom 674 456 5 0 0 0 - - -;
#X obj 588 355 random 100;
#X obj 676 333 bng 15 250 50 0 empty empty empty 17 7 0 10 -262144
-1 -1;
#X obj 676 357 random 200;
#X obj 750 334 bng 15 250 50 0 empty empty empty 17 7 0 10 -262144
-1 -1;
#X obj 750 358 random 200;
#X obj 840 334 bng 15 250 50 0 empty empty empty 17 7 0 10 -262144
-1 -1;
#X obj 840 387 + 100;
#X obj 840 358 random 100;
#X obj 630 999 +;
#X obj 286 803 *;
#X floatatom 286 854 5 0 0 0 - - -;
#X obj 234 -201 loadbang;
#X obj 234 -176 bng 15 250 50 0 empty empty empty 17 7 0 10 -262144
-1 -1;
#X msg 284 21 100;
#X msg 317 23 50;
#X msg 354 29 150;
#X msg 289 -12 25;
#X msg 324 -4 75;
#X msg 356 -3 125;
#X msg 378 17 175;
#X msg 192 38 100;
#N canvas 1681 54 1600 846 tonalwrapper 0;
#X obj 845 474 tabread scaler;
#X obj 826 431 mod;
#X floatatom 789 337 5 0 0 0 - - -;
#X obj 937 122 r scale_notes;
#X obj 788 570 +;
#X obj 773 428 /;
#X obj 773 451 int;
#X obj 777 477 *;
#X obj 873 432 r tuning_notes;
#X floatatom 786 598 5 0 0 0 - - -;
#X floatatom 770 395 5 0 0 0 - - -;
#X floatatom 816 395 5 0 0 0 - - -;
#X obj 854 525 bng 15 250 50 0 empty empty empty 17 7 0 10 -262144
-1 -1;
#X obj 779 85 inlet;
#X obj 929 782 outlet;
#X obj 1022 293 spigot 1;
#X obj 927 292 spigot 1;
#X obj 972 271 != 1;
#X obj 984 211 > 9;
#X connect 0 0 4 0;
#X connect 0 0 12 0;
#X connect 1 0 0 0;
#X connect 2 0 10 0;
#X connect 2 0 11 0;
#X connect 3 0 1 1;
#X connect 3 0 5 1;
#X connect 3 0 18 0;
#X connect 4 0 9 0;
#X connect 5 0 6 0;
#X connect 6 0 7 0;
#X connect 7 0 4 1;
#X connect 8 0 7 1;
#X connect 9 0 14 0;
#X connect 10 0 5 0;
#X connect 11 0 1 0;
#X connect 12 0 10 0;
#X connect 13 0 16 0;
#X connect 13 0 15 0;
#X connect 15 0 14 0;
#X connect 16 0 2 0;
#X connect 17 0 16 1;
#X connect 18 0 17 0;
#X connect 18 0 15 1;
#X restore 630 1025 pd tonalwrapper;
#X obj 303 779 r scale_notes;
#X obj -270 1120 aenv~ 100 200 0.6 500;
#X connect 2 0 111 0;
#X connect 4 0 7 1;
#X connect 4 0 8 1;
#X connect 5 0 7 0;
#X connect 6 0 8 0;
#X connect 7 0 9 0;
#X connect 8 0 11 0;
#X connect 9 0 10 0;
#X connect 10 0 12 0;
#X connect 11 0 13 0;
#X connect 12 0 15 0;
#X connect 13 0 15 1;
#X connect 13 0 14 0;
#X connect 14 0 5 0;
#X connect 15 0 18 0;
#X connect 16 0 17 0;
#X connect 17 0 18 1;
#X connect 18 0 19 0;
#X connect 19 0 23 0;
#X connect 20 0 5 0;
#X connect 20 0 6 0;
#X connect 20 0 56 0;
#X connect 21 0 22 0;
#X connect 22 0 33 0;
#X connect 22 0 24 0;
#X connect 22 0 29 0;
#X connect 23 0 21 0;
#X connect 24 0 34 0;
#X connect 25 0 24 1;
#X connect 27 0 29 1;
#X connect 29 0 35 0;
#X connect 30 0 32 0;
#X connect 31 0 30 0;
#X connect 32 0 36 0;
#X connect 33 0 31 0;
#X connect 34 0 31 1;
#X connect 35 0 30 1;
#X connect 36 0 3 0;
#X connect 38 0 233 1;
#X connect 39 0 233 2;
#X connect 40 0 233 3;
#X connect 41 0 233 4;
#X connect 42 0 38 0;
#X connect 43 0 39 0;
#X connect 44 0 41 0;
#X connect 45 0 40 0;
#X connect 46 0 233 0;
#X connect 47 0 233 0;
#X connect 50 0 233 0;
#X connect 51 0 46 0;
#X connect 52 0 47 0;
#X connect 53 0 233 0;
#X connect 54 0 233 0;
#X connect 55 0 54 0;
#X connect 56 0 53 0;
#X connect 56 0 55 0;
#X connect 57 0 50 0;
#X connect 58 0 63 0;
#X connect 62 0 36 1;
#X connect 63 0 33 1;
#X connect 63 0 34 1;
#X connect 63 0 35 1;
#X connect 64 0 23 1;
#X connect 65 0 102 1;
#X connect 66 0 114 0;
#X connect 67 0 107 1;
#X connect 68 0 139 1;
#X connect 69 0 142 1;
#X connect 70 0 145 1;
#X connect 71 0 148 1;
#X connect 72 0 151 1;
#X connect 73 0 117 0;
#X connect 74 0 119 0;
#X connect 75 0 123 0;
#X connect 76 0 125 0;
#X connect 77 0 127 0;
#X connect 78 0 129 0;
#X connect 88 0 89 0;
#X connect 88 0 93 0;
#X connect 89 0 88 1;
#X connect 90 0 92 0;
#X connect 91 0 219 0;
#X connect 92 0 88 0;
#X connect 93 0 181 0;
#X connect 93 0 188 0;
#X connect 93 0 195 0;
#X connect 93 0 202 0;
#X connect 94 0 181 1;
#X connect 95 0 185 1;
#X connect 96 0 188 1;
#X connect 97 0 192 1;
#X connect 98 0 195 1;
#X connect 99 0 199 1;
#X connect 100 0 202 1;
#X connect 101 0 206 1;
#X connect 102 0 103 0;
#X connect 102 1 104 0;
#X connect 103 0 107 0;
#X connect 104 0 139 0;
#X connect 106 0 210 0;
#X connect 107 0 108 0;
#X connect 107 1 109 0;
#X connect 108 0 142 0;
#X connect 109 0 145 0;
#X connect 111 0 110 0;
#X connect 111 0 112 0;
#X connect 112 0 110 1;
#X connect 114 0 113 0;
#X connect 114 0 115 0;
#X connect 115 0 113 1;
#X connect 117 0 116 0;
#X connect 117 0 120 0;
#X connect 119 0 118 0;
#X connect 119 0 121 0;
#X connect 120 0 116 1;
#X connect 121 0 118 1;
#X connect 123 0 122 0;
#X connect 123 0 130 0;
#X connect 125 0 124 0;
#X connect 125 0 131 0;
#X connect 127 0 126 0;
#X connect 127 0 132 0;
#X connect 129 0 128 0;
#X connect 129 0 133 0;
#X connect 130 0 122 1;
#X connect 131 0 124 1;
#X connect 132 0 126 1;
#X connect 133 0 128 1;
#X connect 134 0 137 0;
#X connect 135 0 136 0;
#X connect 136 0 218 0;
#X connect 137 0 135 0;
#X connect 138 0 2 0;
#X connect 138 0 66 0;
#X connect 138 0 73 0;
#X connect 138 0 74 0;
#X connect 138 0 75 0;
#X connect 138 0 76 0;
#X connect 138 0 77 0;
#X connect 138 0 78 0;
#X connect 139 0 140 0;
#X connect 139 1 141 0;
#X connect 140 0 148 0;
#X connect 141 0 151 0;
#X connect 142 0 143 0;
#X connect 142 1 144 0;
#X connect 143 0 154 0;
#X connect 144 0 155 0;
#X connect 145 0 146 0;
#X connect 145 1 147 0;
#X connect 146 0 156 0;
#X connect 147 0 157 0;
#X connect 148 0 149 0;
#X connect 148 1 150 0;
#X connect 149 0 158 0;
#X connect 150 0 159 0;
#X connect 151 0 152 0;
#X connect 151 1 153 0;
#X connect 152 0 160 0;
#X connect 153 0 161 0;
#X connect 154 0 163 0;
#X connect 154 0 79 0;
#X connect 155 0 164 0;
#X connect 155 0 80 0;
#X connect 156 0 165 0;
#X connect 156 0 81 0;
#X connect 157 0 166 0;
#X connect 157 0 82 0;
#X connect 158 0 167 0;
#X connect 158 0 83 0;
#X connect 159 0 168 0;
#X connect 159 0 84 0;
#X connect 160 0 169 0;
#X connect 160 0 85 0;
#X connect 161 0 170 0;
#X connect 161 0 86 0;
#X connect 162 0 134 0;
#X connect 163 0 162 0;
#X connect 164 0 162 0;
#X connect 165 0 162 0;
#X connect 166 0 162 0;
#X connect 167 0 162 0;
#X connect 168 0 162 0;
#X connect 169 0 162 0;
#X connect 170 0 162 0;
#X connect 181 0 182 0;
#X connect 182 0 183 0;
#X connect 183 0 184 0;
#X connect 184 0 185 0;
#X connect 185 0 186 0;
#X connect 186 0 187 0;
#X connect 187 0 106 0;
#X connect 188 0 189 0;
#X connect 189 0 190 0;
#X connect 190 0 191 0;
#X connect 191 0 192 0;
#X connect 192 0 193 0;
#X connect 193 0 194 0;
#X connect 194 0 211 0;
#X connect 195 0 196 0;
#X connect 196 0 197 0;
#X connect 197 0 198 0;
#X connect 198 0 199 0;
#X connect 199 0 200 0;
#X connect 200 0 201 0;
#X connect 201 0 213 0;
#X connect 202 0 203 0;
#X connect 203 0 204 0;
#X connect 204 0 205 0;
#X connect 205 0 206 0;
#X connect 206 0 207 0;
#X connect 207 0 208 0;
#X connect 208 0 215 0;
#X connect 209 0 102 0;
#X connect 210 0 209 0;
#X connect 211 0 212 0;
#X connect 212 0 209 0;
#X connect 213 0 214 0;
#X connect 214 0 209 0;
#X connect 215 0 217 0;
#X connect 216 0 209 0;
#X connect 217 0 216 0;
#X connect 218 0 231 0;
#X connect 219 0 220 0;
#X connect 220 0 218 1;
#X connect 221 0 222 0;
#X connect 222 0 138 0;
#X connect 222 0 226 0;
#X connect 222 0 227 0;
#X connect 222 0 225 0;
#X connect 222 0 224 0;
#X connect 222 0 223 0;
#X connect 222 0 228 0;
#X connect 222 0 229 0;
#X connect 222 0 230 0;
#X connect 223 0 65 0;
#X connect 224 0 67 0;
#X connect 225 0 68 0;
#X connect 226 0 69 0;
#X connect 227 0 70 0;
#X connect 228 0 71 0;
#X connect 229 0 72 0;
#X connect 230 0 95 0;
#X connect 231 0 20 0;
#X connect 232 0 219 1;
#X connect 233 0 32 1;
#X coords 0 -1 1 1 370 250 1 100 100;
#X restore -86 -303 pd basstiger;
#X obj -51 -12 dac~ 1 2 3 4 5 6 7 8 9 10 11 12 13 14 15 16;
#X connect 0 0 1 5;
