#N canvas 220 142 631 745 10;
#N canvas 24 152 1573 741 thaisynth1 0;
#X obj 101 100 cnv 15 200 340 empty empty empty 20 12 0 14 -86277 -66577
0;
#X floatatom 558 392 5 0 0 0 - - -;
#X floatatom 498 131 5 0 0 0 - - -;
#X obj 513 7 inlet;
#X text 472 95 NOTE;
#X obj 106 105 cnv 15 95 140 empty empty 20 12 0 0 1.02308e+07 -160197
-262144 0;
#X obj 104 349 cnv 15 190 85 empty empty lin 20 12 0 14 -160197 -66577
0;
#X obj 441 873 outlet~;
#X obj 276 135 vsl 15 85 0 127 0 0 empty empty p 0 -9 0 10 -213249
-1 -1 0 1;
#X msg 30 23 0;
#X obj 12 -3 loadbang;
#X msg 31 49 0;
#X obj 189 362 vsl 20 65 0 0.5 0 0 empty empty empty 0 -9 0 10 -213505
-1 -1 3200 1;
#X text 189 344 vol;
#X obj 440 795 *~;
#X obj 157 109 tgl 15 0 empty empty poly 17 7 0 10 -192965 -1 -1 0
1;
#X obj 478 390 poly 8 1;
#N canvas 0 83 1680 967 voices 0;
#N canvas 0 83 1680 967 omavoice 0;
#X obj 416 998 outlet~;
#X obj 484 67 r tuning_notes;
#X floatatom 178 57 5 0 0 0 - - -;
#X floatatom 368 68 5 0 0 0 - - -;
#X obj 178 84 / 12;
#X obj 368 84 mod 12;
#X obj 178 106 int;
#X obj 178 133 tabread octaves;
#X obj 368 109 tabread tuning;
#X floatatom 178 159 5 0 0 0 - - -;
#X floatatom 368 135 5 0 0 0 - - -;
#X obj 275 42 bng 15 250 50 0 empty empty empty 17 7 0 10 -262144 -1
-1;
#X obj 269 209 *;
#X obj 367 179 r basetone;
#X floatatom 315 210 5 0 0 0 - - -;
#X obj 269 246 *;
#X floatatom 269 270 5 0 0 0 - - -;
#X floatatom 268 -20 5 0 0 2 note - -;
#X obj 269 319 line;
#X floatatom 269 348 5 0 0 0 - - -;
#X obj 269 293 pack 0 0;
#X obj 417 914 *~;
#X floatatom 595 41 5 0 0 2 volume - -;
#X obj 587 716 aenv~ 100 200 0.6 500;
#X floatatom 378 422 3 0 15 0 - - -;
#X obj 272 400 int;
#X floatatom 267 378 5 0 0 0 - - -;
#X obj 597 -145 inlet;
#X floatatom 639 41 5 0 0 2 porta - -;
#X floatatom 686 37 5 0 0 2 mod - -;
#X floatatom 734 38 5 0 0 2 rez - -;
#X floatatom 836 43 5 0 0 2 decay - -;
#X floatatom 880 41 5 0 0 2 sustain - -;
#X floatatom 931 42 5 0 0 2 release - -;
#X floatatom 983 45 5 0 0 2 waveform - -;
#X floatatom 785 43 5 0 0 2 attack - -;
#X obj 182 845 hip~ 5;
#X obj 597 -115 unpack f f f f f f f f f f;
#X obj 805 -138 inlet;
#X obj 183 501 phasor~;
#X floatatom 183 475 0 0 0 0 - - -;
#X obj 183 815 cz-osc~ saw;
#X obj 217 537 hsl 128 15 0 0.99 0 0 empty empty empty -2 -8 0 10 -262144
-1 -1 10992 1;
#X msg 214 720 \$1 100;
#X obj 214 747 line~;
#X floatatom 214 697 0 0 0 0 - - -;
#X obj 296 574 hsl 128 15 0 65 0 0 empty empty empty -2 -8 0 10 -262144
-1 -1 0 1;
#X obj 214 608 expr pow($f1 \, 1.0/3);
#X connect 1 0 4 1;
#X connect 1 0 5 1;
#X connect 2 0 4 0;
#X connect 3 0 5 0;
#X connect 4 0 6 0;
#X connect 5 0 8 0;
#X connect 6 0 7 0;
#X connect 7 0 9 0;
#X connect 8 0 10 0;
#X connect 9 0 12 0;
#X connect 10 0 12 1;
#X connect 10 0 11 0;
#X connect 11 0 2 0;
#X connect 12 0 15 0;
#X connect 13 0 14 0;
#X connect 14 0 15 1;
#X connect 15 0 16 0;
#X connect 16 0 20 0;
#X connect 17 0 2 0;
#X connect 17 0 3 0;
#X connect 18 0 19 0;
#X connect 19 0 26 0;
#X connect 20 0 18 0;
#X connect 21 0 0 0;
#X connect 22 0 23 0;
#X connect 23 0 21 1;
#X connect 24 0 42 0;
#X connect 25 0 40 0;
#X connect 26 0 25 0;
#X connect 27 0 37 0;
#X connect 28 0 20 1;
#X connect 29 0 24 0;
#X connect 30 0 46 0;
#X connect 31 0 23 2;
#X connect 32 0 23 3;
#X connect 33 0 23 4;
#X connect 34 0 41 2;
#X connect 35 0 23 1;
#X connect 36 0 21 0;
#X connect 37 0 17 0;
#X connect 37 1 22 0;
#X connect 37 2 28 0;
#X connect 37 3 29 0;
#X connect 37 4 30 0;
#X connect 37 5 35 0;
#X connect 37 6 31 0;
#X connect 37 7 32 0;
#X connect 37 8 33 0;
#X connect 37 9 34 0;
#X connect 38 0 23 0;
#X connect 39 0 41 0;
#X connect 40 0 39 0;
#X connect 41 0 36 0;
#X connect 42 0 47 0;
#X connect 43 0 44 0;
#X connect 44 0 41 1;
#X connect 45 0 43 0;
#X connect 46 0 45 0;
#X connect 47 0 45 0;
#X restore 109 800 pd omavoice;
#X obj 136 26 inlet;
#X obj 181 26 inlet;
#X obj 229 27 inlet;
#X obj 151 70 pack 0 0 0;
#X text 322 -1 porta;
#X floatatom 328 54 5 0 0 0 - - -;
#X obj 99 318 unpack;
#X obj 349 937 outlet~;
#X floatatom 526 50 5 0 0 0 - - -;
#X text 523 -1 decay;
#X text 682 -2 wave;
#X obj 151 125 route 1 2 3 4 5 6 7 8;
#X floatatom 477 48 5 0 0 0 - - -;
#X text 474 -3 attack;
#X floatatom 626 51 5 0 0 0 - - -;
#X floatatom 577 49 5 0 0 0 - - -;
#X text 574 -2 sustain;
#X text 623 0 release;
#X floatatom 376 53 5 0 0 0 - - -;
#X floatatom 431 54 5 0 0 0 - - -;
#X obj 334 23 inlet;
#X obj 379 23 inlet;
#X obj 427 24 inlet;
#X obj 483 25 inlet;
#X obj 528 25 inlet;
#X obj 576 26 inlet;
#X obj 628 27 inlet;
#X obj 678 30 inlet;
#X obj 740 11 inlet;
#X text 751 -8 log;
#X floatatom 677 53 5 0 0 0 - - -;
#X obj 318 338 unpack;
#X obj 538 333 unpack;
#X obj 727 333 unpack;
#X obj 156 433 unpack;
#X obj 375 453 unpack;
#X obj 595 448 unpack;
#X obj 784 448 unpack;
#X obj 103 353 pack f f f f f f f f f f;
#X obj 160 468 pack f f f f f f f f f f;
#X obj 355 556 pack f f f f f f f f f f;
#X obj 322 374 pack f f f f f f f f f f;
#X obj 599 484 pack f f f f f f f f f f;
#X obj 543 367 pack f f f f f f f f f f;
#X obj 731 368 pack f f f f f f f f f f;
#X obj 788 483 pack f f f f f f f f f f;
#X obj 824 46 r panic1;
#N canvas 0 83 1680 967 omavoice 0;
#X obj 416 998 outlet~;
#X obj 484 67 r tuning_notes;
#X floatatom 178 57 5 0 0 0 - - -;
#X floatatom 368 68 5 0 0 0 - - -;
#X obj 178 84 / 12;
#X obj 368 84 mod 12;
#X obj 178 106 int;
#X obj 178 133 tabread octaves;
#X obj 368 109 tabread tuning;
#X floatatom 178 159 5 0 0 0 - - -;
#X floatatom 368 135 5 0 0 0 - - -;
#X obj 275 42 bng 15 250 50 0 empty empty empty 17 7 0 10 -262144 -1
-1;
#X obj 269 209 *;
#X obj 367 179 r basetone;
#X floatatom 315 210 5 0 0 0 - - -;
#X obj 269 246 *;
#X floatatom 269 270 5 0 0 0 - - -;
#X floatatom 268 -20 5 0 0 2 note - -;
#X obj 269 319 line;
#X floatatom 269 348 5 0 0 0 - - -;
#X obj 269 293 pack 0 0;
#X obj 417 914 *~;
#X floatatom 595 41 5 0 0 2 volume - -;
#X obj 587 716 aenv~ 100 200 0.6 500;
#X floatatom 378 422 3 0 15 0 - - -;
#X obj 272 400 int;
#X floatatom 267 378 5 0 0 0 - - -;
#X obj 597 -145 inlet;
#X floatatom 639 41 5 0 0 2 porta - -;
#X floatatom 686 37 5 0 0 2 mod - -;
#X floatatom 734 38 5 0 0 2 rez - -;
#X floatatom 836 43 5 0 0 2 decay - -;
#X floatatom 880 41 5 0 0 2 sustain - -;
#X floatatom 931 42 5 0 0 2 release - -;
#X floatatom 983 45 5 0 0 2 waveform - -;
#X floatatom 785 43 5 0 0 2 attack - -;
#X obj 182 845 hip~ 5;
#X obj 597 -115 unpack f f f f f f f f f f;
#X obj 805 -138 inlet;
#X obj 183 501 phasor~;
#X floatatom 183 475 0 0 0 0 - - -;
#X obj 183 815 cz-osc~ saw;
#X obj 217 537 hsl 128 15 0 0.99 0 0 empty empty empty -2 -8 0 10 -262144
-1 -1 10992 1;
#X msg 214 720 \$1 100;
#X obj 214 747 line~;
#X floatatom 214 697 0 0 0 0 - - -;
#X obj 296 574 hsl 128 15 0 65 0 0 empty empty empty -2 -8 0 10 -262144
-1 -1 0 1;
#X obj 214 608 expr pow($f1 \, 1.0/3);
#X connect 1 0 4 1;
#X connect 1 0 5 1;
#X connect 2 0 4 0;
#X connect 3 0 5 0;
#X connect 4 0 6 0;
#X connect 5 0 8 0;
#X connect 6 0 7 0;
#X connect 7 0 9 0;
#X connect 8 0 10 0;
#X connect 9 0 12 0;
#X connect 10 0 12 1;
#X connect 10 0 11 0;
#X connect 11 0 2 0;
#X connect 12 0 15 0;
#X connect 13 0 14 0;
#X connect 14 0 15 1;
#X connect 15 0 16 0;
#X connect 16 0 20 0;
#X connect 17 0 2 0;
#X connect 17 0 3 0;
#X connect 18 0 19 0;
#X connect 19 0 26 0;
#X connect 20 0 18 0;
#X connect 21 0 0 0;
#X connect 22 0 23 0;
#X connect 23 0 21 1;
#X connect 24 0 42 0;
#X connect 25 0 40 0;
#X connect 26 0 25 0;
#X connect 27 0 37 0;
#X connect 28 0 20 1;
#X connect 29 0 24 0;
#X connect 30 0 46 0;
#X connect 31 0 23 2;
#X connect 32 0 23 3;
#X connect 33 0 23 4;
#X connect 34 0 41 2;
#X connect 35 0 23 1;
#X connect 36 0 21 0;
#X connect 37 0 17 0;
#X connect 37 1 22 0;
#X connect 37 2 28 0;
#X connect 37 3 29 0;
#X connect 37 4 30 0;
#X connect 37 5 35 0;
#X connect 37 6 31 0;
#X connect 37 7 32 0;
#X connect 37 8 33 0;
#X connect 37 9 34 0;
#X connect 38 0 23 0;
#X connect 39 0 41 0;
#X connect 40 0 39 0;
#X connect 41 0 36 0;
#X connect 42 0 47 0;
#X connect 43 0 44 0;
#X connect 44 0 41 1;
#X connect 45 0 43 0;
#X connect 46 0 45 0;
#X connect 47 0 45 0;
#X restore 195 801 pd omavoice;
#N canvas 0 83 1680 967 omavoice 0;
#X obj 416 998 outlet~;
#X obj 484 67 r tuning_notes;
#X floatatom 178 57 5 0 0 0 - - -;
#X floatatom 368 68 5 0 0 0 - - -;
#X obj 178 84 / 12;
#X obj 368 84 mod 12;
#X obj 178 106 int;
#X obj 178 133 tabread octaves;
#X obj 368 109 tabread tuning;
#X floatatom 178 159 5 0 0 0 - - -;
#X floatatom 368 135 5 0 0 0 - - -;
#X obj 275 42 bng 15 250 50 0 empty empty empty 17 7 0 10 -262144 -1
-1;
#X obj 269 209 *;
#X obj 367 179 r basetone;
#X floatatom 315 210 5 0 0 0 - - -;
#X obj 269 246 *;
#X floatatom 269 270 5 0 0 0 - - -;
#X floatatom 268 -20 5 0 0 2 note - -;
#X obj 269 319 line;
#X floatatom 269 348 5 0 0 0 - - -;
#X obj 269 293 pack 0 0;
#X obj 417 914 *~;
#X floatatom 595 41 5 0 0 2 volume - -;
#X obj 587 716 aenv~ 100 200 0.6 500;
#X floatatom 378 422 3 0 15 0 - - -;
#X obj 272 400 int;
#X floatatom 267 378 5 0 0 0 - - -;
#X obj 597 -145 inlet;
#X floatatom 639 41 5 0 0 2 porta - -;
#X floatatom 686 37 5 0 0 2 mod - -;
#X floatatom 734 38 5 0 0 2 rez - -;
#X floatatom 836 43 5 0 0 2 decay - -;
#X floatatom 880 41 5 0 0 2 sustain - -;
#X floatatom 931 42 5 0 0 2 release - -;
#X floatatom 983 45 5 0 0 2 waveform - -;
#X floatatom 785 43 5 0 0 2 attack - -;
#X obj 182 845 hip~ 5;
#X obj 597 -115 unpack f f f f f f f f f f;
#X obj 805 -138 inlet;
#X obj 183 501 phasor~;
#X floatatom 183 475 0 0 0 0 - - -;
#X obj 183 815 cz-osc~ saw;
#X obj 217 537 hsl 128 15 0 0.99 0 0 empty empty empty -2 -8 0 10 -262144
-1 -1 10992 1;
#X msg 214 720 \$1 100;
#X obj 214 747 line~;
#X floatatom 214 697 0 0 0 0 - - -;
#X obj 296 574 hsl 128 15 0 65 0 0 empty empty empty -2 -8 0 10 -262144
-1 -1 0 1;
#X obj 214 608 expr pow($f1 \, 1.0/3);
#X connect 1 0 4 1;
#X connect 1 0 5 1;
#X connect 2 0 4 0;
#X connect 3 0 5 0;
#X connect 4 0 6 0;
#X connect 5 0 8 0;
#X connect 6 0 7 0;
#X connect 7 0 9 0;
#X connect 8 0 10 0;
#X connect 9 0 12 0;
#X connect 10 0 12 1;
#X connect 10 0 11 0;
#X connect 11 0 2 0;
#X connect 12 0 15 0;
#X connect 13 0 14 0;
#X connect 14 0 15 1;
#X connect 15 0 16 0;
#X connect 16 0 20 0;
#X connect 17 0 2 0;
#X connect 17 0 3 0;
#X connect 18 0 19 0;
#X connect 19 0 26 0;
#X connect 20 0 18 0;
#X connect 21 0 0 0;
#X connect 22 0 23 0;
#X connect 23 0 21 1;
#X connect 24 0 42 0;
#X connect 25 0 40 0;
#X connect 26 0 25 0;
#X connect 27 0 37 0;
#X connect 28 0 20 1;
#X connect 29 0 24 0;
#X connect 30 0 46 0;
#X connect 31 0 23 2;
#X connect 32 0 23 3;
#X connect 33 0 23 4;
#X connect 34 0 41 2;
#X connect 35 0 23 1;
#X connect 36 0 21 0;
#X connect 37 0 17 0;
#X connect 37 1 22 0;
#X connect 37 2 28 0;
#X connect 37 3 29 0;
#X connect 37 4 30 0;
#X connect 37 5 35 0;
#X connect 37 6 31 0;
#X connect 37 7 32 0;
#X connect 37 8 33 0;
#X connect 37 9 34 0;
#X connect 38 0 23 0;
#X connect 39 0 41 0;
#X connect 40 0 39 0;
#X connect 41 0 36 0;
#X connect 42 0 47 0;
#X connect 43 0 44 0;
#X connect 44 0 41 1;
#X connect 45 0 43 0;
#X connect 46 0 45 0;
#X connect 47 0 45 0;
#X restore 272 800 pd omavoice;
#N canvas 0 83 1680 967 omavoice 0;
#X obj 416 998 outlet~;
#X obj 484 67 r tuning_notes;
#X floatatom 178 57 5 0 0 0 - - -;
#X floatatom 368 68 5 0 0 0 - - -;
#X obj 178 84 / 12;
#X obj 368 84 mod 12;
#X obj 178 106 int;
#X obj 178 133 tabread octaves;
#X obj 368 109 tabread tuning;
#X floatatom 178 159 5 0 0 0 - - -;
#X floatatom 368 135 5 0 0 0 - - -;
#X obj 275 42 bng 15 250 50 0 empty empty empty 17 7 0 10 -262144 -1
-1;
#X obj 269 209 *;
#X obj 367 179 r basetone;
#X floatatom 315 210 5 0 0 0 - - -;
#X obj 269 246 *;
#X floatatom 269 270 5 0 0 0 - - -;
#X floatatom 268 -20 5 0 0 2 note - -;
#X obj 269 319 line;
#X floatatom 269 348 5 0 0 0 - - -;
#X obj 269 293 pack 0 0;
#X obj 417 914 *~;
#X floatatom 595 41 5 0 0 2 volume - -;
#X obj 587 716 aenv~ 100 200 0.6 500;
#X floatatom 378 422 3 0 15 0 - - -;
#X obj 272 400 int;
#X floatatom 267 378 5 0 0 0 - - -;
#X obj 597 -145 inlet;
#X floatatom 639 41 5 0 0 2 porta - -;
#X floatatom 686 37 5 0 0 2 mod - -;
#X floatatom 734 38 5 0 0 2 rez - -;
#X floatatom 836 43 5 0 0 2 decay - -;
#X floatatom 880 41 5 0 0 2 sustain - -;
#X floatatom 931 42 5 0 0 2 release - -;
#X floatatom 983 45 5 0 0 2 waveform - -;
#X floatatom 785 43 5 0 0 2 attack - -;
#X obj 182 845 hip~ 5;
#X obj 597 -115 unpack f f f f f f f f f f;
#X obj 805 -138 inlet;
#X obj 183 501 phasor~;
#X floatatom 183 475 0 0 0 0 - - -;
#X obj 183 815 cz-osc~ saw;
#X obj 217 537 hsl 128 15 0 0.99 0 0 empty empty empty -2 -8 0 10 -262144
-1 -1 10992 1;
#X msg 214 720 \$1 100;
#X obj 214 747 line~;
#X floatatom 214 697 0 0 0 0 - - -;
#X obj 296 574 hsl 128 15 0 65 0 0 empty empty empty -2 -8 0 10 -262144
-1 -1 0 1;
#X obj 214 608 expr pow($f1 \, 1.0/3);
#X connect 1 0 4 1;
#X connect 1 0 5 1;
#X connect 2 0 4 0;
#X connect 3 0 5 0;
#X connect 4 0 6 0;
#X connect 5 0 8 0;
#X connect 6 0 7 0;
#X connect 7 0 9 0;
#X connect 8 0 10 0;
#X connect 9 0 12 0;
#X connect 10 0 12 1;
#X connect 10 0 11 0;
#X connect 11 0 2 0;
#X connect 12 0 15 0;
#X connect 13 0 14 0;
#X connect 14 0 15 1;
#X connect 15 0 16 0;
#X connect 16 0 20 0;
#X connect 17 0 2 0;
#X connect 17 0 3 0;
#X connect 18 0 19 0;
#X connect 19 0 26 0;
#X connect 20 0 18 0;
#X connect 21 0 0 0;
#X connect 22 0 23 0;
#X connect 23 0 21 1;
#X connect 24 0 42 0;
#X connect 25 0 40 0;
#X connect 26 0 25 0;
#X connect 27 0 37 0;
#X connect 28 0 20 1;
#X connect 29 0 24 0;
#X connect 30 0 46 0;
#X connect 31 0 23 2;
#X connect 32 0 23 3;
#X connect 33 0 23 4;
#X connect 34 0 41 2;
#X connect 35 0 23 1;
#X connect 36 0 21 0;
#X connect 37 0 17 0;
#X connect 37 1 22 0;
#X connect 37 2 28 0;
#X connect 37 3 29 0;
#X connect 37 4 30 0;
#X connect 37 5 35 0;
#X connect 37 6 31 0;
#X connect 37 7 32 0;
#X connect 37 8 33 0;
#X connect 37 9 34 0;
#X connect 38 0 23 0;
#X connect 39 0 41 0;
#X connect 40 0 39 0;
#X connect 41 0 36 0;
#X connect 42 0 47 0;
#X connect 43 0 44 0;
#X connect 44 0 41 1;
#X connect 45 0 43 0;
#X connect 46 0 45 0;
#X connect 47 0 45 0;
#X restore 360 800 pd omavoice;
#N canvas 0 83 1680 967 omavoice 0;
#X obj 416 998 outlet~;
#X obj 484 67 r tuning_notes;
#X floatatom 178 57 5 0 0 0 - - -;
#X floatatom 368 68 5 0 0 0 - - -;
#X obj 178 84 / 12;
#X obj 368 84 mod 12;
#X obj 178 106 int;
#X obj 178 133 tabread octaves;
#X obj 368 109 tabread tuning;
#X floatatom 178 159 5 0 0 0 - - -;
#X floatatom 368 135 5 0 0 0 - - -;
#X obj 275 42 bng 15 250 50 0 empty empty empty 17 7 0 10 -262144 -1
-1;
#X obj 269 209 *;
#X obj 367 179 r basetone;
#X floatatom 315 210 5 0 0 0 - - -;
#X obj 269 246 *;
#X floatatom 269 270 5 0 0 0 - - -;
#X floatatom 268 -20 5 0 0 2 note - -;
#X obj 269 319 line;
#X floatatom 269 348 5 0 0 0 - - -;
#X obj 269 293 pack 0 0;
#X obj 417 914 *~;
#X floatatom 595 41 5 0 0 2 volume - -;
#X obj 587 716 aenv~ 100 200 0.6 500;
#X floatatom 378 422 3 0 15 0 - - -;
#X obj 272 400 int;
#X floatatom 267 378 5 0 0 0 - - -;
#X obj 597 -145 inlet;
#X floatatom 639 41 5 0 0 2 porta - -;
#X floatatom 686 37 5 0 0 2 mod - -;
#X floatatom 734 38 5 0 0 2 rez - -;
#X floatatom 836 43 5 0 0 2 decay - -;
#X floatatom 880 41 5 0 0 2 sustain - -;
#X floatatom 931 42 5 0 0 2 release - -;
#X floatatom 983 45 5 0 0 2 waveform - -;
#X floatatom 785 43 5 0 0 2 attack - -;
#X obj 182 845 hip~ 5;
#X obj 597 -115 unpack f f f f f f f f f f;
#X obj 805 -138 inlet;
#X obj 183 501 phasor~;
#X floatatom 183 475 0 0 0 0 - - -;
#X obj 183 815 cz-osc~ saw;
#X obj 217 537 hsl 128 15 0 0.99 0 0 empty empty empty -2 -8 0 10 -262144
-1 -1 10992 1;
#X msg 214 720 \$1 100;
#X obj 214 747 line~;
#X floatatom 214 697 0 0 0 0 - - -;
#X obj 296 574 hsl 128 15 0 65 0 0 empty empty empty -2 -8 0 10 -262144
-1 -1 0 1;
#X obj 214 608 expr pow($f1 \, 1.0/3);
#X connect 1 0 4 1;
#X connect 1 0 5 1;
#X connect 2 0 4 0;
#X connect 3 0 5 0;
#X connect 4 0 6 0;
#X connect 5 0 8 0;
#X connect 6 0 7 0;
#X connect 7 0 9 0;
#X connect 8 0 10 0;
#X connect 9 0 12 0;
#X connect 10 0 12 1;
#X connect 10 0 11 0;
#X connect 11 0 2 0;
#X connect 12 0 15 0;
#X connect 13 0 14 0;
#X connect 14 0 15 1;
#X connect 15 0 16 0;
#X connect 16 0 20 0;
#X connect 17 0 2 0;
#X connect 17 0 3 0;
#X connect 18 0 19 0;
#X connect 19 0 26 0;
#X connect 20 0 18 0;
#X connect 21 0 0 0;
#X connect 22 0 23 0;
#X connect 23 0 21 1;
#X connect 24 0 42 0;
#X connect 25 0 40 0;
#X connect 26 0 25 0;
#X connect 27 0 37 0;
#X connect 28 0 20 1;
#X connect 29 0 24 0;
#X connect 30 0 46 0;
#X connect 31 0 23 2;
#X connect 32 0 23 3;
#X connect 33 0 23 4;
#X connect 34 0 41 2;
#X connect 35 0 23 1;
#X connect 36 0 21 0;
#X connect 37 0 17 0;
#X connect 37 1 22 0;
#X connect 37 2 28 0;
#X connect 37 3 29 0;
#X connect 37 4 30 0;
#X connect 37 5 35 0;
#X connect 37 6 31 0;
#X connect 37 7 32 0;
#X connect 37 8 33 0;
#X connect 37 9 34 0;
#X connect 38 0 23 0;
#X connect 39 0 41 0;
#X connect 40 0 39 0;
#X connect 41 0 36 0;
#X connect 42 0 47 0;
#X connect 43 0 44 0;
#X connect 44 0 41 1;
#X connect 45 0 43 0;
#X connect 46 0 45 0;
#X connect 47 0 45 0;
#X restore 458 795 pd omavoice;
#N canvas 0 83 1680 967 omavoice 0;
#X obj 416 998 outlet~;
#X obj 484 67 r tuning_notes;
#X floatatom 178 57 5 0 0 0 - - -;
#X floatatom 368 68 5 0 0 0 - - -;
#X obj 178 84 / 12;
#X obj 368 84 mod 12;
#X obj 178 106 int;
#X obj 178 133 tabread octaves;
#X obj 368 109 tabread tuning;
#X floatatom 178 159 5 0 0 0 - - -;
#X floatatom 368 135 5 0 0 0 - - -;
#X obj 275 42 bng 15 250 50 0 empty empty empty 17 7 0 10 -262144 -1
-1;
#X obj 269 209 *;
#X obj 367 179 r basetone;
#X floatatom 315 210 5 0 0 0 - - -;
#X obj 269 246 *;
#X floatatom 269 270 5 0 0 0 - - -;
#X floatatom 268 -20 5 0 0 2 note - -;
#X obj 269 319 line;
#X floatatom 269 348 5 0 0 0 - - -;
#X obj 269 293 pack 0 0;
#X obj 417 914 *~;
#X floatatom 595 41 5 0 0 2 volume - -;
#X obj 587 716 aenv~ 100 200 0.6 500;
#X floatatom 378 422 3 0 15 0 - - -;
#X obj 272 400 int;
#X floatatom 267 378 5 0 0 0 - - -;
#X obj 597 -145 inlet;
#X floatatom 639 41 5 0 0 2 porta - -;
#X floatatom 686 37 5 0 0 2 mod - -;
#X floatatom 734 38 5 0 0 2 rez - -;
#X floatatom 836 43 5 0 0 2 decay - -;
#X floatatom 880 41 5 0 0 2 sustain - -;
#X floatatom 931 42 5 0 0 2 release - -;
#X floatatom 983 45 5 0 0 2 waveform - -;
#X floatatom 785 43 5 0 0 2 attack - -;
#X obj 182 845 hip~ 5;
#X obj 597 -115 unpack f f f f f f f f f f;
#X obj 805 -138 inlet;
#X obj 183 501 phasor~;
#X floatatom 183 475 0 0 0 0 - - -;
#X obj 183 815 cz-osc~ saw;
#X obj 217 537 hsl 128 15 0 0.99 0 0 empty empty empty -2 -8 0 10 -262144
-1 -1 10992 1;
#X msg 214 720 \$1 100;
#X obj 214 747 line~;
#X floatatom 214 697 0 0 0 0 - - -;
#X obj 296 574 hsl 128 15 0 65 0 0 empty empty empty -2 -8 0 10 -262144
-1 -1 0 1;
#X obj 214 608 expr pow($f1 \, 1.0/3);
#X connect 1 0 4 1;
#X connect 1 0 5 1;
#X connect 2 0 4 0;
#X connect 3 0 5 0;
#X connect 4 0 6 0;
#X connect 5 0 8 0;
#X connect 6 0 7 0;
#X connect 7 0 9 0;
#X connect 8 0 10 0;
#X connect 9 0 12 0;
#X connect 10 0 12 1;
#X connect 10 0 11 0;
#X connect 11 0 2 0;
#X connect 12 0 15 0;
#X connect 13 0 14 0;
#X connect 14 0 15 1;
#X connect 15 0 16 0;
#X connect 16 0 20 0;
#X connect 17 0 2 0;
#X connect 17 0 3 0;
#X connect 18 0 19 0;
#X connect 19 0 26 0;
#X connect 20 0 18 0;
#X connect 21 0 0 0;
#X connect 22 0 23 0;
#X connect 23 0 21 1;
#X connect 24 0 42 0;
#X connect 25 0 40 0;
#X connect 26 0 25 0;
#X connect 27 0 37 0;
#X connect 28 0 20 1;
#X connect 29 0 24 0;
#X connect 30 0 46 0;
#X connect 31 0 23 2;
#X connect 32 0 23 3;
#X connect 33 0 23 4;
#X connect 34 0 41 2;
#X connect 35 0 23 1;
#X connect 36 0 21 0;
#X connect 37 0 17 0;
#X connect 37 1 22 0;
#X connect 37 2 28 0;
#X connect 37 3 29 0;
#X connect 37 4 30 0;
#X connect 37 5 35 0;
#X connect 37 6 31 0;
#X connect 37 7 32 0;
#X connect 37 8 33 0;
#X connect 37 9 34 0;
#X connect 38 0 23 0;
#X connect 39 0 41 0;
#X connect 40 0 39 0;
#X connect 41 0 36 0;
#X connect 42 0 47 0;
#X connect 43 0 44 0;
#X connect 44 0 41 1;
#X connect 45 0 43 0;
#X connect 46 0 45 0;
#X connect 47 0 45 0;
#X restore 544 796 pd omavoice;
#N canvas 0 83 1680 967 omavoice 0;
#X obj 416 998 outlet~;
#X obj 484 67 r tuning_notes;
#X floatatom 178 57 5 0 0 0 - - -;
#X floatatom 368 68 5 0 0 0 - - -;
#X obj 178 84 / 12;
#X obj 368 84 mod 12;
#X obj 178 106 int;
#X obj 178 133 tabread octaves;
#X obj 368 109 tabread tuning;
#X floatatom 178 159 5 0 0 0 - - -;
#X floatatom 368 135 5 0 0 0 - - -;
#X obj 275 42 bng 15 250 50 0 empty empty empty 17 7 0 10 -262144 -1
-1;
#X obj 269 209 *;
#X obj 367 179 r basetone;
#X floatatom 315 210 5 0 0 0 - - -;
#X obj 269 246 *;
#X floatatom 269 270 5 0 0 0 - - -;
#X floatatom 268 -20 5 0 0 2 note - -;
#X obj 269 319 line;
#X floatatom 269 348 5 0 0 0 - - -;
#X obj 269 293 pack 0 0;
#X obj 417 914 *~;
#X floatatom 595 41 5 0 0 2 volume - -;
#X obj 587 716 aenv~ 100 200 0.6 500;
#X floatatom 378 422 3 0 15 0 - - -;
#X obj 272 400 int;
#X floatatom 267 378 5 0 0 0 - - -;
#X obj 597 -145 inlet;
#X floatatom 639 41 5 0 0 2 porta - -;
#X floatatom 686 37 5 0 0 2 mod - -;
#X floatatom 734 38 5 0 0 2 rez - -;
#X floatatom 836 43 5 0 0 2 decay - -;
#X floatatom 880 41 5 0 0 2 sustain - -;
#X floatatom 931 42 5 0 0 2 release - -;
#X floatatom 983 45 5 0 0 2 waveform - -;
#X floatatom 785 43 5 0 0 2 attack - -;
#X obj 182 845 hip~ 5;
#X obj 597 -115 unpack f f f f f f f f f f;
#X obj 805 -138 inlet;
#X obj 183 501 phasor~;
#X floatatom 183 475 0 0 0 0 - - -;
#X obj 183 815 cz-osc~ saw;
#X obj 217 537 hsl 128 15 0 0.99 0 0 empty empty empty -2 -8 0 10 -262144
-1 -1 10992 1;
#X msg 214 720 \$1 100;
#X obj 214 747 line~;
#X floatatom 214 697 0 0 0 0 - - -;
#X obj 296 574 hsl 128 15 0 65 0 0 empty empty empty -2 -8 0 10 -262144
-1 -1 0 1;
#X obj 214 608 expr pow($f1 \, 1.0/3);
#X connect 1 0 4 1;
#X connect 1 0 5 1;
#X connect 2 0 4 0;
#X connect 3 0 5 0;
#X connect 4 0 6 0;
#X connect 5 0 8 0;
#X connect 6 0 7 0;
#X connect 7 0 9 0;
#X connect 8 0 10 0;
#X connect 9 0 12 0;
#X connect 10 0 12 1;
#X connect 10 0 11 0;
#X connect 11 0 2 0;
#X connect 12 0 15 0;
#X connect 13 0 14 0;
#X connect 14 0 15 1;
#X connect 15 0 16 0;
#X connect 16 0 20 0;
#X connect 17 0 2 0;
#X connect 17 0 3 0;
#X connect 18 0 19 0;
#X connect 19 0 26 0;
#X connect 20 0 18 0;
#X connect 21 0 0 0;
#X connect 22 0 23 0;
#X connect 23 0 21 1;
#X connect 24 0 42 0;
#X connect 25 0 40 0;
#X connect 26 0 25 0;
#X connect 27 0 37 0;
#X connect 28 0 20 1;
#X connect 29 0 24 0;
#X connect 30 0 46 0;
#X connect 31 0 23 2;
#X connect 32 0 23 3;
#X connect 33 0 23 4;
#X connect 34 0 41 2;
#X connect 35 0 23 1;
#X connect 36 0 21 0;
#X connect 37 0 17 0;
#X connect 37 1 22 0;
#X connect 37 2 28 0;
#X connect 37 3 29 0;
#X connect 37 4 30 0;
#X connect 37 5 35 0;
#X connect 37 6 31 0;
#X connect 37 7 32 0;
#X connect 37 8 33 0;
#X connect 37 9 34 0;
#X connect 38 0 23 0;
#X connect 39 0 41 0;
#X connect 40 0 39 0;
#X connect 41 0 36 0;
#X connect 42 0 47 0;
#X connect 43 0 44 0;
#X connect 44 0 41 1;
#X connect 45 0 43 0;
#X connect 46 0 45 0;
#X connect 47 0 45 0;
#X restore 621 795 pd omavoice;
#N canvas 0 83 1680 967 omavoice 0;
#X obj 416 998 outlet~;
#X obj 484 67 r tuning_notes;
#X floatatom 178 57 5 0 0 0 - - -;
#X floatatom 368 68 5 0 0 0 - - -;
#X obj 178 84 / 12;
#X obj 368 84 mod 12;
#X obj 178 106 int;
#X obj 178 133 tabread octaves;
#X obj 368 109 tabread tuning;
#X floatatom 178 159 5 0 0 0 - - -;
#X floatatom 368 135 5 0 0 0 - - -;
#X obj 275 42 bng 15 250 50 0 empty empty empty 17 7 0 10 -262144 -1
-1;
#X obj 269 209 *;
#X obj 367 179 r basetone;
#X floatatom 315 210 5 0 0 0 - - -;
#X obj 269 246 *;
#X floatatom 269 270 5 0 0 0 - - -;
#X floatatom 268 -20 5 0 0 2 note - -;
#X obj 269 319 line;
#X floatatom 269 348 5 0 0 0 - - -;
#X obj 269 293 pack 0 0;
#X obj 417 914 *~;
#X floatatom 595 41 5 0 0 2 volume - -;
#X obj 587 716 aenv~ 100 200 0.6 500;
#X floatatom 378 422 3 0 15 0 - - -;
#X obj 272 400 int;
#X floatatom 267 378 5 0 0 0 - - -;
#X obj 597 -145 inlet;
#X floatatom 639 41 5 0 0 2 porta - -;
#X floatatom 686 37 5 0 0 2 mod - -;
#X floatatom 734 38 5 0 0 2 rez - -;
#X floatatom 836 43 5 0 0 2 decay - -;
#X floatatom 880 41 5 0 0 2 sustain - -;
#X floatatom 931 42 5 0 0 2 release - -;
#X floatatom 983 45 5 0 0 2 waveform - -;
#X floatatom 785 43 5 0 0 2 attack - -;
#X obj 182 845 hip~ 5;
#X obj 597 -115 unpack f f f f f f f f f f;
#X obj 805 -138 inlet;
#X obj 183 501 phasor~;
#X floatatom 183 475 0 0 0 0 - - -;
#X obj 183 815 cz-osc~ saw;
#X obj 217 537 hsl 128 15 0 0.99 0 0 empty empty empty -2 -8 0 10 -262144
-1 -1 10992 1;
#X msg 214 720 \$1 100;
#X obj 214 747 line~;
#X floatatom 214 697 0 0 0 0 - - -;
#X obj 296 574 hsl 128 15 0 65 0 0 empty empty empty -2 -8 0 10 -262144
-1 -1 0 1;
#X obj 214 608 expr pow($f1 \, 1.0/3);
#X connect 1 0 4 1;
#X connect 1 0 5 1;
#X connect 2 0 4 0;
#X connect 3 0 5 0;
#X connect 4 0 6 0;
#X connect 5 0 8 0;
#X connect 6 0 7 0;
#X connect 7 0 9 0;
#X connect 8 0 10 0;
#X connect 9 0 12 0;
#X connect 10 0 12 1;
#X connect 10 0 11 0;
#X connect 11 0 2 0;
#X connect 12 0 15 0;
#X connect 13 0 14 0;
#X connect 14 0 15 1;
#X connect 15 0 16 0;
#X connect 16 0 20 0;
#X connect 17 0 2 0;
#X connect 17 0 3 0;
#X connect 18 0 19 0;
#X connect 19 0 26 0;
#X connect 20 0 18 0;
#X connect 21 0 0 0;
#X connect 22 0 23 0;
#X connect 23 0 21 1;
#X connect 24 0 42 0;
#X connect 25 0 40 0;
#X connect 26 0 25 0;
#X connect 27 0 37 0;
#X connect 28 0 20 1;
#X connect 29 0 24 0;
#X connect 30 0 46 0;
#X connect 31 0 23 2;
#X connect 32 0 23 3;
#X connect 33 0 23 4;
#X connect 34 0 41 2;
#X connect 35 0 23 1;
#X connect 36 0 21 0;
#X connect 37 0 17 0;
#X connect 37 1 22 0;
#X connect 37 2 28 0;
#X connect 37 3 29 0;
#X connect 37 4 30 0;
#X connect 37 5 35 0;
#X connect 37 6 31 0;
#X connect 37 7 32 0;
#X connect 37 8 33 0;
#X connect 37 9 34 0;
#X connect 38 0 23 0;
#X connect 39 0 41 0;
#X connect 40 0 39 0;
#X connect 41 0 36 0;
#X connect 42 0 47 0;
#X connect 43 0 44 0;
#X connect 44 0 41 1;
#X connect 45 0 43 0;
#X connect 46 0 45 0;
#X connect 47 0 45 0;
#X restore 709 795 pd omavoice;
#X text 388 -2 mod;
#X text 436 0 res;
#X connect 0 0 8 0;
#X connect 1 0 4 0;
#X connect 2 0 4 1;
#X connect 3 0 4 2;
#X connect 4 0 12 0;
#X connect 6 0 39 2;
#X connect 6 0 40 2;
#X connect 6 0 41 2;
#X connect 6 0 42 2;
#X connect 6 0 43 2;
#X connect 6 0 44 2;
#X connect 6 0 45 2;
#X connect 6 0 46 2;
#X connect 7 0 39 0;
#X connect 7 1 39 1;
#X connect 9 0 39 6;
#X connect 9 0 40 6;
#X connect 9 0 41 6;
#X connect 9 0 42 6;
#X connect 9 0 43 6;
#X connect 9 0 44 6;
#X connect 9 0 45 6;
#X connect 9 0 46 6;
#X connect 12 0 7 0;
#X connect 12 1 32 0;
#X connect 12 2 33 0;
#X connect 12 3 34 0;
#X connect 12 4 35 0;
#X connect 12 5 36 0;
#X connect 12 6 37 0;
#X connect 12 7 38 0;
#X connect 13 0 39 5;
#X connect 13 0 40 5;
#X connect 13 0 41 5;
#X connect 13 0 42 5;
#X connect 13 0 43 5;
#X connect 13 0 44 5;
#X connect 13 0 45 5;
#X connect 13 0 46 5;
#X connect 15 0 39 8;
#X connect 15 0 40 8;
#X connect 15 0 41 8;
#X connect 15 0 42 8;
#X connect 15 0 43 8;
#X connect 15 0 44 8;
#X connect 15 0 45 8;
#X connect 15 0 46 8;
#X connect 16 0 39 7;
#X connect 16 0 40 7;
#X connect 16 0 41 7;
#X connect 16 0 42 7;
#X connect 16 0 43 7;
#X connect 16 0 44 7;
#X connect 16 0 45 7;
#X connect 16 0 46 7;
#X connect 19 0 39 3;
#X connect 19 0 40 3;
#X connect 19 0 41 3;
#X connect 19 0 42 3;
#X connect 19 0 43 3;
#X connect 19 0 44 3;
#X connect 19 0 45 3;
#X connect 19 0 46 3;
#X connect 20 0 39 4;
#X connect 20 0 40 4;
#X connect 20 0 41 4;
#X connect 20 0 42 4;
#X connect 20 0 43 4;
#X connect 20 0 44 4;
#X connect 20 0 45 4;
#X connect 20 0 46 4;
#X connect 21 0 6 0;
#X connect 22 0 19 0;
#X connect 23 0 20 0;
#X connect 24 0 13 0;
#X connect 25 0 9 0;
#X connect 26 0 16 0;
#X connect 27 0 15 0;
#X connect 28 0 31 0;
#X connect 29 0 0 1;
#X connect 29 0 48 1;
#X connect 29 0 49 1;
#X connect 29 0 50 1;
#X connect 29 0 51 1;
#X connect 29 0 52 1;
#X connect 29 0 53 1;
#X connect 29 0 54 1;
#X connect 31 0 39 9;
#X connect 31 0 40 9;
#X connect 31 0 41 9;
#X connect 31 0 42 9;
#X connect 31 0 43 9;
#X connect 31 0 44 9;
#X connect 31 0 45 9;
#X connect 31 0 46 9;
#X connect 32 0 42 0;
#X connect 32 1 42 1;
#X connect 33 0 44 0;
#X connect 33 1 44 1;
#X connect 34 0 45 0;
#X connect 34 1 45 1;
#X connect 35 0 40 0;
#X connect 35 1 40 1;
#X connect 36 0 41 0;
#X connect 36 1 41 1;
#X connect 37 0 43 0;
#X connect 37 1 43 1;
#X connect 38 0 46 0;
#X connect 38 1 46 1;
#X connect 39 0 0 0;
#X connect 40 0 51 0;
#X connect 41 0 52 0;
#X connect 42 0 48 0;
#X connect 43 0 53 0;
#X connect 44 0 49 0;
#X connect 45 0 50 0;
#X connect 46 0 54 0;
#X connect 47 0 38 0;
#X connect 47 0 34 0;
#X connect 47 0 33 0;
#X connect 47 0 37 0;
#X connect 47 0 32 0;
#X connect 47 0 36 0;
#X connect 47 0 35 0;
#X connect 47 0 7 0;
#X connect 48 0 8 0;
#X connect 49 0 8 0;
#X connect 50 0 8 0;
#X connect 51 0 8 0;
#X connect 52 0 8 0;
#X connect 53 0 8 0;
#X connect 54 0 8 0;
#X restore 520 513 pd voices ----------------;
#X text 576 95 VOLUME;
#X obj 621 140 == 0;
#X obj 663 142 == 1;
#X obj 522 260 spigot 1;
#X floatatom 621 165 5 0 0 0 - - -;
#X floatatom 645 117 5 0 0 0 - - -;
#X floatatom 663 167 5 0 0 0 - - -;
#X obj 402 261 spigot 1;
#X floatatom 554 130 5 0 0 0 - - -;
#X obj 579 260 spigot 1;
#X obj 458 261 spigot 1;
#X obj 418 390 poly 1 0;
#X obj 504 98 unpack 0 1;
#X obj 276 227 bng 15 250 50 0 empty empty empty 17 7 0 10 -192965
-1 -1;
#X obj 606 37 bng 15 250 50 0 empty empty empty 17 7 0 10 -262144 -1
-1;
#X floatatom 600 369 2 1 8 1 mod - -;
#X floatatom 683 396 5 0 0 0 - - -;
#X floatatom 726 396 5 0 0 0 - - -;
#X floatatom 769 396 5 0 0 0 - - -;
#X floatatom 812 396 5 0 0 0 - - -;
#X obj 219 363 vsl 15 64 10 2000 0 1 empty empty at 0 -8 0 8 -213953
-1 -1 0 1;
#X obj 237 363 vsl 15 64 10 2000 0 1 empty empty dec 0 -8 0 8 -213953
-1 -1 5400 1;
#X obj 273 363 vsl 15 64 10 2000 0 1 empty empty rel 0 -8 0 8 -213953
-1 -1 3800 1;
#X obj 255 363 vsl 15 64 0 1 0 1 empty empty sus 0 -8 0 8 -213953 -1
-1 4700 1;
#X obj 109 111 vradio 16 1 0 8 empty empty empty 0 -8 0 10 -230081
-1 -1 4;
#X text 126 109 SAW;
#X text 126 125 SQUARE;
#X floatatom 855 395 5 0 0 0 - - -;
#X msg 956 372 lina;
#X msg 956 391 loga;
#X msg 956 411 zero;
#X floatatom 644 368 0 0 0 1 res - -;
#X obj 363 8 pack 0 1;
#X floatatom 354 -45 5 0 0 0 - - -;
#X floatatom 410 -44 5 0 0 0 - - -;
#X floatatom 599 392 5 0 0 0 - - -;
#X floatatom 640 393 5 0 0 0 - - -;
#X obj 111 354 bng 15 250 50 0 empty empty empty 17 7 0 10 -258113
-1 -1;
#X obj 111 372 bng 15 250 50 0 empty empty log 17 7 0 10 -258113 -1
-1;
#X obj 111 390 bng 15 250 50 0 empty empty zero 17 7 0 10 -258113 -1
-1;
#X msg 759 -47 0;
#X msg 784 -47 0;
#X obj 758 -22 pack f f;
#X obj 276 105 bng 15 250 50 0 empty empty empty 17 7 0 10 -259137
-1 -1;
#X obj 755 17 s panic1;
#X text 278 225 t;
#X text 278 101 p;
#X text 126 141 PULSE;
#X text 126 157 SINEPULSE;
#X text 126 172 HALFSINE;
#X text 126 189 RESSAW;
#X text 126 205 RESTRIANGLE;
#X text 126 221 RESTRAPEZOID;
#X obj 205 105 cnv 15 65 140 empty empty 20 12 0 0 1.02308e+07 -160197
-262144 0;
#X obj 214 119 vsl 20 120 0 0.99 0 0 empty empty mod 0 -9 0 10 -230657
-1 -1 10300 1;
#X obj 237 119 vsl 20 120 0 65 0 0 empty empty res 0 -9 0 10 -230657
-1 -1 0 1;
#X obj 104 248 cnv 15 190 95 empty empty 20 12 0 0 1.02308e+07 -160197
-262144 0;
#X obj 327 651 sig~;
#X obj 367 653 sig~;
#X obj 279 579 mtof;
#X obj 107 267 vsl 16 70 16 135 0 0 empty empty Frq 0 -8 0 8 -260097
-1 -1 0 1;
#X obj 126 267 vsl 16 70 0 1 0 0 empty empty Q 0 -8 0 8 -260097 -1
-1 3100 1;
#X obj 145 267 vsl 16 70 0 1 0 0 empty empty Res 0 -8 0 8 -260097 -1
-1 4400 1;
#X obj 279 651 line~;
#X msg 279 628 \$1 100;
#X floatatom 279 603 7 0 0 0 - - -;
#X msg 393 423 low;
#X msg 393 447 high;
#X msg 393 471 band;
#X msg 393 495 notch;
#X msg 393 519 peak;
#X text 428 477 filter type;
#X obj 338 740 svf~ low;
#X obj 247 258 bng 15 250 50 0 empty empty low 17 7 0 10 -260097 -1
-1;
#X obj 247 275 bng 15 250 50 0 empty empty high 17 7 0 10 -260097 -1
-1;
#X obj 247 292 bng 15 250 50 0 empty empty band 17 7 0 10 -260097 -1
-1;
#X obj 247 309 bng 15 250 50 0 empty empty notch 17 7 0 10 -260097
-1 -1;
#X obj 247 326 bng 15 250 50 0 empty empty peak 17 7 0 10 -260097 -1
-1;
#X text 181 245 Filter;
#X obj 165 265 cnv 15 75 75 empty empty empty 20 12 0 14 -259777 -66577
0;
#X obj 582 705 aenv~ 100 200 0.6 500;
#X obj 585 762 env~;
#X floatatom 585 783 5 0 0 0 - - -;
#X obj 167 275 vsl 15 64 10 2000 0 1 empty empty at 0 -8 0 8 -213953
-1 -1 0 1;
#X obj 185 275 vsl 15 64 10 2000 0 1 empty empty dec 0 -8 0 8 -213953
-1 -1 500 1;
#X obj 221 275 vsl 15 64 10 2000 0 1 empty empty rel 0 -8 0 8 -213953
-1 -1 0 1;
#X obj 203 275 vsl 15 64 0 1 0 1 empty empty sus 0 -8 0 8 -213953 -1
-1 0 1;
#X obj 169 250 tgl 12 0 empty empty empty 17 7 0 10 -260097 -1 -1 1
1;
#X text 159 354 Amp;
#X obj 585 804 / 100;
#X obj 585 824 * 119;
#X obj 585 845 + 16;
#X floatatom 585 866 5 0 0 0 - - -;
#X obj 582 889 spigot 1;
#X obj -3 159 loadbang;
#X connect 1 0 17 3;
#X connect 2 0 21 0;
#X connect 2 0 25 0;
#X connect 3 0 30 0;
#X connect 3 0 31 0;
#X connect 3 0 32 0;
#X connect 8 0 1 0;
#X connect 9 0 8 0;
#X connect 10 0 9 0;
#X connect 10 0 11 0;
#X connect 11 0 15 0;
#X connect 11 0 105 0;
#X connect 12 0 14 1;
#X connect 14 0 7 0;
#X connect 15 0 23 0;
#X connect 16 0 17 0;
#X connect 16 1 17 1;
#X connect 16 2 17 2;
#X connect 16 2 98 0;
#X connect 17 0 90 0;
#X connect 19 0 22 0;
#X connect 20 0 24 0;
#X connect 21 0 16 0;
#X connect 22 0 25 1;
#X connect 22 0 28 1;
#X connect 23 0 19 0;
#X connect 23 0 20 0;
#X connect 24 0 21 1;
#X connect 24 0 27 1;
#X connect 25 0 29 0;
#X connect 26 0 28 0;
#X connect 26 0 27 0;
#X connect 27 0 16 1;
#X connect 28 0 29 1;
#X connect 29 0 17 0;
#X connect 29 1 17 1;
#X connect 29 2 17 2;
#X connect 29 2 98 0;
#X connect 30 0 2 0;
#X connect 30 1 26 0;
#X connect 33 0 53 0;
#X connect 34 0 17 6;
#X connect 35 0 17 7;
#X connect 36 0 17 8;
#X connect 37 0 17 9;
#X connect 38 0 34 0;
#X connect 39 0 35 0;
#X connect 40 0 37 0;
#X connect 41 0 36 0;
#X connect 42 0 45 0;
#X connect 45 0 17 10;
#X connect 46 0 17 11;
#X connect 47 0 17 11;
#X connect 48 0 17 11;
#X connect 49 0 54 0;
#X connect 51 0 50 0;
#X connect 52 0 50 1;
#X connect 53 0 17 4;
#X connect 54 0 17 5;
#X connect 55 0 46 0;
#X connect 56 0 47 0;
#X connect 57 0 48 0;
#X connect 58 0 60 0;
#X connect 59 0 60 1;
#X connect 60 0 62 0;
#X connect 61 0 58 0;
#X connect 61 0 59 0;
#X connect 72 0 33 0;
#X connect 73 0 49 0;
#X connect 75 0 90 2;
#X connect 76 0 90 3;
#X connect 77 0 83 0;
#X connect 78 0 77 0;
#X connect 79 0 75 0;
#X connect 80 0 76 0;
#X connect 81 0 90 1;
#X connect 82 0 81 0;
#X connect 83 0 82 0;
#X connect 84 0 90 0;
#X connect 85 0 90 0;
#X connect 86 0 90 0;
#X connect 87 0 90 0;
#X connect 88 0 90 0;
#X connect 90 0 14 0;
#X connect 91 0 84 0;
#X connect 92 0 85 0;
#X connect 93 0 86 0;
#X connect 94 0 87 0;
#X connect 95 0 88 0;
#X connect 98 0 99 0;
#X connect 99 0 100 0;
#X connect 100 0 107 0;
#X connect 101 0 98 1;
#X connect 102 0 98 2;
#X connect 103 0 98 4;
#X connect 104 0 98 3;
#X connect 105 0 111 1;
#X connect 107 0 108 0;
#X connect 108 0 109 0;
#X connect 109 0 110 0;
#X connect 110 0 111 0;
#X connect 111 0 78 0;
#X coords 0 -1 1 1 200 340 1 100 100;
#X restore 162 129 pd thaisynth1;
#X floatatom 388 -159 3 0 127 1 vol - -;
#X floatatom 388 -141 4 0 2500 1 length - -;
#X obj 228 -15 makenote;
#X obj 228 7 pack 0 0;
#X floatatom 228 -48 5 0 0 0 - - -;
#N canvas 1 83 1600 846 tonalwrapper 0;
#X obj 845 474 tabread scaler;
#X obj 826 431 mod;
#X floatatom 789 337 5 0 0 0 - - -;
#X obj 937 122 r scale_notes;
#X obj 788 570 +;
#X obj 773 428 /;
#X obj 773 451 int;
#X obj 777 477 *;
#X obj 873 432 r tuning_notes;
#X floatatom 786 598 5 0 0 0 - - -;
#X floatatom 770 395 5 0 0 0 - - -;
#X floatatom 816 395 5 0 0 0 - - -;
#X obj 854 525 bng 15 250 50 0 empty empty empty 17 7 0 10 -262144
-1 -1;
#X obj 779 85 inlet;
#X obj 929 782 outlet;
#X obj 1022 293 spigot 1;
#X obj 927 292 spigot 1;
#X obj 972 271 != 1;
#X obj 984 211 > 9;
#X connect 0 0 4 0;
#X connect 0 0 12 0;
#X connect 1 0 0 0;
#X connect 2 0 10 0;
#X connect 2 0 11 0;
#X connect 3 0 1 1;
#X connect 3 0 5 1;
#X connect 3 0 18 0;
#X connect 4 0 9 0;
#X connect 5 0 6 0;
#X connect 6 0 7 0;
#X connect 7 0 4 1;
#X connect 8 0 7 1;
#X connect 9 0 14 0;
#X connect 10 0 5 0;
#X connect 11 0 1 0;
#X connect 12 0 10 0;
#X connect 13 0 16 0;
#X connect 13 0 15 0;
#X connect 15 0 14 0;
#X connect 16 0 2 0;
#X connect 17 0 16 1;
#X connect 18 0 17 0;
#X connect 18 0 15 1;
#X restore 228 -69 pd tonalwrapper;
#X floatatom 228 -106 5 0 0 0 - - -;
#X obj 228 -88 int;
#X obj 228 -182 int;
#X obj 228 -130 +;
#X obj 228 -154 +;
#X text 279 -160 Wrapper;
#X obj 227 548 dac~ 1 2 3 4 5 6 7 8 9 10 11 12 13 14 15 16;
#X floatatom 226 -245 5 0 0 0 - - -;
#X connect 0 0 13 9;
#X connect 1 0 3 1;
#X connect 2 0 3 2;
#X connect 3 0 4 0;
#X connect 3 1 4 1;
#X connect 4 0 0 0;
#X connect 5 0 3 0;
#X connect 6 0 5 0;
#X connect 7 0 8 0;
#X connect 8 0 6 0;
#X connect 9 0 11 0;
#X connect 10 0 7 0;
#X connect 11 0 10 0;
#X connect 14 0 9 0;
