#N canvas 1 83 318 394 10;
#N canvas 108 124 1280 925 treesynth 0;
#X obj 101 101 cnv 15 300 380 empty empty empty 20 12 0 14 -100371
-66577 0;
#X obj 217 434 bng 20 250 50 0 empty empty empty 17 7 0 10 -190229
-1 -1;
#X obj 241 434 bng 20 250 50 0 empty empty empty 17 7 0 10 -190229
-1 -1;
#X obj 266 434 bng 20 250 50 0 empty empty empty 17 7 0 10 -190229
-1 -1;
#X obj 291 434 bng 20 250 50 0 empty empty empty 17 7 0 10 -190229
-1 -1;
#X text 247 434 2;
#X text 272 436 4;
#X text 297 436 8;
#X text 222 433 1;
#X obj 42 -65 bng 15 250 50 0 empty empty empty 17 7 0 10 -261073 -1
-1;
#X msg 21 135 10;
#X floatatom 348 436 5 0 0 0 - - -;
#X msg 500 337 1;
#X msg 500 363 2;
#X obj 114 -100 loadbang;
#X obj 128 -74 bng 15 250 50 0 empty empty empty 17 7 0 10 -262144
-1 -1;
#X obj 469 281 loadbang;
#X floatatom 310 -646 5 0 0 0 - - -;
#X floatatom 880 437 5 0 0 0 - - -;
#X obj 491 -518 ctlin;
#X floatatom 466 -485 5 0 0 0 - - -;
#X floatatom 526 -483 5 0 0 0 - - -;
#X floatatom 581 -483 5 0 0 0 - - -;
#X obj 1036 39 inlet;
#X text 1037 18 RNDOM IN;
#X obj 1037 69 bng 15 250 50 0 empty empty empty 17 7 0 10 -262144
-1 -1;
#X msg 304 -676 11;
#X text 768 34 CLICK IN;
#X floatatom 882 889 5 0 0 0 - - -;
#X floatatom 882 748 5 0 0 0 - - -;
#X obj 880 486 spigot 1;
#X obj 951 558 route 1;
#X obj 951 580 bng 15 250 50 0 empty empty empty 17 7 0 10 -262144
-1 -1;
#X obj 808 555 route 1;
#X obj 808 579 bng 15 250 50 0 empty empty empty 17 7 0 10 -262144
-1 -1;
#X obj 882 868 +;
#X floatatom 668 604 5 0 0 0 - - -;
#X msg 500 389 3;
#X msg 500 414 4;
#X floatatom 669 630 5 0 0 0 - - -;
#X obj 882 935 makenote 3.2 53;
#X obj 1107 850 loadbang;
#X floatatom 882 911 5 0 0 0 - - -;
#X msg 1159 820 4;
#X obj 124 460 hsl 128 15 0 1 0 0 empty empty empty -2 -8 0 10 -228856
-1 -1 0 1;
#X floatatom 258 459 5 0 0 0 - - -;
#X floatatom 955 496 5 0 0 0 - - -;
#X floatatom 882 544 5 0 0 0 - - -;
#X obj 897 520 bng 15 250 50 0 empty empty empty 17 7 0 10 -262144
-1 -1;
#X msg 1065 817 500;
#X obj 443 -468 bng 15 250 50 0 empty empty empty 17 7 0 10 -262144
-1 -1;
#X floatatom 472 -270 5 0 0 0 - - -;
#X floatatom 823 -513 5 0 0 0 - - -;
#X floatatom 730 -274 5 0 0 0 - - -;
#X obj 823 -491 <;
#X floatatom 863 -516 5 0 0 0 - - -;
#X msg 525 -196 0;
#X floatatom 711 -383 5 0 0 0 - - -;
#X floatatom 730 -253 5 0 0 0 - - -;
#X obj 823 -469 route 1;
#X obj 822 -443 bng 15 250 50 0 empty empty empty 17 7 0 10 -262144
-1 -1;
#X floatatom 669 -221 5 0 0 0 - - -;
#X obj 663 -253 +;
#X obj 217 -358 bng 15 250 50 0 empty empty empty 17 7 0 10 -262144
-1 -1;
#X floatatom 809 -389 5 0 0 0 - - -;
#X floatatom 765 -480 5 0 0 0 - - -;
#X floatatom 658 -499 5 0 0 0 - - -;
#X floatatom 1111 -497 5 0 0 0 - - -;
#X obj 1111 -475 <;
#X obj 1111 -453 route 1;
#X obj 1113 -420 bng 15 250 50 0 empty empty empty 17 7 0 10 -262144
-1 -1;
#X floatatom 1151 -496 5 0 0 0 - - -;
#X floatatom 1081 -195 5 0 0 0 - - -;
#X obj 1082 -249 random 4;
#X floatatom 1127 -286 5 0 0 0 - - -;
#X floatatom 1034 -274 5 0 0 0 - - -;
#X floatatom 1055 -393 5 0 0 0 - - -;
#X floatatom 1025 -134 5 0 0 0 - - -;
#X obj 1039 -163 +;
#X obj 989 -223 +;
#X floatatom 981 -191 5 0 0 0 - - -;
#X floatatom 1304 -149 5 0 0 0 - - -;
#X floatatom 1244 -250 5 0 0 0 - - -;
#X floatatom 1290 -366 5 0 0 0 - - -;
#X floatatom 1343 -496 5 0 0 0 - - -;
#X obj 1340 -465 <;
#X obj 1339 -443 route 1;
#X obj 1342 -413 bng 15 250 50 0 empty empty empty 17 7 0 10 -262144
-1 -1;
#X floatatom 1369 -480 5 0 0 0 - - -;
#X floatatom 1324 -237 5 0 0 0 - - -;
#X obj 1324 -290 random 4;
#X floatatom 1368 -335 5 0 0 0 - - -;
#X obj 1232 -216 +;
#X floatatom 1223 -182 5 0 0 0 - - -;
#X obj 1302 -186 +;
#X obj 455 -179 int;
#X obj 646 -148 int;
#X obj 949 -107 int;
#X obj 1218 -122 int;
#X floatatom 1595 -128 5 0 0 0 - - -;
#X floatatom 1531 -271 5 0 0 0 - - -;
#X floatatom 1581 -374 5 0 0 0 - - -;
#X floatatom 1607 -535 5 0 0 0 - - -;
#X obj 1607 -484 <;
#X obj 1607 -462 route 1;
#X obj 1609 -429 bng 15 250 50 0 empty empty empty 17 7 0 10 -262144
-1 -1;
#X floatatom 1624 -510 5 0 0 0 - - -;
#X floatatom 1591 -195 5 0 0 0 - - -;
#X obj 1592 -260 random 4;
#X floatatom 1642 -291 5 0 0 0 - - -;
#X obj 1518 -209 +;
#X floatatom 1520 -171 5 0 0 0 - - -;
#X obj 1595 -159 +;
#X obj 1501 -118 int;
#X text 110 138 I;
#X text 149 137 II;
#X text 212 138 III;
#X text 285 137 IV;
#X text 356 138 V;
#X obj 104 167 vsl 11 128 0 10 0 0 empty empty B 0 -9 0 10 -108166
-1 -1 0 1;
#X obj 137 167 vsl 11 128 0 10 0 0 empty empty B 0 -9 0 10 -166022
-1 -1 2540 1;
#X obj 152 167 vsl 11 128 0 100 0 0 empty empty F 0 -9 0 10 -166406
-1 -1 10160 1;
#X obj 825 -543 random 100;
#X obj 167 167 vsl 11 128 0 10 0 0 empty empty L 0 -9 0 10 -191238
-1 -1 8890 1;
#X obj 806 -359 int;
#X obj 181 167 vsl 11 128 0 21 0 0 empty empty R 0 -9 0 10 -191253
-1 -1 3024 1;
#X obj 204 167 vsl 11 128 0 10 0 0 empty empty B 0 -9 0 10 -166022
-1 -1 2540 1;
#X obj 219 167 vsl 11 128 0 100 0 0 empty empty F 0 -9 0 10 -166406
-1 -1 10160 1;
#X obj 234 167 vsl 11 128 0 10 0 0 empty empty L 0 -9 0 10 -191238
-1 -1 8890 1;
#X obj 248 167 vsl 11 128 0 21 0 0 empty empty R 0 -9 0 10 -191253
-1 -1 3024 1;
#X obj 270 167 vsl 11 128 0 10 0 0 empty empty B 0 -9 0 10 -166022
-1 -1 2540 1;
#X obj 285 167 vsl 11 128 0 100 0 0 empty empty F 0 -9 0 10 -166406
-1 -1 10160 1;
#X obj 300 167 vsl 11 128 0 10 0 0 empty empty L 0 -9 0 10 -191238
-1 -1 8890 1;
#X obj 314 167 vsl 11 128 0 10 0 0 empty empty R 0 -9 0 10 -191253
-1 -1 6350 1;
#X obj 337 168 vsl 11 128 0 10 0 0 empty empty B 0 -9 0 10 -166022
-1 -1 2540 1;
#X obj 352 168 vsl 11 128 0 100 0 0 empty empty F 0 -9 0 10 -166406
-1 -1 10160 1;
#X obj 367 168 vsl 11 128 0 10 0 0 empty empty L 0 -9 0 10 -191238
-1 -1 8890 1;
#X obj 381 168 vsl 11 128 0 21 0 0 empty empty R 0 -9 0 10 -191253
-1 -1 3024 1;
#X obj 1346 -523 random 100;
#X obj 1106 -529 random 100;
#X obj 1607 -565 random 100;
#X obj 114 124 bng 15 250 50 0 empty empty generate 17 7 0 10 -262144
-1 -1;
#X obj 881 364 mod 32;
#X obj 108 389 hsl 285 8 0 32 0 0 empty empty empty -2 -8 0 10 -190805
-1 -1 0 1;
#X obj 109 303 hsl 285 8 0 32 0 0 empty empty empty -2 -8 0 10 -190805
-1 -1 0 1;
#X floatatom 143 412 5 0 0 0 - - -;
#X obj 914 340 int;
#X obj 249 -266 delay 1;
#X obj 871 98 int;
#X obj 889 97 + 1;
#X floatatom 865 146 5 0 0 0 - - -;
#X obj 870 53 bng 15 250 50 0 empty empty empty 17 7 0 10 -262144 -1
-1;
#X obj 317 434 bng 20 250 50 0 empty empty empty 17 7 0 10 -190229
-1 -1;
#X text 319 436 16;
#X msg 498 435 5;
#X obj 1204 113 inlet;
#X floatatom 1204 142 5 0 0 0 - - -;
#X floatatom 1011 367 5 0 0 0 - - -;
#X floatatom 302 458 5 1 16 0 - - -;
#X obj 318 737 * 127;
#X obj 318 767 int;
#X text 336 458 midi chan;
#X text 117 437 OCTAVE ZONE;
#X obj 223 -204 vradio 15 1 0 3 empty empty empty 0 -8 0 10 -191253
-1 -1 0;
#X text 242 -206 GENERATE;
#X text 243 -191 INSIDE;
#X text 243 -175 OUTSIDE;
#X floatatom 1397 599 5 0 0 0 - - -;
#X obj 1333 627 == 0;
#X obj 1333 651 route 1;
#X obj 1333 677 bng 15 250 50 0 empty empty empty 17 7 0 10 -262144
-1 -1;
#X msg 1319 705 0;
#X msg 1353 705 1;
#X obj 1400 655 route 1;
#X obj 1400 681 bng 15 250 50 0 empty empty empty 17 7 0 10 -262144
-1 -1;
#X msg 1386 709 0;
#X msg 1420 709 1;
#X obj 1466 662 route 1;
#X obj 1466 688 bng 15 250 50 0 empty empty empty 17 7 0 10 -262144
-1 -1;
#X msg 1452 716 0;
#X msg 1486 716 1;
#X obj 1400 631 == 1;
#X obj 1466 638 == 2;
#X obj 1406 740 spigot 1;
#X floatatom 1400 799 5 0 0 0 - - -;
#X obj 1584 761 spigot 1;
#X floatatom 1627 734 5 0 0 0 - - -;
#X obj 1406 761 mod 64;
#X obj 1584 784 mod 64;
#X floatatom 299 -205 5 0 0 0 - - -;
#X floatatom 299 -188 5 0 0 0 - - -;
#X floatatom 299 -171 5 0 0 0 - - -;
#X msg 748 -613 seed 1;
#X msg 801 -610 seed 2;
#X msg 863 -610 seed 3;
#X msg 926 -610 seed 4;
#X msg 980 -607 seed 5;
#X msg 1036 -604 seed 6;
#X msg 1087 -604 seed 7;
#X msg 1151 -603 seed 8;
#X msg 1213 -603 seed 9;
#X msg 1267 -600 seed 10;
#X msg 1381 -597 seed 12;
#X msg 1324 -597 seed 11;
#X msg 1442 -597 seed 13;
#X obj 1109 -687 bng 15 250 50 0 empty empty empty 17 7 0 10 -262144
-1 -1;
#X obj 679 -666 loadbang;
#X obj 114 105 tgl 15 0 empty empty on/off 17 7 0 10 -262144 -1 -1
0 1;
#X obj 1065 94 spigot 1;
#X msg 63 -2 0;
#X floatatom 899 660 5 0 0 0 - - -;
#X floatatom 899 707 5 0 0 0 - - -;
#X obj 882 837 +;
#X obj 117 167 vsl 11 128 0 10 0 0 empty empty R 0 -9 0 10 -191253
-1 -1 0 1;
#X obj 444 -310 +;
#X obj 192 434 bng 20 250 50 0 empty empty empty 17 7 0 10 -190229
-1 -1;
#X text 197 433 0;
#X msg 508 319 0;
#X floatatom 182 412 5 0 0 1 repeat_time - -;
#X obj 1077 142 mod;
#X obj 1077 168 ==;
#X floatatom 1123 143 5 0 0 0 - - -;
#X obj 1077 193 route 1;
#X obj 1077 217 bng 15 250 50 0 empty empty empty 17 7 0 10 -262144
-1 -1;
#X obj 729 -295 +;
#X obj 1081 -217 +;
#X obj 1323 -258 +;
#X obj 1593 -226 +;
#X floatatom 196 121 5 0 0 1 minimum_step - -;
#X obj 882 768 +;
#X obj 1301 141 inlet;
#X obj 1354 142 inlet;
#X obj 1405 140 inlet;
#X text 1356 106 MOD;
#X floatatom 1307 172 5 0 0 0 - - -;
#X floatatom 1356 170 5 0 0 0 - - -;
#X floatatom 1408 169 5 0 0 0 - - -;
#X floatatom 1246 221 5 0 0 0 - - -;
#X floatatom 1350 224 5 0 0 0 - - -;
#X floatatom 1387 223 5 0 0 0 - - -;
#X floatatom 1424 223 5 0 0 0 - - -;
#X text 1250 205 I B;
#X text 1352 206 2 R;
#X floatatom 1284 222 5 0 0 0 - - -;
#X text 1287 205 1 R;
#X floatatom 1493 229 5 0 0 0 - - -;
#X floatatom 1529 229 5 0 0 0 - - -;
#X floatatom 1565 229 5 0 0 0 - - -;
#X text 1495 212 3 R;
#X floatatom 1238 320 5 0 0 0 - - -;
#X obj 1238 297 * 16;
#X obj 1238 253 *;
#X floatatom 1237 277 5 0 0 0 - - -;
#X floatatom 1291 323 5 0 0 0 - - -;
#X obj 1291 300 * 16;
#X obj 1291 256 *;
#X floatatom 1291 278 5 0 0 0 - - -;
#X floatatom 1348 319 5 0 0 0 - - -;
#X obj 1348 296 * 16;
#X obj 1348 252 *;
#X floatatom 1348 274 5 0 0 0 - - -;
#X floatatom 1392 320 5 0 0 0 - - -;
#X obj 1392 253 *;
#X floatatom 1392 275 5 0 0 0 - - -;
#X floatatom 1431 320 5 0 0 0 - - -;
#X obj 1431 253 *;
#X floatatom 1431 275 5 0 0 0 - - -;
#X floatatom 1492 321 5 0 0 0 - - -;
#X obj 1492 298 * 16;
#X obj 1492 254 *;
#X floatatom 1492 276 5 0 0 0 - - -;
#X floatatom 1536 322 5 0 0 0 - - -;
#X obj 1536 255 *;
#X floatatom 1536 277 5 0 0 0 - - -;
#X floatatom 1575 322 5 0 0 0 - - -;
#X obj 1575 255 *;
#X floatatom 1575 277 5 0 0 0 - - -;
#X text 1391 205 2 F;
#X text 1425 206 2 L;
#X text 1531 212 3 F;
#X text 1566 212 3 L;
#X obj 1392 297 * 100;
#X obj 1536 299 * 100;
#X obj 1431 297 * 10;
#X obj 1575 299 * 10;
#X text 1201 92 TUNING MOD;
#X obj 882 727 tabread scaler;
#X floatatom 1080 69 5 0 0 0 - - -;
#X msg 808 600 1;
#X msg 951 600 2;
#X obj 899 683 * 22;
#X obj 666 558 * 22;
#X obj 880 408 tabread dna2;
#X obj 455 -146 tabwrite dna2;
#X obj 641 -119 tabwrite dna2;
#X obj 947 -89 tabwrite dna2;
#X obj 1222 -94 tabwrite dna2;
#X obj 1520 -91 tabwrite dna2;
#X msg 293 -349 \; dna2 const \$1;
#X obj 808 530 < 7;
#X obj 882 616 mod 7;
#X obj 885 -30 r metro;
#X floatatom 721 486 5 0 0 0 - - -;
#X obj 1677 112 r follow;
#X obj 1788 123 r brushnote;
#X floatatom 1803 158 5 0 0 0 - - -;
#X obj 1707 168 tgl 15 0 empty empty empty 17 7 0 10 -262144 -1 -1
0 1;
#X obj 1764 241 spigot 1;
#X floatatom 1762 287 5 0 0 0 - - -;
#X obj 882 584 +;
#X obj 1010 410 r scale_notes;
#X obj 1130 661 r tuning_notes;
#X obj 1246 70 r basetone;
#X obj 105 314 cnv 15 290 70 empty empty empty 20 12 0 14 -204312 -66577
0;
#N canvas 1 91 450 300 (subpatch) 0;
#X array dna2 32 float 3;
#A 0 4 21 6 21 21 21 21 21 21 6 21 21 21 21 21 10 21 21 18 21 21 21
21 21 21 21 21 21 21 21 21 21;
#X coords 0 21 32 0 290 70 1 0 0;
#X restore 105 314 graph;
#X obj 712 -415 -;
#X obj 1037 -317 -;
#X floatatom 1065 -335 5 0 0 0 - - -;
#X obj 1240 -288 -;
#X obj 1535 -313 -;
#X floatatom 1581 -326 5 0 0 0 - - -;
#X floatatom 1265 -306 5 0 0 0 - - -;
#X floatatom 37 349 5 0 0 0 - - -;
#X msg 196 -55 2;
#X floatatom 56 406 5 0 0 0 - - -;
#X msg 246 -50 5;
#X floatatom 26 381 5 0 0 0 - - -;
#X msg 228 -67 80;
#X floatatom 32 458 5 0 0 0 - - -;
#X msg 286 -58 7;
#X obj 232 -100 bng 15 250 50 0 empty empty empty 17 7 0 10 -262144
-1 -1;
#X obj 338 103 bng 15 250 50 0 empty empty preset 17 7 0 10 -262144
-1 -1;
#X obj 108 399 hsl 285 8 0 32 0 0 empty empty empty -2 -8 0 10 -158037
-1 -1 0 1;
#X obj 620 452 * 2;
#X obj 643 -181 clip 0 21;
#X obj 450 -212 clip 0 21;
#X obj 937 -139 clip 0 21;
#X obj 1221 -155 clip 0 21;
#X obj 1520 -137 clip 0 21;
#X msg 292 -373 21;
#X obj 1091 561 route 1;
#X obj 1091 583 bng 15 250 50 0 empty empty empty 17 7 0 10 -262144
-1 -1;
#X floatatom 1091 515 5 0 0 0 - - -;
#X obj 956 524 > 6;
#X obj 925 454 != 21;
#X obj 977 540 &&;
#X obj 1091 538 > 13;
#X obj 1014 513 < 14;
#X obj 78 -241 spigot 1;
#X obj 304 410 tgl 15 0 empty empty lock_phrase 17 7 0 10 -262144 -1
-1 0 1;
#X text 104 410 Length;
#X obj 618 509 == 0;
#X floatatom 581 589 1 0 0 0 - - -;
#X obj 1009 446 - 1;
#X obj 1044 446 * 2;
#X obj 1060 475 - 1;
#X msg 1091 603 3;
#X obj 882 961 pack;
#X obj 882 1018 outlet;
#X text 195 99 PHRASE GEN;
#X obj 973 821 bng 15 250 50 0 empty empty empty 17 7 0 10 -262144
-1 -1;
#X obj 694 530 r tuning_notes;
#X obj 274 -500 gauss;
#X floatatom 276 -470 5 0 0 0 - - -;
#X obj 269 -526 bng 15 250 50 0 empty empty empty 17 7 0 10 -262144
-1 -1;
#X floatatom 291 -532 5 0 0 0 - - -;
#X floatatom 337 -535 5 0 0 0 - - -;
#X obj 461 -352 gauss;
#X obj 764 -326 random 8;
#X obj 713 -449 gauss;
#X obj 1033 -354 gauss;
#X obj 1249 -328 gauss;
#X obj 1530 -351 gauss;
#X obj 885 12 spigot 1;
#X obj 1050 -63 r phrasetoggle;
#X connect 1 0 12 0;
#X connect 2 0 13 0;
#X connect 3 0 37 0;
#X connect 4 0 38 0;
#X connect 9 0 10 0;
#X connect 11 0 291 0;
#X connect 12 0 11 0;
#X connect 13 0 11 0;
#X connect 14 0 15 0;
#X connect 14 0 9 0;
#X connect 14 0 26 0;
#X connect 15 0 9 0;
#X connect 15 0 209 0;
#X connect 15 0 330 0;
#X connect 16 0 37 0;
#X connect 18 0 344 0;
#X connect 18 0 30 0;
#X connect 19 0 20 0;
#X connect 19 1 21 0;
#X connect 19 2 22 0;
#X connect 23 0 25 0;
#X connect 23 0 287 0;
#X connect 25 0 208 0;
#X connect 26 0 17 0;
#X connect 28 0 42 0;
#X connect 29 0 229 0;
#X connect 29 0 360 0;
#X connect 30 0 46 0;
#X connect 30 0 48 0;
#X connect 30 0 47 0;
#X connect 30 0 299 0;
#X connect 30 0 302 0;
#X connect 30 0 342 0;
#X connect 31 0 32 0;
#X connect 32 0 289 0;
#X connect 33 0 34 0;
#X connect 34 0 288 0;
#X connect 35 0 28 0;
#X connect 36 0 39 0;
#X connect 37 0 11 0;
#X connect 38 0 11 0;
#X connect 39 0 35 1;
#X connect 40 0 357 0;
#X connect 40 1 357 1;
#X connect 41 0 43 0;
#X connect 41 0 49 0;
#X connect 42 0 40 0;
#X connect 44 0 159 0;
#X connect 45 0 40 2;
#X connect 46 0 343 0;
#X connect 46 0 347 0;
#X connect 47 0 309 0;
#X connect 48 0 47 0;
#X connect 49 0 45 0;
#X connect 50 0 122 0;
#X connect 50 0 367 0;
#X connect 50 0 368 0;
#X connect 51 0 56 0;
#X connect 51 0 62 0;
#X connect 51 0 335 0;
#X connect 52 0 54 0;
#X connect 53 0 58 0;
#X connect 54 0 59 0;
#X connect 55 0 54 1;
#X connect 56 0 293 1;
#X connect 57 0 62 1;
#X connect 58 0 78 0;
#X connect 58 0 294 1;
#X connect 59 0 60 0;
#X connect 60 0 73 0;
#X connect 60 0 139 0;
#X connect 60 0 369 0;
#X connect 61 0 79 0;
#X connect 61 0 334 0;
#X connect 62 0 61 0;
#X connect 63 0 339 0;
#X connect 63 0 147 0;
#X connect 64 0 124 0;
#X connect 65 0 369 1;
#X connect 66 0 315 1;
#X connect 67 0 68 0;
#X connect 68 0 69 0;
#X connect 69 0 70 0;
#X connect 70 0 90 0;
#X connect 70 0 138 0;
#X connect 70 0 370 0;
#X connect 71 0 68 1;
#X connect 72 0 78 1;
#X connect 73 0 225 0;
#X connect 74 0 73 1;
#X connect 75 0 79 1;
#X connect 76 0 370 1;
#X connect 77 0 94 0;
#X connect 77 0 295 1;
#X connect 78 0 77 0;
#X connect 79 0 80 0;
#X connect 80 0 92 0;
#X connect 80 0 336 0;
#X connect 81 0 112 0;
#X connect 81 0 296 1;
#X connect 82 0 92 1;
#X connect 83 0 371 1;
#X connect 84 0 85 0;
#X connect 85 0 86 0;
#X connect 86 0 87 0;
#X connect 87 0 108 0;
#X connect 87 0 140 0;
#X connect 87 0 371 0;
#X connect 88 0 85 1;
#X connect 89 0 94 1;
#X connect 90 0 226 0;
#X connect 91 0 90 1;
#X connect 92 0 93 0;
#X connect 93 0 110 0;
#X connect 93 0 337 0;
#X connect 94 0 81 0;
#X connect 95 0 293 0;
#X connect 96 0 294 0;
#X connect 97 0 295 0;
#X connect 98 0 296 0;
#X connect 99 0 297 1;
#X connect 100 0 110 1;
#X connect 101 0 372 1;
#X connect 102 0 103 0;
#X connect 103 0 104 0;
#X connect 104 0 105 0;
#X connect 105 0 372 0;
#X connect 106 0 103 1;
#X connect 107 0 112 1;
#X connect 108 0 227 0;
#X connect 109 0 108 1;
#X connect 110 0 111 0;
#X connect 111 0 338 0;
#X connect 112 0 99 0;
#X connect 113 0 297 0;
#X connect 119 0 214 1;
#X connect 120 0 66 0;
#X connect 120 0 322 0;
#X connect 121 0 55 0;
#X connect 121 0 326 0;
#X connect 122 0 52 0;
#X connect 123 0 64 0;
#X connect 123 0 328 0;
#X connect 124 0 368 1;
#X connect 125 0 65 0;
#X connect 125 0 324 0;
#X connect 126 0 317 0;
#X connect 127 0 71 0;
#X connect 128 0 74 0;
#X connect 129 0 76 0;
#X connect 130 0 321 0;
#X connect 131 0 88 0;
#X connect 132 0 91 0;
#X connect 133 0 83 0;
#X connect 134 0 320 0;
#X connect 135 0 106 0;
#X connect 136 0 109 0;
#X connect 137 0 101 0;
#X connect 138 0 84 0;
#X connect 139 0 67 0;
#X connect 140 0 102 0;
#X connect 141 0 348 0;
#X connect 142 0 144 0;
#X connect 142 0 157 0;
#X connect 142 0 292 0;
#X connect 143 0 146 0;
#X connect 146 0 142 1;
#X connect 146 0 145 0;
#X connect 147 0 50 0;
#X connect 148 0 149 0;
#X connect 148 0 150 0;
#X connect 148 0 219 0;
#X connect 149 0 148 1;
#X connect 150 0 142 0;
#X connect 151 0 148 0;
#X connect 152 0 154 0;
#X connect 154 0 11 0;
#X connect 155 0 156 0;
#X connect 159 0 160 0;
#X connect 160 0 40 1;
#X connect 163 0 167 0;
#X connect 167 0 168 0;
#X connect 167 0 181 0;
#X connect 167 0 182 0;
#X connect 168 0 169 0;
#X connect 169 0 170 0;
#X connect 170 0 171 0;
#X connect 170 0 172 0;
#X connect 171 0 184 0;
#X connect 171 0 186 0;
#X connect 173 0 174 0;
#X connect 174 0 175 0;
#X connect 174 0 176 0;
#X connect 175 0 186 0;
#X connect 176 0 184 0;
#X connect 177 0 178 0;
#X connect 178 0 179 0;
#X connect 178 0 180 0;
#X connect 179 0 184 0;
#X connect 180 0 186 0;
#X connect 181 0 173 0;
#X connect 182 0 177 0;
#X connect 183 0 187 0;
#X connect 184 0 183 1;
#X connect 185 0 188 0;
#X connect 186 0 185 1;
#X connect 192 0 367 0;
#X connect 193 0 122 0;
#X connect 194 0 368 0;
#X connect 195 0 369 0;
#X connect 196 0 139 0;
#X connect 197 0 73 0;
#X connect 198 0 370 0;
#X connect 199 0 138 0;
#X connect 200 0 90 0;
#X connect 201 0 371 0;
#X connect 202 0 108 0;
#X connect 203 0 140 0;
#X connect 204 0 372 0;
#X connect 205 0 192 0;
#X connect 205 0 193 0;
#X connect 205 0 194 0;
#X connect 205 0 195 0;
#X connect 205 0 196 0;
#X connect 205 0 197 0;
#X connect 205 0 198 0;
#X connect 205 0 199 0;
#X connect 205 0 200 0;
#X connect 205 0 201 0;
#X connect 205 0 203 0;
#X connect 205 0 202 0;
#X connect 205 0 204 0;
#X connect 206 0 205 0;
#X connect 207 0 208 1;
#X connect 208 0 141 0;
#X connect 209 0 207 0;
#X connect 210 0 290 0;
#X connect 211 0 212 1;
#X connect 212 0 35 0;
#X connect 213 0 367 1;
#X connect 214 0 51 0;
#X connect 215 0 217 0;
#X connect 217 0 11 0;
#X connect 218 0 219 1;
#X connect 219 0 220 0;
#X connect 220 0 222 0;
#X connect 221 0 220 1;
#X connect 222 0 223 0;
#X connect 223 0 141 0;
#X connect 224 0 53 0;
#X connect 225 0 72 0;
#X connect 226 0 89 0;
#X connect 227 0 107 0;
#X connect 228 0 224 1;
#X connect 228 0 225 1;
#X connect 228 0 226 1;
#X connect 228 0 227 1;
#X connect 229 0 212 0;
#X connect 230 0 234 0;
#X connect 231 0 235 0;
#X connect 232 0 236 0;
#X connect 237 0 251 0;
#X connect 237 0 251 1;
#X connect 238 0 259 0;
#X connect 238 0 259 1;
#X connect 239 0 262 0;
#X connect 239 0 262 1;
#X connect 240 0 265 0;
#X connect 243 0 255 0;
#X connect 243 0 255 1;
#X connect 245 0 269 0;
#X connect 245 0 269 1;
#X connect 246 0 272 0;
#X connect 246 0 272 1;
#X connect 247 0 275 0;
#X connect 247 0 275 1;
#X connect 249 0 119 0;
#X connect 250 0 249 0;
#X connect 251 0 252 0;
#X connect 252 0 250 0;
#X connect 253 0 213 0;
#X connect 254 0 253 0;
#X connect 255 0 256 0;
#X connect 256 0 254 0;
#X connect 257 0 126 0;
#X connect 258 0 257 0;
#X connect 259 0 260 0;
#X connect 260 0 258 0;
#X connect 261 0 128 0;
#X connect 262 0 263 0;
#X connect 263 0 281 0;
#X connect 264 0 129 0;
#X connect 265 0 266 0;
#X connect 266 0 283 0;
#X connect 267 0 126 0;
#X connect 268 0 267 0;
#X connect 269 0 270 0;
#X connect 270 0 268 0;
#X connect 271 0 127 0;
#X connect 272 0 273 0;
#X connect 273 0 282 0;
#X connect 274 0 128 0;
#X connect 275 0 276 0;
#X connect 276 0 284 0;
#X connect 281 0 261 0;
#X connect 282 0 271 0;
#X connect 283 0 264 0;
#X connect 284 0 274 0;
#X connect 286 0 29 0;
#X connect 288 0 210 0;
#X connect 289 0 210 0;
#X connect 290 0 211 0;
#X connect 291 0 36 0;
#X connect 292 0 18 0;
#X connect 292 0 189 0;
#X connect 299 0 33 0;
#X connect 300 0 286 0;
#X connect 301 0 373 0;
#X connect 303 0 306 0;
#X connect 304 0 305 0;
#X connect 305 0 307 0;
#X connect 306 0 307 1;
#X connect 307 0 308 0;
#X connect 308 0 309 1;
#X connect 309 0 300 0;
#X connect 310 0 300 1;
#X connect 310 0 299 1;
#X connect 310 0 353 0;
#X connect 310 0 354 0;
#X connect 311 0 290 1;
#X connect 312 0 156 0;
#X connect 315 0 57 0;
#X connect 316 0 75 0;
#X connect 317 0 316 1;
#X connect 318 0 82 0;
#X connect 319 0 100 0;
#X connect 320 0 319 1;
#X connect 321 0 318 1;
#X connect 323 0 120 0;
#X connect 323 0 126 0;
#X connect 323 0 130 0;
#X connect 323 0 134 0;
#X connect 325 0 125 0;
#X connect 325 0 129 0;
#X connect 325 0 133 0;
#X connect 325 0 137 0;
#X connect 327 0 121 0;
#X connect 327 0 127 0;
#X connect 327 0 131 0;
#X connect 327 0 135 0;
#X connect 329 0 123 0;
#X connect 329 0 128 0;
#X connect 329 0 132 0;
#X connect 329 0 136 0;
#X connect 330 0 323 0;
#X connect 330 0 327 0;
#X connect 330 0 325 0;
#X connect 330 0 329 0;
#X connect 331 0 330 0;
#X connect 332 0 333 0;
#X connect 333 0 218 0;
#X connect 334 0 96 0;
#X connect 335 0 95 0;
#X connect 336 0 97 0;
#X connect 337 0 98 0;
#X connect 338 0 113 0;
#X connect 339 0 298 0;
#X connect 340 0 341 0;
#X connect 341 0 356 0;
#X connect 342 0 346 0;
#X connect 343 0 31 0;
#X connect 343 0 345 0;
#X connect 344 0 30 1;
#X connect 345 0 31 0;
#X connect 346 0 340 0;
#X connect 347 0 345 1;
#X connect 348 0 63 0;
#X connect 349 0 351 0;
#X connect 351 0 352 0;
#X connect 352 0 348 1;
#X connect 353 0 343 1;
#X connect 354 0 347 1;
#X connect 354 0 355 0;
#X connect 355 0 346 1;
#X connect 356 0 210 0;
#X connect 357 0 358 0;
#X connect 361 0 291 1;
#X connect 362 0 363 0;
#X connect 364 0 362 0;
#X connect 365 0 362 1;
#X connect 366 0 362 2;
#X connect 367 0 214 0;
#X connect 368 0 224 0;
#X connect 369 0 315 0;
#X connect 370 0 316 0;
#X connect 371 0 318 0;
#X connect 372 0 319 0;
#X connect 373 0 151 0;
#X connect 374 0 373 1;
#X coords 0 -1 1 1 300 380 1 100 100;
#X restore -27 -17 pd treesynth;
