#N canvas 426 375 480 365 10;
#N canvas 1 94 1672 955 drumsynth 0;
#N canvas 590 169 825 607 envelope 0;
#X obj 263 401 line;
#X msg 487 335 1 \$1;
#X msg 261 328 0 \$1;
#X obj 125 167 t b b;
#X obj 267 499 outlet;
#X obj 418 7 inlet attack;
#X obj 534 79 inlet decay;
#X obj 6 33 inlet trigger;
#X obj 273 133 t f f;
#X obj 63 295 f 50;
#X obj 343 265 f 50;
#X obj 155 228 del 50;
#X connect 0 0 4 0;
#X connect 1 0 0 0;
#X connect 2 0 0 0;
#X connect 3 0 11 0;
#X connect 3 1 10 0;
#X connect 5 0 8 0;
#X connect 6 0 9 1;
#X connect 7 0 3 0;
#X connect 8 0 11 1;
#X connect 8 1 10 1;
#X connect 9 0 2 0;
#X connect 10 0 1 0;
#X connect 11 0 9 0;
#X restore 88 729 pd envelope;
#X obj 73 751 *~;
#X obj 89 707 bng 15 250 50 0 empty empty empty 17 7 0 10 -262144 -1
-1;
#X obj 71 798 *~;
#X floatatom 52 705 5 0 0 0 - - -;
#X obj 52 727 osc~;
#X obj 72 774 lop~ 5;
#N canvas 592 168 825 607 envelope 0;
#X obj 263 401 line;
#X msg 487 335 1 \$1;
#X msg 261 328 0 \$1;
#X obj 125 167 t b b;
#X obj 267 499 outlet;
#X obj 418 7 inlet attack;
#X obj 534 79 inlet decay;
#X obj 6 33 inlet trigger;
#X obj 273 133 t f f;
#X obj 63 295 f 50;
#X obj 343 265 f 50;
#X obj 155 228 del 50;
#X connect 0 0 4 0;
#X connect 1 0 0 0;
#X connect 2 0 0 0;
#X connect 3 0 11 0;
#X connect 3 1 10 0;
#X connect 5 0 8 0;
#X connect 6 0 9 1;
#X connect 7 0 3 0;
#X connect 8 0 11 1;
#X connect 8 1 10 1;
#X connect 9 0 2 0;
#X connect 10 0 1 0;
#X connect 11 0 9 0;
#X restore 430 759 pd envelope;
#X obj 431 733 bng 15 250 50 0 empty empty empty 17 7 0 10 -262144
-1 -1;
#X obj 437 681 osc~;
#X obj 392 683 noise~;
#X obj 440 709 *~;
#X obj 392 706 *~;
#X floatatom 437 657 5 0 0 0 - - -;
#X obj 392 731 +~;
#X obj 394 779 *~;
#X obj 394 806 bp~ 5;
#N canvas 592 168 825 607 envelope 0;
#X obj 263 401 line;
#X msg 487 335 1 \$1;
#X msg 261 328 0 \$1;
#X obj 125 167 t b b;
#X obj 267 499 outlet;
#X obj 418 7 inlet attack;
#X obj 534 79 inlet decay;
#X obj 6 33 inlet trigger;
#X obj 273 133 t f f;
#X obj 63 295 f 50;
#X obj 343 265 f 50;
#X obj 155 228 del 50;
#X connect 0 0 4 0;
#X connect 1 0 0 0;
#X connect 2 0 0 0;
#X connect 3 0 11 0;
#X connect 3 1 10 0;
#X connect 5 0 8 0;
#X connect 6 0 9 1;
#X connect 7 0 3 0;
#X connect 8 0 11 1;
#X connect 8 1 10 1;
#X connect 9 0 2 0;
#X connect 10 0 1 0;
#X connect 11 0 9 0;
#X restore 267 757 pd envelope;
#X obj 273 735 bng 15 250 50 0 empty empty empty 17 7 0 10 -262144
-1 -1;
#X obj 264 687 osc~;
#X obj 218 685 noise~;
#X obj 248 714 *~;
#X obj 219 716 *~;
#X obj 242 786 *~;
#X obj 242 812 hip~ 5;
#X obj 100 100 cnv 15 470 345 empty empty empty 20 12 0 14 -233017
-66577 0;
#X obj 121 124 bng 15 250 50 0 empty empty BD 17 7 0 10 -262144 -1
-1;
#X obj 174 124 bng 15 250 50 0 empty empty SD 17 7 0 10 -262144 -1
-1;
#X obj 227 124 bng 15 250 50 0 empty empty HH1 17 7 0 10 -262144 -1
-1;
#X obj 290 122 bng 15 250 50 0 empty empty HH2 17 7 0 10 -262144 -1
-1;
#X obj 359 121 bng 15 250 50 0 empty empty PRC 17 7 0 10 -262144 -1
-1;
#X floatatom 121 142 5 0 0 0 HZ - -;
#X obj 71 822 outlet~;
#X obj 243 838 outlet~;
#X obj 394 830 outlet~;
#X obj 121 281 vsl 20 70 0 2 0 0 empty empty vol 0 -9 0 10 -262144
-1 -1 0 1;
#X floatatom 174 142 5 0 0 0 HZ - -;
#X obj 193 275 vsl 20 70 0 1 0 0 empty empty osc 0 -9 0 10 -262144
-1 -1 0 1;
#X obj 169 275 vsl 20 70 0 1 0 0 empty empty noiz 0 -9 0 10 -262144
-1 -1 0 1;
#X obj 170 185 vsl 20 70 0 127 0 0 empty empty atc 0 -9 0 10 -262144
-1 -1 0 1;
#X obj 194 185 vsl 20 70 0 700 0 0 empty empty dcy 0 -9 0 10 -262144
-1 -1 0 1;
#X obj 165 369 vsl 20 70 5 1500 0 0 empty empty freq 0 -9 0 10 -262144
-1 -1 0 1;
#X obj 225 181 vsl 20 70 0 127 0 0 empty empty atc 0 -9 0 10 -262144
-1 -1 0 1;
#X obj 249 181 vsl 20 70 0 700 0 0 empty empty dcy 0 -9 0 10 -262144
-1 -1 0 1;
#X floatatom 227 142 5 0 0 0 HZ - -;
#X obj 249 275 vsl 20 70 0 1 0 0 empty empty osc 0 -9 0 10 -262144
-1 -1 0 1;
#X obj 224 275 vsl 20 70 0 1 0 0 empty empty noiz 0 -9 0 10 -262144
-1 -1 0 1;
#X obj 224 369 vsl 20 70 0 15000 0 0 empty empty freq 0 -9 0 10 -262144
-1 -1 0 1;
#X obj 248 369 vsl 20 70 15 800 0 0 empty empty q 0 -9 0 10 -262144
-1 -1 0 1;
#X obj 280 183 vsl 20 70 0 127 0 0 empty empty atc 0 -9 0 10 -262144
-1 -1 0 1;
#X obj 304 183 vsl 20 70 0 700 0 0 empty empty dcy 0 -9 0 10 -262144
-1 -1 0 1;
#X floatatom 290 139 5 0 0 0 HZ - -;
#X obj 306 279 vsl 20 70 0 1 0 0 empty empty osc 0 -9 0 10 -262144
-1 -1 0 1;
#X obj 280 279 vsl 20 70 0 1 0 0 empty empty noiz 0 -9 0 10 -262144
-1 -1 0 1;
#X obj 281 367 vsl 20 70 0 15000 0 0 empty empty freq 0 -9 0 10 -262144
-1 -1 0 1;
#X obj 306 367 vsl 20 70 15 800 0 0 empty empty q 0 -9 0 10 -262144
-1 -1 0 1;
#N canvas 592 168 825 607 envelope 0;
#X obj 263 401 line;
#X msg 487 335 1 \$1;
#X msg 261 328 0 \$1;
#X obj 125 167 t b b;
#X obj 267 499 outlet;
#X obj 418 7 inlet attack;
#X obj 534 79 inlet decay;
#X obj 6 33 inlet trigger;
#X obj 273 133 t f f;
#X obj 63 295 f 50;
#X obj 343 265 f 50;
#X obj 155 228 del 50;
#X connect 0 0 4 0;
#X connect 1 0 0 0;
#X connect 2 0 0 0;
#X connect 3 0 11 0;
#X connect 3 1 10 0;
#X connect 5 0 8 0;
#X connect 6 0 9 1;
#X connect 7 0 3 0;
#X connect 8 0 11 1;
#X connect 8 1 10 1;
#X connect 9 0 2 0;
#X connect 10 0 1 0;
#X connect 11 0 9 0;
#X restore 633 749 pd envelope;
#X obj 632 729 bng 15 250 50 0 empty empty empty 17 7 0 10 -262144
-1 -1;
#X obj 611 683 osc~;
#X obj 562 704 noise~;
#X obj 611 707 *~;
#X obj 563 727 *~;
#X floatatom 611 661 5 0 0 0 - - -;
#X obj 597 743 +~;
#X obj 597 766 *~;
#X obj 594 799 bp~ 5;
#X obj 595 824 outlet~;
#X obj 47 -25 inlet;
#X obj 146 -3 inlet;
#X obj 228 -1 inlet;
#X obj 308 1 inlet;
#X obj 379 -15 inlet;
#N canvas 592 168 825 607 envelope 0;
#X obj 263 401 line;
#X msg 487 335 1 \$1;
#X msg 261 328 0 \$1;
#X obj 125 167 t b b;
#X obj 267 499 outlet;
#X obj 418 7 inlet attack;
#X obj 534 79 inlet decay;
#X obj 6 33 inlet trigger;
#X obj 273 133 t f f;
#X obj 63 295 f 50;
#X obj 343 265 f 50;
#X obj 155 228 del 50;
#X connect 0 0 4 0;
#X connect 1 0 0 0;
#X connect 2 0 0 0;
#X connect 3 0 11 0;
#X connect 3 1 10 0;
#X connect 5 0 8 0;
#X connect 6 0 9 1;
#X connect 7 0 3 0;
#X connect 8 0 11 1;
#X connect 8 1 10 1;
#X connect 9 0 2 0;
#X connect 10 0 1 0;
#X connect 11 0 9 0;
#X restore 806 642 pd envelope;
#X obj 791 666 *~;
#X obj 806 621 bng 15 250 50 0 empty empty empty 17 7 0 10 -262144
-1 -1;
#X obj 790 712 *~;
#X obj 792 595 osc~;
#X obj 791 690 lop~ 5;
#X obj 791 734 outlet~;
#X floatatom 359 142 5 0 0 0 N - -;
#X obj 348 186 vsl 20 70 0 127 0 0 empty empty atc 0 -9 0 10 -262144
-1 -1 0 1;
#X obj 372 186 vsl 20 70 0 700 0 0 empty empty dcy 0 -9 0 10 -262144
-1 -1 0 1;
#X obj 361 280 vsl 20 70 0 2 0 0 empty empty vol 0 -9 0 10 -262144
-1 -1 0 1;
#X obj 212 758 *~;
#X obj 239 757 +~;
#X text 210 100 DRUM SYNTH;
#X text 116 155 v;
#X msg 52 681 220 \, \$1 20;
#X obj 112 186 vsl 20 70 0 127 0 0 empty empty atc 0 -9 0 10 -262144
-1 -1 0 1;
#X obj 136 186 vsl 20 70 0 700 0 0 empty empty dcy 0 -9 0 10 -262144
-1 -1 0 1;
#X msg 266 664 220 \, \$1 20;
#X msg 792 567 220 \, \$1 20;
#X floatatom 416 142 5 0 0 0 N - -;
#X obj 403 186 vsl 20 70 0 127 0 0 empty empty atc 0 -9 0 10 -262144
-1 -1 0 1;
#X obj 427 186 vsl 20 70 0 700 0 0 empty empty dcy 0 -9 0 10 -262144
-1 -1 0 1;
#X obj 416 282 vsl 20 70 0 2 0 0 empty empty vol 0 -9 0 10 -262144
-1 -1 0 1;
#X floatatom 475 142 5 0 0 0 N - -;
#X obj 463 186 vsl 20 70 0 127 0 0 empty empty atc 0 -9 0 10 -262144
-1 -1 0 1;
#X obj 487 186 vsl 20 70 0 700 0 0 empty empty dcy 0 -9 0 10 -262144
-1 -1 0 1;
#X obj 476 282 vsl 20 70 0 2 0 0 empty empty vol 0 -9 0 10 -262144
-1 -1 0 1;
#X obj 416 120 bng 15 250 50 0 empty empty PRC 17 7 0 10 -262144 -1
-1;
#X obj 479 -11 inlet;
#X obj 475 120 bng 15 250 50 0 empty empty PRC 17 7 0 10 -262144 -1
-1;
#X obj 574 -9 inlet;
#X obj 532 119 bng 15 250 50 0 empty empty PRC 17 7 0 10 -262144 -1
-1;
#X obj 652 -6 inlet;
#X floatatom 532 144 5 0 0 0 N - -;
#X obj 520 187 vsl 20 70 0 127 0 0 empty empty atc 0 -9 0 10 -262144
-1 -1 0 1;
#X obj 544 187 vsl 20 70 0 700 0 0 empty empty dcy 0 -9 0 10 -262144
-1 -1 0 1;
#X obj 534 283 vsl 20 70 0 2 0 0 empty empty vol 0 -9 0 10 -262144
-1 -1 0 1;
#N canvas 592 168 825 607 envelope 0;
#X obj 263 401 line;
#X msg 487 335 1 \$1;
#X msg 261 328 0 \$1;
#X obj 125 167 t b b;
#X obj 267 499 outlet;
#X obj 418 7 inlet attack;
#X obj 534 79 inlet decay;
#X obj 6 33 inlet trigger;
#X obj 273 133 t f f;
#X obj 63 295 f 50;
#X obj 343 265 f 50;
#X obj 155 228 del 50;
#X connect 0 0 4 0;
#X connect 1 0 0 0;
#X connect 2 0 0 0;
#X connect 3 0 11 0;
#X connect 3 1 10 0;
#X connect 5 0 8 0;
#X connect 6 0 9 1;
#X connect 7 0 3 0;
#X connect 8 0 11 1;
#X connect 8 1 10 1;
#X connect 9 0 2 0;
#X connect 10 0 1 0;
#X connect 11 0 9 0;
#X restore 1012 640 pd envelope;
#X obj 997 664 *~;
#X obj 1012 620 bng 15 250 50 0 empty empty empty 17 7 0 10 -262144
-1 -1;
#X obj 996 710 *~;
#X obj 998 593 osc~;
#X obj 997 688 lop~ 5;
#X obj 997 732 outlet~;
#X msg 998 565 220 \, \$1 20;
#N canvas 592 168 825 607 envelope 0;
#X obj 263 401 line;
#X msg 487 335 1 \$1;
#X msg 261 328 0 \$1;
#X obj 125 167 t b b;
#X obj 267 499 outlet;
#X obj 418 7 inlet attack;
#X obj 534 79 inlet decay;
#X obj 6 33 inlet trigger;
#X obj 273 133 t f f;
#X obj 63 295 f 50;
#X obj 343 265 f 50;
#X obj 155 228 del 50;
#X connect 0 0 4 0;
#X connect 1 0 0 0;
#X connect 2 0 0 0;
#X connect 3 0 11 0;
#X connect 3 1 10 0;
#X connect 5 0 8 0;
#X connect 6 0 9 1;
#X connect 7 0 3 0;
#X connect 8 0 11 1;
#X connect 8 1 10 1;
#X connect 9 0 2 0;
#X connect 10 0 1 0;
#X connect 11 0 9 0;
#X restore 1237 645 pd envelope;
#X obj 1223 669 *~;
#X obj 1237 625 bng 15 250 50 0 empty empty empty 17 7 0 10 -262144
-1 -1;
#X obj 1222 715 *~;
#X obj 1224 598 osc~;
#X obj 1222 693 lop~ 5;
#X obj 1222 737 outlet~;
#X msg 1223 570 220 \, \$1 20;
#N canvas 592 168 825 607 envelope 0;
#X obj 263 401 line;
#X msg 487 335 1 \$1;
#X msg 261 328 0 \$1;
#X obj 125 167 t b b;
#X obj 267 499 outlet;
#X obj 418 7 inlet attack;
#X obj 534 79 inlet decay;
#X obj 6 33 inlet trigger;
#X obj 273 133 t f f;
#X obj 63 295 f 50;
#X obj 343 265 f 50;
#X obj 155 228 del 50;
#X connect 0 0 4 0;
#X connect 1 0 0 0;
#X connect 2 0 0 0;
#X connect 3 0 11 0;
#X connect 3 1 10 0;
#X connect 5 0 8 0;
#X connect 6 0 9 1;
#X connect 7 0 3 0;
#X connect 8 0 11 1;
#X connect 8 1 10 1;
#X connect 9 0 2 0;
#X connect 10 0 1 0;
#X connect 11 0 9 0;
#X restore 1497 634 pd envelope;
#X obj 1482 658 *~;
#X obj 1497 614 bng 15 250 50 0 empty empty empty 17 7 0 10 -262144
-1 -1;
#X obj 1481 704 *~;
#X obj 1483 587 osc~;
#X obj 1482 682 lop~ 5;
#X obj 1482 726 outlet~;
#X msg 1483 559 220 \, \$1 20;
#X obj 844 144 tabread scaler;
#X floatatom 798 102 5 0 0 0 - - -;
#X obj 844 122 mod 7;
#X obj 798 123 / 7;
#X obj 798 144 int;
#X floatatom 844 102 5 0 0 0 - - -;
#X floatatom 798 71 5 0 0 0 - - -;
#X obj 798 167 * 12;
#X obj 801 213 +;
#X floatatom 798 188 5 0 0 0 - - -;
#X floatatom 844 165 5 0 0 0 - - -;
#X obj 824 125 bng 15 250 50 0 empty empty empty 17 7 0 10 -262144
-1 -1;
#X obj 862 224 r tuning_notes;
#X obj 877 63 r scale_notes;
#X floatatom 735 290 5 0 0 0 - - -;
#X floatatom 836 300 5 0 0 0 - - -;
#X obj 735 317 / 12;
#X obj 836 316 mod 12;
#X obj 735 339 int;
#X obj 735 366 tabread octaves;
#X obj 836 341 tabread tuning;
#X floatatom 735 392 5 0 0 0 - - -;
#X floatatom 836 367 5 0 0 0 - - -;
#X obj 803 275 bng 15 250 50 0 empty empty empty 17 7 0 10 -262144
-1 -1;
#X obj 788 441 *;
#X obj 837 402 r basetone;
#X floatatom 821 441 5 0 0 0 - - -;
#X obj 788 478 *;
#X floatatom 788 502 5 0 0 0 - - -;
#X floatatom 801 237 5 0 0 0 - - -;
#X obj 1049 139 tabread scaler;
#X floatatom 1003 97 5 0 0 0 - - -;
#X obj 1049 117 mod 7;
#X obj 1003 118 / 7;
#X obj 1003 139 int;
#X floatatom 1049 97 5 0 0 0 - - -;
#X floatatom 1003 66 5 0 0 0 - - -;
#X obj 1003 162 * 12;
#X obj 1006 208 +;
#X floatatom 1003 183 5 0 0 0 - - -;
#X floatatom 1049 160 5 0 0 0 - - -;
#X obj 1029 120 bng 15 250 50 0 empty empty empty 17 7 0 10 -262144
-1 -1;
#X obj 1067 219 r tuning_notes;
#X obj 1082 58 r scale_notes;
#X floatatom 940 285 5 0 0 0 - - -;
#X floatatom 1041 295 5 0 0 0 - - -;
#X obj 940 312 / 12;
#X obj 1041 311 mod 12;
#X obj 940 334 int;
#X obj 940 361 tabread octaves;
#X obj 1041 336 tabread tuning;
#X floatatom 940 387 5 0 0 0 - - -;
#X floatatom 1041 362 5 0 0 0 - - -;
#X obj 1008 270 bng 15 250 50 0 empty empty empty 17 7 0 10 -262144
-1 -1;
#X obj 993 436 *;
#X obj 1042 397 r basetone;
#X floatatom 1026 436 5 0 0 0 - - -;
#X obj 993 473 *;
#X floatatom 993 497 5 0 0 0 - - -;
#X floatatom 1006 232 5 0 0 0 - - -;
#X obj 1285 147 tabread scaler;
#X floatatom 1239 105 5 0 0 0 - - -;
#X obj 1285 125 mod 7;
#X obj 1239 126 / 7;
#X obj 1239 147 int;
#X floatatom 1285 105 5 0 0 0 - - -;
#X floatatom 1239 74 5 0 0 0 - - -;
#X obj 1239 170 * 12;
#X obj 1242 216 +;
#X floatatom 1239 191 5 0 0 0 - - -;
#X floatatom 1285 168 5 0 0 0 - - -;
#X obj 1265 128 bng 15 250 50 0 empty empty empty 17 7 0 10 -262144
-1 -1;
#X obj 1303 227 r tuning_notes;
#X obj 1318 66 r scale_notes;
#X floatatom 1176 293 5 0 0 0 - - -;
#X floatatom 1277 303 5 0 0 0 - - -;
#X obj 1176 320 / 12;
#X obj 1277 319 mod 12;
#X obj 1176 342 int;
#X obj 1176 369 tabread octaves;
#X obj 1277 344 tabread tuning;
#X floatatom 1176 395 5 0 0 0 - - -;
#X floatatom 1277 370 5 0 0 0 - - -;
#X obj 1244 278 bng 15 250 50 0 empty empty empty 17 7 0 10 -262144
-1 -1;
#X obj 1229 444 *;
#X obj 1278 405 r basetone;
#X floatatom 1262 444 5 0 0 0 - - -;
#X obj 1229 481 *;
#X floatatom 1229 505 5 0 0 0 - - -;
#X floatatom 1242 240 5 0 0 0 - - -;
#X obj 1517 153 tabread scaler;
#X floatatom 1471 111 5 0 0 0 - - -;
#X obj 1517 131 mod 7;
#X obj 1471 132 / 7;
#X obj 1471 153 int;
#X floatatom 1517 111 5 0 0 0 - - -;
#X floatatom 1471 80 5 0 0 0 - - -;
#X obj 1471 176 * 12;
#X obj 1474 222 +;
#X floatatom 1471 197 5 0 0 0 - - -;
#X floatatom 1517 174 5 0 0 0 - - -;
#X obj 1497 134 bng 15 250 50 0 empty empty empty 17 7 0 10 -262144
-1 -1;
#X obj 1535 233 r tuning_notes;
#X obj 1550 72 r scale_notes;
#X floatatom 1408 299 5 0 0 0 - - -;
#X floatatom 1509 309 5 0 0 0 - - -;
#X obj 1408 326 / 12;
#X obj 1509 325 mod 12;
#X obj 1408 348 int;
#X obj 1408 375 tabread octaves;
#X obj 1509 350 tabread tuning;
#X floatatom 1408 401 5 0 0 0 - - -;
#X floatatom 1509 376 5 0 0 0 - - -;
#X obj 1476 284 bng 15 250 50 0 empty empty empty 17 7 0 10 -262144
-1 -1;
#X obj 1461 450 *;
#X obj 1510 411 r basetone;
#X floatatom 1494 450 5 0 0 0 - - -;
#X obj 1461 487 *;
#X floatatom 1461 511 5 0 0 0 - - -;
#X floatatom 1474 246 5 0 0 0 - - -;
#X connect 0 0 1 1;
#X connect 1 0 6 0;
#X connect 2 0 0 0;
#X connect 3 0 32 0;
#X connect 4 0 5 0;
#X connect 5 0 1 0;
#X connect 6 0 3 0;
#X connect 7 0 15 1;
#X connect 8 0 7 0;
#X connect 9 0 11 0;
#X connect 10 0 12 0;
#X connect 11 0 14 1;
#X connect 12 0 14 0;
#X connect 13 0 9 0;
#X connect 14 0 15 0;
#X connect 15 0 16 0;
#X connect 16 0 34 0;
#X connect 17 0 23 1;
#X connect 18 0 17 0;
#X connect 19 0 21 0;
#X connect 20 0 22 0;
#X connect 21 0 83 1;
#X connect 21 0 84 1;
#X connect 22 0 83 0;
#X connect 22 0 84 0;
#X connect 23 0 24 0;
#X connect 24 0 33 0;
#X connect 26 0 2 0;
#X connect 26 0 31 0;
#X connect 27 0 18 0;
#X connect 28 0 8 0;
#X connect 29 0 57 0;
#X connect 30 0 79 0;
#X connect 31 0 87 0;
#X connect 35 0 3 1;
#X connect 36 0 90 0;
#X connect 37 0 21 1;
#X connect 38 0 22 1;
#X connect 39 0 17 1;
#X connect 40 0 17 2;
#X connect 41 0 24 1;
#X connect 42 0 7 1;
#X connect 43 0 7 2;
#X connect 44 0 13 0;
#X connect 45 0 11 1;
#X connect 46 0 12 1;
#X connect 47 0 16 1;
#X connect 48 0 16 2;
#X connect 49 0 56 1;
#X connect 50 0 56 2;
#X connect 51 0 62 0;
#X connect 52 0 60 1;
#X connect 53 0 61 1;
#X connect 54 0 65 1;
#X connect 55 0 65 2;
#X connect 56 0 64 1;
#X connect 57 0 56 0;
#X connect 58 0 60 0;
#X connect 59 0 61 0;
#X connect 60 0 63 1;
#X connect 61 0 63 0;
#X connect 62 0 58 0;
#X connect 63 0 64 0;
#X connect 64 0 65 0;
#X connect 65 0 66 0;
#X connect 67 0 26 0;
#X connect 68 0 27 0;
#X connect 69 0 28 0;
#X connect 70 0 29 0;
#X connect 71 0 30 0;
#X connect 72 0 73 1;
#X connect 73 0 77 0;
#X connect 74 0 72 0;
#X connect 75 0 78 0;
#X connect 76 0 73 0;
#X connect 77 0 75 0;
#X connect 79 0 140 0;
#X connect 80 0 72 1;
#X connect 81 0 72 2;
#X connect 82 0 75 1;
#X connect 83 0 23 0;
#X connect 84 0 23 0;
#X connect 87 0 4 0;
#X connect 88 0 0 1;
#X connect 89 0 0 2;
#X connect 90 0 19 0;
#X connect 91 0 76 0;
#X connect 92 0 170 0;
#X connect 93 0 110 1;
#X connect 94 0 110 2;
#X connect 95 0 113 1;
#X connect 96 0 200 0;
#X connect 97 0 118 1;
#X connect 98 0 118 2;
#X connect 99 0 121 1;
#X connect 100 0 92 0;
#X connect 101 0 100 0;
#X connect 102 0 96 0;
#X connect 103 0 102 0;
#X connect 104 0 106 0;
#X connect 105 0 104 0;
#X connect 106 0 230 0;
#X connect 107 0 126 1;
#X connect 108 0 126 2;
#X connect 109 0 129 1;
#X connect 110 0 111 1;
#X connect 111 0 115 0;
#X connect 112 0 110 0;
#X connect 113 0 116 0;
#X connect 114 0 111 0;
#X connect 115 0 113 0;
#X connect 117 0 114 0;
#X connect 118 0 119 1;
#X connect 119 0 123 0;
#X connect 120 0 118 0;
#X connect 121 0 124 0;
#X connect 122 0 119 0;
#X connect 123 0 121 0;
#X connect 125 0 122 0;
#X connect 126 0 127 1;
#X connect 127 0 131 0;
#X connect 128 0 126 0;
#X connect 129 0 132 0;
#X connect 130 0 127 0;
#X connect 131 0 129 0;
#X connect 133 0 130 0;
#X connect 134 0 144 0;
#X connect 135 0 137 0;
#X connect 136 0 134 0;
#X connect 137 0 138 0;
#X connect 138 0 141 0;
#X connect 139 0 136 0;
#X connect 140 0 135 0;
#X connect 140 0 139 0;
#X connect 140 0 74 0;
#X connect 141 0 143 0;
#X connect 142 0 163 0;
#X connect 143 0 142 1;
#X connect 144 0 142 0;
#X connect 144 0 145 0;
#X connect 145 0 135 0;
#X connect 146 0 141 1;
#X connect 146 0 150 1;
#X connect 146 0 151 1;
#X connect 147 0 137 1;
#X connect 147 0 136 1;
#X connect 148 0 150 0;
#X connect 149 0 151 0;
#X connect 150 0 152 0;
#X connect 151 0 154 0;
#X connect 152 0 153 0;
#X connect 153 0 155 0;
#X connect 154 0 156 0;
#X connect 155 0 158 0;
#X connect 156 0 158 1;
#X connect 156 0 157 0;
#X connect 157 0 148 0;
#X connect 158 0 161 0;
#X connect 159 0 160 0;
#X connect 160 0 161 1;
#X connect 161 0 162 0;
#X connect 162 0 91 0;
#X connect 163 0 148 0;
#X connect 163 0 149 0;
#X connect 164 0 174 0;
#X connect 165 0 167 0;
#X connect 166 0 164 0;
#X connect 167 0 168 0;
#X connect 168 0 171 0;
#X connect 169 0 166 0;
#X connect 170 0 165 0;
#X connect 170 0 169 0;
#X connect 170 0 112 0;
#X connect 171 0 173 0;
#X connect 172 0 193 0;
#X connect 173 0 172 1;
#X connect 174 0 172 0;
#X connect 174 0 175 0;
#X connect 175 0 165 0;
#X connect 176 0 171 1;
#X connect 176 0 180 1;
#X connect 176 0 181 1;
#X connect 177 0 167 1;
#X connect 177 0 166 1;
#X connect 178 0 180 0;
#X connect 179 0 181 0;
#X connect 180 0 182 0;
#X connect 181 0 184 0;
#X connect 182 0 183 0;
#X connect 183 0 185 0;
#X connect 184 0 186 0;
#X connect 185 0 188 0;
#X connect 186 0 188 1;
#X connect 186 0 187 0;
#X connect 187 0 178 0;
#X connect 188 0 191 0;
#X connect 189 0 190 0;
#X connect 190 0 191 1;
#X connect 191 0 192 0;
#X connect 192 0 117 0;
#X connect 193 0 178 0;
#X connect 193 0 179 0;
#X connect 194 0 204 0;
#X connect 195 0 197 0;
#X connect 196 0 194 0;
#X connect 197 0 198 0;
#X connect 198 0 201 0;
#X connect 199 0 196 0;
#X connect 200 0 195 0;
#X connect 200 0 199 0;
#X connect 200 0 120 0;
#X connect 201 0 203 0;
#X connect 202 0 223 0;
#X connect 203 0 202 1;
#X connect 204 0 202 0;
#X connect 204 0 205 0;
#X connect 205 0 195 0;
#X connect 206 0 201 1;
#X connect 206 0 210 1;
#X connect 206 0 211 1;
#X connect 207 0 197 1;
#X connect 207 0 196 1;
#X connect 208 0 210 0;
#X connect 209 0 211 0;
#X connect 210 0 212 0;
#X connect 211 0 214 0;
#X connect 212 0 213 0;
#X connect 213 0 215 0;
#X connect 214 0 216 0;
#X connect 215 0 218 0;
#X connect 216 0 218 1;
#X connect 216 0 217 0;
#X connect 217 0 208 0;
#X connect 218 0 221 0;
#X connect 219 0 220 0;
#X connect 220 0 221 1;
#X connect 221 0 222 0;
#X connect 222 0 125 0;
#X connect 223 0 208 0;
#X connect 223 0 209 0;
#X connect 224 0 234 0;
#X connect 225 0 227 0;
#X connect 226 0 224 0;
#X connect 227 0 228 0;
#X connect 228 0 231 0;
#X connect 229 0 226 0;
#X connect 230 0 225 0;
#X connect 230 0 229 0;
#X connect 230 0 128 0;
#X connect 231 0 233 0;
#X connect 232 0 253 0;
#X connect 233 0 232 1;
#X connect 234 0 232 0;
#X connect 234 0 235 0;
#X connect 235 0 225 0;
#X connect 236 0 231 1;
#X connect 236 0 240 1;
#X connect 236 0 241 1;
#X connect 237 0 227 1;
#X connect 237 0 226 1;
#X connect 238 0 240 0;
#X connect 239 0 241 0;
#X connect 240 0 242 0;
#X connect 241 0 244 0;
#X connect 242 0 243 0;
#X connect 243 0 245 0;
#X connect 244 0 246 0;
#X connect 245 0 248 0;
#X connect 246 0 248 1;
#X connect 246 0 247 0;
#X connect 247 0 238 0;
#X connect 248 0 251 0;
#X connect 249 0 250 0;
#X connect 250 0 251 1;
#X connect 251 0 252 0;
#X connect 252 0 133 0;
#X connect 253 0 238 0;
#X connect 253 0 239 0;
#X coords 0 -1 1 1 475 350 1 100 100;
#X restore -716 -530 pd drumsynth;
