#N canvas 1 83 321 378 10;
#N canvas 1 98 1398 951 metalsynth 0;
#X obj 100 100 cnv 15 300 360 empty empty empty 20 12 0 14 -157782
-66577 0;
#X floatatom 549 1016 5 0 0 0 - - -;
#X floatatom 932 941 5 0 0 0 - - -;
#X obj 516 571 +;
#X floatatom 525 723 5 0 0 0 - - -;
#X floatatom 484 824 5 0 0 0 - - -;
#X floatatom 487 871 5 0 0 0 - - -;
#X obj 542 979 +;
#X floatatom 487 923 5 0 0 0 - - -;
#X floatatom 961 919 5 0 0 0 - - -;
#X obj 532 901 bng 15 250 50 0 empty empty empty 17 7 0 10 -262144
-1 -1;
#X obj 935 849 loadbang;
#X obj 166 139 hsl 128 15 0 300 0 0 empty empty empty -2 -8 0 10 -58944
-1 -1 0 1;
#X obj 164 166 hsl 128 15 0 48 0 0 empty empty empty -2 -8 0 10 -59456
-1 -1 0 1;
#X obj 166 120 hsl 128 15 0 48 0 0 empty empty empty -2 -8 0 10 -58944
-1 -1 0 1;
#X obj -252 928 bng 15 250 50 0 empty empty empty 17 7 0 10 -262144
-1 -1;
#X obj -253 975 sin;
#X obj -249 1008 *;
#X obj -253 953 int;
#X obj -224 952 + 1;
#X floatatom -266 1082 5 0 0 0 - - -;
#X floatatom -306 1019 5 0 0 0 - - -;
#X floatatom -207 1003 5 0 0 0 - - -;
#X obj -249 1031 + 0;
#X obj -249 1052 / 2;
#X obj -147 954 bng 15 250 50 0 empty empty empty 17 7 0 10 -262144
-1 -1;
#X obj -147 931 metro 2;
#X obj -147 995 sin;
#X obj -143 1028 *;
#X msg -182 912 bang;
#X msg -182 934 stop;
#X msg -182 956 0;
#X obj -147 973 int;
#X obj -118 972 + 1;
#X floatatom -112 904 5 0 0 0 - - -;
#X floatatom -160 1102 5 0 0 0 - - -;
#X floatatom -180 1030 5 0 0 0 - - -;
#X floatatom -106 1015 5 0 0 0 - - -;
#X obj -143 1051 + 0;
#X obj -143 1072 / 2;
#X obj -148 1144 int;
#X floatatom -137 1178 5 0 0 0 - - -;
#X obj -258 1110 +;
#X floatatom -247 1154 5 0 0 0 - - -;
#X obj -145 1215 mod 5;
#X floatatom -95 1193 5 0 0 0 - - -;
#X obj 163 192 hsl 128 15 1 20 0 0 empty empty empty -2 -8 0 10 -232803
-1 -1 0 1;
#X obj 163 213 hsl 128 15 3 700 0 0 empty empty empty -2 -8 0 10 -232803
-1 -1 0 1;
#X obj 163 234 hsl 128 15 1 20 0 0 empty empty empty -2 -8 0 10 -232803
-1 -1 0 1;
#X obj 163 255 hsl 128 15 1 20 0 0 empty empty empty -2 -8 0 10 -232803
-1 -1 0 1;
#X obj 129 170 tgl 18 0 empty empty empty 17 7 0 10 -59456 -1 -1 0
1;
#X obj 126 213 tgl 18 0 empty empty empty 17 7 0 10 -232803 -1 -1 0
1;
#X text 304 191 SIN1 RANGE;
#X text 128 151 RND;
#X text 126 192 TRI;
#X text 304 211 SIN2 SPEED;
#X text 304 251 SIN2 MOD PHASE;
#X text 304 231 SIN2 RANGE;
#X floatatom 586 426 5 0 0 0 - - -;
#X floatatom -267 794 5 0 0 0 - - -;
#X obj -182 861 spigot 1;
#X obj 510 466 spigot 1;
#X text -282 687 TRIGONOMETRIC MODULATOR;
#X obj -307 848 == 1;
#X obj -307 871 route 1;
#X obj -258 846 == 0;
#X obj -258 871 route 1;
#X obj -307 894 bng 15 250 50 0 empty empty empty 17 7 0 10 -262144
-1 -1;
#X obj -258 894 bng 15 250 50 0 empty empty empty 17 7 0 10 -262144
-1 -1;
#X obj 484 848 int;
#X obj -240 1187 int;
#X obj -4 1115 +;
#X floatatom -34 1073 5 0 0 0 - - -;
#X obj 115 250 hsl 35 8 -1 1 0 0 empty empty empty -2 -8 0 10 -232803
-1 -1 0 1;
#X text 306 138 NOTE FREQ;
#X text 306 119 NOTE BASE;
#X text 306 166 RND RANGE;
#X obj 115 236 hsl 35 8 -1 1 0 0 empty empty empty -2 -8 0 10 -232803
-1 -1 0 1;
#X obj 115 262 hsl 35 8 0 25 0 0 empty empty empty -2 -8 0 10 -232803
-1 -1 0 1;
#X obj 486 533 random 48;
#X floatatom 568 859 5 0 0 0 - - -;
#X floatatom 544 1044 5 0 0 0 - - -;
#X obj 482 774 0;
#X obj 489 953 + 0;
#X obj 545 1080 makenote 3.2 53;
#X msg 932 897 100;
#X msg 961 897 1;
#X msg 904 897 127;
#X floatatom 181 441 5 0 0 1 note_length - -;
#X obj 113 442 bng 15 250 50 0 empty empty empty 17 7 0 10 -262144
-1 -1;
#X obj 134 442 bng 15 250 50 0 empty empty empty 17 7 0 10 -262144
-1 -1;
#X obj 156 442 bng 15 250 50 0 empty empty empty 17 7 0 10 -262144
-1 -1;
#X floatatom 545 1104 5 0 0 0 - - -;
#X floatatom 632 1112 5 0 0 0 - - -;
#X text 479 76 metro click;
#X floatatom 690 144 5 0 0 0 - - -;
#X obj 503 139 bng 15 250 50 0 empty empty empty 17 7 0 10 -262144
-1 -1;
#X obj 532 237 route 1;
#X obj 557 298 bng 15 250 50 0 empty empty empty 17 7 0 10 -262144
-1 -1;
#X obj 532 216 < 30;
#X obj 376 106 bng 15 250 50 0 empty empty empty 17 7 0 10 -262144
-1 -1;
#X obj 219 1216 outlet~;
#X text 230 1197 audio out;
#X msg 723 354 500;
#X msg 729 398 1000;
#X msg 717 433 1500;
#X obj 532 193 random 100;
#X obj 103 546 hsl 128 15 0 1 0 0 empty empty empty -2 -8 0 10 -228856
-1 -1 0 1;
#X floatatom 413 540 5 1 16 0 - - -;
#X obj 194 753 * 127;
#X obj 569 1191 noteout;
#X floatatom 712 1099 5 0 0 0 - - -;
#X text 687 79 TUNE;
#X obj 568 834 tabread scaler;
#X floatatom 585 815 5 0 0 0 - - -;
#X obj 802 209 r follow;
#X obj 913 220 r brushnote;
#X floatatom 928 255 5 0 0 0 - - -;
#X obj 832 265 tgl 15 0 empty empty empty 17 7 0 10 -262144 -1 -1 0
1;
#X obj 889 338 spigot 1;
#X floatatom 887 384 5 0 0 0 - - -;
#X obj 876 440 spigot 1;
#X floatatom 872 489 5 0 0 0 - - -;
#X floatatom 528 613 5 0 0 0 - - -;
#X obj 853 518 +;
#X obj 854 602 +;
#X obj 888 562 random 48;
#X obj 886 527 bng 15 250 50 0 empty empty empty 17 7 0 10 -262144
-1 -1;
#X obj 742 698 spigot;
#X floatatom 804 669 1 0 0 0 - - -;
#X obj 698 519 == 0;
#X obj 759 519 == 1;
#X obj 698 545 route 1;
#X obj 761 544 route 1;
#X obj 698 568 bng 15 250 50 0 empty empty empty 17 7 0 10 -262144
-1 -1;
#X obj 761 567 bng 15 250 50 0 empty empty empty 17 7 0 10 -262144
-1 -1;
#X msg 674 600 0;
#X msg 708 599 1;
#X msg 753 596 0;
#X msg 788 595 1;
#X obj 494 100 r metro;
#X obj 686 107 r basetone;
#X text 203 99 METAL SYNTH BASS;
#N canvas 155 105 1240 911 thaisynth1 0;
#X obj 101 100 cnv 15 200 160 empty empty empty 20 12 0 14 -10058 -66577
0;
#X floatatom 438 937 5 0 0 0 - - -;
#X floatatom -151 514 5 0 0 0 - - -;
#X obj -56 1157 int;
#X obj -56 1193 tabread octaves;
#X obj -19 1166 *;
#X obj -43 1289 line~;
#X obj -46 1253 pack 0 100;
#X obj -47 1226 *;
#X obj 82 1649 +~;
#X msg 432 908 440;
#X obj 421 874 loadbang;
#X obj 631 1567 *~;
#X floatatom 443 967 5 0 0 0 - - -;
#N canvas 195 222 842 569 envelope 0;
#X obj 115 121 inlet;
#X obj 445 161 inlet;
#X text 111 96 trigger;
#X obj 115 149 sel 0;
#X obj 254 165 t b;
#X obj 176 274 f \$1;
#X obj 176 299 pack 0 \$2;
#X obj 502 161 inlet;
#X obj 448 291 del \$2;
#X obj 468 439 line~;
#X obj 472 314 f \$4;
#X obj 511 389 pack 0 \$3;
#X obj 564 161 inlet;
#X obj 626 161 inlet;
#X obj 699 160 inlet;
#X msg 115 180 stop;
#X obj 622 316 pack 0 \$5;
#X text 445 139 level;
#X obj 511 365 * \$1;
#X obj 468 464 outlet~;
#X text 112 388 and pack with;
#X text 113 408 attack time;
#X text 41 136 if zero;
#X text 42 153 release;
#X text 22 170 and cancel;
#X text 53 187 decay;
#X text 294 282 on attack \, set a;
#X text 288 315 recall sustain value;
#X text 325 388 pack with decay time;
#X text 615 342 on release ramp;
#X text 616 359 back to zero;
#X obj 472 339 * 0.01;
#X text 498 139 attack;
#X text 565 138 decay;
#X text 619 139 sustain;
#X text 696 139 release;
#X text 212 81 attack;
#X obj 214 102 moses;
#X obj 204 132 t b b;
#X msg 138 300 0;
#X text 30 283 optionally;
#X text 20 301 bash to zero;
#X text 35 256 ATTACK:;
#X text 265 99 test for negative trigger;
#X text 263 123 if so \, zero;
#X text 264 139 the output;
#X text 288 175 in any case;
#X text 313 365 multiply by peak level;
#X text 290 296 delay for sustain;
#X text 286 338 convert from percent;
#X text 165 350 ... then;
#X text 113 369 recall peak level;
#X text 449 123 peak;
#X text 291 159 ... do this;
#X connect 0 0 3 0;
#X connect 1 0 5 1;
#X connect 1 0 18 1;
#X connect 3 0 15 0;
#X connect 3 0 16 0;
#X connect 3 1 37 0;
#X connect 4 0 5 0;
#X connect 4 0 8 0;
#X connect 5 0 6 0;
#X connect 6 0 9 0;
#X connect 7 0 6 1;
#X connect 7 0 8 1;
#X connect 8 0 10 0;
#X connect 9 0 19 0;
#X connect 10 0 31 0;
#X connect 11 0 9 0;
#X connect 12 0 11 1;
#X connect 13 0 10 1;
#X connect 14 0 16 1;
#X connect 15 0 8 0;
#X connect 16 0 9 0;
#X connect 18 0 11 0;
#X connect 31 0 18 0;
#X connect 37 0 38 0;
#X connect 37 1 4 0;
#X connect 38 0 4 0;
#X connect 38 1 39 0;
#X connect 39 0 9 0;
#X restore 639 918 pd envelope;
#X floatatom 59 821 5 0 0 0 - - -;
#X floatatom 412 743 5 0 0 0 - - -;
#X obj 391 779 > 0;
#X obj 642 1523 tabread4~ dbtorms;
#X floatatom 600 640 5 0 0 0 - - -;
#X floatatom 637 641 5 0 0 0 - - -;
#X floatatom 678 642 5 0 0 0 - - -;
#X floatatom 714 645 5 0 0 0 - - -;
#X text 680 1635 audio out;
#X obj -192 1431 phasor~;
#X obj 56 856 spigot;
#X obj 312 1407 osc~;
#X obj 24 1415 osc~;
#X obj 23 1438 *~ 100;
#X obj 19 1480 clip~ -1 1;
#N canvas 1140 244 450 300 selektor~ 0;
#X obj 74 39 inlet~;
#X obj 175 36 inlet;
#X obj 97 128 *~ 0;
#X obj 109 233 outlet~;
#X obj 143 86 > 0;
#X connect 0 0 2 0;
#X connect 1 0 4 0;
#X connect 2 0 3 0;
#X connect 4 0 2 1;
#X restore -193 1557 pd selektor~;
#N canvas 1140 244 450 300 selektor~ 0;
#X obj 74 39 inlet~;
#X obj 175 36 inlet;
#X obj 97 128 *~ 0;
#X obj 109 233 outlet~;
#X obj 143 86 > 0;
#X connect 0 0 2 0;
#X connect 1 0 4 0;
#X connect 2 0 3 0;
#X connect 4 0 2 1;
#X restore 45 1582 pd selektor~;
#N canvas 1140 244 450 300 selektor~ 0;
#X obj 74 39 inlet~;
#X obj 175 36 inlet;
#X obj 97 128 *~ 0;
#X obj 109 233 outlet~;
#X obj 143 86 > 0;
#X connect 0 0 2 0;
#X connect 1 0 4 0;
#X connect 2 0 3 0;
#X connect 4 0 2 1;
#X restore 327 1581 pd selektor~;
#X obj 85 1336 line~;
#X obj 85 1313 pack 0 100;
#X obj -133 1432 phasor~;
#X obj 86 1426 osc~;
#X obj 86 1452 *~ 100;
#X obj 90 1481 clip~ -1 1;
#X obj -177 1491 +~;
#X obj 38 1520 +~;
#X obj 337 1552 +~;
#X floatatom -72 290 5 0 0 0 - - -;
#X obj 66 1189 int;
#X obj 66 1212 tabread octaves;
#X obj 109 1192 *;
#X obj 86 1257 *;
#X obj 61 1562 +~;
#X obj 161 1421 osc~;
#X obj 161 1447 *~ 100;
#X obj 165 1475 clip~ -1 1;
#X obj 238 1345 line~;
#X obj 241 1317 pack 0 100;
#X obj 231 1180 int;
#X obj 233 1203 tabread octaves;
#X obj 315 1219 *;
#X obj 243 1249 *;
#X obj -75 1434 phasor~;
#X obj -151 1514 +~;
#X floatatom 451 1288 5 0 0 0 - - -;
#X floatatom 46 1276 5 0 0 0 - - -;
#X floatatom -90 1262 5 0 0 0 - - -;
#X obj -82 29 inlet;
#X text -77 9 NOTE;
#X text 494 37 TUNE;
#X obj 104 180 cnv 15 150 70 empty empty empty 20 12 0 14 -204786 -66577
0;
#X floatatom 561 644 5 0 0 0 - - -;
#X obj 103 105 cnv 15 190 70 empty empty empty 20 12 0 14 -204786 -66577
0;
#X floatatom 783 1030 5 0 0 0 - - -;
#X obj 788 1063 int;
#X floatatom 852 1332 5 0 0 0 - - -;
#X floatatom 914 1330 5 0 0 0 - - -;
#X floatatom 794 1331 5 0 0 0 - - -;
#X floatatom 842 1096 5 0 0 0 - - -;
#X obj 775 1153 == 0;
#X obj 859 1155 == 1;
#X obj 938 1155 == 2;
#X msg 730 1281 1;
#X msg 766 1261 0;
#X obj 761 1221 bng 15 250 50 0 empty empty empty 17 7 0 10 -262144
-1 -1;
#X msg 829 1274 1;
#X msg 868 1271 0;
#X obj 855 1233 bng 15 250 50 0 empty empty empty 17 7 0 10 -262144
-1 -1;
#X msg 923 1272 1;
#X msg 954 1271 0;
#X obj 949 1231 bng 15 250 50 0 empty empty empty 17 7 0 10 -262144
-1 -1;
#X obj 762 1188 route 1;
#X obj 864 1196 route 1;
#X obj 958 1193 route 1;
#X obj 106 111 vradio 16 1 0 3 empty empty empty 0 -8 0 10 -204800
-1 -1 0;
#X text 123 140 SINE;
#X text 124 108 SAW;
#X text 124 125 SQUARE;
#X obj 380 1393 osc~;
#X obj 428 1399 osc~;
#X obj 373 1521 +~;
#X obj 624 1696 outlet~;
#X obj 165 118 vsl 15 50 0 127 0 0 empty empty p 0 -9 0 10 -262144
-1 -1 0 1;
#X obj 694 534 vsl 15 50 0 300 0 1 empty empty attack 0 -8 1 8 -262144
-258699 -1 0 1;
#X obj 715 533 vsl 15 50 0 300 0 1 empty empty decay 0 -8 1 8 -262144
-258699 -1 3800 1;
#X obj 736 533 vsl 15 50 0 120 0 1 empty empty sustain 0 -8 1 8 -262144
-258699 -1 3900 1;
#X obj 762 534 vsl 15 50 0 1500 0 1 empty empty release 0 -8 1 8 -262144
-258699 -1 3700 1;
#X obj 674 534 vsl 15 50 0 120 0 1 empty empty peak 0 -8 1 8 -262144
-258699 -1 3800 1;
#X obj 110 193 hsl 80 15 -2 2 0 0 empty empty detune1 -2 -5 0 10 -204800
-1 -1 3950 1;
#X obj 111 221 hsl 80 15 -2 2 0 0 empty empty detune2 -2 -5 0 10 -204800
-1 -1 3950 1;
#X floatatom 500 93 5 0 0 0 - - -;
#X obj -51 136 unpack 0 1;
#X obj 497 58 r basetune;
#X msg 15 22 0;
#X obj 110 19 loadbang;
#X obj 85 1283 +;
#X obj 244 1290 +;
#X floatatom 145 936 5 0 0 0 - - -;
#X floatatom -14 1064 5 0 0 0 - - -;
#X floatatom 106 1092 5 0 0 0 - - -;
#X floatatom 264 1095 5 0 0 0 - - -;
#X msg 13 71 0;
#X obj 209 208 bng 15 250 50 0 empty empty empty 17 7 0 10 -262144
-1 -1;
#X floatatom 110 749 5 0 0 0 - - -;
#X floatatom 207 757 5 0 0 0 - - -;
#X obj 261 119 vsl 25 50 20 2000 0 0 empty empty empty 0 -9 0 10 -262144
-1 -1 0 1;
#N canvas 592 168 825 607 envelope 0;
#X obj 263 401 line;
#X msg 487 335 1 \$1;
#X msg 261 328 0 \$1;
#X obj 125 167 t b b;
#X obj 267 499 outlet;
#X obj 418 7 inlet attack;
#X obj 534 79 inlet decay;
#X obj 6 33 inlet trigger;
#X obj 273 133 t f f;
#X obj 63 295 f 50;
#X obj 343 265 f 50;
#X obj 155 228 del 50;
#X connect 0 0 4 0;
#X connect 1 0 0 0;
#X connect 2 0 0 0;
#X connect 3 0 11 0;
#X connect 3 1 10 0;
#X connect 5 0 8 0;
#X connect 6 0 9 1;
#X connect 7 0 3 0;
#X connect 8 0 11 1;
#X connect 8 1 10 1;
#X connect 9 0 2 0;
#X connect 10 0 1 0;
#X connect 11 0 9 0;
#X restore 806 817 pd envelope;
#X obj 331 899 bng 15 250 50 0 empty empty empty 17 7 0 10 -262144
-1 -1;
#X obj 601 1615 *~;
#X text 257 101 decay;
#X obj 195 119 vsl 25 50 0 0.5 0 0 empty empty empty 0 -9 0 10 -262144
-1 -1 0 1;
#X text 196 101 vol;
#X obj 617 1658 *~;
#X obj 225 119 vsl 25 50 1 1000 0 0 empty empty empty 0 -9 0 10 -262144
-1 -1 0 1;
#X text 221 101 attack;
#X obj 621 70 inlet bend;
#X floatatom 630 120 5 0 0 0 - - -;
#X obj 315 1189 tabread Gadwal;
#X obj 106 1164 tabread Gadwal;
#X obj -19 1137 tabread Gadwal;
#X obj -8 1109 mod 24;
#X obj -53 1133 / 24;
#X obj 105 1136 mod 24;
#X obj 67 1165 / 24;
#X obj 232 1156 / 24;
#X obj 313 1156 mod 24;
#X connect 1 0 13 0;
#X connect 2 0 7 1;
#X connect 2 0 34 1;
#X connect 2 0 52 1;
#X connect 3 0 4 0;
#X connect 4 0 8 1;
#X connect 5 0 8 0;
#X connect 6 0 24 0;
#X connect 6 0 27 0;
#X connect 6 0 26 0;
#X connect 7 0 6 0;
#X connect 8 0 7 0;
#X connect 8 0 61 0;
#X connect 9 0 12 0;
#X connect 9 0 123 0;
#X connect 10 0 1 0;
#X connect 11 0 10 0;
#X connect 13 0 5 1;
#X connect 13 0 45 1;
#X connect 13 0 55 1;
#X connect 14 0 18 0;
#X connect 15 0 25 0;
#X connect 16 0 17 0;
#X connect 16 0 14 0;
#X connect 17 0 25 1;
#X connect 18 0 12 1;
#X connect 19 0 14 2;
#X connect 20 0 14 3;
#X connect 21 0 14 4;
#X connect 22 0 14 5;
#X connect 24 0 39 0;
#X connect 25 0 112 0;
#X connect 26 0 41 0;
#X connect 27 0 28 0;
#X connect 28 0 29 0;
#X connect 29 0 40 0;
#X connect 30 0 9 0;
#X connect 31 0 9 0;
#X connect 32 0 9 0;
#X connect 33 0 35 0;
#X connect 33 0 36 0;
#X connect 33 0 93 0;
#X connect 34 0 33 0;
#X connect 35 0 39 1;
#X connect 36 0 37 0;
#X connect 37 0 38 0;
#X connect 38 0 40 1;
#X connect 39 0 58 0;
#X connect 40 0 47 0;
#X connect 41 0 32 0;
#X connect 42 0 15 0;
#X connect 43 0 44 0;
#X connect 44 0 46 1;
#X connect 45 0 46 0;
#X connect 46 0 60 0;
#X connect 46 0 110 0;
#X connect 47 0 31 0;
#X connect 48 0 49 0;
#X connect 49 0 50 0;
#X connect 50 0 47 1;
#X connect 51 0 48 0;
#X connect 51 0 57 0;
#X connect 51 0 94 0;
#X connect 52 0 51 0;
#X connect 53 0 54 0;
#X connect 54 0 56 1;
#X connect 55 0 56 0;
#X connect 56 0 59 0;
#X connect 56 0 111 0;
#X connect 57 0 58 1;
#X connect 58 0 30 0;
#X connect 62 0 106 0;
#X connect 66 0 14 1;
#X connect 68 0 69 0;
#X connect 69 0 73 0;
#X connect 70 0 31 1;
#X connect 71 0 32 1;
#X connect 72 0 30 1;
#X connect 73 0 74 0;
#X connect 73 0 75 0;
#X connect 73 0 76 0;
#X connect 74 0 86 0;
#X connect 75 0 87 0;
#X connect 76 0 88 0;
#X connect 77 0 72 0;
#X connect 78 0 70 0;
#X connect 78 0 71 0;
#X connect 79 0 77 0;
#X connect 79 0 78 0;
#X connect 80 0 70 0;
#X connect 81 0 72 0;
#X connect 81 0 71 0;
#X connect 82 0 80 0;
#X connect 82 0 81 0;
#X connect 83 0 71 0;
#X connect 84 0 72 0;
#X connect 84 0 70 0;
#X connect 85 0 83 0;
#X connect 85 0 84 0;
#X connect 86 0 79 0;
#X connect 87 0 82 0;
#X connect 88 0 85 0;
#X connect 89 0 68 0;
#X connect 93 0 95 0;
#X connect 94 0 95 1;
#X connect 95 0 41 1;
#X connect 97 0 2 0;
#X connect 98 0 19 0;
#X connect 99 0 20 0;
#X connect 100 0 21 0;
#X connect 101 0 22 0;
#X connect 102 0 66 0;
#X connect 103 0 118 0;
#X connect 104 0 119 0;
#X connect 105 0 1 0;
#X connect 106 0 42 0;
#X connect 106 1 16 0;
#X connect 107 0 105 0;
#X connect 108 0 97 0;
#X connect 109 0 108 0;
#X connect 109 0 116 0;
#X connect 110 0 34 0;
#X connect 111 0 52 0;
#X connect 112 0 113 0;
#X connect 112 0 114 0;
#X connect 112 0 115 0;
#X connect 112 0 122 0;
#X connect 113 0 135 0;
#X connect 113 0 136 0;
#X connect 114 0 137 0;
#X connect 114 0 138 0;
#X connect 115 0 139 0;
#X connect 115 0 140 0;
#X connect 116 0 103 0;
#X connect 116 0 104 0;
#X connect 117 0 116 0;
#X connect 118 0 110 1;
#X connect 119 0 111 1;
#X connect 120 0 121 2;
#X connect 121 0 123 1;
#X connect 122 0 121 0;
#X connect 123 0 127 0;
#X connect 125 0 127 1;
#X connect 127 0 96 0;
#X connect 128 0 121 1;
#X connect 130 0 131 0;
#X connect 131 0 97 0;
#X connect 132 0 55 0;
#X connect 133 0 45 0;
#X connect 134 0 5 0;
#X connect 135 0 134 0;
#X connect 136 0 3 0;
#X connect 137 0 133 0;
#X connect 138 0 43 0;
#X connect 139 0 53 0;
#X connect 140 0 132 0;
#X coords 0 -1 1 1 200 160 1 100 100;
#X restore 134 278 pd thaisynth1;
#X obj 546 1139 pack 0 1;
#X obj 525 654 +;
#X obj 487 897 * 24;
#X obj 483 800 / 7;
#X obj 568 788 mod 7;
#X connect 1 0 81 0;
#X connect 2 0 84 2;
#X connect 3 0 123 0;
#X connect 4 0 82 0;
#X connect 4 0 148 0;
#X connect 5 0 69 0;
#X connect 6 0 146 0;
#X connect 7 0 1 0;
#X connect 8 0 83 0;
#X connect 10 0 8 0;
#X connect 10 0 80 0;
#X connect 11 0 87 0;
#X connect 11 0 85 0;
#X connect 11 0 86 0;
#X connect 11 0 103 0;
#X connect 12 0 99 1;
#X connect 13 0 79 1;
#X connect 13 0 126 1;
#X connect 14 0 3 1;
#X connect 14 0 124 1;
#X connect 15 0 18 0;
#X connect 16 0 17 0;
#X connect 16 0 21 0;
#X connect 16 0 77 0;
#X connect 17 0 23 0;
#X connect 18 0 19 0;
#X connect 18 0 16 0;
#X connect 19 0 18 1;
#X connect 20 0 42 0;
#X connect 22 0 17 1;
#X connect 22 0 23 1;
#X connect 23 0 24 0;
#X connect 24 0 20 0;
#X connect 25 0 32 0;
#X connect 26 0 25 0;
#X connect 27 0 28 0;
#X connect 27 0 36 0;
#X connect 27 0 73 0;
#X connect 28 0 38 0;
#X connect 29 0 26 0;
#X connect 30 0 26 0;
#X connect 30 0 31 0;
#X connect 31 0 32 0;
#X connect 32 0 33 0;
#X connect 32 0 27 0;
#X connect 33 0 32 1;
#X connect 34 0 26 1;
#X connect 35 0 40 0;
#X connect 37 0 28 1;
#X connect 37 0 38 1;
#X connect 38 0 39 0;
#X connect 39 0 35 0;
#X connect 40 0 41 0;
#X connect 41 0 44 0;
#X connect 42 0 43 0;
#X connect 43 0 70 0;
#X connect 44 0 42 1;
#X connect 45 0 44 1;
#X connect 46 0 22 0;
#X connect 47 0 34 0;
#X connect 48 0 37 0;
#X connect 49 0 45 0;
#X connect 50 0 58 0;
#X connect 51 0 59 0;
#X connect 58 0 61 1;
#X connect 59 0 60 1;
#X connect 59 0 63 0;
#X connect 59 0 65 0;
#X connect 60 0 15 0;
#X connect 61 0 79 0;
#X connect 63 0 64 0;
#X connect 64 0 67 0;
#X connect 65 0 66 0;
#X connect 66 0 68 0;
#X connect 67 0 29 0;
#X connect 68 0 30 0;
#X connect 69 0 6 0;
#X connect 70 0 72 0;
#X connect 71 0 145 0;
#X connect 72 0 71 0;
#X connect 72 0 78 0;
#X connect 79 0 3 0;
#X connect 80 0 7 1;
#X connect 81 0 84 0;
#X connect 82 0 147 0;
#X connect 83 0 7 0;
#X connect 84 0 92 0;
#X connect 84 1 93 0;
#X connect 85 0 2 0;
#X connect 86 0 9 0;
#X connect 88 0 2 0;
#X connect 89 0 103 0;
#X connect 90 0 104 0;
#X connect 91 0 105 0;
#X connect 92 0 144 0;
#X connect 93 0 144 1;
#X connect 96 0 106 0;
#X connect 97 0 98 0;
#X connect 98 0 61 0;
#X connect 98 0 100 0;
#X connect 98 0 60 0;
#X connect 99 0 97 0;
#X connect 99 0 121 1;
#X connect 103 0 88 0;
#X connect 104 0 88 0;
#X connect 105 0 88 0;
#X connect 106 0 99 0;
#X connect 107 0 109 0;
#X connect 108 0 111 0;
#X connect 109 0 84 1;
#X connect 113 0 80 0;
#X connect 115 0 118 0;
#X connect 116 0 117 0;
#X connect 117 0 119 0;
#X connect 118 0 119 1;
#X connect 118 0 130 0;
#X connect 118 0 131 0;
#X connect 119 0 120 0;
#X connect 120 0 121 0;
#X connect 121 0 122 0;
#X connect 122 0 124 0;
#X connect 122 0 127 0;
#X connect 123 0 145 1;
#X connect 124 0 125 0;
#X connect 125 0 128 0;
#X connect 126 0 125 1;
#X connect 127 0 126 0;
#X connect 127 0 14 0;
#X connect 129 0 128 1;
#X connect 130 0 132 0;
#X connect 131 0 133 0;
#X connect 132 0 134 0;
#X connect 133 0 135 0;
#X connect 134 0 136 0;
#X connect 134 0 137 0;
#X connect 135 0 138 0;
#X connect 135 0 139 0;
#X connect 136 0 129 0;
#X connect 139 0 129 0;
#X connect 140 0 96 0;
#X connect 141 0 95 0;
#X connect 143 0 101 0;
#X connect 144 0 143 0;
#X connect 145 0 4 0;
#X connect 146 0 8 0;
#X connect 147 0 5 0;
#X connect 148 0 113 0;
#X connect 148 0 114 0;
#X coords 0 -1 1 1 300 360 1 100 100;
#X restore -280 -215 pd metalsynth;
