#N canvas 910 169 651 611 10;
#X obj -14 211 dac~ 1 2 3 4 5 6 7 8 9 10 11 12 13 14 15 16;
#N canvas 0 83 1680 967 looper 0;
#X obj 100 100 cnv 15 350 450 empty empty empty 20 12 0 14 -163342
-66577 0;
#N canvas 0 0 450 300 (subpatch) 0;
#X array loop 20480 float 2;
#X coords 0 1 20480 -1 220 40 1 0 0;
#X restore 103 117 graph;
#X obj -18 -118 soundfiler;
#X obj 50 -314 openpanel;
#X msg 53 -291 read -resize \$1 loop;
#X obj 142 -141 bng 15 250 50 0 empty empty empty 17 7 0 10 -262144
-1 -1;
#X obj 204 -93 arraysize loop;
#X floatatom 534 49 10 0 0 0 - - -;
#X obj 96 -151 bng 15 250 50 0 empty empty empty 17 7 0 10 -262144
-1 -1;
#X obj 402 -203 delay 200;
#X obj 342 122 vsl 20 40 0 2 0 0 empty empty vol 0 -9 0 10 -2561 -1
-1 0 1;
#X obj 1066 816 *~;
#X obj 606 153 phasor~ 0;
#X floatatom 606 129 5 0 0 0 - - -;
#X obj 606 178 *~ 0;
#X obj 605 203 +~ 1;
#X obj 1045 697 tabread4~ loop;
#X obj 1067 782 hip~ 5;
#X obj 325 122 vsl 15 40 0 500 0 0 empty empty f 0 -9 0 10 -2242 -1
-1 300 1;
#X obj 1045 727 spigot~ 1;
#X obj 1097 755 *~;
#X obj 137 103 bng 15 250 50 0 empty empty load 17 7 0 10 -262144 -1
-1;
#X obj 1254 -195 bng 15 250 50 0 empty empty empty 17 7 0 10 -262144
-1 -1;
#X text 1254 -214 speed;
#X obj 1270 -195 bng 15 250 50 0 empty empty empty 17 7 0 10 -262144
-1 -1;
#X obj 1253 -178 bng 15 250 50 0 empty empty empty 17 7 0 10 -262144
-1 -1;
#X obj 1107 884 outlet~;
#X floatatom 11 168 3 0 0 0 - - -;
#X obj 1270 -178 bng 15 250 50 0 empty empty empty 17 7 0 10 -4034
-1 -1;
#X obj 1073 26 snapshot~;
#X floatatom 1070 55 8 0 0 1 sample_position - -;
#X obj 1073 7 bng 15 250 50 0 empty empty empty 17 7 0 10 -262144 -1
-1;
#X obj 1073 -15 metro 4;
#X obj 1252 -151 tgl 15 0 empty empty scan 17 7 0 10 -262144 -1 -1
0 1;
#X floatatom 1223 -69 5 0 0 1 marigin - -;
#X obj 106 159 hsl 213 8 0 4 0 0 empty empty empty -2 -8 0 10 -2818
-1 -1 13400 1;
#X obj 1288 -186 bng 15 250 50 0 empty empty empty 17 7 0 10 -221249
-1 -1;
#X text 1290 -189 s;
#N canvas 1 83 450 300 (subpatch) 0;
#X array loop2 20480 float 2;
#X coords 0 1 20480 -1 220 40 1 0 0;
#X restore 103 197 graph;
#X obj 106 239 hsl 213 8 0 4 0 0 empty empty empty -2 -8 0 10 -2818
-1 -1 0 1;
#N canvas 0 0 450 300 (subpatch) 0;
#X array loop3 10496 float 2;
#X coords 0 1 10496 -1 220 40 1 0 0;
#X restore 103 289 graph;
#X obj 106 331 hsl 213 8 0 4 0 0 empty empty empty -2 -8 0 10 -2818
-1 -1 0 1;
#N canvas 0 0 450 300 (subpatch) 0;
#X array loop4 1.10262e+06 float 2;
#X coords 0 1 1.10262e+06 -1 220 40 1 0 0;
#X restore 103 380 graph;
#X obj 106 423 hsl 213 8 0 3 0 0 empty empty empty -2 -8 0 10 -2818
-1 -1 0 1;
#N canvas 0 0 450 300 (subpatch) 0;
#X array loop5 97920 float 2;
#X coords 0 1 97920 -1 220 40 1 0 0;
#X restore 105 457 graph;
#X obj 108 496 hsl 213 8 0 4 0 0 empty empty empty -2 -8 0 10 -2818
-1 -1 0 1;
#X obj 343 204 vsl 20 40 0 2 0 0 empty empty vol 0 -9 0 10 -2561 -1
-1 0 1;
#X obj 326 204 vsl 15 40 0 500 0 0 empty empty f 0 -9 0 10 -2242 -1
-1 0 1;
#X obj 1198 809 *~;
#X obj 1199 775 hip~ 5;
#X obj 1177 720 spigot~ 1;
#X obj 1229 748 *~;
#X obj 1177 690 tabread4~ loop2;
#X obj 1311 814 *~;
#X obj 1312 780 hip~ 5;
#X obj 1290 725 spigot~ 1;
#X obj 1342 753 *~;
#X obj 1290 695 tabread4~ loop3;
#X obj 1424 814 *~;
#X obj 1425 780 hip~ 5;
#X obj 1403 725 spigot~ 1;
#X obj 1455 753 *~;
#X obj 1537 819 *~;
#X obj 1538 785 hip~ 5;
#X obj 1516 730 spigot~ 1;
#X obj 1568 758 *~;
#X obj 1516 701 tabread4~ loop5;
#X obj 1200 889 outlet~;
#X obj 1310 885 outlet~;
#X obj 1550 881 outlet~;
#X obj 1420 882 outlet~;
#X obj 733 170 phasor~ 0;
#X floatatom 733 146 5 0 0 0 - - -;
#X obj 733 195 *~ 0;
#X obj 732 220 +~ 1;
#X obj 842 165 phasor~ 0;
#X floatatom 842 141 5 0 0 0 - - -;
#X obj 842 190 *~ 0;
#X obj 841 215 +~ 1;
#X obj 969 182 phasor~ 0;
#X floatatom 969 158 5 0 0 0 - - -;
#X obj 969 207 *~ 0;
#X obj 968 232 +~ 1;
#X obj 1105 181 phasor~ 0;
#X floatatom 1105 157 5 0 0 0 - - -;
#X obj 1105 206 *~ 0;
#X obj 1104 231 +~ 1;
#X obj 344 295 vsl 20 40 0 2 0 0 empty empty vol 0 -9 0 10 -2561 -1
-1 900 1;
#X obj 327 295 vsl 15 40 0 500 0 0 empty empty f 0 -9 0 10 -2242 -1
-1 0 1;
#X obj 342 388 vsl 20 40 0 2 0 0 empty empty vol 0 -9 0 10 -2561 -1
-1 0 1;
#X obj 325 388 vsl 15 40 0 500 0 0 empty empty f 0 -9 0 10 -2242 -1
-1 0 1;
#X obj 348 471 vsl 20 40 0 2 0 0 empty empty vol 0 -9 0 10 -2561 -1
-1 0 1;
#X obj 331 471 vsl 15 40 0 500 0 0 empty empty f 0 -9 0 10 -2242 -1
-1 0 1;
#X obj 144 183 bng 15 250 50 0 empty empty load 17 7 0 10 -262144 -1
-1;
#X obj 145 276 bng 15 250 50 0 empty empty load 17 7 0 10 -262144 -1
-1;
#X obj 145 365 bng 15 250 50 0 empty empty load 17 7 0 10 -262144 -1
-1;
#X obj 148 441 bng 15 250 50 0 empty empty load 17 7 0 10 -262144 -1
-1;
#X msg 215 -274 read -resize \$1 loop2;
#X msg 316 -229 read -resize \$1 loop3;
#X msg 480 -207 read -resize \$1 loop4;
#X msg 643 -192 read -resize \$1 loop5;
#X obj 255 -142 bng 15 250 50 0 empty empty empty 17 7 0 10 -262144
-1 -1;
#X floatatom 669 75 10 0 0 0 - - -;
#X obj 366 -150 bng 15 250 50 0 empty empty empty 17 7 0 10 -262144
-1 -1;
#X floatatom 773 18 10 0 0 0 - - -;
#X obj 470 -153 bng 15 250 50 0 empty empty empty 17 7 0 10 -262144
-1 -1;
#X floatatom 836 -37 10 0 0 0 - - -;
#X obj 600 -160 bng 15 250 50 0 empty empty empty 17 7 0 10 -262144
-1 -1;
#X floatatom 946 -40 10 0 0 0 - - -;
#X obj 311 -95 arraysize loop2;
#X obj 428 -102 arraysize loop3;
#X obj 532 -105 arraysize loop4;
#X obj 665 -110 arraysize loop5;
#X floatatom 246 25 5 0 0 0 - - -;
#X msg 221 -7 range 0 \$1;
#X obj 106 169 hsl 213 8 0 20480 0 0 empty empty empty -2 -8 0 10 -162562
-1 -1 11600 1;
#X obj 106 249 hsl 213 8 0 20480 0 0 empty empty empty -2 -8 0 10 -162562
-1 -1 9200 1;
#X obj 106 341 hsl 213 8 0 10496 0 0 empty empty empty -2 -8 0 10 -162562
-1 -1 10300 1;
#X obj 107 433 hsl 213 8 0 1.10262e+06 0 0 empty empty empty -2 -8
0 10 -162562 -1 -1 3300 1;
#X obj 108 506 hsl 213 8 0 97920 0 0 empty empty empty -2 -8 0 10 -162562
-1 -1 18800 1;
#X msg 335 11 range 0 \$1;
#X msg 434 13 range 0 \$1;
#X msg 539 -6 range 0 \$1;
#X msg 646 -10 range 0 \$1;
#X obj 215 -296 openpanel;
#X obj 317 -251 openpanel;
#X obj 480 -225 openpanel;
#X obj 644 -216 openpanel;
#X floatatom 572 -49 16 0 0 0 - - -;
#X obj 1404 695 tabread4~ loop4;
#X connect 3 0 4 0;
#X connect 4 0 2 0;
#X connect 4 0 8 0;
#X connect 5 0 6 0;
#X connect 6 0 114 0;
#X connect 7 0 14 1;
#X connect 8 0 9 0;
#X connect 9 0 5 0;
#X connect 9 0 101 0;
#X connect 9 0 103 0;
#X connect 9 0 105 0;
#X connect 9 0 107 0;
#X connect 10 0 11 1;
#X connect 11 0 26 0;
#X connect 12 0 14 0;
#X connect 13 0 12 0;
#X connect 14 0 15 0;
#X connect 15 0 16 0;
#X connect 15 0 29 0;
#X connect 16 0 19 0;
#X connect 17 0 11 0;
#X connect 18 0 20 1;
#X connect 19 0 17 0;
#X connect 19 1 20 0;
#X connect 20 0 17 0;
#X connect 21 0 3 0;
#X connect 29 0 30 0;
#X connect 31 0 29 0;
#X connect 32 0 31 0;
#X connect 33 0 32 0;
#X connect 35 0 13 0;
#X connect 39 0 72 0;
#X connect 41 0 76 0;
#X connect 43 0 80 0;
#X connect 45 0 84 0;
#X connect 46 0 48 1;
#X connect 47 0 51 1;
#X connect 48 0 67 0;
#X connect 49 0 48 0;
#X connect 50 0 49 0;
#X connect 50 1 51 0;
#X connect 51 0 49 0;
#X connect 52 0 50 0;
#X connect 53 0 68 0;
#X connect 54 0 53 0;
#X connect 55 0 54 0;
#X connect 55 1 56 0;
#X connect 56 0 54 0;
#X connect 57 0 55 0;
#X connect 58 0 70 0;
#X connect 59 0 58 0;
#X connect 60 0 59 0;
#X connect 60 1 61 0;
#X connect 61 0 59 0;
#X connect 62 0 69 0;
#X connect 63 0 62 0;
#X connect 64 0 63 0;
#X connect 64 1 65 0;
#X connect 65 0 63 0;
#X connect 66 0 64 0;
#X connect 71 0 73 0;
#X connect 72 0 71 0;
#X connect 73 0 74 0;
#X connect 74 0 52 0;
#X connect 75 0 77 0;
#X connect 76 0 75 0;
#X connect 77 0 78 0;
#X connect 78 0 57 0;
#X connect 79 0 81 0;
#X connect 80 0 79 0;
#X connect 81 0 82 0;
#X connect 82 0 129 0;
#X connect 83 0 85 0;
#X connect 84 0 83 0;
#X connect 85 0 86 0;
#X connect 86 0 66 0;
#X connect 87 0 53 1;
#X connect 88 0 56 1;
#X connect 89 0 58 1;
#X connect 90 0 61 1;
#X connect 91 0 62 1;
#X connect 92 0 65 1;
#X connect 93 0 124 0;
#X connect 94 0 125 0;
#X connect 95 0 126 0;
#X connect 96 0 127 0;
#X connect 97 0 2 0;
#X connect 97 0 101 0;
#X connect 98 0 2 0;
#X connect 98 0 103 0;
#X connect 99 0 2 0;
#X connect 99 0 105 0;
#X connect 100 0 2 0;
#X connect 100 0 107 0;
#X connect 101 0 109 0;
#X connect 102 0 73 1;
#X connect 103 0 110 0;
#X connect 104 0 77 1;
#X connect 105 0 111 0;
#X connect 106 0 81 1;
#X connect 107 0 112 0;
#X connect 108 0 85 1;
#X connect 109 0 120 0;
#X connect 110 0 121 0;
#X connect 111 0 122 0;
#X connect 111 0 128 0;
#X connect 112 0 123 0;
#X connect 113 0 7 0;
#X connect 114 0 115 0;
#X connect 115 0 113 0;
#X connect 116 0 102 0;
#X connect 117 0 104 0;
#X connect 118 0 106 0;
#X connect 119 0 108 0;
#X connect 119 0 117 0;
#X connect 120 0 116 0;
#X connect 121 0 117 0;
#X connect 122 0 118 0;
#X connect 123 0 119 0;
#X connect 124 0 97 0;
#X connect 124 0 5 0;
#X connect 125 0 98 0;
#X connect 126 0 99 0;
#X connect 127 0 100 0;
#X connect 129 0 60 0;
#X coords 0 -1 1 1 350 450 1 100 100;
#X restore 4 -189 pd looper;
#N canvas 1011 90 543 523 intrig 0;
#X obj 100 100 cnv 15 150 100 empty empty empty 20 12 0 14 -188481
-66577 0;
#X obj 320 -21 inlet~;
#X obj 346 457 outlet;
#X obj 255 276 bng 15 250 50 0 empty empty empty 17 7 0 10 -262144
-1 -1;
#X obj 106 106 vsl 21 70 0 200 0 0 empty empty empty 0 -9 0 10 -209601
-1 -1 0 1;
#X obj 127 106 vsl 11 70 0 200 0 0 empty empty empty 0 -9 0 10 -209921
-1 -1 6900 1;
#X obj 319 14 fiddle~;
#X floatatom 347 53 5 0 0 0 - - -;
#X floatatom 393 53 5 0 0 0 - - -;
#X floatatom 315 54 5 0 0 0 - - -;
#X floatatom 273 55 5 0 0 0 - - -;
#X obj 61 260 >;
#X obj 61 284 route 1;
#X obj 138 104 tgl 15 0 empty empty empty 17 7 0 10 -197889 -1 -1 0
1;
#X obj 61 308 spigot 1;
#X obj 112 182 bng 15 250 50 0 empty empty empty 17 7 0 10 -259082
-1 -1;
#X obj 143 -2 loadbang;
#X msg 158 32 0;
#X obj 157 106 vsl 21 70 0 200 0 0 empty empty empty 0 -9 0 10 -209601
-1 -1 0 1;
#X obj 178 106 vsl 11 70 0 200 0 0 empty empty empty 0 -9 0 10 -209921
-1 -1 6900 1;
#X obj 126 259 >;
#X obj 126 283 route 1;
#X obj 189 104 tgl 15 0 empty empty empty 17 7 0 10 -197889 -1 -1 0
1;
#X obj 126 307 spigot 1;
#X obj 163 182 bng 15 250 50 0 empty empty empty 17 7 0 10 -259082
-1 -1;
#X obj 322 200 delay;
#X floatatom 211 134 3 15 500 1 - - -;
#X obj 301 361 spigot;
#X msg 346 302 1;
#X msg 381 301 0;
#X obj 352 336 tgl 15 0 empty empty empty 17 7 0 10 -262144 -1 -1 0
1;
#X obj 290 276 delay 1;
#X obj 328 421 bng 15 250 50 0 empty empty empty 17 7 0 10 -262144
-1 -1;
#X obj 209 157 bng 25 250 50 0 empty empty empty 17 7 0 10 -259082
-1 -1;
#X text 208 115 Valve;
#X msg 199 42 50;
#X msg 112 33 200;
#N canvas 0 83 1680 967 valve 0;
#X obj 356 467 outlet;
#X obj 265 286 bng 15 250 50 0 empty empty empty 17 7 0 10 -262144
-1 -1;
#X obj 332 210 delay;
#X obj 311 371 spigot;
#X msg 356 312 1;
#X msg 391 311 0;
#X obj 362 346 tgl 15 0 empty empty empty 17 7 0 10 -262144 -1 -1 0
1;
#X obj 300 286 delay 1;
#X obj 338 431 bng 15 250 50 0 empty empty empty 17 7 0 10 -262144
-1 -1;
#X obj 215 137 inlet;
#X obj 380 141 inlet;
#X connect 1 0 3 0;
#X connect 1 0 7 0;
#X connect 1 0 2 0;
#X connect 2 0 4 0;
#X connect 3 0 8 0;
#X connect 4 0 6 0;
#X connect 5 0 6 0;
#X connect 6 0 3 1;
#X connect 7 0 5 0;
#X connect 8 0 0 0;
#X connect 9 0 1 0;
#X connect 10 0 2 1;
#X restore 416 177 pd valve;
#X connect 1 0 6 0;
#X connect 3 0 27 0;
#X connect 3 0 31 0;
#X connect 3 0 25 0;
#X connect 4 0 11 0;
#X connect 5 0 11 1;
#X connect 6 0 10 0;
#X connect 6 1 9 0;
#X connect 6 2 7 0;
#X connect 6 3 8 0;
#X connect 7 0 4 0;
#X connect 8 0 18 0;
#X connect 11 0 12 0;
#X connect 12 0 14 0;
#X connect 13 0 14 1;
#X connect 14 0 15 0;
#X connect 15 0 3 0;
#X connect 16 0 17 0;
#X connect 16 0 35 0;
#X connect 16 0 36 0;
#X connect 17 0 13 0;
#X connect 17 0 22 0;
#X connect 18 0 20 0;
#X connect 19 0 20 1;
#X connect 20 0 21 0;
#X connect 21 0 23 0;
#X connect 22 0 23 1;
#X connect 23 0 24 0;
#X connect 24 0 3 0;
#X connect 25 0 28 0;
#X connect 26 0 25 1;
#X connect 26 0 37 1;
#X connect 27 0 32 0;
#X connect 28 0 30 0;
#X connect 29 0 30 0;
#X connect 30 0 27 1;
#X connect 31 0 29 0;
#X connect 32 0 2 0;
#X connect 32 0 33 0;
#X connect 35 0 26 0;
#X connect 36 0 5 0;
#X connect 36 0 19 0;
#X coords 0 -1 1 1 150 100 1 100 100;
#X restore 51 280 pd intrig;
#X obj 26 237 s metro;
#X obj 119 241 s metro2;
#X obj 239 240 s metro3;
#X connect 1 0 0 5;
#X connect 1 1 0 6;
#X connect 1 2 0 7;
#X connect 1 3 0 8;
#X connect 1 4 0 9;
