#N canvas 13 568 389 442 10;
#N canvas 123 90 1148 673 tetter 0;
#X obj 100 100 cnv 15 370 430 empty empty empty 20 12 0 14 -86277 -66577
0;
#X obj -38 217 until;
#X msg -162 403 \; tuning resize \$1;
#X msg -38 195 \$1;
#X floatatom -38 172 5 0 0 0 - - -;
#X obj -38 257 int;
#X obj -13 257 + 1;
#X obj -38 238 bng 15 250 50 0 empty empty empty 17 7 0 10 -262144
-1 -1;
#X floatatom 49 274 5 0 0 0 - - -;
#X msg 35 240 0;
#X obj 35 117 bng 15 250 50 0 empty empty empty 17 7 0 10 -262144 -1
-1;
#X floatatom -38 101 5 0 0 0 - - -;
#X obj -38 420 tabwrite tuning;
#X msg -277 359 \; scaler resize \$1;
#X floatatom -277 335 5 0 0 0 - - -;
#X floatatom -38 274 5 0 0 0 - - -;
#X obj -23 331 /;
#X msg -23 305 1;
#X floatatom -23 354 5 0 0 0 - - -;
#X obj -38 380 *;
#X obj -38 400 + 1;
#X obj -38 151 pipe 5;
#X obj 239 133 cnv 15 100 300 empty empty empty 20 12 0 14 -114949
-66577 0;
#N canvas 66 87 450 300 (subpatch) 0;
#X array tuning 20 float 3;
#A 0 1 1.05 1.1 1.15 1.2 1.25 1.3 1.35 1.4 1.45 1.5 1.55 1.6 1.65 1.7
1.75 1.8 1.85 1.9 1.95;
#X coords 0 2 20 1 100 300 1 0 0;
#X restore 239 132 graph;
#X obj 220 133 vsl 16 300 5 52 0 0 empty empty empty 0 -9 0 10 -143621
-1 -1 0 1;
#X text 117 101 TET MAKER;
#X obj 220 58 int;
#X floatatom 220 113 2 5 52 0 TET - -;
#X obj 239 447 cnv 15 100 40 empty empty empty 20 12 0 14 -114949 -66577
0;
#N canvas 0 0 450 300 (subpatch) 0;
#X array scaler 6 float 3;
#A 0 0 4 8 10 14 0;
#X coords 0 52 6 0 100 40 1 0 0;
#X restore 238 447 graph;
#X obj -7 34 bng 15 250 50 0 empty empty empty 17 7 0 10 -262144 -1
-1;
#X obj 106 151 vradio 15 1 0 5 empty empty empty 0 -8 0 10 -143621
-1 -1 1;
#X text 122 148 Pentatonic;
#X text 122 179 Diatonic;
#X text 122 163 Hexatonic;
#X text 122 209 Enneatonic;
#X text 122 194 Octatonic;
#X obj 106 228 bng 15 250 50 0 empty empty Chromatic 17 7 0 10 -180485
-1 -1;
#X floatatom 107 245 2 0 0 1 scale_notes - -;
#X obj 342 111 vradio 16 1 0 20 empty empty empty 0 -8 0 10 -188677
-1 -1 19;
#X obj 356 111 vradio 16 1 0 20 empty empty empty 0 -8 0 10 -217349
-1 -1 15;
#X obj 370 111 vradio 16 1 0 20 empty empty empty 0 -8 0 10 -188677
-1 -1 11;
#X obj 384 111 vradio 16 1 0 20 empty empty empty 0 -8 0 10 -217349
-1 -1 9;
#X obj 398 111 vradio 16 1 0 20 empty empty empty 0 -8 0 10 -188677
-1 -1 5;
#X obj 412 111 vradio 16 1 0 20 empty empty empty 0 -8 0 10 -217349
-1 -1 1;
#X obj 426 111 vradio 16 1 0 20 empty empty empty 0 -8 0 10 -188677
-1 -1 19;
#X obj 440 111 vradio 16 1 0 20 empty empty empty 0 -8 0 10 -217349
-1 -1 19;
#X obj 454 111 vradio 16 1 0 20 empty empty empty 0 -8 0 10 -188677
-1 -1 19;
#X floatatom 480 -58 2 5 52 0 - - -;
#X msg 347 18 number \$1;
#X msg 460 40 size \$1;
#X floatatom 460 20 5 0 0 0 - - -;
#X msg 681 -13 8;
#X msg 652 -13 9;
#X msg 624 -12 10;
#X msg 596 -12 11;
#X msg 568 -12 12;
#X msg 540 -12 13;
#X msg 512 -12 14;
#X msg 486 -12 15;
#X msg 460 -12 16;
#X obj 480 -35 route 25 27 28 30 33 35 38 42 47;
#X msg -205 124 5;
#X msg -178 124 6;
#X msg -152 124 7;
#X msg -125 124 8;
#X msg -96 125 9;
#X obj -205 95 route 0 1 2 3 4;
#X floatatom -173 163 5 0 0 0 - - -;
#X obj -228 246 s scale_notes;
#X floatatom -105 194 5 0 0 0 - - -;
#X obj -230 273 s tuning_notes;
#X obj 545 239 tabwrite scaler;
#X msg 640 239 0;
#X floatatom 545 223 5 0 0 0 - - -;
#X obj 318 112 bng 15 250 50 0 empty empty empty 17 7 0 10 -258113
-1 -1;
#X text 320 110 R;
#X obj 545 183 -;
#X floatatom 639 53 5 0 0 0 - - -;
#X msg 639 94 \$1;
#X obj 560 141 r tuning_notes;
#X obj 560 162 - 1;
#X obj 639 30 r tuning_notes;
#X obj 545 203 abs;
#X obj 548 358 tabwrite scaler;
#X floatatom 548 342 5 0 0 0 - - -;
#X obj 548 302 -;
#X obj 563 260 r tuning_notes;
#X obj 563 281 - 1;
#X obj 548 322 abs;
#X obj 548 479 tabwrite scaler;
#X floatatom 548 463 5 0 0 0 - - -;
#X obj 548 423 -;
#X obj 563 381 r tuning_notes;
#X obj 563 402 - 1;
#X obj 548 443 abs;
#X obj 551 598 tabwrite scaler;
#X floatatom 551 582 5 0 0 0 - - -;
#X obj 551 542 -;
#X obj 566 500 r tuning_notes;
#X obj 566 521 - 1;
#X obj 551 562 abs;
#X obj 674 238 tabwrite scaler;
#X floatatom 674 222 5 0 0 0 - - -;
#X obj 674 182 -;
#X obj 689 140 r tuning_notes;
#X obj 689 161 - 1;
#X obj 674 202 abs;
#X obj 677 357 tabwrite scaler;
#X floatatom 677 341 5 0 0 0 - - -;
#X obj 677 301 -;
#X obj 692 259 r tuning_notes;
#X obj 692 280 - 1;
#X obj 677 321 abs;
#X obj 677 478 tabwrite scaler;
#X floatatom 677 462 5 0 0 0 - - -;
#X obj 677 422 -;
#X obj 692 380 r tuning_notes;
#X obj 692 401 - 1;
#X obj 677 442 abs;
#X obj 680 597 tabwrite scaler;
#X floatatom 680 581 5 0 0 0 - - -;
#X obj 680 541 -;
#X obj 695 499 r tuning_notes;
#X obj 695 520 - 1;
#X obj 680 561 abs;
#X obj 681 718 tabwrite scaler;
#X floatatom 681 702 5 0 0 0 - - -;
#X obj 681 662 -;
#X obj 696 620 r tuning_notes;
#X obj 696 641 - 1;
#X obj 681 682 abs;
#X msg 643 358 1;
#X msg 643 479 2;
#X msg 646 598 3;
#X msg 769 238 4;
#X msg 772 357 5;
#X msg 772 478 6;
#X msg 775 597 7;
#X msg 776 718 8;
#X floatatom 123 510 3 0 0 1 basetone - -;
#X obj 106 511 bng 15 250 50 0 empty empty empty 17 7 0 10 -192577
-1 -1;
#X obj 104 330 vradio 12 1 0 9 empty empty empty 0 -8 0 10 -139265
-1 -1 4;
#X obj 116 330 vradio 12 1 0 9 empty empty empty 0 -8 0 10 -180225
-1 -1 4;
#X obj 128 330 vradio 12 1 0 9 empty empty empty 0 -8 0 10 -139265
-1 -1 4;
#X obj 140 330 vradio 12 1 0 9 empty empty empty 0 -8 0 10 -180225
-1 -1 4;
#X obj 152 330 vradio 12 1 0 9 empty empty empty 0 -8 0 10 -139265
-1 -1 4;
#X obj 164 330 vradio 12 1 0 9 empty empty empty 0 -8 0 10 -180225
-1 -1 4;
#X obj 176 330 vradio 12 1 0 9 empty empty empty 0 -8 0 10 -139265
-1 -1 4;
#X obj 188 330 vradio 12 1 0 9 empty empty empty 0 -8 0 10 -180225
-1 -1 4;
#X obj 104 319 hradio 12 1 0 8 empty empty empty 0 -8 0 10 -184385
-1 -1 0;
#X floatatom 213 581 5 0 0 0 - - -;
#X floatatom 119 303 2 0 0 1 step - -;
#X obj 104 303 tgl 15 0 empty empty empty 17 7 0 10 -180289 -1 -1 1
1;
#X obj -122 467 r metro;
#X obj -122 491 bng 15 250 50 0 empty empty empty 17 7 0 10 -262144
-1 -1;
#X obj -122 512 spigot;
#X obj 64 -86 loadbang;
#X msg 37 -50 1;
#X msg 89 -50 440;
#X obj -122 536 int;
#X obj -96 537 + 1;
#X obj -118 559 mod;
#X obj -122 587 == 0;
#X obj -122 610 route 1;
#X obj -122 631 int;
#X obj -96 631 + 1;
#X obj -122 654 mod 8;
#X msg 63 -50 16;
#X msg 106 535 440;
#X obj -122 676 route 0 1 2 3 4 5 6 7;
#X obj -122 699 bng 15 250 50 0 empty empty empty 17 7 0 10 -262144
-1 -1;
#X obj -104 699 bng 15 250 50 0 empty empty empty 17 7 0 10 -262144
-1 -1;
#X obj -87 699 bng 15 250 50 0 empty empty empty 17 7 0 10 -262144
-1 -1;
#X obj -69 699 bng 15 250 50 0 empty empty empty 17 7 0 10 -262144
-1 -1;
#X obj -52 699 bng 15 250 50 0 empty empty empty 17 7 0 10 -262144
-1 -1;
#X obj -3 698 bng 15 250 50 0 empty empty empty 17 7 0 10 -262144 -1
-1;
#X obj -36 700 bng 15 250 50 0 empty empty empty 17 7 0 10 -262144
-1 -1;
#X obj -18 700 bng 15 250 50 0 empty empty empty 17 7 0 10 -262144
-1 -1;
#X msg 66 313 4;
#X obj -169 489 r stop;
#X msg -169 512 0;
#X obj 213 603 - 4;
#X floatatom 213 627 5 0 0 0 - - -;
#X msg 184 630 1;
#X obj 206 654 -;
#X obj 206 675 - 1;
#X floatatom 205 705 5 0 0 0 - - -;
#X obj 105 441 tgl 15 0 empty empty scalermod 17 7 0 10 -208961 -1
-1 0 1;
#X text 131 281 Modulation;
#X text 123 130 Tonality;
#X text 107 149 5;
#X text 107 164 6;
#X text 108 179 7;
#X text 107 193 8;
#X text 108 208 9;
#X text 207 375 0;
#X text 201 362 +1;
#X text 201 350 +2;
#X text 201 338 +3;
#X text 201 326 +4;
#X text 201 385 -1;
#X text 201 398 -2;
#X text 201 410 -3;
#X text 201 421 -4;
#X obj 205 732 moses 0;
#X floatatom 190 764 5 0 0 0 - - -;
#X floatatom 252 760 5 0 0 0 - - -;
#X obj 105 459 tgl 15 0 empty empty tuningmod 17 7 0 10 -208961 -1
-1 1 1;
#X msg 116 -50 0;
#X msg 143 -50 1;
#X obj 286 913 tabread tuning;
#X floatatom 127 763 5 0 0 0 - - -;
#X obj 102 713 r tuning_notes;
#X obj 190 805 +;
#X floatatom 190 830 5 0 0 0 - - -;
#X obj 125 737 bng 15 250 50 0 empty empty empty 17 7 0 10 -262144
-1 -1;
#X floatatom 350 820 5 0 0 0 - - -;
#X msg 190 857 2;
#X msg 219 858 1;
#X obj 252 1000 /;
#X obj 252 972 *;
#X floatatom 191 895 5 0 0 0 - - -;
#X floatatom 252 1031 5 0 0 0 - - -;
#X obj 144 867 bng 15 250 50 0 empty empty empty 17 7 0 10 -262144
-1 -1;
#X obj 252 1062 s basetone;
#X floatatom 200 510 4 0 0 1 result - -;
#X obj 392 914 tabread tuning;
#X obj 392 892 tabread scaler;
#X obj 286 886 spigot 1;
#X obj 392 870 spigot 1;
#X obj 332 1056 s basetonesource;
#X obj 639 74 - 1;
#N canvas 0 0 450 300 (subpatch) 0;
#X array octaves 9 float 1;
#A 0 0.0625 0.125 0.25 0.5 1 2 4 8 17;
#X coords 0 32 8 -1 100 32 1;
#X restore 508 -525 graph;
#N canvas 0 0 450 300 (subpatch) 0;
#X array dbtorms 123 float 1;
#A 0 0 0 1.25893e-05 1.41254e-05 1.58489e-05 1.77828e-05 1.99526e-05
2.23872e-05 2.51189e-05 2.81838e-05 3.16228e-05 3.54813e-05 3.98107e-05
4.46684e-05 5.01187e-05 5.62341e-05 6.30957e-05 7.07946e-05 7.94328e-05
8.91251e-05 0.0001 0.000112202 0.000125893 0.000141254 0.000158489
0.000177828 0.000199526 0.000223872 0.000251189 0.000281838 0.000316228
0.000354813 0.000398107 0.000446684 0.000501187 0.000562341 0.000630957
0.000707946 0.000794328 0.000891251 0.001 0.00112202 0.00125893 0.00141254
0.00158489 0.00177828 0.00199526 0.00223872 0.00251189 0.00281838 0.00316228
0.00354813 0.00398107 0.00446684 0.00501187 0.00562341 0.00630957 0.00707946
0.00794328 0.00891251 0.01 0.0112202 0.0125893 0.0141254 0.0158489
0.0177828 0.0199526 0.0223872 0.0251189 0.0281838 0.0316228 0.0354813
0.0398107 0.0446684 0.0501187 0.0562341 0.0630957 0.0707946 0.0794328
0.0891251 0.1 0.112202 0.125893 0.141254 0.158489 0.177828 0.199526
0.223872 0.251189 0.281838 0.316228 0.354813 0.398107 0.446684 0.501187
0.562341 0.630957 0.707946 0.794328 0.891251 1 1.12202 1.25893 1.41254
1.58489 1.77828 1.99526 2.23872 2.51189 2.81838 3.16228 3.54813 3.98107
4.46684 5.01187 5.62341 6.30957 7.07946 7.94328 8.91251 10 11.2202
12.5893;
#X coords 0 10 123 0 200 100 1;
#X restore 524 -458 graph;
#N canvas 0 0 450 300 (subpatch) 0;
#X array vibrato 131 float 1;
#A 0 0.970031 1 0.970031 0.881921 0.740952 0.555571 0.336891 0.0980184
-0.146729 -0.382682 -0.595698 -0.773009 -0.88 -0.9 -0.92 -0.92 -0.85773
-0.707109 -0.514106 -0.290288 -0.0490716 0.195086 0.427551 0.63439
0.803205 0.86 0.88 0.88 0.88 0.84 0.82 0.471402 0.242986 6.63397e-06
-0.242974 -0.471391 -0.671554 -0.831465 -0.941541 -0.995184 -0.989178
-0.923883 -0.803213 -0.68 -0.42 -0.24 0.1 0.4 0.6 0.7071 0.857723 0.956937
0.998795 0.980787 0.903994 0.773018 0.595708 0.382694 0.146742 -0.0980052
-0.336878 -0.55556 -0.7 -0.8 -0.88 -0.88 -0.88 -0.84 -0.82 -0.555582
-0.336903 -0.0980316 0.146716 0.38267 0.595687 0.773001 0.903983 0.980782
0.998796 0.956945 0.857737 0.707119 0.514117 0.290301 0.0490849 -0.195073
-0.427539 -0.63438 -0.803197 -0.923873 -0.989174 -0.995187 -0.94155
-0.83148 -0.671573 -0.471414 -0.242999 -1.99019e-05 0.242961 0.471379
0.671544 0.831458 0.88 0.9 0.9 0.88 0.803221 0.63441 0.08 -0.14 -0.28
-0.48 -0.64 -0.72 -0.857717 -0.956933 -0.998794 -0.98079 -0.904 -0.773026
-0.595719 -0.382706 -0.146755 0.097992 0.336866 0.555549 0.740934 0.881909
0.970025 1 0.970038;
#X coords 0 1 130 -1 200 100 1 0 0;
#X restore 308 -463 graph;
#X floatatom 221 491 2 0 0 0 - - -;
#X floatatom 236 491 2 0 0 0 - - -;
#X floatatom 251 491 2 0 0 0 - - -;
#X floatatom 266 491 2 0 0 0 - - -;
#X floatatom 281 491 2 0 0 0 - - -;
#X floatatom 296 491 2 0 0 0 - - -;
#X floatatom 311 491 2 0 0 0 - - -;
#X floatatom 325 491 2 0 0 0 - - -;
#X floatatom 340 491 2 0 0 0 - - -;
#X msg 307 637 list 0 4 8 10 14 18 0 0 0;
#X text 310 622 20TET Hextaonic;
#X connect 1 0 7 0;
#X connect 3 0 1 0;
#X connect 4 0 3 0;
#X connect 4 0 2 0;
#X connect 4 0 70 0;
#X connect 5 0 6 0;
#X connect 5 0 8 0;
#X connect 5 0 15 0;
#X connect 6 0 5 1;
#X connect 7 0 5 0;
#X connect 8 0 12 1;
#X connect 9 0 5 0;
#X connect 10 0 9 0;
#X connect 11 0 10 0;
#X connect 11 0 16 1;
#X connect 11 0 17 0;
#X connect 11 0 21 0;
#X connect 11 0 48 0;
#X connect 14 0 13 0;
#X connect 15 0 19 0;
#X connect 16 0 18 0;
#X connect 17 0 16 0;
#X connect 18 0 19 1;
#X connect 19 0 20 0;
#X connect 20 0 12 0;
#X connect 21 0 4 0;
#X connect 24 0 26 0;
#X connect 26 0 27 0;
#X connect 27 0 11 0;
#X connect 30 0 11 0;
#X connect 31 0 67 0;
#X connect 37 0 70 0;
#X connect 39 0 77 0;
#X connect 40 0 86 0;
#X connect 41 0 92 0;
#X connect 42 0 98 0;
#X connect 43 0 104 0;
#X connect 44 0 110 0;
#X connect 45 0 116 0;
#X connect 46 0 122 0;
#X connect 47 0 128 0;
#X connect 48 0 49 0;
#X connect 48 0 61 0;
#X connect 49 0 39 0;
#X connect 49 0 40 0;
#X connect 49 0 41 0;
#X connect 49 0 42 0;
#X connect 49 0 43 0;
#X connect 49 0 44 0;
#X connect 49 0 45 0;
#X connect 49 0 46 0;
#X connect 49 0 47 0;
#X connect 50 0 39 0;
#X connect 50 0 40 0;
#X connect 50 0 41 0;
#X connect 50 0 42 0;
#X connect 50 0 43 0;
#X connect 50 0 44 0;
#X connect 50 0 45 0;
#X connect 50 0 46 0;
#X connect 50 0 47 0;
#X connect 51 0 50 0;
#X connect 52 0 51 0;
#X connect 53 0 51 0;
#X connect 54 0 51 0;
#X connect 55 0 51 0;
#X connect 56 0 51 0;
#X connect 57 0 51 0;
#X connect 58 0 51 0;
#X connect 59 0 51 0;
#X connect 60 0 51 0;
#X connect 61 0 60 0;
#X connect 61 1 59 0;
#X connect 61 2 58 0;
#X connect 61 3 57 0;
#X connect 61 4 56 0;
#X connect 61 5 55 0;
#X connect 61 6 54 0;
#X connect 61 7 53 0;
#X connect 61 8 52 0;
#X connect 62 0 68 0;
#X connect 63 0 68 0;
#X connect 64 0 68 0;
#X connect 65 0 68 0;
#X connect 66 0 68 0;
#X connect 67 0 62 0;
#X connect 67 1 63 0;
#X connect 67 2 64 0;
#X connect 67 3 65 0;
#X connect 67 4 66 0;
#X connect 68 0 69 0;
#X connect 68 0 14 0;
#X connect 68 0 38 0;
#X connect 70 0 69 0;
#X connect 70 0 71 0;
#X connect 70 0 14 0;
#X connect 70 0 38 0;
#X connect 73 0 72 1;
#X connect 74 0 72 0;
#X connect 74 0 73 0;
#X connect 77 0 83 0;
#X connect 78 0 232 0;
#X connect 79 0 39 0;
#X connect 79 0 40 0;
#X connect 79 0 41 0;
#X connect 79 0 42 0;
#X connect 79 0 43 0;
#X connect 79 0 44 0;
#X connect 79 0 45 0;
#X connect 79 0 46 0;
#X connect 79 0 47 0;
#X connect 80 0 81 0;
#X connect 81 0 77 1;
#X connect 82 0 78 0;
#X connect 83 0 74 0;
#X connect 83 0 236 0;
#X connect 85 0 84 0;
#X connect 85 0 132 0;
#X connect 85 0 237 0;
#X connect 86 0 89 0;
#X connect 87 0 88 0;
#X connect 88 0 86 1;
#X connect 89 0 85 0;
#X connect 91 0 90 0;
#X connect 91 0 133 0;
#X connect 91 0 238 0;
#X connect 92 0 95 0;
#X connect 93 0 94 0;
#X connect 94 0 92 1;
#X connect 95 0 91 0;
#X connect 97 0 96 0;
#X connect 97 0 134 0;
#X connect 97 0 239 0;
#X connect 98 0 101 0;
#X connect 99 0 100 0;
#X connect 100 0 98 1;
#X connect 101 0 97 0;
#X connect 103 0 102 0;
#X connect 103 0 135 0;
#X connect 103 0 240 0;
#X connect 104 0 107 0;
#X connect 105 0 106 0;
#X connect 106 0 104 1;
#X connect 107 0 103 0;
#X connect 109 0 108 0;
#X connect 109 0 136 0;
#X connect 109 0 241 0;
#X connect 110 0 113 0;
#X connect 111 0 112 0;
#X connect 112 0 110 1;
#X connect 113 0 109 0;
#X connect 115 0 114 0;
#X connect 115 0 137 0;
#X connect 115 0 242 0;
#X connect 116 0 119 0;
#X connect 117 0 118 0;
#X connect 118 0 116 1;
#X connect 119 0 115 0;
#X connect 121 0 120 0;
#X connect 121 0 138 0;
#X connect 121 0 243 0;
#X connect 122 0 125 0;
#X connect 123 0 124 0;
#X connect 124 0 122 1;
#X connect 125 0 121 0;
#X connect 127 0 126 0;
#X connect 127 0 139 0;
#X connect 127 0 244 0;
#X connect 128 0 131 0;
#X connect 129 0 130 0;
#X connect 130 0 128 1;
#X connect 131 0 127 0;
#X connect 132 0 84 1;
#X connect 133 0 90 1;
#X connect 134 0 96 1;
#X connect 135 0 102 1;
#X connect 136 0 108 1;
#X connect 137 0 114 1;
#X connect 138 0 120 1;
#X connect 139 0 126 1;
#X connect 140 0 221 1;
#X connect 141 0 169 0;
#X connect 142 0 151 0;
#X connect 143 0 151 0;
#X connect 144 0 151 0;
#X connect 145 0 151 0;
#X connect 146 0 151 0;
#X connect 147 0 151 0;
#X connect 148 0 151 0;
#X connect 149 0 151 0;
#X connect 151 0 182 0;
#X connect 151 0 184 0;
#X connect 152 0 162 1;
#X connect 153 0 156 1;
#X connect 154 0 155 0;
#X connect 155 0 156 0;
#X connect 156 0 160 0;
#X connect 157 0 158 0;
#X connect 157 0 168 0;
#X connect 157 0 159 0;
#X connect 157 0 179 0;
#X connect 157 0 209 0;
#X connect 157 0 210 0;
#X connect 158 0 153 0;
#X connect 159 0 140 0;
#X connect 160 0 161 0;
#X connect 160 0 162 0;
#X connect 161 0 160 1;
#X connect 162 0 163 0;
#X connect 163 0 164 0;
#X connect 164 0 165 0;
#X connect 165 0 166 0;
#X connect 165 0 167 0;
#X connect 166 0 165 1;
#X connect 167 0 170 0;
#X connect 167 0 150 0;
#X connect 168 0 152 0;
#X connect 169 0 140 0;
#X connect 170 0 171 0;
#X connect 170 1 172 0;
#X connect 170 2 173 0;
#X connect 170 3 174 0;
#X connect 170 4 175 0;
#X connect 170 5 176 0;
#X connect 170 6 177 0;
#X connect 170 7 178 0;
#X connect 171 0 142 0;
#X connect 172 0 143 0;
#X connect 173 0 144 0;
#X connect 174 0 145 0;
#X connect 175 0 146 0;
#X connect 176 0 147 0;
#X connect 177 0 148 0;
#X connect 178 0 149 0;
#X connect 179 0 142 0;
#X connect 179 0 143 0;
#X connect 179 0 144 0;
#X connect 179 0 145 0;
#X connect 179 0 146 0;
#X connect 179 0 147 0;
#X connect 179 0 148 0;
#X connect 179 0 149 0;
#X connect 180 0 181 0;
#X connect 181 0 160 0;
#X connect 181 0 165 0;
#X connect 182 0 183 0;
#X connect 183 0 185 1;
#X connect 184 0 185 0;
#X connect 185 0 186 0;
#X connect 186 0 187 0;
#X connect 187 0 205 0;
#X connect 188 0 230 1;
#X connect 205 0 206 0;
#X connect 205 1 207 0;
#X connect 206 0 214 0;
#X connect 206 0 216 0;
#X connect 207 0 217 0;
#X connect 207 0 219 0;
#X connect 208 0 229 1;
#X connect 209 0 188 0;
#X connect 210 0 208 0;
#X connect 211 0 221 0;
#X connect 212 0 214 1;
#X connect 213 0 212 0;
#X connect 214 0 215 0;
#X connect 215 0 217 0;
#X connect 215 0 218 0;
#X connect 216 0 212 0;
#X connect 217 0 229 0;
#X connect 217 0 230 0;
#X connect 218 0 222 0;
#X connect 219 0 222 0;
#X connect 220 0 223 0;
#X connect 221 0 220 0;
#X connect 222 0 220 1;
#X connect 222 0 224 0;
#X connect 223 0 225 0;
#X connect 223 0 226 0;
#X connect 224 0 217 0;
#X connect 227 0 221 0;
#X connect 228 0 227 0;
#X connect 229 0 211 0;
#X connect 230 0 228 0;
#X connect 232 0 79 0;
#X coords 0 -1 1 1 370 430 1 100 100;
#X restore -544 -304 pd tetter;
